<svg xmlns="http://www.w3.org/2000/svg" width="24.124" height="25.558"><g fill="#1f2a35"><path data-name="パス 3" d="M23.828 4.779a1.332 1.332 0 0 0-1.03-.488H5.455l-.59-2.027A2.592 2.592 0 0 0 2.928.469L.804.015a.665.665 0 0 0-.279 1.3l2.12.454a1.264 1.264 0 0 1 .946.874l3.873 13.306a3.032 3.032 0 0 0-.253.133 2.688 2.688 0 0 0-.977 1.006 2.773 2.773 0 0 0-.339 1.28v.069a2.752 2.752 0 0 0 2.752 2.685h12.458a.665.665 0 0 0 0-1.329H8.647a1.412 1.412 0 0 1-.554-.111 1.427 1.427 0 0 1-.627-.517 1.353 1.353 0 0 1 .062-1.625 1.376 1.376 0 0 1 .366-.315 1.689 1.689 0 0 1 .515-.2l12.519-2.038a2 2 0 0 0 1.634-1.571l1.532-7.53a1.358 1.358 0 0 0 .034-.266 1.331 1.331 0 0 0-.3-.841zm-2.566 8.371a.665.665 0 0 1-.545.524L8.754 15.622l-2.912-10h16.952z"/><path data-name="パス 4" d="M10.186 22.203a1.832 1.832 0 1 0 .664.807 1.831 1.831 0 0 0-.664-.807zm-.345 1.809a.746.746 0 0 1-.268.325.74.74 0 0 1-.7.068.745.745 0 0 1-.326-.269.743.743 0 0 1-.068-.7.745.745 0 0 1 .269-.326.732.732 0 0 1 .413-.126.74.74 0 0 1 .682 1.028z"/><path data-name="パス 5" d="M20.247 22.203a1.832 1.832 0 1 0 .664.807 1.832 1.832 0 0 0-.664-.807zm-.345 1.809a.741.741 0 0 1-.269.325.739.739 0 0 1-.7.068.745.745 0 0 1-.326-.269.744.744 0 0 1-.068-.7.742.742 0 0 1 .269-.326.731.731 0 0 1 .413-.126.74.74 0 0 1 .681 1.028z"/></g></svg>