<svg xmlns="http://www.w3.org/2000/svg" width="22.085" height="23.663"><g data-name="グループ化 5"><g data-name="グループ化 3"><g data-name="グループ化 1"><circle data-name="楕円形 1" cx="8.282" cy="8.282" r="8.282" fill="rgba(0,0,0,0)" transform="translate(1.972 1.972)"/></g><g data-name="グループ化 2"><path data-name="パス 1" d="M10.254 3.944a6.31 6.31 0 1 1-6.31 6.31 6.318 6.318 0 0 1 6.31-6.31m0-3.944a10.254 10.254 0 1 0 10.254 10.254A10.254 10.254 0 0 0 10.254 0z" fill="#e6e6e6"/></g></g><g data-name="グループ化 4"><path data-name="線 1" fill="#fff" d="M15.878 17.127l4.236 4.564"/><path data-name="パス 2" d="M20.115 23.663a1.966 1.966 0 0 1-1.446-.631l-4.236-4.564a1.972 1.972 0 0 1 2.891-2.683l4.236 4.564a1.972 1.972 0 0 1-1.445 3.313z" fill="#e6e6e6"/></g></g></svg>