<svg xmlns="http://www.w3.org/2000/svg" viewBox="0 0 106.1 95.87"><defs><style>.cls-1{fill:#f5b437}.cls-2{fill:#fff}.cls-3{fill:#828282}</style></defs><g id="レイヤー_2" data-name="レイヤー 2"><g id="レイヤー_1-2" data-name="レイヤー 1"><ellipse class="cls-1" cx="67.03" cy="22.24" rx="39.07" ry="22.24"/><path class="cls-2" d="M82.06 23.92v-.08a.17.17 0 0 1 0-.07s.08 0 .08.06-.03.11-.08.09zm.08-.16s-.06 0 0-.05.02.05 0 .05zM55.8 28s-.09 0-.1-.07a.08.08 0 0 1 .1-.09.11.11 0 0 1 .09.09s-.04.07-.09.07z"/><path class="cls-2" d="M83.23 22.65a.34.34 0 0 1-.18 0 .25.25 0 0 0-.11-.05v.06c0 .01 0 .05 0 0s0-.05-.06-.05-.07 0-.12.06a.86.86 0 0 1-.24 0h-.13a1.33 1.33 0 0 1-.17.16s-.12 0-.16.1a.57.57 0 0 1-.19.17 1.16 1.16 0 0 0-.16.11.43.43 0 0 0-.09.1c0 .06-.06.13-.13.13a1.1 1.1 0 0 1-.32-.1H81s-.06 0 0 .06.1.06.11.08-.17 0-.24 0-.21-.12-.26-.13-.06 0-.11 0-.1 0-.06-.06 0 0 0-.08.07 0 .11 0h.1c.04 0 0 0 0-.05a.74.74 0 0 0-.27-.1.32.32 0 0 0-.14 0s0-.05-.08-.1.06 0 0-.05 0 0 0-.05.16-.07.25 0 .1.13.15.18.15.05.24.11a.42.42 0 0 0 .22.1c.06 0 0-.06-.07-.09a2.42 2.42 0 0 1-.34-.25c-.21-.15-.32-.7-.34-.84a1.53 1.53 0 0 0-.12-.45 1.17 1.17 0 0 1-.09-.24.46.46 0 0 0-.09-.17v-.18l.34.11c.05 0 0 .08-.11.08s-.06 0 0 0h.16a.11.11 0 0 0 .08-.05s0 .06 0 0a.3.3 0 0 1 .2.05h-.06c-.06 0 0 .05 0 .07s0 0 .06 0 0 0 0 .06-.07 0-.09 0h-.08c-.02 0 0 0 0 .05s0 0-.07 0 0 .05 0 .05h.07a.28.28 0 0 0 .23-.09.22.22 0 0 0-.12-.24 3 3 0 0 0-.65-.2.77.77 0 0 1-.38-.19s-.08-.13-.11-.23a.7.7 0 0 0-.16-.2 1.2 1.2 0 0 1-.15-.32.42.42 0 0 1 .08-.4.51.51 0 0 0 .09-.32.5.5 0 0 1 0-.21 1.74 1.74 0 0 1 .11-.18.68.68 0 0 0 .08-.19c0-.09.15-.24.18-.28s.16-.16.21-.23a1.22 1.22 0 0 0 .22-.26v-.22c0-.05.08-.23.12-.27l.27-.3c.06-.07.1-.09.11-.14a.23.23 0 0 1 .07-.14v-.17c0-.06.06-.06.07-.14s0-.18-.06-.21a.12.12 0 0 1 0-.12v-.27c0-.02-.11.06-.13.09a.61.61 0 0 0 0 .16h-.15s-.07.09-.1.15a.63.63 0 0 1-.21.18c-.09 0-.16.29-.2.38a.4.4 0 0 1-.21.18l-.25.18-.25.19c-.05.05-.27.17-.33.22s-.06.1-.09.13a3.4 3.4 0 0 1-.28.21.25.25 0 0 0-.13.12.57.57 0 0 1-.19.22 1.6 1.6 0 0 0-.27.22l-.11.11a1.25 1.25 0 0 0-.12.08s-.09 0-.18.06h-1.14a5.08 5.08 0 0 1-1.28-.35c-.16-.1-.17-.18-.18-.23s-.09-.1-.14-.11 0-.15-.07-.19 0-.14 0-.22v-.19a.06.06 0 0 0-.1 0 .39.39 0 0 1-.18 0s-.08 0-.06.08a2.85 2.85 0 0 1 0 .31c0 .06-.11.12-.14.15a.47.47 0 0 1-.28 0 .14.14 0 0 1-.07-.18 2.76 2.76 0 0 0 .08-.27c0-.06.1-.06.15-.08s.19 0 .22-.05-.13-.05-.25-.07a2 2 0 0 1-.29-.14 1.27 1.27 0 0 1-.22 0l-.41-.11-.93-.23h-.06.11a1.16 1.16 0 0 1 .41.13.43.43 0 0 0 .22.06.46.46 0 0 1 .17.07h.16-.09a.21.21 0 0 1-.06.12c-.05.05-.12.17-.15.15a.74.74 0 0 0-.16-.12h-.07a.34.34 0 0 1-.18 0 .38.38 0 0 0-.15 0 .34.34 0 0 1-.17 0h-.09a.21.21 0 0 1-.08 0v-.11c0-.03-.1 0-.11-.05s-.09-.12-.13-.13 0-.07 0-.13-.1-.06-.13-.1a.17.17 0 0 1 0-.15h.12a.2.2 0 0 1 .15 0 .21.21 0 0 0 .13 0 .26.26 0 0 1 .09 0h.08l-.53.33c-.18-.06-.72-.27-.78-.31a.71.71 0 0 0-.16-.07l-.18-.08h-.06c-.06 0-.06-.06-.07-.07s0-.05.07-.05 0 0-.12-.07l-.43-.22c-.16-.1-.2-.19-.21-.24a.2.2 0 0 0-.09-.11 1.69 1.69 0 0 1-.3-.18 2.78 2.78 0 0 1-.34-.24c0-.05 0-.08-.08-.11s-.37-.19-.44-.25l-.48-.21v-.07h-.08a2.61 2.61 0 0 1-.38-.22c-.07-.06-.14-.21-.19-.25a.15.15 0 0 1-.07-.12c0-.05-.06-.08-.11-.09s-.14-.12-.21-.17l-.23-.21a.32.32 0 0 1-.1-.1s-.11 0-.14-.08-.08-.07-.15-.14l-.21-.34a1.51 1.51 0 0 1-.09-.14s-.08-.11-.09-.15a.47.47 0 0 0-.14-.14.32.32 0 0 1-.1-.2c0-.07-.2-.24-.26-.32a.61.61 0 0 1-.11-.32s0-.09-.12-.16a.44.44 0 0 1-.12-.25v-.05l-.1-.11v-.08c0-.08 0 0-.07-.05a.32.32 0 0 1-.14-.13c0-.06-.35-.32-.4-.36s-.07-.12-.08-.13l-.31-.23c-.08-.07-.37-.42-.43-.5s-.26-.24-.34-.36A2.08 2.08 0 0 0 63 9a1.93 1.93 0 0 1-.36-.22c-.07-.09-.28-.19-.29-.23s0-.07 0-.1v-.08a.16.16 0 0 0-.11-.12.42.42 0 0 1-.24-.33.22.22 0 0 0-.2-.16.24.24 0 0 0-.21.09.36.36 0 0 0-.09.08v.19a.47.47 0 0 1-.09.22 1.31 1.31 0 0 1-.28.2.81.81 0 0 1-.31 0s-.08 0-.11.05a.35.35 0 0 1-.23 0c-.08 0 0-.17-.07-.2l-.18-.15v.09a.43.43 0 0 0 0 .29c0 .1.08.12.08.22a.77.77 0 0 1-.17.35v.19c0 .11-.17.25-.25.34s0 .46.07.58.34.72.36.75a.16.16 0 0 0 .06.08.29.29 0 0 1 0 .13.09.09 0 0 0 0 .07.33.33 0 0 1 .09.14l.18.46a2.71 2.71 0 0 1 .13.44c0 .06.08.23.09.33s0 .34.06.38a2.57 2.57 0 0 1 0 .33 2.89 2.89 0 0 0 .06.36 1.94 1.94 0 0 1 0 .5.67.67 0 0 1-.11.24.46.46 0 0 0 0 .21v.41a1.68 1.68 0 0 1-.16.39c0 .05-.16.25-.18.28a.3.3 0 0 0-.08.17c0 .07-.16.21-.18.27a1.88 1.88 0 0 0 0 .41 1.07 1.07 0 0 1 0 .25.55.55 0 0 0 0 .22 2.46 2.46 0 0 1 0 .26 4.19 4.19 0 0 1 0 .44 3.55 3.55 0 0 1 0 .49 1 1 0 0 0-.07.27v.26c0 .07-.21.16-.21.16l-.08.17a.52.52 0 0 1-.12.13s-.08.07-.11.07h-.11c-.02 0 0 0 0 0a.14.14 0 0 0-.13 0s-.08.09-.12.1l-.27.05a1.45 1.45 0 0 0-.35.19v.15a.21.21 0 0 1-.07.15.62.62 0 0 0-.17.27.67.67 0 0 0 .1.32.14.14 0 0 1 0 .14v.07a.1.1 0 0 1 0 .09.17.17 0 0 0 .09.13c.07.05.06.17 0 .21a.33.33 0 0 1-.07.13.9.9 0 0 1-.07.14v.15c0 .02 0 0 0 0s.08.12.11.16a.58.58 0 0 1 0 .17c0 .07.13.15.16.2a.76.76 0 0 1 .08.21c0 .06 0 .1-.07.18s0 .23 0 .31-.07.14-.11.2a.75.75 0 0 0-.15.18v.08c0 .02 0 0 0 0l-.19.23A2.14 2.14 0 0 1 58 24l-.37.2a.28.28 0 0 1-.18 0l-.25-.13a1.21 1.21 0 0 0-.32-.1.32.32 0 0 1-.21-.09.14.14 0 0 1 0-.15v-.13c0-.02 0 0-.06 0h-.16a.32.32 0 0 0-.15.05l-.16.05h-.34s-.05.05-.05.06 0 0-.11.09a.37.37 0 0 1-.29 0v-.07c0-.07 0-.1-.06-.08a.09.09 0 0 1-.1 0 1.18 1.18 0 0 0-.19-.11.17.17 0 0 0-.14-.06 1.91 1.91 0 0 1-.28-.07s-.06-.05 0-.08 0-.08 0-.08 0-.06-.08-.07a.13.13 0 0 0-.09 0h-.05a.1.1 0 0 0-.06-.05s-.22-.19-.28-.26a.17.17 0 0 0-.11-.07s0-.08-.08-.1a.31.31 0 0 0-.2 0v.17c0 .11-.1.09-.16.1s-.1 0-.14 0h-.19s-.08-.06-.1 0 0 0 0 .07a.34.34 0 0 1 0 .15.25.25 0 0 1-.11.17.16.16 0 0 0-.08.1v.14a.65.65 0 0 1 0 .14.41.41 0 0 0 .07.11.35.35 0 0 1 .08.1c0 .05.09.1.12.13a.21.21 0 0 0 .14.07s.16.12.18.16 0 .05.06.09a.93.93 0 0 0 0 .1l.07.05c.07.05 0 .07 0 .1v.06l.13.06v.1c0 .03 0 .05.05.1a.12.12 0 0 0 .1.08.05.05 0 0 1 .06.06.36.36 0 0 1 0 .19l-.17.09-.23.15h-.09l-.21.19c0 .05 0 .12-.09.15a.8.8 0 0 0-.11.21c0 .07-.23.22-.27.28s0 .13 0 .22a.15.15 0 0 1-.1.17.27.27 0 0 1-.2 0 .23.23 0 0 1-.08-.14.18.18 0 0 0-.12-.11.2.2 0 0 1-.09-.08h-.1a2 2 0 0 1-.11.17c0 .08-.08.13-.07.16a.14.14 0 0 1 0 .11s-.06 0-.08.05h-.11a.21.21 0 0 1-.11.05l-.11.13a.12.12 0 0 0 0 .07.5.5 0 0 1-.08.07.26.26 0 0 1-.11 0 .81.81 0 0 1-.11 0 .65.65 0 0 1-.14 0 .48.48 0 0 1-.16 0 .86.86 0 0 0-.23 0c-.06 0-.26.12-.29.2a2.05 2.05 0 0 1-.12.2s-.08 0-.1.06 0 .08 0 .14a1.56 1.56 0 0 0 0 .16.86.86 0 0 0 0 .18.57.57 0 0 1 0 .22v.23a.47.47 0 0 1 0 .12 2.12 2.12 0 0 0 0 .24.55.55 0 0 1 0 .13.26.26 0 0 1-.07.1v.1a1 1 0 0 1-.17.14.23.23 0 0 0 0 .11 1.33 1.33 0 0 0-.05.19.33.33 0 0 0 .08.18v.09c0 .02-.05.06 0 .08s0 0 .06.11.12.12.2.15.19 0 .24 0 .07.08.07.1a.13.13 0 0 0 0 .08.4.4 0 0 1 .07.13l.13.21c0 .07.06 0 .15.06a.2.2 0 0 0 .12 0H51l.08.05h.07a.45.45 0 0 1 .12.12l.14.18a2.39 2.39 0 0 0 .13.24l.07.07v.13a.35.35 0 0 1 .05.08v.11a.41.41 0 0 1 0 .08.11.11 0 0 0 0 .06v.16a.33.33 0 0 1 0 .14v.07a.13.13 0 0 1 0 .08v.12c0 .02 0 0 0 0v.21a.65.65 0 0 1 0 .11.9.9 0 0 0 0 .09h-.2v.05a.79.79 0 0 1 0 .16.67.67 0 0 1-.1.24l-.17.23a1.14 1.14 0 0 0-.1.19 1.69 1.69 0 0 0 0 .24.42.42 0 0 1-.06.18 1 1 0 0 0 0 .34.32.32 0 0 0 .09.22.75.75 0 0 1 0 .16c0 .06.09.15.1.18a.3.3 0 0 1 0 .13v.09c0 .09.05 0 .07 0h.07l.06.08h.09a.29.29 0 0 0 .13-.05h.19c.07 0 .18.14.2.16a.21.21 0 0 0 .1.06.59.59 0 0 0 .11-.08v-.08c0-.02 0 0 .05-.05s0 0 0-.06v-.09a.61.61 0 0 0 .07-.1v-.08a.23.23 0 0 1 .14 0l.14-.05.2-.09a.43.43 0 0 1 .16-.05h.16a.09.09 0 0 0 0-.07 1.08 1.08 0 0 1 .11-.18.06.06 0 0 0 0-.08v-.19a1.63 1.63 0 0 1 .06-.51c0-.16.07-.17.12-.19s.24 0 .36 0a.69.69 0 0 0 .25-.18s.07 0 .14-.08 0-.12 0-.15a.25.25 0 0 0 0-.1s0-.07.06-.17.13-.06.26-.07.2 0 .21.1a.09.09 0 0 1 0 .11c0 .06-.08.07-.09 0s0 0-.08 0 0 .08 0 .17 0 0 .08 0 .05 0 0-.07 0-.06.05-.12a.42.42 0 0 1 .26 0h.21a.34.34 0 0 0 .17 0h.18c.04 0 .18.06.26.09s0 0 .09.13.06.08.11.06a.75.75 0 0 1 .21 0h.28c.1 0 .11-.08.14-.11a.29.29 0 0 0 .1-.17c0-.06.07-.09.11-.12s0 0 .08 0h.15c.08 0 .08-.09.13-.1s.07 0 0-.1-.09-.07-.14-.1-.07 0-.06-.09 0-.08-.09-.15a1.8 1.8 0 0 0-.34-.17.67.67 0 0 0-.28-.06 1 1 0 0 1-.31-.13c-.05 0-.07 0-.07-.09s-.06-.08-.1-.13-.11-.14-.11-.2.33.19.33.12a1 1 0 0 0-.3-.16.24.24 0 0 1-.15-.24s-.05-.11-.1-.1-.15-.09-.14-.18-.12-.14-.23-.17-.12 0-.17 0h-.15c-.1 0-.31.14-.38.15a.47.47 0 0 1-.21 0 .7.7 0 0 1-.17-.09 1 1 0 0 0-.2-.17.2.2 0 0 1-.12-.12c0-.06-.2-.14-.25-.2a.76.76 0 0 0-.32-.19.91.91 0 0 1-.28-.05c-.13-.06-.11-.09-.18-.15s-.06-.2.09-.81a3.08 3.08 0 0 1 .73-1.21c.15-.16.21-.18.27-.17H54c.11 0 .23.09.29.09s.07-.05.22-.09a1.42 1.42 0 0 1 .39 0s.05.06.09.09a.75.75 0 0 1 .22.11.39.39 0 0 1 .13.23s.06.08.07.13 0 0 .08 0 .14.17.19.2a1 1 0 0 1 .31.29.6.6 0 0 1 .06.3c0 .05 0 0 .12.05a.61.61 0 0 0 .22.1.71.71 0 0 0 .22.07c.09 0 0 .08-.07.09a.28.28 0 0 1-.11.05s-.07-.08-.09-.1 0 0-.09 0a.05.05 0 0 0-.05 0v.1a.33.33 0 0 0 .14 0c.06 0 0 0 0 0s.13.07.21.07 0-.1.06-.15.08-.08.09-.11a.44.44 0 0 1 .12-.11 5 5 0 0 0 .36-.39.66.66 0 0 1 .25-.13.42.42 0 0 1 .12-.07s.23-.14.29-.16a1.07 1.07 0 0 0 .26-.2 3.46 3.46 0 0 1 1-.61 2.3 2.3 0 0 1 1.4-.17 2.18 2.18 0 0 1 1 .38c.06.08.26.2.36.3s.24.22.29.26a.59.59 0 0 0 .22.05s0 .08.11.07a2.65 2.65 0 0 1 .64.17c.06 0 .12.18.18.23s.17.18.23.23l.46.28a.52.52 0 0 0 .21.15c.09 0 .3.1.32.12s.12.16.19.17a4.79 4.79 0 0 0 .46.16 1.27 1.27 0 0 1 .41.24.4.4 0 0 0 .13.15h.17a2.15 2.15 0 0 0 .26.07s.09 0 .11.05.1.05.19.12a.4.4 0 0 0 .28.08h.06a.69.69 0 0 0 .22 0s0 .06.09.09 0 0 .07-.07a.23.23 0 0 1 .19.06s0 .11.11.11.06 0 .13.1a1 1 0 0 0 .34.15s.11.1.21.14a1 1 0 0 1 .34.37c0 .12.25.22.35.31s.08.15.12.13 0-.17 0-.38a.42.42 0 0 1 .18-.32s.06-.11.1-.14 0-.16 0-.21.06-.15.06-.22a.93.93 0 0 1 0-.24c0-.08.08-.23.09-.32s-.07-.13-.1-.17a.37.37 0 0 1 0-.25 2.56 2.56 0 0 1 .2-.65 9.16 9.16 0 0 1 .8-1.24 10.93 10.93 0 0 1 .91-1 .09.09 0 0 0 0-.06h.06s.18-.15.16-.18 0-.05.08-.05a1.37 1.37 0 0 0 .28-.22 5.6 5.6 0 0 1 .53-.48 4.6 4.6 0 0 1 .5-.29l.67-.42a.69.69 0 0 1 .23-.07c.08 0 .09 0 .14-.06a1.8 1.8 0 0 1 .36-.15 3.26 3.26 0 0 1 .61-.13.66.66 0 0 1 .34 0s.06.07.08.09.06 0 .06.06-.08.06-.05.07a1 1 0 0 1 .24.09 1.63 1.63 0 0 0 .46.11 2.15 2.15 0 0 0 .34 0 2.1 2.1 0 0 1 .36 0h.2c.03 0 .06 0 .1.07a1.14 1.14 0 0 0 .27 0h.29c.06 0 0-.06 0-.07s-.08-.07-.12-.09 0 0-.06 0-.07-.08-.06-.21.16-.29.26-.37.13 0 .22-.05.16 0 .19 0 0-.06 0-.08a.13.13 0 0 1 .05-.09v.06c0 .06 0 0 .12 0s.18.09.22.13 0 .05 0 .09a.09.09 0 0 1-.1.06s0 .06-.12.05-.09 0-.15-.05 0-.13-.08-.14-.05 0-.05 0v.16a.14.14 0 0 1 .09 0v.07a1.17 1.17 0 0 0 0 .11h.1a.58.58 0 0 1 .14 0h.33c.05 0 .06-.07.11-.09s.09 0 .17-.05.06-.09.05-.12 0-.09 0-.08.06 0 .11 0a.85.85 0 0 1 .17-.08V24.6a.24.24 0 0 1 .15 0h.26c.1 0 0-.05 0-.06a.17.17 0 0 0-.14 0h-.11c-.11 0 0-.08 0-.17s0-.11.12-.16a.57.57 0 0 1 .21-.1c.07 0 .06.1.14.11a.37.37 0 0 0 .26-.08c0-.05.21-.17.28-.15a.35.35 0 0 0 .18 0l.09-.06h.26a3.12 3.12 0 0 1 .43 0c.1 0 .16 0 .16.08s0 .06-.05.08 0 0 .08 0l.15-.07s0-.05-.06-.05 0 0 0-.06h.08s.07-.05 0-.07 0-.09 0-.09.12 0 .11-.06a.45.45 0 0 1 0-.12.27.27 0 0 1 0-.15.58.58 0 0 0 0-.14c0-.05.07 0 .12 0s.06-.08.08-.1.06-.11.09-.13a.39.39 0 0 1 .2-.05h.06c.06 0 0 .06.06 0s.23-.1.23-.1a.1.1 0 0 0 .08 0l.39.1c.06 0 .15-.13.17-.14h.07v-.1c0-.04.05-.11-.01-.11zM60.43 10s-.06 0 0-.06.04.06 0 .06zm0 1s.05-.05.06 0 0 .1 0 .1-.02-.1-.02-.18zm.16.29a.15.15 0 0 1-.12 0v-.07a.09.09 0 0 1 .07 0s.12-.03.09-.01zm.26-2.46a.14.14 0 0 0-.07.08s-.14 0-.11-.09a.15.15 0 0 1 .13-.09c.1-.07.14 0 .09.02zM56.12 28a.43.43 0 0 1-.15.15.24.24 0 0 1-.13.05s-.06-.05-.16 0a.15.15 0 0 1-.17 0v-.23h.06a.17.17 0 0 0 .06-.11.16.16 0 0 1 .11-.1.06.06 0 0 1 .06 0v.08-.07h.06c.06 0 .06 0 .1.06a1.06 1.06 0 0 1 .15.15s.03-.06.01.02zm1.57.64a.11.11 0 0 1-.1 0s-.07 0-.06-.08 0-.06 0-.06h.1s.08.1.06.13zM58.86 27a.5.5 0 0 1-.13 0h-.23l-.17.16h-.14c-.05 0-.1 0-.11-.05a.77.77 0 0 0 0-.1c0-.07-.08-.1 0-.17s.07-.12.1-.08.06.05.08 0 .1 0 .11 0a.22.22 0 0 1 .06-.13s.05-.1.11-.08.1.07.18.08a.19.19 0 0 1 .12.06v.09c0 .04.04.15.02.22zm2.87-8.09v.11a.1.1 0 0 1-.08-.07s0-.06.07-.1a.07.07 0 0 1 .06 0 .16.16 0 0 0-.05.01zm1.8-2.59c-.07 0-.11.05-.12 0s0-.07-.06-.05a.27.27 0 0 0 0 .09h-.21v-.05c0-.05 0 0 0 0h.07v-.06c0-.01 0 0-.06 0h.1v-.06h.06c.06 0 0 0 0 0s-.07 0 0 0h.11s-.09.07-.07.11a.42.42 0 0 1 0 .18l.05-.05c.05-.05 0 0 .06 0s0 0 0 .08v.09zm.55-5.69h-.14c-.04 0-.07-.05-.07-.08s0-.15-.1-.14-.07.05 0 .09 0 .11 0 .08a.66.66 0 0 0-.08-.13c-.05-.05 0-.1 0-.14s.08 0 .15 0a.55.55 0 0 0 .17.11c.04.03.09.12.07.16zm1.09 13.47H64.96l-.08.06-.13.1s-.06 0-.06.06.06 0 0 0h-.08c-.02 0 0 .06-.05 0a.09.09 0 0 1 0-.1.38.38 0 0 1 .13 0s.07-.09.11-.12a.1.1 0 0 1 .1-.05s.08-.05.12-.07a.42.42 0 0 1 .16 0s.04.11-.01.12zm9.28-5.69a.3.3 0 0 0-.1 0v.09c0 .04.06.09 0 .11s-.07 0-.1.05 0 .07 0 .11v.1c0 .01-.05 0-.06 0s0-.07 0-.09-.1 0-.11 0 0 .06 0 0v-.2c0-.02.14-.05.15-.09s0-.17.11-.19h.2s-.07.09-.09.11zm1 2.37s-.06.06-.08.06h-.07s-.12.09-.13.11a.19.19 0 0 0 0 .08v.1a.57.57 0 0 0 0 .13v.09h-.09v-.1h-.06v.08l-.07-.06c-.07-.06-.06 0-.09 0a.19.19 0 0 1-.07-.12v-.09c0-.02.06 0 0-.08a.34.34 0 0 0 0-.1h.07s0-.06.07-.06H75c.07 0 0 0 .07-.06s.06 0 .09 0h.09a.17.17 0 0 1 .14 0h.26c-.01 0-.12.02-.15.02zm.91.5h-.15c-.02 0-.07.09-.07.11s0 .06-.08.06 0 0 0-.06v-.22l.15-.07a.13.13 0 0 1 .15.05c.09.08.08.13.05.13z"/><path class="cls-2" d="M74.87 21s-.07-.08 0-.12.1-.06.13 0 0 .12 0 .12a.22.22 0 0 1-.13 0z"/><path class="cls-3" d="M5.47 65a4.07 4.07 0 0 0-.07.71 6.4 6.4 0 0 0 .24 1.68A12.41 12.41 0 0 0 7 71a4.06 4.06 0 0 0 .87 1 3.36 3.36 0 0 0 .57.35 13 13 0 0 0 2.91 5.9v.76a.65.65 0 0 1-.23.15 5.94 5.94 0 0 1-1.1.31 10 10 0 0 0-1.5.41c-.62.24-1.46.51-2.36.88A10.4 10.4 0 0 0 2 83.47a9.4 9.4 0 0 0-2 6.28c0 .39 0 .79.05 1.21a1.52 1.52 0 0 0 .22.68 2.93 2.93 0 0 0 .8.81 10.82 10.82 0 0 0 2.33 1.2 39.63 39.63 0 0 0 13.87 2.22 43.18 43.18 0 0 0 12-1.58 18.06 18.06 0 0 0 3.53-1.42 5.46 5.46 0 0 0 1.07-.77 2.45 2.45 0 0 0 .38-.46 1.61 1.61 0 0 0 .23-.68v-1.2a10.39 10.39 0 0 0-1-4.64 8.63 8.63 0 0 0-3.77-3.76 34.15 34.15 0 0 0-3.73-1.56 21.35 21.35 0 0 0-2.35-.64 1.47 1.47 0 0 1-.49-.21v-.77a13 13 0 0 0 2.92-5.9 3.71 3.71 0 0 0 .56-.35 4.31 4.31 0 0 0 1.23-1.62 15.39 15.39 0 0 0 1-2.88 6.4 6.4 0 0 0 .24-1.68 2.76 2.76 0 0 0-.07-.71m0 0a3.8 3.8 0 0 0 .69-.79 7.35 7.35 0 0 0 1-4.1 16.91 16.91 0 0 0-.41-3.51 15.45 15.45 0 0 0-4.32-8 11.38 11.38 0 0 0-3.49-2.29 6.74 6.74 0 0 0 .1-1.11 5.68 5.68 0 0 0-5.38-6 5.69 5.69 0 0 0-5.39 6 6.74 6.74 0 0 0 .1 1.11A11.05 11.05 0 0 0 8.5 48.6a15.39 15.39 0 0 0-4.33 8 17.52 17.52 0 0 0-.4 3.51 7.28 7.28 0 0 0 1 4.1 3.8 3.8 0 0 0 .69.79m9.11-22.79a3.55 3.55 0 0 1 5.37 0 4.43 4.43 0 0 1 1.11 3 4.32 4.32 0 0 1 0 .62 8.05 8.05 0 0 0-1.76-.2 7.4 7.4 0 0 0-2 .28 7.47 7.47 0 0 0-2-.28 8.05 8.05 0 0 0-1.76.2 4.32 4.32 0 0 1 0-.62 4.43 4.43 0 0 1 1.05-2.97zM6.4 63.6a2.72 2.72 0 0 1-.4-.5 5.58 5.58 0 0 1-.65-3 14.76 14.76 0 0 1 .38-3.1 13.6 13.6 0 0 1 3.81-7.1 8.56 8.56 0 0 1 5.74-2.55 5.84 5.84 0 0 1 1.77.27.82.82 0 0 0 .44 0 5.73 5.73 0 0 1 1.76-.27A8.56 8.56 0 0 1 25 49.93 13.53 13.53 0 0 1 28.8 57a14.76 14.76 0 0 1 .37 3.11 5.49 5.49 0 0 1-.71 3.06 2.68 2.68 0 0 1-.33.4.75.75 0 0 0-.77.31 1 1 0 0 0-.16.61l-.93 1.26-.21-2.51-.3-.18a23.49 23.49 0 0 1-6.42-5.75 12.67 12.67 0 0 1-1.17-1.87c-.11-.22-.19-.39-.23-.5l-.05-.12-.62-1.82-.62 1.84c0 .14-1.51 4.22-7.88 8.27l-.29.18-.22 2.51-.93-1.26a1 1 0 0 0-.16-.61.75.75 0 0 0-.77-.33zm21.06 2.87c0 .15-.05.29-.1.47a10.74 10.74 0 0 1-1.1 3 1.86 1.86 0 0 1-.48.54 2.17 2.17 0 0 1-.61.33.85.85 0 0 0-.52.67 11.28 11.28 0 0 1-2.83 5.77.94.94 0 0 0-.2.59v1.06a2 2 0 0 0 .16.8 1.79 1.79 0 0 0 .84.89 1.12 1.12 0 0 0 .25.11 4.67 4.67 0 0 1-1.14 2.42 5.73 5.73 0 0 1-4.46 1.64 5.74 5.74 0 0 1-4.47-1.64 4.6 4.6 0 0 1-1.13-2.4 2.78 2.78 0 0 0 .62-.39 1.67 1.67 0 0 0 .45-.61 1.78 1.78 0 0 0 .17-.82v-1.07a.94.94 0 0 0-.2-.59 11.28 11.28 0 0 1-2.83-5.77.85.85 0 0 0-.52-.67 2.49 2.49 0 0 1-.61-.33 2.59 2.59 0 0 1-.73-1 14.92 14.92 0 0 1-.85-2.54c0-.18-.07-.32-.09-.47l2.18 3 .45-5.28a22.51 22.51 0 0 0 7.56-7.52 22.45 22.45 0 0 0 7.55 7.52l.46 5.28 2.18-3"/><path class="cls-3" d="M15.3 70.14a.63.63 0 0 0-.73.19l-2.18 3.22c-.14.21 0 .45.24.55a.66.66 0 0 0 .74-.18l2.18-3.23c.14-.2.03-.45-.25-.55zm-1.45-2.74a1.18 1.18 0 1 0-1.06-1.17 1.12 1.12 0 0 0 1.06 1.17zm6.83-2.34a1.18 1.18 0 1 0 1.06 1.17 1.11 1.11 0 0 0-1.06-1.17z"/><ellipse class="cls-1" cx="49.18" cy="48.65" rx="5.25" ry="2.75"/><ellipse class="cls-1" cx="37.87" cy="52.83" rx="2.61" ry="1.37"/></g></g></svg>