<svg xmlns="http://www.w3.org/2000/svg" viewBox="0 0 120.32 91.51"><g data-name="レイヤー 2"><g data-name="レイヤー 1" fill="none" stroke="#eda411" stroke-linejoin="round"><path d="M85.42 27c3.9-1.6 12.6-4 20.6-3.4l.4-4.9a41.85 41.85 0 0 0-6.1-.1 41.12 41.12 0 0 1 13.4-2l.1-4.2a24.13 24.13 0 0 1 2.5.8h.1l1.9-4.5c-.1 0-.1 0-.2-.1-9.6-4.1-22.2 0-30.1 4.3a42.75 42.75 0 0 1 16.7-6l-.6-4.9C91 3.6 80.62 12 77.22 15.8m18.2-.9c3.8-1.5 10-3.2 14-3.1a72.81 72.81 0 0 0-14 3.1zm-15.5 9.7c-5.4-9.1-12.4-13.6-16.7-12.3-.3.1-3.7.8-4.7 1.1a6 6 0 0 0-1.5.9c-.7.5-45.5 45.8-53.7 57.6A4.59 4.59 0 0 0 2 74.7a4.67 4.67 0 0 0 4 5.1h.2c1.2.1 1.2-.1 3.4-.7 3.1-.8 7.6-2.3 11.6-3.6a13.14 13.14 0 0 0-4.4 4.5c-.2.3-.3.5-.5.8C14.22 84 14 87.6 16 89s5.3-.2 7.4-3.4c0-.1 10.5-17.7 50.3-33.7 1.1-.4 2-.6 3-1a8.64 8.64 0 0 0 1.6-1 21.23 21.23 0 0 0 4.6-4.8c2.62-3.5 2.42-11.5-2.98-20.5z" stroke-width="4"/><path d="M17.82 66c-.5.3-1.9-.8-3.2-2.6a10.14 10.14 0 0 1-.9-1.3c.5-.6.9-1.1 1.4-1.6a11.22 11.22 0 0 1 1.3 1.6c1.3 1.8 1.9 3.5 1.4 3.9zm15.9-16c-.5.4-1.9-.7-3.2-2.5a11 11 0 0 1-1.4-2.6l1.1-1.1a12.2 12.2 0 0 1 2.1 2.3c1.3 1.8 1.9 3.5 1.4 3.9zm12 14.5c-.1-.2-.2-.3-.3-.5-1.3-1.8-1.9-3.5-1.4-3.9s1.9.8 3.2 2.6a2.09 2.09 0 0 1 .4.6c-.62.4-1.3.8-1.9 1.2zm3.6-14.7c-.5.4-1.9-.8-3.2-2.6s-1.9-3.5-1.4-3.9 1.9.8 3.2 2.6 1.9 3.5 1.4 3.9zm5.68-15c-.9.6-3.7-1.9-6.2-5.7a18.08 18.08 0 0 1-1.7-2.9c.9-.9 1.7-1.8 2.5-2.6a23.62 23.62 0 0 1 2.5 3.3c2.52 3.7 3.82 7.3 2.9 7.9zm6.42 21.7a9.83 9.83 0 0 1-1.2-1.5c-1.9-2.7-2.9-5.3-2.1-5.9s3 1.2 4.9 3.9c.5.8 1 1.5 1.4 2.1-1 .5-2 .9-3 1.4z" stroke-width="2"/></g></g></svg>