<svg xmlns="http://www.w3.org/2000/svg" viewBox="0 0 512 438.33"><defs><style>.cls-1{fill:#fff}</style></defs><g id="レイヤー_2" data-name="レイヤー 2"><g id="_2" data-name="2"><path class="cls-1" d="M420.68 350.15v-40.7H217.26l-20.29-57.66h242.57L512 53.72h-43.33L411.1 211.09H182.65l-68.5-194.68H0V57.1h85.32l103.12 293.05h232.24z"/><circle class="cls-1" cx="197.43" cy="405.77" r="32.56"/><circle class="cls-1" cx="409.05" cy="405.77" r="32.56"/><path class="cls-1" d="M286.47 161.5a19.09 19.09 0 0 0 2.87 2.34 18.31 18.31 0 0 0 23-2.34l58.33-58.33a18.31 18.31 0 0 0-25.89-25.9l-27.07 27.07v-86a18.32 18.32 0 0 0-36.63 0v86L254 77.27a18.31 18.31 0 1 0-25.9 25.9z"/></g></g></svg>