<svg xmlns="http://www.w3.org/2000/svg" viewBox="0 0 36 33"><defs><style>.cls-1{fill:#fff}</style></defs><g id="レイヤー_2" data-name="レイヤー 2"><g id="レイヤー_1-2" data-name="レイヤー 1"><path class="cls-1" d="M25.5 17.52v11A1.49 1.49 0 0 1 24 30H4.49A1.49 1.49 0 0 1 3 28.51V9a1.49 1.49 0 0 1 1.49-1.5h16.92l2.26-2.26.07-.07.07-.07.56-.56H4.49A4.49 4.49 0 0 0 0 9v19.51A4.49 4.49 0 0 0 4.49 33H24a4.49 4.49 0 0 0 4.49-4.49v-14z"/><path class="cls-1" d="M19.73 21.63l.09-.09L29 12.39l.09-.09.09-.09L34 7.37 28.59 2l-4.85 4.81-.09.09-.09.1-9.23 9.23L12 24l7.66-2.33zm-6.05.64l1.18-3.88 2.7 2.7-3.88 1.18zM35.55 4.88a1.56 1.56 0 0 0 0-2.19L33.31.45a1.56 1.56 0 0 0-2.19 0L30 1.57 34.43 6z"/></g></g></svg>