<svg xmlns="http://www.w3.org/2000/svg" viewBox="0 0 512.1 484.2"><defs><style>.cls-1{fill:#4b4b4b}</style></defs><g id="レイヤー_2" data-name="レイヤー 2"><g id="_2" data-name="2"><path class="cls-1" d="M442.5 60C397.7 22.1 333.6 0 255.2 0 180.8 0 117.3 21 71.9 58.4a196.74 196.74 0 0 0-53.1 67.4C6.5 151.7 0 180.7 0 211.5c0 37.2 7.8 71.6 23.5 101.6 15 28.7 37.3 53 65.7 72.1-6.7 28.3-16.2 68.7-16.2 68.7a20.92 20.92 0 0 0-.6 5.6 24.58 24.58 0 0 0 9.7 19.6 25.15 25.15 0 0 0 15 5.1 25.63 25.63 0 0 0 11.7-2.9l.4-.2.4-.2 12.9-7.6c11.7-6.9 29.4-17.4 45.3-26.7 7.9-4.7 15.4-9 21.3-12.5s10.5-6.1 12.2-7h.1l.1-.1c22.1-12.5 39.7-14.6 53.8-14.7 58.7-.1 121.2-11.5 171.1-42.6 24.9-15.6 46.6-36.4 61.8-63.1s23.9-58.9 23.9-96.2c0-58.8-24.7-112.5-69.6-150.4zm12.2 227.3a137.09 137.09 0 0 1-34.2 39.3c-20.8 16.4-46.9 28.3-75.5 35.9s-59.7 11.1-89.8 11.1c-18.5-.1-44.4 3.4-72.8 19.7-3.1 1.7-10.1 5.8-19.4 11.2-13.2 7.8-30.6 18-45.1 26.6 3.5-15.1 7.7-32.6 10.7-45.4a30.59 30.59 0 0 0 .9-7.1 24.41 24.41 0 0 0-3.1-12 26.9 26.9 0 0 0-5.4-6.6 29.42 29.42 0 0 0-5.9-3.9l-1.2-.6-.1-.1c-25.1-16.2-43.7-36.3-56.2-60.2s-19.1-51.8-19.1-83.7c0-25.4 5.3-48.5 15.1-69.2 14.7-30.9 39.7-56.6 73.8-74.9s77.4-28.9 127.8-28.9c71.3 0 125.9 20 162.5 51s55.7 72.8 55.8 120.9c-.1 31.4-7.1 56.4-18.8 76.9z"/><path class="cls-1" d="M135.1 183.3a29.5 29.5 0 1 0 29.5 29.5 29.49 29.49 0 0 0-29.5-29.5zm114.9 0a29.5 29.5 0 1 0 29.5 29.5 29.49 29.49 0 0 0-29.5-29.5zm115 0a29.5 29.5 0 1 0 29.5 29.5 29.49 29.49 0 0 0-29.5-29.5z"/></g></g></svg>