<svg xmlns="http://www.w3.org/2000/svg" viewBox="0 0 45.03 62.93"><defs><style>.cls-1{fill:#4c4b4c}.cls-6{fill:none;stroke:#fff;stroke-miterlimit:10}.cls-4{fill:#fff}.cls-5{fill:#f8f39e}.cls-6{stroke-width:.16px}</style></defs><g id="レイヤー_2" data-name="レイヤー 2"><g id="レイヤー_1-2" data-name="レイヤー 1"><path class="cls-1" d="M38.28 51.1A7.48 7.48 0 0 0 37 48.82a8.71 8.71 0 0 0-1.6-1.45 15.67 15.67 0 0 0-3.2-1.65c-.82-.32-1.62-.6-2.36-.88-.56-.21-1.08-.43-1.55-.65a7.79 7.79 0 0 1-.81-.46v-.38a4 4 0 0 0-1.58-3 1.88 1.88 0 0 1 .09-.56 2.84 2.84 0 0 0 .17-.58 9.76 9.76 0 0 0 1.25-1.83 22.1 22.1 0 0 0 1.12-2.56c.23-.12.47-.24.71-.39a5.44 5.44 0 0 0 1.45-1.52 8.09 8.09 0 0 0 1-2.49 4 4 0 0 0 .09-.83 3.85 3.85 0 0 0-.42-1.59 4 4 0 0 0-.59-.94c.13-.44.27-1 .4-1.72l.06-.37V24c0-1.42-.13-.95-.31-3.19 0-.27 0-.56-.06-.84-.06-.68-.12-1.36-.17-2A7.31 7.31 0 1 0 26.18 4.1a7.61 7.61 0 0 0-13.5 0 7.31 7.31 0 1 0-4.5 13.84c0 .28 0 .55-.07.83-.22 2.54-.38 2.41-.41 4.08v1.19h.12q.06.36.12.69a.57.57 0 0 0 0 .14v.05a2.26 2.26 0 0 0 0 .26v.47a1 1 0 0 1 0 .17V26l.19.86a4.61 4.61 0 0 0-.7 1 3.88 3.88 0 0 0-.4 1.71 3.4 3.4 0 0 0 .09.83 8.34 8.34 0 0 0 .59 1.77A5.57 5.57 0 0 0 9.14 34a5.22 5.22 0 0 0 1.22.8 22.1 22.1 0 0 0 1.12 2.56 9.76 9.76 0 0 0 1.25 1.83 5.88 5.88 0 0 1 .27 1.08 3.69 3.69 0 0 0-1.71 3.53 10.78 10.78 0 0 1-1.36.67c-.91.39-2 .75-3.07 1.17a19.86 19.86 0 0 0-2.45 1.16 9.93 9.93 0 0 0-1.7 1.2 7.49 7.49 0 0 0-2 2.68 9.83 9.83 0 0 0-.75 4 1.84 1.84 0 0 0 .12.61 2.08 2.08 0 0 0 .28.48 3.44 3.44 0 0 0 .82.79 10.11 10.11 0 0 0 2.37 1.23 29.34 29.34 0 0 0 6.15 1.44 68 68 0 0 0 9.69.61 72.59 72.59 0 0 0 8.62-.46 38.48 38.48 0 0 0 4.67-.83 20.09 20.09 0 0 0 2.58-.78 11.81 11.81 0 0 0 1.45-.64 8.11 8.11 0 0 0 .84-.52 4.28 4.28 0 0 0 .89-.85 2.08 2.08 0 0 0 .27-.51 1.6 1.6 0 0 0 .11-.57 10.29 10.29 0 0 0-.54-3.58zM1.7 54.79l-.07-.12a8.51 8.51 0 0 1 .48-3 6.1 6.1 0 0 1 1-1.8 6.92 6.92 0 0 1 1.3-1.17 14 14 0 0 1 2.86-1.46c.77-.31 1.57-.58 2.34-.87.58-.23 1.14-.45 1.68-.72.17-.08.33-.16.5-.26a5.53 5.53 0 0 0 2.7 2.34l-3.87 2.63v7.34a40.09 40.09 0 0 1-4.09-.7 20.52 20.52 0 0 1-2.39-.73 13.51 13.51 0 0 1-1.27-.56 5.73 5.73 0 0 1-.65-.41 1.91 1.91 0 0 1-.52-.51zM9.79 5.26a6.09 6.09 0 0 1 1.54.21c.25.08.49.17.73.27a6.78 6.78 0 0 0-.2 1.34 9.68 9.68 0 0 1 1.59-.44h.22A5.86 5.86 0 0 1 14.2 5l.12-.22a5.92 5.92 0 0 1 1-1.3 5.84 5.84 0 0 1 8.26 0 5.92 5.92 0 0 1 1 1.3l.12.23a5.79 5.79 0 0 1 .53 1.6h.23c.33.07.62.14.89.22s.49.15.69.23a6.78 6.78 0 0 0-.2-1.34c.23-.1.48-.19.73-.27a5.61 5.61 0 0 1 1.54-.21 5.55 5.55 0 0 1 3.89 9.5 5.39 5.39 0 0 1-3.93 1.62h-.22c0 .58.57 5.12.59 5.4v1.12h-20v-.53c0-.23.52-5.27.57-5.79a1.23 1.23 0 0 1 0-.2h-.38a2.56 2.56 0 0 1-.39 0 6.91 6.91 0 0 1-.91-.15 5.71 5.71 0 0 1-2.47-1.44 5.55 5.55 0 0 1 3.93-9.51zM9 28.58a3 3 0 0 1 .54-.73 10.49 10.49 0 0 0 .78 1.15c.36.37.42-.49.24-1.46a5.16 5.16 0 0 1 .52-2.58c.11-.28.22-.57.33-.88h16.2a8.48 8.48 0 0 1 .35.88A26.78 26.78 0 0 1 29 28.85s.19-.36.47-.83a2.52 2.52 0 0 1 .41.63 2.14 2.14 0 0 1 .21.93 2.9 2.9 0 0 1-.05.48 7.57 7.57 0 0 1-.48 1.44 4.07 4.07 0 0 1-.93 1.3 3.2 3.2 0 0 1-1.07.63l-.35.13-.13.36A20.21 20.21 0 0 1 26 36.61a7.72 7.72 0 0 1-1.15 1.65l-.16.15v.23a5.73 5.73 0 0 0-.35 2 9.69 9.69 0 0 0 .05 1.07 4.82 4.82 0 0 0 .3 1.23c0 .09.09.19.14.28A5.64 5.64 0 0 1 21 45.29a.9.9 0 0 0-.86-.65h-1.59a.9.9 0 0 0-.85.65 5.8 5.8 0 0 1-3.65-2l.07-.12a4.4 4.4 0 0 0 .44-1.52 9.73 9.73 0 0 0 .06-1.07 5.48 5.48 0 0 0-.36-2v-.23l-.16-.16a8.17 8.17 0 0 1-1.15-1.64 21.62 21.62 0 0 1-1.15-2.69l-.12-.36-.36-.13a4 4 0 0 1-.72-.36 3.48 3.48 0 0 1-1-1 6.09 6.09 0 0 1-.77-2 2.1 2.1 0 0 1-.06-.48 2.33 2.33 0 0 1 .23-.95zm2.25 22.08L15.18 48a9.88 9.88 0 0 0 2.66.54l-.82 7h4.66l-.83-7s4.43-.15 6-3.21a12.89 12.89 0 0 0 1.4.67c1 .42 2.07.78 3.11 1.19a16.86 16.86 0 0 1 2.23 1 8.32 8.32 0 0 1 1.43 1 6 6 0 0 1 1.55 2.12 8.15 8.15 0 0 1 .61 3.31v.09a1.91 1.91 0 0 1-.39.41 5 5 0 0 1-.76.49 12.13 12.13 0 0 1-2.25.92 33.34 33.34 0 0 1-5.7 1.16 70 70 0 0 1-8.67.48 70.36 70.36 0 0 1-8.19-.43v-7.08z"/><circle class="cls-1" cx="13.24" cy="51.7" r=".6"/><path class="cls-1" d="M13.24 55.67a.6.6 0 0 0-.6.6.59.59 0 0 0 .6.59.58.58 0 0 0 .59-.59.59.59 0 0 0-.59-.6zm12.52-3.38a.59.59 0 0 0 .59-.59.6.6 0 1 0-1.19 0 .59.59 0 0 0 .6.59zm0 4.57a.59.59 0 0 0 .59-.59.6.6 0 1 0-1.19 0 .59.59 0 0 0 .6.59z"/><circle cx="35.64" cy="53.53" r="9.39" fill="#90bc26"/><circle cx="35.64" cy="53.53" r="8.72" stroke-width=".29" fill="none" stroke="#fff" stroke-miterlimit="10"/><path class="cls-4" d="M31 57.27c.06 0 .14 0 .14.08s-.07.08-.14.08h-.15v.87a2.09 2.09 0 0 0 .23-.13h.06a.08.08 0 0 1 .08.08c0 .06-.17.15-.28.2a2.26 2.26 0 0 1-.56.2.08.08 0 0 1-.08-.08c0-.06.05-.08.09-.09l.31-.1v-.93h-.2c-.06 0-.14 0-.14-.08s.08-.08.14-.08h.2v-.41s0-.12.07-.12.08.07.08.12v.41zm.73-.47s0-.12.07-.12.08.07.08.12v.41l.27-.09h.06c.17 0 .17.18.17.23v.51c0 .17 0 .32-.28.32-.06 0-.16 0-.16-.09A.08.08 0 0 1 32 58h.08c.12 0 .12-.06.12-.2v-.42s0-.1-.07-.1l-.25.08v.87s0 .12-.07.12-.08-.07-.08-.12v-.82l-.3.1v1c0 .07 0 .1.11.1h.54c.11 0 .2 0 .21-.26 0-.07 0-.14.08-.14s.08.08.08.1a1.12 1.12 0 0 1-.05.31c-.06.13-.24.14-.28.14h-.62c-.16 0-.22-.08-.22-.25v-.93l-.17.05h-.08a.08.08 0 0 1-.07-.07c0-.06 0-.07.1-.09l.22-.07V57c0-.06 0-.13.07-.13s.08.07.08.13v.34l.3-.11z"/><path class="cls-5" d="M34.48 58.48c0 .07 0 .11.11.11h.33c.12 0 .13-.1.16-.31a.08.08 0 0 1 .08-.08.07.07 0 0 1 .07.08 1.07 1.07 0 0 1-.08.37.29.29 0 0 1-.19.1h-.42c-.22 0-.22-.15-.22-.21v-.9h-.43a1.32 1.32 0 0 1-.11.66 1 1 0 0 1-.62.5.07.07 0 0 1-.08-.08s0-.06.06-.07a.85.85 0 0 0 .55-.53 1.57 1.57 0 0 0 0-.48h-.49c-.06 0-.13 0-.13-.08s.07-.08.13-.08h1.84c.06 0 .13 0 .13.08s-.07.08-.13.08h-.6zm.45-1.64s.12 0 .12.08-.05.08-.12.08h-1.56s-.12 0-.12-.08.07-.08.12-.08z"/><path class="cls-4" d="M37 57.07h.87s.11 0 .11.07-.06.07-.11.07H36s-.12 0-.12-.07.06-.07.11-.07h.87v-.18h-.72s-.12 0-.12-.07.07-.07.12-.07h1.59c.05 0 .12 0 .12.07s-.06.07-.12.07H37zm-.38 1.36a.08.08 0 0 1 0 .07l-.16.14a1.93 1.93 0 0 1-.46.16.08.08 0 0 1-.08-.08.07.07 0 0 1 .07-.07 2.19 2.19 0 0 0 .35-.13l.17-.09h-.3a.15.15 0 0 1-.15-.16v-.76a.16.16 0 0 1 .15-.16h1.39a.16.16 0 0 1 .16.16v.76a.16.16 0 0 1-.16.16h-.3s.17.1.21.11a1.11 1.11 0 0 0 .29.1c.1 0 .13 0 .13.09a.07.07 0 0 1-.07.07 1.63 1.63 0 0 1-.5-.16c-.08 0-.17-.09-.17-.14a.08.08 0 0 1 0-.07zm1-.77v-.08s0-.09-.09-.09h-1.18c-.08 0-.08.06-.08.09v.08zm-1.33.13V58h1.31v-.18zm0 .31v.1s0 .09.08.09h1.16c.09 0 .09-.06.09-.09v-.1z"/><path class="cls-5" d="M39.23 57.05h-.46c-.05 0-.12 0-.12-.07s.07-.07.12-.07h.46v-.12s0-.12.07-.12.08.06.08.12v.12h.47s.12 0 .12.07-.07.07-.12.07h-.47v.19h.29a.18.18 0 0 1 .2.17v1.19c0 .1-.08.18-.23.18s-.23 0-.23-.08a.07.07 0 0 1 .08-.07h.14a.09.09 0 0 0 .1-.08v-1.1a.1.1 0 0 0-.09-.08H39a.09.09 0 0 0-.09.08v1.22c0 .06 0 .12-.07.12s-.07-.06-.07-.12v-1.26a.18.18 0 0 1 .19-.17h.29zm.14 1.09h.2s.12 0 .12.07-.07.07-.12.07h-.2v.35s0 .12-.07.12-.07-.07-.07-.12v-.35h-.18s-.12 0-.12-.07.07-.07.12-.07h.18v-.22h-.18s-.12 0-.12-.07.07-.07.12-.07h.07s-.12-.28-.12-.29 0-.06.07-.06h.06a2 2 0 0 1 .08.27.05.05 0 0 1 0 .05h.18c0-.05.07-.25.08-.29s0-.06.07-.06a.06.06 0 0 1 .07.07 1 1 0 0 1-.08.28s.12 0 .12.07-.07.07-.12.07h-.2zm.69-.64c-.06 0-.13 0-.13-.08s.07-.08.13-.08h.19v-.56c0-.06 0-.13.08-.13s.07.07.07.13v.56h.23c.06 0 .13 0 .13.08s-.07.08-.13.08h-.23a1.82 1.82 0 0 1 0 .2 3.06 3.06 0 0 0 .3.83 1.5 1.5 0 0 1 .11.22.08.08 0 0 1-.07.07s-.11-.12-.16-.2a3.65 3.65 0 0 1-.24-.61 2.3 2.3 0 0 1-.31.72c-.05.07-.07.07-.09.07a.08.08 0 0 1-.08-.07l.06-.09a2.32 2.32 0 0 0 .34-1.14zm.52-.38l-.11-.31a.11.11 0 0 1 0-.05s0-.06.07-.06 0 0 .07.07a4.2 4.2 0 0 1 .14.43s0 .08-.07.08-.06-.01-.1-.16z"/><path class="cls-6" d="M34.3 47.22v3.41m2.42-3.41v3.41m-4.11-2.34h5.83v2.35h-5.83zm6.01 3.05h-6.04v4.12m1.16-3.3h3.99m-4.5.68h5.39m-4.57.42v2.16m4.57-1.56h-1.78"/><path class="cls-6" d="M34.97 53.26l2.37 2.16h1.28"/></g></g></svg>