<svg xmlns="http://www.w3.org/2000/svg" viewBox="0 0 453.9 269.6"><defs><style>.cls-21,.cls-35{fill:#cdb33d}.cls-34,.cls-35,.cls-5{stroke:#fff;stroke-linecap:round;stroke-linejoin:round}.cls-2{fill:#fcb1c0}.cls-4{fill:#bc80c3}.cls-5{fill:#fff;stroke-width:5.54px}.cls-7{fill:#eda411}.cls-8{fill:#eabb68}.cls-37{fill:#689d38}.cls-13{fill:#e26d94}.cls-20{fill:#636363}.cls-34{fill:#2b2447}.cls-28{fill:#63871e}.cls-29{fill:#fff57b}.cls-32{fill:#ccf47f}.cls-34,.cls-35{stroke-width:5.73px}</style></defs><g id="レイヤー_2" data-name="レイヤー 2"><g id="レイヤー_1-2" data-name="レイヤー 1"><path d="M312.78 167l1.18 3.54-3.42-1.45a35.23 35.23 0 0 0-.29 7.22 25.05 25.05 0 0 1-.53 7.76c-1.8 5.85-9.58 12.56-9.91 12.84l-.63-.79c.07-.07 7.86-6.79 9.57-12.34a24.18 24.18 0 0 0 .49-7.41 34.8 34.8 0 0 1 .36-7.68l-2.77-1.17 2.64-1.62c-7.82-3.61-11.3-13.05-7.79-21.34 3.59-8.45 13.08-12.51 21.22-9.06s11.82 13.09 8.23 21.54a16.45 16.45 0 0 1-18.35 9.96z" stroke-width="5.03" stroke="#fff" stroke-linecap="round" stroke-linejoin="round" fill="#cdb33d"/><path class="cls-2" d="M299.81 196.88c.33-.28 8.11-7 9.91-12.84a25.05 25.05 0 0 0 .53-7.76c-.13-4.56-.26-9.28 2.82-12.65l-.72-.7c-3.38 3.69-3.24 8.85-3.11 13.41a24.18 24.18 0 0 1-.49 7.41c-1.71 5.55-9.5 12.27-9.57 12.34z"/><ellipse class="cls-2" cx="316.41" cy="150.77" rx="16.62" ry="15.99" transform="rotate(-67.03 316.392 150.775)"/><path class="cls-2" d="M312.11 164.96l1.85 5.55-7.13-3.02 4.47-2.74.81.21z"/><path d="M112.59 192.32l-1.11 2 2.22-.48a21.58 21.58 0 0 1-.65 4.37 15.25 15.25 0 0 0-.56 4.72c.42 3.72 4.33 8.63 4.49 8.84l.48-.41s-4-5-4.36-8.5a15 15 0 0 1 .55-4.5 21.29 21.29 0 0 0 .66-4.65l1.8-.4-1.41-1.31a9.77 9.77 0 1 0-2.11.29z" stroke-width="3.07" stroke="#fff" stroke-linecap="round" stroke-linejoin="round" fill="#cdb33d"/><path class="cls-4" d="M117 211.76c-.16-.21-4.07-5.12-4.49-8.84a15.25 15.25 0 0 1 .56-4.72c.6-2.73 1.21-5.55-.26-7.93l.52-.33c1.61 2.6.94 5.69.34 8.41a15 15 0 0 0-.55 4.5c.4 3.53 4.32 8.45 4.36 8.5z"/><ellipse class="cls-4" cx="112.25" cy="182.17" rx="9.78" ry="10.16" transform="rotate(-12.27 112.225 182.118)"/><path class="cls-4" d="M113.22 191.18l-1.74 3.13 4.63-1.01-2.38-2.15-.51.03z"/><path class="cls-5" d="M120.52 97.09h203.31v2.59H120.52z"/><path d="M324.05 98.24s-61.78-16-88.36-23.44L225.64 71v-5.66l37.61-10.27-37.61-11.64v-2.76a5.7 5.7 0 0 0 2.62-4.82 5.48 5.48 0 1 0-11 0 5.71 5.71 0 0 0 2.61 4.82V71l-9.23 3.51c-25.93 7.27-89.45 23.74-89.45 23.74l13.19-.19 75.43-23.24c-19.71 7.48-61.11 23.11-67.43 24.87h15.12S214.79 74.5 219.91 72v.16c-11.1 6.57-42.38 24-58.94 27.55h28.38s24.6-20.87 31.1-26.54h1.36c-2.66 5.42-9.42 19-11.94 22.47l13-.4 13 .4c-2.51-3.42-9.28-17-11.93-22.47h1c6.49 5.67 31.1 26.54 31.1 26.54h28.38C267.88 96.13 237 79 225.64 72.29v-.19c6.63 3.18 62.1 27.58 62.1 27.58h15.11C296.66 98 257 82.92 236.93 75.28l73.92 22.77z" stroke-width="5.55" fill="#fff" stroke="#fff" stroke-linecap="round" stroke-linejoin="round"/><path class="cls-5" d="M133.92 99.42l-10.05 10.44 10.05-.17 10.05.17-10.05-10.44z"/><path class="cls-5" d="M153.75 99.42l-10.05 10.44 10.05-.17 10.05.17-10.05-10.44z"/><path class="cls-5" d="M173.58 99.42l-10.05 10.44 10.05-.17 10.05.17-10.05-10.44z"/><path class="cls-5" d="M193.41 99.42l-10.04 10.44 10.04-.17 10.05.17-10.05-10.44z"/><path class="cls-5" d="M213.25 99.42l-10.06 10.44 10.06-.17 10.04.17-10.04-10.44z"/><path class="cls-5" d="M233.07 99.42l-10.04 10.44 10.04-.17 10.06.17-10.06-10.44z"/><path class="cls-5" d="M252.91 99.42l-10.05 10.44 10.05-.17 10.04.17-10.04-10.44z"/><path class="cls-5" d="M272.74 99.42l-10.05 10.44 10.05-.17 10.05.17-10.05-10.44z"/><path class="cls-5" d="M292.57 99.42l-10.05 10.44 10.05-.17 10.05.17-10.05-10.44z"/><path class="cls-5" d="M312.4 99.42l-10.05 10.44 10.05-.17 10.05.17-10.05-10.44zm-187.58 14.04v.06a6.46 6.46 0 1 0 12.89 0v-.06zm13.23 0v.06a6.46 6.46 0 1 0 12.89 0v-.06zm13.23 0v.06a6.46 6.46 0 1 0 12.89 0v-.06zm13.23 0v.06a6.46 6.46 0 1 0 12.88 0v-.06zm13.23 0v.06a6.46 6.46 0 1 0 12.88 0v-.06zm13.26 0a.13.13 0 0 0 0 .06 6.46 6.46 0 1 0 12.89 0v-.06zm13.19 0v.06a6.46 6.46 0 1 0 12.89 0v-.06zm13.23 0v.06a6.46 6.46 0 1 0 12.89 0v-.06zm13.23 0v.06a6.46 6.46 0 1 0 12.89 0v-.06zm13.23 0v.06a6.46 6.46 0 1 0 12.89 0v-.06zm13.23 0v.06a6.46 6.46 0 1 0 12.88 0v-.06zm13.23 0v.06a6.46 6.46 0 1 0 12.88 0v-.06zm13.23 0a.13.13 0 0 0 0 .06 6.46 6.46 0 1 0 12.89 0v-.06zm13.22 0v.06a6.46 6.46 0 1 0 12.89 0v-.06zm13.21 0v.06a6.46 6.46 0 1 0 12.89 0v-.06z"/><path class="cls-5" d="M121.79 109.23h202.39v2.58H121.79z"/><path class="cls-7" d="M120.52 97.09h203.31v2.59H120.52z"/><path class="cls-7" d="M324.05 98.24s-61.78-16-88.36-23.44L225.64 71v-5.66l37.61-10.27-37.61-11.64v-2.76a5.7 5.7 0 0 0 2.62-4.82 5.48 5.48 0 1 0-11 0 5.71 5.71 0 0 0 2.61 4.82V71l-9.23 3.51c-25.93 7.27-89.45 23.74-89.45 23.74l13.19-.19 75.43-23.24c-19.71 7.48-61.11 23.11-67.43 24.87h15.12S214.79 74.5 219.91 72v.16c-11.1 6.57-42.38 24-58.94 27.55h28.38s24.6-20.87 31.1-26.54h1.36c-2.66 5.42-9.42 19-11.94 22.47l13-.4 13 .4c-2.51-3.42-9.28-17-11.93-22.47h1c6.49 5.67 31.1 26.54 31.1 26.54h28.38C267.88 96.13 237 79 225.64 72.29v-.19c6.63 3.18 62.1 27.58 62.1 27.58h15.11C296.66 98 257 82.92 236.93 75.28l73.92 22.77z"/><path class="cls-8" d="M133.92 99.42l-10.05 10.44 10.05-.17 10.05.17-10.05-10.44z"/><path class="cls-8" d="M153.75 99.42l-10.05 10.44 10.05-.17 10.05.17-10.05-10.44z"/><path class="cls-8" d="M173.58 99.42l-10.05 10.44 10.05-.17 10.05.17-10.05-10.44z"/><path class="cls-8" d="M193.41 99.42l-10.04 10.44 10.04-.17 10.05.17-10.05-10.44z"/><path class="cls-8" d="M213.25 99.42l-10.06 10.44 10.06-.17 10.04.17-10.04-10.44z"/><path class="cls-8" d="M233.07 99.42l-10.04 10.44 10.04-.17 10.06.17-10.06-10.44z"/><path class="cls-8" d="M252.91 99.42l-10.05 10.44 10.05-.17 10.04.17-10.04-10.44z"/><path class="cls-8" d="M272.74 99.42l-10.05 10.44 10.05-.17 10.05.17-10.05-10.44z"/><path class="cls-8" d="M292.57 99.42l-10.05 10.44 10.05-.17 10.05.17-10.05-10.44z"/><path class="cls-8" d="M312.4 99.42l-10.05 10.44 10.05-.17 10.05.17-10.05-10.44zm-187.58 14.04v.06a6.46 6.46 0 1 0 12.89 0v-.06zm13.23 0v.06a6.46 6.46 0 1 0 12.89 0v-.06zm13.23 0v.06a6.46 6.46 0 1 0 12.89 0v-.06zm13.23 0v.06a6.46 6.46 0 1 0 12.88 0v-.06zm13.23 0v.06a6.46 6.46 0 1 0 12.88 0v-.06zm13.26 0a.13.13 0 0 0 0 .06 6.46 6.46 0 1 0 12.89 0v-.06zm13.19 0v.06a6.46 6.46 0 1 0 12.89 0v-.06zm13.23 0v.06a6.46 6.46 0 1 0 12.89 0v-.06zm13.23 0v.06a6.46 6.46 0 1 0 12.89 0v-.06zm13.23 0v.06a6.46 6.46 0 1 0 12.89 0v-.06zm13.23 0v.06a6.46 6.46 0 1 0 12.88 0v-.06zm13.23 0v.06a6.46 6.46 0 1 0 12.88 0v-.06zm13.23 0a.13.13 0 0 0 0 .06 6.46 6.46 0 1 0 12.89 0v-.06zm13.22 0v.06a6.46 6.46 0 1 0 12.89 0v-.06zm13.21 0v.06a6.46 6.46 0 1 0 12.89 0v-.06z"/><path class="cls-8" d="M121.79 109.23h202.39v2.58H121.79z"/><text transform="translate(125.1 155.22)" font-size="38.78" font-family="Courier-Bold,Courier" font-weight="700" letter-spacing=".26em">EVENTS</text><text transform="translate(125.1 155.22)" fill="none" stroke-width="4.99" font-size="38.78" font-family="Courier-Bold,Courier" font-weight="700" letter-spacing=".26em" stroke="#fff" stroke-linecap="round" stroke-linejoin="round">EVENTS</text><text transform="translate(125.1 155.22)" fill="#689d38" font-size="38.78" font-family="Courier-Bold,Courier" font-weight="700" letter-spacing=".26em">EVENTS</text><path d="M283.92 181.3c-3-.78-4.25 2.92-4.25 2.92s1.43-5.21-4.17-4.77-5 10.94 1.71 13.08l-1.55 1.05 1.52.39a14.83 14.83 0 0 1-1.76 2.49 10.19 10.19 0 0 0-1.82 2.74c-.91 2.42 0 6.67 0 6.85l.42-.1s-.89-4.3 0-6.6a10.64 10.64 0 0 1 1.75-2.61 14.24 14.24 0 0 0 1.86-2.66l1.23.32-.63-1.63c6.58 1 11.66-9.91 5.69-11.47z" stroke-width="2.12" stroke="#fff" stroke-linecap="round" stroke-linejoin="round" fill="#cdb33d"/><path class="cls-13" d="M283.92 181.3c-3-.78-4.25 2.92-4.25 2.92s1.43-5.21-4.17-4.77-5 10.94 1.71 13.08l-1.55 1.05 1.52.39a14.83 14.83 0 0 1-1.76 2.49 10.19 10.19 0 0 0-1.82 2.74c-.91 2.42 0 6.67 0 6.85l.42-.1s-.89-4.3 0-6.6a10.64 10.64 0 0 1 1.75-2.61 14.24 14.24 0 0 0 1.86-2.66l1.23.32-.63-1.63c6.58 1 11.66-9.91 5.69-11.47z"/><path d="M264.36 184.47c-2.23-.58-3.19 2.21-3.19 2.21s1.07-3.93-3.15-3.6-3.8 8.25 1.29 9.86l-1.17.79 1.15.3a11.28 11.28 0 0 1-1.33 1.88 8.25 8.25 0 0 0-1.38 2.06c-.68 1.82 0 5 0 5.16l.31-.07s-.66-3.24 0-5a7.85 7.85 0 0 1 1.32-2 11.29 11.29 0 0 0 1.4-2l.93.25-.47-1.24c4.93.81 8.8-7.42 4.29-8.6z" stroke-width="1.6" stroke="#fff" stroke-linecap="round" stroke-linejoin="round" fill="#cdb33d"/><path class="cls-4" d="M264.36 184.47c-2.23-.58-3.19 2.21-3.19 2.21s1.07-3.93-3.15-3.6-3.8 8.25 1.29 9.86l-1.17.79 1.15.3a11.28 11.28 0 0 1-1.33 1.88 8.25 8.25 0 0 0-1.38 2.06c-.68 1.82 0 5 0 5.16l.31-.07s-.66-3.24 0-5a7.85 7.85 0 0 1 1.32-2 11.29 11.29 0 0 0 1.4-2l.93.25-.47-1.24c4.93.81 8.8-7.42 4.29-8.6z"/><path d="M182.93 217.44h-.09l-33.36-24.57v-2.69c4 .12 13.63-1.44 13.63-1.44a21.11 21.11 0 0 1-5.05-1.88c1.78-.5 4.66-4 4.66-4s-3 1.31-13.24.48V183a1.54 1.54 0 1 0-1.88 0v10.1l-33 24.34h0v7.4h2.4V265h2.67v-40.16h28.93v-7.38h.16v7.38h28.94v40.5h2.66v-40.5h2.53z" stroke-width="5.33" stroke="#fff" stroke-linecap="round" stroke-linejoin="round" fill="#cdb33d"/><path d="M148.54 183.29c11 1 14.18-.4 14.18-.4s-2.88 3.47-4.66 4a21.11 21.11 0 0 0 5.05 1.88s-11 1.79-14.37 1.39z" fill="#de6a7c"/><path d="M150.08 181.75a1.54 1.54 0 1 1-1.54-1.53 1.54 1.54 0 0 1 1.54 1.53z" fill="#626936"/><path d="M148.54 197.76a.94.94 0 0 1-.94-.94v-14.37a.94.94 0 0 1 .94-.94.94.94 0 0 1 .94.94v14.37a.94.94 0 0 1-.94.94z" fill="#b77b11"/><path d="M117.04 222.47h2.66v42.52h-2.66zm60.7 0h2.66v42.88h-2.66z" fill="#3c411e"/><path class="cls-20" d="M114.51 217.44h34.13v7.4h-34.13z"/><path class="cls-21" d="M148.8 217.44h34.13v7.4H148.8z"/><path class="cls-20" d="M148.7 192.29v25.17h-34.19l34.19-25.17z"/><path class="cls-21" d="M148.69 192.29v25.17h34.19l-34.19-25.17z"/><path d="M135.44 263.56c3.23-5-.74-10.66-4.49-9.94a23.09 23.09 0 0 0-4.16 1.19c.12-.62 0-1.75-2.41-1.32-1.91.34-.75 1.6-.24 2.07h-.57c-9.26.72-5.51 9.75-1.6 11.81a10.6 10.6 0 0 0 13.47-3.81z" stroke-width="2.44" stroke="#fff" stroke-linecap="round" stroke-linejoin="round" fill="#cdb33d"/><path class="cls-21" d="M123.57 255.52c-9.26.72-5.51 9.75-1.6 11.81a10.6 10.6 0 0 0 13.47-3.77c3.23-5-.74-10.66-4.49-9.94a19.32 19.32 0 0 0-5.89 2z"/><path d="M124.38 253.49c3.31-.58 2.3 1.71 2.3 1.71s2.43-2 3 .08-2.55 1.67-2.55 1.67 1 1.25-1.17 2-1.34-1.4-1.34-1.4-2.91 1.81-3.15 0 2.85-1.8 2.85-1.8-2.32-1.85.06-2.26z" fill="#2b2447"/><path class="cls-21" d="M124.98 255.93l-.26.81 1.24.42.03-.88-.31-.53-.7.18z"/><path d="M257.19 250.71h-35.13v-4a2.22 2.22 0 0 0-.55-1.46 2.12 2.12 0 0 0-1.92-1.29h-12a2.21 2.21 0 0 0 0 4.41h10.24v2.29h-10.24a2.2 2.2 0 0 0 0 4.4h10.24v2.3h-10.24a2.2 2.2 0 0 0 0 4.4h12a2.1 2.1 0 0 0 1.66-.85 2.22 2.22 0 0 0 .81-1.72v-4.13h35.13a2.2 2.2 0 0 0 0-4.4zM254 227.23c-4.08 0-7.55 1.6-9 3.86h-34a2.2 2.2 0 0 0 0 4.4h34c1.4 2.25 4.87 3.85 9 3.85 5.31 0 9.62-2.71 9.62-6.05s-4.32-6.06-9.62-6.06z" stroke-width="5.3" stroke="#fff" stroke-linecap="round" stroke-linejoin="round" fill="#cdb33d"/><path d="M205.47 246.21a2.17 2.17 0 0 0 2.12 2.21h10.24v2.29h-10.24a2.2 2.2 0 0 0 0 4.4h10.24v2.3h-10.24a2.2 2.2 0 0 0 0 4.4h12a2.1 2.1 0 0 0 1.66-.85 2.22 2.22 0 0 0 .81-1.72v-4.13h35.13a2.2 2.2 0 0 0 0-4.4h-35.13v-4a2.22 2.22 0 0 0-.55-1.46 2.12 2.12 0 0 0-1.92-1.29h-12a2.16 2.16 0 0 0-2.12 2.25z" fill="#dcbd81"/><path d="M254 239.34c5.31 0 9.62-2.71 9.62-6.05s-4.31-6.06-9.62-6.06c-4.08 0-7.55 1.6-9 3.86h-34a2.2 2.2 0 0 0 0 4.4h34c1.44 2.25 4.91 3.85 9 3.85z" fill="#aee78c"/><path d="M322.82 199.57c-5.83-4.58-20.69 9.52-31 24.62 2.62-7.59 5-14.1 5-14.1s-21.34 19.19-17.34 42c.23 1.28.43 2.4.63 3.41a.79.79 0 0 0 .17.85c1.85 9 2.58 6.26 3.32.62.66 0 1.42-.07 2.3-.16C308.07 254.57 320 228 320 228s-6.11 4.3-12.74 9c11.23-14.58 20.58-33.5 15.56-37.43z" stroke-width="5.89" stroke="#fff" stroke-linecap="round" stroke-linejoin="round" fill="#cdb33d"/><path class="cls-28" d="M320 228s-11.91 26.59-34.11 28.83c-19.61 2 17.36-15.39 6.13-8.44C283.78 253.46 320 228 320 228z"/><path class="cls-21" d="M322.82 199.57c9.05 7.1-28.62 62.93-39.89 54.08s29.28-62.42 39.89-54.08z"/><path class="cls-28" d="M296.79 210.09s-21.34 19.19-17.34 42 3.68 1.17 6.14-8.44 11.2-33.56 11.2-33.56z"/><path class="cls-29" d="M309.29 209.13a2 2 0 0 1-3 .44 2.19 2.19 0 0 1 .42 3.06 2 2 0 0 1 2.95-.43 2.2 2.2 0 0 1-.37-3.07z"/><ellipse class="cls-29" cx="311.32" cy="213.47" rx="10.35" ry="1.53" transform="rotate(-8.42 311.404 213.528)"/><ellipse class="cls-29" cx="314.71" cy="216.13" rx="1.78" ry="2.84" transform="rotate(-7.42 314.471 215.99)"/><ellipse class="cls-29" cx="305.47" cy="214.4" rx="10.35" ry="1.53" transform="rotate(-8.42 305.53 214.461)"/><ellipse class="cls-29" cx="308.77" cy="216.98" rx="10.35" ry="1.53" transform="rotate(-8.42 308.825 217.026)"/><ellipse class="cls-29" cx="312.16" cy="219.64" rx="10.35" ry="1.53" transform="rotate(-8.42 312.25 219.668)"/><ellipse class="cls-29" cx="302.92" cy="217.91" rx="10.35" ry="1.53" transform="rotate(-8.42 303.02 217.964)"/><path class="cls-29" d="M307.48 218.74a2 2 0 0 1-3 .44 2.2 2.2 0 0 1 .42 3.07 2 2 0 0 1 2.95-.44 2.19 2.19 0 0 1-.37-3.07z"/><ellipse class="cls-29" cx="309.6" cy="223.16" rx="10.35" ry="1.53" transform="rotate(-8.42 309.666 223.234)"/><ellipse class="cls-29" cx="300.37" cy="221.43" rx="4.36" ry="1.47" transform="rotate(-8.37 300.49 221.486)"/><path class="cls-29" d="M304.92 222.26a2 2 0 0 1-2.95.44 2.17 2.17 0 0 1 .42 3.06 2 2 0 0 1 3-.43 2.2 2.2 0 0 1-.47-3.07z"/><ellipse class="cls-29" cx="307.05" cy="226.67" rx="10.35" ry="1.53" transform="rotate(-8.42 307.154 226.737)"/><path class="cls-29" d="M312 205.45a2 2 0 0 1-2.95.44 2.19 2.19 0 0 1 .42 3.07 2 2 0 0 1 2.95-.44 2.2 2.2 0 0 1-.42-3.07z"/><ellipse class="cls-29" cx="313.99" cy="209.79" rx="10.35" ry="1.53" transform="rotate(-8.42 314.067 209.831)"/><path class="cls-29" d="M318.65 210.69a2 2 0 0 1-3 .44 2.2 2.2 0 0 1 .43 3.07 2 2 0 0 1 2.95-.44 2.18 2.18 0 0 1-.38-3.07z"/><path d="M178 239.08a1.82 1.82 0 0 1-2.21.59c-2.32 3-2.51 3.3-2.51 3.3 9.25-.61 11.41 3.74 18.49-3 5.6-5.34 3.28-7.79 2.08-8.58a5.89 5.89 0 0 0 1.51-3.55 5.09 5.09 0 0 0-.94 1.64 5.53 5.53 0 0 1-1 1.65l-.1-.05s1.42-.91-2.39-1.79c-3.64-.84-9.23 3-13 7.68a1.65 1.65 0 0 1 .07 2.11z" stroke-width="2.26" stroke="#fff" stroke-linecap="round" stroke-linejoin="round" fill="#cdb33d"/><path d="M175.76 239.67c-2.32 3-2.51 3.3-2.51 3.3 9.25-.61 11.41 3.74 18.49-3 5.6-5.34 3.28-7.79 2.08-8.58a5.89 5.89 0 0 0 1.51-3.55 5.09 5.09 0 0 0-.94 1.64 5.53 5.53 0 0 1-1 1.65l-.1-.05s1.42-.91-2.39-1.79c-3.64-.84-9.23 3-13 7.68a1.65 1.65 0 0 1 .12 2.12 1.82 1.82 0 0 1-2.26.58z" fill="#9cc556"/><path class="cls-32" d="M175.83 241.88c5.13-1.86 9-.87 12.19-3.36s5.38-7.35 5.38-7.35-3.21 5.43-4.84 6.36-7.1 2.11-8.68 2.53a23.05 23.05 0 0 0-4.05 1.82z"/><path class="cls-32" d="M180 242.44a18.86 18.86 0 0 0 1.89-2.28l-1 .15zm1.61.26c1-1.14 2.59-2.75 2.59-2.75l-1.17.29s-1.92 3.03-1.42 2.46zm1.91.07s2.75-2.15 2.89-3.36-.57-.15-.57-.15zm3.84-.65a5.05 5.05 0 0 0 .85-3.74c-.07-.1-1 .15-1 .15zm2.34-5.35a34.73 34.73 0 0 1-.76 3.62 25.29 25.29 0 0 0 1.43-4.3c-.06-.67-.67.68-.67.68zm1.3 2.46a21.92 21.92 0 0 0 .2-4.54l.77-.87s-1.22 7.18-.97 5.41zm1.41-6.23a30.32 30.32 0 0 1 .12 4.17A5.15 5.15 0 0 0 193 235c0-1.2.1-3.21.1-3.21zm-10.03 6.8l-3.12-1.03 4.82.8-1.7.23zm-1.14-2.9c3.17 1.52 7.49.67 7.49.67a15.28 15.28 0 0 1-3.4 1.42c-.71.01-4.09-2.09-4.09-2.09z"/><path class="cls-32" d="M183.87 235.62c3 1.67 6.79-.21 6.79-.21l-.51 1zm8.35-2.36c-1.54 1.05-7.53 0-7.53 0s5 1.56 7 .81.53-.81.53-.81z"/><path d="M219.35 176.89c-8.8-9-17-4.09-20.11-1.53a65.94 65.94 0 0 0-4.67-8.31l-2.6 1.27a11.47 11.47 0 0 1 3 2.07 27.07 27.07 0 0 1 3.74 5.43c-.53.47-.81.78-.81.78-21.31.66-17.37 21.09-12.63 30s22.18 5.69 26.62 4.1 25.69-15.16 7.46-33.81zm3.81 13.31a.7.7 0 0 1 .8.59.72.72 0 0 1-.57.83.69.69 0 0 1-.8-.59.72.72 0 0 1 .57-.83zm-35.69-1.69a.78.78 0 0 1-.89-.66.8.8 0 0 1 .64-.92.76.76 0 0 1 .88.65.81.81 0 0 1-.63.93zm13.88-2.61a.7.7 0 0 1-.8-.59.72.72 0 0 1 .57-.83.72.72 0 0 1 .23 1.42zm5.22-4a.92.92 0 0 1-1.07-.79 1 1 0 0 1 .76-1.11.93.93 0 0 1 1.06.79 1 1 0 0 1-.75 1.11zm1.89 9.26a1.17 1.17 0 0 1-1.33-1 1.19 1.19 0 0 1 1-1.38 1.15 1.15 0 0 1 1.33 1 1.22 1.22 0 0 1-1 1.38zm3.12 7.39a.86.86 0 0 1-1-.72.88.88 0 0 1 .7-1 .83.83 0 0 1 1 .72.87.87 0 0 1-.7 1zm3.26-9.49a1 1 0 0 1-1.15-.85 1 1 0 0 1 .82-1.21 1 1 0 0 1 1.15.86 1 1 0 0 1-.82 1.2zm4.92 1.41a.54.54 0 0 1-.62-.46.56.56 0 0 1 .44-.65.54.54 0 0 1 .62.46.55.55 0 0 1-.44.65zm.09-5.7a.78.78 0 0 1-.89-.66.79.79 0 0 1 .63-.92.77.77 0 0 1 .89.65.81.81 0 0 1-.63.93z" stroke-width="6.74" stroke="#fff" stroke-linecap="round" stroke-linejoin="round" fill="#cdb33d"/><path class="cls-13" d="M219.35 176.89c-8.8-9-17-4.09-20.11-1.53a65.94 65.94 0 0 0-4.67-8.31l-2.6 1.27a11.47 11.47 0 0 1 3 2.07 27.07 27.07 0 0 1 3.74 5.43c-.53.47-.81.78-.81.78-21.31.66-17.37 21.09-12.63 30s22.18 5.69 26.62 4.1 25.69-15.16 7.46-33.81zm-31.88 11.62a.78.78 0 0 1-.89-.66.8.8 0 0 1 .64-.92.77.77 0 0 1 .88.65.81.81 0 0 1-.63.93zm13.88-2.61a.7.7 0 0 1-.8-.59.72.72 0 0 1 .57-.83.72.72 0 0 1 .23 1.42zm5.22-4a.92.92 0 0 1-1.07-.79 1 1 0 0 1 .76-1.11.93.93 0 0 1 1.06.79 1 1 0 0 1-.75 1.11zm1.89 9.26a1.16 1.16 0 0 1-1.33-1 1.19 1.19 0 0 1 1-1.38 1.15 1.15 0 0 1 1.33 1 1.22 1.22 0 0 1-1 1.38zm3.12 7.39a.86.86 0 0 1-1-.72.88.88 0 0 1 .7-1 .83.83 0 0 1 1 .72.87.87 0 0 1-.7 1zm3.26-9.49a1 1 0 0 1-1.15-.85 1 1 0 0 1 .82-1.21 1 1 0 0 1 1.15.86 1 1 0 0 1-.82 1.2zm4.92 1.41a.54.54 0 0 1-.62-.46.56.56 0 0 1 .44-.65.54.54 0 0 1 .62.46.55.55 0 0 1-.44.65zm.09-5.7a.78.78 0 0 1-.89-.66.79.79 0 0 1 .63-.92.77.77 0 0 1 .89.65.81.81 0 0 1-.63.93zm3.54 6.85a.69.69 0 0 1-.8-.59.72.72 0 0 1 .57-.83.7.7 0 0 1 .8.59.72.72 0 0 1-.57.83z"/><path class="cls-34" d="M364.79 61.26l-16.37 12.5-2.23-20.99 18.6 8.49z"/><path class="cls-35" d="M326.26 41.37l.46 21.12 17.36-10.97-17.82-10.15zM288.7 17.18l-1.31 21.08 18.22-9.36-16.91-11.72z"/><path class="cls-34" d="M306.95 29.91l-.25 21.12 17.72-10.34-17.47-10.78zM271 2.87l-2.72 20.92 18.8-8.01L271 2.87z"/><path class="cls-35" d="M386.36 68.8l-15.27 13.94-3.98-20.71 19.25 6.77zm42.55 12.37l-14.04 15.27-5.7-20.28 19.74 5.01z"/><path class="cls-34" d="M407.55 75.82l-14.79 14.49-4.67-20.56 19.46 6.07zm43.48 9.21l-12.98 16.24-7.05-19.8 20.03 3.56zM89.1 61.26l16.38 12.5 2.23-20.99-18.61 8.49z"/><path class="cls-35" d="M127.63 41.37l-.46 21.12-17.36-10.97 17.82-10.15zm37.56-24.19l1.31 21.08-18.21-9.36 16.9-11.72z"/><path class="cls-34" d="M146.95 29.91l.25 21.12-17.72-10.34 17.47-10.78zm35.94-27.04l2.73 20.92-18.8-8.01 16.07-12.91z"/><path class="cls-35" d="M67.54 68.8L82.8 82.74l3.98-20.71-19.24 6.77zM24.98 81.17l14.04 15.27 5.7-20.28-19.74 5.01z"/><path class="cls-34" d="M46.35 75.82l14.78 14.49 4.68-20.56-19.46 6.07zM2.87 85.03l12.97 16.24 7.05-19.8-20.02 3.56z"/><path class="cls-28" d="M364.79 61.26l-16.37 12.5-2.23-20.99 18.6 8.49z"/><path class="cls-29" d="M326.26 41.37l.46 21.12 17.36-10.97-17.82-10.15zM288.7 17.18l-1.31 21.08 18.22-9.36-16.91-11.72z"/><path class="cls-28" d="M306.95 29.91l-.25 21.12 17.72-10.34-17.47-10.78zM271 2.87l-2.72 20.92 18.8-8.01L271 2.87z"/><path class="cls-29" d="M386.36 68.8l-15.27 13.94-3.98-20.71 19.25 6.77zm42.55 12.37l-14.04 15.27-5.7-20.28 19.74 5.01z"/><path class="cls-28" d="M407.55 75.82l-14.79 14.49-4.67-20.56 19.46 6.07zm43.48 9.21l-12.98 16.24-7.05-19.8 20.03 3.56zM89.1 61.26l16.38 12.5 2.23-20.99-18.61 8.49z"/><path class="cls-29" d="M127.63 41.37l-.46 21.12-17.36-10.97 17.82-10.15zm37.56-24.19l1.31 21.08-18.21-9.36 16.9-11.72z"/><path class="cls-28" d="M146.95 29.91l.25 21.12-17.72-10.34 17.47-10.78zm35.94-27.04l2.73 20.92-18.8-8.01 16.07-12.91z"/><path class="cls-29" d="M67.54 68.8L82.8 82.74l3.98-20.71-19.24 6.77zM24.98 81.17l14.04 15.27 5.7-20.28-19.74 5.01z"/><path class="cls-28" d="M46.35 75.82l14.78 14.49 4.68-20.56-19.46 6.07zM2.87 85.03l12.97 16.24 7.05-19.8-20.02 3.56z"/><path d="M62.56 14.25l2.78 5.86 6.22.94-4.5 4.56 1.06 6.43L62.56 29 57 32.04l1.06-6.43-4.5-4.56 6.22-.94 2.78-5.86zM24.64 30.63l1.97 4.15 4.41.67-3.19 3.24.75 4.56-3.94-2.15-3.95 2.15.75-4.56-3.19-3.24 4.41-.67 1.98-4.15zm14.59 18.92l1.32 2.78 2.94.45-2.13 2.16.51 3.05-2.64-1.44-2.64 1.44.51-3.05-2.14-2.16 2.95-.45 1.32-2.78zm68.75-43.88l2.78 5.86 6.22.93-4.5 4.56 1.06 6.44-5.56-3.04-5.56 3.04 1.06-6.44-4.5-4.56 6.22-.93 2.78-5.86zM86.9 26.72l1.97 4.15 4.41.67-3.19 3.23.75 4.57-3.94-2.16-3.95 2.16.75-4.57-3.19-3.23 4.41-.67 1.98-4.15zM64.75 45.65l1.32 2.78 2.95.45-2.13 2.16.5 3.05-2.64-1.44-2.63 1.44.5-3.05-2.13-2.16 2.95-.45 1.31-2.78zm334.6-31.4l-2.78 5.86-6.22.94 4.5 4.56-1.06 6.43 5.56-3.04 5.56 3.04-1.06-6.43 4.49-4.56-6.21-.94-2.78-5.86zm37.92 16.38l-1.97 4.15-4.41.67 3.19 3.24-.75 4.56 3.94-2.15 3.95 2.15-.76-4.56 3.2-3.24-4.41-.67-1.98-4.15zm-14.59 18.92l-1.32 2.78-2.95.45 2.14 2.16-.51 3.05 2.64-1.44 2.63 1.44-.5-3.05 2.13-2.16-2.94-.45-1.32-2.78zM353.93 5.67l-2.78 5.86-6.22.93 4.5 4.56-1.06 6.44 5.56-3.04 5.56 3.04-1.06-6.44 4.49-4.56-6.21-.93-2.78-5.86zm21.08 21.05l-1.97 4.15-4.41.67 3.19 3.23-.76 4.57 3.95-2.16 3.94 2.16-.75-4.57 3.19-3.23-4.41-.67-1.97-4.15zm22.14 18.93l-1.32 2.78-2.94.45 2.13 2.16-.5 3.05 2.63-1.44 2.64 1.44-.5-3.05 2.13-2.16-2.95-.45-1.32-2.78z" stroke-width="5.73" fill="#fff" stroke="#fff" stroke-linecap="round" stroke-linejoin="round"/><path class="cls-37" d="M62.56 14.25l2.78 5.86 6.22.94-4.5 4.56 1.06 6.43L62.56 29 57 32.04l1.06-6.43-4.5-4.56 6.22-.94 2.78-5.86z"/><path class="cls-7" d="M24.64 30.63l1.97 4.15 4.41.67-3.19 3.24.75 4.56-3.94-2.15-3.95 2.15.75-4.56-3.19-3.24 4.41-.67 1.98-4.15z"/><path class="cls-37" d="M39.23 49.55l1.32 2.78 2.94.45-2.13 2.16.51 3.05-2.64-1.44-2.64 1.44.51-3.05-2.14-2.16 2.95-.45 1.32-2.78z"/><path class="cls-7" d="M107.98 5.67l2.78 5.86 6.22.93-4.5 4.56 1.06 6.44-5.56-3.04-5.56 3.04 1.06-6.44-4.5-4.56 6.22-.93 2.78-5.86z"/><path class="cls-37" d="M86.9 26.72l1.97 4.15 4.41.67-3.19 3.23.75 4.57-3.94-2.16-3.95 2.16.75-4.57-3.19-3.23 4.41-.67 1.98-4.15z"/><path class="cls-7" d="M64.75 45.65l1.32 2.78 2.95.45-2.13 2.16.5 3.05-2.64-1.44-2.63 1.44.5-3.05-2.13-2.16 2.95-.45 1.31-2.78zm334.6-31.4l-2.78 5.86-6.22.94 4.5 4.56-1.06 6.43 5.56-3.04 5.56 3.04-1.06-6.43 4.49-4.56-6.21-.94-2.78-5.86z"/><path class="cls-37" d="M437.27 30.63l-1.97 4.15-4.41.67 3.19 3.24-.75 4.56 3.94-2.15 3.95 2.15-.76-4.56 3.2-3.24-4.41-.67-1.98-4.15zm-14.59 18.92l-1.32 2.78-2.95.45 2.14 2.16-.51 3.05 2.64-1.44 2.63 1.44-.5-3.05 2.13-2.16-2.94-.45-1.32-2.78z"/><path class="cls-7" d="M353.93 5.67l-2.78 5.86-6.22.93 4.5 4.56-1.06 6.44 5.56-3.04 5.56 3.04-1.06-6.44 4.49-4.56-6.21-.93-2.78-5.86z"/><path class="cls-37" d="M375.01 26.72l-1.97 4.15-4.41.67 3.19 3.23-.76 4.57 3.95-2.16 3.94 2.16-.75-4.57 3.19-3.23-4.41-.67-1.97-4.15z"/><path class="cls-7" d="M397.15 45.65l-1.32 2.78-2.94.45 2.13 2.16-.5 3.05 2.63-1.44 2.64 1.44-.5-3.05 2.13-2.16-2.95-.45-1.32-2.78z"/></g></g></svg>