<svg xmlns="http://www.w3.org/2000/svg" viewBox="0 0 49.32 62.92"><defs><style>.cls-6{fill:none;stroke:#fff;stroke-miterlimit:10}.cls-4{fill:#fff}.cls-5{fill:#f8f39e}.cls-6{stroke-width:.16px}</style></defs><g id="レイヤー_2" data-name="レイヤー 2"><g id="レイヤー_1-2" data-name="レイヤー 1"><path d="M44.32 46.23a11.46 11.46 0 0 0-5.7-4.13c-1-.39-2-.68-2.94-.92s-1.66-.45-2.18-.64a12 12 0 0 1-2.5-1.25 3.13 3.13 0 0 1-.74-.68.8.8 0 0 1-.19-.48v-3.4a13.76 13.76 0 0 0 3.52-6.47 4.42 4.42 0 0 0 .7-.39 4.82 4.82 0 0 0 1.46-1.74A16.58 16.58 0 0 0 36.88 23a6.91 6.91 0 0 0 .28-1.83 3.38 3.38 0 0 0-.35-1.58 2.6 2.6 0 0 0-1.38-1.19h-.14v-1.51a22.57 22.57 0 0 0 0-2.36c-.17-2.19-.34-4.38-.48-6.57 0-.43-.07-.86-.07-1.29C34.79 4.08 27.39 0 22.93 0S11.07 4.08 11.07 6.63c0 1-.82 9.83-.51 9.85v1.88a2.55 2.55 0 0 0-.62.28 2.49 2.49 0 0 0-.89.95 3.39 3.39 0 0 0-.36 1.59A6.56 6.56 0 0 0 9 23a12.65 12.65 0 0 0 1.6 3.84 4.34 4.34 0 0 0 1 1 4.51 4.51 0 0 0 .71.39 13.58 13.58 0 0 0 3.52 6.47v3.4a.89.89 0 0 1-.21.49 4.61 4.61 0 0 1-1.36 1.06 12.09 12.09 0 0 1-1.89.85c-.71.25-1.85.51-3.13.88a15.94 15.94 0 0 0-6 3 8.81 8.81 0 0 0-2.3 3A10.5 10.5 0 0 0 0 51.81c0 .4 0 .81.05 1.24a1.53 1.53 0 0 0 .28.74 3.52 3.52 0 0 0 1 .94 14.71 14.71 0 0 0 3.08 1.44 58.21 58.21 0 0 0 18.51 2.69 62.81 62.81 0 0 0 16-1.92 24.81 24.81 0 0 0 4.69-1.71 7.38 7.38 0 0 0 1.4-.91 3 3 0 0 0 .48-.53 1.52 1.52 0 0 0 .27-.74v-1.24a9.79 9.79 0 0 0-1.44-5.58zM19.69 6.59h6.48v2.92h-6.48V6.59zM14 27.45l-.09-.5-.49-.18a2.91 2.91 0 0 1-.75-.37 2.87 2.87 0 0 1-.9-1.1 15 15 0 0 1-1-2.79 5.08 5.08 0 0 1-.22-1.34 1.58 1.58 0 0 1 .15-.74.76.76 0 0 1 .42-.36 1.3 1.3 0 0 1 .28-.07l.68.08 1.6 3.23V16a23.36 23.36 0 0 1 8.77-2A24.72 24.72 0 0 1 30 15.4l2.16 1v6.89l1.62-3.26.64-.05a1.19 1.19 0 0 1 .53.15.65.65 0 0 1 .26.28 1.46 1.46 0 0 1 .15.74 4.69 4.69 0 0 1-.22 1.34 11.24 11.24 0 0 1-1.33 3.29 2.4 2.4 0 0 1-.59.6 3 3 0 0 1-.76.37l-.48.17-.09.51a12.05 12.05 0 0 1-3.43 6.34l-.23.26v4.08a2.61 2.61 0 0 0 .54 1.54l.1.11-1.62 3.36h-8.66L17 39.77l.07-.08a2.53 2.53 0 0 0 .58-1.56v-4.08l-.23-.26A12 12 0 0 1 14 27.45zm17.78 24l-8.81 4.85-8.81-4.85 1.34-3.17-3.7-2.81 3.91-4.21 7.22 15.08 7.22-15.08 3.91 4.21-3.66 2.85z" fill="#4c4b4c"/><circle cx="39.93" cy="53.53" r="9.39" fill="#90bc26"/><circle cx="39.93" cy="53.53" r="8.72" stroke-width=".29" fill="none" stroke="#fff" stroke-miterlimit="10"/><path class="cls-4" d="M35.3 57.27c.06 0 .13 0 .13.08s-.07.08-.13.08h-.16v.86l.23-.12h.06a.08.08 0 0 1 .08.08c0 .06-.16.14-.27.2a2.29 2.29 0 0 1-.57.2.09.09 0 0 1-.08-.09s0-.07.09-.08l.31-.1v-.93h-.2c-.06 0-.13 0-.13-.08s.07-.08.13-.08H35v-.41s0-.12.08-.12.07.07.07.12v.41zm.7-.47s0-.13.08-.13.08.07.08.13v.41l.26-.09h.07c.17 0 .17.18.17.23v.51c0 .17 0 .32-.28.32-.06 0-.17 0-.17-.09a.08.08 0 0 1 .09-.08h.09c.11 0 .11-.06.11-.2v-.42s0-.1-.07-.1l-.25.08v.86c0 .06 0 .13-.08.13s-.08-.07-.08-.13v-.81l-.29.1v1c0 .07 0 .1.1.1h.55c.1 0 .19 0 .21-.26 0-.08 0-.14.08-.14a.08.08 0 0 1 .08.09.87.87 0 0 1-.06.32c-.06.13-.24.14-.28.14h-.61c-.16 0-.23-.08-.23-.25v-.93l-.16.05h-.08a.07.07 0 0 1-.07-.08s0-.06.1-.08l.21-.08V57c0-.06 0-.13.08-.13s.08.07.08.13v.33l.29-.1z"/><path class="cls-5" d="M38.77 58.48c0 .07 0 .11.11.11h.33c.12 0 .13-.1.16-.31 0 0 0-.08.08-.08a.07.07 0 0 1 .08.08 1 1 0 0 1-.09.37.24.24 0 0 1-.18.1h-.42c-.23 0-.23-.15-.23-.21v-.9h-.43a1.39 1.39 0 0 1-.1.65 1 1 0 0 1-.63.51.09.09 0 0 1-.08-.08s0-.06.06-.07a.83.83 0 0 0 .55-.53 1.41 1.41 0 0 0 .05-.48h-.5c-.06 0-.13 0-.13-.08s.07-.08.13-.08h1.85s.13 0 .13.08-.07.08-.13.08h-.61zm.45-1.64c.06 0 .13 0 .13.08s-.07.08-.13.08h-1.55c-.06 0-.13 0-.13-.08s.07-.08.13-.08z"/><path class="cls-4" d="M41.31 57.07h.86s.11 0 .11.07-.06.07-.11.07h-1.88s-.11 0-.11-.07.06-.07.11-.07h.86v-.18h-.71c-.06 0-.12 0-.12-.07s.06-.07.12-.07H42s.11 0 .11.07-.06.07-.11.07h-.72zm-.39 1.36v.07c0 .07 0 0-.16.13a1.67 1.67 0 0 1-.46.17.09.09 0 0 1-.08-.08c0-.06.05-.07.07-.08a1.52 1.52 0 0 0 .36-.12l.16-.09h-.29a.16.16 0 0 1-.16-.16v-.76a.16.16 0 0 1 .16-.16h1.33a.15.15 0 0 1 .16.16v.76a.16.16 0 0 1-.16.16h-.3l.21.11a1.32 1.32 0 0 0 .3.1c.1 0 .12 0 .12.09a.07.07 0 0 1-.06.07 1.69 1.69 0 0 1-.51-.16c-.08 0-.17-.09-.17-.15v-.06zm1-.77v-.08s0-.09-.08-.09h-1.19c-.09 0-.09.06-.09.09v.08zm-1.33.13V58h1.33v-.18zm0 .31v.1s0 .09.09.09h1.16c.08 0 .08-.06.08-.09v-.1z"/><path class="cls-5" d="M43.52 57.05h-.45c-.06 0-.12 0-.12-.07s.06-.07.12-.07h.45v-.12s0-.13.08-.13.07.07.07.13v.12h.47s.12 0 .12.07-.07.07-.12.07h-.47v.19H44a.18.18 0 0 1 .19.17v1.19c0 .09-.07.18-.22.18s-.24 0-.24-.08a.08.08 0 0 1 .08-.07h.14c.07 0 .1 0 .1-.08v-1.09a.09.09 0 0 0-.09-.08h-.66a.08.08 0 0 0-.08.08v1.22s0 .12-.08.12-.07-.06-.07-.12v-1.27a.18.18 0 0 1 .2-.17h.28zm.15 1.09h.2c.05 0 .11 0 .11.07s-.06.07-.11.07h-.2v.35s0 .12-.08.12-.07-.07-.07-.12v-.35h-.18c-.05 0-.11 0-.11-.07s.06-.07.11-.07h.18v-.22h-.18c-.05 0-.11 0-.11-.07s.06-.08.11-.08h.07s-.09-.27-.09-.28a.07.07 0 0 1 .07-.06h.06a2 2 0 0 1 .08.27h.17s.07-.24.09-.28 0-.06.06-.06.08.06.08.07a1.16 1.16 0 0 1-.09.27c.06 0 .12 0 .12.07s-.06.08-.12.08h-.19zm.69-.64c-.06 0-.14 0-.14-.08s.08-.08.14-.08h.19v-.57c0-.05 0-.12.07-.12s.08.07.08.12v.57h.22c.06 0 .13 0 .13.08s-.07.08-.13.08h-.22a1.8 1.8 0 0 0 0 .2 3.43 3.43 0 0 0 .3.83 1.19 1.19 0 0 1 .12.22.08.08 0 0 1-.08.07c-.05 0-.11-.12-.16-.2a4.38 4.38 0 0 1-.24-.62 2.35 2.35 0 0 1-.31.73c-.05.07-.06.07-.09.07a.08.08 0 0 1-.07-.07l.05-.09a2.36 2.36 0 0 0 .35-1.14zm.51-.38c0-.07 0-.15-.11-.31a.43.43 0 0 0 0-.05.07.07 0 0 1 .07-.06l.07.07a2.8 2.8 0 0 1 .15.43.07.07 0 0 1-.08.08s-.05-.02-.1-.16z"/><path class="cls-6" d="M38.59 47.22v3.41m2.43-3.41v3.41m-4.12-2.34h5.83v2.35H36.9zm6.01 3.05h-6.04v4.12m1.16-3.31h3.99m-4.49.69h5.39m-4.57.42v2.16m4.57-1.56h-1.78"/><path class="cls-6" d="M39.26 53.26l2.37 2.16h1.28"/></g></g></svg>