<svg xmlns="http://www.w3.org/2000/svg" viewBox="0 0 3583.25 489.26"><g data-name="レイヤー 2"><path d="M510.7 185.21a27.07 27.07 0 0 0-25.8-18.8H329.2l-47.4-147.6a27.1 27.1 0 0 0-51.6 0l-47.4 147.6H27.1a27.09 27.09 0 0 0-15.8 49.1l126.2 90.7L89 453.71A27.11 27.11 0 0 0 130.8 484L256 392.21 381.3 484a27.16 27.16 0 0 0 41.8-30.4l-48.6-147.5 126.2-90.6a27 27 0 0 0 10-30.29zm767.81 0a27.07 27.07 0 0 0-25.8-18.8H1097l-47.4-147.6a27.1 27.1 0 0 0-51.6 0l-47.4 147.6H794.91a27.09 27.09 0 0 0-15.8 49.1l126.2 90.7-48.5 147.5a27.11 27.11 0 0 0 41.8 30.3l125.2-91.8 125.3 91.8a27.16 27.16 0 0 0 41.8-30.4l-48.6-147.5 126.2-90.6a27 27 0 0 0 10-30.3zm767.81 0a27.07 27.07 0 0 0-25.8-18.8h-155.7l-47.4-147.6a27.1 27.1 0 0 0-51.6 0l-47.4 147.6h-155.7a27.09 27.09 0 0 0-15.8 49.1l126.2 90.7-48.5 147.5a27.11 27.11 0 0 0 41.8 30.3l125.2-91.8 125.3 91.8a27.16 27.16 0 0 0 41.8-30.4l-48.6-147.5 126.2-90.6a27 27 0 0 0 10-30.3zm767.81 0a27.07 27.07 0 0 0-25.8-18.8h-155.7l-47.4-147.6a27.1 27.1 0 0 0-51.6 0l-47.4 147.6h-155.7a27.09 27.09 0 0 0-15.8 49.1l126.2 90.7-48.5 147.5a27.11 27.11 0 0 0 41.8 30.3l125.2-91.8 125.3 91.8a27.16 27.16 0 0 0 41.8-30.4l-48.6-147.5 126.2-90.6a27 27 0 0 0 10-30.3zm767.81 0a27.07 27.07 0 0 0-25.8-18.8h-155.7L3353 18.81a27.1 27.1 0 0 0-51.6 0l-47.4 147.6h-155.7a27.09 27.09 0 0 0-15.8 49.1l126.2 90.7-48.5 147.5A27.11 27.11 0 0 0 3202 484l125.2-91.8 125.3 91.8a27.16 27.16 0 0 0 41.8-30.4l-48.6-147.5 126.2-90.6a27 27 0 0 0 10.04-30.29z" fill="#eda411" data-name="2"/></g></svg>