<svg xmlns="http://www.w3.org/2000/svg" viewBox="0 0 511.95 510.53"><defs><style>.cls-1{fill:#f8f1e4}</style></defs><g id="レイヤー_2" data-name="レイヤー 2"><g id="_2" data-name="2"><path class="cls-1" d="M50.59 54.43C27.79 28.23-14 53 4.69 94.33c12.4 27.6 36.5 94.9 70 143.4s69.3 43.3 105.5 55.1l26 13.4 177.5 204.2 35.9-31.2.2-.2c-5.2-6-166.7-191.8-230.6-265.2-63.19-72.6-127.5-146.6-138.6-159.4zm426.1 38.4l-61.9 71.3a10.93 10.93 0 0 1-15.4 1.1l-2.2-1.9a11 11 0 0 1-1.1-15.4l62.2-71.7c10.2-11.7 5.4-22.1-2.2-28.7s-18.5-9.9-28.8 1.8l-62.2 71.6a11 11 0 0 1-15.4 1.1l-2.2-1.9a10.93 10.93 0 0 1-1.1-15.4l62-71.3c18.3-21-12.3-46.4-30.2-25.8-21.4 24.6-59.2 68-59.2 68-33 37.7-32.5 55.3-27.8 80.1 3.8 19.9 9.3 34.3-11.2 57.8l-30.2 34.8 31.7 36.5 34.6-39.8c20.5-23.5 35.5-20 55.7-19.1 25.2 1.2 42.7-.8 75.4-38.7 0 0 37.8-43.5 59.2-68.1 17.9-20.6-11.5-47.4-29.7-26.3z"/><path class="cls-1" d="M185.78 321.93L49.09 479.13l36.1 31.39 133.9-154-27.6-31.59-5.71-3z"/></g></g></svg>