<svg xmlns="http://www.w3.org/2000/svg" viewBox="0 0 526.21 511.99"><defs><style>.cls-1{fill:#dcbd81}</style></defs><g id="レイヤー_2" data-name="レイヤー 2"><g id="_2" data-name="2"><path class="cls-1" d="M75.18 435.09V16.57A16.57 16.57 0 0 0 58.61 0h-42A16.56 16.56 0 0 0 0 16.57v479.35A16.06 16.06 0 0 0 16.07 512h464.35a16.07 16.07 0 0 0 16.07-16.07v-44.77a16.07 16.07 0 0 0-16.07-16.07H75.18z"/><path class="cls-1" d="M249.09 242.39l72 71.67a17.93 17.93 0 0 0 25.29 0l124.11-123.43a4.51 4.51 0 0 1 6.38 0l22.54 22.43a4.52 4.52 0 0 0 7.65-2.46l19.09-114a4.52 4.52 0 0 0-5.2-5.21l-114.54 19a4.52 4.52 0 0 0-2.41 7.71l22.45 22.34a4.51 4.51 0 0 1 0 6.41l-80 79.58a17.93 17.93 0 0 1-25.29 0l-72-71.67a17.93 17.93 0 0 0-25.29 0L100 277.89a17.93 17.93 0 0 0 0 25.42l18.62 18.53a17.93 17.93 0 0 0 25.29 0l79.87-79.45a17.93 17.93 0 0 1 25.31 0z"/></g></g></svg>