<svg xmlns="http://www.w3.org/2000/svg" viewBox="0 0 436.4 512"><defs><style>.cls-1{fill:#fff}</style></defs><g id="レイヤー_2" data-name="レイヤー 2"><g id="_2" data-name="2"><path class="cls-1" d="M118 16.7v140.5a16.73 16.73 0 0 0 16.7 16.7 16.73 16.73 0 0 0 16.7-16.7V50.1a16.73 16.73 0 0 1 16.7-16.7H387l-74.9 50.7a30.66 30.66 0 0 0-13.5 25.5v286.2H168.1a16.73 16.73 0 0 1-16.7-16.7v-80.3a16.73 16.73 0 0 0-16.7-16.7 16.73 16.73 0 0 0-16.7 16.7v113.7a16.73 16.73 0 0 0 16.7 16.7h163.9v70.9a11.9 11.9 0 0 0 18.5 9.9l119.3-80.7V0H134.7A16.73 16.73 0 0 0 118 16.7z"/><path class="cls-1" d="M190.9 290.4a4.82 4.82 0 0 0 2.8 4.3 4.58 4.58 0 0 0 5-.7l67.8-57.3a11.37 11.37 0 0 0 0-17.4L198.7 162a4.61 4.61 0 0 0-5-.7 4.82 4.82 0 0 0-2.8 4.3V199H9a9 9 0 0 0-9 9v40a9 9 0 0 0 9 9h181.9v33.4z"/></g></g></svg>