<svg version="1.1" id="レイヤー_1" xmlns="http://www.w3.org/2000/svg" x="0" y="0" viewBox="0 0 487.7 153.7" xml:space="preserve"><style>.st0{fill:#fff}.st1{fill:#eda411}.st2{fill:#9cc556}.st7{fill:none;stroke:#fff;stroke-width:.5964;stroke-miterlimit:10}</style><path class="st0" d="M207.1 75c-.3 0-.8-.1-1-.1-1 0-1.8-.9-1.8-2.2v-6.9c0-1.5 3.4-1.8 4.5-1.8h1c2.8 0 3.5.5 3.6 1.2.1.5.3 1.5.3 2.3 0 0 .2 4.4-.5 5.1l-.3.3h-.3v.1c0 1-1.2 1.8-2.9 1.8-1.1.1-2.5.2-2.5.2h-.1z"/><path class="st0" d="M206.1 74.1c-.5 0-.9-.6-.9-1.3v-6.9c0-.4 1.7-.9 3.7-1 2-.1 3.7.1 3.8.5.1.4.3 1.4.3 2.3.1.8 0 4.5-.3 4.5s-.7.4-.7.9-.9.9-2.1.9c-1.2.1-2.6.2-2.6.2h-.1s-.7-.1-1.1-.1zm69.5 1.9c-1.7 0-2.7-.3-3.1-1-.3-.3-.3-.8-.1-1.3l.1-.1c.4-.8 1.7-3 2.8-5 0 0 1.1-1.8 1.7-2.8l.1-.1c.1-.2.2-.3.3-.3.1-.2.3-.4.4-.8.2-.3.5-.6 1.2-.6.8 0 2.2.5 3.6 1.3 3.2 1.8 3.6 2.7 3.3 3.4l-.1.3c-.2.4-.4 1-.6 1.4-.3.5-1.5 2.9-1.8 3.5-.7 1.2-4 1.7-5.4 1.8l-1.1.1c-.6.2-1 .2-1.3.2z"/><path class="st0" d="M273.2 74.1c.4-.8 1.7-3 2.8-5 0 0 1.1-1.8 1.7-2.8l.1-.2c.1-.2.2-.3.2-.3s.2-.3.4-.8c.3-.4 1.8 0 3.6 1s3.1 2 2.9 2.4c-.2.4-.4 1.1-.7 1.6-.3.5-1.5 2.9-1.8 3.5-.3.6-2.4 1.2-4.8 1.4l-1.1.1c-2.2.3-3.7-.1-3.3-.9zM394 76.3c-1.4 0-2-.2-2.3-.8-.1-.2-.2-.5-.4-1.1-.2-.5-.3-1.1-.6-1.7-.3-.7-.7-2.1-1-3.3-.2-.7-.4-1.3-.4-1.5-.1-.3-.1-.6.1-.8.5-1 3-1.8 4-2.1 1.3-.3 2.5-.6 3.4-.6.6 0 1.3.1 1.6.7.2.4.8 1.8 1.1 2.8.6 1.6 1.8 4.9 2 5.3.2.3.2.7 0 1-.6 1.2-3.6 1.7-4.4 1.8h-.2c-1.1.2-2.1.3-2.9.3z"/><path class="st0" d="M392.4 75.2c-.2-.3-.5-1.6-.9-2.7s-1.3-4.4-1.5-4.8c-.2-.4 1.4-1.3 3.5-1.8 2.1-.6 3.9-.7 4-.3.2.3.7 1.6 1.1 2.8s1.8 4.9 2 5.4c.3.5-1.5 1.3-3.9 1.6h-.1c-2.1.1-4 .1-4.2-.2zm-143.7 29.2c-.3 0-.6-.1-.8-.3-.2-.1-.3-.3-.7-.6-.5-.4-1.2-1-1.8-1.5-.1-.1-.8-.6-2.2-2.3-2.9-3.4-4.1-6-4.1-8.5 0-2.3.7-4.9 4-10.3.3-.6.8-1.3.9-1.3.2-.3.2-.4.2-.5 0 0-.2-.1-.4-.1h-.2l-12.5 1h-.6c-1.1.1-2.3.2-2.7.2h-.2c-1.5 0-1.8-2.4-1.8-3.2l-.2-2.7c0-.5-.1-2.3.6-3.1.3-.3.5-.3.8-.3.2 0 .8-.1 1.3-.2l1.8-.3 25-2c.5 0 1-.1 1.5-.1 1-.1 1.9-.1 2.5-.2h.3c.6 0 1.1.3 1.3.8.3.6.3 1.3-.3 2.2-.3.6-.8 1.3-1.4 2.2l-1 1.6c-.1.1-4.1 6.3-4.9 7.5-3 4.9-4.3 7.1-4.4 8.5.2.5 1.6 2.4 2.8 3.9.8 1 1.8 2.2 2.1 2.4.2.2.3.4.3.9 0 .9-.8 1.9-1.5 2.6l-1.7 1.7c0 1.1-1.1 2-2 2z"/><path class="st0" d="M248.5 103.5c-.3-.3-1.4-1.3-2.5-2.1 0 0-.6-.5-2-2.2-2.7-3.2-3.9-5.6-3.9-8 0-2.2.7-4.6 3.9-9.9.3-.6.8-1.3.8-1.3.8-1.2.3-1.9-1.1-1.8l-12.5 1c-1.3.1-2.8.2-3.3.3-.5.1-.9-1.1-1-2.4l-.2-2.7c-.1-1.3.2-2.6.6-2.6.4 0 1.8-.3 3.3-.4l25-2c1.3-.1 3.2-.2 4.1-.3s1.1.7.5 1.6-1.7 2.6-2.4 3.8c0 0-4.1 6.3-4.9 7.6-3.1 4.9-4.4 7.3-4.4 9 0 .8 3 4.4 3 4.4.9 1.1 1.8 2.2 2.2 2.5s-.2 1.4-1.2 2.3l-1.8 1.8c-.8 1.1-1.9 1.7-2.2 1.4zm33.4-.7c-1.5 0-2.9-.3-4.1-.7-.2-.1-4-1.6-4-6 0-5.5 7.5-8.5 7.7-8.5 2.1-.8 3.4-2.2 3.5-2.8.1-.8.1-2.9.1-4.6 0-.7.4-1.4 1.3-1.7.4-.1 2.6-.5 4.8-.8.4-.2 2.1-.8 3.8-.8.9-.1 1.8-.1 2.6-.2.7-.1 1.3-.1 1.5-.1 1.4 0 1.8 2.6 2 4.1.4 4.2-.6 4.4-1 4.5-.2 0-.3.1-.6.2-.5.2-1.3.3-1.9.4-.8.2-2.5.8-3.1 1.3.2.7.9 2.3 1.8 2.9 1.4 1.1 4.2 5.7 4.4 6 .3.4.6 1.2-2.8 3.7-1.3 1-2.7 1.6-3.5 1.6-.5 0-.8-.2-.9-.3-.2-.2-.4-.4-.6-.8-.2-.3-.3-.5-.6-.7-.7.2-2.3.9-3.4 1.5-.9.4-1.8.8-2.4 1.1-1.4.5-3 .7-4.6.7z"/><path class="st0" d="M285.9 101.3c-2.1.9-5.5.9-7.7.1 0 0-3.5-1.3-3.5-5.3 0-5 7.2-7.8 7.2-7.8 2.2-.8 3.9-2.4 4-3.5.1-1.1.1-4.4.1-4.7 0-.3.3-.8.6-.8.3-.1 2.5-.5 4.8-.8 0 0 1.8-.8 3.6-.8 1.8-.1 3.5-.3 4-.3s1 1.5 1.2 3.3.1 3.5-.3 3.6c-.4.1-1.5.4-2.5.6-1 .2-3.9 1.3-3.9 1.8 0 .6.9 2.9 2.2 3.9s3.9 5.4 4.1 5.7c.2.3-1 1.5-2.5 2.7-1.5 1.2-3 1.7-3.3 1.3s-.8-1.1-1.3-1.6c-.7-.5-4.7 1.8-6.8 2.6zm23.7 1.9c-.7 0-1.3-.3-1.6-.9-.3-.6-.8-2.9-1.3-5.1-.2-.6-3.3-15.2-3.3-21.4v-3.1l.1-.7c.1-1.1.2-2 .3-2.5.3-1.4 3-1.6 4.6-1.6 4.5 0 4.5 1.3 4.5 1.7v.9c0 1 .1 2.5.1 4.1 0 0 .2 4.9.5 8.6.3 2.7.5 3.9.5 3.9.3 1.8 1.1 2.6 1.3 2.6 1.1-.5 3.3-1.5 3.8-1.7l.2-.1h.3c1.3 0 2.5 2.6 2.8 3.3 1.3 2.8 1.4 3.9.7 4.5-.3.2-.9.6-2.2 1.4-.6.4-1.3.8-1.9 1.3l-3.8 2.2c-.8.5-1.7.9-2.4 1.3-1.3.7-1.8 1-2.1 1.2-.6 0-.9.1-1.1.1z"/><path class="st0" d="M308.7 101.8c-.2-.4-.8-2.7-1.3-4.9 0 0-3.3-15.1-3.3-21.3v-3.1c.1-1.2.2-2.5.3-3 .1-.5 1.7-.9 3.8-.9 2.1 0 3.7.3 3.7.8s.1 2.7.1 5c0 0 .2 4.9.5 8.7.3 2.8.5 3.9.5 3.9.4 2.3 1.6 3.7 2.6 3.2s3.3-1.5 3.7-1.7c.4-.2 1.4 1.1 2.2 2.8.8 1.8 1.3 3.3.9 3.5s-2.2 1.4-4.1 2.7l-3.8 2.2c-2 1.1-4 2.3-4.4 2.4s-1.1.2-1.4-.3zm46.7 2c-.3 0-1.4 0-1.8-.8-.1-.3-.3-.8-.4-1.3-.2-.4-.3-.9-.4-1.3-.3-1.1-3.3-11.4-3.4-12.2 0-.2-.3-.3-.7-.3-.3 0-.8.1-1.2.3-.7.3-1.5.8-2.3 1.3-.7.3-1.5.8-1.7.9-.2.2-.3.2-.6.2-1.1 0-2.4-2.1-3.2-3.3-.8-1.5-2.1-4-.8-4.9.2-.1.4-.3.8-.4.8-.4 1.8-1.1 2.9-1.8 1.7-1 3.6-2.5 4-3-.1-.6-.4-1.8-.7-2.8l-.3-1-1.2-5.4c-.2-1 1.2-1.9 4.1-2.7 1.2-.3 2.3-.5 3.1-.5.4 0 1.6 0 1.8.9.1.3.8 2.8 1.4 4.7 0 .1.3 1.1.9 3.3v.1h.4c.8 0 1.8-.2 2.9-.5.1 0 2.7-.7 5.6-.7 6.7 0 11.7 4.4 11.7 10.2 0 4.9-5.4 9.6-5.5 9.8-2.7 2.3-3.6 3-3.9 3.2l-.2.1h-.3c-1 0-2.7-1.7-3.5-2.8-.3-.3-2.8-3.3-1.7-4.5.2-.2.5-.4.9-.8.8-.7 1.8-1.6 2.8-2.6 0 0 1.2-1.1 1.2-2.3 0-.4-1.1-.8-2.2-.8-1.3 0-2.4.3-2.5.3-.9.3-1.6.8-2.1 1.6-.4.8-.6 1.6-.3 2.4l2.2 9c.3 1.4.7 2.8.9 3.8.2.6.3.9.3 1.1.1.4.3 1.5-4 2.8-.9.5-2.1.7-3 .7z"/><path class="st0" d="M354.4 102.7c-.2-.4-.5-1.6-.8-2.6-.3-1-3.2-11.2-3.4-12.1-.3-.9-1.7-1.2-3-.4-1.3.8-3.8 1.9-4.1 2.2-.3.3-1.5-1.1-2.5-2.8-1-1.8-1.5-3.4-1.1-3.7.4-.3 2-1.2 3.7-2.2 1.7-1 4.5-3.1 4.4-3.7-.1-.6-.6-2.5-1-4.2s-1.1-4.9-1.2-5.4c-.1-.4 1.5-1.2 3.5-1.7s3.8-.6 3.9-.2c.1.4.8 2.6 1.4 4.8 0 0 .3 1 .9 3.2l.1.4c.2.5 2.1.4 4.3-.2 0 0 2.5-.7 5.4-.7 6.2 0 10.9 4 10.9 9.4 0 4.5-5.3 9.2-5.3 9.2-1.8 1.5-3.4 2.9-3.8 3.1s-1.7-.9-3-2.4-2-3-1.7-3.3c.3-.3 2.1-1.8 3.8-3.4 0 0 1.4-1.3 1.4-2.9 0-1.3-1.9-1.6-3-1.6-1.3 0-2.7.3-2.7.3-2.3.6-3.6 2.8-3 5l2.2 9c.5 2.3 1.1 4.4 1.2 4.9.1.4-1.4 1.2-3.4 1.8s-3.9.6-4.1.2zm68.8.5c-.8 0-1.4-.4-1.6-1.1-.2-.5-.8-2.8-1.3-5-.2-.6-3.3-15.2-3.3-21.4v-3.1l.1-.7c.1-1 .2-2 .3-2.5.3-1.4 3-1.6 4.6-1.6 4.5 0 4.5 1.3 4.5 1.7v.9c0 1 .1 2.5.1 4.1 0 0 .2 4.9.5 8.6.3 2.7.5 3.9.5 3.9.3 1.8 1.1 2.6 1.3 2.6 1.1-.5 3.3-1.5 3.8-1.7l.2-.1h.3c1.3 0 2.5 2.6 2.8 3.3 1.3 2.8 1.4 3.9.7 4.5-.3.2-.9.6-2.2 1.4-.6.4-1.3.8-1.9 1.3l-3.8 2.2c-.8.5-1.7.9-2.4 1.3-1.3.7-1.8 1-2.1 1.2-.5.1-.8.2-1.1.2z"/><path class="st0" d="M422.4 101.8c-.2-.4-.8-2.7-1.3-4.9 0 0-3.3-15.1-3.3-21.3v-3.1c.1-1.2.2-2.5.3-3 .1-.5 1.7-.9 3.8-.9 2.1 0 3.7.3 3.7.8s.1 2.7.1 5c0 0 .2 4.9.5 8.7.3 2.8.5 3.9.5 3.9.4 2.3 1.6 3.7 2.6 3.2s3.3-1.5 3.7-1.7c.4-.2 1.4 1.1 2.2 2.8s1.3 3.3.9 3.5-2.2 1.4-4.1 2.7l-3.8 2.2c-2 1.1-4 2.3-4.4 2.4s-1.2.2-1.4-.3zm-214.3 3.3c-.7 0-1.6-.3-2.5-.7l-1.9-.9c-.8-.4-2.8-1.5-2.3-2.8l.5-1c.3-.6.6-1.3.8-1.9.3-.7.3-1.6.3-2h-1.3c-4.4 0-8-4-8-9 0-5.9 4.5-10.4 10.6-10.6 0-.9.6-1.6 1.5-1.8.3-.1.9-.1 1.7-.1.5 0 1.1 0 1.7-.1l1.5-.1h.4c.4 0 1.9.1 2.6.8.3.3.3.6.3 1-.1.3-.1 1.3-.2 2.1l-.1.8c-.1 1.1 0 3.9.4 5.1 0 .1.8 2 .8 4.8 0 6.8-3.7 12.9-3.8 13.1-.6 1.1-1.4 2.4-1.8 2.8-.2.3-.6.5-1.2.5z"/><path class="st0" d="M204.1 102.7c-1.3-.6-2.1-1.3-1.9-1.8.2-.4.8-1.8 1.3-2.9.5-1.2.6-3.6-.7-3.2h-1.2c-3.9 0-7.2-3.7-7.2-8.1 0-5.6 4.4-9.8 10.3-9.8h.1c.1 0 .3-.3.3-.8s.3-.8.8-.9c.5-.1 1.9-.1 3.3-.2l1.5-.1c1.3-.1 2.5.3 2.4.8-.1.5-.2 1.8-.3 2.9-.1 1.1 0 4.1.5 5.4 0 0 .7 1.8.7 4.4 0 6.6-3.7 12.7-3.7 12.7-.7 1.2-1.4 2.4-1.7 2.8-.3.3-1.4.2-2.7-.4l-1.8-.8zm-.6-17.2c.3-.4-.1-.3-.8.3v.7c.1 0 .6-.6.8-1zm66.5 9.8c-1 0-2.7-.8-3.6-1.3-.8-.4-2.8-1.6-3.2-2.7-.1-.3-.1-.6.1-.9.1-.2.4-.7.8-1.4.4-.8 1-1.9 1.6-2.9.1-.3.4-.8 1.1-2.1 1.3-2.3 1.8-3.3 1.8-3.3l.4-.8c.8-1.4 1.7-3 1.8-3.3.2-.4.3-.9 5.1-1.3l1.3-.1h1c1.8 0 2.8.3 3.2 1 .3.4.3.8 0 1.3-.4.8-1.7 3-2.8 5l-4.8 8c-1.3 2-2.4 3.8-2.7 4.2-.2.3-.5.6-1.1.6z"/><path class="st0" d="M266.8 93.2c-1.8-.9-3-2-2.8-2.4.3-.4 1.3-2.4 2.3-4.4 0 0 0-.1 1.1-2.1 1.3-2.3 1.8-3.3 1.8-3.3 1.1-2 2.1-3.9 2.2-4.1s2.1-.6 4.4-.8l1.3-.1c2.3-.2 3.9.3 3.4 1s-1.7 3-2.8 5l-4.8 8c-1.3 1.9-2.4 3.8-2.7 4.2-.1.5-1.7-.1-3.4-1zm127.4 10.4c-3.2 0-5.7-.5-8-1.7-2.9-1.6-4.9-4.4-4.9-7.4 0-5.4 4.2-9.6 12.4-12.6-.1-.3-.3-.6-.3-.9-.3-.6-.5-1.3-.8-2-.6-1.5.3-3.1 1.9-3.3l5-.8c1.2-.2 2.3.5 2.7 1.7l.6 1.8c1.2 3.5 1.7 5 2.3 7.8.3 1.3-.4 2.7-1.7 3l-.3.1c-3.5.9-5.4 1.4-7.9 2.6-.3.2-.6.3-.8.4-.8.4-.5 1.6.4 1.6 3 0 8.1-1.2 8.8-1.4 1.3-.4 2.8.4 3.1 1.8l1 3.9c.3 1.3-.3 2.5-1.6 2.9-3.9 1.6-8.1 2.5-11.9 2.5z"/><path class="st0" d="M394.2 102.7c-3 0-5.4-.5-7.6-1.6-2.7-1.4-4.4-4-4.4-6.6 0-4.9 3.8-8.7 11.1-11.5.8-.3 1.3-1.3.9-2.2 0-.1-.1-.1-.1-.2-.3-.6-.5-1.3-.8-1.9-.4-1 .3-2.1 1.3-2.3l5-.8c.8-.1 1.6.3 1.8 1.1l.6 1.8c1.2 3.5 1.7 5 2.3 7.7.3.8-.3 1.8-1.2 2l-.3.1c-3.6.9-5.4 1.4-8 2.7-3.7 1.8-3.8 2.8-3.9 2.9 0 0 .7.7 3.9.7 3 0 8.1-1.2 9-1.4h.1c.9-.3 1.8.3 2.1 1.2l1 3.9c.3.8-.3 1.7-1 1.9-3.9 1.7-8 2.5-11.8 2.5zm-34-26.4c-1.6 0-3.2-.3-4.4-.8-.4-.2-1.3-1-1.3-3.9 0-2.6 1-3.3 1.3-3.5 2.2-1 3.9-1.8 3.9-1.8l.3-.2.3.1s1.8.7 3.9 1.5c.4.2 1.3.8 1.3 3.9.1 3-1 3.7-1.3 3.9-1 .5-2.4.8-4 .8z"/><path class="st0" d="M364 74.8c-2.1.9-5.5.9-7.7-.1 0 0-.8-.4-.8-3.1 0-2.3.8-2.8.8-2.8 2.1-1 3.8-1.8 3.8-1.8s1.8.7 3.9 1.5c0 0 .8.3.8 3.2.1 2.7-.8 3.1-.8 3.1zM189 79.7c-1.3 0-1.7-2.3-1.8-4.3-.1-1.3 0-4.1 1.3-4.4.3-.1.8-.1 1.9-.3.8-.1 1.9-.2 3-.3 2.3-.3 12.8-.8 13.3-.8.1 0 1.2 0 2.5-.1s3.3-.1 4.3-.1c.6 0 3.6 0 5.9-.1h2.9c1.5 0 1.7 3.1 1.7 4.4 0 2.9-.5 4.4-1.6 4.4-.2 0-.6 0-1.2.1-.8.1-1.8.2-2.7.2-1.8.1-5.9.3-6.4.3-.3 0-1.7.1-3.2.1h-1l-1.2.1c-5.8.3-12.9.4-13 .4-.8.3-2.4.4-4.7.4z"/><path class="st0" d="M189 78.9c-.4 0-.8-1.5-.9-3.4-.1-1.9.3-3.4.7-3.5s2.6-.3 4.9-.5c2.3-.3 13.2-.8 13.2-.8s1.2 0 2.5-.1 3.2-.1 4.2-.1 8.4-.1 8.8-.1.8 1.6.8 3.6-.3 3.6-.8 3.6-2.2.2-3.9.3c-1.8.1-5.9.3-6.4.3s-2.3.1-4.2.2l-1.2.1c-5.8.3-12.9.4-12.9.4H189zM265 81.1c-1.5 0-1.9-2.8-1.9-4.3 0-3.9.8-4.3 1.1-4.4.3-.2 1-.3 2-.5l.7-.1c1-.2 9-1 10.7-1.1.9-.1 2.2-.2 3.3-.3.9-.1 1.8-.2 2.5-.2 1.4-.1 5.4-.3 6-.3 1.3 0 1.8 2.3 1.8 4.4.1 1 .1 3.3-.7 4.1-.2.3-.5.3-.8.3-.2 0-.7.1-1.2.2-.7.1-1.6.3-2.4.3-1.6.2-8.7.9-10.2 1.1-1.7.2-4.4.3-5.2.4-1.2.3-5.2.4-5.7.4z"/><path class="st0" d="M263.9 76.9c0-1.9.3-3.5.6-3.7.3-.2 1.5-.3 2.4-.5.9-.2 8.9-1 10.6-1.1 1.8-.1 4.3-.3 5.8-.4 1.5-.1 5.4-.3 5.9-.3s.9 1.6 1 3.5c.1 1.9-.2 3.6-.6 3.6s-2.1.3-3.7.5-8.7.9-10.2 1.1-3.9.3-5.2.4c-1.3.1-5.1.3-5.6.3s-1-1.5-1-3.4zM380.6 82.8c-.4 0-1.4 0-2.1-4.2-.1-.7-.5-3.1.3-4.1.3-.3.6-.5.8-.5s.8-.2 1.3-.3 1-.3 1.5-.3l1.3-.3c4.2-.8 4.3-.8 4.4-.8s.8-.2 1.5-.3l.9-.2c1.3-.3 4.2-.7 5.5-.8.5-.1 1.2-.2 1.8-.3 1-.2 1.9-.3 2.6-.3 1-.1 2.8-.3 3.6-.5.9-.2 4.5-.6 5.1-.6 1.3 0 2 2.8 2.3 4 .3 1.3.7 4.4-.8 4.7-.2 0-.4.1-.8.2-.6.2-1.4.3-2.3.5-1.3.3-8.1 1.4-9.5 1.6-1.5.2-3.7.6-4.1.7l-1 .2c-.3.1-.7.1-.9.2-.3.1-.6.1-.8.1-2.4.4-4.4.6-5.9.8-.8.1-1.5.2-2.1.3l-.6.1c-.3 0-.5.1-.8.1-.3.1-.7.1-.9.2h-.1l-.2-.2z"/><path class="st0" d="M379.3 78.5c-.3-1.9-.2-3.6.4-3.7s1.8-.4 2.8-.6c.9-.2 5.4-1 5.5-1 .2 0 1.3-.3 2.6-.5 1.3-.3 4.1-.7 5.4-.8 1.3-.2 3.3-.5 4.4-.6 1-.1 2.7-.3 3.7-.5s4.5-.6 4.9-.6 1.1 1.5 1.4 3.3c.3 1.8.3 3.6-.2 3.7s-1.8.4-3 .7c-1.3.3-8.1 1.4-9.5 1.6s-3.3.5-4.2.7l-1 .2c-.7.1-1.3.3-1.6.3-3.8.6-6.3.8-8 1.1l-.6.1c-.5.1-1.3.2-1.8.3s-.9-1.8-1.2-3.7zM333.1 99.6c-.4 0-.8 0-1.3-.1-.9 0-4.2-.3-4.2-1.8v-8c-.2-3.8-.4-5.4-1.3-10.3l-.3-2c-.1-.2-.1-.4-.2-.7-.2-.6-.3-1.2-.4-1.6-.2-1.4 2-2.3 3.9-2.8 1.2-.3 2.3-.4 3.1-.4.4 0 1.4 0 1.8.8.1.3.3 1.1.8 2.7.2.7.4 1.4.7 2.2.1.2 1.5 5.2 1.5 12.1 0 2.6-.2 3.9-.2 3.9-.3 1.9-.7 4.4-.8 4.9.1.1-.1 1.1-3.1 1.1z"/><path class="st0" d="M331.9 98.6c-1.9-.1-3.4-.6-3.4-1V89.7c-.2-3.9-.4-5.6-1.3-10.5l-.3-2c-.2-.7-.5-1.7-.6-2.3-.1-.6 1.3-1.3 3.3-1.8 2-.5 3.7-.6 3.9-.2.2.4.8 2.5 1.4 4.8 0 0 1.5 5 1.5 11.8 0 2.6-.2 3.8-.2 3.8-.3 2.3-.7 4.4-.8 4.9 0 .4-1.6.6-3.5.4zM446.5 99.6c-.3 0-.7 0-1.1-.1-.9 0-4.2-.3-4.2-1.8v-8c-.2-3.8-.4-5.4-1.3-10.3l-.3-2.1c-.1-.2-.1-.4-.2-.7-.2-.6-.3-1.2-.4-1.6-.2-1.4 2-2.3 3.9-2.8 1.2-.3 2.3-.5 3.1-.5.4 0 1.4 0 1.8.8.1.3.3 1.1.8 2.7.2.7.4 1.4.7 2.2.1.2 1.5 5.2 1.5 12.1 0 2.6-.2 3.9-.2 3.9-.3 2.1-.7 4.4-.8 4.9-.1 1-1.9 1.3-3.3 1.3z"/><path class="st0" d="M445.5 98.6c-1.9-.1-3.4-.6-3.4-1V89.7c-.2-3.9-.4-5.6-1.3-10.5l-.3-2.1c-.2-.7-.5-1.7-.6-2.3-.1-.6 1.3-1.3 3.3-1.8s3.7-.6 3.9-.2c.2.4.8 2.5 1.4 4.8 0 0 1.5 5 1.5 11.8 0 2.6-.2 3.8-.2 3.8-.3 2.3-.7 4.4-.8 4.9 0 .4-1.6.7-3.5.5zM282.3 98.9c-1.7 0-3-1.3-3-2.8 0-2.7 3.3-4.5 6.4-4.5.4 0 .8 0 1.2.2l1.4.5-.3 1.5c-.5 2-2.5 5.1-5.7 5.1z"/><g><path class="st1" d="M228.6 75.5c-.1-1.3 1-2.4 2.3-2.5l24.8-1.9c1.3-.1 1.9.8 1.2 1.9l-3.9 6.2c-.8 1.2-1.9 3.1-2.7 4.3 0 0-3.3 5.5-3.3 7.7 0 2.3 3.3 5.7 3.3 5.7.9 1 1.1 2.5.3 3.3-.8.8-2 1.1-2.7.6-.7-.6-3.2-3.5-3.9-4.7 0 0-2.1-2.9-2.1-4.9 0-1.8 2.5-6.7 2.5-6.7.7-1.3 1.7-3 2.3-3.9.6-.9 2.2-4.5.8-4.4l-16.1 1.4c-1.6.1-2.8-.8-2.8-2.1zm-19.5 1.2c-1.3.1-2.3.4-2.3.8s-.5 1.3-.9 1h-1c-5.3 0-8.6 3.9-8.6 8.1 0 3.7 2.6 6.4 5.5 6.4 1.9 0 2.8-.6 2.8-.6 1.2-.8 2.3-1.7 2.4-1.9.2-.3.6-.5.6 0s-.4 2.3-.8 3.6l-1.8 4.4c-.5 1.3-.1 2.7.9 3.1 1 .4 2.4-.2 3.1-1.3 0 0 3.4-5.7 3.4-11.8 0-2.5-.7-4.1-.7-4.1-.5-1.3-.9-2.8-.8-3.5s-.4-4.3-1.8-4.2zm-6.5 11.6c-.1 0-1.5 0-1.5-1.8 0-1.7 1.5-3.5 3.4-3.5h.8c.3.3.3 1.8-.3 3 .1-.1-.8 2.3-2.4 2.3zm9.2-16.1c-.1 0-.1 0 0 0-.2 0-.3-1.1-.4-2.4-.1-1.3-1.3-3.3-2.4-3.3-1.2.1-2.1.8-2.1 1.6v4.3s1.2-.1 2.5-.2c.1.1 1.9 0 2.4 0zm70.9-2.7c.3-.5-.4-1.3-1.4-1.8-1-.5-1.8-.9-1.9-.8s-.8 1.3-1.5 2.5l-1.2 1.9c-.7 1.2-.2 2.1 1.3 1.9h.4c1.4-.1 4-3.2 4.3-3.7zm114.5-.6c-.5-1.2-1.8-1.8-3-1.5-1.3.3-1.9 1.7-1.5 3l.3 1.2c.4 1.3 1.8 2.3 3.3 2h.1c1.3-.2 1.3-3.5.8-4.7zM296.4 97.6c-.8.6-2.3.4-3-.4-.8-.8-3.3-1.4-3.9-.2 0 0-1.8 4.3-7.4 4.3-3 0-5.7-1.9-5.7-5.1 0-4.4 4.7-7.6 9.7-7.6h.6c.3.1.8-1 .8-2.4 0 0 .2-1.6.2-2.9s1.1-2.6 2.5-2.8l5.7-1c1.3-.1 2.6.7 2.7 1.7.1 1-.9 2.1-2.3 2.4l-2 .4c-1.3.3-2.4 1.3-2.4 2.4 0 1.1.8 4.2 2 4.9l2.4 3.3c1 1 1 2.4.1 3zM308 70.4c1.1 0 2.1 1.1 2.1 2.5l.4 8c.1 1.3.3 3.6.5 5l.9 5.4c.3 1.3 1.6 1.9 2.8 1.3l1.9-.9c1.3-.6 2.7-.3 3.1.7.4.9-.1 2.3-1.3 3.1l-6.4 3.7c-1.2.7-2.4.2-2.8-1.3 0 0-3.6-16-3.6-22.3v-3.3c.3-1 1.3-1.9 2.4-1.9zm56.9 21.4c-.8-.8-.5-2.3.6-3.2 0 0 3.2-2.8 3.2-5.5 0-2.2-2.2-3.3-4.7-3.3-1.9 0-6.3 1.3-6.3 1.3-1.3.4-2.4.8-2.3.8 0 .1.3 1.4.7 2.7l3.3 13.3c.3 1.3-.3 2.7-1.4 3s-2.3-.4-2.7-1.6c-.3-1.2-4.4-15.4-4.4-15.4 0-.1-1 .4-2.3 1.1l-3.4 1.8c-1.3.7-2.7.3-3.3-.7-.6-1 0-2.4 1.2-3.1l4.4-2.5c1.3-.6 2-2.3 1.6-3.6 0 0-1.6-6.5-1.8-7.3s.7-1.6 1.8-1.8c1.2-.3 2.4.5 2.8 1.8l1.6 5.4c.3 1.3 1.8 2.1 3 1.7 0 0 4.6-1.5 8.1-1.5 5 0 9.2 3.1 9.2 7.7 0 4.4-5.7 9-5.7 9-.9.8-2.4.7-3.2-.1zm56.8-21.4c1.1 0 2.1 1.1 2.1 2.5l.4 8c.1 1.3.3 3.6.5 5l.9 5.4c.3 1.3 1.6 1.9 2.8 1.3l1.9-.9c1.3-.6 2.7-.3 3.1.7.4.9-.1 2.3-1.3 3.1l-6.4 3.7c-1.2.7-2.4.2-2.8-1.3 0 0-3.6-16-3.6-22.3v-3.3c.2-1 1.2-1.9 2.4-1.9zM267 88.7c-.7 1.3-.4 2.6.6 3.1s2.3 0 3.1-1.2l6.4-10.7c.7-1.2.1-2.1-1.3-2l-.7.1c-1.3.1-3 1.3-3.7 2.4l-4.4 8.3zm128.1 7.7c-1.3 0-5.5-.1-5.5-2.3 0-2 2.5-3.3 2.5-3.3 1.3-.6 3.3-1.5 4.6-2l3.8-1.3c1.3-.3 2.2-1.7 1.8-2.8-.3-1.3-3.3-6.9-4.7-6.7h-.1c-1.3.2-2.3.7-2.3 1 .1.3.8 1.8 1 2.6.3.8-.3 2.4-1.6 2.9 0 0-10.8 3.6-10.8 10.1 0 1.9 1.6 3.4 1.6 3.4 1 .9 2.9 2.1 4.2 2.6 0 0 1.4.5 4.5.5 4.9 0 9.1-1.5 9.1-1.5 1.3-.5 2.2-1.7 1.8-2.8-.3-1.1-1.6-1.7-2.9-1.3.1 0-3.7.9-7 .9z"/></g><path class="st0" d="M285.6 93.2c-2.3 0-4.7 1.3-4.7 2.8 0 .7.6 1.2 1.3 1.2 2.3 0 3.7-2.4 4-3.9-.2-.1-.2-.1-.6-.1z"/><g><path class="st2" d="M363.2 71.8c0 1.8-1.5 3-3.1 3-1.8 0-3-1.5-3-3.1 0-1.2.8-1.7.8-1.7 1.2-.7 3.3-.9 4.5-.5.1 0 .8.3.8 2.3zm-144.1 4.3c1.3-.1 2.5-1 2.5-2.1s-1.1-1.9-2.5-1.9c0 0-4.4 0-5.4.1-1 0-2.8.1-4.2.1-1.3.1-2.4.1-2.4.1s-1.2.1-2.5.2l-12.1.8c-1.3.2-2.5 1.1-2.4 2.1 0 1 1.2 1.8 2.5 1.8l12-.3c1.3-.1 3.6-.2 4.9-.3 1.3-.1 3.4-.2 4.9-.2 1-.1 4.7-.4 4.7-.4zm69.5-1.6c-.1-1.1-1.2-1.8-2.6-1.8l-2.6.2c-1.3.1-3.6.3-5 .4h-.4c-1.3.2-3.6.3-5 .5 0 0-4.6.5-5.6.7-1 .2-1.8 1.2-1.8 2.3 0 1.1 1.1 1.9 2.4 1.8 1.3-.1 5.9-.4 7.2-.6l.7-.1c1.3-.1 3.6-.3 5-.5l5.2-.6c1.5-.2 2.5-1.2 2.5-2.3zm118.5 1.7c1.2-.3 1.9-1.3 1.8-2.4-.2-1.1-1.3-1.8-2.6-1.7-1.3.2-8.5 1.2-9.9 1.3h-.1c-1.3.2-3.6.6-4.9.8-1.3.3-4.4.8-5.8 1.1 0 0-2.3.3-3.3.6-.9.2-1.5 1.3-1.3 2.3.2 1 1.3 1.8 2.6 1.6 1.3-.2 8-1.2 9-1.3 1-.2 3.6-.6 4.9-.8h.1c1.5-.1 8.3-1.2 9.5-1.5zm-77-1.4c1.1-.3 2.3.6 2.8 1.9 0 0 1.9 6.5 1.9 12.9 0 2.5-.3 5-.3 5-.2 1.3-1.3 2.4-2.3 2.3-1.1-.1-2-1.3-2-2.6v-2.1c0-1.3-.1-3.6-.3-5l-.7-5.7c-.3-1.3-.5-3.1-.7-3.9s.5-2.6 1.6-2.8zm113.6 0c1.1-.3 2.3.6 2.8 1.9 0 0 1.9 6.5 1.9 12.9 0 2.5-.3 5-.3 5-.2 1.3-1.3 2.4-2.3 2.3s-2-1.3-2-2.6v-2.1c0-1.3-.1-3.6-.3-5l-.7-5.7c-.3-1.3-.5-3.1-.7-3.9-.1-.7.5-2.6 1.6-2.8z"/></g><g><ellipse class="st0" cx="105.5" cy="70.8" rx="47.9" ry="47.9"/><circle cx="105.5" cy="70.8" r="46.6" fill="#e29d30"/><circle class="st1" cx="105.5" cy="70.8" r="46.6"/><circle cx="105.5" cy="70.8" r="39.7" fill="#fff" stroke="#fff" stroke-width="1.39" stroke-miterlimit="10"/><path class="st1" d="M105.2 107.7c-20.2 0-36.6-16.4-36.6-36.6S85 34.6 105.2 34.6s36.6 16.4 36.6 36.6-16.5 36.5-36.6 36.5zm0-71.9c-19.5 0-35.4 15.9-35.4 35.4s15.9 35.4 35.4 35.4 35.4-15.9 35.4-35.4-15.9-35.4-35.4-35.4z"/><path d="M124.7 54c-3.6-6.1-8.3-9-11.1-8.2-.2.1-2.5.5-3.1.7-.4.1-.7.4-1 .6h0c-.5.3-30.4 30.6-35.9 38.5h0c-.5.5-.8 1.1-.9 1.9-.1 1.7 1 3.2 2.7 3.4h.1c.8.1.8-.1 2.3-.5 2.1-.5 5.1-1.5 7.7-2.4h0c-2.1 1.4-2.9 3-2.9 3h0c-.1.2-.2.3-.3.5-1.4 2.1-1.5 4.6-.2 5.5 1.3.9 3.5-.1 4.9-2.3 0-.1.1-.1.1-.1v.1s6.9-11.9 33.5-22.6c.7-.3 1.3-.4 2-.7h0c.4-.2.7-.4 1.1-.7.7-.5 1.8-1.5 3.1-3.2 1.7-2.2 1.5-7.5-2.1-13.5z" fill="#eda411" stroke="#fff" stroke-width=".762" stroke-miterlimit="10"/><path d="M128.5 55.6c2.6-1.1 8.4-2.7 13.8-2.3l.3-3.3c-1.4-.1-2.8-.1-4.1-.1 2.9-.9 6-1.5 8.9-1.4l.1-2.8c.5.1 1.1.3 1.7.5 0 0 .1 0 .1.1l1.3-3c-.1 0-.1 0-.1-.1-6.4-2.7-14.8 0-20.1 2.9 2.5-1.6 7.1-3.5 11.1-4l-.4-3.3c-8.7 1.1-15.7 6.7-18 9.2m12-.5c2.5-1 6.7-2.1 9.3-2.1-2.6.3-6.8 1.3-9.3 2.1z" fill="#9cc556" stroke="#fff" stroke-width=".929" stroke-linejoin="round" stroke-miterlimit="10"/><path class="st7" d="M113.5 73c-1.3-1.8-2.7-3-3.3-2.6-.5.4.1 2.1 1.4 3.9.3.4.5.7.8 1 .7-.3 1.3-.6 2-.9-.3-.4-.6-.9-.9-1.4z"/><ellipse transform="rotate(-35.554 102.778 68.625)" class="st7" cx="102.8" cy="68.6" rx=".7" ry="2.7"/><path class="st7" d="M104 57c1.7 2.5 3.5 4.2 4.1 3.8.6-.4-.3-2.8-1.9-5.3-.5-.9-1.1-1.6-1.7-2.2l-1.7 1.7c.3.7.7 1.3 1.2 2zM81.1 79.9c.9 1.2 1.8 1.9 2.1 1.7.3-.3-.1-1.4-.9-2.6-.3-.4-.6-.8-.9-1.1-.3.3-.6.7-.9 1.1l.6.9zm21.8-.5c-.9-1.2-1.8-1.9-2.1-1.7-.3.3.1 1.4.9 2.6.1.1.1.2.3.3.4-.3.9-.5 1.3-.8-.2-.1-.3-.2-.4-.4zM91.8 69.3c.9 1.2 1.8 1.9 2.1 1.7.3-.3-.1-1.4-.9-2.6-.5-.7-1-1.2-1.4-1.5l-.7.7c.1.6.5 1.1.9 1.7z"/><path class="st0" d="M43.4 89.4c-3.3 0-7.9-1.5-11.1-8.5-3.8-8.3-2.1-20.1 3.1-22.6.7-.3 1.6-.5 2.5-.5 6.1 0 13.9 6.8 16.6 13 3.5 7.6 1.4 14.1-5.5 17.3-2 .8-3.8 1.3-5.6 1.3z"/><path class="st0" d="M62.6 129.4L41.4 75.6c-.3-.8.1-1.7.8-2.1.8-.4 1.8-.1 2.2.7l26.8 51.3c.1.1.1.2.1.3l3.3 10.1c.3.8-.1 1.7-.9 2l-3.3 1.5c-.7.3-1.7.1-2.1-.7l-5.5-9c-.1-.1-.1-.2-.2-.3z"/><path class="st2" d="M43.1 74.6l-.5.3 21.2 53.9c.1.1.1.3.2.4l4.5 7.3c.6 1 1.9 1.4 3 .9h.1c1.1-.5 1.7-1.7 1.3-2.9l-2.6-8.1c-.1-.1-.1-.3-.1-.4L43.1 74.6z"/><path class="st2" d="M53.2 71.3c3.6 7.9.6 13-4.9 15.6-5.5 2.5-11.3 1.3-15-6.5-3.6-7.9-1.8-18.8 2.5-20.8s13.9 3.9 17.4 11.7z"/><g><path class="st0" d="M134.7 134.9l3.1-9.6c.1-.1.1-.2.1-.3l23.8-45.5c.5-.9 1.6-1.3 2.5-.9.9.4 1.3 1.5 1 2.5l-18.8 47.8c-.1.1-.1.2-.1.3l-5.2 8.7c-.5.8-1.5 1.1-2.4.7l-2.9-1.3c-.9-.5-1.4-1.5-1.1-2.4z"/><path class="st0" d="M156.2 91.3l-3.6-9.4 3.2-7 17.3 7.6-3.1 7.1-10 3.3z"/><path class="st0" d="M155.9 77.8c-.7-.3-.9-1.1-.6-1.7l10.1-19c.3-.7 1.2-.9 1.9-.7l.3.1c.7.3 1 1.1.8 1.8l-7.3 20.3c-.3.7-1 1-1.7.7l-3.5-1.5zm11.4 5.1c-.7-.3-.9-1.1-.6-1.7l10.1-19c.3-.7 1.2-.9 1.9-.7l.3.1c.7.3 1 1.1.8 1.8l-7.2 20.3c-.3.7-1 1-1.7.7l-3.6-1.5z"/><path class="st0" d="M163.9 81.4c-.7-.3-.9-1.1-.6-1.7l10.8-21.4c.3-.7 1.1-.9 1.8-.7l.3.1c.7.3 1 1.1.7 1.8l-8.6 22.4c-.3.7-1 1-1.7.7l-2.7-1.2z"/><path class="st0" d="M160.1 79.7c-.7-.3-.9-1.1-.6-1.7l10.7-21.4c.3-.7 1.1-.9 1.8-.7l.3.1c.7.3 1 1.1.7 1.8l-8.5 22.4c-.3.7-1 1-1.7.7l-2.7-1.2z"/><path class="st2" d="M169 88.5l-8.9 3-2.8-1.2-3.2-8.3 2.4-5.4 14.8 6.6z"/><path class="st2" d="M163.1 81c.3.1.4.5.3.7l-18.2 46.4c-.1.1-.1.3-.2.3l-4.3 7.1c-.6 1-1.9 1.5-3 .9-1.1-.5-1.7-1.7-1.3-2.9l2.5-7.9c.1-.1.1-.3.1-.4l23.2-44.1c.3-.1.6-.2.9-.1zm-6.6-4.4l10.1-19 .5.2-7.3 20.3zm11.4 5.1l10.2-19 .5.2-7.3 20.3zm-3.4-1.5l10.8-21.4.4.2-8.6 22.4zm-3.8-1.7l10.7-21.4.5.2-8.6 22.3z"/><path class="st0" d="M170.8 84.4l-14.9-6.5.8-.4 13.8 6.1z"/></g></g></svg>