<svg xmlns="http://www.w3.org/2000/svg" viewBox="0 0 511.99 450"><defs><style>.cls-1{fill:#59ab44}</style></defs><g id="レイヤー_2" data-name="レイヤー 2"><g id="_2" data-name="2"><path class="cls-1" d="M291.77 359.7l-12.1-10.2c-8.8 10.5-13.2 22.9-15.3 34.1l15.5 2.9c1.8-9.4 5.4-19.1 11.9-26.8zm41.8-23.9l-9.3-12.8a54.84 54.84 0 0 1-15.9 7.8 67.86 67.86 0 0 0-13.9 6.1l8.1 13.6a46.16 46.16 0 0 1 10.5-4.6 68.85 68.85 0 0 0 20.5-10.1zm9.6-50.4c-.4 9.3-3 19.2-8.9 27.5l12.9 9.1c8-11.3 11.2-24.2 11.8-35.9zm-175.8 108.3a80 80 0 0 0-13.5-31.6l-12.9 9a66 66 0 0 1 10.9 25.5zm-51.3-64.5l-7.7 13.8a111.12 111.12 0 0 1 23.4 17.3l11.1-11.2a121.37 121.37 0 0 0-26.8-19.9z"/><path class="cls-1" d="M511.77 446.8l-8.7-19.1-90.5-199.5h-126.3c-1.7 3-3.2 5.8-5 8.9-4.9 8.3-9.4 15.8-13.5 22.7h69.9l-.1.1c1.2 1.1 3.3 5.2 4.5 10.6l15.4-3.5a67.75 67.75 0 0 0-2.2-7.2h37.1l72 158.6h-198.6l13.2-2v-.1a92.09 92.09 0 0 1-.7-11.7v-2.5l-15.8-.4v2.9a132.55 132.55 0 0 0 .8 13.9h-94.9c.2-2.6.4-5.1.5-7.6l-15.8-.2a71.08 71.08 0 0 1-.5 7.8H47.77l38.7-85.3c2.3.8 5.3 1.9 8.7 3.3l6.2-14.5c-3.2-1.3-5.9-2.4-8.3-3.2l26.8-58.9h38.8c-4.2-6.8-8.7-14.3-13.5-22.7-1.8-3.1-3.3-5.9-5-8.9h-40.8L.17 446.8a2.46 2.46 0 0 0 .2 2.2 2.28 2.28 0 0 0 1.9 1h507.5a2.28 2.28 0 0 0 1.9-1 2.44 2.44 0 0 0 .1-2.2z"/><path class="cls-1" d="M213.17 309.7c5 0 105.2-146.4 105.2-204.5a105.2 105.2 0 0 0-210.4 0c.03 58 100.2 204.5 105.2 204.5zm-40.3-204.5a40.2 40.2 0 1 1 40.2 40.2 40.2 40.2 0 0 1-40.2-40.2z"/></g></g></svg>