<svg version="1.1" id="レイヤー_1" xmlns="http://www.w3.org/2000/svg" x="0" y="0" viewBox="0 0 332.8 423.2" xml:space="preserve"><style>.st0{fill:#de6a7c}</style><path class="st0" d="M265.3 238.1H80.9c-5.2 0-9.5 3.8-9.5 8.4V357c0 4.6 4.3 8.4 9.5 8.4h60.5v16.3h-12.3v8.1h88v-8.1h-12.3v-16.3h60.5c5.2 0 9.5-3.8 9.5-8.4V246.5c-.1-4.6-4.4-8.4-9.5-8.4zm-2.9 113.1H83.8V249.1h178.6v102.1zm-15-121.1v-41.8l29.4 12.2zm-139-1v-41.8l-29.5 12.2z"/><ellipse class="st0" cx="75.9" cy="163.1" rx="73.5" ry="57"/><ellipse class="st0" cx="264.9" cy="177.3" rx="52.5" ry="40.2"/></svg>