<svg xmlns="http://www.w3.org/2000/svg" viewBox="0 0 430.67 512"><g data-name="レイヤー 2"><path d="M206.69 106.9C182 82.24 165.17 39.18 156.8 0c-8.39 39.19-25.24 82.26-49.9 106.92S39.17 148.43 0 156.82c39.19 8.37 82.25 25.24 106.9 49.9s41.53 67.72 49.91 106.9c8.38-39.19 25.24-82.26 49.89-106.92s67.72-41.52 106.89-49.9c-39.18-8.38-82.24-25.25-106.9-49.9zm160.12 197.44C352.09 289.62 342 263.88 337 240.47c-5 23.41-15.07 49.15-29.8 63.88s-40.46 24.8-63.86 29.81c23.4 5 49.13 15.08 63.86 29.81s24.8 40.46 29.8 63.86c5-23.41 15.08-49.14 29.8-63.87s40.46-24.8 63.86-29.82c-23.39-5-49.12-15.08-63.85-29.8zM105.69 354.7c-4.21 19.65-12.66 41.26-25 53.63s-34 20.82-53.61 25c19.64 4.21 41.25 12.65 53.61 25s20.83 34 25 53.62c4.21-19.66 12.66-41.26 25-53.63s34-20.82 53.6-25c-19.64-4.2-41.25-12.66-53.61-25s-20.79-33.97-24.99-53.62z" fill="#ffff4f" data-name="2"/></g></svg>