<svg xmlns="http://www.w3.org/2000/svg" viewBox="0 0 512 354.96"><g data-name="レイヤー 2"><path d="M214.2 241.46c-16.9-18.4 18.1-139.7-187.1-222.4-33.8 6.1-71.7 176.7 127.7 228.8 59.6 29.8 50.2 79.5 50.2 107.1h38.3s-15.7-87.6 54.4-119.7c47.7-21.8 179.4-28.8 214.3-225.5-66.6-38.5-303.2 36.5-297.8 231.7zm-48.4-33.2a9 9 0 0 1-12.5-2.3c-19.5-28.3-73.5-93.5-97.3-117.3a8.91 8.91 0 0 1 12.6-12.6c25.3 25.4 78.7 89.9 99.4 119.7a8.88 8.88 0 0 1-2.2 12.5zM416 63.16c-65.2 41.2-118.6 109.8-142.6 147.1A9.11 9.11 0 0 1 261 213a9 9 0 0 1-2.6-12.4c25.1-38.8 79.1-108.8 148-152.5a8.82 8.82 0 0 1 12.3 2.8 8.92 8.92 0 0 1-2.7 12.26z" fill="#8ebb25" data-name="2"/></g></svg>