<svg xmlns="http://www.w3.org/2000/svg" viewBox="0 0 512 512"><path d="M505.1 197.9c-3.5-11-13.7-18.4-25.2-18.4H327.6L281.2 35.2c-4.5-13.9-19.4-21.6-33.4-17.1-8.1 2.6-14.5 9-17.1 17.1l-46.4 144.4H32.1c-14.7 0-26.5 11.8-26.5 26.5 0 8.5 4.1 16.5 11.1 21.5l123.4 88.7-47.4 144.2c-4.6 13.9 3 28.9 16.9 33.4 8.1 2.6 17 1.3 24-3.8L256 400.4l122.5 89.8c11.8 8.6 28.4 6.1 37.1-5.8 5.1-6.9 6.5-15.8 3.8-24l-47.5-144.3 123.4-88.6c9.4-6.7 13.3-18.6 9.8-29.6z" fill="none" stroke="#eda411" stroke-width="10.758" stroke-miterlimit="10"/></svg>