<svg id="レイヤー_1" data-name="レイヤー 1" xmlns="http://www.w3.org/2000/svg" viewBox="0 0 92 86"><defs><style>.cls-5{fill:none;stroke:#fff;stroke-miterlimit:10}.cls-3{fill:#fff}.cls-4{fill:#f8f29d}.cls-5{stroke-width:.71px}</style></defs><circle cx="46.28" cy="43.46" r="40.4" fill="#8ebb25"/><circle cx="46.28" cy="43.46" r="37.5" stroke-width="1.27" fill="none" stroke="#fff" stroke-miterlimit="10"/><path class="cls-3" d="M26.37 59.54c.26 0 .57 0 .57.35s-.3.34-.57.34h-.67V64a10.22 10.22 0 0 0 1-.55.48.48 0 0 1 .25-.09.34.34 0 0 1 .33.34c0 .28-.7.63-1.18.86a9.66 9.66 0 0 1-2.43.86.34.34 0 0 1-.33-.35c0-.25.21-.31.36-.36.78-.24.9-.27 1.36-.45v-4h-.87c-.26 0-.57 0-.57-.34s.3-.35.57-.35h.87v-1.78c0-.22 0-.52.31-.52s.33.29.33.52v1.75zm3.12-2c0-.24 0-.55.32-.55s.33.3.33.55v1.76l1.16-.39a.75.75 0 0 1 .26 0c.73 0 .73.77.73 1V62c0 .74 0 1.36-1.2 1.36-.26 0-.7 0-.7-.39a.35.35 0 0 1 .37-.34h.38c.49 0 .49-.25.49-.85V60c0-.13 0-.41-.3-.41h-.1l-1.09.41v3.7c0 .24 0 .54-.32.54s-.33-.29-.33-.54v-3.5l-1.28.44v4.22c0 .33.13.44.44.44H31c.45 0 .84 0 .9-1.13 0-.3 0-.59.36-.59s.34.34.34.42a3.91 3.91 0 0 1-.24 1.34c-.26.56-1 .6-1.19.6h-2.66c-.69 0-1-.33-1-1.08v-4l-.7.23a1.09 1.09 0 0 1-.34.08.32.32 0 0 1-.31-.32c0-.23.16-.29.44-.38l.91-.31V58.5c0-.24 0-.55.33-.55s.34.3.34.55V60l1.28-.44z"/><path class="cls-4" d="M41.3 64.76c0 .3.05.48.49.48h1.41c.51 0 .56-.44.69-1.36a.32.32 0 0 1 .33-.34.32.32 0 0 1 .33.36 4.3 4.3 0 0 1-.37 1.57 1 1 0 0 1-.79.42h-1.81c-1 0-1-.62-1-.89v-3.88h-1.81a5.88 5.88 0 0 1-.45 2.88 4.06 4.06 0 0 1-2.68 2.15.34.34 0 0 1-.36-.34c0-.2.14-.26.27-.3a3.58 3.58 0 0 0 2.35-2.26 5.93 5.93 0 0 0 .21-2.09H36c-.25 0-.56 0-.56-.33s.3-.35.56-.35h7.9c.25 0 .57 0 .57.34s-.31.34-.57.34h-2.6zm1.93-7.05c.25 0 .55 0 .55.33s-.3.34-.55.34h-6.67c-.25 0-.56 0-.56-.33s.31-.34.56-.34z"/><path class="cls-3" d="M52.21 58.7h3.7c.22 0 .49 0 .49.29s-.27.29-.49.29h-8.07c-.22 0-.49 0-.49-.29s.26-.29.48-.29h3.7v-.78h-3.07c-.23 0-.52 0-.52-.3s.28-.3.52-.3h6.84c.22 0 .5 0 .5.3s-.27.3-.5.3h-3.09zm-1.65 5.82a.35.35 0 0 1 .17.3c0 .13 0 .24-.71.6a8.3 8.3 0 0 1-2 .69.33.33 0 0 1-.33-.33c0-.24.21-.29.3-.32a8.08 8.08 0 0 0 1.51-.53l.71-.41H49a.66.66 0 0 1-.67-.68v-3.26a.67.67 0 0 1 .67-.68h5.74a.66.66 0 0 1 .67.68v3.26a.66.66 0 0 1-.67.68h-1.32l.9.49a7.3 7.3 0 0 0 1.29.44c.42.11.53.13.53.36a.31.31 0 0 1-.29.32 6.77 6.77 0 0 1-2.16-.7c-.34-.18-.74-.38-.74-.62a.33.33 0 0 1 .16-.29zm4.16-3.31v-.34a.32.32 0 0 0-.37-.38h-5c-.36 0-.36.26-.36.38v.34zm-5.72.58v.76h5.71v-.76zm0 1.34v.41c0 .14 0 .4.36.4h5c.37 0 .37-.26.37-.4v-.41z"/><path class="cls-4" d="M61.72 58.61h-1.94c-.23 0-.52 0-.52-.31s.28-.31.52-.31h1.94v-.5c0-.24 0-.55.33-.55s.34.3.34.55V58h2c.24 0 .52 0 .52.31s-.28.31-.52.31h-2v.8h1.26a.79.79 0 0 1 .85.73v5.11c0 .43-.34.8-1 .8-1 0-1-.16-1-.35a.34.34 0 0 1 .35-.32h.59c.32 0 .43-.19.43-.35v-4.68a.37.37 0 0 0-.38-.33h-2.83a.35.35 0 0 0-.37.33v5.26c0 .22 0 .52-.31.52s-.31-.29-.31-.52v-5.48a.77.77 0 0 1 .83-.73h1.22zm.63 4.68h.86c.22 0 .49 0 .49.29s-.27.3-.49.3h-.86v1.52c0 .23 0 .5-.31.5s-.3-.27-.3-.5v-1.52H61c-.22 0-.49 0-.49-.29s.27-.3.49-.3h.79v-1H61c-.22 0-.5 0-.5-.3s.27-.31.5-.31h.29s-.39-1.19-.39-1.24a.3.3 0 0 1 .32-.26.23.23 0 0 1 .25.15 7.61 7.61 0 0 1 .34 1.16.24.24 0 0 1-.1.19h.75c.06-.19.31-1.06.37-1.23s.13-.25.27-.25c.32 0 .32.24.32.31a4.73 4.73 0 0 1-.42 1.21h.18c.22 0 .5 0 .5.3s-.27.31-.5.31h-.85zm3-2.77c-.26 0-.57 0-.57-.33s.31-.34.57-.34h.83v-2.43c0-.24 0-.54.31-.54s.33.29.33.54v2.43h1c.24 0 .55 0 .55.33s-.3.34-.55.34h-1c0 .19 0 .43-.07.88A14.89 14.89 0 0 0 68 65a8.81 8.81 0 0 1 .5.93.33.33 0 0 1-.34.31c-.22 0-.47-.5-.66-.86a15.17 15.17 0 0 1-1-2.64 9.66 9.66 0 0 1-1.35 3.13c-.2.28-.28.3-.37.3a.33.33 0 0 1-.32-.3c0-.08 0-.11.22-.4a10 10 0 0 0 1.49-4.91zm2.21-1.62c-.09-.28-.21-.64-.46-1.33a.68.68 0 0 1 0-.23.28.28 0 0 1 .3-.26c.16 0 .22.09.32.33a14.14 14.14 0 0 1 .61 1.85.3.3 0 0 1-.32.32c-.25 0-.28-.06-.48-.68z"/><path class="cls-5" d="M40.54 16.31v14.7m10.42-14.7v14.7M33.27 20.92h25.05v10.09H33.27zm25.85 13.14H33.13v17.71m4.98-14.22h17.18m-19.34 2.96h23.17m-19.65 1.8v9.26m19.65-6.69h-7.64"/><path class="cls-5" d="M43.42 42.31l10.17 9.27h5.53"/></svg>