<svg version="1.1" id="レイヤー_1" xmlns="http://www.w3.org/2000/svg" x="0" y="0" viewBox="0 0 3593.2 509.3" xml:space="preserve"><style>.st0{fill:#eda411}.st1{fill:none;stroke:#eda411;stroke-width:20;stroke-miterlimit:10}</style><path class="st0" d="M510.7 195.2c-3.6-11.2-14-18.8-25.8-18.8H329.2L281.8 28.8c-4.6-14.2-19.8-22.1-34.1-17.5-8.3 2.7-14.8 9.2-17.5 17.5l-47.4 147.6H27.1c-15 0-27.1 12.1-27.1 27.1 0 8.7 4.2 16.9 11.3 22l126.2 90.7L89 463.7c-4.7 14.2 3.1 29.5 17.3 34.2 8.3 2.7 17.4 1.3 24.5-3.9L256 402.2 381.3 494c12.1 8.8 29.1 6.2 37.9-6 5.1-7.1 6.6-16.1 3.9-24.4l-48.6-147.5 126.2-90.6c9.6-6.8 13.6-19.1 10-30.3zM1278.5 195.2c-3.6-11.2-14-18.8-25.8-18.8H1097l-47.4-147.6c-4.6-14.2-19.8-22.1-34.1-17.5-8.3 2.7-14.8 9.2-17.5 17.5l-47.4 147.6H794.9c-15 0-27.1 12.1-27.1 27.1 0 8.7 4.2 16.9 11.3 22l126.2 90.7-48.5 147.5c-4.7 14.2 3.1 29.5 17.3 34.2 8.3 2.7 17.4 1.3 24.5-3.9l125.2-91.8 125.3 91.8c12.1 8.8 29.1 6.2 37.9-6 5.1-7.1 6.6-16.1 3.9-24.4l-48.6-147.5 126.2-90.6c9.6-6.8 13.6-19.1 10-30.3zM2046.3 195.2c-3.6-11.2-14-18.8-25.8-18.8h-155.7l-47.4-147.6c-4.6-14.2-19.8-22.1-34.1-17.5-8.3 2.7-14.8 9.2-17.5 17.5l-47.4 147.6h-155.7c-15 0-27.1 12.1-27.1 27.1 0 8.7 4.2 16.9 11.3 22l126.2 90.7-48.5 147.5c-4.7 14.2 3.1 29.5 17.3 34.2 8.3 2.7 17.4 1.3 24.5-3.9l125.2-91.8 125.3 91.8c12.1 8.8 29.1 6.2 37.9-6 5.1-7.1 6.6-16.1 3.9-24.4l-48.6-147.5 126.2-90.6c9.6-6.8 13.6-19.1 10-30.3z"/><path class="st1" d="M2814.1 195.2c-3.6-11.2-14-18.8-25.8-18.8h-155.7l-47.4-147.6c-4.6-14.2-19.8-22.1-34.1-17.5-8.3 2.7-14.8 9.2-17.5 17.5l-47.4 147.6h-155.7c-15 0-27.1 12.1-27.1 27.1 0 8.7 4.2 16.9 11.3 22l126.2 90.7-48.5 147.5c-4.7 14.2 3.1 29.5 17.3 34.2 8.3 2.7 17.4 1.3 24.5-3.9l125.2-91.8 125.3 91.8c12.1 8.8 29.1 6.2 37.9-6 5.1-7.1 6.6-16.1 3.9-24.4l-48.6-147.5 126.2-90.6c9.6-6.8 13.7-19.1 10-30.3zM3581.9 195.2c-3.6-11.2-14-18.8-25.8-18.8h-155.7L3353 28.8c-4.6-14.2-19.8-22.1-34.1-17.5-8.3 2.7-14.8 9.2-17.5 17.5L3254 176.4h-155.7c-15 0-27.1 12.1-27.1 27.1 0 8.7 4.2 16.9 11.3 22l126.2 90.7-48.5 147.5c-4.7 14.2 3.1 29.5 17.3 34.2 8.3 2.7 17.4 1.3 24.5-3.9l125.2-91.8 125.3 91.8c12.1 8.8 29.1 6.2 37.9-6 5.1-7.1 6.6-16.1 3.9-24.4l-48.6-147.5 126.2-90.6c9.6-6.8 13.7-19.1 10-30.3z"/></svg>