<svg xmlns="http://www.w3.org/2000/svg" viewBox="0 0 504.43 167.18"><defs><style>.cls-3,.cls-4{stroke:#333;fill:none;stroke-miterlimit:10;stroke-width:1.84px}.cls-4{fill:#9cc556}.cls-26{letter-spacing:.05em}</style></defs><g id="レイヤー_2" data-name="レイヤー 2"><g id="レイヤー_1-2" data-name="レイヤー 1"><path d="M446.59 1H170.38a56.84 56.84 0 0 0-56.84 56.84h0a56.65 56.65 0 0 0 17.48 41c-.29 1-4.73 16.72-14.14 17.55 0 0 10.89 1.78 25.42-8.8h0c8.64 5.3 17.2 7.11 28.08 7.11h276.21a56.84 56.84 0 0 0 56.84-56.85h0A56.84 56.84 0 0 0 446.59 1z" stroke-linejoin="round" stroke="#333" fill="#fff" stroke-width="2"/><path d="M44.67 149.19a2.26 2.26 0 0 1-.43-2.27" stroke-width="1.23" stroke-linecap="round" fill="none" stroke-linejoin="round" stroke="#333"/><path class="cls-3" d="M71.01 146.04l.98 13.47"/><rect class="cls-4" x="72.97" y="156.63" width="6.38" height="12.69" rx="1" transform="rotate(-88.98 76.162 162.972)"/><path class="cls-3" d="M33.72 144.69l-.99 16.46"/><rect class="cls-4" x="25.42" y="156.47" width="6.38" height="12.69" rx="1" transform="rotate(-88.98 28.608 162.815)"/><path class="cls-3" d="M84.94 89.92s15.29 24.16 14 41.79"/><rect class="cls-4" x="96" y="131.64" width="6.54" height="12.89" rx="1" transform="rotate(-2.11 99.307 138.175)"/><rect class="cls-4" x="1" y="130.39" width="6.54" height="12.89" rx="1" transform="rotate(-.89 4.09 136.517)"/><path class="cls-3" d="M16.34 98.39s-12.69 11.37-11.85 32"/><path d="M73.68 144.13a39.12 39.12 0 0 1-29.12 5.15h0c10.65-5.93 12-36 12-36C54.89 125.8 37.21 147 37.21 147a38.66 38.66 0 0 1-9.85-6.09 39.3 39.3 0 1 1 46.31 3.3z" fill="#de6a7c" stroke-width="1.84" stroke-linejoin="round" stroke="#333"/><path d="M56.57 113.23C55.14 124 42 141 38.22 145.69a25.21 25.21 0 0 0 7.78 2.56c9.33-7.7 10.57-35.02 10.57-35.02z" fill="#a53752" stroke-miterlimit="10" stroke-width="1.23" stroke="#333"/><path d="M59.91 80.28l6.86 4.16a.56.56 0 0 0 .65-.06l6.07-5.23a.55.55 0 0 1 .78 0 .55.55 0 0 1 .12.49l-1.84 7.86a.55.55 0 0 0 .26.6l6.85 4.15a.55.55 0 0 1 .15.76.56.56 0 0 1-.39.24l-8 .67a.56.56 0 0 0-.49.43l-1.82 7.83a.54.54 0 0 1-.7.33.53.53 0 0 1-.3-.25L65 94.87a.55.55 0 0 0-.55-.34l-8 .67a.55.55 0 0 1-.65-.43.56.56 0 0 1 .2-.57l6.11-5.2a.57.57 0 0 0 .15-.64L59.11 81a.57.57 0 0 1 .32-.73.58.58 0 0 1 .48.01z" stroke-width=".98" fill="#689d38" stroke-miterlimit="10" stroke="#333"/><circle cx="67.67" cy="90.16" r="2.75" fill="#c1e099" stroke-width=".98" stroke-miterlimit="10" stroke="#333"/><path stroke-width=".98" stroke-miterlimit="10" fill="none" stroke="#333" d="M37.22 146.92l1.8-.84"/><g style="isolation:isolate" font-size="20" fill="#333" font-family="HiraginoUDSansRStd-W6-83pv-RKSJ-H,Hiragino UD Sans Rd Std"><text transform="translate(155.11 49.23)" style="isolation:isolate" letter-spacing=".07em">農<tspan x="21.39" y="0" letter-spacing=".03em">家</tspan><tspan x="41.95" y="0" letter-spacing=".04em">は</tspan><tspan x="62.74" y="0" letter-spacing="-.03em">多</tspan><tspan x="82.16" y="0" letter-spacing="-.1em">く</tspan><tspan x="100.24" y="0" letter-spacing=".05em">の</tspan><tspan x="121.21" y="0" letter-spacing=".05em">野</tspan><tspan x="142.29" y="0" letter-spacing=".04em">菜</tspan><tspan x="163.07" y="0" letter-spacing=".01em">を</tspan><tspan x="183.24" y="0" letter-spacing=".06em">出</tspan><tspan x="204.46" y="0" letter-spacing="-.02em">荷</tspan><tspan x="224.11" y="0" letter-spacing="-.04em">し</tspan><tspan x="243.3" y="0" letter-spacing="-.02em">た</tspan><tspan x="262.9" y="0" letter-spacing="-.05em">と</tspan><tspan x="281.99" y="0" letter-spacing="-.02em">い</tspan><tspan class="cls-26" x="301.62" y="0">う</tspan></text><text transform="translate(155.11 85.23)" style="isolation:isolate" letter-spacing=".08em">実<tspan x="21.51" y="0" letter-spacing=".03em">績</tspan><tspan x="42.04" y="0" letter-spacing="-.04em">を</tspan><tspan x="61.29" y="0" letter-spacing="-.02em">ア</tspan><tspan x="80.84" y="0" letter-spacing="-.08em">ピ</tspan><tspan x="99.15" y="0" letter-spacing="-.03em">ー</tspan><tspan x="118.54" y="0" letter-spacing="-.06em">ル</tspan><tspan x="137.31" y="0" letter-spacing="0">で</tspan><tspan x="157.3" y="0" letter-spacing="-.02em">き</tspan><tspan x="176.84" y="0" letter-spacing="0">ま</tspan><tspan x="196.87" y="0" letter-spacing="-.09em">す</tspan><tspan class="cls-26" x="215.07" y="0">。</tspan></text></g></g></g></svg>