<svg version="1.1" id="レイヤー_1" xmlns="http://www.w3.org/2000/svg" x="0" y="0" viewBox="0 0 314.9 228.5" xml:space="preserve"><style>.st0{fill:#fff}.st1{fill:#eda411}.st2{fill:#9cc556}.st8{fill:none;stroke:#fff;stroke-width:.89;stroke-miterlimit:10}</style><g id="レイヤー_1-2"><path class="st0" d="M23.8 192.6c-.3 0-.9-.1-1.2-.1-1.2 0-2.1-1.1-2.1-2.6v-8.2c0-1.8 4.1-2.1 5.4-2.2h1.2c3.4 0 4.2.6 4.3 1.4.1.6.3 1.8.4 2.8 0 0 .2 5.2-.6 6.1l-.3.3h-.3v.1c0 1.2-1.4 2.1-3.5 2.1-1.3.1-3 .2-3 .2l-.3.1z"/><path class="st0" d="M22.5 191.5c-.6 0-1.1-.7-1.1-1.6v-8.2c0-.5 2-1.1 4.4-1.2s4.4.1 4.5.6.3 1.7.4 2.7 0 5.4-.4 5.4-.8.5-.8 1.1-1.1 1.1-2.5 1.1l-3.1.2h-.1s-.8-.1-1.3-.1zm83 2.2c-2 0-3.2-.4-3.7-1.2-.3-.5-.3-1-.1-1.5l.1-.1c.5-1 2-3.6 3.4-6 0 0 1.3-2.2 2-3.4l.1-.1c.1-.2.2-.3.3-.4.1-.2.3-.5.5-.9.3-.5.8-.7 1.4-.7 1.5.2 3 .7 4.3 1.5 3.8 2.2 4.3 3.2 3.9 4.1l-.1.3c-.2.5-.5 1.2-.7 1.7s-1.8 3.5-2.2 4.2c-.8 1.4-4.8 2-6.5 2.2l-1.3.1c-.4.2-.9.2-1.4.2z"/><path class="st0" d="M102.6 191.5c.5-.9 2-3.6 3.4-6l2-3.4.1-.2c.1-.1.1-.2.2-.3 0 0 .2-.4.5-.9s2.2 0 4.3 1.2 3.7 2.4 3.5 2.9-.5 1.3-.8 1.9-1.8 3.5-2.2 4.2-2.9 1.4-5.7 1.7l-1.3.1c-2.6.2-4.4-.3-4-1.2zm144.4 2.6c-1.7 0-2.4-.2-2.8-.9-.1-.2-.2-.6-.5-1.3s-.4-1.3-.7-2-.8-2.5-1.2-3.9c-.2-.8-.5-1.6-.5-1.8-.1-.3-.1-.7.1-1 .6-1.2 3.6-2.2 4.8-2.5 1.3-.4 2.7-.6 4.1-.7.7-.1 1.5.2 1.9.8.2.5.9 2.1 1.3 3.4.7 1.9 2.1 5.8 2.4 6.3.2.4.2.8 0 1.2-.7 1.4-4.3 2-5.3 2.2h-.2c-1.3.1-2.5.2-3.4.2z"/><path class="st0" d="M245.1 192.8c-.2-.4-.6-1.9-1.1-3.2s-1.6-5.2-1.8-5.7 1.7-1.5 4.2-2.2 4.6-.8 4.8-.4.8 1.9 1.3 3.3 2.1 5.8 2.4 6.4-1.8 1.5-4.6 1.9h-.1c-2.6.3-4.9.3-5.1-.1zM73.5 227.7c-.4 0-.7-.1-1-.3-.2-.1-.4-.4-.8-.7-.6-.5-1.4-1.2-2.2-1.8-.9-.8-1.8-1.7-2.6-2.7-3.5-4.1-4.9-7.2-4.9-10.2 0-2.8.8-5.8 4.8-12.3.3-.6.7-1.1 1.1-1.6.1-.2.2-.4.2-.6-.2-.1-.3-.1-.5-.1h-.2l-14.9 1.2h-.7c-1.3.1-2.7.2-3.2.2h-.2c-1.8 0-2.1-2.9-2.1-3.8l-.2-3.2c0-.6-.1-2.8.7-3.7.3-.3.6-.4 1-.4.2 0 .9-.1 1.6-.2l2.2-.3 29.9-2.4c.6 0 1.2-.1 1.8-.1 1.2-.1 2.3-.1 3-.2h.3c.7 0 1.3.3 1.6.9.4.9.3 1.9-.3 2.6-.4.7-1 1.6-1.7 2.6l-1.2 1.9c-.1.1-4.9 7.5-5.8 9-3.6 5.8-5.1 8.5-5.2 10.2 1 1.7 2.1 3.2 3.4 4.7 1 1.2 2.2 2.6 2.5 2.9.3.3.4.7.4 1.1 0 1.1-1 2.3-1.8 3.1l-2 2c-.7 1.1-1.9 2.2-3 2.2z"/><path class="st0" d="M73.1 226.6c-.4-.3-1.7-1.5-3-2.5-.9-.8-1.7-1.7-2.4-2.6-3.2-3.8-4.7-6.7-4.7-9.6 0-2.6.8-5.5 4.7-11.8.3-.5.6-1 1-1.5.9-1.4.3-2.3-1.3-2.2l-14.9 1.2c-1.6.1-3.4.2-4 .3s-1.1-1.3-1.2-2.9l-.2-3.2c-.1-1.6.2-3.1.7-3.1s2.2-.3 3.9-.5l29.9-2.4c1.6-.1 3.8-.2 4.9-.3s1.3.8.6 1.9-2 3.1-2.9 4.5c0 0-4.9 7.5-5.8 9.1-3.7 5.9-5.3 8.7-5.3 10.8 0 .9 3.6 5.3 3.6 5.3 1.1 1.3 2.2 2.6 2.6 3s-.2 1.7-1.4 2.8l-2.1 2.1c-1 1.3-2.3 2-2.7 1.6zm40.1-.8c-1.7 0-3.3-.3-4.9-.8-2.9-1.2-4.8-4.1-4.8-7.2 0-6.6 8.9-10.1 9.2-10.2 2.5-.9 4.1-2.6 4.2-3.3.1-.9.1-3.5.1-5.5 0-.9.6-1.7 1.5-2 .5-.1 3.1-.6 5.7-1 1.4-.6 3-.9 4.5-1 1.1-.1 2.2-.1 3.1-.2.6-.1 1.2-.1 1.8-.1 1.7 0 2.2 3.1 2.4 4.9.5 5-.7 5.3-1.2 5.4-.2 0-.5.1-.7.2-.8.2-1.5.4-2.3.5-1.3.3-2.5.8-3.7 1.5.4 1.3 1.1 2.5 2.1 3.5 1.7 1.3 5 6.8 5.2 7.2s.7 1.4-3.3 4.4c-1.2 1-2.6 1.7-4.2 1.9-.4 0-.8-.1-1.1-.4-.3-.3-.5-.6-.7-.9-.2-.3-.4-.6-.7-.8-1.4.5-2.8 1.1-4.1 1.8-1.1.5-2.1 1-2.9 1.3-1.7.5-3.4.8-5.2.8z"/><path class="st0" d="M117.8 224c-3 1.1-6.2 1.1-9.2.1-2.5-1.1-4.2-3.5-4.2-6.3 0-6 8.6-9.3 8.6-9.3 2.6-1 4.7-2.9 4.8-4.2s.1-5.2.1-5.6c0-.4.3-.8.7-1 .4-.1 3-.6 5.7-1 1.4-.5 2.8-.9 4.3-1 2.1-.1 4.2-.3 4.8-.3s1.2 1.8 1.4 4 .1 4.2-.4 4.3-1.8.5-3 .7-4.6 1.5-4.6 2.2c.3 1.8 1.3 3.4 2.6 4.6 1.5 1.1 4.7 6.4 4.9 6.8s-1.2 1.8-3 3.2-3.6 2-4 1.6-1-1.3-1.6-1.9-5.4 2.1-7.9 3.1zm28.3 2.2c-.8 0-1.5-.4-1.9-1.1-.3-.7-1-3.5-1.6-6.1-.2-.7-4-18.2-4-25.6v-3.7l.1-.8c.1-1.3.2-2.4.3-3 .3-1.7 3.6-1.9 5.5-1.9 5.4 0 5.4 1.5 5.4 2v1.1c0 1.2.1 3 .1 4.9 0 0 .2 5.9.6 10.3.1 1.5.3 3.1.6 4.6.4 2.2 1.3 3.1 1.6 3.1 1.3-.6 4-1.8 4.5-2l.2-.1h.3c1.6 0 3 3.1 3.4 4 1.5 3.4 1.7 4.7.8 5.4-.3.2-1.1.7-2.6 1.7-.7.5-1.5 1-2.3 1.5l-4.5 2.6c-1 .6-2 1.1-2.9 1.6-1.5.8-2.2 1.2-2.5 1.4-.5 0-.8.1-1.1.1z"/><path class="st0" d="M145.1 224.6c-.2-.5-.9-3.2-1.5-5.9 0 0-4-18-4-25.4v-3.7c.1-1.4.2-3 .3-3.6s2-1.1 4.5-1.1 4.4.4 4.4 1 .1 3.2.1 6c0 0 .2 5.9.6 10.4.1 1.6.3 3.1.6 4.7.5 2.7 1.9 4.4 3.1 3.8s3.9-1.8 4.4-2 1.7 1.3 2.6 3.4 1.5 3.9 1.1 4.2-2.6 1.7-4.9 3.2l-4.5 2.6c-2.4 1.3-4.8 2.7-5.3 2.9-.5.3-1.2 0-1.5-.5zm55.8 2.3c-.4 0-1.7 0-2.1-.9-.1-.3-.3-.9-.5-1.6-.2-.5-.3-1.1-.5-1.6-.4-1.3-3.9-13.6-4.1-14.6 0-.2-.4-.3-.8-.3-.5 0-1 .1-1.4.4-.8.4-1.8 1-2.8 1.5-.7.3-1.4.7-2 1.1-.2.2-.4.2-.7.2-1.3 0-2.9-2.5-3.8-3.9-1-1.8-2.5-4.8-.9-5.8.2-.1.5-.3.9-.5.9-.5 2.2-1.3 3.5-2.1 1.7-1 3.3-2.2 4.8-3.6-.1-.7-.5-2.1-.8-3.4l-.3-1.2c-.5-2.2-1.4-6.4-1.4-6.4-.2-1.2 1.4-2.3 4.9-3.2 1.2-.4 2.4-.6 3.7-.6.5 0 1.9 0 2.1 1.1.1.4 1 3.3 1.7 5.6 0 .1.4 1.3 1.1 3.9v.1h.5c1.2 0 2.4-.2 3.5-.6 2.2-.5 4.4-.8 6.7-.8 8 0 14 5.2 14 12.2 0 5.8-6.4 11.5-6.6 11.7-1.5 1.4-3.1 2.6-4.7 3.8l-.2.1h-.3c-1.2 0-3.2-2-4.2-3.3-.4-.4-3.4-3.9-2-5.4.2-.2.6-.5 1.1-1 .9-.8 2.2-1.9 3.4-3.1.8-.7 1.3-1.7 1.4-2.8 0-.5-1.3-.9-2.6-.9-1 0-2 .2-3 .4-1.1.3-2 1-2.5 1.9-.5.9-.7 1.9-.4 2.9l2.6 10.8c.4 1.7.8 3.4 1.1 4.5.1.4.2.9.3 1.3.1.5.3 1.8-4.8 3.3-1.2.5-2.5.8-3.9.8z"/><path class="st0" d="M199.7 225.6c-.2-.5-.6-1.9-1-3.1s-3.8-13.4-4.1-14.5-2-1.4-3.6-.5-4.5 2.3-4.9 2.6-1.8-1.3-3-3.4-1.8-4.1-1.3-4.4 2.4-1.4 4.4-2.6 5.4-3.7 5.3-4.4-.7-3-1.2-5-1.3-5.9-1.4-6.4 1.8-1.4 4.2-2 4.5-.7 4.6-.2.9 3.1 1.7 5.7c0 0 .4 1.2 1.1 3.8l.1.5c.2.6 2.5.5 5.1-.2 2.1-.5 4.2-.8 6.4-.8 7.4 0 13 4.8 13 11.2 0 5.4-6.3 11-6.3 11-2.1 1.8-4.1 3.5-4.5 3.7s-2-1.1-3.6-2.9-2.4-3.6-2-4 2.5-2.2 4.5-4.1c1-.9 1.6-2.2 1.7-3.5 0-1.5-2.3-1.9-3.6-1.9-1.1 0-2.2.2-3.2.4-2.6.6-4.3 3.3-3.6 5.9v.1l2.6 10.8c.6 2.7 1.3 5.3 1.4 5.8s-1.7 1.4-4.1 2.1-4.5.8-4.7.3zm82.2.6c-.9.1-1.6-.5-1.9-1.3-.2-.6-.9-3.4-1.5-6-.2-.7-4-18.2-4-25.6v-3.7l.1-.8c.1-1.2.2-2.4.3-3 .3-1.7 3.6-1.9 5.5-1.9 5.4 0 5.4 1.5 5.4 2v1.1c0 1.2.1 3 .1 4.9 0 0 .2 5.8.6 10.3.1 1.5.3 3.1.6 4.6.4 2.2 1.3 3.1 1.6 3.1 1.3-.6 4-1.8 4.5-2l.2-.1h.3c1.6 0 3 3.1 3.4 4 1.5 3.4 1.7 4.7.8 5.4-.3.2-1.1.7-2.6 1.7-.7.5-1.5 1-2.3 1.5l-4.5 2.6c-1 .6-2 1.1-2.9 1.6-1.5.8-2.2 1.2-2.5 1.4-.4.1-.8.2-1.2.2z"/><path class="st0" d="M280.9 224.6c-.2-.5-.9-3.2-1.5-5.9 0 0-4-18-4-25.4v-3.7c.1-1.4.2-3 .3-3.6s2-1.1 4.5-1.1 4.4.4 4.4 1 .1 3.2.1 6c0 0 .2 5.8.6 10.4.1 1.6.3 3.1.6 4.7.5 2.7 1.9 4.4 3.1 3.8s3.9-1.8 4.4-2 1.7 1.3 2.6 3.4 1.5 3.9 1.1 4.2-2.6 1.7-4.9 3.2l-4.5 2.6c-2.4 1.3-4.8 2.7-5.3 2.9-.5.3-1.2.1-1.5-.5zM25 228.5c-1-.1-2.1-.3-3-.8l-2.3-1.1c-1-.5-3.4-1.8-2.8-3.4l.6-1.2c.3-.7.7-1.5 1-2.3.3-.8.4-1.6.3-2.4h-1.5c-5.3 0-9.6-4.8-9.6-10.7 0-7 5.4-12.4 12.7-12.7 0-1.1.7-2 1.8-2.1.7-.1 1.3-.1 2-.1s1.3 0 2-.1l1.8-.1h.5c.5 0 2.3.1 3.1 1 .3.3.4.8.3 1.2-.1.4-.1 1.5-.2 2.5l-.1.9c-.1 2 0 4.1.5 6.1.6 1.8.9 3.8.9 5.7 0 8.1-4.4 15.4-4.5 15.7-.6 1.2-1.3 2.3-2.1 3.4-.4.4-.9.6-1.4.5z"/><path class="st0" d="M20.1 225.7c-1.5-.7-2.5-1.6-2.3-2.1s1-2.1 1.6-3.5.7-4.3-.8-3.8h-1.4c-4.7 0-8.6-4.4-8.6-9.7 0-6.7 5.3-11.7 12.3-11.7h.1c.1 0 .3-.4.3-1s.4-1.1 1-1.1c.6-.1 2.3-.1 3.9-.2l1.8-.1c1.6-.1 3 .4 2.9 1s-.2 2.2-.3 3.5c-.1 2.2.1 4.4.6 6.5.5 1.7.8 3.5.8 5.3 0 7.9-4.4 15.2-4.4 15.2-.8 1.4-1.7 2.9-2 3.3s-1.7.2-3.2-.5l-2.3-1.1zm-.7-20.6c.3-.5-.1-.4-.9.4v.8c.4-.4.7-.8.9-1.2zm79.4 11.7c-1.5-.2-3-.8-4.3-1.6-1-.5-3.4-1.9-3.8-3.2-.1-.4-.1-.8.1-1.1.3-.6.6-1.1.9-1.7.5-1 1.2-2.3 1.9-3.5.1-.3.5-1 1.3-2.5 1.5-2.7 2.1-3.9 2.1-3.9l.5-.9c.9-1.7 2-3.6 2.1-3.9.2-.5.4-1.1 6.1-1.6l1.6-.1h1.2c2.1 0 3.4.4 3.8 1.2.3.5.3 1 0 1.5-.5 1-2 3.6-3.3 6l-5.7 9.6c-1.5 2.4-2.9 4.5-3.2 5-.2.5-.7.8-1.3.7z"/><path class="st0" d="M95 214.3c-2.1-1.1-3.6-2.4-3.3-2.9s1.5-2.9 2.8-5.3c.4-.9.8-1.7 1.3-2.5 1.5-2.7 2.1-3.9 2.1-3.9 1.3-2.4 2.5-4.6 2.6-4.9s2.5-.7 5.2-.9l1.6-.1c2.7-.2 4.6.3 4.1 1.2s-2 3.6-3.3 6l-5.7 9.6c-1.5 2.3-2.9 4.5-3.2 5s-2.2-.2-4.2-1.3zm152.2 12.4c-3.3.1-6.5-.6-9.5-2-3.5-1.9-5.8-5.3-5.8-8.8 0-6.4 5-11.5 14.8-15-.1-.3-.3-.7-.4-1.1-.3-.7-.6-1.5-.9-2.4-.6-1.5.1-3.2 1.6-3.8.2-.1.4-.2.7-.2l6-.9c1.4-.2 2.8.6 3.2 2l.7 2.1c1.4 4.2 2 6 2.8 9.3.4 1.5-.5 3.1-2 3.6l-.3.1c-3.2.7-6.4 1.8-9.4 3.1-.3.1-.6.3-.9.5-.5.2-.7.8-.5 1.3.2.4.6.6 1 .6 3.6-.2 7.1-.8 10.5-1.7 1.6-.4 3.3.5 3.7 2.1l1.2 4.7c.4 1.5-.4 3-1.9 3.5-4.6 1.9-9.6 2.9-14.6 3z"/><path class="st0" d="M247.2 225.7c-3.1.1-6.3-.6-9.1-1.9-3-1.5-5-4.5-5.2-7.9 0-5.8 4.5-10.4 13.3-13.7 1-.4 1.5-1.6 1.1-2.6 0-.1-.1-.1-.1-.2-.3-.7-.6-1.5-.9-2.3-.4-1 .1-2.2 1.1-2.6.1 0 .2-.1.4-.1l6-.9c.9-.1 1.8.4 2.2 1.3l.7 2.1c1.4 4.2 2 6 2.8 9.2.3 1-.3 2.1-1.4 2.4l-.3.1c-3.3.7-6.5 1.8-9.6 3.2-4.4 2.1-4.5 3.4-4.6 3.5 0 0 .8.8 4.6.8 3.6-.2 7.3-.8 10.8-1.7h.1c1.1-.3 2.2.3 2.5 1.3v.1l1.2 4.7c.3 1-.3 2-1.2 2.3-4.6 1.8-9.4 2.8-14.4 2.9zm-40.5-31.6c-1.8 0-3.5-.3-5.2-1-.5-.2-1.6-1.2-1.6-4.6 0-3.1 1.2-4 1.5-4.2 2.6-1.2 4.6-2.2 4.6-2.2l.4-.2.4.1s2.2.8 4.7 1.8c.5.2 1.6 1 1.6 4.7s-1.2 4.4-1.6 4.6c-1.5.7-3.1 1.1-4.8 1z"/><path class="st0" d="M211.1 192.3c-3 1.1-6.3 1.1-9.2-.1 0 0-1-.5-1-3.7 0-2.7 1-3.3 1-3.3 2.5-1.2 4.5-2.2 4.5-2.2s2.2.8 4.7 1.8c0 0 1 .4 1 3.8.1 3.2-1 3.7-1 3.7zm-209 5.9c-1.6 0-2-2.8-2.1-5.1-.1-1.5 0-4.9 1.6-5.2.3-.1 1-.1 2.3-.3 1-.1 2.3-.2 3.6-.4 2.7-.3 15.3-.9 15.9-.9.1 0 1.4 0 3-.1s3.9-.1 5.1-.1c.7 0 4.3 0 7-.1H42c1.8 0 2 3.7 2 5.3 0 3.5-.6 5.3-1.9 5.3-.5 0-.9 0-1.4.1-1.1.1-2.1.2-3.2.2-2.1.1-7.1.3-7.6.3s-2 .1-3.8.1h-1.2l-1.4.1c-6.9.4-15.4.5-15.5.5-1.9.3-3.9.4-5.9.3z"/><path class="st0" d="M2.1 197.2c-.5 0-1-1.8-1.1-4.1s.3-4.1.8-4.2 3.1-.3 5.8-.6 15.8-.9 15.8-.9 1.4 0 3-.1 3.8-.1 5-.1 10-.1 10.5-.1 1 1.9 1 4.3-.4 4.3-.9 4.3-2.6.2-4.7.3-7.1.3-7.6.3-2.7.1-5 .2l-1.4.1c-6.9.4-15.4.5-15.4.5-2.6.1-5.2.1-5.8.1zm90.8 2.7c-1.8 0-2.3-3.3-2.3-5.1 0-4.7.9-5.1 1.3-5.3.8-.2 1.6-.5 2.4-.6l.8-.1c1.2-.2 10.7-1.2 12.8-1.3 1.1-.1 2.6-.2 3.9-.3 1.1-.1 2.1-.2 3-.2 1.7-.1 6.5-.3 7.2-.3 1.6 0 2.1 2.8 2.2 5.2.1 1.2.1 4-.8 4.9-.2.3-.6.4-.9.4-.2 0-.8.1-1.4.2-.8.1-1.9.3-2.9.4l-12.2 1.3c-2 .2-5.2.4-6.2.5-1.6.1-6.2.3-6.9.3z"/><path class="st0" d="M91.6 194.8c0-2.3.3-4.2.7-4.4 1-.3 1.9-.5 2.9-.6 1.1-.2 10.6-1.2 12.7-1.3s5.1-.4 6.9-.5 6.5-.3 7.1-.3 1.1 1.9 1.2 4.2-.2 4.3-.7 4.3-2.5.4-4.4.6l-12.2 1.3c-1.8.2-4.7.4-6.2.5s-6.1.3-6.7.3-1.3-1.8-1.3-4.1zm139.4 7.1c-.5 0-1.7 0-2.5-5-.1-.8-.6-3.7.4-4.9.2-.3.6-.6 1-.6.3 0 .9-.2 1.5-.3s1.2-.3 1.8-.4l1.5-.3c5-.9 5.1-.9 5.2-.9s1-.2 1.8-.4l1.1-.2c1.5-.3 5-.8 6.6-1 .6-.1 1.4-.2 2.2-.3 1.2-.2 2.3-.3 3.1-.4 1.2-.1 3.3-.4 4.3-.6s5.4-.7 6.1-.7c1.6 0 2.4 3.4 2.7 4.8.3 1.6.8 5.2-1 5.6-.3 0-.6.1-.9.2-.7.2-1.7.4-2.7.6-1.5.3-9.7 1.7-11.4 1.9s-4.4.7-4.9.8l-1.2.2c-.4.1-.8.1-1.1.2-.3.1-.6.1-.9.1-2.9.5-5.2.7-7.1 1-1 .1-1.8.2-2.5.3l-.7.1c-.3 0-.6.1-1 .1s-.8.1-1.1.2h-.1l-.2-.1z"/><path class="st0" d="M229.4 196.7c-.4-2.3-.2-4.3.5-4.4s2.2-.5 3.3-.7 6.4-1.2 6.6-1.2 1.6-.3 3.1-.6 4.9-.8 6.5-1 4-.6 5.2-.7 3.2-.4 4.4-.6 5.4-.7 5.9-.7 1.3 1.8 1.7 4 .3 4.3-.2 4.4-2.1.5-3.6.8-9.7 1.7-11.3 1.9-3.9.6-5 .8l-1.2.2c-.8.1-1.6.3-1.9.3-4.5.7-7.5 1-9.6 1.3l-.7.1c-.6.1-1.6.2-2.1.3s-1.2-1.9-1.6-4.2zm-55.2 25.2c-.5 0-1 0-1.5-.1-1.1 0-5-.4-5-2.2v-9.5c-.2-4.1-.7-8.2-1.5-12.3l-.4-2.4c-.1-.2-.1-.5-.2-.8-.2-.7-.4-1.4-.5-1.9-.2-1.7 2.4-2.7 4.7-3.3 1.2-.3 2.4-.5 3.7-.5.5 0 1.7 0 2.1.9.1.4.4 1.3 1 3.2.2.8.5 1.7.8 2.6 1.2 4.7 1.9 9.5 1.8 14.4 0 1.5 0 3.1-.2 4.6-.3 2.3-.8 5.3-.9 5.9-.1.3-.3 1.4-3.9 1.4z"/><path class="st0" d="M172.8 220.8c-2.3-.1-4.1-.7-4.1-1.2v-9.5c-.2-4.2-.7-8.4-1.5-12.5l-.4-2.4c-.2-.8-.6-2-.7-2.7s1.6-1.6 4-2.2 4.4-.7 4.6-.2.9 3 1.7 5.7c1.2 4.6 1.8 9.3 1.8 14.1 0 1.5 0 3-.2 4.5-.4 2.7-.8 5.3-.9 5.8s-2 .8-4.3.6zm136.9 1.1c-.4 0-.9 0-1.3-.1-1.1 0-5-.4-5-2.2v-9.5c-.2-4.1-.7-8.2-1.5-12.3l-.4-2.5c-.1-.2-.1-.5-.2-.8-.2-.7-.4-1.4-.5-1.9-.2-1.7 2.4-2.7 4.7-3.3 1.2-.4 2.4-.6 3.7-.6.5 0 1.7 0 2.1 1 .1.4.4 1.3 1 3.2.2.8.5 1.7.8 2.6 1.2 4.7 1.9 9.5 1.8 14.4 0 1.5 0 3.1-.2 4.6-.4 2.5-.8 5.3-.9 5.9-.2 1.2-2.3 1.5-4.1 1.5z"/><path class="st0" d="M308.5 220.8c-2.3-.1-4.1-.7-4.1-1.2v-9.5c-.2-4.2-.7-8.4-1.5-12.5l-.4-2.5c-.2-.8-.6-2-.7-2.7s1.6-1.6 4-2.2 4.4-.7 4.6-.2.9 3 1.7 5.7c1.2 4.6 1.8 9.3 1.8 14.1 0 1.5 0 3-.2 4.5-.4 2.7-.8 5.3-.9 5.8s-2 .9-4.3.7z"/><path class="st1" d="M49.4 193.2c0-1.6 1.2-2.9 2.8-3l29.6-2.3c1.6-.1 2.3.9 1.4 2.3l-4.7 7.4c-.9 1.4-2.3 3.7-3.2 5.1 0 0-4 6.6-4 9.2s4 6.8 4 6.8c1.1 1.1 1.2 2.8.3 4-1 1-2.4 1.3-3.2.7-1.7-1.7-3.3-3.6-4.7-5.6 0 0-2.5-3.5-2.5-5.8s3-8 3-8c.8-1.5 2-3.6 2.7-4.7s2.6-5.4.9-5.3l-19.2 1.7c-1.8.1-3.2-1-3.2-2.5zm-23.3 1.4c-1.5.1-2.8.5-2.8 1s-.6 1.5-1.1 1.2H21c-6.3 0-10.3 4.6-10.3 9.7 0 4.4 3.1 7.7 6.6 7.7 1.1.1 2.3-.2 3.3-.7 1.1-.6 2-1.4 2.9-2.3.2-.4.7-.6.7 0-.2 1.5-.5 2.9-.9 4.3l-2.1 5.2c-.6 1.5-.1 3.2 1.1 3.7 1.5.4 3-.3 3.7-1.6 0 0 4.1-6.8 4.1-14.1 0-1.7-.2-3.3-.8-4.9-.6-1.5-1.1-3.4-.9-4.2s-.7-5.1-2.3-5zm-7.8 13.8c-.1 0-1.8 0-1.8-2.2.1-2.3 1.9-4.1 4.1-4.2h1c.4.4.3 2.1-.3 3.6 0 0-1.1 2.8-3 2.8z"/><path class="st0" d="M113.5 221.1c-1.9.1-3.5-1.4-3.6-3.4 0-3.2 4-5.4 7.6-5.4.5 0 1 0 1.4.2l1.7.6-.4 1.8c-.5 2.5-2.8 6.2-6.7 6.2z"/><path class="st1" d="M29.3 189.2c-.2 0-.4-1.3-.5-2.9s-1.5-3.9-2.9-3.9-2.5.9-2.5 1.9v5.1l3-.2c1 .1 2 .1 2.9 0zM114 186c.3-.6-.5-1.6-1.7-2.2s-2.2-1.1-2.3-.9-.9 1.6-1.8 3l-1.4 2.3c-.8 1.4-.2 2.5 1.5 2.3h.5c1.7-.2 4.9-3.9 5.2-4.5zm136.8-.7c-.6-1.4-2.1-2.2-3.6-1.8-1.5.4-2.3 2-1.9 3.4 0 .1 0 .1.1.2l.4 1.4c.5 1.6 2.2 2.7 3.9 2.4h.1c1.6-.3 1.6-4.2 1-5.6zm-120.4 34.3c-1.2.7-2.7.5-3.6-.5-.9-1-4-1.7-4.6-.2-1.7 3.3-5.1 5.3-8.8 5.1-3.6 0-6.8-2.3-6.8-6.1 0-5.3 5.6-9.1 11.6-9.1h.7c.4.1.9-1.2 1-2.9 0 0 .2-1.9.2-3.5.1-1.7 1.3-3.1 3-3.3l6.8-1.2c1.6-.1 3.1.8 3.2 2s-1.1 2.5-2.7 2.9l-2.4.5c-1.5.2-2.7 1.4-2.9 2.9 0 1.3 1 5 2.4 5.9l2.9 4c.9.9.8 2.5 0 3.5zm13.8-32.6c1.5.2 2.6 1.5 2.5 3l.5 9.6c.1 1.6.4 4.3.6 6l1.1 6.5c.2 1.2 1.3 2 2.5 1.8.3 0 .6-.2.8-.3l2.3-1.1c1.5-.7 3.2-.3 3.7.8.4 1.4-.2 3-1.5 3.7l-7.6 4.4c-1 .7-2.3.4-3-.6-.2-.3-.3-.6-.3-.9 0 0-4.3-19.1-4.3-26.6v-3.9c.3-1.3 1.4-2.3 2.7-2.4zm68 25.6c-.9-1.2-.6-2.9.6-3.8h.1s3.8-3.3 3.8-6.6c0-2.6-2.6-3.9-5.6-3.9-2.3 0-7.5 1.5-7.5 1.5-1 .2-1.9.6-2.8 1 0 .1.4 1.7.8 3.2l3.9 15.9c.4 1.5-.3 3-1.7 3.6-1.4.3-2.8-.5-3.2-1.9-.4-1.4-5.2-18.4-5.2-18.4-.9.3-1.8.8-2.7 1.3l-4.1 2.1c-1.3.8-3 .5-3.9-.8-.7-1.2 0-2.9 1.4-3.7l5.2-3c1.6-.8 2.3-2.6 1.9-4.3 0 0-1.9-7.8-2.1-8.7s.8-1.9 2.1-2.2c1.5-.3 3 .6 3.3 2.1v.1l1.9 6.5c.4 1.5 1.9 2.4 3.4 2h.2c3.1-1 6.4-1.6 9.7-1.8 6 0 11 3.7 11 9.2 0 5.3-6.8 10.7-6.8 10.7-1 1-2.7.9-3.7-.1zM280 187c1.5.2 2.6 1.5 2.5 3l.5 9.6c.1 1.6.4 4.3.6 6l1.1 6.5c.2 1.2 1.3 2 2.5 1.8.3 0 .6-.2.8-.3l2.3-1.1c1.5-.7 3.2-.3 3.7.8.4 1.4-.2 3-1.5 3.7l-7.6 4.4c-1 .7-2.3.4-3-.6-.2-.3-.3-.6-.3-.9 0 0-4.3-19.1-4.3-26.6v-3.9c.2-1.4 1.3-2.4 2.7-2.4zM95.3 208.9c-.8 1.5-.5 3.1.7 3.7 1.4.5 3-.1 3.7-1.4l7.7-12.8c.8-1.4.1-2.5-1.5-2.4l-.8.1c-1.8.3-3.4 1.3-4.4 2.9l-5.4 9.9zm153 9.2c-1.6 0-6.6-.1-6.6-2.8 0-2.4 3-3.9 3-3.9 1.5-.7 3.9-1.8 5.5-2.4l4.5-1.6c1.5-.3 2.5-1.9 2.2-3.4-.4-1.5-4-8.2-5.6-8h-.1c-1.6.2-2.8.8-2.7 1.2s.9 2.2 1.2 3.1c.2 1.5-.6 2.9-1.9 3.5 0 0-12.9 4.3-12.9 12.1.1 1.6.8 3 1.9 4.1 1.5 1.3 3.2 2.3 5 3.1 1.8.5 3.6.7 5.4.6 3.7 0 7.4-.6 10.9-1.8 1.6-.6 2.6-2 2.2-3.3s-1.9-2-3.5-1.6c-2.8.7-5.6 1-8.5 1.1z"/><path class="st0" d="M117.5 214.3c-2.7 0-5.6 1.6-5.6 3.4 0 .8.7 1.4 1.6 1.4 2.8 0 4.4-2.9 4.8-4.7-.2-.1-.5-.1-.8-.1z"/><path class="st2" d="M210.2 188.7c0 2-1.7 3.6-3.7 3.6s-3.6-1.7-3.6-3.7c0-.8.3-1.5.9-2 1.7-.8 3.6-1.1 5.4-.6.1 0 1 .3 1 2.7zM38 193.9c1.6-.1 3-1.2 3-2.5s-1.3-2.3-3-2.3c0 0-5.3 0-6.5.1s-3.4.1-5 .1-2.9.1-2.9.1l-3 .2-14.5 1c-1.6.2-3 1.3-2.9 2.5s1.4 2.2 3 2.2l14.3-.4c1.6-.1 4.3-.2 5.8-.3s4.1-.2 5.8-.2c1.5-.2 5.9-.5 5.9-.5zm83-1.9c-.1-1.3-1.4-2.2-3.1-2.2l-3.1.2c-1.6.1-4.3.3-6 .5h-.5c-1.6.2-4.3.4-6 .6 0 0-5.5.6-6.7.8-1.3.3-2.1 1.4-2.1 2.7.1 1.4 1.4 2.4 2.8 2.2h.1c1.6-.1 7-.5 8.6-.7l.8-.1c1.6-.1 4.3-.4 6-.6l6.2-.7c1.8-.2 3.1-1.4 3-2.7zm141.6 2c1.4-.3 2.3-1.5 2.1-2.9-.4-1.4-1.7-2.2-3.1-2-1.5.2-10.2 1.4-11.8 1.6h-.1c-1.6.2-4.3.7-5.9.9l-6.9 1.3s-2.8.4-3.9.7c-1.2.3-1.8 1.5-1.5 2.7.4 1.3 1.7 2.2 3.1 1.9 1.5-.2 9.6-1.4 10.8-1.5s4.3-.7 5.9-.9h.1c1.6-.2 9.8-1.5 11.2-1.8zm-92-1.7c1.5-.2 3 .8 3.3 2.3 1.4 5 2.2 10.2 2.3 15.4 0 2-.2 4-.4 6-.2 1.6-1.5 2.9-2.7 2.8-1.5-.3-2.5-1.6-2.4-3.1v-2.5c0-1.6-.1-4.3-.3-6l-.8-6.8c-.3-1.6-.6-3.7-.8-4.7s.5-3.1 1.8-3.4zm135.7 0c1.5-.2 3 .8 3.3 2.3 1.4 5 2.2 10.2 2.3 15.4 0 2-.2 4-.4 6-.2 1.6-1.5 2.9-2.7 2.8-1.4-.3-2.4-1.6-2.4-3.1v-2.5c0-1.6-.1-4.3-.3-6l-.8-6.8c-.3-1.6-.6-3.7-.8-4.7s.5-3.1 1.8-3.4z"/><path class="st0" d="M200.8 167.7l4.6-14.4c.1-.2.1-.3.2-.5l35.7-68.2c.7-1.4 2.4-1.9 3.8-1.3 1.4.6 2.1 2.3 1.5 3.7l-28.2 71.6c-.1.1-.1.3-.2.4l-7.8 13c-.8 1.2-2.3 1.7-3.6 1.1l-4.4-2c-1.3-.5-2.1-2-1.6-3.4z"/><path class="st0" d="M233 102.5l-5.3-14.1 4.6-10.5 26 11.4-4.7 10.6-14.9 5z"/><path class="st2" d="M252.1 98.3l-13.4 4.5-4.2-1.8-4.7-12.5 3.5-8 22.3 9.8z"/><path class="st0" d="M232.4 82.3c-.9-.4-1.4-1.5-1-2.5 0 0 0-.1.1-.1l15.2-28.5c.6-1 1.7-1.4 2.8-1l.4.2c1 .5 1.5 1.6 1.2 2.7l-10.9 30.4c-.4 1-1.5 1.5-2.5 1.1l-5.3-2.3zm17.2 7.6c-.9-.4-1.4-1.5-1-2.5 0 0 0-.1.1-.1l15.2-28.5c.6-1 1.7-1.4 2.8-1l.4.2c1 .5 1.5 1.6 1.2 2.7l-10.8 30.4c-.4 1-1.5 1.5-2.5 1.1l-5.4-2.3z"/><path class="st0" d="M244.4 87.6c-1-.4-1.4-1.5-.9-2.5V85l16.2-32c.5-1 1.7-1.4 2.7-1l.5.2c1 .5 1.5 1.7 1.1 2.7l-12.9 33.5c-.3.9-1.4 1.4-2.3 1.1-.1 0-.1-.1-.2-.1l-4.2-1.8z"/><path class="st0" d="M238.7 85.1c-.9-.4-1.4-1.5-1-2.5 0 0 0-.1.1-.1l16.1-32.1c.5-1 1.7-1.4 2.7-1l.5.2c1 .5 1.5 1.7 1.1 2.7l-12.8 33.5c-.4 1-1.6 1.5-2.6 1.1l-4.1-1.8z"/><path class="st2" d="M243.3 87.1c.4.2.6.7.4 1.1l-27.2 69.5c-.1.2-.2.3-.3.5l-6.4 10.7c-.9 1.5-2.9 2.1-4.5 1.4-1.7-.7-2.5-2.6-1.9-4.3l3.8-11.9c.1-.2.1-.4.2-.6l34.7-66.1c.3-.3.8-.4 1.2-.3zm-10-6.6L248.5 52l.7.3-10.9 30.4zm17.2 7.6l15.2-28.5.7.3-10.8 30.4zm-5.2-2.3l16.2-32 .7.3-12.9 33.5zm-5.7-2.5l16.1-32.1.7.3L243.6 85z"/><circle class="st0" cx="157" cy="71.8" r="71.8"/><circle cx="157" cy="71.8" r="69.8" fill="#e29d30"/><circle class="st1" cx="157" cy="71.8" r="69.8"/><circle cx="157" cy="71.8" r="59.5" fill="#fff" stroke="#fff" stroke-width="2.08" stroke-miterlimit="10"/><circle cx="156.5" cy="72.3" r="53.9" fill="none" stroke="#eda411" stroke-width="1.88" stroke-miterlimit="10"/><path d="M185.8 46.6c-5.4-9.1-12.4-13.5-16.7-12.3-.3.1-3.7.8-4.7 1.1-.5.2-1 .5-1.5.9h0c-.7.5-45.5 45.9-53.8 57.6h0c-.7.8-1.2 1.7-1.3 2.8-.3 2.5 1.5 4.8 4 5.1h.2c1.2.1 1.2-.1 3.4-.7 3.1-.8 7.6-2.3 11.6-3.6h0c-1.8 1.1-3.3 2.7-4.4 4.5h0c-.2.3-.3.5-.5.8-2.1 3.2-2.3 6.9-.3 8.2s5.3-.2 7.4-3.4c0-.1 0-.1.1-.1h0v.2s10.4-17.8 50.2-33.8c1.1-.4 2-.6 3-1h0c.6-.3 1.1-.6 1.6-1 1.8-1.3 3.3-3 4.6-4.8 2.7-3.6 2.5-11.5-2.9-20.5z" fill="#eda411" stroke="#fff" stroke-width="1.14" stroke-miterlimit="10"/><path d="M191.4 49c3.9-1.6 12.6-4 20.6-3.4l.4-4.9c-2-.2-4.1-.2-6.1-.1 4.3-1.4 8.9-2.1 13.4-2.1l.1-4.2c.8.2 1.7.5 2.5.8.1 0 .1 0 .1.1v0l1.9-4.5c-.1 0-.1 0-.1-.1-9.6-4.1-22.2 0-30.1 4.3 5.1-3.1 10.8-5.1 16.7-6l-.6-4.9c-13.1 1.6-23.5 10-26.9 13.8m18-.9c3.8-1.5 10-3.2 14-3.1-4.7.6-9.4 1.6-14 3.1h0z" fill="#9cc556" stroke="#fff" stroke-width="1.39" stroke-linejoin="round"/><path class="st8" d="M168.9 75c-1.9-2.7-4.1-4.5-4.9-3.9s.1 3.2 2.1 5.9l1.2 1.5c1-.5 2-.9 3-1.4-.4-.6-.9-1.3-1.4-2.1z"/><ellipse transform="rotate(-35.551 152.947 68.544)" class="st8" cx="152.9" cy="68.5" rx="1.1" ry="4"/><path class="st8" d="M154.7 51.1c2.5 3.8 5.3 6.3 6.2 5.7s-.4-4.2-2.9-7.9c-.7-1.2-1.6-2.3-2.5-3.3-.8.8-1.6 1.7-2.5 2.6.5 1 1.1 2 1.7 2.9zm-34.2 34.3c1.3 1.8 2.7 2.9 3.2 2.6s-.1-2.1-1.4-3.9c-.4-.6-.8-1.1-1.3-1.6-.5.5-.9 1-1.4 1.6.3.5.6.9.9 1.3zm32.6-.7c-1.3-1.8-2.7-2.9-3.2-2.6s.1 2.1 1.4 3.9c.1.2.2.4.4.5.6-.4 1.3-.8 1.9-1.2-.2-.2-.3-.4-.5-.6zm-16.7-15.2c1.3 1.8 2.7 2.9 3.2 2.6s-.1-2.1-1.4-3.9c-.6-.9-1.3-1.6-2.1-2.3L135 67c.4.9.9 1.7 1.4 2.5z"/><path class="st0" d="M63.9 99.6c-4.9 0-11.9-2.2-16.7-12.7-5.7-12.4-3.2-30.1 4.7-33.8 1.2-.5 2.5-.8 3.8-.8 9.2 0 20.8 10.2 24.9 19.4 5.2 11.4 2.1 21.1-8.3 25.9-2.6 1.3-5.5 2-8.4 2z"/><path class="st0" d="M92.8 159.6L61.1 78.9c-.5-1.2.1-2.5 1.2-3.1 1.2-.6 2.7-.1 3.3 1.1l40.2 76.9c.1.1.1.3.2.4l4.9 15.1c.4 1.2-.2 2.5-1.3 3l-5 2.3c-1.1.5-2.5.1-3.1-1l-8.3-13.5c-.3-.2-.4-.4-.4-.5z"/><path class="st2" d="M63.5 77.4l-.8.4 31.8 80.8.3.6 6.7 11c.9 1.5 2.9 2.1 4.5 1.4h.1c1.7-.7 2.5-2.6 1.9-4.3l-3.9-12.2c-.1-.2-.1-.4-.2-.6L63.5 77.4z"/><path class="st2" d="M78.7 72.5c5.4 11.8.9 19.5-7.3 23.3s-17 2-22.4-9.7-2.7-28.2 3.7-31.2 20.7 5.9 26 17.6z"/><path class="st0" d="M254.8 92.1l-22.3-9.7 1.2-.6 20.6 9.2z"/></g></svg>