<svg xmlns="http://www.w3.org/2000/svg" viewBox="0 0 156.84 71.36"><defs><style>.cls-1{isolation:isolate}.cls-2{fill:#1d1d1d}.cls-3{fill:#bebebe}.cls-4{fill:#ffd750}</style></defs><g id="レイヤー_2" data-name="レイヤー 2"><g id="レイヤー_1-2" data-name="レイヤー 1"><g class="cls-1"><path class="cls-2" d="M48.45 61.22a.16.16 0 0 0-.15.13l-.17 1.37a.22.22 0 0 0 .22.27h.45a.55.55 0 1 1 0 1.09H44A.55.55 0 1 1 44 63h.43a.24.24 0 0 0 .23-.25l-.19-1.38a.15.15 0 0 0-.15-.14.53.53 0 1 1 0-1h1.28a.22.22 0 0 0 .22-.22v-.27a.56.56 0 1 1 1.11 0V60a.21.21 0 0 0 .21.22h1.3a.52.52 0 0 1 .53.52.52.52 0 0 1-.52.48zm-2.06 3.21a.54.54 0 0 1 .55.55v.14a.19.19 0 0 0 .19.18h1.28a.54.54 0 0 1 .54.56.53.53 0 0 1-.54.55h-.34a.14.14 0 0 0-.12.21l.56 1a.38.38 0 0 1-.33.56 1.12 1.12 0 0 1-1-.56l-.14-.27a.08.08 0 0 0-.14 0v3.22a.53.53 0 0 1-.55.54.55.55 0 0 1-.55-.54v-3a.06.06 0 0 0-.12 0L45 69a1 1 0 0 1-.91.56.39.39 0 0 1-.34-.56l1.17-2.3a.17.17 0 0 0-.14-.25h-.65a.53.53 0 0 1-.54-.55.54.54 0 0 1 .54-.56h1.54a.19.19 0 0 0 .18-.18V65a.55.55 0 0 1 .54-.57zm-.55-3.21a.23.23 0 0 0-.23.27l.14 1.23a.3.3 0 0 0 .3.27h.69a.31.31 0 0 0 .31-.27l.18-1.23a.24.24 0 0 0-.24-.27zm9.21 2.08a.59.59 0 1 1 0 1.17h-.46a.28.28 0 0 0-.27.27v5.85a.6.6 0 1 1-1.19 0v-5.85a.28.28 0 0 0-.27-.27h-1.27a.3.3 0 0 0-.3.27l-.35 5.57a.61.61 0 0 1-.61.59.54.54 0 0 1-.55-.59l.41-6.68v-2.15a1.27 1.27 0 0 1 1-1.25l3.07-.7a.47.47 0 0 1 .59.46.76.76 0 0 1-.59.74l-2.62.59a.35.35 0 0 0-.25.34V63a.27.27 0 0 0 .26.27zM70.25 64.15a.53.53 0 0 1-.53.53h-6.21a.43.43 0 0 0-.39.26l-.14.25a.17.17 0 0 0 .16.24h5.11a1 1 0 0 1 1 1v3.3a1 1 0 0 1-1 1h-5.13a1 1 0 0 1-1-1V67.3c0-.07-.1-.1-.13 0l-.57 1.08a.94.94 0 0 1-.84.52.35.35 0 0 1-.32-.52l1.69-3.4a.18.18 0 0 0-.15-.26h-1.5a.52.52 0 0 1-.53-.53.53.53 0 0 1 .53-.53h3.91a.27.27 0 0 0 .28-.27v-.19a.28.28 0 0 0-.28-.27h-2.35a.53.53 0 1 1 0-1h2.33a.28.28 0 0 0 .28-.26v-.17a.27.27 0 0 0-.28-.27h-3.66a.53.53 0 0 1-.53-.53.53.53 0 0 1 .53-.53h1.81a.13.13 0 0 0 .11-.21l-.16-.21a.34.34 0 0 1 .27-.54 1.35 1.35 0 0 1 1.07.54l.15.21a.53.53 0 0 0 .39.21h1.67a.49.49 0 0 0 .38-.21l.14-.2a1.26 1.26 0 0 1 1-.55.35.35 0 0 1 .28.55l-.16.2a.14.14 0 0 0 .12.21h1.83a.53.53 0 0 1 .55.53.54.54 0 0 1-.55.53h-3.62a.27.27 0 0 0-.28.27v.17a.28.28 0 0 0 .28.26h2.34a.53.53 0 1 1 0 1h-2.34a.28.28 0 0 0-.28.27v.15a.27.27 0 0 0 .28.27h3.91a.53.53 0 0 1 .53.53zm-1.86 2.4a.28.28 0 0 0-.27-.27h-4.9a.28.28 0 0 0-.27.27.28.28 0 0 0 .27.27h4.9a.28.28 0 0 0 .27-.27zm-5.17 1.26a.27.27 0 0 0-.27.26.27.27 0 0 0 .27.26h4.9a.27.27 0 0 0 .27-.26.27.27 0 0 0-.27-.26zM63 69.63a.27.27 0 0 0 .27.26h4.9a.27.27 0 0 0 .27-.26.27.27 0 0 0-.27-.26h-4.9a.27.27 0 0 0-.27.26z"/></g><g class="cls-1"><path class="cls-2" d="M77.74 63.38c1.87-.84 4.62-.79 5.58 1.79a3.49 3.49 0 0 1-.38 3.08A4.43 4.43 0 0 1 79.81 70a.49.49 0 0 1-.08-1 4.83 4.83 0 0 0 1.57-.56 2.58 2.58 0 0 0 .37-4.14 2.45 2.45 0 0 0-1.5-.54.2.2 0 0 0-.17.24 7.66 7.66 0 0 1-.43 1.61 13.14 13.14 0 0 1-1.45 2.84 1.54 1.54 0 0 1-1.56.83 1.75 1.75 0 0 1-1.24-1.53 4 4 0 0 1 2.42-4.37zm1.28.67c0-.07 0-.13-.11-.12a3.47 3.47 0 0 0-2.39 1.85 2.46 2.46 0 0 0-.29 1.75c.15.69.55 1.14 1.1.44A10.1 10.1 0 0 0 79 64.05z"/></g><g class="cls-1"><path class="cls-2" d="M92.86 61.69a.61.61 0 0 1-.61.6h-4.13a.61.61 0 0 1 0-1.21h4.13a.61.61 0 0 1 .61.61zm-.45 8.4a1 1 0 0 1-1 1H89a1 1 0 0 1-1-1v-2.34a1 1 0 0 1 1-1h2.38a1 1 0 0 1 1 1zm-.21-6.53a.6.6 0 0 1-.59.59h-2.84a.6.6 0 0 1-.58-.59.59.59 0 0 1 .58-.57h2.84a.59.59 0 0 1 .59.57zm0 1.87a.58.58 0 0 1-.58.57h-2.85a.58.58 0 1 1 0-1.15h2.85a.58.58 0 0 1 .58.58zm-.2-5.59a.59.59 0 0 1-.57.57h-2.5a.58.58 0 0 1-.57-.57.57.57 0 0 1 .57-.58h2.53a.58.58 0 0 1 .54.58zm-3 9.89a.29.29 0 0 0 .28.28H91a.28.28 0 0 0 .27-.28v-1.61a.26.26 0 0 0-.27-.27h-1.65a.27.27 0 0 0-.28.27zm10.61.5a.63.63 0 0 1-.63.62h-4.5a1 1 0 0 1-1-1v-5.56a1 1 0 0 1 1-1H97a.33.33 0 0 0 .3-.29l.36-2.1a.22.22 0 0 0-.22-.27h-3.31a.63.63 0 0 1 0-1.25h4.08a.84.84 0 0 1 .82 1l-.57 3.12a1.23 1.23 0 0 1-1.21 1H95a.27.27 0 0 0-.26.27v4.55a.27.27 0 0 0 .26.27h4a.63.63 0 0 1 .68.64zM114.52 66.39a.52.52 0 0 1 .52.53.51.51 0 0 1-.52.52h-.75a.3.3 0 0 0-.27.3V68a1 1 0 0 1-1 1h-2.76a.3.3 0 0 0-.29.28v1.15a.88.88 0 0 1-.9.89h-.36a.52.52 0 0 1-.53-.53.52.52 0 0 1 .53-.53.18.18 0 0 0 .17-.17v-.81a.3.3 0 0 0-.28-.28h-3.29a.5.5 0 0 1 0-1h3.29a.3.3 0 0 0 .28-.29.3.3 0 0 0-.28-.3h-4.8a.52.52 0 0 1-.54-.52.52.52 0 0 1 .54-.53h4.8a.3.3 0 0 0 .28-.28.3.3 0 0 0-.28-.28h-3.29a.48.48 0 0 1-.49-.51.48.48 0 0 1 .49-.49h3.29a.3.3 0 0 0 .28-.29v-.2a.3.3 0 0 0-.28-.29h-2.62a1 1 0 0 1-1-1v-.52a1 1 0 0 1 1-1h2.62a.31.31 0 0 0 .28-.28v-.15a.3.3 0 0 0-.28-.29h-4.38a.51.51 0 0 1-.53-.52.51.51 0 0 1 .53-.52h4.49a.17.17 0 0 0 .17-.16v-.05a.52.52 0 0 1 1 0v.05a.17.17 0 0 0 .17.16h4.51a.52.52 0 0 1 .52.52.51.51 0 0 1-.52.52h-4.39a.3.3 0 0 0-.29.29v.15a.31.31 0 0 0 .29.28h2.59a1 1 0 0 1 1 1v.5a1 1 0 0 1-1 1h-2.59a.3.3 0 0 0-.29.29v.2a.3.3 0 0 0 .29.29h2.76a1 1 0 0 1 1 1v.28a.29.29 0 0 0 .27.28zm-9.09-3.57a.3.3 0 0 0 .29.29h2.38a.3.3 0 0 0 .28-.29v-.13a.29.29 0 0 0-.28-.28h-2.38a.3.3 0 0 0-.29.28zm6.93-.13a.29.29 0 0 0-.28-.28h-2.37a.3.3 0 0 0-.29.28v.13a.3.3 0 0 0 .29.29h2.37a.3.3 0 0 0 .28-.29zm-2.65 3.13a.3.3 0 0 0-.29.28.3.3 0 0 0 .29.28h2.48a.3.3 0 0 0 .28-.28.3.3 0 0 0-.28-.28zm2.48 2.18a.3.3 0 0 0 .28-.29.3.3 0 0 0-.28-.3h-2.48a.31.31 0 0 0-.29.3.3.3 0 0 0 .29.29z"/></g><path class="cls-3" d="M34.15 65.71c-.87 0-.87.08-1.74.08h-8.72c-.87 0-.87-.07-1.75-.07s-.87.07-1.75.07a.59.59 0 0 1-.6-.57v-.06a.57.57 0 0 1 .59-.55c.88 0 .88-.1 1.75-.1s.87.08 1.74.08h5.23c.87 0 .87.07 1.74.07s.88-.11 1.75-.11.88.1 1.75.1a.56.56 0 0 1 .59.55.55.55 0 0 1-.57.52zM138.15 65.71c-.87 0-.87.08-1.74.08h-8.72c-.87 0-.87-.07-1.75-.07s-.87.07-1.75.07a.59.59 0 0 1-.6-.57v-.06a.57.57 0 0 1 .59-.55c.88 0 .88-.1 1.75-.1s.87.08 1.74.08h5.23c.87 0 .87.07 1.74.07s.88-.11 1.75-.11.88.1 1.75.1a.56.56 0 0 1 .59.55.55.55 0 0 1-.57.52z"/><g class="cls-1"><path class="cls-4" d="M13.24 34.89l-2.44 9.64H0L14.46 0h11L39.9 44.53h-11l-2.43-9.64zM19.89 9h-.12l-4.58 18h9.27z"/></g><g class="cls-1"><path class="cls-4" d="M49.15 44.53h-7V22.69h6.76v4.2H49a10.7 10.7 0 0 1 8.83-4.2h.84v5.12h-.84c-5.42 0-8.7 2.9-8.7 7.48zM66.75 15.55h6.8v8h6.85v4.75h-6.85v7.56A7.53 7.53 0 0 0 74 39.2a2.59 2.59 0 0 0 2.18.71 12.2 12.2 0 0 0 3.74-.59v5.09a24.11 24.11 0 0 1-5.42.54c-2.86 0-4.87-.58-6-1.8s-1.72-3.45-1.72-6.6v-8.27h-4.44v-4.75h4.41zM94.13 13v5.46H87V13zm0 9.66v21.87H87V22.69zM110.05 22.27A31 31 0 0 1 117 23v5.2a21.57 21.57 0 0 0-5.88-.88c-3.19 0-4.71 1.89-4.71 6.26s1.6 6.26 5.13 6.26a19 19 0 0 0 5.8-.92v5.16a29.44 29.44 0 0 1-6.85.84c-7.23 0-11.22-3.82-11.22-11.34-.02-7.32 3.85-11.31 10.78-11.31zM130.84 13v31.5h-7.14V13zM142.68 35.59c.38 3.36 2.19 4.66 6.18 4.66a23.32 23.32 0 0 0 6.34-1.18V44a29.19 29.19 0 0 1-7.35 1c-7.6 0-11.85-4-11.85-11.39s3.78-11.34 10.71-11.34c6.77 0 10.17 3.74 10.17 11.26a12.62 12.62 0 0 1-.17 2.06zm7.82-4c-.05-3.15-1.26-4.7-3.7-4.7-2.65 0-3.82 1.3-4.12 4.7z"/></g></g></g></svg>