<svg xmlns="http://www.w3.org/2000/svg" width="40.643" height="49.102"><g data-name="グループ化 473"><g data-name="グループ化 340"><path data-name="パス 536" d="M1.933 37.929a.992.992 0 1 1 1.393-.17.993.993 0 0 1-1.393.17zm.824-1.054a.345.345 0 1 0 .06.485.346.346 0 0 0-.06-.485z" fill="#1d1d1d"/></g><g data-name="グループ化 348"><path data-name="パス 544" d="M33.311 30.31a.91.91 0 1 1 1.278-.157.911.911 0 0 1-1.278.157zm.836-1.069a.446.446 0 1 0 .076.627.447.447 0 0 0-.076-.627z" fill="#1d1d1d"/></g><g data-name="グループ化 349"><path data-name="パス 545" d="M23.265 1.187a.163.163 0 0 1-.052-.186l.234-.625a.164.164 0 1 1 .308.113l-.235.625a.163.163 0 0 1-.208.092.161.161 0 0 1-.047-.019z" fill="#1d1d1d"/></g><g data-name="グループ化 350"><path data-name="パス 546" d="M22.613 2.916a.163.163 0 0 1-.052-.187l.235-.625a.164.164 0 0 1 .307.114l-.235.625a.164.164 0 0 1-.207.091.16.16 0 0 1-.048-.018z" fill="#1d1d1d"/></g><g data-name="グループ化 351"><path data-name="パス 547" d="M21.863 1.286a.163.163 0 0 1 .159-.282l.625.235a.164.164 0 1 1-.114.307l-.625-.234a.157.157 0 0 1-.045-.026z" fill="#1d1d1d"/></g><g data-name="グループ化 352"><path data-name="パス 548" d="M23.583 1.936a.163.163 0 0 1 .159-.282l.625.235a.164.164 0 1 1-.114.307l-.625-.234a.16.16 0 0 1-.045-.026z" fill="#1d1d1d"/></g><g data-name="グループ化 353"><path data-name="パス 549" d="M22.942 38.287a.121.121 0 0 1-.036-.045.12.12 0 0 1 .06-.16l.447-.2a.12.12 0 0 1 .098.218l-.447.202a.119.119 0 0 1-.122-.015z" fill="#1d1d1d"/></g><g data-name="グループ化 354"><path data-name="パス 550" d="M21.703 38.847a.12.12 0 0 1 .025-.204l.446-.202a.12.12 0 0 1 .098.22l-.446.201a.12.12 0 0 1-.123-.015z" fill="#1d1d1d"/></g><g data-name="グループ化 355"><path data-name="パス 551" d="M22.362 38.058a.123.123 0 0 1-.036-.046l-.2-.446a.12.12 0 1 1 .218-.099l.201.446a.12.12 0 0 1-.183.143z" fill="#1d1d1d"/></g><g data-name="グループ化 356"><path data-name="パス 552" d="M22.917 39.289a.122.122 0 0 1-.036-.046l-.201-.447a.12.12 0 0 1 .218-.099l.202.447a.12.12 0 0 1-.183.143z" fill="#1d1d1d"/></g><g data-name="グループ化 358"><path data-name="パス 554" d="M38.904 19.466L29.849 31.05l-15.71-12.28 9.056-11.584a1.235 1.235 0 0 1 1.732-.214l.6.47a1.3 1.3 0 0 1 .395 1.54l-.585 1.373 1.19-.901a1.3 1.3 0 0 1 1.588.01l5.407 4.227a1.3 1.3 0 0 1 .394 1.54l-1.272 2.971 2.577-1.951a1.3 1.3 0 0 1 1.589.01l1.883 1.472a1.235 1.235 0 0 1 .21 1.733z" fill="none" stroke="#1d1d1d"/></g><g data-name="グループ化 359"><path data-name="パス 555" d="M12.4 20.994l-2.426 3.104a.712.712 0 0 0 .123.999l4.672 3.652c.71 1.11-.43 2.389-.976 2.903-.139.13-.237.209-.258.23h0l-5.523 4.823a2.41 2.41 0 0 0-.364.414A4.108 4.108 0 0 0 13.98 42.3a2.963 2.963 0 0 0 .452-.608l3.338-6.513.004.01c.063-.131 1.179-2.482 2.743-1.954l4.176 3.265a.712.712 0 0 0 .998-.122l2.423-3.1zm-2.313 19.647a1.9 1.9 0 1 1 2.668-.327 1.9 1.9 0 0 1-2.668.328z" fill="none" stroke="#1d1d1d"/></g><g data-name="グループ化 360"><path data-name="パス 556" d="M6.48 24.334a.1.1 0 0 1-.039-.084l.06-.988a.1.1 0 0 1 .069-.088l.944-.297a.1.1 0 0 1 .091.017.1.1 0 0 1 .038.084l-.06.988a.1.1 0 0 1-.069.088l-.944.297a.1.1 0 0 1-.09-.017zm.215-.993l-.047.777.742-.233.048-.777z" fill="#1d1d1d"/></g></g></svg>