<svg xmlns="http://www.w3.org/2000/svg" width="24.742" height="26.708"><g data-name="グループ化 318"><g data-name="グループ化 28"><g data-name="グループ化 27"><g data-name="グループ化 26"><g data-name="グループ化 25"><path data-name="パス 66" d="M24.663 21.999l-12.044-4.211a.692.692 0 0 0-.5 0L.075 21.999c-.177.089-.038.232.226.232h2.977v4.246c0 .128.259.231.579.231h5.5c.388 0 .7-.116.7-.258v-2.912c0-.065.126-.117.281-.117h4.064c.155 0 .281.052.281.117v2.914c0 .142.315.258.7.258h5.5c.32 0 .579-.1.579-.231v-4.246h2.977c.263-.002.401-.144.224-.234z" fill="#ff5"/></g></g></g></g><g data-name="グループ化 79"><path data-name="パス 191" d="M19.895 20.398h-4.922a1.15 1.15 0 0 1-1.185-1.11v-5.961h-3.023v5.961a1.15 1.15 0 0 1-1.185 1.11H4.658a1.064 1.064 0 0 1-1.073-1.052v-8.58h-2.11a.819.819 0 0 1-.744-.479.876.876 0 0 1 .112-.927l.072-.072L11.676.247a.853.853 0 0 1 1.2 0l10.8 9.074.032.039a.876.876 0 0 1 .113.927.819.819 0 0 1-.744.479h-2.11v8.58a1.064 1.064 0 0 1-1.072 1.052zm-5-1.131a.126.126 0 0 0 .075.021h4.885V9.656h2.492L12.273 1.192 2.199 9.656h2.496v9.632h4.886a.125.125 0 0 0 .075-.021v-6.245a.807.807 0 0 1 .806-.806h3.633a.807.807 0 0 1 .806.806z"/></g></g></svg>