<svg version="1.1" id="レイヤー_1" xmlns="http://www.w3.org/2000/svg" x="0" y="0" viewBox="0 0 168.4 226.3" xml:space="preserve"><style>.st0{fill:#f4ff54}.st1{fill:#fef86c}</style><path class="st0" d="M67.8 81.9l11.4-4.1-8.2-13L60.7 76c-2.1 2.3 5.4 14.3 8.2 13l26.4-12.8-8.1-13L70 88.7c-1.8 2.8 6.2 14.7 8.2 13l25.6-22.6-8.5-12.5L83.7 90c-1.2 2.5 6.8 14.1 8.5 12.5l26.1-25.9-8.5-12.5-10 26.2c-1.2 3.1 7.4 14.4 8.8 12l12.9-22.9-8.8-11.9c-5.4 10.3-8.9 21.5-10.2 33.1-.3 2.6 7.2 14.9 8.8 12l10.2-18.7-8.8-12C102.1 114.8 94.2 148.7 89 183c-.4 2.9 2.2 6.6 3.8 8.8.4.5 4.6 5.5 5 3.2l3.7-23.2c.4-2.6-1.9-5.9-3.2-7.9-.4-.5-4.4-5.8-5.2-4.6l-15.6 24.8c-1.7 2.7 5.9 14.8 8.2 13l3.9-3c2.6-2.1-6.1-14.6-8.2-13l-3.9 3.1 8.2 13 15.6-24.8-8.5-12.5L89 183l8.8 11.9c5.2-34.3 13.1-68.2 23.7-101.2 1-3.1-7.4-14.5-8.8-12l-10.2 18.6 8.8 12c1.3-11.6 4.7-22.8 10.2-33.1 1.6-3.1-7.5-14.3-8.8-11.9l-12.9 23 8.8 12 10-26.2c.9-2.4-6.7-14.3-8.5-12.5L84 89.5l8.5 12.5 11.6-23.3c1.2-2.4-6.6-14.2-8.5-12.5L70 88.8l8.2 13 17.1-25.5c1.7-2.6-5.2-14.4-8.2-13L60.7 76l8.2 13 10.3-11.2c2.2-2.3-5.1-14.1-8.2-13l-11.4 4.1c-1.9.8 4.6 14.3 8.2 13z"/><path class="st0" d="M104.3 84.6l13.4-2-11.7-9.2-10.3 2.7c-2.8.7 2 5.1 2.7 5.7 2.3 1.8 5.8 4.1 9 3.5l10.6-2.1c3-.6 6.9-2.1 9.9-1.7l-8-3.7.6.5-3.5-4.5c.4 2.6-1.2 5.3-.7 8 .5 2.8 1.7 5.4 3.5 7.7l2.1-3.2-7-1.1 8.4 9.3c3.5 0 12.9 1.7 14.7-2.6l-13.1-7.5.1 1.1c.2 3 4.6 5.5 6.9 6.7 1 .5 6.5 2.9 6.3.1l-.1-1.1c-.2-2.9-11.6-11.1-13.1-7.5-1.1 2.8-9 1.5-11.4 1.5-2.9 0-1.3 2.7-.2 4 2 2.3 5.5 4.8 8.6 5.3l7 1.1c2.7.4 3.9-.7 2.1-3.2-1.1-1.5-1.6-3.3-1.6-5.2 0-1.8.8-3.3 1-5 .4-4.3-5.8-8-9.3-9.3-3.7-1.4-7.4-.2-11.2.6l-14.1 2.8 11.7 9.2 10.4-2.7c2.8-.7-2-5.1-2.7-5.7-2.4-1.9-5.8-4-9-3.5l-13.4 2c-2.9.4 2.2 5.3 2.7 5.7 2.2 1.6 5.6 3.7 8.7 3.3zM67.1 179.4c20.7 8.8 42.5 13.5 64.8 15.3.4 0 7.9.1 7.7-.5-4.3-10.1-18.8-12.9-28.2-15.4-13.5-3.6-27.4-5.8-41.4-6.5-.7 0-6.9-.8-7.4.2s2.7 1.2 3.4 1.3l34.2 5.5c3.1.5 6.2.7 9.3.5.8-.1 3.6-.5 1.3-1.1-4.5-1.2-10.1-1.9-14.8-1-2.4.5-5 2.8-3.2 5.3s6.8 2.5 9.6 2.8c5 .4 9.6.5 14-2 1.1-.6-3.4-1.3-3.4-1.3-17.4-2.9-35.1-3.5-52.7-1.9-1.8.2-3.2.5-.7 1.2 3.2.8 6.6 1.1 9.9.9l35-.5-9.2-2.1-9.2.5 12.7 1.8 3.8-2.7c1-.7-3.3-1.3-3.4-1.3-10.7-1.7-21.8-1.8-32.2 1.1-1 .3 1.1.9 1.3.9 2 .5 4 .7 6 .7l20.3 1.2c.7 0 7.6.6 7.7-.5s-7.3-1.5-7.6-1.5l-5.4-.3c-.7 0-7.6-.6-7.7.5s7.3 1.5 7.6 1.5l5.4.3.1-1.9-20.3-1.4 7.3 1.7c2.1-.6 4.2-1 6.3-1.3.9-.1 1.8-.1 2.6-.2 1.6-.3-2.8-.4.7.1l-3.4-1.3-3.8 2.7c-1 .7 3.3 1.3 3.4 1.3 3.1.5 6.2.6 9.3.5l9.2-.5c1.9-.1 3.1-.5.7-1.2-3.2-.8-6.5-1.1-9.9-.9l-35 .6 9.2 2.1c11.4-1.1 22.8-.8 34.1 1l-3.4-1.3c-2.6 1.5-4.6 1 2.3 1.6 8.3.7 3.8 1.4 3.6-1.4 0-.5.1-1 .3-1.5.3-.6 1.9-1.5.9-1.4l-12-1 .7.2 10.6-.6-34.2-5.5-4 1.5c10.5.6 20.9 2.5 31 5.4 8.2 2.3 19.9 4.8 23.6 13.6l7.7-.5c-17.2-1.4-34.3-6.2-50.2-12.9-2.8-1.2-6.4-1.2-9.4-1.3-1.3 0-3.4-.4-4.6.1-.2.1-1.8.4-.9.8z"/><path class="st1" d="M139.2 104l-33 12.6 11.8 28 42.7-27.4c5.5-3.6 9.2-10.7 7.1-17.3-2-6.1-7.9-11.8-14.8-11.3l-59.8 4.6 7.7 28.6 18.9-12.7c6.4-4.3 9.4-11.9 6.3-19.2-2.8-6.7-10.8-11.3-18.1-8.9L64.3 95.3 79.2 121 97 103.6c4.3-4.4 5.6-11 3.2-16.8-2.2-5.2-8-10-14-9.4L24.6 83l10.9 26.2 19.7-16.6-21.7-21.7c-12.3 10.4-24.1 25.9-18 43 3.3 9.5 10.6 15.9 20 19.3 8.9 3.2 18.4 1.7 27.4.4l-11.8-28-43.6 18.8c-7.4 3.2-9.6 14.6-5.5 21 5 7.7 13.1 8.9 21 5.5l43.5-18.7c7-3 8.9-12.9 6.3-19.2-3.2-7.6-10.4-10-18.1-8.9-4.5.6 3.1-.2-1.4.2-1.4.1-2.7.2-4.1.3-1.4.1-2.7.1-4.1-.2 1.8.4 1.8.3.1-.2-.5-.1-1-.3-1.6-.5 1.8.8 2.2.9 1.2.4-1.6-1.2-1.3-.9 0 .3-2.4-2.2 1.3 2.7-.3-.2-1.7-3.1.8 2.9 0-.4.8 3.4-.6.5.3-.3-.6.6-.6 3 .2.2.1-.5.3-1.1.5-1.6l-.6 1.6c.4-1.1 1-2.1 1.8-3-1.1 1.4-1.3 1.6-.6.7.4-.5.8-.9 1.2-1.3.8-.9 1.7-1.7 2.5-2.6 1.7-1.7 3.6-3.2 5.4-4.8 6.2-5.2 5.8-16.4 0-21.7-6.6-6-15.1-5.5-21.7 0L13.7 87.5c-4.6 3.9-5.4 11.6-3.2 16.8s8 10 14 9.4l61.7-5.6-10.8-26.2-17.9 17.3c-10.7 10.4.2 30.4 14.9 25.7l43.7-14.2-11.8-28-18.9 12.7c-5.4 3.6-9.2 10.6-7 17.3 2 6.1 7.9 11.8 14.8 11.3l59.8-4.6-7.7-28.6-42.7 27.4c-6.5 4.2-9.3 12-6.3 19.2 2.7 6.5 11 11.6 18.1 8.9l33-12.6c7.5-2.9 13.5-10.5 10.7-18.9-2.4-7.4-10.9-13.9-18.9-10.8z"/><path class="st1" d="M39.2 127.1c-7.1 1.4-12.9 7.7-14.6 14.6-2.1 8.7 1.8 17.7 9.5 22.2 6.8 3.8 15.1 3.7 21.7-.3 6.8-4.1 10.4-11.7 10.5-19.4.2-13.2-17-20.4-26.2-10.9-4.6 4.7-10.7 9.6-13.6 15.6-3.9 8-2.9 17.5 2.7 24.5 5.6 7.1 14.9 10 23.6 7.4 4.1-1.2 7.7-3.6 10.5-6.8 3.8-4.3 5-8.7 5.8-14.3.8-6.3-5.3-13.5-11.3-14.8-6.7-1.7-13.7 1.2-17.3 7.1l-12.1 19.7c-2.8 4.8-2.8 10.7 0 15.5 2.5 4.2 8 8.2 13.2 7.6l33.8-4.2-4.1-30.1-50.5 20.4c-7.4 3-13.5 10.4-10.7 18.9 2.6 7.9 10.6 13 18.9 10.7l41.9-11.4L59.1 171l-35.4 16.3c-5.8 2.7-9 11.4-7.1 17.3 2 6.5 8 11.1 14.8 11.3 25.3 1.3 50.7.5 75.9-2.5l-10.9-26.2L80 200.4c-5.1 4-5.8 13.4-2.4 18.6 3.9 6.1 10.4 8.4 17.3 7.1l40.6-7.7c11.9-2.3 14.1-17.8 6.8-25.7-1.4-1.5.1.1.5.8-1.6-2.3.4 2 .2.6-.1-.5-.5-2.8-.2-.4.2 2.6.1-.4.1-1-.2-2.6.1 1.1-.2 1 0 0 .6-2.4.6-2.5.2-1.8-1.3 2.4-.4.8.4-.7.8-1.5 1.2-2.2 1.3-2.2-.4.2-.3.3-.1-.2 1.4-1.5 1.5-1.7.7-.7 1.4-1.3 2.1-2 .3-.2 2.3-1.8.7-.6-1.8 1.4.9-.6 1.3-.9.6-.4 1.3-.9 2-1.3 1.6-1.1 3.3-2.1 5-3.1 5.6-3.4 9.1-10.9 7.1-17.3-2-6.6-8-11.1-14.8-11.3l-48.9-2.2 7.7 28.6 18.3-9.3c5.8-2.9 9-11.2 7.1-17.3-2.1-6.4-7.8-11.4-14.8-11.3l-47.1.8 7.7 28.6 32.7-14.9c5.8-2.7 9-11.4 7.1-17.3-2.2-6.9-7.8-10.5-14.8-11.3l-24.5-2.6L90 149.8l6.8-5.3c5.1-4 5.7-13.4 2.4-18.6-3.9-6.1-10.3-8.3-17.3-7.1-1.1.2-2.3.4-3.4.6-1.8.3 2.3-.2-.7.1-2.3.2-4.6.5-6.9.6-4.6.3-9.2.3-13.8.2l4.1 30.1 2.9-.8c7.7-2.3 13.3-10.9 10.7-18.9-2.5-7.8-10.6-13.2-18.9-10.7l-2.8.8c-8.1 2.4-12.8 10.9-10.5 19 1.9 6.5 7.8 11 14.6 11.1 11.1.3 22.1-.5 33-2.5l-14.9-25.7-6.8 5.3c-4.8 3.7-5.3 11.8-3.2 16.8 2.5 6 7.7 8.8 14 9.4l24.5 2.6-7.7-28.6-32.7 14.9c-5.8 2.7-9 11.4-7.1 17.3 2.1 6.4 7.8 11.4 14.8 11.3l46.7-.7-7.7-28.6-18.3 9.3c-5.8 2.9-9 11.2-7.1 17.3 2 6.6 8 11.1 14.8 11.3l49 2.2-7.7-28.6c-9.5 5.7-19.7 12.5-24.7 22.9-5.9 12.5-5.2 26.9 4.5 37.4l6.8-25.7-40.6 7.7 14.9 25.7 16.4-13.2c4.7-3.8 5.3-11.7 3.2-16.8s-8.1-10.2-14.1-9.4c-25.2 3-50.6 3.8-75.9 2.5l7.7 28.6 35.4-16.3c6.9-3.2 9-12.7 6.3-19.2-3-7.1-10.7-10.9-18.1-8.9l-41.9 11.4 8.2 29.6L79.4 190c7.2-2.9 12.1-8.7 11-16.8-.9-6.8-7.5-14.2-15.1-13.3L41.4 164l13.2 23.1 12.1-19.7-28.6-7.7c.5-3.9 1.3-5.9 4.3-7.8-2.1 1.3 2.3-.7 3.3-.7 3.3-.1 6.4 1.6 8 4.5-.8-1.4-.6-1 .5 1.2.4 1.1.4 2.3.1 3.5-.1 1.2-.5 2.3-1.2 3.2-1.4 1.6-1.7 2-.9 1.1 1-.9 1.9-2 2.9-3l6.5-6.7-26.1-10.9c.5-2.3.6-2.9.3-1.7s-.1.7.6-1.5c1.9-3.2 6-5.4 9.7-4.7 4.5.9 9.1 5.1 8.6 10.4-.4 4.1-2.8 9.2-7.3 10.1 7.9-1.6 13.2-11.4 10.7-18.9-2.7-8.4-10.5-12.4-18.9-10.7zM60.1 73.8c9.3-5.9 19-11.1 29-15.8 2.4-1.1 4.8-2.2 7.2-3.2-3.2 1.4.9-.3 1.2-.5 1.2-.5 2.5-1 3.7-1.5 5.4-2.1 10.8-4 16.2-5.7l-8.2-29.6C81 27.6 51.1 38.7 31.1 62.3c-5 5.9-6.1 13.8-1.2 20.1s12.9 7.4 19.8 4c14.1-7 28.4-13.7 42.9-19.9l5.1-2.2c1.2-.5 1.6-.7.2-.1l2.6-1.1c3.6-1.5 7.3-3 11-4.5 7.5-3 15.1-5.9 22.7-8.8l-11.9-28c-24.9 13-53 24.2-69.8 47.8-3.5 5-2.2 12.6 1.2 17s10.5 7.8 16.1 5.5l52.9-21.6c3.9-1.6 7-3.3 9.2-7.1 2.1-3.6 2.6-7.8 1.5-11.8-2.5-7.8-10.6-13.2-18.9-10.7l-31 9.2c-5.2 1.6-10.8 2.9-15.4 5.7-7.2 4.3-12.2 12.2-12 20.7.2 9.2 9.7 18.4 19.4 14.8l52.2-19.2-11.8-28c-5.5 3.6-10.1 7.7-12.3 14.1-2.7 7.9-.2 16.6 6.4 21.7 9 6.9 20.8 3.9 31.2 2.9l-7.7-28.6-7.1 5.2c-6.2 4.6-9.5 11.6-6.3 19.2 2.7 6.5 11 11.6 18.1 8.9l15-5.8-17.3-22.6c-5.6 7.5-6.3 16.6-5 25.5 1.2 8 11.7 13 18.9 10.7 8.7-2.8 12-10.3 10.7-18.9.3 1.8.5 2.3.3.2-.1-1.5-1.1 3 .1.2 1-2.4-.4.5-.3.5.6-1 1.2-1.9 1.8-2.8 3.6-4.9 2.2-12.7-1.2-17s-10.5-7.7-16.1-5.5l-15 5.8L141.7 86l7.1-5.3c5.3-3.9 9.3-10.4 7.1-17.3-1.9-6-8-11.9-14.8-11.3-4.9.5-9.7 1-14.6 1.5-.9.1-1.8.1-2.7.2h-1c3.6-.2 5.7 2.1 6.1 6.9 4.8 3.6 5.2 7.2 1.5 10.7l.7-.7c-1.8 1.5-1.5 1 .3 0 6.5-4.2 9.3-12 6.3-19.2-2.8-6.5-10.9-11.5-18.1-8.9L67.3 61.8l19.4 14.8c-.1 1.2-.4 2.4-1 3.4-.3.5-2.8 2.7-1.7 2.1 1.7-1-2.5.7-.5.2.9-.2 1.8-.6 2.7-.9 4-1.2 8.1-2.4 12.1-3.7l24.3-7.2-8.1-29.5-52.9 21.6 17.3 22.5c1-1.4.9-1.3-.3.3l1.5-1.8c1-1.2 2.1-2.3 3.2-3.4 1.9-1.9 4-3.8 6.2-5.4-3.2 2.3 1-.7 1.6-1.1 1.3-.9 2.6-1.8 4-2.6 2.4-1.5 4.8-2.9 7.2-4.2 11.6-6.5 23.6-12.4 35.4-18.6 6.8-3.5 9.1-12.5 6.3-19.2-2.8-6.5-10.9-11.6-18.1-8.9C94.6 31.9 64 45.1 34.2 59.9L52.8 84c2.1-2.5 4.3-4.9 6.7-7.1 1.2-1.1 2.4-2.2 3.7-3.3.5-.5 4.4-4 1.7-1.5 4.3-4 10.4-7 15.6-9.8 3.2-1.7 6.4-3.3 9.7-4.8 1.3-.6 2.5-1.1 3.8-1.7-3 1.3 2.2-.9 2.8-1.1 6.9-2.7 13.9-5.2 20.9-7.7 7.5-2.7 13.4-10.6 10.7-18.9-2.5-7.7-10.7-13.3-18.9-10.7C86.7 24.5 65 34.5 44.7 47.2c-6.8 4.3-10.1 13.9-5.5 21 4.3 6.9 13.6 10.1 20.9 5.6z"/><path d="M106.3 83.2c6.6-5.7 14.9-1.4 17.7 5.7.2.6 2.3.1 2.2-.3-2.6-7-10.5-10.6-17.5-8-1.6.6-3 1.5-4.3 2.6-.5.4 1.5.4 1.9 0zM110 99.5c-7.8-1.3-5.4-13.9 2-11.9s4.5 13.8-3.1 12c-1.1-.3-2.2.8-.7 1.2 3.9.9 8.4-.4 9.9-4.5 1.4-4-.7-8.3-4.7-9.7l-.9-.3c-4.1-1.1-8.4 1.3-9.5 5.4-1.2 4.5 2.5 8.3 6.7 9.1 1.4.2 1.6-1.1.3-1.3zM86.6 82.2c-7.2-6.3-17.4-3.2-20.8 5.5-.3.7 1.4 2.1 1.7 1.3 2.9-7.5 12.1-11.4 18.7-5.6 1.1 1 1.1-.5.4-1.2z"/><path d="M82.6 100.5c3.8-.5 6.5-4.1 6-7.9-.1-.8-.4-1.6-.8-2.3-1.7-3.4-5.4-5.2-9.1-4.5-3.8 1-6.1 4.9-5.1 8.7.1.5.3 1 .6 1.5 1.9 3.5 5.8 5.4 9.7 4.5.4-.1-.9-1.6-1.5-1.5-1.9.7-4.1.1-5.4-1.5-1.5-1.1-2.2-3-1.8-4.9.4-2.7 2.4-4.8 5-5.4 3-.6 5.9 1.3 6.6 4.3.2.8.2 1.7-.1 2.6-.7 2.6-2.9 4.5-5.6 4.9-.4.2.9 1.7 1.5 1.5zM97.1 102.2l.2 1.1 1.6 1.3-.3-.8c-.2-.4-.5-.8-.9-1-.2-.1-.3-.3-.5-.4-.1 0-.2-.1-.2.1l.3.8c.2.4.5.8.9 1 .1.1.8.6.7.3l-.2-1.1c-.1-.4-.6-.8-.9-1 0 0-.7-.5-.7-.3zM95.6 115.1c-.4-.9-1.1-1.3-1.6-2.1-2.2-3.5 2.9-1.2 3.8-.8.5.2 1.7.6 2 1 .6.2.5.5-.2.8l-1 .1-4.1.6c-1.3.2-.1 1.8.8 1.7 1.7-.2 3.4-.4 5.1-.7.7-.1 1.6-.3 1.9-1.1.8-2-2.8-3.4-4-3.9-1.6-.7-4.7-2.3-6.4-1-2.3 1.8 1.3 4.1 1.9 5.6.3.9 2.3 1 1.8-.2zM125 35.1c6.5 5.5 10.8 12.5 13.7 20.4 1.4 3.8 2.6 7.6 3.4 11.6 1.1 5.1.7 10.2.6 15.4 0 .8 1.7 2.1 1.7 1 .1-5.5.5-11.1-.7-16.5-1-4.2-2.3-8.4-3.8-12.4-2.9-8-7.8-15.2-14.3-20.8-1.1-.9-1.5.6-.6 1.3zM120.9 30.6c-3.7-3.5-8.4-4.6-13.2-5.5-5.8-1.3-11.7-2-17.6-2.1-11.3-.2-22.3 3.9-30.8 11.5-15.8 13.8-18 34.9-14.6 54.5.2 1.2 2.1 1.5 1.9.1-3.1-18-1.7-38 12.3-51.4 7.7-7.6 18-12.2 28.8-12.7 5.4-.1 10.8.3 16.1 1.3 5.4.9 11.9 1.7 16 5.6 1.1 1.1 2.1-.4 1.1-1.3zM56.1 87.9c.1 5.8.9 11.6 2.5 17.2.2.6 1.9 1.9 1.5.7-1.6-5.5-2.4-11.1-2.5-16.8.1-.6-1.5-2-1.5-1.1zM135.5 85.7c-.7 6.5 1.2 12.8 1.2 19.3.1 5.9-2.2 11.5-6.3 15.7-9.6 9.8-24 10.2-36.9 10.2-1.3 0-1.3 1.1 0 1.1 12.8-.1 27-.3 37.3-9.3 4.2-3.5 7-8.4 7.9-13.8 1.1-7.7-1.8-15.3-1-23.1.1-.8-2.1-.9-2.2-.1zM90.5 129.5c-12.8-1.1-24-9.3-28.8-21.3-.4-1-2.5-.9-2.1.3 5.2 12.8 17.2 21.6 31 22.7 1.4.2 1.1-1.6-.1-1.7z"/><path d="M55.9 91.3c-2.2-2.5-5.6-3.6-8.9-2.9-5.4 1.2-7.2 7.5-5.7 12.3 1.7 5.5 6.9 9.4 11.8 12 2.7 1.5 7.8 3.1 9.1-1 .1-.3-2-.9-2.1-.5-2.3 7.3-14.7-5.3-16.3-9.1-1.1-2.5-1.2-5.4-.2-8 1.5-4 6.7-7.4 10.3-3.1.2.4 2 .4 2 .3zM141.1 88.4c3-1 4.7-.3 4.9 1.8.2 1.2.4 2.3.3 3.5 0 2.1-.5 4.1-1.2 6.1-.6 1.5-1.4 3-2.4 4.3-.3.4-4.1 5.3-4.8 2-.2-1-1.5-.8-1.3.2.5 2.5 2.2 3.7 4.4 2.1 3.3-2.5 5.6-7.2 6.4-11.2.6-3.4.7-8.7-2.1-11.3-2.2-2.1-4.4-.7-5.5 1.6-.4.7.8 1.7 1.3.9zM72.6 70.2c.4 4.5 2.9 8.6 6.7 11.1.2.2 2.1-.2 2.1-.5-.4-2.4 0-4.8 1.2-6.9 0-.1-1.8-.1-2.1.4-1.2 2.2-1.6 4.6-1.2 7.1l2.1-.5c-3.8-2.5-6.2-6.5-6.6-11-.1-.4-2.3-.1-2.2.3z"/><path d="M79.7 73c3.1 6 8.7 10.2 15.3 11.6.5.1 2-.4 1.4-1.2-1.9-2.3-2.4-5.5-1.4-8.3.4-1.2-1.7-1.4-2-.4-1.2 3.2-.7 6.8 1.4 9.5l1.4-1.2c-6.1-1.3-11.3-5.3-14.1-10.9-.4-.8-2.5-.1-2 .9zM96.7 76.2l4.8 7c.3.5 1 .7 1.5.4.2-.1.4-.3.5-.5l2.6-6.4-1.8.3c2.1 2.4 3.7 5.3 4.6 8.4.2.7 1.5 1.2 2 .4 2.7-3.9 3.9-8.7 3.4-13.4-.1-1.2-2.3-1.5-2.2-.2.5 4.4-.6 8.8-3 12.4l2 .4c-1.1-3.4-2.8-6.6-5.1-9.3-.4-.5-1.1-.5-1.6-.1-.1.1-.2.2-.3.4l-2.6 6.4h2l-4.8-7c-.8-1.1-2.7-.4-2 .8zM54.9 82.8l1.1 3.3c.1.2.9 1.9 1.1 1.5l2.8-5.4-1-1.3 2.8 7.7c.1.2 1 1.5 1.1 1.3.3-4.1 1.2-8.1 2.7-12 .2-.5-1.1-2-1.2-1.8-1.4 3.9-2.3 7.9-2.7 12l1 1.3-2.8-7.7c-.1-.2-.9-1.6-1-1.3L56 85.8l1.1 1.5L56 84c-.1-.4-1.4-2.1-1.1-1.2z"/><path d="M114.3 73.7c1.2 4 3 7.9 5.3 11.4.2.3 2.1.1 2.2-.3.2-3 1.2-5.8 3.1-8.1l-2.1.2c2.1 4 3.3 8.3 3.5 12.8 0 .3 2 0 2.1-.2 2.4-2.4 3.9-5.5 4.2-8.8 0-.1-2.1-.2-2.2.3-.3 3.3-1.8 6.4-4.1 8.7l2.1-.2c-.2-4.5-1.4-8.9-3.5-12.8-.2-.3-1.9 0-2.1.2-1.9 2.4-3 5.3-3.1 8.3l2.2-.3c-2.3-3.5-4.1-7.3-5.3-11.4-.2-.5-2.3 0-2.3.2zM73.9 126.7c1.6 2.9 3.7 8.2-.2 10.4-1.2.6-.5 2 .7 1.3 5.1-2.7 3.7-8.5 1.5-12.7-.5-.9-2.5.1-2 1zM96.9 131.8c-1.7 3.2.4 7.4 3.5 8.8-.2-.1-.6-1.6-1.1-1.8-2.2-1-2.3-3.2-1.2-5.2.2-.4-1.2-1.7-1.2-1.8zM67 136c-1.8 4.3 1.3 8.8 3.7 12.3 3.2 4.7 7.2 8.9 11.8 12.4 1.1.9.7-1 .1-1.5-3.3-2.5-6.3-5.4-8.9-8.7-2.5-3.2-6.9-8.7-5.1-13 .2-.7-1.2-2.3-1.6-1.5z"/><path d="M100.7 141.3c.3 5.8-.5 11.7-2.4 17.2-.4 1.2-.9 2.4-1.4 3.5-.6 2.6-2.5 3.3-5.7 2.2l-1.1-.7c-2.7-1.3-5.3-3.5-7.8-5.1-.9-.6-2.6.8-1.6 1.5 3.5 2.3 7.3 5.7 11.2 7.1 2.1.8 4.4 0 5.5-1.9 4.5-6.5 5.6-16.3 5.3-23.9.1-1.4-2-1-2 .1z"/><path d="M98.2 134.8c4.6-1.6 9.6.8 11.2 5.4.1.3.2.7.3 1 .7 3.3.4 6.7-1 9.7-.2.5 1.7 1.6 1.8 1.3 2.1-5.1 2.1-11.1-1.8-15.3-3-3.3-7.7-5.1-12-3.6-.4.2 1 1.6 1.5 1.5z"/><path d="M110.7 142.1c3.1.5 6.1 1.1 9.1 2.1 2.8.9 9.3 2.3 10 5.4.5 2.1-1 2.9-2.4 4.5l-3.2 3.7-6.9 7.8c-.8.9.7 2.4 1.6 1.5l10.2-11.4c1.6-1.8 5-4.3 3.7-7.1s-6-4-8.6-4.9c-4.2-1.6-8.7-2.8-13.2-3.5-1.4-.3-1.5 1.8-.3 1.9zM76.2 127.7c-5.4-.9-9.8-5.7-15.6-4.5-5.3 1.1-6.8 6.3-7.6 11-.1.8 2 .6 2.1 0 1-5.7 3.6-12.1 10.9-9.1 3.2 1.3 5.8 3.1 9.3 3.7.7.1 2.3-.8.9-1.1zM59.6 149c6 7.3 12.9 13.8 20.6 19.3 1.1.8.2-.9-.3-1.3-7.2-5.2-13.7-11.3-19.3-18.1-.6-.7-1.9-1.1-1 .1z"/><path d="M53.3 132.3l-1.9 4.7c-.2.6 1.9.4 2.1-.2l1.9-4.7c.3-.6-1.8-.4-2.1.2z"/><path d="M51.9 134.1c-1.5 1.3-3.4-.1-5.1.3-.8.2-1.4.7-1.8 1.3-1.6 2.1-2 5.4-2.8 7.9-.1.5 1.9 1.3 2 .9.7-2.4 1.2-5.8 2.8-7.9 1.9-2.5 4.8.2 7-1.7 0 0-1.6-1.2-2.1-.8z"/><path d="M44.7 144c-4.9 1.3-9 4.4-11.7 8.6-3.4 5.7.3 7.9 5.4 9.9 14.2 5.5 28.7 10.2 43.5 14.1 1 .3 2.1-.6.7-1-11.4-3-22.6-6.5-33.8-10.5-2.6-.9-5.3-1.9-7.9-2.9-3.2-1.2-7.9-2.2-6.9-6.7 1.2-5.2 7-9.1 11.7-10.5 1.4-.4-.2-1.3-1-1zM105.2 160.5c-.3-.3-.5-.7-.4-1.1l-.7.5h.2c.1.1.2.2.2.3 0 .2-.1.4-.2.6l-.2.2c.1 0 .2.1.3.1.1 0 0 .2 0-.1 0 0 0-.5.1-.5h-.4c-.1 0 0-.2-.1.1 0 .5.7.9 1.1.9s1-.1 1-.6c.1-1.5-2.1-2.2-3.2-1.7-1.3.7-.7 2.4.3 3 1.3.7 3.1.2 3.3-1.4s-1.8-2.6-3.2-2.4c-.3 0-.7.1-.7.4-.2 1.2.4 2.4 1.5 2.9.5.3 1.1.3 1.5-.1.4-.4-.1-.9-.4-1.1zM84.4 164.8l-1.6-1 .2.4c.1-.3.4-.9.7-1-.2.1 0 .1.1.1.2.1.3.3.4.5.1.2 0 .4 0 .6l-.1.2c.6.1.7.1.5-.1 0-.1-.1-.2-.1-.4 0-.3.2-.4-.2-.2.3-.1.9-.4.6-.8s-1.1-.2-1.4-.1c-1 .4-1.7 1.6-.7 2.4s3 .2 3.5-1c.6-1.4-.8-2.3-2-2.3-1.5-.1-2.9.8-3.4 2.3-.1.2.1.3.2.4l1.6 1c.5.3 2.5-.4 1.7-1z"/><path d="M83.3 164.3c-5.3 8.5-4 20.5-4.4 30.1 0 .7.5 1.2 1.2 1.2h.1c2.8-.6 3.6-3.2 1.6-5.2-.3-.4-.9-.5-1.4-.2-.4.3-.5.9-.2 1.4l.1.1-.7 1.9 1.3 1.2c.2-5 .4-9.9.7-14.9s.8-9.9 3.5-14.2c.6-1.2-1.1-2.5-1.8-1.4zM104.6 161c2.9 4 5 8.4 6.4 13.1 1.2 4.1 3 11.4.2 15.1-.3.6-.1 1.4.5 1.7.1.1.2.1.3.1 1.4.4 2.9-.1 3.8-1.3.4-.5.1-1.3-.3-1.6l-1-.8c-1.1-.9-1.5.9-.7 1.6l1 .8-.3-1.6-2.6.9.8 1.9c3.1-3.9 1.7-10.2.7-14.6-1.4-5.9-3.9-11.6-7.5-16.5-1.1-1.2-2 .3-1.3 1.2z"/><path d="M118 164.4l-6.8 4.4c-1.1.7-.4 2.2.8 1.4l6.8-4.3c1.1-.8.4-2.2-.8-1.5zM106.3 172.4c-4.8 4.3-11.7 6.4-18 4.2-.4-.1-2.4-.4-1.1.1 7.4 2.5 15.3 1.5 21.3-3.8-.2.1-1.7-.9-2.2-.5zM33.7 159.5c-6.8 6.6-3.7 19.2-2.7 27.4 1.4 12 3.4 23.9 6.1 35.6.3.6 1 1 1.7.8l2.8-1.4c1-.5-.7-1.8-1.5-1.4l-2.8 1.4 1.7.8c-2.5-11.2-4.5-22.5-5.9-33.8-.6-5.1-1.2-10.2-1.5-15.4-.2-4.6.2-9.4 3.7-12.8.8-.7-1.1-1.8-1.6-1.2zM129 154.3c9 17.8 15.7 36.7 19.9 56.1.3 1.2 2.4.7 2.1-.6-4.2-19.5-10.9-38.3-19.9-56.1-.6-1.1-2.7-.5-2.1.6zM124.4 37.3c.1-6.1 7.6-10.3 5.3-16.7-1.1-3.1-3.9-5.2-5.6-7.9-2.3-3.7-3-8.1-2-12.3l-2 .4c7.5 4.8 11.6 13.5 10.7 22.3-.1.7 1.9.3 2.2-.1 1.5-2.3 4.1-3.6 6.9-3.3 2.2.2 5.2 1.6 5.2 4.3l-.4 1.7-4.5 1.8c-1.1-.1-2.7-1.6-3.4-2.4-1.2-1.5-2.2-3.1-3.1-4.8-.3-.6-2.4-.2-2.1.4 2.1 3.9 4.9 8 9.8 8 3 0 6.7-2.4 5.7-5.8-.9-3.1-5-4.3-7.8-4.3-3.4 0-6.5 1.6-8.5 4.3l2.2-.1c.9-9.1-3.4-17.9-11.1-22.8-.5-.3-1.9-.3-2 .4-.8 3.4-.5 6.9.8 10.1 1.5 3.5 4.5 5.7 6.3 9 3.7 6.7-4.6 11.4-4.8 17.9 0 .7 2.2.6 2.2-.1z"/><path d="M115.4 34.5c.2-2.7 3.3-4.7 2.4-7.6-.4-1.2-1.5-2.1-2.2-3.1-1.3-1.8-1.8-4-1.3-6.1l-1 .2c3.4 2.2 5.2 6.1 4.9 10.2 0 .4.9.1 1.1 0 6.3-.9 6.7-.7 1.4.5-.4-.6-.8-1.2-1.1-1.8-.2-.3-1.2-.1-1 .2 1 1.9 2.3 3.7 4.6 3.6 1.3-.1 2.9-1 2.5-2.6-.9-3.4-6.1-1.8-7.5 0h1.1c.4-4.1-1.6-8.1-5-10.4-.2-.2-.9-.1-1 .2-.7 3.9 1.2 5.2 3 8.3 2 3.3-1.7 5.4-1.9 8.5-.1.4 1 .3 1-.1z"/></svg>