<svg xmlns="http://www.w3.org/2000/svg" width="137.631" height="158.584"><g data-name="グループ化 515"><path data-name="パス 523" d="M131.948 96.834c0 42.928-29.228 57.25-65.268 57.25a86.255 86.255 0 0 1-18.543-1.942c-21.147-8.551-30.149-19.5-30.149-49.717 0-42.928 23.732-94.554 59.773-94.554a39.687 39.687 0 0 1 6.49.53c27.506 12.569 47.697 52.759 47.697 88.433z" fill="#ffd750"/><g data-name="グループ化 312"><path data-name="パス 333" d="M129.171 94.111c-.306 26.057-12.688 49.331-38.993 56.6-25.143 6.943-56.521.858-71.69-21.866-15.721-23.55-10.579-56.9.5-81.243C30.188 22.985 54.909-5.43 84.634 9.339c29.453 14.633 44.189 53.726 44.538 84.775.044 3.854 8.495 2.22 8.46-.9-.359-31.857-14.54-69.534-43.19-86.492-28.889-17.1-59.146.966-75.513 26.063C2.159 58.504-7.256 96.8 6.911 125.661c13.684 27.878 47.12 36.406 75.849 31.713 14.4-2.353 28.538-8.4 38.675-19.159 11.529-12.236 16-28.5 16.2-45 .041-3.844-8.426-2.249-8.464.896z" fill="#333"/></g><path data-name="パス 524" d="M77.387 74.611a13.056 13.056 0 0 1-7.65-7.95 9.889 9.889 0 0 1 2.843-10.367 9.4 9.4 0 0 1 9.039-1.407 11 11 0 0 1 6.41 6.69 10.539 10.539 0 0 1-1.846 10.364A8.431 8.431 0 0 1 76.13 73.81" fill="#333"/><path data-name="パス 526" d="M107.35 70.041c1.11-.314 1.634 0 2.539-.941 2.028-2.113 1.877-5.758.864-8.506s-3.936-4.886-6.817-4.349c-3.052.569-5.014 3.936-4.781 7.033s2.782 6.763 8.195 6.763z" fill="#333"/><g data-name="グループ化 313"><path data-name="パス 337" d="M74.154 97.69a52.173 52.173 0 0 0 6.22-6.851c1.379-1.845 6.086-11.815 10.1-6.03 6.094 8.787-17.525 15.852-21.816 9.565l-3.345 2.431a13.309 13.309 0 0 0 12.9-1.163c4.546-3.2 6.2-8.876 10.022-12.729l-3.426-1.094a93.428 93.428 0 0 1-11.1 15.031c-1.952 2.159 1.643 2.957 3.13 1.5l11.545-11.3-3.426-1.094-6.263 9.052c-1.439 2.08 2.334 2.342 3.427 1.094a48.179 48.179 0 0 1 9.887-8.612l-2.725-1.864-5.639 7.5c-1.726 2.3 1.7 3.11 3.13 1.5l4.629-5.193-3.13-1.5a17.808 17.808 0 0 1-6.013 5.274c-2.352 1.259-1.137 4.016 1.317 2.817 4.513-2.2 8.618-4.932 8.59-10.409-.011-2.391-3.618-.628-4.115.6l-1.76 4.35 4.115-.6.4-6.465c.139-2.23-3.341-.681-3.941.173l-1.033 1.474c-1.469 2.093 2.33 2.286 3.426 1.094l.5-.542c1.929-2.1-1.67-3.091-3.13-1.5l-.5.542 3.427 1.094 1.034-1.474-3.941.173-.4 6.464c-.148 2.359 3.625.606 4.115-.6l1.759-4.352-4.114.6c.019 3.912-3.047 5.239-5.752 6.561l1.317 2.817a22.9 22.9 0 0 0 7.826-6.59c1.727-2.295-1.7-3.11-3.13-1.5l-4.629 5.193 3.13 1.5 5.639-7.5c1.58-2.1-1.116-2.924-2.725-1.864a52.479 52.479 0 0 0-10.7 9.338l3.427 1.094 6.263-9.054c1.5-2.175-2.346-2.151-3.427-1.094l-11.545 11.3 3.13 1.5A98.527 98.527 0 0 0 88.523 82.5c1.355-2.282-2.337-2.192-3.427-1.094-5.081 5.125-7.646 16.135-17.046 12.378-1.127-.452-4.472.78-3.344 2.432 3.6 5.273 12.161 3.78 17.518 2.537 5.591-1.3 12.223-4.708 12.939-11.12.594-5.322-3.92-9.706-9.219-8.177-2.529.731-3.995 2.57-5.406 4.673-2.937 4.369-5.639 8.422-9.517 12.054-2.073 1.941 1.583 2.948 3.13 1.5z" fill="#333"/></g><g data-name="グループ化 314"><path data-name="パス 338" d="M114.121 93.014a54.969 54.969 0 0 1-7.951-10.068c-1.184-1.762-2.434-3.334-4.642-3.75-4.445-.838-8.558 3.149-8.371 7.5.25 5.83 6.16 8.571 11.138 9.572s11.665 1.713 14.893-3.016c1.181-1.73-1.4-2.2-2.52-1.752-7.652 3.059-10.21-6.7-14.3-10.829-1.188-1.2-4.7.5-3.7 2.189a82.333 82.333 0 0 0 9.762 13.237l3.456-2.529-9.644-9.441c-1.194-1.169-4.812.584-3.7 2.187l5.232 7.562 3.7-2.189a43.711 43.711 0 0 0-8.955-7.74c-1.495-.985-4.32 1.149-3.1 2.773l4.711 6.268 3.456-2.529-3.867-4.339c-1.323-1.484-4.808.732-3.455 2.53a17.883 17.883 0 0 0 6.135 5.2l2.744-3.017c-2.678-1.307-5.3-2.738-5.283-6.095l-4.053 1.438 1.471 3.634c.747 1.849 4.156.237 4.051-1.438l-.337-5.4-4.051 1.439.862 1.23 3.7-2.188-.415-.452c-1.338-1.456-4.985.864-3.457 2.529l.417.453c1.162 1.265 4.793-.632 3.7-2.189l-.864-1.23c-1.066-1.521-4.17-.469-4.051 1.438l.337 5.4 4.051-1.439-1.47-3.634c-.776-1.916-4.044-.176-4.053 1.44-.022 4.275 3.2 6.374 6.7 8.08 1.724.843 4.936-1.843 2.744-3.017a15.98 15.98 0 0 1-5.424-4.712l-3.455 2.53 3.866 4.337c1.323 1.486 4.807-.731 3.456-2.529l-4.711-6.268-3.1 2.773a40.38 40.38 0 0 1 8.24 7.254c1.143 1.3 4.777-.633 3.7-2.189l-5.232-7.56-3.7 2.187 9.643 9.441c1.4 1.374 4.98-.844 3.456-2.529a77.969 77.969 0 0 1-9.27-12.556l-3.7 2.189c3.114 3.14 4.462 7.912 8.211 10.451 3.354 2.27 7.244 2.114 10.866.665l-2.52-1.753c-1.753 2.57-10.1.5-12.447-.434-2.048-.812-7.87-4.773-5.581-7.764l3.521-1.2a12.665 12.665 0 0 1 1.9 2.719c.834 1.259 1.592 2.548 2.491 3.768a43.188 43.188 0 0 0 5.316 5.9c1.45 1.357 5.087-1 3.457-2.53z" fill="#333"/></g></g></svg>