<svg xmlns="http://www.w3.org/2000/svg" width="192.472" height="94.145"><g data-name="グループ化 196"><g data-name="グループ化 169"><g data-name="グループ化 167"><path data-name="パス 311" d="M110.365 33.247v3.815h-8.061v4.148h7.517v3.593h-7.517v4.958h8.061v3.816H97.674v-20.33z" fill="#fff"/></g><g data-name="グループ化 168"><path data-name="パス 312" d="M191.438 33.609v3.9a16.96 16.96 0 0 0-4.848-.78c-4.058 0-6.1 2.229-6.1 6.685s2.016 6.684 5.638 6.684a6.087 6.087 0 0 0 1.961-.278v-5.015h-4.331v-3.593h8.715v11.476a18.391 18.391 0 0 1-6.617 1.17 9.874 9.874 0 0 1-7.326-2.757 10.529 10.529 0 0 1-2.751-7.687q0-4.929 2.7-7.687c1.8-1.838 4.33-2.757 7.571-2.757a21.723 21.723 0 0 1 5.388.639z" fill="#fff"/></g></g><g data-name="グループ化 170" fill="#fff"><path data-name="パス 313" d="M110.15 70.322v2.51H97.017v-2.51h5.38v-6.216l-3.949.3-.229-3.523 1.837-.1.065.947 8.923-.615.163 2.493-4.161.316v6.4z"/><path data-name="パス 314" d="M113.312 63.951l1.955-.331.822 4.5-2 .373zm9.706.194l-.122 1.393a10.3 10.3 0 0 1-5.567 7.339l-.97-1.738a8.58 8.58 0 0 0 4.556-5.766l-.7-.055.109-1.366zm-6.632-.469l2.022-.125.257 4.442-2.023.11z"/><path data-name="パス 315" d="M126.254 63.951l1.955-.331.822 4.5-1.995.373zm9.7.194l-.121 1.393a10.3 10.3 0 0 1-5.567 7.339l-.97-1.738a8.582 8.582 0 0 0 4.556-5.766l-.7-.055.108-1.366zm-6.632-.469l2.022-.125.257 4.442-2.023.11z"/><path data-name="パス 316" d="M139.202 63.951l1.955-.331.822 4.5-2 .373zm9.706.194l-.122 1.393a10.3 10.3 0 0 1-5.567 7.339l-.97-1.738a8.578 8.578 0 0 0 4.556-5.766l-.7-.055.108-1.366zm-6.633-.469l2.022-.125.257 4.442-2.023.11z"/><path data-name="パス 317" d="M152.147 63.951l1.955-.331.822 4.5-1.995.373zm9.7.194l-.121 1.393a10.3 10.3 0 0 1-5.567 7.339l-.97-1.738a8.579 8.579 0 0 0 4.555-5.766l-.7-.055.108-1.366zm-6.632-.469l2.022-.125.257 4.442-2.023.11z"/><path data-name="パス 318" d="M165.092 63.951l1.956-.331.822 4.5-2 .373zm9.706.194l-.122 1.393a10.3 10.3 0 0 1-5.567 7.339l-.97-1.738a8.578 8.578 0 0 0 4.556-5.766l-.7-.055.109-1.366zm-6.633-.469l2.022-.125.257 4.442-2.023.11z"/><path data-name="パス 319" d="M190.742 61.362l-5.072 12.632-2.47-.947 3.982-9.507h-5.233a13.531 13.531 0 0 1-3.756 5.851l-1.787-1.812c1.706-1.712 3.121-3.623 3.251-6.1l-1.17.051-.065-1.846 3.739-.1c.032.547.048 1.03.065 1.479l5.3.016-.358-1.978 1.561-.283.39 2.261h.537l-.341-1.978 1.56-.283.455 2.444z"/></g><g data-name="グループ化 172"><g data-name="グループ化 171"><path data-name="パス 320" d="M76.649 55.827c-.2 16.554-8.709 30.612-25.608 34.128-14.3 2.975-31.3-.654-39.9-13.289-9.963-14.632-6.226-35.737 1.213-50.6 6.993-13.97 21.492-28.877 38.175-20.337 17.26 8.836 25.924 31.727 26.121 50.1.025 2.369 5.049 1.448 5.029-.5-.2-18.855-8.577-41.112-25.44-51.253-16.035-9.641-33.275-.9-43.32 12.913-11.227 15.443-17.562 39.545-8.827 57.5 7.685 15.8 26.03 21.14 42.463 19.306 9.015-1.006 17.916-4.344 24.515-10.723 7.542-7.292 10.488-17.49 10.61-27.748.025-2.356-5.008-1.455-5.031.503z" fill="#fff"/></g></g><g data-name="グループ化 173"><path data-name="パス 321" d="M45.93 44.273a7.747 7.747 0 0 1-4.539-4.717 5.866 5.866 0 0 1 1.688-6.151 5.575 5.575 0 0 1 5.362-.835 6.522 6.522 0 0 1 3.8 3.969 6.252 6.252 0 0 1-1.094 6.149 5 5 0 0 1-5.965 1.109" fill="#fff"/></g><g data-name="グループ化 175"><path data-name="パス 323" d="M63.71 41.567c.657-.186.969 0 1.505-.558 1.2-1.254 1.114-3.416.513-5.047a3.843 3.843 0 0 0-4.044-2.58 3.915 3.915 0 0 0-2.837 4.173c.139 1.835 1.65 4.012 4.863 4.012z" fill="#fff"/></g><g data-name="グループ化 177"><g data-name="グループ化 176"><path data-name="パス 324" d="M44.014 57.97a30.978 30.978 0 0 0 3.69-4.065c.818-1.095 3.611-7.01 5.991-3.577 3.615 5.213-10.4 9.4-12.943 5.675l-1.989 1.442a7.9 7.9 0 0 0 7.651-.69c2.7-1.9 3.68-5.266 5.946-7.552l-2.033-.649a55.413 55.413 0 0 1-6.583 8.918c-1.158 1.281.975 1.755 1.857.891l6.849-6.706-2.033-.649-3.716 5.371c-.854 1.234 1.385 1.389 2.033.649a28.607 28.607 0 0 1 5.867-5.11l-1.618-1.106-3.345 4.451c-1.024 1.362 1.006 1.845 1.857.89l2.747-3.081-1.857-.89a10.564 10.564 0 0 1-3.568 3.129c-1.4.747-.675 2.383.783 1.671 2.677-1.307 5.112-2.926 5.1-6.176-.007-1.419-2.146-.372-2.442.357l-1.044 2.581 2.441-.357.24-3.836c.083-1.323-1.982-.4-2.337.1l-.614.875c-.871 1.242 1.383 1.356 2.033.649l.295-.321c1.144-1.246-.99-1.834-1.857-.89l-.295.322 2.033.649.614-.875-2.338.1-.239 3.835c-.087 1.4 2.152.359 2.441-.357l1.045-2.582-2.442.358c.011 2.321-1.808 3.109-3.413 3.893l.783 1.671a13.591 13.591 0 0 0 4.643-3.91c1.025-1.362-1.007-1.845-1.857-.89l-2.746 3.081 1.857.89 3.346-4.451c.939-1.248-.662-1.735-1.617-1.106a31.132 31.132 0 0 0-6.347 5.541l2.033.649 3.716-5.372c.893-1.29-1.392-1.276-2.033-.649l-6.85 6.706 1.857.891a58.451 58.451 0 0 0 6.935-9.4c.8-1.354-1.386-1.3-2.033-.649-3.015 3.04-4.537 9.573-10.113 7.344-.67-.268-2.654.463-1.985 1.443 2.136 3.128 7.215 2.242 10.393 1.506 3.317-.769 7.252-2.793 7.677-6.6a4.329 4.329 0 0 0-5.47-4.851 5.908 5.908 0 0 0-3.208 2.773 39.154 39.154 0 0 1-5.647 7.152c-1.23 1.151.939 1.75 1.857.89z" fill="#fff"/></g></g><g data-name="グループ化 179"><g data-name="グループ化 178"><path data-name="パス 325" d="M67.728 55.197a32.647 32.647 0 0 1-4.718-5.973 4.07 4.07 0 0 0-7.721 2.223c.148 3.459 3.655 5.086 6.608 5.679s6.922 1.016 8.836-1.789c.7-1.026-.833-1.3-1.5-1.039-4.54 1.815-6.058-3.975-8.486-6.425-.7-.71-2.792.3-2.2 1.3a48.9 48.9 0 0 0 5.792 7.854l2.05-1.5-5.722-5.6c-.708-.694-2.854.346-2.2 1.3l3.1 4.487 2.2-1.3a25.936 25.936 0 0 0-5.313-4.593c-.887-.584-2.563.682-1.839 1.645l2.795 3.719 2.05-1.5-2.294-2.574c-.785-.881-2.853.434-2.05 1.5a10.611 10.611 0 0 0 3.641 3.085l1.627-1.79c-1.589-.776-3.145-1.625-3.134-3.616l-2.4.853.872 2.156c.444 1.1 2.466.14 2.4-.853l-.2-3.2-2.4.854.513.73 2.2-1.3-.246-.268c-.794-.864-2.958.513-2.05 1.5l.246.269c.69.751 2.844-.375 2.2-1.3l-.513-.73a1.411 1.411 0 0 0-2.4.853l.2 3.2 2.4-.854-.872-2.156c-.46-1.137-2.4-.1-2.4.854-.012 2.536 1.9 3.782 3.974 4.794 1.022.5 2.927-1.094 1.627-1.79a9.482 9.482 0 0 1-3.218-2.8l-2.05 1.5 2.294 2.573c.785.882 2.852-.433 2.05-1.5l-2.795-3.719-1.838 1.645a23.974 23.974 0 0 1 4.89 4.3c.677.774 2.834-.376 2.2-1.3l-3.1-4.486-2.2 1.3 5.721 5.6c.832.815 2.954-.5 2.05-1.5a46.269 46.269 0 0 1-5.5-7.449l-2.2 1.3c1.848 1.863 2.647 4.694 4.872 6.2a6.7 6.7 0 0 0 6.446.395l-1.5-1.04c-1.04 1.525-5.995.294-7.385-.258-1.214-.482-4.669-2.832-3.311-4.606l2.089-.714a7.471 7.471 0 0 1 1.126 1.613c.5.747.945 1.512 1.478 2.236a25.568 25.568 0 0 0 3.155 3.5c.859.8 3.017-.595 2.05-1.5z" fill="#fff"/></g></g><g data-name="グループ化 184"><g data-name="グループ化 182"><g data-name="グループ化 181"><g data-name="グループ化 180"><path data-name="パス 326" d="M131.216 46.565a8.165 8.165 0 0 1-.052.922 8.6 8.6 0 0 1-17.141-.922c0-.25.009-.509.034-.784a13.654 13.654 0 0 1 .311-2.051c1.034-4.843 4.335-11.04 8.247-11.04 4.3 0 7.868 7.489 8.5 12.427a11.01 11.01 0 0 1 .101 1.448z" fill="#fff"/></g></g></g><g data-name="グループ化 183"><path data-name="パス 327" d="M131.218 46.565a8.165 8.165 0 0 1-.052.922l-2.637-2.387-3.81 3.447-3.8-3.447-3.809 3.447-3.051-2.766a13.651 13.651 0 0 1 .31-2.051l2.741 2.491 3.809-3.447 3.8 3.447 3.81-3.447 2.585 2.344a10.967 10.967 0 0 1 .104 1.447z" fill="#ffc500"/></g></g><g data-name="グループ化 189"><g data-name="グループ化 187"><g data-name="グループ化 186"><g data-name="グループ化 185"><path data-name="パス 328" d="M151.72 46.565a8.137 8.137 0 0 1-.052.922 8.6 8.6 0 0 1-17.141-.922c0-.25.009-.509.034-.784a13.667 13.667 0 0 1 .31-2.051c1.034-4.843 4.335-11.04 8.247-11.04 4.3 0 7.868 7.489 8.5 12.427a11.032 11.032 0 0 1 .102 1.448z" fill="#fff"/></g></g></g><g data-name="グループ化 188"><path data-name="パス 329" d="M151.723 46.565a8.136 8.136 0 0 1-.052.922l-2.637-2.387-3.809 3.447-3.8-3.447-3.809 3.447-3.051-2.766a13.65 13.65 0 0 1 .31-2.051l2.741 2.491 3.809-3.447 3.8 3.447 3.809-3.447 2.586 2.344a11.01 11.01 0 0 1 .103 1.447z" fill="#ffc500"/></g></g><g data-name="グループ化 194"><g data-name="グループ化 192"><g data-name="グループ化 191"><g data-name="グループ化 190"><path data-name="パス 330" d="M172.288 46.565a8.137 8.137 0 0 1-.052.922 8.6 8.6 0 0 1-17.141-.922c0-.25.009-.509.035-.784a13.682 13.682 0 0 1 .31-2.051c1.034-4.843 4.335-11.04 8.248-11.04 4.3 0 7.868 7.489 8.5 12.427a11.032 11.032 0 0 1 .1 1.448z" fill="#fff"/></g></g></g><g data-name="グループ化 193"><path data-name="パス 331" d="M172.289 46.565a8.164 8.164 0 0 1-.052.922L169.6 45.1l-3.809 3.447-3.8-3.447-3.809 3.447-3.057-2.764a13.682 13.682 0 0 1 .31-2.051l2.741 2.491 3.809-3.447 3.8 3.447 3.809-3.447 2.585 2.344a11.01 11.01 0 0 1 .11 1.445z" fill="#ffc500"/></g></g></g></svg>