<svg xmlns="http://www.w3.org/2000/svg" width="37.678" height="38.487"><g data-name="グループ化 477"><g data-name="グループ化 471"><g data-name="グループ化 411" transform="translate(-977.564 -389.142)" fill="none" stroke="#1d1d1d"><circle data-name="楕円形 46" cx="7.732" cy="7.732" r="7.732" transform="translate(985.209 390.842)"/><path data-name="パス 575" d="M1005.174 420.477a2.635 2.635 0 0 0 2.454-3.576c-1.9-5.078-7.759-8.776-14.686-8.776s-12.782 3.7-14.686 8.776a2.635 2.635 0 0 0 2.454 3.576z"/></g><g data-name="グループ化 458"><path data-name="パス 535" d="M2.332 16.323a1.506 1.506 0 1 1 1.506-1.506 1.508 1.508 0 0 1-1.506 1.506zm0-2.031a.524.524 0 1 0 .524.524.525.525 0 0 0-.524-.521z" fill="#1d1d1d"/></g><g data-name="グループ化 459"><path data-name="パス 537" d="M29.127 35.802a.963.963 0 1 1 .963-.964.965.965 0 0 1-.963.964zm0-1.436a.473.473 0 1 0 .472.472.473.473 0 0 0-.472-.472z" fill="#1d1d1d"/></g><g data-name="グループ化 460"><path data-name="パス 538" d="M37.381 18.457h-1.584a.3.3 0 0 1 0-.6h1.584a.3.3 0 0 1 0 .6z" fill="#1d1d1d"/></g><g data-name="グループ化 461"><path data-name="パス 539" d="M37.052 19.362h-3.394a.3.3 0 0 1 0-.6h3.394a.3.3 0 0 1 0 .6z" fill="#1d1d1d"/></g><g data-name="グループ化 467"><g data-name="グループ化 462"><path data-name="パス 540" d="M5.255 35.802a.248.248 0 0 1-.237-.174l-.3-.967a.248.248 0 0 1 .474-.148l.3.967a.247.247 0 0 1-.163.31.243.243 0 0 1-.074.012z" fill="#1d1d1d"/></g><g data-name="グループ化 463"><path data-name="パス 541" d="M6.091 38.486a.249.249 0 0 1-.237-.174l-.3-.967a.248.248 0 0 1 .474-.147l.3.967a.248.248 0 0 1-.163.311.241.241 0 0 1-.074.01z" fill="#1d1d1d"/></g><g data-name="グループ化 464"><path data-name="パス 542" d="M3.67 37.236a.248.248 0 0 1-.074-.485l.967-.3a.248.248 0 1 1 .148.473l-.967.3a.238.238 0 0 1-.074.012z" fill="#1d1d1d"/></g><g data-name="グループ化 465"><path data-name="パス 543" d="M6.334 36.405a.248.248 0 0 1-.074-.485l.967-.3a.248.248 0 1 1 .148.474l-.967.3a.241.241 0 0 1-.074.011z" fill="#1d1d1d"/></g></g><g data-name="グループ化 466"><path data-name="パス 553" d="M27.371 1.487L27.131.24l1.248-.239.239 1.247zm0-1.087l.163.851.851-.163-.163-.851z" fill="#1d1d1d"/></g></g></g></svg>