<svg xmlns="http://www.w3.org/2000/svg" width="138.84" height="160.437"><g data-name="グループ化 326"><g data-name="グループ化 262"><g data-name="グループ化 172"><g data-name="グループ化 171"><path data-name="パス 320" d="M126.799 89.36c-.313 26.5-13.94 49-40.989 54.627-22.884 4.762-50.1-1.047-63.868-21.271-15.948-23.42-9.965-57.2 1.941-80.989 11.193-22.361 34.4-46.223 61.1-32.553 27.628 14.143 41.5 50.785 41.811 80.187.039 3.792 8.082 2.318 8.049-.8-.324-30.18-13.728-65.807-40.722-82.039-25.666-15.432-53.263-1.444-69.34 20.67-17.97 24.719-28.111 63.3-14.13 92.045 12.3 25.3 41.665 33.838 67.969 30.9 14.43-1.61 28.677-6.954 39.24-17.163 12.073-11.671 16.788-27.995 16.982-44.414.05-3.777-8.006-2.334-8.043.8z" fill="#fff"/></g></g><g data-name="グループ化 173"><path data-name="パス 321" d="M77.627 70.874a12.4 12.4 0 0 1-7.266-7.55 9.389 9.389 0 0 1 2.7-9.845 8.924 8.924 0 0 1 8.582-1.337 10.439 10.439 0 0 1 6.088 6.354 10.006 10.006 0 0 1-1.752 9.842 8.009 8.009 0 0 1-9.548 1.776" fill="#fff"/></g><g data-name="グループ化 175"><path data-name="パス 323" d="M106.086 66.534c1.052-.3 1.552 0 2.41-.894 1.926-2.007 1.782-5.468.821-8.078s-3.739-4.641-6.473-4.13c-2.9.541-4.763 3.739-4.541 6.679s2.641 6.423 7.783 6.423z" fill="#fff"/></g><g data-name="グループ化 177"><g data-name="グループ化 176"><path data-name="パス 324" d="M74.562 92.791a49.582 49.582 0 0 0 5.907-6.507c1.309-1.752 5.78-11.221 9.59-5.726 5.787 8.344-16.643 15.054-20.718 9.084l-3.177 2.309a12.64 12.64 0 0 0 12.247-1.1c4.318-3.035 5.89-8.43 9.518-12.088l-3.254-1.039a88.7 88.7 0 0 1-10.538 14.275c-1.854 2.05 1.56 2.809 2.973 1.426L88.074 82.69l-3.254-1.039-5.948 8.6c-1.367 1.975 2.217 2.224 3.254 1.039a45.792 45.792 0 0 1 9.391-8.179l-2.589-1.77-5.355 7.125c-1.639 2.181 1.611 2.953 2.973 1.425l4.4-4.932-2.984-1.435a16.909 16.909 0 0 1-5.711 5.009c-2.234 1.2-1.08 3.814 1.253 2.675 4.284-2.093 8.183-4.683 8.157-9.885-.011-2.271-3.435-.6-3.908.571l-1.672 4.132 3.908-.571.383-6.14c.133-2.117-3.172-.647-3.741.164l-.982 1.4c-1.394 1.988 2.214 2.171 3.254 1.039l.472-.514c1.832-1.995-1.585-2.936-2.973-1.425l-.472.515 3.254 1.039.982-1.4-3.743.164-.382 6.139c-.14 2.24 3.444.575 3.908-.571l1.672-4.133-3.908.573c.018 3.715-2.894 4.976-5.463 6.231l1.253 2.675a21.753 21.753 0 0 0 7.431-6.259c1.64-2.18-1.611-2.953-2.973-1.425l-4.4 4.932 2.973 1.425 5.355-7.125c1.5-2-1.059-2.777-2.588-1.77a49.832 49.832 0 0 0-10.16 8.869l3.254 1.039 5.948-8.6c1.429-2.065-2.228-2.043-3.254-1.039L74.125 91.993l2.973 1.426a93.569 93.569 0 0 0 11.1-15.05c1.287-2.167-2.219-2.082-3.254-1.039-4.825 4.867-7.262 15.323-16.187 11.756-1.072-.429-4.247.741-3.177 2.309 3.419 5.008 11.549 3.589 16.636 2.41 5.31-1.231 11.609-4.471 12.288-10.561.564-5.054-3.723-9.218-8.755-7.765-2.4.694-3.792 2.44-5.135 4.438-2.789 4.149-5.355 8-9.038 11.448-1.969 1.843 1.5 2.8 2.973 1.425z" fill="#fff"/></g></g><g data-name="グループ化 179"><g data-name="グループ化 178"><path data-name="パス 325" d="M112.519 88.351a52.268 52.268 0 0 1-7.551-9.561c-1.124-1.673-2.312-3.166-4.408-3.562-4.22-.8-8.128 2.991-7.95 7.121.237 5.537 5.85 8.14 10.578 9.091s11.08 1.626 14.144-2.864c1.121-1.643-1.333-2.087-2.393-1.664-7.267 2.9-9.7-6.362-13.583-10.284-1.128-1.137-4.468.476-3.516 2.079a78.283 78.283 0 0 0 9.271 12.571l3.282-2.4-9.159-8.966c-1.134-1.11-4.569.555-3.515 2.077l4.968 7.182 3.516-2.079a41.51 41.51 0 0 0-8.5-7.351c-1.419-.935-4.1 1.091-2.944 2.633l4.474 5.952 3.282-2.4-3.672-4.12c-1.257-1.41-4.566.7-3.282 2.4a16.985 16.985 0 0 0 5.828 4.937l2.6-2.865c-2.544-1.241-5.034-2.6-5.017-5.788l-3.848 1.366 1.4 3.451c.71 1.756 3.947.225 3.847-1.366l-.32-5.129-3.848 1.367.821 1.168 3.515-2.078-.394-.429c-1.27-1.382-4.734.821-3.282 2.4l.395.43c1.105 1.2 4.552-.6 3.515-2.079l-.821-1.168c-1.012-1.444-3.96-.446-3.847 1.366l.32 5.129 3.848-1.367-1.4-3.451c-.737-1.82-3.841-.167-3.849 1.367-.019 4.06 3.042 6.053 6.361 7.674 1.636.8 4.686-1.751 2.6-2.865a15.177 15.177 0 0 1-5.151-4.475l-3.282 2.405 3.672 4.119c1.257 1.411 4.565-.694 3.282-2.4l-4.474-5.952-2.942 2.633a38.376 38.376 0 0 1 7.827 6.889c1.084 1.239 4.537-.6 3.515-2.079l-4.969-7.18-3.515 2.078 9.158 8.967c1.332 1.305 4.729-.8 3.282-2.4a74.069 74.069 0 0 1-8.8-11.924l-3.515 2.079c2.958 2.983 4.236 7.514 7.8 9.925 3.184 2.156 6.878 2.007 10.318.632l-2.393-1.665c-1.665 2.44-9.6.471-11.82-.412-1.944-.771-7.474-4.533-5.3-7.373l3.344-1.144a11.951 11.951 0 0 1 1.8 2.582c.793 1.2 1.512 2.42 2.366 3.578a40.924 40.924 0 0 0 5.05 5.6c1.375 1.289 4.83-.952 3.282-2.4z" fill="#fff"/></g></g></g><path data-name="パス 362" d="M18.624 129.559S2.138 136.517 2 150.417" fill="none" stroke="#fff" stroke-width="4"/><path data-name="パス 363" d="M31.624 132.559S15.138 139.517 15 153.417" fill="none" stroke="#fff" stroke-width="4"/><path data-name="パス 364" d="M48.624 135.559S32.138 142.517 32 156.417" fill="none" stroke="#fff" stroke-width="4"/><path data-name="パス 365" d="M71.624 139.559S55.138 146.517 55 160.417" fill="none" stroke="#fff" stroke-width="4"/><path data-name="パス 366" d="M120.217 118.559s16.486 6.958 16.624 20.858" fill="none" stroke="#fff" stroke-width="4"/><path data-name="パス 367" d="M112.027 132.781s6.676-7.264 6.813 6.635" fill="none" stroke="#fff" stroke-width="4"/></g></svg>