<svg xmlns="http://www.w3.org/2000/svg" width="16.036" height="13.039"><g data-name="Logo — FIXED"><path data-name="パス 269" d="M5.037 13.039a9.3 9.3 0 0 0 9.362-9.362c0-.141 0-.282-.006-.424a6.7 6.7 0 0 0 1.643-1.707 6.669 6.669 0 0 1-1.893.52 3.311 3.311 0 0 0 1.45-1.822 6.545 6.545 0 0 1-2.092.8 3.291 3.291 0 0 0-5.692 2.252 3.637 3.637 0 0 0 .083.751A9.344 9.344 0 0 1 1.11.6 3.3 3.3 0 0 0 2.13 5a3.328 3.328 0 0 1-1.489-.411v.045a3.3 3.3 0 0 0 2.637 3.228 3.309 3.309 0 0 1-1.482.058A3.29 3.29 0 0 0 4.87 10.2a6.6 6.6 0 0 1-4.088 1.412 6.334 6.334 0 0 1-.783-.045 9.36 9.36 0 0 0 5.037 1.469" fill="#fff"/></g></svg>