<svg data-name="Logo — FIXED" xmlns="http://www.w3.org/2000/svg" width="24.886" height="20.235"><path data-name="パス 269" d="M7.817 20.235A14.435 14.435 0 0 0 22.346 5.706c0-.219 0-.438-.01-.657A10.4 10.4 0 0 0 24.885 2.4a10.351 10.351 0 0 1-2.938.807A5.138 5.138 0 0 0 24.2.378a10.158 10.158 0 0 1-3.246 1.235 5.108 5.108 0 0 0-8.833 3.5 5.645 5.645 0 0 0 .129 1.165A14.5 14.5 0 0 1 1.724.94a5.127 5.127 0 0 0 1.583 6.821 5.165 5.165 0 0 1-2.31-.637v.07a5.117 5.117 0 0 0 4.093 5.009 5.135 5.135 0 0 1-2.3.09 5.106 5.106 0 0 0 4.77 3.545 10.242 10.242 0 0 1-6.343 2.191 9.827 9.827 0 0 1-1.215-.07 14.525 14.525 0 0 0 7.817 2.28" fill="#1da1f2"/></svg>