<svg xmlns="http://www.w3.org/2000/svg" width="332.229" height="45.318"><g data-name="グループ化 146"><path data-name="パス 202" d="M223.21.485v8.157h-12.478V44.83h-10.291V8.644h-12.475V.485z" fill="#221816"/><path data-name="パス 203" d="M267.936 26.963q.563 1.248 1.078 2.559.521-1.339 1.1-2.6c.383-.845.781-1.661 1.187-2.453l11.383-22.426a3.776 3.776 0 0 1 .624-.9 2.058 2.058 0 0 1 .713-.472 2.511 2.511 0 0 1 .9-.152h9.024v44.314h-9.072v-25.5q0-1.857.185-4.017l-11.748 22.8a3.849 3.849 0 0 1-1.476 1.611 4.061 4.061 0 0 1-2.115.55h-1.4a4.06 4.06 0 0 1-2.115-.55 3.849 3.849 0 0 1-1.476-1.611L252.919 15.29c.081.71.139 1.415.183 2.115s.061 1.344.061 1.933v25.5h-9.07V.517h9.024a2.463 2.463 0 0 1 .9.152 2.03 2.03 0 0 1 .718.472 3.77 3.77 0 0 1 .624.9l11.413 22.517q.6 1.154 1.164 2.405z" fill="#221816"/><path data-name="パス 204" d="M332.232.485v7.913h-18.2v10.348h13.939v7.609h-13.939v10.561h18.2v7.913h-28.551V.485z" fill="#221816"/><g data-name="グループ化 179" fill="#ef516c"><path data-name="パス 199" d="M44.862 44.831h-7.976a3.675 3.675 0 0 1-2.207-.624 3.211 3.211 0 0 1-1.2-1.6l-2.617-7.731H14l-2.617 7.731a3.535 3.535 0 0 1-3.348 2.222H0L17.166.485h10.528zM16.375 27.878h12.111l-4.078-12.144q-.4-1.157-.928-2.724t-1.05-3.394c-.327 1.238-.659 2.384-1 3.439s-.67 1.968-.974 2.739z"/><path data-name="パス 200" d="M50.888 44.831V.485h16.313a31.016 31.016 0 0 1 7.822.852 14.923 14.923 0 0 1 5.265 2.4 9.133 9.133 0 0 1 2.967 3.774 12.8 12.8 0 0 1 .926 4.961 9.723 9.723 0 0 1-.426 2.876 8.457 8.457 0 0 1-1.337 2.6 10.1 10.1 0 0 1-2.344 2.207 15.13 15.13 0 0 1-3.442 1.72 12.21 12.21 0 0 1 6.485 3.454 8.946 8.946 0 0 1 2.1 6.13 12.685 12.685 0 0 1-1.1 5.268 12.033 12.033 0 0 1-3.213 4.243 15.219 15.219 0 0 1-5.217 2.836 22.8 22.8 0 0 1-7.094 1.017zm10.287-25.687h5.357a17.6 17.6 0 0 0 3.071-.243 6.374 6.374 0 0 0 2.328-.852 3.9 3.9 0 0 0 1.463-1.674 6.317 6.317 0 0 0 .5-2.678 7.534 7.534 0 0 0-.4-2.633 3.791 3.791 0 0 0-1.217-1.689 5.126 5.126 0 0 0-2.085-.913 14.313 14.313 0 0 0-3-.274h-6.026zm0 6.878v11.046h7.244a9.048 9.048 0 0 0 3.333-.517 5.225 5.225 0 0 0 2.021-1.337 4.464 4.464 0 0 0 1-1.857 8.069 8.069 0 0 0 .274-2.1 7.005 7.005 0 0 0-.32-2.189 3.639 3.639 0 0 0-1.093-1.643 5.356 5.356 0 0 0-2.054-1.035 11.988 11.988 0 0 0-3.226-.365z"/><path data-name="パス 201" d="M137.017 22.644a23.81 23.81 0 0 1-1.659 8.946 21.142 21.142 0 0 1-11.931 11.994 26.482 26.482 0 0 1-18.855 0A21.161 21.161 0 0 1 92.597 31.59a24.957 24.957 0 0 1 0-17.893 21.285 21.285 0 0 1 4.687-7.183 21.671 21.671 0 0 1 7.289-4.778 24.8 24.8 0 0 1 9.435-1.735 24.5 24.5 0 0 1 9.42 1.75 21.726 21.726 0 0 1 7.259 4.794 21.4 21.4 0 0 1 4.672 7.183 23.75 23.75 0 0 1 1.658 8.916zm-10.531 0a19.173 19.173 0 0 0-.852-5.92 12.537 12.537 0 0 0-2.45-4.459 10.566 10.566 0 0 0-3.911-2.8 13.46 13.46 0 0 0-5.265-.974 13.658 13.658 0 0 0-5.311.974 10.539 10.539 0 0 0-3.926 2.8 12.538 12.538 0 0 0-2.45 4.459 21.092 21.092 0 0 0 0 11.87 12.5 12.5 0 0 0 2.45 4.456 10.37 10.37 0 0 0 3.926 2.787 13.849 13.849 0 0 0 5.311.959 13.648 13.648 0 0 0 5.265-.959 10.4 10.4 0 0 0 3.911-2.787 12.5 12.5 0 0 0 2.45-4.456 19.282 19.282 0 0 0 .853-5.95z"/><path data-name="パス 211" d="M162.827 36.705a9.415 9.415 0 0 0 3.7-.687 7.415 7.415 0 0 0 2.752-1.961 8.635 8.635 0 0 0 1.722-3.122 13.675 13.675 0 0 0 .591-4.182V.485h10.29v26.266a20.566 20.566 0 0 1-1.321 7.487 16.838 16.838 0 0 1-3.792 5.874 17.081 17.081 0 0 1-6 3.832 23.767 23.767 0 0 1-15.918 0 17.058 17.058 0 0 1-6-3.832 16.619 16.619 0 0 1-3.774-5.874 20.725 20.725 0 0 1-1.309-7.487V.485h10.287V26.72a13.623 13.623 0 0 0 .593 4.185 8.834 8.834 0 0 0 1.72 3.135 7.367 7.367 0 0 0 2.754 1.976 9.414 9.414 0 0 0 3.705.689z"/></g><path data-name="パス 212" d="M171.589 1.205v25.548a13.675 13.675 0 0 1-.591 4.182 8.635 8.635 0 0 1-1.722 3.122 7.415 7.415 0 0 1-2.752 1.961 10.291 10.291 0 0 1-7.4 0 7.367 7.367 0 0 1-2.754-1.976 8.834 8.834 0 0 1-1.72-3.135 12.418 12.418 0 0 1-.472-2.349l-6.506 10.227a16.24 16.24 0 0 0 1.184 1.324 17.058 17.058 0 0 0 6 3.832 23.767 23.767 0 0 0 15.918 0 17.081 17.081 0 0 0 6-3.832 16.838 16.838 0 0 0 3.792-5.874 20.566 20.566 0 0 0 1.321-7.487V.485h-9.833z" fill="#221816"/></g></svg>