<svg xmlns="http://www.w3.org/2000/svg" width="1926.848" height="1150.717"><defs><linearGradient id="a" x1="1" y1=".472" x2="0" y2=".531" gradientUnits="objectBoundingBox"><stop offset="0" stop-color="#ffd7c2"/><stop offset="1" stop-color="#ffc6d0"/></linearGradient><linearGradient id="b" x1=".5" x2=".5" y2="1" gradientUnits="objectBoundingBox"><stop offset="0" stop-color="#ffd6c2"/><stop offset="1" stop-color="#ffb5be"/></linearGradient></defs><g data-name="グループ化 243"><path data-name="パス 357" d="M-18264 16230.849s212.178 124.309 461.355 106.066 389.584-143.615 691.156-168.906 771.317 96.646 771.317 96.646v998.1s-266.694-134.209-738.694-63.615-679.9 193.572-1185.135 48.58c-6.792 1.38.001-1016.871.001-1016.871z" transform="translate(18267.02 -16164.555)" fill="url(#a)"/><path data-name="交差 14" d="M18344.963-7823.331c-.709-292.029 2.928-836.952 2.928-836.952s212.178 124.3 461.354 106.063 389.586-143.617 691.156-168.9 771.316 96.641 771.316 96.641v23.61c-300.223 114.244-795.105 338.756-878.578 602.886-56.213 177.861-302.039 225.562-549.547 225.567-196.459.002-393.979-30.048-498.629-48.915z" transform="translate(-18344.871 8726.578)" fill="url(#b)"/></g></svg>