<svg xmlns="http://www.w3.org/2000/svg" width="167.025" height="45.904"><g data-name="グループ化 166"><path data-name="パス 194" d="M-.001 45.407V.494h16.524a31.42 31.42 0 0 1 7.923.863 15.13 15.13 0 0 1 5.336 2.436 9.272 9.272 0 0 1 3.006 3.823 12.965 12.965 0 0 1 .938 5.025 9.849 9.849 0 0 1-.432 2.913 8.576 8.576 0 0 1-1.356 2.636 10.166 10.166 0 0 1-2.371 2.235 15.377 15.377 0 0 1-3.486 1.742 12.35 12.35 0 0 1 6.567 3.5 9.051 9.051 0 0 1 2.127 6.212 12.846 12.846 0 0 1-1.11 5.333 12.214 12.214 0 0 1-3.252 4.3 15.431 15.431 0 0 1-5.285 2.867 23.007 23.007 0 0 1-7.186 1.033zm10.42-26.019h5.426a17.86 17.86 0 0 0 3.114-.247 6.458 6.458 0 0 0 2.358-.863 3.946 3.946 0 0 0 1.48-1.7 6.357 6.357 0 0 0 .511-2.713 7.629 7.629 0 0 0-.4-2.667 3.82 3.82 0 0 0-1.233-1.711 5.165 5.165 0 0 0-2.109-.925 14.528 14.528 0 0 0-3.039-.277h-6.1zm0 6.967v11.191h7.339a9.2 9.2 0 0 0 3.376-.524 5.336 5.336 0 0 0 2.05-1.356 4.55 4.55 0 0 0 1.017-1.881 8.279 8.279 0 0 0 .277-2.127 7.1 7.1 0 0 0-.324-2.22 3.686 3.686 0 0 0-1.107-1.665 5.453 5.453 0 0 0-2.083-1.048 12.112 12.112 0 0 0-3.268-.37z" fill="#ef516c"/><path data-name="パス 195" d="M121.711 22.938a24.141 24.141 0 0 1-1.68 9.064 21.421 21.421 0 0 1-12.085 12.146 26.824 26.824 0 0 1-19.1 0 21.44 21.44 0 0 1-12.13-12.142 25.287 25.287 0 0 1 0-18.127 21.561 21.561 0 0 1 4.748-7.276 21.95 21.95 0 0 1 7.383-4.84A25.121 25.121 0 0 1 98.404.006a24.812 24.812 0 0 1 9.541 1.773 22.008 22.008 0 0 1 7.353 4.856 21.676 21.676 0 0 1 4.732 7.276 24.057 24.057 0 0 1 1.681 9.027zm-10.667 0a19.421 19.421 0 0 0-.863-6 12.7 12.7 0 0 0-2.482-4.516 10.7 10.7 0 0 0-3.961-2.836 13.633 13.633 0 0 0-5.333-.987 13.833 13.833 0 0 0-5.38.987 10.676 10.676 0 0 0-3.977 2.836 12.7 12.7 0 0 0-2.482 4.516 21.366 21.366 0 0 0 0 12.023 12.7 12.7 0 0 0 2.482 4.516 10.526 10.526 0 0 0 3.977 2.821 14.027 14.027 0 0 0 5.38.971 13.824 13.824 0 0 0 5.333-.971 10.551 10.551 0 0 0 3.961-2.821 12.7 12.7 0 0 0 2.482-4.516 19.53 19.53 0 0 0 .863-6.023z" fill="#221816"/><path data-name="パス 196" d="M150.32 37.889a17.734 17.734 0 0 0 3.823-.37 18.691 18.691 0 0 0 3.142-.987v-6.813h-4.439a2.153 2.153 0 0 1-1.539-.524 1.745 1.745 0 0 1-.555-1.326v-5.733h15.969v18.96a22.912 22.912 0 0 1-7.568 3.669 29.618 29.618 0 0 1-4.5.863 44.661 44.661 0 0 1-5.133.277 23.551 23.551 0 0 1-9.125-1.742 21.844 21.844 0 0 1-12.069-12.085 23.618 23.618 0 0 1-1.742-9.141 24.884 24.884 0 0 1 1.665-9.233 20.8 20.8 0 0 1 4.763-7.26 21.585 21.585 0 0 1 7.491-4.748 27.069 27.069 0 0 1 9.819-1.7 28.6 28.6 0 0 1 5.272.462 26 26 0 0 1 4.547 1.264 21.009 21.009 0 0 1 3.807 1.911 20.614 20.614 0 0 1 3.08 2.4l-3.019 4.594a3.384 3.384 0 0 1-1.033 1.017 2.453 2.453 0 0 1-1.31.37 3.61 3.61 0 0 1-1.911-.617 32.54 32.54 0 0 0-2.328-1.279 14.4 14.4 0 0 0-2.235-.879 14.623 14.623 0 0 0-2.407-.493 23.581 23.581 0 0 0-2.836-.154 12.935 12.935 0 0 0-5.269 1.033 11.3 11.3 0 0 0-3.992 2.913 13.177 13.177 0 0 0-2.543 4.516 18.135 18.135 0 0 0-.894 5.873 18.969 18.969 0 0 0 .984 6.351 13.726 13.726 0 0 0 2.728 4.686 11.616 11.616 0 0 0 4.134 2.913 13.369 13.369 0 0 0 5.223 1.012z" fill="#221816"/><path data-name="パス 197" d="M53.333 37.088H69.98v8.319H42.913V.494h10.42z" fill="#ef516c"/><path data-name="パス 198" d="M69.98 37.087H53.332V20.815l-10.42 16.37v8.23H69.98z" fill="#221816"/></g></svg>