<svg xmlns="http://www.w3.org/2000/svg" width="162.239" height="164.055"><defs><linearGradient id="a" x1=".349" y1=".555" x2="-.567" y2="-.336" gradientUnits="objectBoundingBox"><stop offset="0" stop-color="#9795f0"/><stop offset="1" stop-color="#fbc8d4"/></linearGradient></defs><path data-name="前面オブジェクトで型抜き 10" d="M14078.92-17638.473a130.664 130.664 0 0 1-31.1-3.768v-160.287h157.98a131.948 131.948 0 0 1 4.068 26.078 130.318 130.318 0 0 1-1.147 25.6 130.974 130.974 0 0 1-6 24.482 131.817 131.817 0 0 1-10.475 22.73 131.88 131.88 0 0 1-14.586 20.342 130.856 130.856 0 0 1-18.331 17.316 130.417 130.417 0 0 1-21.709 13.654 131.968 131.968 0 0 1-24.716 9.355 131.26 131.26 0 0 1-33.984 4.498z" transform="translate(-14047.817 17802.525)" fill="url(#a)"/></svg>