<svg xmlns="http://www.w3.org/2000/svg" width="295.381" height="263.342"><defs><linearGradient id="a" x1=".5" x2=".5" y2="1" gradientUnits="objectBoundingBox"><stop offset="0" stop-color="#ffd1c7"/><stop offset="1" stop-color="#ffafbd"/></linearGradient><linearGradient id="b" x1=".5" x2=".5" y2="1" gradientUnits="objectBoundingBox"><stop offset="0" stop-color="#ffd6c2"/><stop offset="1" stop-color="#ffced3"/></linearGradient><linearGradient id="c" x1=".5" x2=".5" y2="1" gradientUnits="objectBoundingBox"><stop offset="0" stop-color="#ed6ea0"/><stop offset="1" stop-color="#ec8c69"/></linearGradient><linearGradient id="d" x1=".5" x2=".5" y2="1" gradientUnits="objectBoundingBox"><stop offset="0" stop-color="#9795f0"/><stop offset="1" stop-color="#fbc8d4"/></linearGradient><linearGradient id="e" x1=".5" x2=".5" y2="1" gradientUnits="objectBoundingBox"><stop offset="0" stop-color="#ff88b7"/><stop offset="1" stop-color="#efb49f"/></linearGradient><linearGradient id="f" x1=".5" x2=".5" y2="1" gradientUnits="objectBoundingBox"><stop offset="0" stop-color="#9face6"/><stop offset="1" stop-color="#74ebd5"/></linearGradient><linearGradient id="g" x1=".408" y1=".996" x2=".535" y2=".006" gradientUnits="objectBoundingBox"><stop offset="0" stop-color="#9795f0"/><stop offset="1" stop-color="#ec8871"/></linearGradient><linearGradient id="h" x1=".5" x2=".5" y2="1" gradientUnits="objectBoundingBox"><stop offset="0" stop-color="#ed6ea0"/><stop offset="1" stop-color="#ffc2c2" stop-opacity=".635"/></linearGradient><linearGradient id="i" x1=".5" x2=".5" y2="1" gradientUnits="objectBoundingBox"><stop offset="0" stop-color="#9face6"/><stop offset="1" stop-color="#74ebd5" stop-opacity="0"/></linearGradient><linearGradient id="j" x1=".5" x2=".5" y2="1" gradientUnits="objectBoundingBox"><stop offset="0" stop-color="#9795f0"/><stop offset="1" stop-color="#fbc8d4" stop-opacity="0"/></linearGradient><linearGradient id="k" x1=".5" x2=".5" y2="1" gradientUnits="objectBoundingBox"><stop offset="0" stop-color="#ed6ea0" stop-opacity="0"/><stop offset="1" stop-color="#ec8c69"/></linearGradient></defs><g data-name="グループ化 257" transform="translate(-1065.59 -2883.201)"><path data-name="パス 409" d="M-17413 17725.23c-30.061-3.486-31.236-26.518-52.252-30.992s-68.17-1.229-76.832-36.682 26.041-44.541 29.539-80.869 3.5-54.754 32.086-59.879 45.084-30.9 78-30.414 57.578 43.1 77.877 50.383 48.279 3.332 57.736 23.8-2.521 51.035-16.684 54.617-8.035 15.1 14.016 18.479 41.254 41.67-18.518 60.564-94.909 34.48-124.968 30.993z" transform="translate(18609.059 -14603.184)" fill="url(#a)"/><g data-name="グループ化 255" transform="translate(0 12)"><path data-name="パス 420" d="M-15319.755 19626.984c2.021-1.961 15.125-12.559 11.662-32.465s-20.4-34.707-55.207-34.055-71.541 26.1-62.5 82.18 74.9 50.738 86.232 38.75 10.318-28.551 5.914-36.977 11.88-15.468 13.899-17.433z" transform="translate(16543.988 -16569.104)" fill="url(#b)"/><ellipse data-name="楕円形 59" cx="11.009" cy="11.009" rx="11.009" ry="11.009" transform="translate(1154.493 3008.285)" fill="url(#c)"/><ellipse data-name="楕円形 60" cx="11.009" cy="11.009" rx="11.009" ry="11.009" transform="translate(1130.864 3064.673)" fill="url(#d)"/><ellipse data-name="楕円形 58" cx="11.009" cy="11.009" rx="11.009" ry="11.009" transform="translate(1166.844 3086.691)" fill="url(#e)"/><ellipse data-name="楕円形 61" cx="10.472" cy="10.472" rx="10.472" ry="10.472" transform="translate(1130.864 3031.914)" fill="url(#f)"/><path data-name="パス 421" d="M2.154 21.836C9.138 8.359 4.929 0 4.929 0s20.194 2.954 24.023 21.064-10.543 25.13-10.543 25.13h-11s-12.24-10.882-5.255-24.358z" transform="rotate(-39 4852.58 -171.013)" fill="url(#c)"/><path data-name="パス 422" d="M9.77 103.979c8.09 1.7 12.069-52.243 11.784-64.452S17.543 0 17.543 0H5.237S-.887 28.49.109 40.86s1.57 61.42 9.661 63.119z" transform="rotate(-39 4922.68 -198.509)" fill="url(#g)"/></g><circle data-name="楕円形 62" cx="13.5" cy="13.5" r="13.5" transform="rotate(-51.98 3611.16 383.42)" fill="url(#h)"/><circle data-name="楕円形 63" cx="11" cy="11" r="11" transform="rotate(-9 19026.06 -5776.186)" fill="url(#i)"/><circle data-name="楕円形 64" cx="19.5" cy="19.5" r="19.5" transform="rotate(28 -5339.076 4021.265)" fill="url(#j)"/><circle data-name="楕円形 65" cx="29.5" cy="29.5" r="29.5" transform="rotate(-150 1024.723 1313.721)" fill="url(#k)"/></g></svg>