<svg xmlns="http://www.w3.org/2000/svg" width="108.396" height="108.395"><defs><linearGradient id="a" x1=".5" x2=".5" y2="1" gradientUnits="objectBoundingBox"><stop offset="0" stop-color="#8ec5fc"/><stop offset="1" stop-color="#b8d5f5"/></linearGradient></defs><g data-name="グループ化 274"><g data-name="グループ化 251"><ellipse data-name="楕円形 38" cx="38.915" cy="38.915" rx="38.915" ry="38.915" transform="rotate(-54.97 61.268 31.868)" fill="url(#a)"/></g><g fill="#6ca1d6"><path data-name="パス 438" d="M49.056 48.017c-1.169 1.169-1.739 3.692-.531 6.484 1.281 2.963.566 4.322-.467 5.467-.986 1.092-9.4 8.359-11.06 10.023a4.262 4.262 0 0 0 6.026 6.027c1.664-1.664 8.866-9.856 10.023-11.06 1.069-1.114 2.5-1.749 5.468-.467 2.791 1.206 5.315.638 6.483-.532l1.595-1.593L50.65 46.422zm-7.925 26.107a1.583 1.583 0 1 1 0-2.239 1.585 1.585 0 0 1 0 2.239z"/><path data-name="パス 439" d="M76.696 47.596l-7-7a.283.283 0 0 0-.332-.053l-3.08 1.6a.284.284 0 0 1-.383-.382l1.6-3.08a.285.285 0 0 0-.051-.333l-2.137-2.132a3.723 3.723 0 0 0-5.264 0 3.776 3.776 0 0 0-.322.365l-7.3 9.506L66.819 60.48l9.507-7.3a3.591 3.591 0 0 0 .364-.32 3.721 3.721 0 0 0 0-5.263zm-9.689 10.09l-11.78-11.781 2.9-3.78c2.1.4 7 2.037 8.527 6.273 1.193 3.3 2.76 5.483 4.5 6.1z"/></g><g data-name="ペンキ塗りなどのハケのアイコン素材" fill="#fff"><path data-name="パス 438" d="M47.056 46.017c-1.169 1.169-1.739 3.692-.531 6.484 1.281 2.963.566 4.322-.467 5.467-.986 1.092-9.4 8.359-11.06 10.023a4.262 4.262 0 0 0 6.026 6.027c1.664-1.664 8.866-9.856 10.023-11.06 1.069-1.114 2.5-1.749 5.468-.467 2.791 1.206 5.315.638 6.483-.532l1.595-1.593L48.65 44.422zm-7.925 26.107a1.583 1.583 0 1 1 0-2.239 1.585 1.585 0 0 1 0 2.239z"/><path data-name="パス 439" d="M74.696 45.596l-7-7a.283.283 0 0 0-.332-.053l-3.08 1.6a.284.284 0 0 1-.383-.382l1.6-3.08a.285.285 0 0 0-.051-.333l-2.137-2.132a3.723 3.723 0 0 0-5.264 0 3.776 3.776 0 0 0-.322.365l-7.3 9.506L64.819 58.48l9.507-7.3a3.591 3.591 0 0 0 .364-.32 3.721 3.721 0 0 0 0-5.263zm-9.689 10.09l-11.78-11.781 2.9-3.78c2.1.4 7 2.037 8.527 6.273 1.193 3.3 2.76 5.483 4.5 6.1z"/></g></g></svg>