<svg data-name="グループ化 213" xmlns="http://www.w3.org/2000/svg" width="108.396" height="108.395"><defs><linearGradient id="a" x1=".5" x2=".5" y2="1" gradientUnits="objectBoundingBox"><stop offset="0" stop-color="#8ec5fc"/><stop offset="1" stop-color="#b8d5f5"/></linearGradient></defs><ellipse data-name="楕円形 38" cx="38.915" cy="38.915" rx="38.915" ry="38.915" transform="rotate(-54.97 61.268 31.868)" fill="url(#a)"/><g fill="#88b6e6"><path data-name="パス 278" d="M28.845 69.486a5.88 5.88 0 0 1-1.731-4.169V59.25h-2.912v6.067a8.821 8.821 0 0 0 8.812 8.813h3.979v-2.913h-3.979a5.873 5.873 0 0 1-4.169-1.731z"/><path data-name="パス 279" d="M32.638 51.135a3.844 3.844 0 1 0-3.844-3.844 3.841 3.841 0 0 0 3.844 3.844z"/><path data-name="パス 280" d="M41.791 64.23h-5.392v-8.026a3.76 3.76 0 1 0-7.521 0v9.144a3.76 3.76 0 0 0 3.76 3.761l6.874-.019.361 5.565a2.065 2.065 0 1 0 4.129-.091l.219-7.9a2.429 2.429 0 0 0-2.43-2.434z"/><path data-name="パス 281" d="M71.555 59.251v6.067a5.912 5.912 0 0 1-5.9 5.9h-3.984v2.913h3.98a8.822 8.822 0 0 0 8.812-8.813v-6.067z"/><path data-name="パス 282" d="M66.03 51.135a3.844 3.844 0 1 0-3.843-3.844 3.843 3.843 0 0 0 3.843 3.844z"/><path data-name="パス 283" d="M69.792 65.349v-9.144a3.761 3.761 0 1 0-7.522 0v8.026h-5.392a2.429 2.429 0 0 0-2.43 2.43l.219 7.9a2.065 2.065 0 1 0 4.129.091l.361-5.565 6.874.019a3.761 3.761 0 0 0 3.761-3.757z"/><path data-name="長方形 204" d="M39.286 59.288h20.851v3.549H39.286z"/><path data-name="長方形 205" d="M48.161 64.741h2.426v8.59h-2.426z"/></g><g data-name="相談アイコン1" fill="#fff"><path data-name="パス 278" d="M33.709 66.243a5.88 5.88 0 0 1-1.731-4.169v-6.067h-2.912v6.067a8.821 8.821 0 0 0 8.812 8.813h3.979v-2.913h-3.979a5.873 5.873 0 0 1-4.169-1.731z"/><path data-name="パス 279" d="M37.502 47.892a3.844 3.844 0 1 0-3.844-3.844 3.841 3.841 0 0 0 3.844 3.844z"/><path data-name="パス 280" d="M46.655 60.987h-5.392v-8.026a3.76 3.76 0 1 0-7.521 0v9.144a3.76 3.76 0 0 0 3.76 3.761l6.874-.019.361 5.565a2.065 2.065 0 1 0 4.129-.091l.219-7.9a2.429 2.429 0 0 0-2.43-2.434z"/><path data-name="パス 281" d="M76.419 56.008v6.067a5.912 5.912 0 0 1-5.9 5.9h-3.984v2.913h3.98a8.822 8.822 0 0 0 8.812-8.813v-6.067z"/><path data-name="パス 282" d="M70.894 47.892a3.844 3.844 0 1 0-3.843-3.844 3.843 3.843 0 0 0 3.843 3.844z"/><path data-name="パス 283" d="M74.656 62.106v-9.144a3.761 3.761 0 1 0-7.522 0v8.026h-5.392a2.429 2.429 0 0 0-2.43 2.43l.219 7.9a2.065 2.065 0 1 0 4.129.091l.361-5.565 6.874.019a3.761 3.761 0 0 0 3.761-3.757z"/><path data-name="長方形 204" d="M44.15 56.045h20.851v3.549H44.15z"/><path data-name="長方形 205" d="M53.025 61.498h2.426v8.59h-2.426z"/></g></svg>