<svg xmlns="http://www.w3.org/2000/svg" width="21.85" height="21.311"><g data-name="グループ化 150" fill="#fff"><path data-name="パス 215" d="M10.924-.001A10.926 10.926 0 0 0 7.47 21.291c.546.1.746-.237.746-.526 0-.26-.01-1.121-.015-2.034-3.039.661-3.681-1.289-3.681-1.289a2.894 2.894 0 0 0-1.213-1.6c-.991-.678.075-.664.075-.664a2.3 2.3 0 0 1 1.675 1.126 2.326 2.326 0 0 0 3.179.908 2.327 2.327 0 0 1 .694-1.461c-2.427-.276-4.978-1.213-4.978-5.4a4.228 4.228 0 0 1 1.126-2.932 3.926 3.926 0 0 1 .106-2.891s.917-.293 3.005 1.12a10.358 10.358 0 0 1 5.471 0c2.085-1.413 3-1.12 3-1.12a3.921 3.921 0 0 1 .107 2.891 4.22 4.22 0 0 1 1.124 2.932c0 4.2-2.556 5.12-4.989 5.391a2.612 2.612 0 0 1 .741 2.023c0 1.462-.013 2.638-.013 3 0 .291.2.632.75.524A10.927 10.927 0 0 0 10.92-.002z" fill-rule="evenodd"/><path data-name="パス 216" d="M4.137 15.689c-.024.054-.109.071-.187.033s-.124-.11-.1-.164.109-.071.188-.034.125.111.1.165zm-.134-.1"/><path data-name="パス 217" d="M4.58 16.178c-.052.048-.154.026-.223-.05a.167.167 0 0 1-.032-.227c.054-.048.152-.026.224.05s.085.178.031.227zm-.1-.112"/><path data-name="パス 218" d="M5.011 16.808c-.067.047-.176 0-.244-.094s-.067-.214 0-.261.176 0 .244.092.067.215 0 .263zm0 0"/><path data-name="パス 219" d="M5.6 17.416c-.06.066-.187.048-.281-.042a.21.21 0 0 1-.062-.279c.061-.066.189-.047.283.042s.124.214.06.279zm0 0"/><path data-name="パス 220" d="M6.415 17.769c-.026.085-.149.124-.273.088s-.2-.138-.18-.224.149-.127.274-.088.2.137.179.224zm0 0"/><path data-name="パス 221" d="M7.31 17.834c0 .09-.1.165-.232.166s-.236-.07-.238-.159.1-.165.233-.167.236.07.236.159zm0 0"/><path data-name="パス 222" d="M8.141 17.692c.016.088-.075.178-.2.2s-.244-.031-.26-.118.076-.18.2-.2.245.03.261.12zm0 0"/></g></svg>