<svg xmlns="http://www.w3.org/2000/svg" width="295.381" height="252.043"><defs><linearGradient id="a" x1=".5" x2=".5" y2="1" gradientUnits="objectBoundingBox"><stop offset="0" stop-color="#ffd1c7"/><stop offset="1" stop-color="#ffafbd"/></linearGradient><linearGradient id="b" x1=".5" x2=".5" y2="1" gradientUnits="objectBoundingBox"><stop offset="0" stop-color="#ed6ea0"/><stop offset="1" stop-color="#ec8c69"/></linearGradient><linearGradient id="c" x1=".5" x2=".5" y2="1" gradientUnits="objectBoundingBox"><stop offset="0" stop-color="#400707"/><stop offset="1" stop-color="#ec8187"/></linearGradient></defs><g data-name="グループ化 256" transform="translate(-481.59 -1872.205)"><path data-name="パス 411" d="M-17413 17725.23c-30.061-3.486-31.236-26.518-52.252-30.992s-68.17-1.229-76.832-36.682 26.041-44.541 29.539-80.869 3.5-54.754 32.086-59.879 45.084-30.9 78-30.414 57.578 43.1 77.877 50.383 48.279 3.332 57.736 23.8-2.521 51.035-16.684 54.617-8.035 15.1 14.016 18.479 41.254 41.67-18.518 60.564-94.909 34.48-124.968 30.993z" transform="translate(18025.059 -15614.184)" fill="url(#a)"/><circle data-name="楕円形 49" cx="45.5" cy="45.5" r="45.5" transform="translate(514 1939)" fill="url(#b)"/><rect data-name="長方形 284" width="50" height="8" rx="4" transform="translate(552 1986)" fill="#fff"/><rect data-name="長方形 285" width="50" height="8" rx="4" transform="translate(575 2001)" fill="#fff"/><path data-name="パス 253" d="M426.443 442.216a58.509 58.509 0 0 1-9.775-28.849c6.751-12.811 18.119-18.828 26.152-21.588 6.827 9.67 16.612 7.531 19.307 5.939 2.854-1.688 7.811-1.254 7.811-1.254s-4.492-10.38-13.919-13.641c-8.81-3.047-13.717 5.8-14.321 6.978a.28.28 0 0 1 .07-.051c13.16-6.879 19.235 2.006 19.235 2.006-6.775-5.387-19.37-1.826-19.37-1.826.051.089.105.169.158.257-13.735 1.586-21.117 5.772-25.028 10.207 1.339-15.613 6.675-29.768 10.453-38.124 29.808 1.679 41.05-21 42.172-28.85 1.191-8.341 9.929-17.476 9.929-17.476s-22.242-6.354-43.688 7.149c-19.585 12.332-15.288 34.295-14.393 38.016 7.282-37.018 34.549-34.937 34.549-34.937-21.418 4.858-34.372 35.406-34.406 35.486A58.635 58.635 0 0 0 412.9 372.2c-1.641-4.606-6.079-19.091-3.791-35.6 2.134-15.4 6.841-24.468 8.913-27.855 15.042.113 20.778-11.544 21.366-15.661.645-4.515 5.375-9.459 5.375-9.459s-15-4.112-26.61 3.2c-9.754 6.141-6.474 17.168-5.177 20.537-2.451 5.626-9.827 23.777-8.831 36.39 0 0-2.261-7.177-5.585-10.44.169-3.769-.284-14.986-11.306-17.756-13.305-3.344-26.287 5.224-26.287 5.224s6.031 3.231 8.046 7.322c1.857 3.772 11.114 13.231 25.65 8.084 1.913 2.952 14.275 23.008 12.99 45.688-5.524 11.927-8.744 25.351-10.619 36.949-3.224-5.274-10.569-10.821-26.872-12.7.052-.088.106-.169.159-.258 0 0-12.6-3.561-19.371 1.827 0 0 6.075-8.885 19.235-2.006a.307.307 0 0 1 .071.05c-.606-1.173-5.512-10.025-14.321-6.978-9.428 3.261-13.919 13.641-13.919 13.641s4.956-.433 7.811 1.254c2.693 1.594 12.479 3.733 19.306-5.938 8.141 2.8 19.711 8.929 26.425 22.094-.538 4.984-1.6 12.576-1.624 12.416-.18-.005 32.602-.267 32.509-.009zm5.582-153.058c-8.795 2-14.95 11.986-17.419 16.718l-.722-.218c4.606-17.52 18.141-16.5 18.141-16.5zM396.2 331.831l-.126.281c-4.045-3.855-12.651-10.833-21.282-10.032 0 0 12.638-5.212 22.473 10.212a4.245 4.245 0 0 0-1.065-.461z" transform="translate(214.31 1682.03)" fill="url(#c)"/></g></svg>