<svg xmlns="http://www.w3.org/2000/svg" width="108.396" height="108.395"><defs><linearGradient id="a" x1=".5" x2=".5" y2="1" gradientUnits="objectBoundingBox"><stop offset="0" stop-color="#8ec5fc"/><stop offset="1" stop-color="#b8d5f5"/></linearGradient></defs><g data-name="グループ化 271"><g data-name="グループ化 213"><ellipse data-name="楕円形 38" cx="38.915" cy="38.915" rx="38.915" ry="38.915" transform="rotate(-54.97 61.268 31.868)" fill="url(#a)"/></g><g fill="#88b3e2"><path data-name="パス 444" d="M39.889 45.666a3.246 3.246 0 1 0-3.247-3.245 3.246 3.246 0 0 0 3.247 3.245z"/><path data-name="パス 445" d="M48.992 39.393h21.14v17.206h-21.14v-1.436a5.081 5.081 0 0 1-.825-.078l-.089-.016-.892-.247v3.583h24.751V37.588h-24.75v8.65l1.805.631z"/><path data-name="パス 446" d="M49.538 66.212a3.246 3.246 0 1 0 3.247-3.246 3.246 3.246 0 0 0-3.247 3.246z"/><path data-name="パス 447" d="M52.784 71.08c-3.045 0-5.749 1.015-6.423 4.391l.054 2.234h12.739l.053-2.234c-.674-3.376-3.379-4.391-6.423-4.391z"/><path data-name="パス 448" d="M63.082 66.212a3.246 3.246 0 1 0 3.247-3.246 3.247 3.247 0 0 0-3.247 3.246z"/><path data-name="パス 449" d="M66.329 71.08c-3.045 0-5.749 1.015-6.424 4.391l.054 2.234h12.739l.054-2.234c-.675-3.376-3.379-4.391-6.423-4.391z"/><path data-name="パス 450" d="M50.541 52.792l5.238-2.507a1.39 1.39 0 0 0-1.082-2.56l-4.71 1.609-4.262-1.49a8.2 8.2 0 0 0-1.92-.422l-2.864 4.43v-2.371h-1.756v2.388l-3.218-3.884a5.648 5.648 0 0 0-3.508 4.406l-2.384 9.955a1.39 1.39 0 1 0 2.712.606l2.508-6.633.646 19.739a1.647 1.647 0 0 0 3.293 0l.655-11.771.653 11.771a1.647 1.647 0 0 0 3.294 0l.926-23.984 3.76 1.042a3.07 3.07 0 0 0 2.019-.324z"/><path data-name="長方形 286" d="M39.185 47.485h1.751v1.228h-1.751z"/></g><g data-name="プレゼンテーションアイコン" fill="#fff"><path data-name="パス 444" d="M42.889 43.666a3.246 3.246 0 1 0-3.247-3.245 3.246 3.246 0 0 0 3.247 3.245z"/><path data-name="パス 445" d="M51.992 37.393h21.14v17.206h-21.14v-1.436a5.081 5.081 0 0 1-.825-.078l-.089-.016-.892-.247v3.583h24.751V35.588h-24.75v8.65l1.805.631z"/><path data-name="パス 446" d="M52.538 64.212a3.246 3.246 0 1 0 3.247-3.246 3.246 3.246 0 0 0-3.247 3.246z"/><path data-name="パス 447" d="M55.784 69.08c-3.045 0-5.749 1.015-6.423 4.391l.054 2.234h12.739l.053-2.234c-.674-3.376-3.379-4.391-6.423-4.391z"/><path data-name="パス 448" d="M66.082 64.212a3.246 3.246 0 1 0 3.247-3.246 3.247 3.247 0 0 0-3.247 3.246z"/><path data-name="パス 449" d="M69.329 69.08c-3.045 0-5.749 1.015-6.424 4.391l.054 2.234h12.739l.054-2.234c-.675-3.376-3.379-4.391-6.423-4.391z"/><path data-name="パス 450" d="M53.541 50.792l5.238-2.507a1.39 1.39 0 0 0-1.082-2.56l-4.71 1.609-4.262-1.49a8.2 8.2 0 0 0-1.92-.422l-2.864 4.43v-2.371h-1.756v2.388l-3.218-3.884a5.648 5.648 0 0 0-3.508 4.406l-2.384 9.955a1.39 1.39 0 1 0 2.712.606l2.508-6.633.646 19.739a1.647 1.647 0 0 0 3.293 0l.655-11.771.653 11.771a1.647 1.647 0 0 0 3.294 0l.926-23.984 3.76 1.042a3.07 3.07 0 0 0 2.019-.324z"/><path data-name="長方形 286" d="M42.185 45.485h1.751v1.228h-1.751z"/></g></g></svg>