<svg data-name="グループ化 90" xmlns="http://www.w3.org/2000/svg" width="235.773" height="33.362"><circle data-name="楕円形 21" cx="2.731" cy="2.731" r="2.731" transform="translate(127.01 27.704)" fill="#221816"/><g data-name="グループ化 88" fill="#ef516c"><path data-name="パス 78" d="M26.924 17.559a22.178 22.178 0 0 1-1.561 8.389 12.976 12.976 0 0 1-4.682 5.463 13.475 13.475 0 0 1-7.024 1.951 12.737 12.737 0 0 1-7.024-1.951 11.611 11.611 0 0 1-4.682-5.463A16.933 16.933 0 0 1 0 17.754V15.8a19.569 19.569 0 0 1 1.756-8.386 10.762 10.762 0 0 1 4.682-5.463A11.885 11.885 0 0 1 13.462 0a11.885 11.885 0 0 1 7.024 1.951 11.759 11.759 0 0 1 4.682 5.463 18.1 18.1 0 0 1 1.756 8.194zM21.266 15.8c0-3.512-.585-6.243-1.951-8.194a6.715 6.715 0 0 0-5.853-2.926A6.381 6.381 0 0 0 7.8 7.609a13.451 13.451 0 0 0-2.146 8v1.951A14.113 14.113 0 0 0 7.8 25.753a6.715 6.715 0 0 0 5.853 2.926 6.166 6.166 0 0 0 5.658-2.926 16.122 16.122 0 0 0 1.951-8.389z"/><path data-name="パス 79" d="M56.384 28.68a10.215 10.215 0 0 1-4.877 3.512 20.408 20.408 0 0 1-7.024 1.171 14.648 14.648 0 0 1-7.219-1.756 11.648 11.648 0 0 1-4.877-5.268 17.266 17.266 0 0 1-1.756-8v-2.731c0-4.877 1.171-8.779 3.512-11.511S39.801 0 43.898 0a13.3 13.3 0 0 1 8.584 2.731c2.146 1.756 3.317 4.292 3.9 7.8h-5.461c-.585-3.9-2.926-5.853-6.828-5.853a6.441 6.441 0 0 0-5.662 2.736c-1.366 1.756-1.951 4.487-1.951 8v2.536a14.114 14.114 0 0 0 2.151 8.193 7.183 7.183 0 0 0 6.243 2.926c2.927 0 4.877-.585 6.048-1.951v-6.242h-6.634v-4.683h12.291V28.68z"/><path data-name="パス 80" d="M85.258.39v21.656a10.572 10.572 0 0 1-3.317 8.194q-3.219 2.926-8.779 2.926t-8.779-2.926a10.572 10.572 0 0 1-3.317-8.194V.39h5.658v21.656a6.949 6.949 0 0 0 1.561 4.877 6.492 6.492 0 0 0 4.881 1.756c4.292 0 6.438-2.341 6.438-6.828V.39h5.658z"/><path data-name="パス 81" d="M102.426 20.29h-6.242v12.487h-5.658V.39h11.316c3.707 0 6.633.78 8.584 2.536a9.259 9.259 0 0 1 3.122 7.219 9.984 9.984 0 0 1-1.561 5.463 9.161 9.161 0 0 1-4.292 3.317l7.218 13.465v.2h-6.048zm-6.438-4.487h5.853a6.5 6.5 0 0 0 4.485-1.366 5.447 5.447 0 0 0 1.561-3.9 5.589 5.589 0 0 0-1.561-4.1c-.976-.975-2.536-1.366-4.487-1.561h-5.85z"/><path data-name="パス 82" d="M123.498 25.363l-2.536 7.414h-5.853L127.4.39h5.073l12.291 32.387h-5.855l-2.731-7.414-1.559-4.488-4.682-13.461-4.683 13.461z"/></g><text transform="translate(157.774 22.571)" fill="#221816" font-size="15" font-family="Roboto-Light, Roboto" font-weight="300" data-name="グループ化 89"><tspan x="0" y="0">PORTFOLIO</tspan></text></svg>