<svg xmlns="http://www.w3.org/2000/svg" width="20.658" height="13.635"><g data-name="グループ化 98"><g data-name="グループ化 96"><g data-name="グループ化 95"><path data-name="パス 127" d="M19.005 1.652v10.329H1.652V1.652h17.353m.826-1.653H.825a.829.829 0 0 0-.826.826v11.982a.829.829 0 0 0 .826.826h19.006a.829.829 0 0 0 .826-.826V.825a.829.829 0 0 0-.826-.826z" fill="#fff"/></g></g><g data-name="グループ化 97"><path data-name="パス 128" d="M10.328 9.957a.87.87 0 0 1-.537-.207A3988.54 3988.54 0 0 0 .288 1.446L1.362.206s6.652 5.784 8.966 7.809C12.642 5.99 19.294.206 19.294.206l1.074 1.24s-8.057 7.024-9.5 8.3a.87.87 0 0 1-.54.211z" fill="#fff"/></g></g></svg>