<svg xmlns="http://www.w3.org/2000/svg" width="567.348" height="660.101"><defs><linearGradient id="a" x1=".5" x2=".5" y2="1" gradientUnits="objectBoundingBox"><stop offset="0" stop-color="#400707"/><stop offset="1" stop-color="#ec8187"/></linearGradient></defs><path data-name="パス 468" d="M690.885 942.56c-25.5-37.419-37.235-78.52-40.394-119.207 27.9-52.935 74.87-77.8 108.065-89.2 28.209 39.958 68.644 31.119 79.778 24.539 11.793-6.975 32.275-5.181 32.275-5.181s-18.561-42.892-57.514-56.366c-36.405-12.591-56.679 23.985-59.178 28.832a1.158 1.158 0 0 1 .289-.212c54.38-28.425 79.481 8.29 79.481 8.29-27.994-22.26-80.038-7.545-80.038-7.545.212.366.435.7.651 1.062-56.757 6.552-87.257 23.851-103.417 42.176 5.535-64.513 27.583-123 43.193-157.533C817.245 619.153 863.7 525.425 868.333 493c4.92-34.464 41.028-72.212 41.028-72.212s-91.9-26.256-180.525 29.54c-80.929 50.958-63.17 141.711-59.475 157.085 30.09-152.963 142.761-144.364 142.761-144.364-88.5 20.075-142.028 146.3-142.171 146.635a242.282 242.282 0 0 0-35.03 43.564c-6.78-19.033-25.121-78.886-15.663-147.119 8.818-63.626 28.267-101.106 36.828-115.1 62.157.468 85.857-47.7 88.287-64.713 2.665-18.658 22.211-39.087 22.211-39.087s-61.986-16.99-109.957 13.213c-40.3 25.377-26.753 70.939-21.393 84.86-10.129 23.249-40.6 98.249-36.491 150.366 0 0-9.344-29.658-23.078-43.14.7-15.574-1.172-61.925-46.717-73.368-54.978-13.816-108.622 21.584-108.622 21.584S445.248 454.1 453.574 471c7.675 15.586 45.924 54.673 105.989 33.4 7.9 12.2 58.987 95.071 53.676 188.79-22.826 49.285-36.133 104.752-43.881 152.678-13.323-21.792-43.673-44.715-111.039-52.488.216-.362.44-.7.655-1.066 0 0-52.048-14.715-80.042 7.549 0 0 25.1-36.715 79.48-8.289a1.263 1.263 0 0 1 .293.208c-2.5-4.847-22.777-41.423-59.178-28.832-38.957 13.474-57.514 56.366-57.514 56.366s20.477-1.791 32.275 5.18c11.13 6.584 51.564 15.423 79.773-24.539 33.638 11.553 81.446 36.9 109.192 91.294-2.222 20.6-6.594 51.965-6.711 51.3-.732.024 134.729-1.058 134.343.009zm23.065-632.454c-36.34 8.245-61.775 49.529-71.977 69.079l-2.983-.9c19.033-72.395 74.96-68.179 74.96-68.179zm-148.026 176.33l-.521 1.16c-16.713-15.928-52.276-44.764-87.941-41.452 0 0 52.223-21.535 92.861 42.2a17.541 17.541 0 0 0-4.399-1.908z" transform="translate(-342.014 -282.47)" fill="url(#a)"/></svg>