<svg xmlns="http://www.w3.org/2000/svg" width="601.893" height="151.905"><g data-name="グループ化 232"><g data-name="グループ化 185"><g data-name="グループ化 174" fill="#ef516c"><g data-name="グループ化 131"><path data-name="パス 101" d="M51.255 50.945a22.7 22.7 0 0 1-9.291 5.729 40.963 40.963 0 0 1-13.472 2.168c-7.433 0-13.472-2.323-17.962-6.813S3.717 41.035 3.407 32.828v-4.955a33.727 33.727 0 0 1 2.942-14.711 22.778 22.778 0 0 1 8.517-9.755A23.816 23.816 0 0 1 27.718 0c7.123 0 12.7 1.7 16.569 4.955s6.194 8.207 6.968 14.556H37.938c-.465-3.252-1.548-5.42-3.1-6.813s-3.871-2.013-6.658-2.013a9.009 9.009 0 0 0-8.052 4.336c-1.858 2.942-2.787 7.123-2.942 12.543v3.406c0 5.729.929 10.065 2.942 12.852 2.013 2.942 4.955 4.336 9.291 4.336 3.561 0 6.194-.774 8.052-2.323v-8.826h-9.6v-9.446h23.384z"/><path data-name="パス 102" d="M80.676 37.783h-7.433v20.285H59.462V.774h22.453c6.813 0 12.078 1.548 15.947 4.491s5.729 7.278 5.729 12.7c0 4.026-.774 7.278-2.478 9.91a16.454 16.454 0 0 1-7.588 6.349l11.927 23.069v.619H90.741zm-7.588-10.53h8.674c2.632 0 4.645-.619 5.884-2.013a7.624 7.624 0 0 0 2.016-5.729 8.245 8.245 0 0 0-2.013-5.884 7.83 7.83 0 0 0-5.887-2.169h-8.673z"/><path data-name="パス 103" d="M160.268 30.66a34.932 34.932 0 0 1-3.1 14.865 22.038 22.038 0 0 1-8.826 9.91 24.357 24.357 0 0 1-13.007 3.407 24.357 24.357 0 0 1-13.007-3.407 23.04 23.04 0 0 1-8.826-9.6 30.838 30.838 0 0 1-3.252-14.4v-3.253a34.932 34.932 0 0 1 3.1-14.865 22.038 22.038 0 0 1 8.826-9.91A26.419 26.419 0 0 1 135.337 0a24.736 24.736 0 0 1 13.007 3.407 22.038 22.038 0 0 1 8.826 9.91 32.139 32.139 0 0 1 3.252 14.711v2.632zm-13.936-2.478q0-8.594-2.787-13.007a9.606 9.606 0 0 0-8.207-4.336c-6.968 0-10.53 5.265-10.994 15.64v4.181q0 8.362 2.787 13.007a9.3 9.3 0 0 0 8.362 4.491 8.973 8.973 0 0 0 8.052-4.491c1.858-2.942 2.787-7.278 2.942-12.852v-2.633z"/><path data-name="パス 104" d="M211.832 36.699L218.336.774h13.627l-12.079 57.294h-14.246l-7.742-32.673-7.433 32.673h-14.246L163.984.774h13.781l6.5 35.925L192.166.774h11.768z"/><path data-name="パス 105" d="M302.418.774v37.473a21.1 21.1 0 0 1-2.787 10.994 18.174 18.174 0 0 1-7.742 7.123 26.485 26.485 0 0 1-11.923 2.478c-6.968 0-12.388-1.858-16.414-5.42s-6.039-8.517-6.194-14.865V.774h13.936v38.093c.155 6.194 3.1 9.446 8.672 9.446a8.792 8.792 0 0 0 6.5-2.323c1.548-1.548 2.168-4.181 2.168-7.742V.774z"/><path data-name="パス 106" d="M324.87 38.712v19.356h-13.781V.774h22.917a25.594 25.594 0 0 1 11.614 2.478 18.955 18.955 0 0 1 7.9 6.813 18.572 18.572 0 0 1 2.787 10.065c0 5.575-2.013 10.065-6.039 13.317s-9.446 4.955-16.414 4.955h-8.981zm0-10.684h8.981c2.632 0 4.645-.619 6.039-2.013a7.7 7.7 0 0 0 2.168-5.729 9.266 9.266 0 0 0-2.168-6.349 7.685 7.685 0 0 0-5.884-2.478h-9.136z"/><path data-name="パス 107" d="M363.118 52.183a6.117 6.117 0 0 1 2.168-4.8 8.388 8.388 0 0 1 10.53 0 6.4 6.4 0 0 1 0 9.6 8.388 8.388 0 0 1-10.53 0 6.35 6.35 0 0 1-2.168-4.8zM375.97 39.95h-10.684L363.583.774h14.091z"/><path data-name="パス 108" d="M37.009 140.292H18.117l-3.252 10.684H0l21.059-57.293h13.007l21.214 57.294H40.26zm-15.64-10.684H33.6l-6.192-19.825z"/><path data-name="パス 109" d="M73.088 140.292h24v10.684H59.307V93.683h13.781v46.609z"/><path data-name="パス 110" d="M147.26 129.608l6.5-35.925h13.627l-12.075 57.294h-14.246l-7.742-32.673-7.433 32.673h-14.246L99.412 93.683h13.781l6.5 35.925 7.9-35.925h11.768z"/><path data-name="パス 111" d="M205.483 140.292h-18.892l-3.252 10.684h-14.71l21.059-57.293h13.007l21.214 57.294h-14.865zm-15.64-10.684h12.233l-6.194-19.825z"/><path data-name="パス 112" d="M248.69 118.613l10.53-24.776h14.86l-18.427 36.7v20.595h-13.936v-20.749l-18.427-36.7h14.865z"/><path data-name="パス 113" d="M307.837 135.802a5.6 5.6 0 0 0-2.168-4.645 26.786 26.786 0 0 0-7.588-3.561 57.4 57.4 0 0 1-8.826-3.562c-7.433-3.716-11.149-8.671-11.149-15.02a13.273 13.273 0 0 1 2.787-8.362 19.356 19.356 0 0 1 7.9-5.729 29.657 29.657 0 0 1 11.457-2.014 27.3 27.3 0 0 1 10.994 2.168 17.707 17.707 0 0 1 7.588 6.194 16.035 16.035 0 0 1 2.787 9.291h-13.782a6.989 6.989 0 0 0-2.168-5.42 8.5 8.5 0 0 0-5.729-1.858 9.821 9.821 0 0 0-5.884 1.7 4.763 4.763 0 0 0-2.168 4.181 5.294 5.294 0 0 0 2.323 4.026q2.323 1.858 8.362 3.716a41.788 41.788 0 0 1 9.755 4.181c6.194 3.562 9.291 8.517 9.291 14.711 0 4.955-1.858 8.981-5.729 11.768s-8.982 4.342-15.485 4.342a29.748 29.748 0 0 1-12.543-2.478c-3.716-1.7-6.658-3.871-8.517-6.813a18.2 18.2 0 0 1-2.787-10.068h13.781c0 3.1.774 5.265 2.323 6.813s4.181 2.168 7.742 2.168a8.357 8.357 0 0 0 5.42-1.548 4.994 4.994 0 0 0 2.013-4.181z"/><path data-name="パス 114" d="M378.293 135.802a5.6 5.6 0 0 0-2.168-4.645 26.786 26.786 0 0 0-7.588-3.561 57.4 57.4 0 0 1-8.826-3.562c-7.433-3.716-11.149-8.671-11.149-15.02a13.273 13.273 0 0 1 2.787-8.362 19.356 19.356 0 0 1 7.9-5.729 29.657 29.657 0 0 1 11.457-2.014 27.3 27.3 0 0 1 10.994 2.168 17.707 17.707 0 0 1 7.588 6.194 16.035 16.035 0 0 1 2.787 9.291h-13.782a6.989 6.989 0 0 0-2.168-5.42 8.5 8.5 0 0 0-5.729-1.858 9.821 9.821 0 0 0-5.884 1.7 4.763 4.763 0 0 0-2.168 4.181 5.294 5.294 0 0 0 2.323 4.026q2.323 1.858 8.362 3.716a41.788 41.788 0 0 1 9.755 4.181c6.194 3.562 9.291 8.517 9.291 14.711 0 4.955-1.858 8.981-5.729 11.768s-8.982 4.342-15.485 4.342a29.748 29.748 0 0 1-12.543-2.478c-3.716-1.7-6.658-3.871-8.517-6.813a18.2 18.2 0 0 1-2.787-10.068h13.781c0 3.1.774 5.265 2.323 6.813s4.181 2.168 7.742 2.168a8.357 8.357 0 0 0 5.42-1.548 4.994 4.994 0 0 0 2.013-4.181z"/><path data-name="パス 115" d="M444.103 104.367h-17.188v46.609h-13.782v-46.609h-16.878V93.683h47.848z"/><path data-name="パス 116" d="M494.894 93.683v37.473a21.1 21.1 0 0 1-2.787 10.994 18.174 18.174 0 0 1-7.742 7.123 26.714 26.714 0 0 1-12.078 2.478c-6.968 0-12.388-1.858-16.414-5.42s-6.039-8.517-6.194-14.865V93.683h13.936v38.093c.155 6.194 3.1 9.446 8.672 9.446a8.792 8.792 0 0 0 6.5-2.323c1.549-1.548 2.168-4.181 2.168-7.742V93.683z"/><path data-name="パス 117" d="M503.41 150.977V93.683h18.427a26.59 26.59 0 0 1 13.627 3.407 24.9 24.9 0 0 1 9.446 9.755 28.337 28.337 0 0 1 3.407 14.091v2.632a30 30 0 0 1-3.252 14.091 23.52 23.52 0 0 1-9.291 9.755 26.525 26.525 0 0 1-13.472 3.561zm13.781-46.609v35.925h4.8c4.026 0 6.968-1.394 9.136-4.181s3.252-6.968 3.252-12.543v-2.478q0-8.362-3.252-12.543t-9.291-4.181h-4.645z"/><path data-name="パス 118" d="M576.503 118.613l10.53-24.776h14.86l-18.427 36.7v20.595H569.53v-20.749l-18.427-36.7h14.865z"/></g><path data-name="交差 2" d="M358.317 149.428a24.541 24.541 0 0 1-5.007-2.983v-5.65l5.782-8.245h1.7c0 3.1.773 5.265 2.323 6.813s4.181 2.168 7.742 2.168a8.355 8.355 0 0 0 5.42-1.55 4.991 4.991 0 0 0 2.013-4.181 5.6 5.6 0 0 0-2.167-4.645 26.747 26.747 0 0 0-7.588-3.561c-1.787-.6-3.358-1.156-4.768-1.714l6.848-9.765q1.121.4 2.411.794a41.8 41.8 0 0 1 9.755 4.181c6.193 3.561 9.29 8.516 9.29 14.71 0 4.956-1.858 8.982-5.729 11.769s-8.981 4.336-15.485 4.336a29.756 29.756 0 0 1-12.54-2.477zm97.554-3.1c-4.026-3.562-6.038-8.516-6.193-14.866V93.683h13.932v38.093c.155 6.193 3.1 9.445 8.671 9.445a8.8 8.8 0 0 0 6.5-2.322c1.548-1.548 2.167-4.181 2.167-7.743V93.683h13.936v37.473a21.1 21.1 0 0 1-2.774 10.995 18.174 18.174 0 0 1-7.742 7.123 26.724 26.724 0 0 1-12.079 2.478c-6.972-.001-12.391-1.858-16.418-5.42zm113.659 4.8v-20.745l-18.428-36.7h14.865l10.531 24.931 10.529-24.776h14.866l-18.427 36.7v20.593zm-66.12-.152V93.683h18.427a26.587 26.587 0 0 1 13.627 3.407 24.894 24.894 0 0 1 9.446 9.755 28.332 28.332 0 0 1 3.406 14.091v2.633a30 30 0 0 1-3.251 14.091 23.518 23.518 0 0 1-9.291 9.755 26.53 26.53 0 0 1-13.471 3.561zm13.781-10.683h4.8c4.025 0 6.968-1.394 9.135-4.181s3.251-6.968 3.251-12.543v-2.477q0-8.362-3.251-12.543t-9.291-4.181h-4.645zm-104.058 10.683v-46.608h-16.878V93.683h47.848v10.685H426.91v46.608zm-34.841-40.415a7.757 7.757 0 0 0-.982-3.978l7.064-10.082a17.976 17.976 0 0 1 4.912 4.77 16.027 16.027 0 0 1 2.787 9.29z"/><path data-name="交差 1" d="M365.286 56.984a6.349 6.349 0 0 1-2.167-4.8 6.115 6.115 0 0 1 2.167-4.8 8.39 8.39 0 0 1 10.53 0 6.4 6.4 0 0 1 0 9.6 8.39 8.39 0 0 1-10.53 0zM263.55 53.422c-4.026-3.561-6.039-8.516-6.193-14.864V.775h13.936v38.092c.155 6.193 3.1 9.446 8.671 9.446a8.8 8.8 0 0 0 6.5-2.323c1.549-1.548 2.167-4.181 2.167-7.743V.775h13.781v37.472a21.1 21.1 0 0 1-2.787 10.994 18.161 18.161 0 0 1-7.743 7.123 26.466 26.466 0 0 1-11.922 2.478c-6.964 0-12.384-1.858-16.41-5.42zm47.536 4.646V.775h22.92a25.6 25.6 0 0 1 11.613 2.476 18.975 18.975 0 0 1 7.9 6.813 18.577 18.577 0 0 1 2.787 10.065c0 5.575-2.014 10.066-6.04 13.318s-9.444 4.956-16.413 4.956h-8.982v19.665zm13.782-30.041h8.982c2.631 0 4.645-.619 6.039-2.012a7.7 7.7 0 0 0 2.167-5.729 9.267 9.267 0 0 0-2.167-6.349 7.687 7.687 0 0 0-5.884-2.478h-9.136zm-119.23 30.041l-7.743-32.673-7.432 32.673h-14.247l-2.53-11.847 9.854-13.546.728 4.023 1.583-7.2 18.735-25.753 7.245 32.954L218.335.775h13.626l-12.075 57.293zm159.648-18.117l-1.7-39.176h14.091l-1.7 39.176z"/></g></g><path data-name="交差 7" d="M369.58 151.886h-.053a29.805 29.805 0 0 1-9.891-1.9 21.203 21.203 0 0 1-1.318-.555 24.557 24.557 0 0 1-5.01-2.985 15.341 15.341 0 0 1-3.508-3.83 18.214 18.214 0 0 1-2.787-10.067h13.779a9.723 9.723 0 0 0 1.7 6.1 7.5 7.5 0 0 0 .629.716 5.694 5.694 0 0 0 1.508 1.066 14.2 14.2 0 0 0 6.232 1.1 9.591 9.591 0 0 0 4.186-.787 6.594 6.594 0 0 0 1.232-.759 4.987 4.987 0 0 0 2.014-4.185 5.582 5.582 0 0 0-2.166-4.641 26.686 26.686 0 0 0-7.588-3.564 91.87 91.87 0 0 1-4.768-1.711 38.67 38.67 0 0 1-4.057-1.848c-7.434-3.712-11.148-8.669-11.148-15.016a13.269 13.269 0 0 1 2.787-8.365 19.379 19.379 0 0 1 7.9-5.73 29.638 29.638 0 0 1 11.455-2.01 27.292 27.292 0 0 1 11 2.166 17.721 17.721 0 0 1 7.588 6.194 16.039 16.039 0 0 1 2.787 9.29H378.3a7.808 7.808 0 0 0-.984-3.981 6.007 6.007 0 0 0-1.182-1.436 8.509 8.509 0 0 0-5.73-1.858 9.827 9.827 0 0 0-5.881 1.7 4.766 4.766 0 0 0-2.172 4.181 5.3 5.3 0 0 0 2.322 4.029q2.271 1.812 8.082 3.626a.688.688 0 0 1 .1.024l.184.057a41.627 41.627 0 0 1 9.76 4.181c6.189 3.559 9.289 8.517 9.289 14.707a14 14 0 0 1-3.654 9.958 14.272 14.272 0 0 1-2.076 1.815 24.564 24.564 0 0 1-13.066 4.261h-.047q-1.154.072-2.371.071a26.23 26.23 0 0 1-1.294-.014zm-81.717-2.455c-3.721-1.706-6.66-3.872-8.518-6.815a18.214 18.214 0 0 1-2.787-10.067h13.783c0 3.1.773 5.266 2.322 6.816s4.18 2.166 7.74 2.166a8.389 8.389 0 0 0 5.422-1.546 5.009 5.009 0 0 0 2.01-4.185 5.587 5.587 0 0 0-2.166-4.641 26.713 26.713 0 0 0-7.588-3.564 56.855 56.855 0 0 1-8.826-3.563c-7.432-3.712-11.152-8.669-11.152-15.016a13.281 13.281 0 0 1 2.787-8.365 19.446 19.446 0 0 1 7.9-5.73 29.655 29.655 0 0 1 11.457-2.01 27.313 27.313 0 0 1 11 2.166 17.721 17.721 0 0 1 7.588 6.194 16.053 16.053 0 0 1 2.787 9.29h-13.783a6.982 6.982 0 0 0-2.166-5.417 8.509 8.509 0 0 0-5.73-1.858 9.827 9.827 0 0 0-5.881 1.7 4.766 4.766 0 0 0-2.172 4.181 5.314 5.314 0 0 0 2.322 4.029q2.326 1.854 8.361 3.716a41.663 41.663 0 0 1 9.76 4.181c6.189 3.559 9.289 8.517 9.289 14.707 0 4.957-1.857 8.986-5.73 11.769s-8.982 4.337-15.484 4.337a29.756 29.756 0 0 1-12.545-2.475zm168.008-3.1c-4.023-3.56-6.039-8.513-6.2-14.863V93.683h13.939v38.093c.152 6.2 3.1 9.446 8.67 9.446a12.7 12.7 0 0 0 1.3-.062 8.245 8.245 0 0 0 5.076-2.133l.037-.038a1.114 1.114 0 0 0 .09-.09 6.017 6.017 0 0 0 1.289-1.991 15.3 15.3 0 0 0 .883-5.749V93.682h13.934v37.477a21.1 21.1 0 0 1-2.787 10.991 18.031 18.031 0 0 1-6.963 6.712c-.25.142-.512.279-.781.412a26.724 26.724 0 0 1-12.076 2.479c-6.966 0-12.387-1.857-16.411-5.422zm113.658 4.8V130.38l-18.428-36.7h14.867l5.266 12.466 5.262 12.465 5.266-12.385 5.266-12.39h14.863l-18.422 36.7v20.595zm-327.812 0V130.38l-18.428-36.7h14.869l10.525 24.931 10.533-24.774h14.863l-18.424 36.7v20.595zm261.693-.157V93.681h18.428a26.6 26.6 0 0 1 13.627 3.408 24.931 24.931 0 0 1 9.445 9.754 28.392 28.392 0 0 1 3.408 14.091v2.636a30.039 30.039 0 0 1-3.256 14.091 23.452 23.452 0 0 1-7.734 8.778c-.5.341-1.02.668-1.555.977a27 27 0 0 1-3.328 1.625 26.737 26.737 0 0 1-10.145 1.933zm13.783-10.683h4.8a11.735 11.735 0 0 0 6.352-1.631 10.779 10.779 0 0 0 2.781-2.55q3.249-4.181 3.252-12.541v-2.479q0-8.361-3.252-12.542t-9.289-4.185h-4.645zm-104.06 10.683v-46.609h-16.877V93.681h47.846v10.684h-17.186v46.609zm-204.086 0l-3.564-10.683H186.59l-3.252 10.683h-14.707l21.059-57.293h13.006l21.214 57.293zm-19.2-21.366h12.229l-6.189-19.821zm-48.783 21.366l-6.721-28.373 8.252-14.212 4.664 21.219 6.5-35.927h13.627l-12.073 57.293zm-23.2 0l13.193-22.72-5.172 22.72zm252.684-92.135a7.531 7.531 0 0 1-5.266-1.857 6.4 6.4 0 0 1-1.639-2.242 6.358 6.358 0 0 1-.531-2.555 6.256 6.256 0 0 1 .645-2.862 6.521 6.521 0 0 1 1.525-1.938 7.527 7.527 0 0 1 5.266-1.858 7.538 7.538 0 0 1 5.268 1.858c.117.1.23.213.34.326a6.058 6.058 0 0 1 1.826 4.47 6.332 6.332 0 0 1-.561 2.688 6.48 6.48 0 0 1-1.605 2.109 7.011 7.011 0 0 1-2.3 1.379h-.006a8.426 8.426 0 0 1-2.65.469h-.256zm-90.584 0c-6.973 0-12.391-1.857-16.414-5.417s-6.043-8.518-6.2-14.864V.774h13.936v38.093c.156 6.194 3.1 9.446 8.674 9.446a8.8 8.8 0 0 0 6.5-2.322c.01-.015.023-.024.033-.038 1.527-1.555 2.133-4.171 2.133-7.707V.774h13.783v37.472a21.1 21.1 0 0 1-2.787 11 18.2 18.2 0 0 1-7.744 7.124 26.223 26.223 0 0 1-11.607 2.474zm31.121-.772V.774H334a29.843 29.843 0 0 1 6.156.6 22.264 22.264 0 0 1 5.461 1.877c.715.355 1.4.739 2.053 1.143a17.845 17.845 0 0 1 5.844 5.668 18.241 18.241 0 0 1 2.734 8.518v.043c.033.493.053 1 .053 1.507 0 5.574-2.016 10.063-6.039 13.314a21 21 0 0 1-7.568 3.834 32.309 32.309 0 0 1-8.846 1.123h-8.98v19.665zm13.783-30.04h8.98a10.337 10.337 0 0 0 4.129-.729 6.136 6.136 0 0 0 1.91-1.285 7.1 7.1 0 0 0 1-1.251 8.209 8.209 0 0 0 1.166-4.475 9.274 9.274 0 0 0-2.166-6.351c-.023-.024-.043-.048-.066-.071s-.043-.048-.066-.071-.057-.062-.086-.09a7.722 7.722 0 0 0-5.668-2.247h-9.133zm-119.232 30.04l-4.395-18.532-3.35-14.139-7.432 32.671h-14.248l-1.182-5.534 9.225-15.887.01.05.023-.105L204.246 2.22l7.578 34.477 5.641-31.149.867-4.772h13.627l-12.082 57.293zm159.646-18.115l-1.7-39.178h14.092l-1.707 39.178z" fill="#c9154f"/></g></svg>