<svg xmlns="http://www.w3.org/2000/svg" width="1920.002" height="368.294"><path data-name="前面オブジェクトで型抜き 7" d="M1920 368.292H0V74.716c.068.122 7.77 13.537 22.748 33.253 8.8 11.582 18.363 23.049 28.42 34.084a504.241 504.241 0 0 0 39.766 39.072c35.174 30.891 73.369 55.5 113.525 73.157a399.601 399.601 0 0 0 35.453 13.613 391.216 391.216 0 0 0 38.281 10.5 391.505 391.505 0 0 0 41.105 6.755 403.359 403.359 0 0 0 43.93 2.39 414.9 414.9 0 0 0 12.48-.187 379.257 379.257 0 0 0 43.955-3.873 373.044 373.044 0 0 0 41.1-8.483 398.461 398.461 0 0 0 38.73-12.493c12.07-4.577 24.473-9.928 36.861-15.9 11.57-5.581 23.176-11.7 35.479-18.714 10.984-6.259 22.3-13.1 34.6-20.924 22.863-14.544 45.012-29.848 68.461-46.05l.041-.028c48.8-33.723 99.273-68.593 157.824-97.122 15.131-7.372 30.443-14.128 45.516-20.08a597.556 597.556 0 0 1 49.109-16.975 591.444 591.444 0 0 1 53.293-13.154c18.875-3.738 38.408-6.64 58.059-8.622a973.718 973.718 0 0 1 49.52-3.715c16.246-.8 32.814-1.212 49.248-1.212 17.16 0 34.637.444 51.947 1.321 16.994.859 34.3 2.161 51.451 3.867 33.355 3.319 67.344 8.3 101.018 14.794 32.441 6.259 65.363 14.078 97.85 23.239 31.295 8.826 62.885 19.1 93.9 30.525a1324.291 1324.291 0 0 1 172.789 78.271 1264.016 1264.016 0 0 1 147.551 93.5 9790.87 9790.87 0 0 1 66 49.1v73.674z" fill="#ffe6d8"/></svg>