<svg xmlns="http://www.w3.org/2000/svg" width="822.668" height="837.469"><defs><linearGradient id="b" x1=".5" x2=".5" y2="1" gradientUnits="objectBoundingBox"><stop offset="0" stop-color="#ed6ea0"/><stop offset="1" stop-color="#ec8c69"/></linearGradient><filter id="a" x="0" y="11.885" width="822.668" height="825.584" filterUnits="userSpaceOnUse"><feOffset dx="-20" dy="3"/><feGaussianBlur stdDeviation="15" result="blur-2"/><feFlood flood-opacity=".102"/><feComposite operator="in" in2="blur-2"/><feComposite in="SourceGraphic"/></filter><linearGradient id="c" x1=".5" x2=".5" y2="1" gradientUnits="objectBoundingBox"><stop offset="0" stop-color="#400707"/><stop offset="1" stop-color="#ec8187"/></linearGradient><filter id="d" x="212.533" y="286.818" width="520.834" height="332.921" filterUnits="userSpaceOnUse"><feOffset dx="-20" dy="3"/><feGaussianBlur stdDeviation="15" result="blur-3"/><feFlood flood-opacity=".102"/><feComposite operator="in" in2="blur-3"/><feComposite in="SourceGraphic"/></filter><filter id="e" x="121.127" y="312.137" width="612.24" height="307.601" filterUnits="userSpaceOnUse"><feOffset dx="-20" dy="3"/><feGaussianBlur stdDeviation="15" result="blur-4"/><feFlood flood-opacity=".102"/><feComposite operator="in" in2="blur-4"/><feComposite in="SourceGraphic"/></filter></defs><g data-name="グループ化 231"><g transform="translate(.001 .001)" filter="url(#a)"><path data-name="パス 252" d="M393.429 6.055c71.8 21.342 110.945 181.276 112.14 260.906 1.948 129.856-90.386 268.186-145.812 268.186-57.8 0-130.127-103.3-194.311-178.337C109.525 291.432-8.038 283.315.435 208.157c17.449-107.913 151.072-83.681 210.939-108.263C254.86 87.13 304.311-27.252 393.429 6.055z" transform="rotate(-41 548.154 105.87)" fill="url(#b)"/></g><path data-name="パス 253" d="M533.034 643.894c-13.964-20.488-20.388-42.993-22.117-65.27 15.274-28.984 40.994-42.6 59.169-48.842 15.446 21.878 37.585 17.039 43.681 13.436 6.457-3.819 17.672-2.836 17.672-2.836s-10.163-23.485-31.491-30.863c-19.933-6.894-31.034 13.133-32.4 15.787a.634.634 0 0 1 .158-.116c29.775-15.564 43.519 4.539 43.519 4.539C595.9 517.541 567.4 525.6 567.4 525.6c.116.2.238.383.357.582-31.076 3.587-47.777 13.059-56.625 23.093 3.03-35.323 15.1-67.349 23.65-86.255 67.44 3.8 92.875-47.52 95.413-65.272 2.694-18.87 22.465-39.539 22.465-39.539s-50.321-14.376-98.844 16.174c-44.312 27.9-34.588 77.592-32.565 86.01 16.475-83.753 78.167-79.045 78.167-79.045-48.459 10.992-77.766 80.105-77.844 80.288a132.659 132.659 0 0 0-19.18 23.853c-3.712-10.421-13.755-43.193-8.576-80.553 4.828-34.838 15.477-55.359 20.165-63.022 34.033.256 47.01-26.119 48.34-35.433 1.459-10.216 12.161-21.4 12.161-21.4s-33.94-9.3-60.205 7.235c-22.068 13.895-14.648 38.842-11.714 46.464-5.546 12.73-22.233 53.795-19.98 82.331 0 0-5.116-16.239-12.636-23.621.383-8.527-.642-33.906-25.579-40.172-30.1-7.565-59.475 11.818-59.475 11.818s13.645 7.311 18.2 16.566c4.2 8.534 25.145 29.936 58.033 18.289 4.327 6.678 32.3 52.055 29.39 103.37-12.5 26.986-19.784 57.356-24.026 83.6-7.3-11.932-23.913-24.483-60.8-28.739.118-.2.241-.383.359-.584 0 0-28.5-8.057-43.826 4.133 0 0 13.746-20.1 43.519-4.539a.691.691 0 0 1 .16.114c-1.37-2.654-12.471-22.681-32.4-15.787-21.33 7.378-31.491 30.863-31.491 30.863s11.212-.98 17.672 2.836c6.094 3.605 28.233 8.445 43.679-13.436 18.418 6.326 44.595 20.2 59.787 49.987-1.217 11.277-3.61 28.453-3.675 28.091-.4 0 73.769-.59 73.558-.006zM545.663 297.6c-19.9 4.514-33.824 27.119-39.41 37.823l-1.633-.492c10.421-39.638 41.043-37.331 41.043-37.331zm-81.05 96.547l-.285.635c-9.151-8.721-28.623-24.51-48.151-22.7 0 0 28.594-11.791 50.845 23.1a9.6 9.6 0 0 0-2.409-1.033z" transform="translate(-37.97 -282.47)" fill="url(#c)"/><g transform="translate(.001 .001)" filter="url(#d)"><path data-name="交差 6" d="M423.949 546.337c-32.819-4.881-66.966 2.68-99 10.236-14.429 3.405-28.43 6.811-41.686 9.08-7.378-26.962-16.779-91.18 36.686-149.833 35.663-39.121 90.644-36.254 149.081-33.387 56.1 2.748 115.4 5.5 163.859-28.9 13.192-9.365 25.666-17.553 37.385-24.713 44.386 91.038 49.739 196.451 17.32 224.63-15.469 13.447-40.845 18.29-71.5 18.29-55.801.002-129.11-16.031-192.145-25.403z" fill="#fff" opacity=".03"/></g><g transform="translate(.001 .001)" filter="url(#e)"><path data-name="交差 5" d="M423.956 546.34c-32.815-4.879-66.96 2.68-98.991 10.24-51.035 12.042-96.705 24.087-123.069-14.177-47.438-76.463 23.274-136.992 65.975-188.263 37.853 7.723 79.422 25.2 117.989 60.621 83.2 76.415 237.122 89.89 318.367 20.179 8.977 54.531 3.337 101.159-16.624 118.51-15.473 13.447-40.85 18.29-71.508 18.29-55.8 0-129.105-16.03-192.139-25.4z" fill="#fff" opacity=".034"/></g></g></svg>