<svg xmlns="http://www.w3.org/2000/svg" xmlns:xlink="http://www.w3.org/1999/xlink" width="295.381" height="245.096"><defs><linearGradient id="b" x1=".5" x2=".5" y2="1" gradientUnits="objectBoundingBox"><stop offset="0" stop-color="#ffd1c7"/><stop offset="1" stop-color="#ffafbd"/></linearGradient><linearGradient id="c" x1=".5" x2=".5" y2="1" gradientUnits="objectBoundingBox"><stop offset="0" stop-color="#ed6ea0"/><stop offset="1" stop-color="#ec8c69"/></linearGradient><linearGradient id="d" x1=".5" x2=".5" y2="1" gradientUnits="objectBoundingBox"><stop offset="0" stop-color="#d86964"/><stop offset=".261" stop-color="#e88b8c" stop-opacity=".173"/><stop offset="1" stop-color="#ec8187" stop-opacity="0"/></linearGradient><linearGradient id="a" x1="-.021" y1=".508" x2="1.02" y2=".491" gradientUnits="objectBoundingBox"><stop offset="0" stop-color="#f09595"/><stop offset="1" stop-color="#ec8871"/></linearGradient><linearGradient id="e" x1="-.143" y1="-.491" x2="1.019" y2="1.053" gradientUnits="objectBoundingBox"><stop offset="0" stop-color="#c9154f"/><stop offset=".974" stop-color="#ea8467"/><stop offset="1" stop-color="#ec8c69"/></linearGradient><linearGradient id="f" x1="1.022" y1=".507" x2="-.02" y2=".491" xlink:href="#a"/><linearGradient id="g" x1="1.086" y1="-1.408" x2=".169" y2="1.653" gradientUnits="objectBoundingBox"><stop offset="0" stop-color="#d53f58"/><stop offset="1" stop-color="#ec8c69"/></linearGradient></defs><g data-name="グループ化 265" transform="translate(-508.59 -6556.205)"><path data-name="パス 433" d="M-17413 17725.23c-30.061-3.486-31.236-26.518-52.252-30.992s-68.17-1.229-76.832-36.682 26.041-44.541 29.539-80.869 3.5-54.754 32.086-59.879 45.084-30.9 78-30.414 57.578 43.1 77.877 50.383 48.279 3.332 57.736 23.8-2.521 51.035-16.684 54.617-8.035 15.1 14.016 18.479 41.254 41.67-18.518 60.564-94.909 34.48-124.968 30.993z" transform="translate(18052.059 -10930.184)" fill="url(#b)"/><circle data-name="楕円形 49" cx="45.5" cy="45.5" r="45.5" transform="translate(534 6591)" fill="url(#c)"/><rect data-name="長方形 284" width="50" height="8" rx="4" transform="translate(572 6638)" fill="#fff"/><rect data-name="長方形 285" width="50" height="8" rx="4" transform="translate(595 6653)" fill="#fff"/><path data-name="交差 16" d="M20983.465-14428.159c-30.059-3.485-31.232-26.515-52.248-30.993-9.3-1.977-23.715-2.445-37.646-5.422l.1-.326 78.205-121.8 100.656 138.646-1.455 1.153c-33.5 11.2-57.771 19.231-78.875 19.232a75.856 75.856 0 0 1-8.737-.49z" transform="translate(-20344.41 21223.205)" fill="url(#d)"/><path data-name="交差 15" d="M20983.465-14428.16c-22.465-2.605-28.8-16.131-39.34-24.664l97.332-176.021 94.979 155.658c-6.295 5.2-15.389 10.05-28 14.035-54.08 17.1-88 31.48-116.238 31.482a75.645 75.645 0 0 1-8.733-.49z" transform="translate(-20344.41 21223.205)" fill="url(#d)"/><g data-name="グループ化 262"><g data-name="グループ化 260"><path data-name="パス 424" d="M-547.547 224.281a126.489 126.489 0 0 1 5.646-38.345 93.274 93.274 0 0 1 15.811-30.789 72.3 72.3 0 0 1 32.4-23.2l1.69 4.663a67.409 67.409 0 0 0-30.163 21.567 88.229 88.229 0 0 0-14.959 29.09 123.856 123.856 0 0 0-5.47 36.829z" transform="translate(1145.595 6576.898)" fill="url(#a)"/></g><path data-name="合体 1" d="M18.262 35.852C11.658 33.32-6.445 23.984 2.379 0c0 0 23.809 2.117 19.008 32.3 5.412.74 17.395 4.781 15.684 26.156-.001-.001-20.749-2.298-18.809-22.604z" transform="translate(632.291 6675.871)" stroke="rgba(0,0,0,0)" fill="url(#e)"/><g data-name="グループ化 264"><g data-name="グループ化 263"><path data-name="パス 429" d="M-340.395 320.742l-3.935-.1c0-.194.211-11.822-5.1-18.021-5.905-6.889-17.043-23.1-17.514-23.785l3.246-2.228c.114.167 11.489 16.722 17.257 23.451 6.322 7.375 6.06 20.141 6.046 20.683zm-1.968-.052l-1.967-.05z" transform="translate(1032.245 6480.558)" fill="url(#f)"/></g><path data-name="合体 2" d="M0 22.767C8.931 8.532 18.355 11.6 22.1 13.67 33.213-7.552 49.17 2.27 49.17 2.27c-5.681 19.2-21.43 16.6-26.767 15.1-3.75 6.186-8.692 7.877-12.982 7.877A20.727 20.727 0 0 1 0 22.767z" stroke="rgba(0,0,0,0)" fill="url(#g)" transform="translate(643.007 6743.465)"/></g></g></g></svg>