<svg xmlns="http://www.w3.org/2000/svg" width="352.86" height="45.318"><g data-name="グループ化 147"><g data-name="グループ化 148" fill="#ef516c"><path data-name="パス 205" d="M23.846 26.963q.563 1.248 1.083 2.559.514-1.343 1.1-2.607c.385-.842.779-1.659 1.187-2.45l11.38-22.426a3.718 3.718 0 0 1 .624-.9 2.052 2.052 0 0 1 .718-.472 2.476 2.476 0 0 1 .9-.155h9.024v44.316h-9.07V19.324q0-1.853.18-4.018l-11.746 22.8a3.864 3.864 0 0 1-1.476 1.61 4.066 4.066 0 0 1-2.115.55h-1.4a4.053 4.053 0 0 1-2.115-.55 3.848 3.848 0 0 1-1.476-1.61L8.833 15.279c.081.71.145 1.413.185 2.115s.061 1.344.061 1.93v25.507H.009V.517h9.024a2.5 2.5 0 0 1 .9.155 2.033 2.033 0 0 1 .713.472 3.719 3.719 0 0 1 .624.9l11.413 22.517c.397.766.785 1.571 1.163 2.402z"/><path data-name="パス 206" d="M81.689 27.968v16.864H71.401V27.968L55.329.487h9.072a3.341 3.341 0 0 1 2.128.624 4.679 4.679 0 0 1 1.281 1.6l6.27 12.9 1.4 2.861q.639 1.312 1.126 2.59a23.692 23.692 0 0 1 1.1-2.617q.639-1.309 1.37-2.833l6.209-12.9a3.745 3.745 0 0 1 .5-.791 4.239 4.239 0 0 1 .73-.715 3.474 3.474 0 0 1 .941-.517 3.364 3.364 0 0 1 1.174-.2h9.13z"/><path data-name="パス 213" d="M114.069.487h8.644a3.9 3.9 0 0 1 2.237.609 2.788 2.788 0 0 1 1.172 1.613l6.087 23.131q.3 1.126.609 2.4a21.592 21.592 0 0 1 .457 2.678q.3-1.43.67-2.694t.7-2.389l7.183-23.131A3.188 3.188 0 0 1 143 1.167a3.468 3.468 0 0 1 2.176-.685h3.044a3.825 3.825 0 0 1 2.207.593 3.042 3.042 0 0 1 1.2 1.628l7.122 23.131q.335 1.065.7 2.265c.244.8.457 1.659.639 2.574q.243-1.343.5-2.557t.533-2.283l6.09-23.131a2.878 2.878 0 0 1 1.154-1.555 3.594 3.594 0 0 1 2.189-.667h8.1l-13.7 44.344h-9.314l-8.339-27.483c-.142-.426-.289-.9-.441-1.4s-.3-1.042-.441-1.613q-.213.856-.441 1.613c-.152.507-.3.976-.441 1.4l-8.461 27.483h-9.313z"/></g><g data-name="グループ化 149" fill="#221816"><path data-name="パス 207" d="M228.808 22.644a23.819 23.819 0 0 1-1.659 8.945 21.142 21.142 0 0 1-11.931 11.994 26.482 26.482 0 0 1-18.855 0 21.16 21.16 0 0 1-11.976-11.994 24.957 24.957 0 0 1 0-17.893 21.224 21.224 0 0 1 4.687-7.183 21.673 21.673 0 0 1 7.289-4.778A24.8 24.8 0 0 1 205.798 0a24.5 24.5 0 0 1 9.42 1.75 21.718 21.718 0 0 1 7.259 4.791 21.423 21.423 0 0 1 4.672 7.183 23.773 23.773 0 0 1 1.659 8.92zm-10.531 0a19.161 19.161 0 0 0-.852-5.92 12.515 12.515 0 0 0-2.45-4.459 10.538 10.538 0 0 0-3.911-2.8 13.471 13.471 0 0 0-5.265-.974 13.66 13.66 0 0 0-5.311.974 10.511 10.511 0 0 0-3.926 2.8 12.514 12.514 0 0 0-2.45 4.459 21.091 21.091 0 0 0 0 11.87 12.5 12.5 0 0 0 2.45 4.456 10.372 10.372 0 0 0 3.926 2.787 13.848 13.848 0 0 0 5.311.959 13.657 13.657 0 0 0 5.265-.959 10.4 10.4 0 0 0 3.911-2.787 12.5 12.5 0 0 0 2.45-4.456 19.28 19.28 0 0 0 .853-5.95z"/><path data-name="パス 208" d="M246.461 28.427v16.4h-10.285V.487h14.427a29.648 29.648 0 0 1 8.2.987 15.431 15.431 0 0 1 5.537 2.757 10.432 10.432 0 0 1 3.122 4.17 13.854 13.854 0 0 1 .971 5.235 14.064 14.064 0 0 1-.578 4.078 12.38 12.38 0 0 1-1.72 3.546 13.29 13.29 0 0 1-2.8 2.9 14.938 14.938 0 0 1-3.822 2.1 9.545 9.545 0 0 1 1.933 1.276 7.731 7.731 0 0 1 1.57 1.859l9.432 15.431h-9.313a3.944 3.944 0 0 1-3.711-1.95l-7.368-12.874a3.092 3.092 0 0 0-1.141-1.215 3.816 3.816 0 0 0-1.839-.365zm0-7.094h4.142a10.523 10.523 0 0 0 3.576-.533 6.431 6.431 0 0 0 2.42-1.476 5.594 5.594 0 0 0 1.37-2.2 8.468 8.468 0 0 0 .426-2.724 5.709 5.709 0 0 0-1.9-4.565q-1.9-1.647-5.889-1.644h-4.139z"/><path data-name="パス 209" d="M289.375 18.444h1.644a3.741 3.741 0 0 0 3.29-1.43l9.98-14.49a4.315 4.315 0 0 1 1.872-1.613 6.908 6.908 0 0 1 2.572-.424h8.948l-13.148 17.926a8.876 8.876 0 0 1-1.458 1.613 9.487 9.487 0 0 1-1.555 1.065 7.893 7.893 0 0 1 2.115 1.169 7.749 7.749 0 0 1 1.75 2l13.392 20.574h-9.192a8.218 8.218 0 0 1-1.507-.122 3.889 3.889 0 0 1-1.08-.365 3.109 3.109 0 0 1-.791-.594 6.038 6.038 0 0 1-.639-.806l-10.044-15.431a3.013 3.013 0 0 0-1.385-1.2 5.943 5.943 0 0 0-2.265-.353h-2.5v18.872H279.09V.487h10.285z"/><path data-name="パス 210" d="M349.695 9.493a3.833 3.833 0 0 1-.956 1.1 2.144 2.144 0 0 1-1.294.363 3.159 3.159 0 0 1-1.507-.439c-.538-.3-1.146-.624-1.826-.989a15.14 15.14 0 0 0-2.328-.992 9.39 9.39 0 0 0-2.983-.439 6.413 6.413 0 0 0-4.307 1.233 4.192 4.192 0 0 0-1.415 3.33 3.062 3.062 0 0 0 .852 2.222 7.293 7.293 0 0 0 2.235 1.524 24.136 24.136 0 0 0 3.168 1.172q1.781.529 3.637 1.187a32.249 32.249 0 0 1 3.637 1.537 12.1 12.1 0 0 1 3.165 2.252 10.53 10.53 0 0 1 2.237 3.33 11.868 11.868 0 0 1 .85 4.733 15.424 15.424 0 0 1-1.063 5.755 13.528 13.528 0 0 1-3.089 4.672 14.338 14.338 0 0 1-4.991 3.135 18.672 18.672 0 0 1-6.741 1.141 21.609 21.609 0 0 1-4.215-.426 25.045 25.045 0 0 1-4.154-1.2 23.878 23.878 0 0 1-3.774-1.841 16.135 16.135 0 0 1-3.074-2.374l3.043-4.809a2.484 2.484 0 0 1 .944-.885 2.7 2.7 0 0 1 1.309-.332 3.465 3.465 0 0 1 1.841.578c.616.385 1.319.809 2.1 1.278a17.227 17.227 0 0 0 2.7 1.278 10.149 10.149 0 0 0 3.591.576 6.852 6.852 0 0 0 4.352-1.23 4.7 4.7 0 0 0 1.552-3.911 3.7 3.7 0 0 0-.852-2.526 6.59 6.59 0 0 0-2.237-1.616 20.612 20.612 0 0 0-3.15-1.124q-1.765-.487-3.624-1.083a26.261 26.261 0 0 1-3.619-1.458 11.482 11.482 0 0 1-3.153-2.283 10.677 10.677 0 0 1-2.234-3.531 14.033 14.033 0 0 1-.852-5.222 12.381 12.381 0 0 1 1-4.867 12.546 12.546 0 0 1 2.952-4.231 14.516 14.516 0 0 1 4.778-2.967 17.647 17.647 0 0 1 6.483-1.111 24.329 24.329 0 0 1 3.972.32 21.011 21.011 0 0 1 3.665.941 20.178 20.178 0 0 1 3.244 1.494 14.927 14.927 0 0 1 2.693 1.961z"/><path data-name="パス 214" d="M168.366 1.154a2.878 2.878 0 0 0-1.154 1.555l-6.09 23.131q-.274 1.065-.533 2.283t-.5 2.557c-.183-.916-.4-1.77-.639-2.574s-.477-1.555-.7-2.265l-2.511-8.157-5.981 9.4 5.387 17.751h9.315L178.66.491h-8.1a3.594 3.594 0 0 0-2.194.663z"/></g></g></svg>