<svg xmlns="http://www.w3.org/2000/svg" width="1926" height="2360"><defs><clipPath id="a"><path data-name="長方形 282" transform="translate(3 1216)" fill="#fff" stroke="#707070" d="M0 0h1926v2360H0z"/></clipPath><linearGradient id="b" x1=".83" y1=".11" x2=".08" y2="1" gradientUnits="objectBoundingBox"><stop offset="0" stop-color="#ffd1c7"/><stop offset="1" stop-color="#ffafbd"/></linearGradient><linearGradient id="c" x1=".973" x2=".02" y2="1.013" gradientUnits="objectBoundingBox"><stop offset="0" stop-color="#ffd7c2"/><stop offset="1" stop-color="#ffc6d0"/></linearGradient><linearGradient id="d" x1=".983" y1=".01" x2=".02" y2="1.013" gradientUnits="objectBoundingBox"><stop offset="0" stop-color="#ffd6c2"/><stop offset="1" stop-color="#ffced3"/></linearGradient></defs><g data-name="マスクグループ 7" transform="translate(-3 -1216)" clip-path="url(#a)"><g data-name="グループ化 246"><path data-name="パス 340" d="M0 0h1920v431s-464.572-99.237-944.572-58.963S0 592.1 0 592.1z" transform="translate(0 2244)" fill="url(#b)"/><path data-name="パス 339" d="M-18262 10457.934s186.4 90.117 635.055-32.6c423.84-120.748 865.018-379.8 1285.6-373.56-5.423 4.675 7.638 1288.886 7.638 1288.886s-101.167-205.955-365.517-190.173-488.551 333.431-1562.779 360.286c-1.759 5.327.003-1052.839.003-1052.839z" transform="translate(18262 -8827)" fill="url(#c)"/><path data-name="交差 8" d="M18372-7706.229c.139-301.7.756-673.392.756-673.392s186.4 90.113 635.059-32.6c390.053-111.124 794.865-339.389 1184.723-370.209-9.564 24.361-73.527 135.632-486.2 625.753-337.152 400.432-817.631 467.172-1100.613 467.16-140.204-.007-231.987-16.4-233.725-16.712z" transform="translate(-18371.762 10016.557)" fill="url(#d)"/><path data-name="パス 340" d="M0 0h1920v431s-464.572-99.237-944.572-58.963S0 592.1 0 592.1z" transform="translate(0 2934)" fill="url(#b)"/><path data-name="パス 339" d="M-18262 10391.826s186.4 75.453 635.055-27.3c423.84-101.1 865.018-318 1285.6-312.774-5.423 3.914 7.638 1079.159 7.638 1079.159s-101.167-172.442-365.517-159.229-488.551 279.176-1562.779 301.661c-1.759 4.467.003-881.517.003-881.517z" transform="translate(18262 -7899.571)" fill="url(#c)"/><path data-name="パス 337" d="M-18262 10268.025s186.4 47.992 635.055-17.362c423.84-64.306 865.018-202.267 1285.6-198.942-5.423 2.49 7.638 686.405 7.638 686.405s-101.167-109.683-365.517-101.278-488.551 177.571-1562.779 191.873c-1.759 2.839.003-560.696.003-560.696z" transform="translate(18263 -7618.506)" fill="url(#d)"/><path data-name="パス 338" d="M-18262.783 10625.191s828.561 80.041 1334.367-239.889 487.74-336.746 487.74-336.746l-1063.92 8.752-777.619 122.534-90.547 347.476z" transform="translate(18263 -7617.055)" fill="url(#d)"/></g></g></svg>