<svg data-name="グループ化 218" xmlns="http://www.w3.org/2000/svg" width="318.854" height="30.371"><path data-name="パス 317" d="M26.217.629a33.023 33.023 0 0 0-.28 5.166v18.712a36.963 36.963 0 0 0 .28 5.167h-7.505a33.75 33.75 0 0 0 .279-5.167v-6.773H7.229v6.773a35.807 35.807 0 0 0 .279 5.167H.002a33.066 33.066 0 0 0 .28-5.167V5.795A33.9 33.9 0 0 0 .002.629h7.506a37.366 37.366 0 0 0-.279 5.166v5.8h11.764v-5.8a32.867 32.867 0 0 0-.279-5.166z" fill="#ef516c"/><path data-name="パス 318" d="M39.658.629a32.339 32.339 0 0 0-.279 5.166v18.712a33.787 33.787 0 0 0 .279 5.167h-7.681a33.419 33.419 0 0 0 .28-5.167V5.795a32.54 32.54 0 0 0-.28-5.166z" fill="#ef516c"/><path data-name="パス 319" d="M63.011 29.674a33.974 33.974 0 0 0-1.709-5.447c-1.118-3.037-1.536-3.839-2.409-4.608a3.813 3.813 0 0 0-2.723-.943h-3.56v5.726a36.846 36.846 0 0 0 .279 5.271h-7.506a34.514 34.514 0 0 0 .279-5.236V5.655a37.235 37.235 0 0 0-.279-5.131c1.536.07 2.829.1 5.2.1h9.076c5.654 0 8.937 2.932 8.937 7.958a7.6 7.6 0 0 1-2.06 5.725 7.725 7.725 0 0 1-3.317 1.746c1.78.558 2.584 1.361 3.7 3.839.523 1.117 1.013 2.3 2.583 6.074.385.978.8 1.85 1.676 3.7zm-4.957-16.967a3.044 3.044 0 0 0 3.317-3.246c0-1.956-1.118-2.968-3.282-2.968h-5.48v6.214z" fill="#ef516c"/><path data-name="パス 320" d="M102.772 15.011c0 9.216-5.621 15.325-14.1 15.325-8.552 0-14.068-5.969-14.068-15.22C74.604 5.9 80.12 0 88.704 0s14.068 5.865 14.068 15.011zm-7.262.07c0-5.655-2.583-9.076-6.807-9.076-4.259 0-6.877 3.457-6.877 9.076 0 5.691 2.618 9.217 6.877 9.217 4.223-.001 6.809-3.492 6.809-9.217z" fill="#ef516c"/><path data-name="パス 321" d="M131.5 24.507a57.117 57.117 0 0 0 3.7 5.167h-9.077a41.914 41.914 0 0 0-2.409-4.433l-5.411-8.658-3.526 3.527v4.4a39.439 39.439 0 0 0 .279 5.167h-7.4a39.434 39.434 0 0 0 .28-5.167V5.798a38.055 38.055 0 0 0-.28-5.166h7.4a38.727 38.727 0 0 0-.279 5.166v6.179l6.947-7.436a21.314 21.314 0 0 0 3.037-3.909h9.426c-.628.627-.872.907-1.362 1.4l-2.443 2.444-7.3 7.645z" fill="#ef516c"/><path data-name="パス 322" d="M146.756.629a32.3 32.3 0 0 0-.279 5.166v18.712a33.75 33.75 0 0 0 .279 5.167h-7.681a33.5 33.5 0 0 0 .279-5.167V5.795a32.617 32.617 0 0 0-.279-5.166z" fill="#ef516c"/><path data-name="パス 323" d="M192.804 15.011c0 9.216-5.621 15.325-14.1 15.325-8.552 0-14.068-5.969-14.068-15.22C164.636 5.9 170.152 0 178.736 0s14.068 5.865 14.068 15.011zm-7.261.07c0-5.655-2.584-9.076-6.808-9.076-4.258 0-6.877 3.457-6.877 9.076 0 5.691 2.619 9.217 6.877 9.217 4.22-.001 6.804-3.492 6.804-9.217z" fill="#ef516c"/><path data-name="パス 324" d="M214.617 19.06a22.378 22.378 0 0 0-3.456.175v-6.179a29.7 29.7 0 0 0 4.573.209h2.794c1.78 0 3.071-.035 4.608-.174a33.1 33.1 0 0 0-.244 4.748v3.909a35.6 35.6 0 0 0 .244 5.2 17.36 17.36 0 0 1-4.434 2.2 23.345 23.345 0 0 1-7.4 1.186c-4.433 0-7.889-1.221-10.367-3.734-2.654-2.654-4.12-6.808-4.12-11.591 0-9.181 5.551-15.011 14.348-15.011 4.364 0 7.681 1.362 9.985 4.154a10.161 10.161 0 0 1 2.06 3.805l-7.121 1.641a4.424 4.424 0 0 0-1.571-2.513 5.384 5.384 0 0 0-3.527-1.083c-4.469 0-6.912 3.248-6.912 9.111 0 3.247.733 5.76 2.13 7.3a6.554 6.554 0 0 0 5.026 1.885 10.47 10.47 0 0 0 5.063-1.258v-3.98z" fill="#ef516c"/><path data-name="パス 325" d="M255.146.629a34.487 34.487 0 0 0-.28 5.271v12.01c0 7.958-4.783 12.462-13.2 12.462-4.329 0-7.854-1.221-9.948-3.42-2.026-2.164-3.073-5.2-3.073-9.111V5.901a34.059 34.059 0 0 0-.279-5.271h7.541a32.437 32.437 0 0 0-.279 5.271v12.01c0 4.4 1.99 6.493 6.073 6.493 4.189 0 6.179-2.095 6.179-6.493V5.901a34.416 34.416 0 0 0-.279-5.271z" fill="#ef516c"/><path data-name="パス 326" d="M278.43 29.674a33.944 33.944 0 0 0-1.711-5.447c-1.117-3.037-1.535-3.839-2.408-4.608a3.813 3.813 0 0 0-2.723-.943h-3.565v5.726a36.683 36.683 0 0 0 .28 5.271h-7.506a34.476 34.476 0 0 0 .279-5.236V5.655a37.193 37.193 0 0 0-.279-5.131c1.536.07 2.828.1 5.2.1h9.076c5.655 0 8.937 2.932 8.937 7.958a7.607 7.607 0 0 1-2.06 5.725 7.731 7.731 0 0 1-3.317 1.746c1.781.558 2.583 1.361 3.7 3.839.524 1.117 1.012 2.3 2.583 6.074.384.978.8 1.85 1.676 3.7zm-4.957-16.967a3.044 3.044 0 0 0 3.316-3.246c0-1.956-1.117-2.968-3.281-2.968h-5.485v6.214z" fill="#ef516c"/><path data-name="パス 327" d="M310.684 29.673a28.572 28.572 0 0 0-.837-3.771l-.944-2.967h-9.949l-.942 2.967a20.149 20.149 0 0 0-.873 3.771h-8.168a34.477 34.477 0 0 0 1.676-4.26l7.54-21.015a21.3 21.3 0 0 0 1.117-3.769h9.111a27.767 27.767 0 0 0 1.188 3.769l7.574 21.015c.663 1.851 1.223 3.282 1.677 4.26zm-6.808-23.076L300.63 17.07h6.563z" fill="#ef516c"/></svg>