<svg xmlns="http://www.w3.org/2000/svg" width="41.28" height="44.617"><defs><linearGradient id="a" x1=".5" x2=".5" y2="1" gradientUnits="objectBoundingBox"><stop offset="0" stop-color="#e0b6d1"/><stop offset="1" stop-color="#f4a5ca"/></linearGradient></defs><g transform="rotate(-7 39.133 13.134)" fill="url(#a)"><path data-name="パス 438" d="M12.645 12.251c-1.111 1.111-1.652 3.509-.5 6.162 1.217 2.816.538 4.108-.444 5.2-.937 1.038-8.929 7.944-10.511 9.526a4.05 4.05 0 1 0 5.727 5.728c1.582-1.581 8.426-9.367 9.526-10.511 1.016-1.058 2.38-1.662 5.2-.444 2.652 1.146 5.051.606 6.161-.506l1.515-1.514-15.16-15.157zM5.113 37.062a1.5 1.5 0 1 1 0-2.128 1.506 1.506 0 0 1 0 2.128z"/><path data-name="パス 439" d="M38.913 11.851L32.259 5.2a.269.269 0 0 0-.315-.05l-2.927 1.515a.27.27 0 0 1-.363-.365l1.518-2.927a.271.271 0 0 0-.049-.317l-2.024-2.02a3.539 3.539 0 0 0-5 0 3.584 3.584 0 0 0-.306.347l-6.939 9.034L29.531 24.1l9.035-6.938a3.413 3.413 0 0 0 .346-.3 3.536 3.536 0 0 0 0-5zm-9.208 9.589L18.51 10.244l2.758-3.592c2 .38 6.649 1.936 8.1 5.962 1.134 3.137 2.623 5.211 4.273 5.8z"/></g></svg>