<svg xmlns="http://www.w3.org/2000/svg" width="106.318" height="106.318"><defs><linearGradient id="a" x1=".5" x2=".5" y2="1" gradientUnits="objectBoundingBox"><stop offset="0" stop-color="#e0b6d1"/><stop offset="1" stop-color="#f4a5ca"/></linearGradient></defs><g data-name="グループ化 273" transform="translate(-1280.773 -4442.838)"><ellipse data-name="楕円形 37" cx="38.915" cy="38.915" rx="38.915" ry="38.915" transform="rotate(-30 9003.455 -149.077)" fill="url(#a)"/><g data-name="グループ化 268" fill="#d074a2"><path data-name="パス 434" d="M1315.465 4512.154h31.554a1.936 1.936 0 0 0 1.93-1.929v-20.46a1.935 1.935 0 0 0-1.93-1.929h-31.554a1.934 1.934 0 0 0-1.93 1.929v20.46a1.935 1.935 0 0 0 1.93 1.929zm.58-21.81h30.4v19.3h-30.4z"/><path data-name="パス 435" d="M1310.398 4513.262v.483a1.549 1.549 0 0 0 1.544 1.542h38.118a1.549 1.549 0 0 0 1.544-1.544v-.483z"/></g><g data-name="グループ化 266" fill="#fff"><path data-name="パス 434" d="M1318.465 4509.154h31.554a1.936 1.936 0 0 0 1.93-1.929v-20.46a1.935 1.935 0 0 0-1.93-1.929h-31.554a1.934 1.934 0 0 0-1.93 1.929v20.46a1.935 1.935 0 0 0 1.93 1.929zm.58-21.81h30.4v19.3h-30.4z"/><path data-name="パス 435" d="M1313.398 4510.262v.483a1.549 1.549 0 0 0 1.544 1.542h38.118a1.549 1.549 0 0 0 1.544-1.544v-.483z"/></g></g></svg>