<svg xmlns="http://www.w3.org/2000/svg" width="107.248" height="107.248"><defs><linearGradient id="a" x1=".5" x2=".5" y2="1" gradientUnits="objectBoundingBox"><stop offset="0" stop-color="#e0b6d1"/><stop offset="1" stop-color="#f4a5ca"/></linearGradient></defs><g data-name="グループ化 272"><g data-name="グループ化 250"><ellipse data-name="楕円形 38" cx="38.915" cy="38.915" rx="38.915" ry="38.915" transform="rotate(148 44.16 48.38)" fill="url(#a)"/></g><g fill="#c471a0"><path data-name="パス 436" d="M77.453 44.056a3.813 3.813 0 0 0-1.068-2.294 11.3 11.3 0 0 1-1.19 3.021l-13.579 27.77c-1.054 2.153-2.369 4.8-5.26 4.494-.11-.007-19.324-2.025-19.324-2.025.545.858 1.156 1.963 2.232 2.078l15.821 1.669c1.833.2 3.574.454 5.223-.633 1.828-1.2 2.776-3.386 3.689-5.252l12.874-27.1a4.338 4.338 0 0 0 .577-1.724c.008-.064.005-.013.005-.004z"/><path data-name="パス 437" d="M55.003 75.029a4.666 4.666 0 0 0 4.29-2.511l4.413-9.021 10.822-22.129c.761-1.555.072-2.965-1.526-3.137L55.216 36.32a4.66 4.66 0 0 0-4.291 2.512L35.689 69.983c-.758 1.551-.076 2.964 1.528 3.136zm-6.562-4.49a2.107 2.107 0 0 1-1.938 1.133.9.9 0 0 1-.685-1.415 2.1 2.1 0 0 1 1.93-1.131.9.9 0 0 1 .693 1.413zm4.952-30.2l17.527 1.879-12.2 24.939-17.529-1.883z"/></g><g data-name="スマホアイコン" fill="#fff"><path data-name="パス 436" d="M74.453 42.056a3.813 3.813 0 0 0-1.068-2.294 11.3 11.3 0 0 1-1.19 3.021l-13.579 27.77c-1.054 2.153-2.369 4.8-5.26 4.494-.11-.007-19.324-2.025-19.324-2.025.545.858 1.156 1.963 2.232 2.078l15.821 1.669c1.833.2 3.574.454 5.223-.633 1.828-1.2 2.776-3.386 3.689-5.252l12.874-27.1a4.338 4.338 0 0 0 .577-1.724c.008-.064.005-.013.005-.004z"/><path data-name="パス 437" d="M52.003 73.029a4.666 4.666 0 0 0 4.29-2.511l4.413-9.021 10.822-22.129c.761-1.555.072-2.965-1.526-3.137L52.216 34.32a4.66 4.66 0 0 0-4.291 2.512L32.689 67.983c-.758 1.551-.076 2.964 1.528 3.136zm-6.562-4.49a2.107 2.107 0 0 1-1.938 1.133.9.9 0 0 1-.685-1.415 2.1 2.1 0 0 1 1.93-1.131.9.9 0 0 1 .693 1.413zm4.952-30.2l17.527 1.879-12.2 24.939-17.529-1.883z"/></g></g></svg>