<svg xmlns="http://www.w3.org/2000/svg" width="231.889" height="45.902"><g data-name="グループ化 222"><path data-name="パス 186" d="M10.419 30.394V45.41H-.001V.493h15.846a26.161 26.161 0 0 1 8.157 1.125 15.658 15.658 0 0 1 5.608 3.1 12.079 12.079 0 0 1 3.248 4.656 15.784 15.784 0 0 1 1.051 5.8 17.1 17.1 0 0 1-1.079 6.166 12.378 12.378 0 0 1-3.3 4.809 15.5 15.5 0 0 1-5.626 3.127 25.714 25.714 0 0 1-8.062 1.125zm0-7.859h5.426q4.069 0 5.86-1.945a7.712 7.712 0 0 0 1.786-5.423 8.114 8.114 0 0 0-.462-2.805 5.68 5.68 0 0 0-1.4-2.173 6.288 6.288 0 0 0-2.374-1.4 10.5 10.5 0 0 0-3.407-.5h-5.426z" fill="#ef516c"/><path data-name="パス 187" d="M139.465 45.41h-10.482V.493h10.482z" fill="#221816"/><path data-name="パス 188" d="M180.436 33.788a2.125 2.125 0 0 1 .737.136 2.053 2.053 0 0 1 .714.478l4.128 4.349a17.131 17.131 0 0 1-6.8 5.349 23.788 23.788 0 0 1-9.665 1.8 23.069 23.069 0 0 1-9.172-1.742 19.849 19.849 0 0 1-6.875-4.809 21.2 21.2 0 0 1-4.331-7.276 26.877 26.877 0 0 1-1.511-9.141 24.1 24.1 0 0 1 1.726-9.233 21.276 21.276 0 0 1 12.239-12.008 25.841 25.841 0 0 1 9.526-1.7 24.268 24.268 0 0 1 4.763.447 23.19 23.19 0 0 1 4.175 1.233 19.671 19.671 0 0 1 3.579 1.881 17.367 17.367 0 0 1 2.9 2.418l-3.517 4.717a4.471 4.471 0 0 1-.8.789 2.1 2.1 0 0 1-1.3.355 2.318 2.318 0 0 1-1.046-.247c-.329-.164-.678-.367-1.048-.6s-.776-.493-1.218-.773a9.344 9.344 0 0 0-1.572-.768 13 13 0 0 0-2.127-.6 14.517 14.517 0 0 0-2.852-.247 13.039 13.039 0 0 0-5.179 1 11.324 11.324 0 0 0-4.018 2.877 13.3 13.3 0 0 0-2.62 4.516 17.718 17.718 0 0 0-.94 5.95 18.507 18.507 0 0 0 .94 6.135 13.472 13.472 0 0 0 2.559 4.516 10.858 10.858 0 0 0 3.776 2.79 11.292 11.292 0 0 0 4.624.956 21.557 21.557 0 0 0 2.59-.141 10.521 10.521 0 0 0 2.173-.475 10.217 10.217 0 0 0 1.911-.879 12.759 12.759 0 0 0 1.834-1.341 3.6 3.6 0 0 1 .8-.509 2.088 2.088 0 0 1 .897-.203z" fill="#221816"/><path data-name="パス 189" d="M215.614 28.331V45.41h-10.423V28.331L188.914.493h9.187a3.392 3.392 0 0 1 2.158.632 4.7 4.7 0 0 1 1.295 1.619l6.353 13.071 1.416 2.9q.649 1.328 1.143 2.62a23.721 23.721 0 0 1 1.107-2.651q.648-1.326 1.387-2.867l6.292-13.071a3.733 3.733 0 0 1 .506-.8 4.507 4.507 0 0 1 .74-.727 3.637 3.637 0 0 1 .956-.522 3.385 3.385 0 0 1 1.187-.2h9.249z" fill="#221816"/><path data-name="パス 190" d="M86.134 22.936a24.118 24.118 0 0 1-1.68 9.061 21.4 21.4 0 0 1-12.085 12.146 26.788 26.788 0 0 1-19.1 0 21.42 21.42 0 0 1-12.131-12.146 25.281 25.281 0 0 1 0-18.125 21.56 21.56 0 0 1 4.748-7.276 22 22 0 0 1 7.383-4.843 25.12 25.12 0 0 1 9.557-1.755 24.812 24.812 0 0 1 9.541 1.773 22.041 22.041 0 0 1 7.353 4.853 21.727 21.727 0 0 1 4.732 7.276 24.08 24.08 0 0 1 1.682 9.036zm-10.667 0a19.5 19.5 0 0 0-.863-6 12.7 12.7 0 0 0-2.482-4.516 10.7 10.7 0 0 0-3.961-2.836 13.635 13.635 0 0 0-5.333-.987 13.834 13.834 0 0 0-5.38.987 10.675 10.675 0 0 0-3.977 2.836 12.7 12.7 0 0 0-2.482 4.516 21.364 21.364 0 0 0 0 12.023 12.7 12.7 0 0 0 2.482 4.516 10.526 10.526 0 0 0 3.977 2.821 14.028 14.028 0 0 0 5.38.971 13.825 13.825 0 0 0 5.333-.971 10.551 10.551 0 0 0 3.961-2.821 12.7 12.7 0 0 0 2.482-4.516 19.606 19.606 0 0 0 .864-6.023z" fill="#ef516c"/><path data-name="パス 191" d="M84.453 31.997a23.984 23.984 0 0 0 1.66-8.632l-13 20.434a21.468 21.468 0 0 0 6.61-4.509 21.831 21.831 0 0 0 4.73-7.293z" fill="#ef516c"/><path data-name="パス 192" d="M104.015 37.084h16.647v8.326h-27.07V.493h10.423z" fill="#ef516c"/><path data-name="パス 193" d="M104.014.493h-3.343l-7.077 11.121v33.8h27.067V37.09h-16.647z" fill="#221816"/></g></svg>