<svg xmlns="http://www.w3.org/2000/svg" width="256.141" height="45.319"><g data-name="グループ化 140"><path data-name="パス 165" d="M10.287 30.009v14.822H0V.487h15.644a25.8 25.8 0 0 1 8.05 1.111 15.45 15.45 0 0 1 5.539 3.059 11.926 11.926 0 0 1 3.211 4.6 15.581 15.581 0 0 1 1.035 5.722 16.823 16.823 0 0 1-1.065 6.087 12.215 12.215 0 0 1-3.257 4.748 15.346 15.346 0 0 1-5.555 3.089 25.46 25.46 0 0 1-7.959 1.111zm0-7.761h5.357q4.017 0 5.783-1.917a7.614 7.614 0 0 0 1.765-5.357 8.012 8.012 0 0 0-.456-2.77 5.636 5.636 0 0 0-1.385-2.146 6.226 6.226 0 0 0-2.344-1.385 10.367 10.367 0 0 0-3.363-.487h-5.357z" fill="#ef516c"/><path data-name="パス 166" d="M51.555 28.427v16.4H41.268V.487h14.426a29.605 29.605 0 0 1 8.2.989 15.4 15.4 0 0 1 5.539 2.754 10.425 10.425 0 0 1 3.12 4.17 13.816 13.816 0 0 1 .976 5.235 14.052 14.052 0 0 1-.581 4.078 12.285 12.285 0 0 1-1.72 3.546 13.31 13.31 0 0 1-2.8 2.907 14.867 14.867 0 0 1-3.82 2.1 9.668 9.668 0 0 1 1.933 1.278 7.553 7.553 0 0 1 1.567 1.857l9.438 15.431H68.23a3.951 3.951 0 0 1-3.713-1.948L57.152 30.01a3.082 3.082 0 0 0-1.141-1.217 3.819 3.819 0 0 0-1.841-.365zm0-7.091h4.139a10.573 10.573 0 0 0 3.576-.533 6.472 6.472 0 0 0 2.422-1.476 5.679 5.679 0 0 0 1.37-2.207 8.538 8.538 0 0 0 .426-2.724 5.72 5.72 0 0 0-1.9-4.565q-1.906-1.644-5.892-1.644h-4.139z" fill="#ef516c"/><path data-name="パス 167" d="M127.948 22.642a23.833 23.833 0 0 1-1.659 8.948 21.148 21.148 0 0 1-11.931 11.992 26.483 26.483 0 0 1-18.855 0A21.167 21.167 0 0 1 83.527 31.59a24.965 24.965 0 0 1 0-17.9 21.283 21.283 0 0 1 4.687-7.183 21.669 21.669 0 0 1 7.289-4.778 24.8 24.8 0 0 1 9.435-1.735 24.494 24.494 0 0 1 9.42 1.75 21.726 21.726 0 0 1 7.258 4.798 21.4 21.4 0 0 1 4.672 7.183 23.75 23.75 0 0 1 1.66 8.917zm-10.532 0a19.174 19.174 0 0 0-.852-5.92 12.536 12.536 0 0 0-2.45-4.459 10.566 10.566 0 0 0-3.911-2.8 13.46 13.46 0 0 0-5.265-.974 13.658 13.658 0 0 0-5.311.974 10.539 10.539 0 0 0-3.926 2.8 12.537 12.537 0 0 0-2.45 4.459 21.091 21.091 0 0 0 0 11.87 12.537 12.537 0 0 0 2.45 4.459 10.392 10.392 0 0 0 3.926 2.785 13.849 13.849 0 0 0 5.311.959 13.648 13.648 0 0 0 5.265-.959 10.417 10.417 0 0 0 3.911-2.785 12.536 12.536 0 0 0 2.45-4.459 19.282 19.282 0 0 0 .852-5.95z" fill="#ef516c"/><g data-name="グループ化 139" fill="#221816"><path data-name="パス 168" d="M163.863.487V8.4h-18.2v11.231h15.156v7.944h-15.157v17.257h-10.348V.487z"/><path data-name="パス 169" d="M182.915 44.832h-10.348V.487h10.348z"/><path data-name="パス 170" d="M203.856 36.614h16.433v8.218h-26.723V.487h10.29z"/><path data-name="パス 171" d="M256.14.487V8.4h-18.2v10.348h13.944v7.609h-13.94v10.561h18.2v7.913h-28.552V.487z"/><path data-name="パス 172" d="M121.618 38.79a21.565 21.565 0 0 0 4.672-7.2 24.882 24.882 0 0 0 0-17.866c-.056-.142-.127-.269-.185-.408l-9.438 14.83c-.041.142-.056.307-.1.446a12.536 12.536 0 0 1-2.45 4.459 10.348 10.348 0 0 1-1.344 1.217l-7.008 11.013a24.339 24.339 0 0 0 8.6-1.7 21.423 21.423 0 0 0 7.253-4.791z"/></g></g></svg>