<svg xmlns="http://www.w3.org/2000/svg" width="1929.08" height="1611.434"><defs><linearGradient id="a" x1=".83" y1=".11" x2=".08" y2="1" gradientUnits="objectBoundingBox"><stop offset="0" stop-color="#ffd1c7"/><stop offset="1" stop-color="#ffafbd"/></linearGradient><linearGradient id="b" x1=".973" x2=".02" y2="1.013" gradientUnits="objectBoundingBox"><stop offset="0" stop-color="#ffd7c2"/><stop offset="1" stop-color="#ffc6d0"/></linearGradient><linearGradient id="c" x1=".983" y1=".01" x2=".02" y2="1.013" gradientUnits="objectBoundingBox"><stop offset="0" stop-color="#ffd6c2"/><stop offset="1" stop-color="#ffced3"/></linearGradient></defs><g data-name="グループ化 234"><g data-name="グループ化 233"><path data-name="パス 340" d="M0 0h1920v431s-464.572-99.237-944.572-58.963S0 592.1 0 592.1z" transform="translate(.783 1019.338)" fill="url(#a)"/><path data-name="パス 339" d="M-18262 10457.934s186.4 90.117 635.055-32.6c423.84-120.748 865.018-379.8 1285.6-373.56-5.423 4.675 7.638 1288.886 7.638 1288.886s-101.167-205.955-365.517-190.173-488.551 333.431-1562.779 360.286c-1.759 5.327.003-1052.839.003-1052.839z" transform="translate(18262.783 -10051.662)" fill="url(#b)"/><path data-name="交差 8" d="M18372-7706.229c.139-301.7.756-673.392.756-673.392s186.4 90.113 635.059-32.6c390.053-111.124 794.865-339.389 1184.723-370.209-9.564 24.361-73.527 135.632-486.2 625.753-337.152 400.432-817.631 467.172-1100.613 467.16-140.204-.007-231.987-16.4-233.725-16.712z" transform="translate(-18370.979 8791.895)" fill="url(#c)"/></g></g></svg>