<svg xmlns="http://www.w3.org/2000/svg" width="306.361" height="46.196"><g data-name="グループ化 245"><g data-name="グループ化 133"><g data-name="グループ化 180" fill="#ef516c"><path data-name="パス 138" d="M10.84 30.353v15.343H0V.667h18.012a22.491 22.491 0 0 1 9.173 1.835 14.87 14.87 0 0 1 6.171 5.337 14.423 14.423 0 0 1 2.168 8.005 13 13 0 0 1-4.67 10.507q-4.753 4-13.008 4h-7zm0-8.339h7.171a7 7 0 0 0 4.836-1.5 5.566 5.566 0 0 0 1.668-4.5 6.737 6.737 0 0 0-1.668-5 6.056 6.056 0 0 0-4.67-2H10.84z"/><path data-name="パス 139" d="M68.21 29.685h-5.837v16.01h-10.84V.667h17.678q8.005 0 12.508 3.5t4.5 10.006a16.018 16.018 0 0 1-1.834 7.838 15.107 15.107 0 0 1-6 5l9.338 18.184v.5H76.049zm-6-8.339h6.838a5.941 5.941 0 0 0 4.67-1.668 6.675 6.675 0 0 0 1.5-4.5c0-1.835-.334-3.5-1.5-4.5a5.941 5.941 0 0 0-4.67-1.668h-6.842v12.337z"/><path data-name="パス 140" d="M141.09 24.015a26.123 26.123 0 0 1-2.5 11.674 18.833 18.833 0 0 1-7 7.838 19.514 19.514 0 0 1-10.346 2.673 18.692 18.692 0 0 1-17.178-10.177 27.041 27.041 0 0 1-2.668-11.341v-2.5a26.124 26.124 0 0 1 2.5-11.674 18.833 18.833 0 0 1 7-7.838A21.665 21.665 0 0 1 121.244 0a18.927 18.927 0 0 1 10.173 2.668 18.381 18.381 0 0 1 7 7.672 25.4 25.4 0 0 1 2.5 11.507v2.168zm-11.174-1.834c0-4.5-.667-7.838-2.168-10.173a7.27 7.27 0 0 0-6.5-3.5c-5.5 0-8.339 4-8.672 12.174v3.335c0 4.336.667 7.838 2.168 10.173a7.27 7.27 0 0 0 6.5 3.5 7.189 7.189 0 0 0 6.337-3.5c1.5-2.335 2.168-5.67 2.335-10.006v-2z"/><path data-name="パス 141" d="M185.118 27.684h-17.511v18.012h-10.84V.667h30.186v8.339h-19.346v10.34h17.511z"/></g><path data-name="パス 142" d="M213.136 45.696h-10.84V.667h10.84z" fill="#389554"/><path data-name="パス 143" d="M241.654 37.357h18.845v8.339h-29.685V.667h10.84z" fill="#389554"/><path data-name="パス 144" d="M303.194 26.517h-17.011v10.84h20.18v8.339h-31.02V.667h31.02v8.339h-20.18v9.506h17.011z" fill="#389554"/></g><path data-name="交差 3" d="M275.343 45.695V.666h31.018v8.338h-20.177v9.506h17.014v8.007h-17.01v10.84h20.176v8.338zm-44.529 0V.666h10.84v36.691h18.844v8.338zm-28.516 0V.666h10.838v45.029zm-45.3 0l11.456-26.351h16.663v8.338H167.61v18.013zm15.95-36.691l3.626-8.338h10.38v8.338z" fill="#c9154f"/></g></svg>