<svg xmlns="http://www.w3.org/2000/svg" width="166.359" height="45.445"><g data-name="グループ化 141"><path data-name="パス 174" d="M116.508 36.716h16.486v8.241h-26.8V.488h10.317z" fill="#221816"/><path data-name="パス 175" d="M149.878 36.716h16.482v8.241h-26.8V.488h10.318z" fill="#221816"/><g data-name="グループ化 155" fill="#ef516c"><path data-name="パス 173" d="M28.021 9.52a3.908 3.908 0 0 1-.959 1.1 2.147 2.147 0 0 1-1.3.366 3.18 3.18 0 0 1-1.508-.44c-.542-.3-1.152-.626-1.834-.995a15.447 15.447 0 0 0-2.335-.992 9.409 9.409 0 0 0-2.989-.44 6.453 6.453 0 0 0-4.321 1.234 4.213 4.213 0 0 0-1.419 3.342 3.089 3.089 0 0 0 .855 2.228 7.323 7.323 0 0 0 2.243 1.526 23.607 23.607 0 0 0 3.177 1.175q1.782.534 3.647 1.193a32.313 32.313 0 0 1 3.645 1.541 12.1 12.1 0 0 1 3.174 2.256 10.606 10.606 0 0 1 2.246 3.342 11.928 11.928 0 0 1 .855 4.746 15.517 15.517 0 0 1-1.068 5.769 13.489 13.489 0 0 1-3.1 4.685 14.4 14.4 0 0 1-5 3.146 18.808 18.808 0 0 1-6.763 1.142 21.667 21.667 0 0 1-4.227-.427 25 25 0 0 1-4.164-1.206 24.069 24.069 0 0 1-3.787-1.844 16.289 16.289 0 0 1-3.083-2.381l3.055-4.823a2.454 2.454 0 0 1 .946-.888 2.689 2.689 0 0 1 1.31-.333 3.453 3.453 0 0 1 1.847.58q.931.576 2.106 1.282a16.918 16.918 0 0 0 2.7 1.279 10.129 10.129 0 0 0 3.6.58 6.867 6.867 0 0 0 4.365-1.234 4.707 4.707 0 0 0 1.559-3.922 3.7 3.7 0 0 0-.857-2.533 6.584 6.584 0 0 0-2.243-1.62 20.572 20.572 0 0 0-3.159-1.129q-1.77-.485-3.632-1.084a26.553 26.553 0 0 1-3.632-1.463 11.517 11.517 0 0 1-3.157-2.289 10.676 10.676 0 0 1-2.246-3.541 14.134 14.134 0 0 1-.855-5.237 12.592 12.592 0 0 1 3.968-9.124 14.57 14.57 0 0 1 4.795-2.976 17.675 17.675 0 0 1 6.5-1.114 24.381 24.381 0 0 1 3.983.32 21.16 21.16 0 0 1 3.678.944 20.108 20.108 0 0 1 3.251 1.5 14.98 14.98 0 0 1 2.7 1.966z"/><g data-name="グループ化 142"><path data-name="パス 176" d="M50.016 18.5h1.648a3.744 3.744 0 0 0 3.3-1.435L64.975 2.534A4.294 4.294 0 0 1 66.852.916a6.927 6.927 0 0 1 2.579-.425h8.974L65.216 18.463a8.834 8.834 0 0 1-1.465 1.62 9.38 9.38 0 0 1-1.557 1.068 7.386 7.386 0 0 1 3.876 3.174L79.5 44.956h-9.218a8.263 8.263 0 0 1-1.511-.12 3.954 3.954 0 0 1-1.083-.369 3.112 3.112 0 0 1-.794-.593 6.1 6.1 0 0 1-.641-.811L56.181 27.588a3.028 3.028 0 0 0-1.389-1.2 5.966 5.966 0 0 0-2.274-.354h-2.502v18.924H39.697V.488h10.319z"/><path data-name="パス 177" d="M79.498 44.956l-4.787-7.353-4.667 7.336c.089 0 .145.018.237.018z"/></g><path data-name="パス 178" d="M96.264 44.957H85.886V.488h10.378z"/></g><path data-name="パス 179" d="M96.263 6.39L85.885 22.698v22.26h10.378z" fill="#221816"/></g></svg>