<svg xmlns="http://www.w3.org/2000/svg" width="1925.777" height="1463.529"><defs><linearGradient id="a" x1="1.06" y1=".035" x2="-.041" y2=".874" gradientUnits="objectBoundingBox"><stop offset="0" stop-color="#ffd1c7"/><stop offset="1" stop-color="#ffafbd"/></linearGradient><linearGradient id="b" x1="1.06" y1=".035" x2="-.041" y2=".874" gradientUnits="objectBoundingBox"><stop offset="0" stop-color="#ffd6c2"/><stop offset="1" stop-color="#ffced3"/></linearGradient><linearGradient id="c" x1="1.06" y1=".035" x2="-.041" y2=".874" gradientUnits="objectBoundingBox"><stop offset="0" stop-color="#ffd6c2"/><stop offset="1" stop-color="#ffd8db"/></linearGradient></defs><g data-name="グループ化 248"><g data-name="グループ化 235"><path data-name="パス 343" d="M-18261.842 11978.815s136.93 141.5 549.021 92.536c231.049-27.455 369.26-220.391 621.463-256.914 350.217-68.152 474.211 77.358 751.613 164.378 7.923 2.485 0 1205.581 0 1205.581s-216.717-96.218-576.295-65.358-472.977 144.048-865.223 133.288S-18262 13184.4-18262 13184.4z" transform="translate(18262 -11789.516)" fill="url(#a)"/><path data-name="交差 11" d="M18555.521-7287.355l.154-1153.464s136.928 141.5 549.02 92.533c231.051-27.455 1095.674-179.556 1373.076-92.533 4.584 1.436 3.863 404.84 2.441 744.556l-4.7 46.824s-283.525-253.95-765.271 129.8c-269.186 214.431-598.121 261.726-836.051 261.716-182.204-.009-311.065-27.759-318.669-29.432z" transform="translate(-18555.516 8630.121)" fill="url(#b)"/><path data-name="交差 10" d="M18456.611-7615.345l.113-872.94s136.928 144.782 549.018 94.682c231.049-28.093 385.145-205.739 637.342-243.105 349.537-69.6 457.889 58.876 734.09 147.895-1.2 36.468-17.311 310.917-229.863 299.393-227.664-12.341-586.26 350.347-975.227 534.164-151.395 71.545-293.4 93.389-410.451 93.382-174.893-.011-294.024-48.8-305.022-53.471z" transform="translate(-18456.563 8656.599)" fill="url(#c)"/></g></g></svg>