<svg xmlns="http://www.w3.org/2000/svg" width="106.318" height="106.318"><defs><linearGradient id="a" x1=".5" x2=".5" y2="1" gradientUnits="objectBoundingBox"><stop offset="0" stop-color="#9795f0"/><stop offset="1" stop-color="#fbc8d4"/></linearGradient></defs><g data-name="グループ化 270"><g data-name="グループ化 212"><ellipse data-name="楕円形 37" cx="38.915" cy="38.915" rx="38.915" ry="38.915" transform="rotate(-30 72.62 19.459)" fill="url(#a)"/></g><path data-name="パス 440" d="M34.768 66.64a1.824 1.824 0 0 1 1.456-.743h.048l3.184.7 4.085.893 7.094 1.552a4.7 4.7 0 0 0 1.042.112 4.938 4.938 0 0 0 3.261-1.227l.243-.213 8.422-7.458 2.8-2.484a1.02 1.02 0 0 0-1.349-1.528l-3 2.653-8.471 7.5a2.89 2.89 0 0 1-1.912.723 2.926 2.926 0 0 1-.611-.063l-4.842-1.073-5.848-1.291-4.1-.907h-.005v-.013l-.029-.005-.587-.13a1.821 1.821 0 0 1-.46-.233 1.829 1.829 0 0 1-.743-1.461 1.927 1.927 0 0 1 .083-.538 1.864 1.864 0 0 1 .268-.523 1.711 1.711 0 0 1 .639-.544 1.746 1.746 0 0 1 .816-.2h.045l3.185.7 4.085.893 7.094 1.552a4.708 4.708 0 0 0 1.042.112 4.576 4.576 0 0 0 .587-.034 4.924 4.924 0 0 0 2.675-1.194l.242-.212 8.423-7.458 2.8-2.484a1.013 1.013 0 0 0 .218-1.247.848.848 0 0 0-.131-.194 1.014 1.014 0 0 0-1.435-.088l-3 2.654-8.472 7.5a2.9 2.9 0 0 1-2.523.66l-4.828-1.084-5.847-1.295-4.1-.908h-.005v-.014h-.028l-.59-.131c-.029-.01-.054-.024-.082-.035a1.6 1.6 0 0 1-.209-.1.914.914 0 0 1-.17-.1 1.819 1.819 0 0 1-.742-1.46 1.779 1.779 0 0 1 .35-1.063 1.721 1.721 0 0 1 .64-.543 1.739 1.739 0 0 1 .815-.2c.049 0 .1.005.146.005l2.241.484 1.984.427 9.8 2.12a3.883 3.883 0 0 0 3.41-.887l6.026-5.307 3.605-3.174 2.547-2.246a1.959 1.959 0 0 0-.883-3.381l-.766-.166-5.585-1.205-7.08-1.529a3.885 3.885 0 0 0-3.41.888l-9.457 8.307-2.844 2.5-2.473 2.172a2.5 2.5 0 0 0-.267.359 1.722 1.722 0 0 0-.121.16 3.841 3.841 0 0 0 .5 5.119l-.01.01-.137.116a2.678 2.678 0 0 0-.267.36 2 2 0 0 0-.121.16 3.819 3.819 0 0 0 .5 5.117l-.012.012-.138.116a2.669 2.669 0 0 0-.265.36 1.6 1.6 0 0 0-.121.16 3.8 3.8 0 0 0-.568 1.12 3.88 3.88 0 0 0 1.416 4.293 3.761 3.761 0 0 0 1.121.563l.043.014 4.314.947 4.084.893 7.094 1.552a4.709 4.709 0 0 0 1.042.112A4.942 4.942 0 0 0 54.9 73.69l.243-.213 8.427-7.457 2.8-2.484a1.02 1.02 0 0 0-1.349-1.528l-3 2.653-8.472 7.5a2.918 2.918 0 0 1-2.523.659l-4.837-1.076-5.847-1.291-4.1-.907-.587-.131a1.836 1.836 0 0 1-.5-.251 1.832 1.832 0 0 1-.742-1.461 1.78 1.78 0 0 1 .349-1.062z" fill="#a082d6"/><g data-name="積み重ねた本のアイコン素材3"><path data-name="パス 440" d="M37.768 64.64a1.824 1.824 0 0 1 1.456-.743h.048l3.184.7 4.085.893 7.094 1.552a4.7 4.7 0 0 0 1.042.112 4.938 4.938 0 0 0 3.261-1.227l.243-.213 8.422-7.458 2.8-2.484a1.02 1.02 0 0 0-1.349-1.528l-3 2.653-8.471 7.5a2.89 2.89 0 0 1-1.912.723 2.926 2.926 0 0 1-.611-.063l-4.842-1.073-5.848-1.291-4.1-.907h-.005v-.013l-.029-.005-.587-.13a1.821 1.821 0 0 1-.46-.233 1.829 1.829 0 0 1-.743-1.461 1.927 1.927 0 0 1 .083-.538 1.864 1.864 0 0 1 .268-.523 1.711 1.711 0 0 1 .639-.544 1.746 1.746 0 0 1 .816-.2h.045l3.185.7 4.085.893 7.094 1.552a4.708 4.708 0 0 0 1.042.112 4.576 4.576 0 0 0 .587-.034 4.924 4.924 0 0 0 2.675-1.194l.242-.212 8.423-7.458 2.8-2.484a1.013 1.013 0 0 0 .218-1.247.848.848 0 0 0-.131-.194 1.014 1.014 0 0 0-1.435-.088l-3 2.654-8.472 7.5a2.9 2.9 0 0 1-2.523.66l-4.828-1.084-5.847-1.295-4.1-.908h-.005v-.014h-.028l-.59-.131c-.029-.01-.054-.024-.082-.035a1.6 1.6 0 0 1-.209-.1.914.914 0 0 1-.17-.1 1.819 1.819 0 0 1-.742-1.46 1.779 1.779 0 0 1 .35-1.063 1.721 1.721 0 0 1 .64-.543 1.739 1.739 0 0 1 .815-.2c.049 0 .1.005.146.005l2.241.484 1.984.427 9.8 2.12a3.883 3.883 0 0 0 3.41-.887l6.026-5.307 3.605-3.174 2.547-2.246a1.959 1.959 0 0 0-.883-3.381l-.766-.166-5.585-1.205-7.08-1.529a3.885 3.885 0 0 0-3.41.888l-9.457 8.307-2.844 2.5-2.473 2.172a2.5 2.5 0 0 0-.267.359 1.722 1.722 0 0 0-.121.16 3.841 3.841 0 0 0 .5 5.119l-.01.01-.137.116a2.678 2.678 0 0 0-.267.36 2 2 0 0 0-.121.16 3.819 3.819 0 0 0 .5 5.117l-.012.012-.138.116a2.669 2.669 0 0 0-.265.36 1.6 1.6 0 0 0-.121.16 3.8 3.8 0 0 0-.568 1.12 3.88 3.88 0 0 0 1.416 4.293 3.761 3.761 0 0 0 1.121.563l.043.014 4.314.947 4.084.893 7.094 1.552a4.709 4.709 0 0 0 1.042.112A4.942 4.942 0 0 0 57.9 71.69l.243-.213 8.427-7.457 2.8-2.484a1.02 1.02 0 0 0-1.349-1.528l-3 2.653-8.472 7.5a2.918 2.918 0 0 1-2.523.659l-4.837-1.076-5.847-1.291-4.1-.907-.587-.131a1.836 1.836 0 0 1-.5-.251 1.832 1.832 0 0 1-.742-1.461 1.78 1.78 0 0 1 .349-1.062z" fill="#fff"/></g></g></svg>