<svg xmlns="http://www.w3.org/2000/svg" width="58.896" height="36.332"><defs><linearGradient id="a" x1="2.321" x2=".157" y2="1.083" gradientUnits="objectBoundingBox"><stop offset="0" stop-color="#e0b6d1"/><stop offset="1" stop-color="#f4a5ca"/></linearGradient></defs><g data-name="人物アイコン　チーム" transform="translate(.001 -98.078)" fill="url(#a)"><path data-name="パス 463" d="M16.974 123.628c-.009-.092-.038-.176-.038-.268v-.781a3.312 3.312 0 0 1 .184-1.1 20.928 20.928 0 0 0 2.88-5.7 17.992 17.992 0 0 1-1.934-7.439 16.626 16.626 0 0 1 .108-1.79 6.934 6.934 0 0 0-5.078-2.168c-4.071 0-7.375 3.322-7.375 8.484 0 4.13 3.361 8.613 3.361 8.613a3.407 3.407 0 0 1 .18 1.093v.785a2.507 2.507 0 0 1-1.462 2.282l-5.336 2.18A4.194 4.194 0 0 0 .1 130.871l-.092 1.174A2.2 2.2 0 0 0 2.2 134.41h8.723l.358-4.6.023-.124a7.522 7.522 0 0 1 4.254-5.484z"/><path data-name="パス 464" d="M58.797 130.871a4.188 4.188 0 0 0-2.367-3.052l-5.34-2.18a2.5 2.5 0 0 1-1.46-2.279v-.781a3.313 3.313 0 0 1 .182-1.093s3.359-4.483 3.359-8.613c0-5.162-3.3-8.484-7.38-8.484a6.936 6.936 0 0 0-5.078 2.171 16.069 16.069 0 0 1 .11 1.787 18.017 18.017 0 0 1-1.93 7.438 20.875 20.875 0 0 0 2.884 5.694 3.408 3.408 0 0 1 .181 1.093v.785c0 .092-.031.176-.04.268l1.323.539a7.566 7.566 0 0 1 4.353 5.52l.022.126.356 4.6h8.726a2.2 2.2 0 0 0 2.189-2.365z"/><path data-name="パス 465" d="M42.316 126.437l-6.46-2.64a3.036 3.036 0 0 1-1.767-2.757v-.953a4 4 0 0 1 .221-1.323s4.062-5.421 4.062-10.421c0-6.248-4-10.265-8.926-10.265s-8.926 4.017-8.926 10.265c0 5 4.066 10.421 4.066 10.421a4.093 4.093 0 0 1 .221 1.323v.953a3.042 3.042 0 0 1-1.77 2.757l-6.46 2.64a5.056 5.056 0 0 0-2.865 3.694l-.333 4.28h32.133l-.329-4.28a5.07 5.07 0 0 0-2.867-3.694z"/></g></svg>