<svg xmlns="http://www.w3.org/2000/svg" width="106.318" height="106.318"><defs><linearGradient id="a" x1=".5" x2=".5" y2="1" gradientUnits="objectBoundingBox"><stop offset="0" stop-color="#9795f0"/><stop offset="1" stop-color="#fbc8d4"/></linearGradient></defs><g data-name="グループ化 212" transform="translate(0 .002)"><ellipse data-name="楕円形 37" cx="38.915" cy="38.915" rx="38.915" ry="38.915" transform="rotate(-30 72.616 19.457)" fill="url(#a)"/><g data-name="人物アイコン　チーム" fill="#ab90d5"><path data-name="パス 272" d="M38.47 61.824c-.008-.078-.032-.15-.032-.228v-.67a2.824 2.824 0 0 1 .156-.932 17.848 17.848 0 0 0 2.459-4.861 15.343 15.343 0 0 1-1.649-6.344 14.179 14.179 0 0 1 .092-1.527 5.914 5.914 0 0 0-4.33-1.849c-3.472 0-6.289 2.833-6.289 7.235 0 3.522 2.866 7.345 2.866 7.345a2.905 2.905 0 0 1 .153.932v.67a2.138 2.138 0 0 1-1.248 1.944l-4.554 1.86a3.577 3.577 0 0 0-2.02 2.6l-.078 1a1.874 1.874 0 0 0 1.869 2.017h7.441l.3-3.919.02-.106a6.415 6.415 0 0 1 3.628-4.677z"/><path data-name="パス 273" d="M74.138 68.002a3.571 3.571 0 0 0-2.019-2.6l-4.554-1.859a2.136 2.136 0 0 1-1.245-1.944v-.67a2.825 2.825 0 0 1 .155-.932s2.865-3.823 2.865-7.345c0-4.4-2.816-7.235-6.294-7.235a5.915 5.915 0 0 0-4.33 1.852 13.694 13.694 0 0 1 .094 1.524 15.364 15.364 0 0 1-1.646 6.343 17.8 17.8 0 0 0 2.46 4.862 2.906 2.906 0 0 1 .155.932v.67c0 .078-.026.15-.034.228l1.128.46a6.452 6.452 0 0 1 3.713 4.707l.018.107.3 3.921h7.443a1.874 1.874 0 0 0 1.867-2.017z"/><path data-name="パス 274" d="M60.083 64.22l-5.509-2.252a2.589 2.589 0 0 1-1.507-2.351v-.812a3.411 3.411 0 0 1 .189-1.128s3.464-4.623 3.464-8.887c0-5.328-3.407-8.754-7.612-8.754s-7.612 3.426-7.612 8.754c0 4.264 3.467 8.887 3.467 8.887a3.491 3.491 0 0 1 .189 1.128v.812a2.594 2.594 0 0 1-1.51 2.351l-5.509 2.252a4.312 4.312 0 0 0-2.443 3.15l-.284 3.65h27.4l-.28-3.65a4.324 4.324 0 0 0-2.443-3.15z"/></g><g data-name="人物アイコン　チーム" fill="#fff"><path data-name="パス 272" d="M42.523 59.392c-.008-.078-.032-.15-.032-.228v-.67a2.824 2.824 0 0 1 .156-.932 17.848 17.848 0 0 0 2.459-4.861 15.343 15.343 0 0 1-1.649-6.344 14.179 14.179 0 0 1 .092-1.527 5.914 5.914 0 0 0-4.33-1.849c-3.472 0-6.289 2.833-6.289 7.235 0 3.522 2.866 7.345 2.866 7.345a2.905 2.905 0 0 1 .153.932v.67a2.138 2.138 0 0 1-1.248 1.944l-4.554 1.86a3.577 3.577 0 0 0-2.02 2.6l-.078 1a1.874 1.874 0 0 0 1.869 2.017h7.441l.3-3.919.02-.106a6.415 6.415 0 0 1 3.628-4.677z"/><path data-name="パス 273" d="M78.191 65.57a3.571 3.571 0 0 0-2.019-2.6l-4.554-1.859a2.136 2.136 0 0 1-1.245-1.944v-.67a2.825 2.825 0 0 1 .155-.932s2.865-3.823 2.865-7.345c0-4.4-2.816-7.235-6.294-7.235a5.915 5.915 0 0 0-4.33 1.852 13.694 13.694 0 0 1 .094 1.524 15.364 15.364 0 0 1-1.646 6.343 17.8 17.8 0 0 0 2.46 4.862 2.906 2.906 0 0 1 .155.932v.67c0 .078-.026.15-.034.228l1.128.46a6.452 6.452 0 0 1 3.713 4.707l.018.107.3 3.921H76.4a1.874 1.874 0 0 0 1.867-2.017z"/><path data-name="パス 274" d="M64.136 61.788l-5.509-2.252a2.589 2.589 0 0 1-1.507-2.351v-.812a3.411 3.411 0 0 1 .189-1.128s3.464-4.623 3.464-8.887c0-5.328-3.407-8.754-7.612-8.754s-7.612 3.426-7.612 8.754c0 4.264 3.467 8.887 3.467 8.887a3.491 3.491 0 0 1 .189 1.128v.812a2.594 2.594 0 0 1-1.51 2.351l-5.509 2.252a4.312 4.312 0 0 0-2.443 3.15l-.284 3.65h27.4l-.28-3.65a4.324 4.324 0 0 0-2.443-3.15z"/></g></g></svg>