<svg xmlns="http://www.w3.org/2000/svg" width="42.978" height="41.006"><defs><linearGradient id="a" x1="1.178" y1="-.226" x2=".17" y2="1" gradientUnits="objectBoundingBox"><stop offset="0" stop-color="#e0b6d1"/><stop offset="1" stop-color="#f4a5ca"/></linearGradient></defs><g transform="translate(.002 -12.252)" fill="url(#a)"><path data-name="パス 441" d="M36.958 18.185A20.492 20.492 0 0 0 24.4 12.26a1.8 1.8 0 0 0-1.971 1.8v1.38a1.8 1.8 0 0 0 1.6 1.792A15.573 15.573 0 1 1 7.407 28.646L9.426 29.9a.961.961 0 0 0 .86.091.739.739 0 0 0 .466-.635l.87-11.383a.975.975 0 0 0-1.422-.885l-9.834 5.8a.736.736 0 0 0-.365.7.955.955 0 0 0 .462.733l2.577 1.6a20.546 20.546 0 1 0 33.919-7.738z"/><path data-name="パス 442" d="M21.048 36.133a2.226 2.226 0 0 1-2.219-2.219v-9.443a2.226 2.226 0 0 1 2.219-2.219 2.226 2.226 0 0 1 2.219 2.219v9.443a2.226 2.226 0 0 1-2.219 2.219z"/><path data-name="パス 443" d="M32.711 34.361a2.226 2.226 0 0 1-2.219 2.219h-9.443a2.226 2.226 0 0 1-2.219-2.219 2.226 2.226 0 0 1 2.219-2.219h9.443a2.226 2.226 0 0 1 2.219 2.219z"/></g></svg>