<svg xmlns="http://www.w3.org/2000/svg" width="106.318" height="106.318"><defs><linearGradient id="a" x1=".5" x2=".5" y2="1" gradientUnits="objectBoundingBox"><stop offset="0" stop-color="#ffc3a0"/><stop offset="1" stop-color="#ffafbd"/></linearGradient></defs><g data-name="グループ化 267"><g data-name="グループ化 211"><ellipse data-name="楕円形 36" cx="38.915" cy="38.915" rx="38.915" ry="38.915" transform="rotate(150 44.129 47.945)" fill="url(#a)"/></g><g fill="#c77561"><path data-name="パス 441" d="M66.189 40.847a20.492 20.492 0 0 0-12.558-5.925 1.8 1.8 0 0 0-1.971 1.8v1.38a1.8 1.8 0 0 0 1.6 1.792 15.573 15.573 0 1 1-16.622 11.414l2.019 1.254a.961.961 0 0 0 .86.091.739.739 0 0 0 .466-.635l.87-11.383a.975.975 0 0 0-1.422-.885l-9.834 5.8a.736.736 0 0 0-.365.7.955.955 0 0 0 .462.733l2.577 1.6a20.546 20.546 0 1 0 33.919-7.738z"/><path data-name="パス 442" d="M50.279 58.795a2.226 2.226 0 0 1-2.219-2.219v-9.443a2.226 2.226 0 0 1 2.219-2.219 2.226 2.226 0 0 1 2.219 2.219v9.443a2.226 2.226 0 0 1-2.219 2.219z"/><path data-name="パス 443" d="M61.942 57.023a2.226 2.226 0 0 1-2.219 2.219H50.28a2.226 2.226 0 0 1-2.219-2.219 2.226 2.226 0 0 1 2.219-2.219h9.443a2.226 2.226 0 0 1 2.219 2.219z"/></g><g data-name="time" fill="#fff"><path data-name="パス 441" d="M68.189 38.847a20.492 20.492 0 0 0-12.558-5.925 1.8 1.8 0 0 0-1.971 1.8v1.38a1.8 1.8 0 0 0 1.6 1.792 15.573 15.573 0 1 1-16.622 11.414l2.019 1.254a.961.961 0 0 0 .86.091.739.739 0 0 0 .466-.635l.87-11.383a.975.975 0 0 0-1.422-.885l-9.834 5.8a.736.736 0 0 0-.365.7.955.955 0 0 0 .462.733l2.577 1.6a20.546 20.546 0 1 0 33.919-7.738z"/><path data-name="パス 442" d="M52.279 56.795a2.226 2.226 0 0 1-2.219-2.219v-9.443a2.226 2.226 0 0 1 2.219-2.219 2.226 2.226 0 0 1 2.219 2.219v9.443a2.226 2.226 0 0 1-2.219 2.219z"/><path data-name="パス 443" d="M63.942 55.023a2.226 2.226 0 0 1-2.219 2.219H52.28a2.226 2.226 0 0 1-2.219-2.219 2.226 2.226 0 0 1 2.219-2.219h9.443a2.226 2.226 0 0 1 2.219 2.219z"/></g></g></svg>