<svg xmlns="http://www.w3.org/2000/svg" width="17.752" height="14.434"><path data-name="パス 126" d="M5.57 14.433A10.3 10.3 0 0 0 15.938 4.065c0-.159 0-.317-.008-.469a7.465 7.465 0 0 0 1.821-1.889 7.4 7.4 0 0 1-2.093.574 3.642 3.642 0 0 0 1.6-2.018 7.379 7.379 0 0 1-2.312.884 3.646 3.646 0 0 0-6.3 2.494 3.339 3.339 0 0 0 .1.831A10.338 10.338 0 0 1 1.234.663a3.642 3.642 0 0 0 1.134 4.859 3.58 3.58 0 0 1-1.647-.453v.045a3.648 3.648 0 0 0 2.925 3.575 3.633 3.633 0 0 1-.96.128 3.48 3.48 0 0 1-.688-.068 3.639 3.639 0 0 0 3.4 2.532 7.325 7.325 0 0 1-4.527 1.557 6.625 6.625 0 0 1-.869-.053 10.153 10.153 0 0 0 5.57 1.647" fill="#fff"/></svg>