<svg data-name="グループ化 211" xmlns="http://www.w3.org/2000/svg" width="106.318" height="106.318"><defs><linearGradient id="a" x1=".5" x2=".5" y2="1" gradientUnits="objectBoundingBox"><stop offset="0" stop-color="#ffc3a0"/><stop offset="1" stop-color="#ffafbd"/></linearGradient></defs><ellipse data-name="楕円形 36" cx="38.915" cy="38.915" rx="38.915" ry="38.915" transform="rotate(150 44.129 47.945)" fill="url(#a)"/><g fill="#e6b2ad"><path data-name="パス 275" d="M46.01 55.238v9.788h-3.382a2.625 2.625 0 0 0 2.52 2.719h18.911a2.626 2.626 0 0 0 2.521-2.719h-3.383v-9.787a.725.725 0 0 0-.725-.725H46.735a.724.724 0 0 0-.725.724zm10.842 1.183a1.507 1.507 0 0 1-1.656 1.559 1.644 1.644 0 0 1 1.656-1.554zm-3.01 2c.611-.2 1.283.065 1.4.425.123-.357.8-.6 1.407-.394a1.769 1.769 0 0 1 .637.387 1.729 1.729 0 0 0 .082 3.169 2.645 2.645 0 0 1-2.173 1.126 2.683 2.683 0 0 1-2.623-2.716 1.907 1.907 0 0 1 1.269-1.998z"/><path data-name="パス 276" d="M45.233 48.814a4.912 4.912 0 1 0-4.912-4.912 4.912 4.912 0 0 0 4.912 4.912z"/><path data-name="長方形 203" d="M29.974 69.074h38.802v2.996H29.974z"/><path data-name="パス 277" d="M38.832 64.732l.081 3.011h3.678a3.8 3.8 0 0 1-1.128-2.719v-1h3.383v-8.788a1.725 1.725 0 0 1 1.723-1.723h8.607c-2.684-2.252-7-2.415-9.388-2.415-3.486 0-9.834.344-10.411 7.087l-.818 9.557h3.573z"/></g><g data-name="デスクワークのフリー素材5" fill="#fff"><path data-name="パス 275" d="M50.064 52.806v9.788h-3.382a2.625 2.625 0 0 0 2.52 2.719h18.911a2.626 2.626 0 0 0 2.521-2.719h-3.383v-9.787a.725.725 0 0 0-.725-.725H50.789a.724.724 0 0 0-.725.724zm10.842 1.183a1.507 1.507 0 0 1-1.656 1.559 1.644 1.644 0 0 1 1.656-1.554zm-3.01 2c.611-.2 1.283.065 1.4.425.123-.357.8-.6 1.407-.394a1.769 1.769 0 0 1 .637.387 1.729 1.729 0 0 0 .082 3.169 2.645 2.645 0 0 1-2.173 1.126 2.683 2.683 0 0 1-2.623-2.716 1.907 1.907 0 0 1 1.269-1.998z"/><path data-name="パス 276" d="M49.287 46.382a4.912 4.912 0 1 0-4.912-4.912 4.912 4.912 0 0 0 4.912 4.912z"/><path data-name="長方形 203" d="M34.028 66.642H72.83v2.996H34.028z"/><path data-name="パス 277" d="M42.886 62.3l.081 3.011h3.678a3.8 3.8 0 0 1-1.128-2.719v-1H48.9v-8.788a1.725 1.725 0 0 1 1.723-1.723h8.607c-2.684-2.252-7-2.415-9.388-2.415-3.486 0-9.834.344-10.411 7.087l-.818 9.557h3.573z"/></g></svg>