<svg xmlns="http://www.w3.org/2000/svg" width="257.629" height="46.463"><g data-name="グループ化 244"><g data-name="グループ化 151" fill="#ef516c"><path data-name="パス 145" d="M37.637 29.143L42.8.999h10.824l-9.493 44.964H32.807l-6.162-25.646-5.828 25.646H9.659L0 .999h10.825l5.163 28.144L22.149.999h9.159z"/><path data-name="パス 146" d="M105.915 24.314a26.086 26.086 0 0 1-2.5 11.657 18.806 18.806 0 0 1-6.994 7.827 19.486 19.486 0 0 1-10.323 2.665 18.665 18.665 0 0 1-17.153-10.159A27 27 0 0 1 66.28 24.98v-2.5a26.086 26.086 0 0 1 2.5-11.657 18.806 18.806 0 0 1 6.994-7.827A22.294 22.294 0 0 1 86.264.333a18.9 18.9 0 0 1 10.159 2.665 18.354 18.354 0 0 1 6.994 7.661 25.363 25.363 0 0 1 2.5 11.491zm-10.991-1.832c0-4.5-.666-7.827-2.165-10.159a7.26 7.26 0 0 0-6.495-3.5c-5.5 0-8.327 4-8.66 12.157v3.331c0 4.33.666 7.827 2.165 10.159a7.26 7.26 0 0 0 6.495 3.5 7.178 7.178 0 0 0 6.328-3.5c1.5-2.331 2.165-5.662 2.331-9.992z"/><path data-name="パス 147" d="M138.389 29.976h-5.828v15.987h-10.825V.999h17.653q7.994 0 12.49 3.5t4.5 9.992a16 16 0 0 1-1.832 7.827 15.085 15.085 0 0 1-6 5l9.326 18.152v.5h-11.657zm-5.828-8.327h6.828a5.932 5.932 0 0 0 4.663-1.665 6.665 6.665 0 0 0 1.5-4.5 6.377 6.377 0 0 0-1.5-4.5 5.932 5.932 0 0 0-4.663-1.665h-6.828z"/><path data-name="パス 148" d="M188.35 29.144l-4.5 4.829v11.824h-10.821V.833h10.825v19.818l3.83-5.662L197.343.833h13.486l-15.151 19.818 15.151 25.146h-12.82z"/><path data-name="パス 149" d="M246.97 33.973a4.1 4.1 0 0 0-1.665-3.664 25.421 25.421 0 0 0-6-2.831 50.267 50.267 0 0 1-6.994-2.831c-5.829-2.831-8.826-6.828-8.826-11.824a10.647 10.647 0 0 1 2.165-6.661 16.014 16.014 0 0 1 6.162-4.5A25.429 25.429 0 0 1 240.808 0a20.613 20.613 0 0 1 8.66 1.665 14.687 14.687 0 0 1 6 5 12.267 12.267 0 0 1 2.165 7.327h-10.83a5.417 5.417 0 0 0-1.665-4.33 6.665 6.665 0 0 0-4.5-1.5 7.752 7.752 0 0 0-4.663 1.332 3.888 3.888 0 0 0-1.665 3.331 4.254 4.254 0 0 0 1.832 3.164c1.166 1 3.331 1.832 6.495 2.831a38.024 38.024 0 0 1 7.661 3.164c4.829 2.831 7.327 6.661 7.327 11.657a11.077 11.077 0 0 1-4.5 9.326c-3 2.165-6.994 3.331-12.157 3.331a23.012 23.012 0 0 1-9.826-2 15.54 15.54 0 0 1-6.661-5.329 13.85 13.85 0 0 1-2.165-7.827h10.825a7.362 7.362 0 0 0 1.832 5.329c1.166 1.166 3.331 1.665 6 1.665a7.009 7.009 0 0 0 4.33-1.166 3.018 3.018 0 0 0 1.667-2.997z"/></g><path data-name="交差 4" d="M231.15 44.299a15.543 15.543 0 0 1-6.663-5.33 13.839 13.839 0 0 1-2.165-7.826h10.824a7.358 7.358 0 0 0 1.833 5.328c1.166 1.165 3.332 1.666 5.995 1.666a7.005 7.005 0 0 0 4.331-1.167 3.017 3.017 0 0 0 1.666-3 4.1 4.1 0 0 0-1.666-3.663 25.394 25.394 0 0 0-6-2.831 50.014 50.014 0 0 1-6.994-2.832c-5.829-2.831-8.827-6.826-8.827-11.823a10.641 10.641 0 0 1 2.167-6.661 16.011 16.011 0 0 1 6.16-4.5 25.47 25.47 0 0 1 8.994-1.664 20.621 20.621 0 0 1 8.659 1.664 14.714 14.714 0 0 1 6 5 12.272 12.272 0 0 1 2.165 7.329H246.8a5.413 5.413 0 0 0-1.666-4.331 6.66 6.66 0 0 0-4.5-1.5 7.759 7.759 0 0 0-4.664 1.331 3.89 3.89 0 0 0-1.664 3.331 4.252 4.252 0 0 0 1.832 3.164c1.167 1 3.331 1.833 6.495 2.831a37.971 37.971 0 0 1 7.66 3.166c4.831 2.831 7.329 6.661 7.329 11.656a11.078 11.078 0 0 1-4.5 9.327c-3 2.164-7 3.329-12.158 3.329a23 23 0 0 1-9.814-1.994zm-84.934 1.664l-7.828-15.986h-5.827v15.986h-10.826V34.908l10.826-24.67v11.413h6.826a5.929 5.929 0 0 0 4.664-1.666 6.666 6.666 0 0 0 1.5-4.5 6.373 6.373 0 0 0-1.5-4.5 5.93 5.93 0 0 0-4.664-1.666h-6.427l3.654-8.326h2.773q8 0 12.489 3.5t4.5 9.992a16.008 16.008 0 0 1-1.831 7.828 15.087 15.087 0 0 1-6 4.995l9.326 18.152v.5zm51.792-.166l-9.659-16.654-4.5 4.829v11.825h-10.825V.833h10.825v19.818l3.83-5.663L197.338.833h13.491l-15.156 19.818 15.156 25.146z" fill="#c9154f"/></g></svg>