<svg xmlns="http://www.w3.org/2000/svg" width="241.877" height="45.902"><g data-name="グループ化 143"><path data-name="パス 181" d="M134.104 28.794v16.617h-10.42V.493h14.613a30.092 30.092 0 0 1 8.308 1 15.641 15.641 0 0 1 5.611 2.793 10.56 10.56 0 0 1 3.16 4.224 13.992 13.992 0 0 1 .986 5.3 14.235 14.235 0 0 1-.586 4.131 12.509 12.509 0 0 1-1.742 3.591 13.479 13.479 0 0 1-2.836 2.944 15.06 15.06 0 0 1-3.869 2.127 9.793 9.793 0 0 1 1.958 1.295 7.7 7.7 0 0 1 1.588 1.881l9.557 15.63h-9.434a4 4 0 0 1-3.761-1.973l-7.46-13.043a3.177 3.177 0 0 0-1.156-1.233 3.9 3.9 0 0 0-1.865-.367zm0-7.186h4.193a10.725 10.725 0 0 0 3.622-.537 6.517 6.517 0 0 0 2.451-1.5 5.667 5.667 0 0 0 1.387-2.233 8.59 8.59 0 0 0 .432-2.759 5.783 5.783 0 0 0-1.927-4.624q-1.927-1.665-5.965-1.667h-4.193z" fill="#221816"/><path data-name="パス 182" d="M177.572 18.682h1.665a3.781 3.781 0 0 0 3.33-1.449l10.112-14.677a4.294 4.294 0 0 1 1.9-1.631 6.918 6.918 0 0 1 2.6-.432h9.064l-13.318 18.158a8.991 8.991 0 0 1-1.48 1.634 9.466 9.466 0 0 1-1.57 1.079 8.015 8.015 0 0 1 2.143 1.187 7.878 7.878 0 0 1 1.77 2.019l13.562 20.84h-9.308a8.069 8.069 0 0 1-1.523-.123 3.882 3.882 0 0 1-1.094-.37 3.118 3.118 0 0 1-.8-.6 5.838 5.838 0 0 1-.647-.819l-10.181-15.629a3.058 3.058 0 0 0-1.4-1.218 6.081 6.081 0 0 0-2.3-.355h-2.528V45.41h-10.42V.493h10.42z" fill="#221816"/><path data-name="パス 183" d="M238.672 9.623a3.906 3.906 0 0 1-.971 1.11 2.173 2.173 0 0 1-1.31.37 3.213 3.213 0 0 1-1.526-.447q-.817-.447-1.847-1a15.559 15.559 0 0 0-2.358-1 9.462 9.462 0 0 0-3.024-.447 6.489 6.489 0 0 0-4.36 1.249 4.25 4.25 0 0 0-1.436 3.376 3.11 3.11 0 0 0 .863 2.251 7.473 7.473 0 0 0 2.266 1.541 24.293 24.293 0 0 0 3.206 1.187q1.807.539 3.684 1.2a32.937 32.937 0 0 1 3.684 1.557 12.338 12.338 0 0 1 3.206 2.279 10.706 10.706 0 0 1 2.266 3.376 11.98 11.98 0 0 1 .863 4.8 15.621 15.621 0 0 1-1.079 5.827 13.609 13.609 0 0 1-3.129 4.73 14.468 14.468 0 0 1-5.056 3.178 18.915 18.915 0 0 1-6.828 1.156 22.108 22.108 0 0 1-4.27-.432 25.263 25.263 0 0 1-4.208-1.22 24.166 24.166 0 0 1-3.823-1.863 16.243 16.243 0 0 1-3.114-2.4l3.083-4.871a2.509 2.509 0 0 1 .956-.894 2.714 2.714 0 0 1 1.326-.339 3.518 3.518 0 0 1 1.868.586q.936.586 2.125 1.295a17.315 17.315 0 0 0 2.728 1.295 10.231 10.231 0 0 0 3.638.586 6.92 6.92 0 0 0 4.408-1.249 4.757 4.757 0 0 0 1.572-3.961 3.755 3.755 0 0 0-.861-2.559 6.719 6.719 0 0 0-2.266-1.634 21.022 21.022 0 0 0-3.193-1.141q-1.784-.493-3.669-1.1a26.5 26.5 0 0 1-3.669-1.477 11.628 11.628 0 0 1-3.191-2.312 10.862 10.862 0 0 1-2.263-3.59 14.2 14.2 0 0 1-.863-5.287 12.5 12.5 0 0 1 1.02-4.933 12.662 12.662 0 0 1 2.99-4.285 14.666 14.666 0 0 1 4.838-3.006A17.886 17.886 0 0 1 227.514 0a24.622 24.622 0 0 1 4.023.324 21.313 21.313 0 0 1 3.715.953 20.309 20.309 0 0 1 3.283 1.513 15.163 15.163 0 0 1 2.731 1.988z" fill="#221816"/><g data-name="グループ化 221" fill="#ef516c"><path data-name="パス 180" d="M0 .493h8.755a3.981 3.981 0 0 1 2.268.614 2.844 2.844 0 0 1 1.184 1.636l6.166 23.43q.308 1.141.619 2.435a22.467 22.467 0 0 1 .46 2.713q.308-1.449.678-2.728t.709-2.42l7.276-23.43a3.233 3.233 0 0 1 1.187-1.557 3.528 3.528 0 0 1 2.2-.694h3.083a3.873 3.873 0 0 1 2.235.6 3.1 3.1 0 0 1 1.22 1.649l7.211 23.43c.226.719.462 1.482.712 2.294s.46 1.683.647 2.608q.243-1.356.506-2.59t.539-2.312l6.166-23.43a2.946 2.946 0 0 1 1.171-1.575 3.671 3.671 0 0 1 2.22-.676h8.2L51.539 45.407h-9.431l-8.45-27.838q-.216-.647-.447-1.421c-.152-.511-.3-1.056-.447-1.631-.144.575-.29 1.12-.444 1.631s-.306.989-.45 1.421L23.3 45.407h-9.434z"/><path data-name="パス 184" d="M116.223 22.936a24.118 24.118 0 0 1-1.68 9.061 21.381 21.381 0 0 1-12.087 12.147 26.788 26.788 0 0 1-19.1 0 21.406 21.406 0 0 1-12.128-12.146 25.244 25.244 0 0 1 0-18.125 21.553 21.553 0 0 1 4.745-7.276 22.021 22.021 0 0 1 7.383-4.843 25.12 25.12 0 0 1 9.557-1.755 24.8 24.8 0 0 1 9.541 1.773 22.026 22.026 0 0 1 7.355 4.853 21.72 21.72 0 0 1 4.73 7.276 24.079 24.079 0 0 1 1.684 9.035zm-10.667 0a19.419 19.419 0 0 0-.863-6 12.694 12.694 0 0 0-2.479-4.516 10.724 10.724 0 0 0-3.961-2.836 13.656 13.656 0 0 0-5.336-.987 13.843 13.843 0 0 0-5.38.987 10.675 10.675 0 0 0-3.981 2.839 12.655 12.655 0 0 0-2.479 4.516 21.365 21.365 0 0 0 0 12.023 12.656 12.656 0 0 0 2.479 4.516 10.526 10.526 0 0 0 3.977 2.821 14.037 14.037 0 0 0 5.38.971 13.847 13.847 0 0 0 5.336-.971 10.572 10.572 0 0 0 3.961-2.821 12.694 12.694 0 0 0 2.479-4.516 19.529 19.529 0 0 0 .867-6.026z"/></g><path data-name="パス 185" d="M102.458 44.144a21.381 21.381 0 0 0 12.085-12.145 25.2 25.2 0 0 0 0-18.1 21.721 21.721 0 0 0-4.73-7.276c-.1-.1-.211-.182-.311-.28l-5.585 8.776a13.683 13.683 0 0 1 .776 1.819 21.365 21.365 0 0 1 0 12.023 12.7 12.7 0 0 1-2.479 4.516 10.572 10.572 0 0 1-3.961 2.821 13.847 13.847 0 0 1-5.336.971 15.85 15.85 0 0 1-2.926-.265l-4.92 7.73a25.91 25.91 0 0 0 7.846 1.166 24.946 24.946 0 0 0 9.541-1.756z" fill="#221816"/></g></svg>