<svg xmlns="http://www.w3.org/2000/svg" width="53.703" height="45.783"><defs><linearGradient id="a" x1=".926" y1="-1.562" x2="-.532" y2="1.45" gradientUnits="objectBoundingBox"><stop offset="0" stop-color="#e0b6d1"/><stop offset="1" stop-color="#f4a5ca"/></linearGradient></defs><g transform="translate(0 -37.752)" fill="url(#a)"><path data-name="パス 460" d="M22.194 60.239v13.545h-4.681a3.633 3.633 0 0 0 3.488 3.763h26.178a3.634 3.634 0 0 0 3.489-3.763h-4.682V60.239a1 1 0 0 0-1-1h-21.79a1 1 0 0 0-1.002 1zm15 1.638a2.086 2.086 0 0 1-2.292 2.158 2.275 2.275 0 0 1 2.297-2.159zm-4.166 2.765c.845-.271 1.775.089 1.936.588.171-.495 1.109-.835 1.948-.546a2.448 2.448 0 0 1 .881.535 2.393 2.393 0 0 0 .114 4.386 3.661 3.661 0 0 1-3.008 1.558 3.713 3.713 0 0 1-3.631-3.759 2.64 2.64 0 0 1 1.764-2.763z"/><path data-name="パス 461" d="M21.118 51.348a6.8 6.8 0 1 0-6.8-6.8 6.8 6.8 0 0 0 6.8 6.8z"/><path data-name="長方形 293" d="M0 79.389h53.703v4.146H0z"/><path data-name="パス 462" d="M12.26 73.38l.112 4.167h5.09a5.259 5.259 0 0 1-1.561-3.763v-1.382h4.682V60.239a2.388 2.388 0 0 1 2.385-2.385h11.913c-3.714-3.117-9.695-3.342-12.993-3.342-4.825 0-13.61.476-14.409 9.808L6.347 77.547h4.946z"/></g></svg>