<svg version="1.1" id="レイヤー_1" xmlns="http://www.w3.org/2000/svg" x="0" y="0" viewBox="0 0 217.8 219.4" xml:space="preserve"><style>.st0{fill:#fff}.st1{fill:#1a8e2a}.st2{fill:#bca855}.st4{fill:#26a535;stroke:#fff;stroke-width:.32;stroke-miterlimit:10}.st5{fill:#f5bc4a}.st7{fill:#26a535}.st9{fill:#a0ff2d}.st14{fill:#ffb855}.st15{fill:#ffc247}</style><ellipse class="st0" cx="108.9" cy="109.7" rx="108.9" ry="109.7"/><path class="st1" d="M107.3 206.7c-52.1 0-94.4-42.3-94.4-94.4 0-42.6 28.5-79.8 69.5-91.1.3-.1.5.1.6.3l.3 1c.1.1.1.3 0 .4-.1.1-.2.2-.3.2C33.8 36.6 4.8 87.4 18.2 136.6s64.2 78.3 113.5 64.8C181 188 210 137.2 196.5 87.9c-8.8-32.3-34.4-57.3-66.8-65.3-.3-.1-.4-.3-.4-.6l.2-1c0-.1.1-.2.2-.3.1-.1.3-.1.4 0 50.6 12.7 81.3 64 68.6 114.6-10.4 41.8-48.1 71.3-91.4 71.4zm-93.4-94.5c.1 51.6 41.8 93.3 93.4 93.4-51.5 0-93.3-41.8-93.4-93.4zm186.9 0zM14 110.9v.8c-.1-.3-.1-.6 0-.8zm68.3-88.7C42.5 33.4 14.7 69.4 14 110.8c.7-41.4 28.5-77.4 68.3-88.6z"/><path class="st2" d="M113.3 47h.3l-.7 5.3s0 1.2-1 1.3l-1.3 12.5c-.1.4-.4.7-.8.6-.4-.1-.7-.4-.6-.8l1.7-12.4c-.5-.3-.8-.9-.6-1.5l.7-5.3h.3l-.6 4.5h.4l.6-4.5h.4l-.6 4.5h.4l.6-4.5h.4l-.6 4.5h.4l.6-4.2z"/><path d="M122 103c-3.2-5.6-1-28.7 1.3-33.4 2.6-5.2 7.2-8.1 12.4-6.3l.8.3c5.2 1.7 7.1 6.8 5.9 12.5-1 5.1-13.4 24.7-19.4 27.2-.4.2-.8.1-1-.3 0 0 0 0 0 0z" fill="#ff9f34" stroke="#fff" stroke-width="1.28" stroke-linecap="round" stroke-linejoin="round"/><path class="st4" d="M145.2 55.9l-.9-.6c-.7-.5-1.8-.4-2.3.4l-5.7 7.9h.2c1.3.4 2.6 1.2 3.6 2.2l5.5-7.6c.5-.7.3-1.7-.4-2.3z"/><path class="st4" d="M139.4 59.4l1.8-4.8c.3-.9-.1-1.8-1-2.1l-1-.4c-.8-.3-1.8.1-2.1 1l-3.7 9.8c.8.1 1.6.2 2.3.5l.8.3h-.2l3.1-4.3z"/><path class="st4" d="M136.5 63.6c.4.1.7.3 1.1.4-.4-.1-.7-.2-1.1-.4zm-3.1-.8l2.3-6.1.3-3.1c.1-.9-.5-1.7-1.4-1.8l-1.1-.1c-.9-.1-1.7.6-1.8 1.5l-1 9.8c1-.2 2-.3 3-.1l-.3-.1zm.8.2l.7.2-.7-.2z"/><path class="st0" d="M136.1 75.5c-.2.5.1 1 .6 1.2l5.1 1.7c.2-.6.4-1.1.6-1.7l-5.1-1.7c-.6-.2-1.1.1-1.2.5zm-10.4.1l-3.7-1.3-.3 1.8 3.4 1.2c.5.2 1-.1 1.1-.6.2-.4 0-.9-.5-1.1zm3.9 7.1l5.5 1.9c.3.1.4.4.3.7l-.2.7c-.1.3-.4.4-.7.3l-5.5-1.9c-.3-.1-.4-.4-.3-.7l.2-.7c.1-.3.4-.4.7-.3zm-6.8 5.1l-2.3-.8c0 .6-.1 1.3-.1 1.9l1.8.6c.5.2 1-.1 1.1-.6.3-.4 0-.9-.5-1.1zm1.8 11.7l2.4.8 1.4-1.4-3.2-1.1c-.5-.2-1 .1-1.2.6-.1.4.1.9.6 1.1z"/><path class="st1" d="M58.9 163.3v2c.4 0 1.8-.2 2.2-.2.7 0 1.2.5 1.2 1.2v.1c0 .5-.3 1-.8 1.1-1.9.4-3.9.5-5.8.5-.9 0-1.9 0-1.9-1.3s.9-1.2 2.3-1.3v-2.1h-2.6c-.1 1.4-.5 2.7-1 4-.2.4-.6.6-1 .6-.7 0-1.3-.5-1.4-1.2.1-.8.3-1.7.6-2.5.4-2 .6-4.1.5-6.2 0-1.1.2-2.2 2-2.2h16.1c.8 0 1.8 0 1.8 1.1s-1 1.1-1.8 1.1h-15c-.4 0-.5 0-.5.3s-.1 2.4-.1 2.9h15.6c1 0 1.8 0 1.8 1.1s-.9 1.1-1.5 1.1c.1.1.1.3.1.4 0 .5-.1.8-1.3 1.6.7.1 1.4.3 2 .5.3.2.5.5.5.9 0 1.2-.9 1.2-1.3 1.2-2.3 0-6.8-1.2-8.9-4.6l-1.8-.1zm-2-15.1c.1-1.1.5-1.3 1.5-1.3s1.2.5 1.2 1.3h2.1c0-.5 0-1.3 1.4-1.3s1.3.8 1.3 1.3h2.9c.9-.1 1.8.6 1.8 1.5v3.8c0 .9-.7 1.7-1.7 1.7H53.9c-.9.1-1.7-.6-1.8-1.5v-3.8c0-.9.7-1.7 1.6-1.7h3.2zm10.9 10.3c1.2 0 1.8 0 1.8 1s-.7 1-1.8 1H56.4c-1.2 0-1.8 0-1.8-1s.7-1 1.8-1h11.4zM57 150.8v-.6h-1.7c-.4 0-.4.1-.4.6H57zm-2.1 1.7v.5c0 .1.2.1.4.1H57v-.6h-2.1zm6.9-1.7v-.6h-2.2v.6h2.2zm-2.1 1.7v.6h2.1v-.6h-2.1zm4.2 10.8c.4.3.9.6 1.7 1l1.7-1h-3.4zm2.8-12.5v-.5c-.1-.1-.2-.1-.4-.1h-1.8v.6h2.2zm-2.2 1.7v.6h1.7c.4 0 .4-.1.4-.6h-2.1z"/><path class="st5" d="M97.8 153.4c.8 0 1.8 0 1.8 1.2s-1 1.2-1.8 1.2h-6.5v.9H97c.7 0 1.8 0 1.8 1s-1.1 1.1-1.8 1.1h-5.7v1h7.1c.8 0 1.8 0 1.8 1.2s-1 1.2-1.8 1.2h-3.9c1.4 1.2 3 2.1 4.8 2.6.4.2 1.1.4 1.1 1.2 0 .1 0 1.6-1.3 1.6-1.7 0-6.4-2.9-7.8-5v3.4c0 .9 0 1.8-1.4 1.8s-1.4-.8-1.4-1.8v-3.3c-2.3 2.8-6.5 4.9-7.6 4.9-.7 0-1.3-.6-1.3-1.4 0-.6.4-1.1 1-1.3 1.8-.5 3.4-1.4 4.7-2.7h-4c-.9 0-1.8 0-1.8-1.3s1-1.2 1.8-1.2h7.2v-1h-5.6c-.7 0-1.8 0-1.8-1.1s1.1-1 1.8-1h5.6v-.9h-6.3c-.8 0-1.8 0-1.8-1.2s1-1.2 1.8-1.2h3c-.2-.4-.3-.7-.4-1.1h-3.3c-.8 0-1.8 0-1.8-1.2s1-1.2 1.8-1.2h1c-.6-1.2-.6-1.3-.6-1.5 0-.9 1.1-1.2 1.5-1.2.7 0 1 .5 1.4 1.3s.4 1 .4 1.4h1.2v-1c0-1 0-1.8 1.2-1.8 1.4 0 1.4.6 1.4 1.8v1h1.8v-1c0-1 0-1.8 1.3-1.8s1.4.7 1.4 1.8v1h1.3c.1-.5.3-1 .5-1.5.3-.6.7-1.2 1.2-1.2.3 0 1.6.3 1.6 1.2 0 .3-.1.4-.6 1.5h.8c.8 0 1.8 0 1.8 1.2s-1 1.2-1.8 1.2h-3.2c-.3.6-.3.7-.5 1.1l3.2.1zm-6 0c0-.2.4-.9.4-1.1h-4.7c.2.5.3.9.4 1.1h3.9z"/><path class="st1" d="M113.8 161.4c.1-.4.2-.5 1.5-2.1 1.4-1.8 2.5-3.8 3.3-5.9h-1.9c-.9 0-1.8 0-1.8-1.2s.8-1.3 1.8-1.3h4v-2c0-1 0-1.9 1.3-1.9s1.3.8 1.3 1.9v2h4.4c1 0 1.8 0 1.8 1.2s-.7 1.3-1.8 1.3h-2.3c1 2.2 2.1 4.3 3.5 6.2 1 1.5 1.1 1.6 1.1 2 0 .7-.6 1.3-1.4 1.4-.7 0-1-.2-2.2-2.2-1.2-1.9-2.3-3.9-3.1-6v5.7h1.3c.9 0 1.8 0 1.8 1.3s-1 1.3-1.8 1.3h-1.3v2.9c0 1 0 1.9-1.3 1.9s-1.3-.9-1.3-1.9v-2.9h-1.1c-.9 0-1.8 0-1.8-1.3s.9-1.3 1.8-1.3h1.1v-5.7c-.9 2.5-2.3 4.8-4 6.8-1 1.1-1.2 1.2-1.6 1.2-.7-.1-1.2-.6-1.4-1.2v4.5c0 1 0 1.9-1.4 1.9s-1.3-.8-1.3-1.9v-8.2c-.6.9-.9 1.2-1.4 1.2-.8 0-1.4-.6-1.5-1.4 0-.3.1-.5 1-2.1 1-2 1.9-4 2.5-6.1.5-2.1.6-2.5 1.6-2.5.8-.1 1.5.5 1.6 1.2v.1c-.3 1.4-.6 2.8-1.2 4.1l.2 9z"/><path class="st5" d="M140.3 162.1c-.1 1.2-.4 2.5-.8 3.6-.1.4-.3.8-.9.8-.5 0-.9-.3-.9-.8v-.1c0-.3.6-3.1.7-3.5s.3-1.1 1-1.1c.4-.1.9.2.9 1.1zm5.1-11h.8c1 0 1.2 0 1.6.4 0-.3 0-.5.2-.7.1-.2 1.5-1.1 2-1.5.7-.5 1.8-1.4 2-1.7.4-.4.9-.6 1.4-.7.4 0 .8.1 1.2.4.4.3 2.2 1.8 2.7 2.1 1.7 1.3 1.9 1.5 1.9 2 0 .7-.5 1.3-1.2 1.3-.2 0-.4-.1-.6-.2.2 1.5-.9 1.5-1.8 1.5h-.8v.9h1.5c1-.1 2 .7 2.1 1.7v2.9c0 1.1-.8 2-1.9 2h-1.4c.8 1.2 1.8 2.3 3 3.2.9.7 1.1.8 1.1 1.3s-.5 1.5-1.3 1.5-2.5-1.2-4.2-3.8c-.9 1.9-2.8 3.8-4 3.8-.7-.1-1.2-.7-1.2-1.4 0-.4.2-.6.6-.9 2.2-1.8 2.7-2.6 3-3.7h-1c-1 .1-1.8-.7-1.9-1.7v-3.5c0-.8.6-1.4 1.4-1.5h1.8v-.9h-1c-1 0-1.9 0-1.8-1.3-.1 0-.2 0-.4.1-.5 0-.9-.3-1.1-.7 0 1.1-.9 1.1-1.8 1.1h-.8v1.1h.8c.9 0 1.8 0 1.8 1.1s-.9 1.1-1.8 1.1h-.8v1.2h1c2.2 0 2.2 1.7 2.2 3.2.1 1.8-.1 3.7-.8 5.4-.2.4-.7 1.4-3.2 1.4-1.8 0-3-.1-3-1.3-.1-.6.4-1.2 1.1-1.3h.1c.1 0 1.4.1 1.6.1.7 0 1.2 0 1.4-1.2h-.2c-.3 0-.5-.3-.6-.7-.2-.7-.4-2.3-.4-2.4 0-.3.3-.6.6-.6h.1c.5 0 .7 1 .8 1.6.1-.5.1-1.1 0-1.6-.1-.2-.2-.2-.3-.2h-5.4c-1 0-1.8-.9-1.8-2v-8.8c.1-1 1-1.7 1.9-1.6h6.1c.9 0 1.8 0 1.8 1.2s-.9 1.2-1.8 1.2h-1.2l-.1 1.1zm-3.2 10.4c.1.8.2 1.6.2 2.4 0 .5 0 1.2-.8 1.2-.6 0-.9 0-.9-3.2 0-.5 0-1.2.8-1.2.2.1.6.2.7.8zm.8-11.5h-1.5c-.2 0-.4 0-.4.6v.5h1.9V150zm0 3.2h-2v1.1h2v-1.1zm0 3.4h-2v.7c0 .4.1.5.4.5h1.6v-1.2zm1.3 4.9c.1.8.2 1.5.3 2.3.1.4-.2.8-.6.8h-.1c-.6 0-.7-.5-.7-.8-.1-.8-.2-1.6-.2-2.4-.1-.4.2-.8.6-.8h.1c.4.1.4.4.6.9zm8.1-4.3h-.9c-.3 0-.4 0-.4.4v1.4c0 .3.2.3.4.3h.9v-2.1zm3.5-5.5c-.6-.4-1.2-.9-1.7-1.4l-.5-.5s-.2.1-.6.5c-.5.5-1.1 1-1.7 1.4h4.5zm-1.1 7.6h1c.2 0 .4-.2.4-.4v-1.1c0-.3 0-.5-.4-.5h-.9l-.1 2z"/><path class="st1" d="M70.6 131.8c-.4 0-.7-.2-1-.4-.4-.3-2.3-1.5-2.8-1.7-.4-.2-.7-.6-.7-1.1 0-.7.5-1.3 1.2-1.3 1.2.4 2.3 1 3.3 1.7.7.4 1.1.8 1.1 1.4.2.8-.4 1.4-1.1 1.4zm-3.6 5.4c-.1-.7.4-1.3 1.1-1.4h.3c3.5.2 6.9-1.2 9.2-3.9 1.1-1.2 1.9-2.5 2.4-4 .2-.5.6-.8 1.1-.7.8 0 1.4.5 1.5 1.3 0 1.2-3.9 10.1-14.3 10.1-.7.1-1.4-.4-1.4-1.1.1-.1.1-.2.1-.3zm6.1-10c-.4 0-.7-.2-1-.4-.9-.7-1.9-1.3-2.9-1.8-.4-.2-.7-.6-.7-1.1 0-.7.6-1.3 1.3-1.4.9.2 1.7.7 2.4 1.2 2 1.2 2.1 1.6 2.1 2.1.1.7-.4 1.3-1.2 1.4zm7.1-4.2c.4.5.6 1.1.7 1.8 0 .5-.3.9-.8.9H80c-.4 0-.6-.2-.8-.6-.3-.6-.6-1.3-.7-2 0-.4.3-.7.7-.7.5-.1.9.2 1 .6zm2.3-.8c.3.6.6 1.2.7 1.8 0 .5-.4.9-.8.9-.5 0-.6-.2-.8-.6-.3-.6-.5-1.3-.7-2 0-.4.3-.7.7-.7.4-.1.6 0 .9.6zm19.5 13.3c1 0 2 0 2 1.2s-1 1.2-2 1.2h-9.4c-1 0-2 0-2-1.2s1-1.2 2-1.2h4.9c.6-1.9 1-3.9 1.3-5.9 0-.5-.3-.5-.8-.5h-3.8c-1 0-2.1 0-2.1-1.2s1-1.2 2.1-1.2h5.1c1-.1 2 .6 2.1 1.7v.3c-.2 2.3-.7 4.6-1.3 6.8h1.9zm24.8-.4c1.1 0 2.3 0 2.3 1.4s-1.2 1.4-2.3 1.4H113c-1.1 0-2.3 0-2.3-1.4s1.2-1.4 2.3-1.4h13.8zm-1.5-11.8c.9 0 1.3 0 1.6.2.4.3.6.7.6 1.2s-.2.9-.6 1.2c-.3.2-.7.2-1.6.2h-10.6c-.9 0-1.3 0-1.7-.2-.4-.3-.6-.7-.6-1.2s.2-.9.6-1.2c.3-.2.7-.2 1.7-.2h10.6zm23.4-.2c1.2 0 2.2.9 2.2 2.1v.2c0 2.9-3.3 6.2-5 6.2-.8 0-1.4-.7-1.4-1.4s.4-.9 1-1.2c1.1-.6 2.6-1.8 2.6-3 0-.2-.1-.2-.5-.2h-11.3c-1 0-2.1 0-2.1-1.3s1.1-1.3 2.1-1.3l12.4-.1zm-5.7 5.6c0 1.6-.1 5.2-2.6 7.6a8.24 8.24 0 0 1-4.1 2.2c-.7 0-1.3-.7-1.2-1.4v-.1c0-.5.3-1 .8-1.2 3.1-1.3 4.5-2.5 4.5-7.5 0-.9.4-1.5 1.3-1.5 1.3.2 1.3 1.2 1.3 1.9zm39.2 18.2s-7.1 13.2-10.4 14.9c0 0-.4.2-.5-.1-1.2-2.1 2.8-14.4 4.1-16.8 0 0 2.4-4.5 5.5-3.1s1.3 5.1 1.3 5.1z"/><circle class="st1" cx="170.5" cy="165.4" r="2.1"/><path fill="#eecf39" d="M149.3 60.2l2.4 4.9 5.3.7-3.8 3.8.9 5.4-4.8-2.6-4.8 2.6.9-5.4-3.9-3.8 5.4-.7z"/><path class="st7" d="M88.7 98.3l2.4 2.5 3.3-.6-1.6 3 1.5 3.1-3.3-.6-2.4 2.4-.5-3.4-3-1.6 3.1-1.4z"/><path d="M112.4 101.2c0 3-3.6 2.6-8 2.6s-8 .4-8-2.6 3.6-5.4 8-5.4 8 2.4 8 5.4z" fill="#af7c28" stroke="#fff" stroke-width="1.28" stroke-linecap="round" stroke-linejoin="round"/><path class="st9" d="M104.8 96.4c-.3-2-.3-3.9 0-5.9.1-.6-.8-.8-.9-.2-.4 2.1-.4 4.3 0 6.4.1.5 1 .3.9-.3z"/><path class="st9" d="M104.9 90.7c.8-1.9 2.6-3 4.6-3l-.9-.7c.3 1.6-2.4 3.2-3.6 2.3-.7-.5-1-1.6-1.7-2.2-.9-.8-2.5-1.9-3.7-1.2s-.7 2.2 0 3.1c1 1.2 2.5 1.9 4.1 1.9.7 0 1.3-1 .6-1.6l-2.9-2.3-1.1 1.4c1.5 1 3.6 2.3 5.5 2.1 1.5-.2 2.5-1.4 3.4-2.6.6-.8-.5-1.6-1.2-1.2l-3.5 1.6c-1.1.5-.1 2.1.9 1.6l3.5-1.6-1.2-1.2c-1 1.3-1.8 2-3.6 1.4-1-.4-1.9-.9-2.8-1.5-.8-.6-1.9.8-1.1 1.4l2.8 2.3.7-1.6c-.8 0-2.7-.6-3-1.5l.6.3.7.5c.3.3.6.7.9 1.1.7 1.1 1 2 2.5 1.9 2.7-.1 5.3-1.9 4.9-4.8-.1-.4-.5-.7-.9-.7-2.6-.1-5.1 1.5-6.2 3.8-.4 1.1 1.2 2.1 1.7 1z"/><circle cx="110.3" cy="74.3" r="5.8" fill="#ff5910"/><path d="M111.4 69.1c.3.5.8.9 1.3 1.3.6.3 1.8.2 1.9.2s-1 .6-1.3 1.1.1 1.7 0 1.7-.7-1.2-1.3-1.4-1.9.2-1.9.1 1.2-.6 1.5-1.1c.3-.8.2-1.5-.2-1.9" fill="#a5e264"/><path class="st0" d="M106 77.8c-.1 0-.1 0-.1-.1 0 0-3-4.2 1.1-7.5.1-.1.2-.1.2 0 .1.1.1.2 0 .2-1.5 1.1-2.3 2.9-2 4.7.1.8.5 1.6.9 2.4.1.1.1.2 0 .2 0 .1 0 .1-.1.1z"/><path d="M117.4 87.8c.3 2.6-1 3.6-2.6 3.7s-3.1-.6-3.3-3.1 2.4-6.6 2.4-6.6 3.3 3.4 3.5 6z" fill="#8ffff4"/><path d="M155.8 83.1c-.1.1-.2.2-.3.4l1.1.4c.6.2 1 .8.9 1.4 0 .6-.5 1.1-1.1 1.2h-.2c-.7.1-1.3.2-2 .1H153c0 .5 0 .9-.1 1.4 0 .1 0 .3-.1.4-.1.2 0 0 0 .1-.1.6-.5 1.1-1.1 1.2h-.1c-.6.1-1.2-.2-1.5-.7v-.1l-.2-.4c-.3-.4-.5-.8-.7-1.3-.4.1-.8.3-1.2.5-.6.3-1.3.5-1.9.6h-.2c-.6.1-1.2-.2-1.4-.7-.3-.6-.1-1.2.4-1.6l.8-.8c-.2-.1-.3-.2-.5-.2-3.8 1.8-6.1 4.7-5.3 8.6 1 5.4 7.4 9.4 14 8.1s11-7.3 10-12.7c-.9-3.8-4-5.6-8.1-5.9z" fill="#ff5513" stroke="#fff" stroke-width=".64" stroke-linecap="round" stroke-linejoin="round"/><path class="st0" d="M144.7 96.4c.3.3.3.7 0 1-.1.1-.2.2-.4.2-.2.1-.5 0-.6-.2-1-1-1.7-2.3-2-3.8-.3-1.4 0-2.9.7-4.1.2-.3.7-.4 1-.2.3.2.4.7.2 1-.6.9-.8 2-.5 3.1.2 1.1.8 2.2 1.6 3z"/><path class="st7" d="M149.6 83.7c-.8-.3-1.7-.5-2.6-.4-.7 0-1.4-.1-2.1-.2h-.1c-.1 0-.1.1 0 .2.5.5 1 .9 1.7 1.2.6.3 1.2.2 1.6.4l-1.5 1.2-1 1c-.2.2-.1.3.1.3h.2c.6-.1 1.1-.3 1.7-.5 1.1-.5 2.1-.8 2.5-1.1 0 1 .4 1.9 1 2.7.1.2.2.2.3.2h.1c.1 0 .2-.1.2-.3.3-.9.3-1.9-.1-2.8.5.1 1.6 0 2.7.1.6 0 1.2 0 1.8-.1h.2c.2 0 .2-.2 0-.3-.4-.2-.8-.3-1.3-.5-.6-.3-1.3-.5-1.9-.7.3-.3.9-.5 1.4-.9.5-.5.9-1.1 1.1-1.7.1-.2 0-.2-.1-.2 0 0-.1 0-.1.1-.6.4-1.2.7-1.9 1-1 .4-1.9.9-2.6 1.7v-.2c-.1-.5 0-1.1.2-1.6.1-.2.2-.5.4-.7.2-.3.1-.6-.1-.8-.3-.2-.6-.1-.8.1-.4.6-.6 1.2-.8 1.8-.2.2-.2.6-.2 1z"/><path class="st1" d="M107.1 25.9c-3.5 0-6.3-2.8-6.4-6.2v-.4c-.2-3.3 2.4-6.1 5.7-6.3h.7c4 0 7 2.7 7 6.3-.1 3.8-3.2 6.7-7 6.6zm0-11.3c-2.4-.2-4.5 1.6-4.7 4v.7c-.2 2.6 1.7 4.8 4.3 5h.4c2.9.1 5.2-2.1 5.3-5 .1-2.7-2.2-4.7-5.3-4.7zm-.2-2.1c-.2 0-.3-.1-.4-.2-.2-.2-.3-.6-.2-.9v-3c.1-.5.1-1.1.1-1.6 0-.2 0-.4.2-.5.1-.1.3-.2.4-.1h.1c.3-.1.6 0 .8.2.1.1.2.3.2.4 0 .6-.1 1.1-.2 1.7-.1.2-.1.4-.1.6v.7c-.1.5-.1 1-.1 1.6-.1.7-.4 1.1-.8 1.1zm.3-.8zm-6.4 1.8c-.1 0-.3 0-.4-.1-.2 0-.4-.1-.4-.3-.3-.3-.7-.6-1.2-.9-.2-.1-.4-.3-.7-.4-.4-.4-.9-.8-1.7-1.6-.2-.2-.3-.6-.1-.8.1-.1.2-.3.3-.4.2-.3.6-.3.9-.1.1 0 .1.1.1.1.7.7 1.2 1.1 1.6 1.4l.1.1c.2.1.3.2.5.3.5.3 1 .7 1.4 1.2.3.4.3 1 0 1.4-.1.1-.2.1-.4.1zm0-.9zm-7.6 7.8c-.2 0-.3-.1-.4-.2-.2-.2-.2-.5-.2-.7 0-.2.1-.4.2-.5.1-.1.3-.2.4-.1.5 0 1.1-.1 1.6-.2.2 0 .5-.1.7-.1h1c.4 0 .8 0 1.4.1.2 0 .4.1.5.2.1.1.1.3.1.5s0 .3-.1.4c-.1.1-.3.2-.4.2-.5 0-1 .1-1.6.2-.2.1-.5.1-.7.1H95c-.6.1-1.2.1-1.8.1zm-.1-.9zM97.5 30c-.1 0-.2 0-.3-.1-.2 0-.3-.1-.4-.2-.6-.6-.3-1-.2-1.2.7-.7 1.1-1.1 1.5-1.4l.2-.2c.2-.2.4-.3.6-.5.4-.3.8-.6 1.2-1 .2-.2.5-.3.8-.3.2 0 .4.1.5.2.3.4.3 1-.1 1.4-.4.4-.8.7-1.3 1-.2.1-.3.3-.5.4-.2.2-.3.4-.4.5-.3.4-.6.8-1 1.2-.3.1-.4.2-.6.2zm.1-.9zm9.3 5.1c-.5 0-.9-.5-.9-1 0-.6.1-1.2.2-1.7.1-.2.1-.4.1-.6v-2.3c0-.2.1-.4.2-.5.1-.1.3-.1.5-.1.2-.1.5 0 .7.1.1.1.2.3.2.5V31c0 .3-.1.5-.1.8-.1.5-.2 1-.2 1.5 0 .3 0 .5-.2.8-.2 0-.3.1-.5.1zm.1-1zm10-3.2c-.3 0-.5-.1-.7-.2-.4-.4-.7-.8-1-1.3-.1-.2-.3-.3-.4-.5-.2-.2-.4-.3-.6-.5-.4-.3-.8-.6-1.2-1-.3-.4-.3-.9 0-1.3.3-.3.8-.3 1.1.1v.1l1.2 1.2.4.5c.2.2.3.3.6.5.4.3.8.6 1.2 1 .2.2.3.4.3.7 0 .2-.1.4-.2.6-.2 0-.5.1-.7.1zm-.5-9.7c-.4 0-.7-.3-.7-.9 0-.2.1-.7.7-.7.5 0 1-.1 1.5-.2.2 0 .5-.1.7-.1l.6-.1c.6-.1 1.2-.2 1.8-.2.6 0 .9.7.9 1 0 .4-.4.8-.8.8-.6 0-1.2 0-1.8.1h-.4c-.2 0-.3 0-.5.1-.8.1-1.4.2-2 .2zm-2.8-6.6c-.2 0-.4-.1-.6-.2-.3-.3-.2-.8.2-1.2.4-.4.7-.8 1-1.2.2-.2.3-.4.4-.6s.2-.2.3-.4c.3-.3.7-.8 1.2-1.3.4-.3 1-.3 1.3 0 .2.2.4.6-.2 1.1-.4.4-.7.8-.9 1.2-.1.2-.3.4-.5.6-.1.1-.2.3-.4.4-.3.3-.6.7-1.2 1.3-.2.2-.4.2-.7.2v-.5.5l.1.1z"/><path class="st14" d="M77 99.1c-6.8 0-13.1-3.2-17.2-8.6-.2-.3-.2-.7.1-.9l.7-.5c.1-.1.3-.1.5-.1s.3.1.4.2C68 97.9 80.3 99.5 88.9 93c5-3.9 7.9-9.9 7.7-16.3 0-.2.1-.3.2-.5.1-.1.3-.2.4-.2h.8c.3 0 .6.3.6.6.4 12-9 22.1-21 22.5H77zM56.1 80.6c-.1 0-.3-.1-.4-.1-.1-.1-.2-.3-.2-.4-1.5-11.9 7-22.7 18.9-24.2 8.5-1 16.8 3 21.2 10.3.2.3.1.7-.2.9l-.7.4c-.1.1-.3.1-.5.1s-.3-.1-.4-.3C88.2 58 76.1 55 66.9 60.7c-6.6 4-10.3 11.5-9.3 19.2 0 .3-.2.7-.5.7h-1z"/><circle class="st15" cx="70.1" cy="76.4" r="2.5"/><circle class="st15" cx="82.6" cy="73.3" r="2.5"/><path d="M76.9 91.6c-3.1 0-5.5-1.2-6-3.1-.2-.5-.1-1 .2-1.5.6-.9 2-1 3.9-1.3 1.3-.1 2.6-.3 3.9-.6 1.3-.3 2.5-.8 3.8-1.3 1.8-.7 3.1-1.2 4.1-.8.5.3.8.7.9 1.2.7 2.7-2.5 5.7-7.2 6.9-1.2.3-2.4.5-3.6.5zm9-7.5c-.9.2-1.9.4-2.7.8-1.3.5-2.6 1-3.9 1.3-1.4.3-2.7.5-4.1.7-1.3.2-2.8.3-3 .7 0 0-.1.1 0 .4.5 1.9 4.2 2.7 8 1.7s6.7-3.4 6.3-5.3c-.1-.3-.2-.4-.2-.4-.2.2-.3.1-.4.1h0z" fill="none" stroke="#ffc247" stroke-width="1.28" stroke-linecap="round" stroke-linejoin="round"/><ellipse transform="rotate(-14.117 65.97 84.846)" class="st15" cx="66" cy="84.8" rx="4.5" ry="1.1"/><ellipse transform="rotate(-14.117 90.604 78.65)" class="st15" cx="90.6" cy="78.6" rx="4.5" ry="1.1"/><path class="st14" d="M76.1 57c1.8-5.4 0-8 0-8 0 2.4-1.3 4.6-3.5 5.6.4-1.6-.1-7.2-.1-7.2.2 5.9-2.4 7.6-2.4 7.6.5-2.2-.4-8.8-.4-8.8-.4 5.6-3.7 13.2-3.7 13.2L76.1 57z"/><path class="st2" d="M105.8 65.8l-8.3-8.5c.7-1 .3-2.2-.9-3.5-.8-.9-3-2.1-4-1.1s0 3.2.7 4.1c.7 1.2 2.2 1.7 3.5 1.1l8 8.9c.3.3.7.3 1 0 .2-.3.2-.7 0-1z"/><path class="st1" d="M132.9 18c-.3-.3-.6-.8-.7-1.3-.1-.5-.1-1 .1-1.5 0-.2.1-.3.3-.4.2-.1.3-.1.5 0 .2 0 .3.1.4.3.1.2.1.3 0 .5-.1.4-.1.9.1 1.3.4.8 1.4 1.1 2.2.7.4-.2.7-.6.8-1.1l1.7-5.8c0-.2.1-.3.3-.4.1-.1.3-.1.5 0 .3.1.5.4.5.7v.1l-1.7 5.8c-.1.5-.4 1-.8 1.3-.4.3-.8.6-1.3.7-1.1.2-2.2-.1-2.9-.9zm14.2-1.7c.1.2.1.3 0 .5l-1.9 5c-.1.2-.2.3-.3.4-.1.1-.3.1-.5 0-.3-.1-.5-.5-.4-.8l.1-.1c-.3.2-.7.2-1.1.2-.4 0-.8-.1-1.1-.2-.5-.2-.9-.5-1.3-.9-.3-.4-.5-.9-.6-1.4-.1-.6 0-1.2.2-1.7l1.1-2.8c.1-.2.2-.3.3-.3.3-.1.7 0 .8.3.1.1.1.3 0 .5l-1 2.8c-.5.9-.1 1.9.8 2.4.1.1.2.1.3.1.3.1.6.2.9.1.3 0 .6-.1.8-.3.2-.2.4-.4.5-.6l1.2-3.2c.1-.2.2-.3.3-.4.2-.1.3-.1.5 0s.4.2.4.4zm7 3.4c.3.4.5.9.5 1.4 0 .6-.1 1.1-.4 1.7l-1.3 2.7c-.1.1-.2.3-.4.3-.1.1-.3.1-.5 0-.1-.1-.3-.2-.3-.4-.1-.2-.1-.3 0-.5l1.3-2.7c.5-.8.3-1.9-.5-2.4-.1-.1-.2-.1-.3-.2-.3-.1-.6-.2-.9-.2-.3 0-.6.1-.8.2-.2.1-.4.3-.6.6l-1.5 3c-.1.1-.2.3-.3.3-.2.1-.3.1-.5 0-.3-.1-.4-.5-.3-.8l2.3-4.8c.1-.1.2-.3.4-.3.2-.1.3-.1.5 0s.3.2.3.3c.1.2.1.3 0 .5l-.1.1c.3-.1.7-.2 1.1-.1 1 .1 1.8.6 2.3 1.3zm.8 7.3c0-.2 0-.3.1-.5l2.6-4.6c.1-.3.5-.4.8-.3h.1c.1.1.3.2.3.4s0 .3-.1.5l-2.6 4.6c-.1.1-.2.2-.4.3-.2 0-.3 0-.5-.1-.2 0-.3-.1-.3-.3zm3.6-6.8c-.1-.2 0-.4.1-.6.1-.2.3-.3.5-.4.2-.1.4 0 .6.1.2.1.3.3.4.5.1.2 0 .4-.1.6-.1.2-.3.3-.5.4-.2.1-.4 0-.6-.1-.2-.1-.3-.3-.4-.5zm.5 9c-.3-.5-.4-1.1-.4-1.6.1-1.2.8-2.3 1.9-2.9.5-.3 1.1-.4 1.6-.4.6 0 1.2.2 1.7.6.5.3.9.8 1.2 1.3.3.5.4 1.1.4 1.6 0 .6-.2 1.2-.6 1.7-.3.5-.8.9-1.3 1.2-.5.3-1.1.4-1.6.4-.6 0-1.2-.2-1.7-.6-.5-.3-.9-.8-1.2-1.3zm2.9.7c.4 0 .8-.1 1.1-.2.3-.2.6-.5.9-.8.2-.3.4-.7.4-1.1 0-.4 0-.8-.2-1.1-.2-.3-.4-.6-.8-.8-.3-.2-.7-.3-1.1-.4-.4 0-.7.1-1.1.3-.4.2-.7.5-.9.8-.2.3-.4.7-.4 1.1 0 .4 0 .8.2 1.1.4.7 1.1 1.1 1.9 1.1zm10 .9c.1.2.1.4 0 .6l-.1.1c-.2.2-.4.2-.6 0l-.1-.1c-.2-.2-.4-.4-.6-.5-.4-.3-.8-.5-1.3-.5-.4 0-.8.2-1.1.5l-2.1 2.8c-.1.1-.2.2-.4.3-.2 0-.3 0-.4-.2-.1-.1-.2-.2-.3-.4 0-.2 0-.3.1-.5l3.2-4.3c.1-.1.2-.2.4-.3.2 0 .3 0 .4.1.3.1.3.5.2.7l-.1.1-.1.2c.4-.1.7-.1 1.1 0 .4.1.7.3 1.1.5.3.3.5.6.7.9zm-.1 8.1c0-.2.1-.3.2-.5l5.6-5.9c.1-.1.3-.2.4-.2.2 0 .3.1.4.2l4 3.7c.1.1.2.3.2.4 0 .3-.2.6-.5.6-.2 0-.3-.1-.4-.2l-3.5-3.3-2 2.1 2.5 2.4c.1.1.2.3.2.4 0 .2 0 .3-.2.4-.1.1-.3.2-.4.2-.2 0-.3-.1-.4-.2l-2.5-2.4-2.4 2.6c-.1.1-.3.2-.4.2-.4.2-.7-.1-.8-.5zm13.4 5.1c.1.6.1 1.1-.1 1.7-.2.6-.5 1.1-1 1.5l-2 1.8c-.1.1-.3.2-.4.2-.2 0-.3-.1-.4-.2-.2-.2-.2-.6 0-.8l.3-.3c-.4 0-.9 0-1.3-.2-.9-.4-1.6-1.2-1.8-2.2-.1-.5-.1-1.1.1-1.6.2-.6.6-1 1-1.4.4-.4 1-.7 1.6-.8.6-.1 1.1-.1 1.7.1.6.2 1.1.5 1.4 1 .5.1.8.6.9 1.2zm-4 2.8c.4.1.7.1 1.1 0 .4-.1.7-.3 1-.6.3-.3.5-.6.7-1 .1-.4.2-.7.1-1.1-.1-.4-.3-.7-.5-1-.2-.3-.6-.5-.9-.6-.4-.1-.8-.1-1.1 0-.4.1-.7.3-1 .6-.3.3-.5.6-.7 1-.1.4-.2.7-.1 1.1.2.8.7 1.4 1.4 1.6zm9.5 3.4c.1.2 0 .4-.2.6l-.1.1c-.2.1-.5 0-.6-.1 0 0-.1-.1-.1-.2-.1-.2-.3-.5-.4-.7-.3-.4-.7-.7-1.2-.9-.4-.1-.8 0-1.2.2l-2.8 2.2c-.1.1-.3.2-.4.2-.2 0-.3-.1-.4-.3-.1-.1-.2-.3-.1-.4 0-.2.1-.3.3-.4l4.2-3.3c.1-.1.3-.2.4-.2.2 0 .3.1.4.3.2.2.2.5 0 .7l-.1.1-.2.1c.4 0 .7.1 1.1.3.3.2.6.4.9.7.2.4.4.7.5 1zm5.7 9.3c-.2.7-.6 1.2-1.3 1.6l-2.9 1.9c-.1.1-.3.1-.5.1s-.3-.1-.4-.3c-.2-.3-.1-.6.1-.8h.1l2.9-1.9c.4-.2.6-.5.7-.9.1-.3 0-.7-.2-1-.2-.3-.5-.5-.9-.6-.4-.1-.8 0-1.1.3l-2.8 1.8c-.1.1-.3.1-.5.1s-.3-.1-.4-.3c-.1-.1-.1-.3-.1-.5s.1-.3.3-.4l2.9-1.9c.4-.2.6-.5.7-.9.1-.3 0-.7-.2-1-.2-.3-.5-.6-.9-.6-.4-.1-.8 0-1.1.3l-2.8 1.8c-.1.1-.3.1-.5.1s-.3-.1-.4-.3c-.1-.1-.1-.3-.1-.5s.1-.3.3-.4l4.5-2.9c.1-.1.3-.1.5-.1.3.1.5.4.5.7 0 .2-.1.3-.3.4.3.1.6.2.8.4.3.2.5.4.6.7.2.3.3.7.4 1.1 0 .4 0 .7-.1 1 .4 0 .7.2 1.1.4.3.2.6.5.9.9.2.5.3 1.2.2 1.7zm-3.4 5.9c0-.2.2-.3.3-.4l4.7-2.5c.1-.1.3-.1.5-.1.2.1.3.2.4.3.1.1.1.3.1.5-.1.2-.2.3-.3.4l-4.7 2.6c-.3.2-.6.1-.8-.2-.2-.2-.2-.4-.2-.6zm6.7-3.7c.1-.4.5-.7 1-.5.2.1.4.2.5.4.1.2.1.4.1.6-.1.2-.2.4-.4.5-.2.1-.4.1-.6.1-.2-.1-.4-.2-.5-.4-.1-.3-.2-.5-.1-.7zm2.5 8.5c0 .5-.2 1-.5 1.4-.4.4-.8.8-1.4 1l-2.7 1.2c-.1.1-.3.1-.5 0-.3-.1-.5-.5-.4-.8.1-.2.2-.3.3-.3l2.7-1.2c.5-.2.9-.6 1.1-1.1.2-.5.1-1-.1-1.5-.1-.3-.3-.5-.6-.8-.2-.2-.5-.3-.8-.3-.3 0-.6 0-.8.1l-3.1 1.4c-.1.1-.3.1-.5 0s-.3-.2-.4-.3c-.1-.2-.1-.3 0-.5s.2-.3.3-.3l4.9-2.2c.2-.1.3-.1.5 0s.3.2.3.3c.1.2.1.3 0 .5s-.2.3-.3.3h-.1c.3.1.7.3.9.6.3.3.5.6.7.9.4.5.5 1.1.5 1.6zm3.1 8.2c-.1.6-.3 1.1-.7 1.5-.4.5-.9.8-1.5 1l-2.4.9c-.6.2-1.2.3-1.8.2-.6-.1-1.1-.3-1.6-.7-.5-.4-.8-.9-1-1.5-.2-.5-.3-1.1-.2-1.6 0-.5.2-1.1.5-1.5.1-.1.2-.2.3-.2.2-.1.4 0 .5.1.1.1.2.2.2.3.1.2 0 .4-.1.6-.2.3-.3.6-.3 1s0 .8.2 1.1c.1.4.3.7.6.9.3.2.6.4 1 .4.5 0 .9 0 1.3-.2l.6-.2c-.5-.1-.9-.3-1.3-.6s-.7-.7-.8-1.2c-.2-.5-.2-1.1-.1-1.6s.4-1 .7-1.4c.4-.5.9-.8 1.5-1 .6-.2 1.2-.3 1.8-.2.6.1 1.1.3 1.5.7.5.4.8.9 1 1.5.1.5.2 1.1.1 1.7zm-4.8 1.1c.3.2.6.4 1 .4.4.1.8 0 1.2-.1.4-.1.7-.4 1-.7.3-.3.4-.6.5-1 .1-.4 0-.8-.1-1.1-.1-.4-.4-.7-.6-.9-.3-.2-.6-.4-1-.4-.8-.1-1.6.2-2.2.8-.3.3-.4.6-.5 1-.1.7.1 1.5.7 2zm.2 4.1c.1-.2.3-.3.5-.4.2-.1.4 0 .6.1.2.1.3.3.4.5.1.2 0 .4-.1.6-.1.2-.3.3-.5.4-.2.1-.4 0-.6-.1-.2-.1-.3-.3-.4-.5 0-.2 0-.4.1-.6zm2.2-.4c.1-.1.2-.2.4-.3l5.7-1.7c.2-.1.3-.1.5 0 .3.2.4.5.3.8-.1.2-.2.3-.4.3l-5.7 1.7c-.3.1-.7-.1-.8-.4-.1-.2-.1-.3 0-.4z"/><path d="M113.8 70.4c.1.2-.5.8-.8.8-.2 0-.4-.2-.4-.5 0-.2.6-.9.8-.8.1.1.3.2.4.5z" fill="#008215"/></svg>