<svg xmlns="http://www.w3.org/2000/svg" viewBox="0 0 237.7 54.06"><defs><style>.cls-1{fill:#bca855}.cls-3{stroke:#fff}.cls-3,.cls-6{fill:#26a535}.cls-3{stroke-miterlimit:10;stroke-width:.28px}.cls-4{fill:#fff}.cls-8{fill:#a0ff2d}.cls-13{fill:#ffb855}.cls-14{fill:#ffc247}.cls-17{fill:#1a8e2a}.cls-18{fill:#f5bc4a}</style></defs><g id="レイヤー_2" data-name="レイヤー 2"><g id="レイヤー_1-2" data-name="レイヤー 1"><g id="レイヤー_1-2-2" data-name="レイヤー 1-2"><path class="cls-1" d="M50.7.72h.3l-.59 4.62a1.15 1.15 0 0 1-.92 1.14l-1.14 11a.63.63 0 0 1-.7.55.62.62 0 0 1-.54-.71L48.65 6.4a1.2 1.2 0 0 1-.55-1.31l.58-4.62H49l-.5 4h.34l.5-4h.35l-.5 4h.34l.5-4h.35l-.5 4h.34z"/><path d="M58.27 49.62c-2.8-4.92-.85-25 1.17-29.15 2.26-4.58 6.25-7.07 10.8-5.47l.71.24c4.57 1.52 6.2 6 5.17 11-.93 4.48-11.73 21.57-17 23.74a.66.66 0 0 1-.85-.36z" stroke-width="1.12" stroke-linecap="round" stroke-linejoin="round" stroke="#fff" fill="#ff9f34"/><path class="cls-3" d="M78.52 8.5l-.75-.5a1.44 1.44 0 0 0-2 .32l-5 6.9h.16a8 8 0 0 1 3.12 1.89l4.77-6.63a1.45 1.45 0 0 0-.27-2z"/><path class="cls-3" d="M73.43 11.52L75 7.35a1.42 1.42 0 0 0-.82-1.83l-.87-.33a1.42 1.42 0 0 0-1.84.81l-3.24 8.55a8.14 8.14 0 0 1 2 .44l.71.24-.16-.05zM71 15.24c.31.11.62.24.93.38-.32-.14-.64-.27-.93-.38z"/><path class="cls-3" d="M68.23 14.56l2-5.3.27-2.7A1.42 1.42 0 0 0 69.23 5l-.92-.1a1.44 1.44 0 0 0-1.57 1.28l-.86 8.53a7.45 7.45 0 0 1 2.58-.12zm.68.1a2.38 2.38 0 0 1 .63.14c-.21-.06-.42-.1-.63-.14z"/><path class="cls-4" d="M70.53 25.62a.79.79 0 0 0 .5 1l4.42 1.52a15.5 15.5 0 0 0 .55-1.49l-4.46-1.53a.79.79 0 0 0-1.01.5zm-9.04.07l-3.21-1.1c-.1.5-.19 1-.28 1.57l3 1a.8.8 0 0 0 1-.49.79.79 0 0 0-.51-.98z"/><rect class="cls-4" x="66.23" y="30.43" width="1.58" height="6" rx=".53" transform="rotate(-71.08 67.018 33.434)"/><path class="cls-4" d="M59 36.36l-2-.69a12.78 12.78 0 0 1-.07 1.64l1.58.54a.79.79 0 0 0 .49-1.49zm1.52 10.2l2.11.72c.39-.39.78-.81 1.19-1.26L61 45a.79.79 0 0 0-1 .49.8.8 0 0 0 .45 1z"/><path fill="#eecf39" d="M82.11 12.25l2.09 4.24 4.68.68-3.39 3.3.8 4.66-4.18-2.2-4.19 2.2.8-4.66-3.38-3.3 4.67-.68 2.1-4.24z"/><path class="cls-6" d="M29.17 45.52l2.05 2.17 2.95-.46-1.43 2.61 1.34 2.67-2.93-.55-2.11 2.1-.38-2.96L26 49.74l2.7-1.28.47-2.94z"/><path d="M49.84 48c0 2.62-3.15 2.23-7 2.23s-7 .39-7-2.23 3.15-4.74 7-4.74 7 2.15 7 4.74z" fill="#af7c28" stroke-width="1.12" stroke-linecap="round" stroke-linejoin="round" stroke="#fff"/><path class="cls-8" d="M43.23 43.85a15.35 15.35 0 0 1 0-5.15c.09-.5-.67-.71-.76-.21a16.28 16.28 0 0 0 0 5.57c.08.51.85.29.77-.21z"/><path class="cls-8" d="M43.3 38.86a4.28 4.28 0 0 1 4-2.57l-.76-.59c.22 1.36-2.12 2.77-3.12 2-.57-.43-.89-1.4-1.46-1.92-.77-.72-2.19-1.67-3.25-1.1s-.6 1.94 0 2.74a4.57 4.57 0 0 0 3.57 1.67c.64 0 1.11-.91.56-1.35l-2.49-2-1 1.24c1.29.88 3.11 2 4.77 1.8a4.89 4.89 0 0 0 3-2.26c.54-.7-.46-1.37-1.08-1.09L43 36.84c-.92.42-.12 1.79.8 1.37l3.08-1.41-1.09-1.08c-.85 1.1-1.58 1.73-3.13 1.22a9.86 9.86 0 0 1-2.45-1.33c-.74-.5-1.67.68-1 1.25l2.49 2 .56-1.35c-.73 0-2.36-.5-2.62-1.33-.38-.15-.2-.06.53.27l.61.45a4.21 4.21 0 0 1 .78 1c.6 1 .9 1.7 2.19 1.65 2.37-.09 4.68-1.68 4.26-4.23a.81.81 0 0 0-.77-.58A5.79 5.79 0 0 0 42 38.06c-.43.92.94 1.73 1.37.8z"/><circle cx="48.01" cy="24.59" r="5.05" fill="#ff5910"/><path d="M49 20a3.46 3.46 0 0 0 1.12 1.1c.49.27 1.58.14 1.62.22s-.89.48-1.11.93.09 1.45 0 1.45-.58-1-1.11-1.26-1.64.13-1.67.06 1.06-.5 1.33-1A1.39 1.39 0 0 0 49 20" fill="#a5e264"/><path class="cls-4" d="M44.32 27.58a.14.14 0 0 1-.12-.06 4.79 4.79 0 0 1 1-6.58.15.15 0 0 1 .21 0 .17.17 0 0 1 0 .19 4.21 4.21 0 0 0-1.73 4.12 5.32 5.32 0 0 0 .81 2.06.17.17 0 0 1 0 .21.16.16 0 0 1-.17.06z"/><path d="M54.27 36.37c.23 2.25-.87 3.11-2.31 3.26s-2.68-.49-2.9-2.74 2.11-5.74 2.11-5.74 2.83 2.97 3.1 5.22z" fill="#8ffff4"/><path d="M87.79 32.26a4 4 0 0 1-.26.32l.92.35a1.22 1.22 0 0 1 .82 1.2 1.16 1.16 0 0 1-.93 1h-.16a6.68 6.68 0 0 1-1.78.12h-1.09a4.25 4.25 0 0 1-.12 1.23 2.7 2.7 0 0 0-.08.39v.05a1.27 1.27 0 0 1-1 1h0a1.24 1.24 0 0 1-1.3-.61h0l-.29-.31a3.71 3.71 0 0 1-.52-1.1c-.32.12-.67.26-1 .42a6.78 6.78 0 0 1-1.7.56h-.16a1.13 1.13 0 0 1-1.24-.6 1.18 1.18 0 0 1 .31-1.41l.72-.67-.42-.2c-3.31 1.58-5.31 4.11-4.66 7.48.92 4.72 6.46 8.19 12.25 7.06s9.63-6.41 8.71-11.13c-.7-3.29-3.43-4.89-7.02-5.15z" fill="#ff5513" stroke-width=".56" stroke-linecap="round" stroke-linejoin="round" stroke="#fff"/><path class="cls-4" d="M78.08 43.87a.64.64 0 0 1 0 .89.63.63 0 0 1-.89 0 6.69 6.69 0 0 1-1.76-3.3 4.82 4.82 0 0 1 .64-3.61.62.62 0 0 1 .87-.2.64.64 0 0 1 .2.87 3.65 3.65 0 0 0-.47 2.7 5.3 5.3 0 0 0 1.41 2.65z"/><path class="cls-6" d="M82.42 32.78a6.52 6.52 0 0 0-2.31-.39 8.56 8.56 0 0 1-1.82-.16h-.12c-.1 0-.13.1 0 .22a3.48 3.48 0 0 0 1.47 1 13.11 13.11 0 0 0 1.41.32 9.25 9.25 0 0 0-1.29 1c-.33.31-.6.57-.89.83s-.12.32.08.28h.13a6.41 6.41 0 0 0 1.46-.48 12.4 12.4 0 0 0 2.2-1 3.63 3.63 0 0 0 .89 2.33c.11.15.21.22.29.2.08 0 .14-.11.18-.29a3.7 3.7 0 0 0 0-2.5c.46.13 1.36 0 2.41.07a6 6 0 0 0 1.49-.02h.14c.2 0 .16-.21 0-.28L87 33.44a8.26 8.26 0 0 0-1.6-.44c.23-.24.74-.41 1.18-.83a3.64 3.64 0 0 0 1-1.5c0-.14 0-.21-.12-.19l-.11.05a10.42 10.42 0 0 1-1.63.83 6.13 6.13 0 0 0-2.26 1.48v-.16a2.3 2.3 0 0 1 .18-1.32 3.55 3.55 0 0 1 .32-.61.52.52 0 0 0 0-.72.5.5 0 0 0-.72 0 .44.44 0 0 0-.08.11 4.53 4.53 0 0 0-.66 1.61 2.85 2.85 0 0 0-.08 1.03z"/><path class="cls-13" d="M19 46.25a19.07 19.07 0 0 1-15.13-7.46A.57.57 0 0 1 4 38l.58-.44a.53.53 0 0 1 .42-.1.58.58 0 0 1 .38.21 17.13 17.13 0 0 0 30.73-11 .59.59 0 0 1 .15-.4.57.57 0 0 1 .39-.18h.73a.55.55 0 0 1 .56.54 19 19 0 0 1-18.39 19.61zM.68 30.09A.67.67 0 0 1 .34 30a.52.52 0 0 1-.21-.38 19 19 0 0 1 35.08-12.1.57.57 0 0 1-.19.77l-.62.37a.57.57 0 0 1-.42.07.58.58 0 0 1-.35-.26A17.13 17.13 0 0 0 2 29.37a.57.57 0 0 1-.5.63l-.72.09z"/><circle class="cls-14" cx="12.96" cy="26.38" r="2.19"/><circle class="cls-14" cx="23.81" cy="23.65" r="2.19"/><path d="M18.83 39.66c-2.72 0-4.82-1-5.25-2.71a1.52 1.52 0 0 1 .18-1.31c.53-.78 1.75-.92 3.44-1.11a27 27 0 0 0 3.44-.53 29.54 29.54 0 0 0 3.28-1.13c1.59-.63 2.73-1.08 3.57-.65a1.59 1.59 0 0 1 .78 1.07c.58 2.33-2.19 5-6.31 6a12.76 12.76 0 0 1-3.13.37zm7.89-6.51a9.27 9.27 0 0 0-2.38.74 27.77 27.77 0 0 1-3.43 1.18 27.24 27.24 0 0 1-3.58.58c-1.18.14-2.4.28-2.64.63a.51.51 0 0 0 0 .4c.41 1.65 3.62 2.32 7 1.48s5.89-3 5.48-4.62c-.07-.28-.17-.33-.2-.34a.45.45 0 0 0-.25-.05z" fill="none" stroke="#ffc247" stroke-width="1.12" stroke-linecap="round" stroke-linejoin="round"/><ellipse class="cls-14" cx="9.32" cy="33.77" rx="3.92" ry=".97" transform="rotate(-14.11 9.317 33.764)"/><ellipse class="cls-14" cx="30.84" cy="28.36" rx="3.92" ry=".97" transform="rotate(-14.11 30.826 28.345)"/><path class="cls-13" d="M18.2 9.44c1.54-4.68 0-7 0-7a5.5 5.5 0 0 1-3 4.93C15.56 6 15.12 1 15.12 1 15.28 6.18 13 7.65 13 7.65c.38-1.94-.4-7.65-.4-7.65-.33 4.86-3.26 11.54-3.26 11.54z"/><path class="cls-1" d="M44.08 17.14l-7.24-7.46c.58-.83.24-2-.76-3-.73-.78-2.61-1.84-3.51-1s0 2.79.59 3.59a2.46 2.46 0 0 0 3.07 1l7 7.73a.6.6 0 0 0 .85 0 .61.61 0 0 0 0-.86z"/><path d="M51.05 21.12c.08.2-.47.7-.67.7a.38.38 0 0 1-.38-.4c0-.22.48-.75.68-.7a.55.55 0 0 1 .37.4z" fill="#008215"/><path class="cls-17" d="M113.84 42.29v2c.37 0 1.75-.26 2.21-.26a1.23 1.23 0 0 1 1.21 1.23 1.16 1.16 0 0 1-.82 1.13 29 29 0 0 1-5.8.53c-.89 0-1.87 0-1.87-1.28s.89-1.2 2.34-1.25v-2.1h-2.63a13.74 13.74 0 0 1-1 4 1.13 1.13 0 0 1-1 .57 1.32 1.32 0 0 1-1.39-1.18 20.87 20.87 0 0 1 .57-2.46 33.43 33.43 0 0 0 .54-6.16c0-1.12.23-2.25 2-2.25h16.1c.82 0 1.82 0 1.82 1.09s-1 1.07-1.82 1.07h-15c-.39 0-.5 0-.55.27s-.07 2.41-.09 2.87h15.58c1 0 1.82 0 1.82 1.11s-.86 1.12-1.45 1.12a1.07 1.07 0 0 1 .09.43c0 .52-.14.82-1.34 1.55a11.59 11.59 0 0 1 2 .54 1 1 0 0 1 .48.89c0 1.18-.93 1.18-1.32 1.18-2.3 0-6.78-1.25-8.92-4.59zm-2-15.09c.07-1.11.54-1.29 1.48-1.29s1.18.47 1.22 1.29h2.12c0-.47 0-1.25 1.37-1.25s1.31.8 1.34 1.25h2.89a1.68 1.68 0 0 1 1.83 1.53.92.92 0 0 1 0 .16v3.64a1.67 1.67 0 0 1-1.65 1.69h-13.6a1.66 1.66 0 0 1-1.84-1.48 1.48 1.48 0 0 1 0-.21v-3.64a1.66 1.66 0 0 1 1.62-1.7h3.24zm10.87 10.31c1.16 0 1.84 0 1.84 1s-.68 1-1.84 1h-11.4c-1.16 0-1.84 0-1.84-1s.68-1 1.84-1zm-10.82-7.71v-.62h-1.71c-.43 0-.43.05-.41.62zm-2.12 1.7v.5c0 .1.16.11.36.11h1.71v-.61zm6.94-1.7v-.62h-2.12v.62zm-2.12 1.7v.64h2.12v-.64zm4.19 10.79c.43.27.93.59 1.73 1l1.73-1zm2.78-12.49a1.19 1.19 0 0 0 0-.53c-.07-.09-.16-.09-.39-.09h-1.7v.62zm-2.14 1.7v.64h1.7c.44 0 .44-.07.44-.64z"/><path class="cls-18" d="M152.71 32.37c.79 0 1.82 0 1.82 1.18s-1 1.21-1.82 1.21h-6.51v.91h5.67c.7 0 1.79 0 1.79 1s-1.09 1-1.79 1h-5.67v1h7.08c.84 0 1.82 0 1.82 1.26s-1 1.22-1.82 1.22h-3.89a12.53 12.53 0 0 0 4.75 2.62c.46.18 1.11.41 1.11 1.23 0 .07 0 1.55-1.27 1.55-1.7 0-6.37-2.92-7.78-5V45c0 .93 0 1.82-1.36 1.82S143.4 46 143.4 45v-3.35c-2.32 2.82-6.46 4.94-7.55 4.94a1.36 1.36 0 0 1-.27-2.67 10.93 10.93 0 0 0 4.68-2.73h-4c-.87 0-1.82 0-1.82-1.25s1-1.23 1.82-1.23h7.16v-1h-5.57c-.73 0-1.8 0-1.8-1s1.09-1 1.8-1h5.57v-.91h-6.34c-.82 0-1.84 0-1.84-1.21s1-1.18 1.84-1.18h3c-.18-.44-.27-.68-.41-1.12h-3.3c-.82 0-1.82 0-1.82-1.2s1-1.19 1.82-1.19h1c-.57-1.18-.59-1.29-.59-1.47 0-.94 1.09-1.21 1.48-1.21.66 0 1 .45 1.36 1.3s.46 1 .41 1.38h1.25v-1c0-1 0-1.82 1.23-1.82 1.39 0 1.41.57 1.41 1.82v1h1.8v-1c0-1 0-1.82 1.27-1.82s1.41.73 1.41 1.82v1h1.32a4.74 4.74 0 0 1 .5-1.5c.3-.63.73-1.2 1.25-1.2.32 0 1.62.31 1.62 1.23 0 .34-.07.45-.62 1.47h.85c.81 0 1.82 0 1.82 1.21s-1 1.18-1.82 1.18h-3.21c-.3.59-.32.66-.53 1.12zm-6 0a8.25 8.25 0 0 1 .43-1.12h-4.62c.18.53.32.89.39 1.12z"/><path class="cls-17" d="M168.78 40.35c.09-.43.15-.48 1.47-2.11a22.42 22.42 0 0 0 3.28-5.87h-1.93c-.94 0-1.82 0-1.82-1.21s.75-1.34 1.82-1.34h4v-2c0-1 0-1.86 1.34-1.86s1.32.84 1.32 1.86v2h4.37c1 0 1.82 0 1.82 1.2s-.73 1.35-1.82 1.35h-2.28a37.38 37.38 0 0 0 3.46 6.21c1 1.45 1.14 1.61 1.14 2a1.4 1.4 0 0 1-1.32 1.42c-.68 0-1-.18-2.21-2.21a34.46 34.46 0 0 1-3.11-6v5.66h1.29c.87 0 1.82 0 1.82 1.32s-.95 1.32-1.82 1.32h-1.29v3c0 1 0 1.87-1.35 1.87s-1.31-.89-1.31-1.87v-3h-1.1c-.88 0-1.84 0-1.84-1.32s1-1.32 1.84-1.32h1.1v-5.67a22.63 22.63 0 0 1-4 6.82c-1 1.14-1.16 1.19-1.55 1.19a1.56 1.56 0 0 1-1.36-1.26V45c0 1 0 1.89-1.37 1.89s-1.23-.89-1.23-1.89v-8.22c-.57.89-.94 1.16-1.46 1.16a1.48 1.48 0 0 1-1.46-1.36c0-.3.12-.48 1-2.1a32.42 32.42 0 0 0 2.5-6.14c.5-2.09.59-2.48 1.62-2.48A1.42 1.42 0 0 1 170 27a.88.88 0 0 1 0 .16 23.78 23.78 0 0 1-1.16 4.14z"/><path class="cls-18" d="M195.23 41a17.53 17.53 0 0 1-.75 3.65c-.14.4-.32.79-.89.79a.87.87 0 0 1-.92-.82 1.09 1.09 0 0 1 0-.18c0-.31.57-3.11.66-3.45s.34-1.14 1-1.14a1.07 1.07 0 0 1 .9 1.15zm5.14-11h.8c1 0 1.22 0 1.59.43a1.17 1.17 0 0 1 .18-.73 24.55 24.55 0 0 1 2-1.45c.7-.5 1.75-1.44 2-1.66a2 2 0 0 1 1.39-.69 1.89 1.89 0 0 1 1.16.41c.39.28 2.25 1.8 2.69 2.12 1.7 1.32 1.88 1.46 1.88 2a1.34 1.34 0 0 1-1.2 1.34 1 1 0 0 1-.55-.16c.19 1.46-.86 1.46-1.79 1.46h-.82V34h1.54a1.91 1.91 0 0 1 2 1.73v2.93a1.94 1.94 0 0 1-1.85 2H210a12.23 12.23 0 0 0 3 3.17c.93.68 1.14.84 1.14 1.32s-.53 1.54-1.25 1.54-2.53-1.25-4.26-3.84c-1 1.86-2.8 3.75-4 3.75a1.36 1.36 0 0 1-1.23-1.36c0-.44.21-.59.57-.91 2.18-1.82 2.66-2.62 3-3.67h-1a1.78 1.78 0 0 1-1.9-1.67 1.48 1.48 0 0 1 0-.42v-3.06a1.52 1.52 0 0 1 1.41-1.46h1.79v-.93h-1c-1 0-1.89 0-1.82-1.32h-.37a1.26 1.26 0 0 1-1.13-.7c0 1.07-1 1.07-1.82 1.07h-.8v1.13h.8c.88 0 1.82 0 1.82 1.14s-.94 1.13-1.82 1.13h-.8v1.19h1c2.21 0 2.21 1.66 2.21 3.21a14.2 14.2 0 0 1-.76 5.41c-.2.43-.7 1.43-3.16 1.43-1.84 0-3-.13-3-1.32a1.15 1.15 0 0 1 1-1.26h.12c.14 0 1.39.07 1.64.07.71 0 1.18 0 1.39-1.23h-.21c-.34 0-.52-.27-.63-.73-.19-.7-.44-2.32-.44-2.41a.57.57 0 0 1 .56-.59h.08c.48 0 .68 1 .84 1.64a7.49 7.49 0 0 0 0-1.64.27.27 0 0 0-.31-.23h-5.42a1.88 1.88 0 0 1-1.81-2 .71.71 0 0 1 0-.14V28.3a1.81 1.81 0 0 1 2-1.62h6.09c.91 0 1.82 0 1.82 1.18s-1 1.14-1.89 1.14h-1.16zm-3.28 10.42a18 18 0 0 1 .16 2.43c0 .53 0 1.19-.75 1.19-.54 0-.91 0-.91-3.21 0-.53 0-1.16.8-1.16a.9.9 0 0 1 .7.82zm.78-11.42h-1.53c-.25 0-.38 0-.38.57v.48h1.91zm0 3.19H196v1.11h1.91zm0 3.36H196v.67c0 .38.09.52.38.52h1.53zm1.27 4.92a22.19 22.19 0 0 1 .27 2.3.75.75 0 0 1-.66.82h-.11c-.61 0-.68-.53-.73-.78a20.67 20.67 0 0 1-.2-2.36.71.71 0 0 1 .61-.81h.07c.59 0 .66.37.75.86zm8.12-4.25h-.86c-.28 0-.41 0-.41.36V38c0 .32.2.32.36.32h.91zm3.55-5.49c-.18-.13-1.2-.89-1.73-1.39s-.47-.45-.54-.45-.16.05-.59.45a19.13 19.13 0 0 1-1.73 1.39zm-1.11 7.53h1c.25 0 .36-.23.36-.45v-1.05c0-.34 0-.52-.45-.52h-.93z"/><path class="cls-17" d="M109.47 10.8a1.82 1.82 0 0 1-1-.41c-.42-.29-2.34-1.46-2.75-1.71a1.19 1.19 0 0 1-.65-1.08 1.29 1.29 0 0 1 1.25-1.3 11.6 11.6 0 0 1 3.32 1.7c.66.42 1.14.81 1.14 1.42a1.34 1.34 0 0 1-1.28 1.38zm-3.56 5.38a1.29 1.29 0 0 1 1.14-1.43 1.22 1.22 0 0 1 .33 0 11.61 11.61 0 0 0 9.18-3.85 12.6 12.6 0 0 0 2.42-4 1.11 1.11 0 0 1 1.14-.72 1.46 1.46 0 0 1 1.5 1.33c0 1.25-3.94 10.09-14.26 10.09a1.3 1.3 0 0 1-1.45-1.13 1.5 1.5 0 0 1 0-.29zm6.1-10a1.44 1.44 0 0 1-1-.44 32.94 32.94 0 0 0-2.87-1.81 1.21 1.21 0 0 1-.69-1.11 1.44 1.44 0 0 1 1.33-1.4 6.92 6.92 0 0 1 2.38 1.19c2 1.25 2.08 1.59 2.08 2.13A1.33 1.33 0 0 1 112 6.18zM119.14 2a4.52 4.52 0 0 1 .69 1.77.87.87 0 0 1-.82.92H119c-.45 0-.6-.19-.79-.63a8.94 8.94 0 0 1-.69-2 .69.69 0 0 1 .71-.69 1 1 0 0 1 .91.63zm2.32-.82a5.14 5.14 0 0 1 .68 1.82.85.85 0 0 1-.85.85c-.46 0-.61-.21-.79-.62a7.9 7.9 0 0 1-.69-2 .73.73 0 0 1 .77-.71c.35 0 .58.09.9.63zM141 14.45c1 0 2 0 2 1.19s-1 1.23-2 1.23h-9.43c-1 0-2 0-2-1.23s1-1.19 2-1.19h4.92a38.05 38.05 0 0 0 1.28-5.86c0-.49-.28-.5-.76-.5h-3.81c-1 0-2.06 0-2.06-1.22s1-1.15 2.06-1.15h5.11a1.87 1.87 0 0 1 2.07 1.65 2.71 2.71 0 0 1 0 .29 40.12 40.12 0 0 1-1.31 6.79zm24.77-.45c1.09 0 2.28 0 2.28 1.41s-1.19 1.41-2.28 1.41H152c-1.09 0-2.26 0-2.26-1.41S150.85 14 152 14zm-1.54-11.74c.94 0 1.35 0 1.65.22a1.38 1.38 0 0 1 .64 1.17 1.45 1.45 0 0 1-.64 1.17c-.3.2-.71.2-1.65.2h-10.6c-.94 0-1.35 0-1.64-.2a1.38 1.38 0 0 1-.64-1.17 1.35 1.35 0 0 1 .65-1.17c.29-.22.7-.22 1.64-.22zm23.41-.17a2.12 2.12 0 0 1 2.19 2.06 1.92 1.92 0 0 1 0 .24c0 3-3.32 6.19-5 6.19a1.42 1.42 0 0 1-1.41-1.44c0-.67.41-.9 1-1.25 1.15-.63 2.6-1.84 2.6-3 0-.21-.1-.21-.5-.21h-11.3c-1 0-2.05 0-2.05-1.3s1.05-1.29 2.05-1.29zm-5.73 5.59c0 1.64-.13 5.21-2.61 7.63a8.59 8.59 0 0 1-4.13 2.21 1.31 1.31 0 0 1-1.2-1.4.13.13 0 0 1 0-.06 1.11 1.11 0 0 1 .8-1.17c3.12-1.33 4.46-2.5 4.48-7.46 0-.86.44-1.48 1.29-1.48 1.36 0 1.36 1 1.36 1.73zm55.26 18.24S230 39.1 226.82 40.83c0 0-.36.21-.5 0-1.16-2.09 2.77-14.4 4.1-16.82 0 0 2.39-4.5 5.48-3.15s1.27 5.06 1.27 5.06z"/><circle class="cls-17" cx="225.4" cy="44.37" r="2.05"/></g></g></g></svg>