<svg xmlns="http://www.w3.org/2000/svg" viewBox="0 0 180.05 154.2"><defs><style>.cls-1{fill:#007835}</style></defs><g id="レイヤー_2" data-name="レイヤー 2"><g id="レイヤー_1-2" data-name="レイヤー 1"><path class="cls-1" d="M80.71 151.19A348.91 348.91 0 0 0 82 40.83c-.29-1.9-3.18-1.09-2.9.8a344.22 344.22 0 0 1-1.28 108.77c-.33 1.89 2.56 2.7 2.89.79z" transform="translate(-.25)"/><path class="cls-1" d="M81 40.4c-8.51 2.19-12.74 10.68-17.57 17.24a32.35 32.35 0 0 1-15.7 11.78c-6.79 2.58-13.79 5.49-20.82 7.31-5.77 1.48-11.77 1.46-16.91-1.85C.48 68.75-2.68 54.93 3.27 45.3c7.44-12 23.59-14.74 36.48-16.17 14-1.55 28.21-.36 41.19 5.48 1.41.63.69 2.36-.54 2.66a1.54 1.54 0 0 1-1-.1c-15.53-7-33.09-6.75-49.51-3.47-8.51 1.69-17.51 4.48-23 11.69-5.12 6.76-4.67 16.3.45 23 6.26 8.11 15.55 6.91 24.09 3.8 7.05-2.57 15.23-4.55 21.64-8.45C64.11 57 66.72 41 80.26 37.48a.9.9 0 0 1 .16 0A1.51 1.51 0 0 1 81 40.4z" transform="translate(-.25)"/><path class="cls-1" d="M80.26 37.48C66.72 41 64.11 57 53.05 63.7c-6.41 3.9-14.59 5.88-21.64 8.45-8.54 3.11-17.83 4.31-24.09-3.8-5.12-6.66-5.57-16.2-.45-23 5.49-7.21 14.49-10 23-11.69 16.42-3.28 34-3.5 49.51 3.47a1.54 1.54 0 0 0 1 .1v.18a.9.9 0 0 0-.12.07z" transform="translate(-.25)"/><path class="cls-1" d="M78.24 35.83a123.28 123.28 0 0 1 25.46-24.3C113.31 4.61 118.34-2.1 129.86.62 139.79 3 146.45 13.45 150 23c1.67 4.51-.64 9.66-2.83 13.94-3.06 6-4.48 5.09-11.09 6.32-11.15 2.08-17.24 4.27-28.54 3.29s-22-4.67-32.61-8.63m71.97 115.76a166.46 166.46 0 0 0 .59-52.76c-.13-.91-1.51-.52-1.38.38a164.63 164.63 0 0 1-.59 52c-.15.9 1.23 1.29 1.38.38z" transform="translate(-.25)"/><path class="cls-1" d="M147 98c.68.3.33 1.13-.25 1.27a.71.71 0 0 1-.49 0c-7.43-3.33-15.82-3.22-23.67-1.66-4.07.81-8.37 2.15-11 5.59a9.12 9.12 0 0 0 .21 11c3 3.88 7.44 3.3 11.52 1.81 3.37-1.22 7.28-2.17 10.34-4 5.29-3.21 6.54-10.86 13-12.53h.08a.72.72 0 0 1 .25 1.41c-4.07 1-6.09 5.1-8.4 8.24a15.48 15.48 0 0 1-7.48 5.63 97.92 97.92 0 0 1-10 3.49 10 10 0 0 1-8.08-.88 10.66 10.66 0 0 1-3.21-14.14c3.55-5.74 11.27-7 17.43-7.73 6.75-.91 13.56-.34 19.75 2.5z" transform="translate(-.25)"/><path class="cls-1" d="M146.76 99.22v.09h-.08c-6.47 1.67-7.72 9.32-13 12.53-3.06 1.87-7 2.82-10.34 4-4.08 1.49-8.52 2.07-11.52-1.81a9.12 9.12 0 0 1-.21-11c2.62-3.44 6.92-4.78 11-5.59 7.85-1.56 16.24-1.67 23.67 1.66a.71.71 0 0 0 .48.12z" transform="translate(-.25)"/><path class="cls-1" d="M145.72 98.53a59 59 0 0 1 12.17-11.61c4.59-3.31 7-6.52 12.51-5.22 4.75 1.12 7.93 6.13 9.63 10.71.79 2.15-.31 4.62-1.36 6.66-1.46 2.86-2.14 2.44-5.3 3-5.33 1-8.24 2-13.64 1.58s-10.51-2.24-15.59-4.13" transform="translate(-.25)"/></g></g></svg>