<svg xmlns="http://www.w3.org/2000/svg" viewBox="0 0 162.66 180.32"><path d="M114.57 86.56c-.5 4.08-.45 8.27-2.47 12.08a4.55 4.55 0 0 0-.22 2.72 11.33 11.33 0 0 1-3.79 11.07 41.9 41.9 0 0 1-21.91 10.67c-7.6 1.33-14.51-.74-21.62-2.36-6.47-3.78-13.44-7-16.64-14.53-3.07-7.21-4.4-14.73-2.82-22.57.33-1.66.71-3.32 1-5 1-6.14 4.15-11.32 8-15.91A26.37 26.37 0 0 1 68 54.49a66.86 66.86 0 0 1 19-2 21.13 21.13 0 0 1 11.63 3.8 73 73 0 0 1 6 4.13 22.85 22.85 0 0 1 6.7 9.63c2.01 5.35 3.83 10.69 3.24 16.51zm-8.94-20.19a20.58 20.58 0 0 0-2-1.63c-.14-.1-.79.18-.81.34-.12 1.06.57 1.6 1.48 1.82.26.1.6-.22 1.33-.53zm-52.89 4.12c-.29.21-.67.36-.84.64s.21.51.33.78c.29-.19.69-.33.84-.6s-.2-.54-.33-.82zm16.43 47.68v-.33l-.44.11zm-23.33 8.2a21.89 21.89 0 0 1-1.43 3.4 147.68 147.68 0 0 1-15.07 20.33c-3.66 4-6.92 8.35-10.35 12.55-.77.94-1.6 1.59-3.07.9-.92-2.69-.31-5.4 2-6.87 4-2.5 6.1-6.54 9.15-9.79 2.55-2.74 4.85-5.73 7.13-8.71 2.39-3.13 4.6-6.4 6.93-9.56a10.36 10.36 0 0 1 2.29-2.42c.45-.29 1.33.07 2.42.17zM22.1 10.2a12.2 12.2 0 0 1 2.54 1.71c3.28 3.88 6.54 7.78 9.7 11.76 3.85 4.86 7.62 9.8 11.38 14.73 1.6 2.09 3.15 4.22 4.57 6.43a2.12 2.12 0 0 1-.2 2c-.57.64-1.35.22-1.9-.4-2.86-3.25-5.84-6.41-8.56-9.77-6.05-7.45-12-15-17.91-22.54a3.48 3.48 0 0 1-.78-2c.06-.62.65-1.12 1.16-1.92zM104 129.45a12.2 12.2 0 0 1 2.54 1.71c3.29 3.88 6.54 7.78 9.7 11.76 3.86 4.86 7.62 9.8 11.38 14.73 1.6 2.09 3.15 4.22 4.57 6.43a2.1 2.1 0 0 1-.2 2c-.57.64-1.35.22-1.9-.4-2.86-3.25-5.84-6.41-8.56-9.77-6-7.45-12-15-17.91-22.54a3.48 3.48 0 0 1-.78-2c.01-.62.65-1.16 1.16-1.92zM52.93 177.8c.54-1.94.91-3.4 1.37-4.84q5.45-17.19 10.94-34.38a22.82 22.82 0 0 1 1.59-3.53c.11-.2.69-.27 1-.2a1.17 1.17 0 0 1 .81.6 5.67 5.67 0 0 1 .22 2.19 47.27 47.27 0 0 1-1.23 5.49c-1.46 4.84-3 9.64-4.52 14.48-1.91 6.26-3.76 12.54-5.63 18.81-.22.72-.36 1.46-.62 2.17-.48 1.35-1.73 2.16-2.49 1.49a8.77 8.77 0 0 1-1.44-2.28zm65.01-119.58a2.25 2.25 0 0 1-.41-3.54 18.06 18.06 0 0 1 4.29-3.61c5.55-3.18 11.15-6.28 16.84-9.18a26.6 26.6 0 0 1 6.46-1.9 2.16 2.16 0 0 1 1.76.95c.54.93 0 1.78-.83 2.42a1.65 1.65 0 0 1-.5.24c-9.72 2.82-17.94 8.45-26.19 14a7.33 7.33 0 0 1-1.42.62zM30.32 94.38a18.37 18.37 0 0 1-2.59.62c-7.47.52-14.94 1.06-22.42 1.47a16.13 16.13 0 0 1-4.39-.6c-.4-.09-1-1-.91-1.22a4.1 4.1 0 0 1 1.35-1.53c.25-.2.73-.14 1.09-.12 6.6.45 13.07-.81 19.58-1.42a13.61 13.61 0 0 1 6.63.55c.64.26.97 1.28 1.66 2.25zm5.02-25.79c-1.31.06-2.25.37-3 .09A211.47 211.47 0 0 1 7.33 56.94a4.84 4.84 0 0 1-1.65-1.46 2.2 2.2 0 0 1 0-1.58c.08-.26.59-.5.92-.54a3.26 3.26 0 0 1 1.65.1c4.06 1.92 8.13 3.86 12.14 5.89C23.56 61 26.46 63 29.87 64.2c1.99.71 4.13 1.67 5.47 4.39zM32 114.68c-.32.79-.4 1.76-.85 2-6.31 3-11.29 7.89-16.79 12-.91.69-2 1.26-3.06.48s-1-2.87.07-4a14 14 0 0 1 2.17-1.72c3.31-2.42 6.76-4.67 9.92-7.27a7.9 7.9 0 0 1 8.54-1.49zm59.35 31.68l-.27 9.55a10.6 10.6 0 0 1-.12 2.77 2.35 2.35 0 0 1-1.42 1.48A2 2 0 0 1 88 159a16.91 16.91 0 0 1-.84-4.95c.18-6.93.53-13.85.83-20.78 0-.36.06-.88.29-1.05a4.11 4.11 0 0 1 1.85-.88 1.61 1.61 0 0 1 1.18 1 9.56 9.56 0 0 1 .27 2.77c-.07 3.75-.19 7.49-.3 11.23zm39.46-21.91l8.14 5a10.8 10.8 0 0 1 2.35 1.49 2.34 2.34 0 0 1 .57 2 2 2 0 0 1-1.75.79 17.47 17.47 0 0 1-4.72-1.73c-5.91-3.61-11.73-7.37-17.58-11.09-.31-.2-.74-.49-.77-.78a4 4 0 0 1 .16-2 1.65 1.65 0 0 1 1.43-.54 9.83 9.83 0 0 1 2.54 1.15c3.21 1.93 6.39 3.91 9.58 5.86zM84.44 42a16.85 16.85 0 0 1 .08-9.63C85.74 27.17 87 22 88 16.73c.76-4 1.16-8.13 1.77-12.18.18-1.2.55-2.34 1.08-4.55.88 1.73 1.68 2.58 1.72 3.53a29.16 29.16 0 0 1-.24 6.94c-1.78 9-3.71 18-5.69 26.93-.3 1.34-1.15 2.45-2.2 4.6zm21.13 0a1.54 1.54 0 0 1-1.32-2.05 34.94 34.94 0 0 1 2.2-6.88c2.41-4.84 5.11-9.53 7.73-14.27a13.3 13.3 0 0 1 1.32-1.59c.56.82 1.17 1.32 1.24 1.89a4.12 4.12 0 0 1-.51 2.14Q111.18 31.46 106 41.7c0 .13-.27.17-.43.3zm19.02 39.53a9.66 9.66 0 0 1 .14-2.88c.24-.63 1-1.08 1.59-1.54 4.74-3.61 10.2-5.58 15.93-6.9a5.2 5.2 0 0 1 2.22 0c1 .22 1.81.88 1.6 1.93-.12.6-.89 1.48-1.41 1.51-6.87.42-12.48 3.85-18.07 7.36a10.73 10.73 0 0 1-2 .52zM70.9 43.6a17.8 17.8 0 0 1-2.76-7.47C67.27 30.59 66.65 25 66 19.44a3.73 3.73 0 0 1 .22-1.62 1.3 1.3 0 0 1 .78-.62c.32-.06.9 0 1 .23a10.46 10.46 0 0 1 1.3 3.07c.89 6.67 1.69 13.36 2.46 20.06.07.6-.34 1.26-.86 3.04zm47.63 57.55c.76-1.14.85-1.75 1.26-1.83 11-2.08 22.57-1.14 33.82-2 3-.23 6.28-.37 9 .82-.18.6-.07 1.15-.46 1.34a7.3 7.3 0 0 1-2.73.8c-11.71.55-23.43 1.08-35.16 1.52a42.14 42.14 0 0 1-5.73-.65z" fill="#f6bd4a" data-name="レイヤー 2"/></svg>