<svg xmlns="http://www.w3.org/2000/svg" viewBox="0 0 1830.36 143.17"><defs><style>.cls-2{fill:#0b6d58}.cls-3{fill:#ece93b}.cls-4{fill:#e24863}.cls-7{fill:#f0ee75}.cls-8{fill:#70917f}</style></defs><g id="レイヤー_2" data-name="レイヤー 2"><g id="レイヤー_1-2" data-name="レイヤー 1"><path fill="none" d="M0 .21h1830.36v142.96H0z"/><g id="レイヤー_2-2" data-name="レイヤー 2-2"><path class="cls-2" d="M173.44 18.06c-3.36.91-6.75 1.88-10.17 2.73a5.92 5.92 0 0 0-4.07 3.13 25.69 25.69 0 0 0-2.71 7.51c-.48 2.64-1.74 3.33-4.14 2.7-2.59-.68-3.59-1.89-3.25-4.64.32-3 .77-6 1.18-9a2.68 2.68 0 0 1 .29-1c2.47-3.87 4.59-8 9-10.3a10.54 10.54 0 0 1 12.19 2.14c1.14 1.29 1.38 2.21 1.68 6.73z"/><path class="cls-3" d="M130.4 39.19a56.81 56.81 0 0 1 3.71-4.33c1.29-1.22 2.86-2.14 4.22-3.3 5.76-4.86 13-3.83 18-.53a73.44 73.44 0 0 1 7.12 5.67c1.89 1.62 3.65 3.38 5.28 4.9 2.09.06 2.83-1.34 3.77-2.32a36.65 36.65 0 0 1 9.63-6.74c4.47-2.37 9-2 13.41.09a10.29 10.29 0 0 1 6 6.44 44.68 44.68 0 0 0 2.84 6.36c1.92 3.93 2.52 8.12 2.94 12.44.72 7.36-1.4 14.13-3.71 20.9-2.07 6.08-5 11.83-6.7 18.07a24 24 0 0 1-4.19 8 15.58 15.58 0 0 1-9.8 6 22.92 22.92 0 0 1-12.16-.17c-1-.33-2.08-.54-3.11-.83a4.56 4.56 0 0 0-4.1.5c-2.16 1.51-4.65 1.72-7.2 1.63a10.56 10.56 0 0 0-1.59 0c-6.36.78-12.46-.36-18.44-2.45-2.13-.74-4.19-1.06-5.92.87-6.2 2.19-12.48 3.13-18.89.95a10.05 10.05 0 0 1-2.32-1.37c-.88-.6-1.62-1.59-2.58-1.87-4.51-1.33-7-5-9.28-8.5-1.57-2.42-2.08-5.6-2.57-8.6a104.4 104.4 0 0 1-1.5-18.68c0-1.56-.62-3.14-.92-4.72a13.86 13.86 0 0 1-.58-3.68c.8-7.75 1-15.59 3.77-23 3.32-8.82 10.74-14.18 20.1-14.23a8.5 8.5 0 0 1 5.45 1.93 32.75 32.75 0 0 1 7.4 7.69zm-22.85 26.07l.45-.07c-.13.06-.25.13-.37.2l-1.14 2.41a15.81 15.81 0 0 0-4.16 8.33c0 .34.36.73.82 1.62.71-1.84 1.27-3.11 1.68-4.42.59-1.85 1.07-3.75 1.58-5.63zm-2.48-22.86a2.71 2.71 0 0 0 .84-.57c.14-.22 0-.59.06-.89-.22.17-.53.3-.63.52a4.21 4.21 0 0 0-.19 1c-.22.2-.46.39-.66.61l.14.36c.13-.33.29-.68.44-1.03zm39.81 31.36a2 2 0 0 0-.91 3c.29-1.07.57-2.07.84-3.08.16-.31.34-.61.48-.92a1.87 1.87 0 0 0 .11-.51c-.16.17-.42.31-.47.5a4.85 4.85 0 0 0-.05 1.01zm30.44 1.49c-3.27 2-3.5 4.49-2.33 7.5.55-2.42 2.45-4.4 2.33-7.5zm-57.56-32.39c-1.53 3-2.85 5.47-4.11 8-.08.17.24.53.6 1.24 1.84-2.81 3.92-5.21 3.51-9.24zm44.64 20.92c2.5-3.4 2.58-3.71 1.9-7.12-.63 2.34-1.16 4.34-1.9 7.12zm32.16-14.34c1.68-5.17 1.68-5.17.53-7.42-.84 2.29-.33 4.3-.53 7.42zM142.76 60c.22-1.14.47-2.27.63-3.42 0-.17-.38-.41-.74-.76-1.21 1.24-1.58 2.52.11 4.18zm34.56 10.93c-.11-.47-.18-.79-.26-1.11-.37.3-.92.53-1.06.91s.29.78.46 1.18zm-5.56 15.18a1.34 1.34 0 0 0-.52.07 1.81 1.81 0 0 0-.61 2.67.66.66 0 0 0 .45.13 1.89 1.89 0 0 0 1-2.45v-.09c-.08-.12-.25-.21-.32-.32zm32-20.7a2.94 2.94 0 0 0-.08-.49c-.1.12-.3.25-.29.36a2.72 2.72 0 0 0 .23.62.65.65 0 0 0 .14-.48zm-53.25-33.85v-.31l-.39.11zm51 43l-.22-.24-.06.42zm-1.75-21.37l-.23.24.26.11zm-53.93-12l.29.06-.12-.35z"/><path class="cls-4" d="M348.76 47.06c1.94.2 2.84.25 3.72.39a48.54 48.54 0 0 0 14.44-.21 63.21 63.21 0 0 1 7-.42 10.11 10.11 0 0 1 3.2.27c7.72 2.44 15.72 3.21 23.69 4.12a19.1 19.1 0 0 1 13.77 8.4c1.05 1.45 2 3 3.06 4.4 2.28 2.94 3 6.49 3.65 10a11.7 11.7 0 0 1-1.59 8.28c-1.94 3-3.94 5.82-7.24 7.72-5 2.83-9.71 5.94-15.14 8s-10.41 4.62-15.56 7a14.45 14.45 0 0 0-5.41 4.3 4.37 4.37 0 0 1-5.27 1.5c-1.53-.5-3.11-.84-4.6-1.42a4.35 4.35 0 0 1-2.08-1.48c-1.57-2.52-4.2-3.24-6.68-4.18a47.76 47.76 0 0 0-5.67-1.63 60.84 60.84 0 0 1-21.61-10.38 19 19 0 0 1-8.07-15 41.34 41.34 0 0 1 2.89-16.27c2-5.5 6.55-8.5 11.54-10.47 4.06-1.65 8.6-2.15 11.96-2.92zm24.53 28l-2.72 7c-.77 2-.73 2.07 1.78 4.45.74-3.92 1.6-7.62 1-11.41zm-36-6.61c-2.64 2.91-3.19 6.27-3 9.78 0 .42.87.78 1.57 1.36.57-4 1-7.58 1.46-11.1zm40.19-11.07c-.68.49-1.21.68-1.39 1a1.31 1.31 0 0 0 .8 1.66 1.39 1.39 0 0 0 .49.07 2.12 2.12 0 0 0 1.18-.62 20.09 20.09 0 0 0-1.05-2.07zm2.45 22.34c.28.26-1.23 1.35 0 2.3zm-25.47 16.1c.94 1.52 2.14 1.66 3.76 1.5-1-1.44-2.24-1.48-3.73-1.46zm2-11.13a5.16 5.16 0 0 0-.63-.69.46.46 0 0 0-.42.17 18.39 18.39 0 0 0-.53 1.79c0 .09.22.35.3.34.3 0 .73-.09.84-.29a5.57 5.57 0 0 0 .5-1.28zm.1-13.71l.71.54c.32-.38.78-.7.93-1.14a10.62 10.62 0 0 0 0-2.52c-.79 1.68-1.18 2.42-1.58 3.15zm12.66-15.58a7.53 7.53 0 0 0 .78 1.9c.26.29.76.35 1.16.52 0-.47.25-1.11 0-1.38a9.12 9.12 0 0 0-1.88-1zm-29 1c-.21-.47-.31-1-.48-1a1 1 0 0 0-.87.35c-.13.17 0 .56.05.85zm20.31-2.4a4 4 0 0 0-.35.72c0 .06.25.3.31.28a4 4 0 0 0 .65-.42zm46.23 14.51v-.91h-.36v.91zm-5-5.94v-.28l-.38.1z"/><path d="M374 29.45l16.46 1.49c.71.07 1.44 0 2.14.06 2.66.31 3 .71 3.82 4.43-5.6 3.21-10.6 7.66-17 9.2-1 1.76 0 3.06.5 4.27 1.59 3.66 2.12 7.52 2.7 11.24-.79 1.11-1.64.77-2.51.55a14.27 14.27 0 0 1-6-3.46 29.92 29.92 0 0 0-7.67-5.2 12.29 12.29 0 0 0-2 1.68 12.19 12.19 0 0 1-3.11 2.79c-1.74 1.15-3.06 2.93-4.53 4.48-2 2.17-4 2.69-5.6 1.47-1.29-1-1.48-3.06-.33-5.45 1.62-3.38 3.35-6.7 5-10.07.54-1.11.89-2.3 1.43-3.74-3.67-4.19-7.96-7.81-10.54-13.19.73-.32 1.46-.94 2.15-.9 3.53.19 7 .55 10.69.86 1.14-1.36 1.15-3.21 1.62-4.9.71-2.58 1.5-5.15 2.45-7.65a23.86 23.86 0 0 1 2.1-3.72 3.37 3.37 0 0 1 3.51-2c1.7.25 2.4 1.57 2.76 3a47.29 47.29 0 0 1 1.12 6.31c.18 1.41 0 2.86.14 4.29.1 1.2.37 2.41.7 4.16zm.54 10.74l.86.4.39-.87-.9-.4c-.13.29-.29.58-.4.87zM367.7 49a5.87 5.87 0 0 0-.36-.81 1.74 1.74 0 0 0-.36.13q.15.42.33.81a2.23 2.23 0 0 0 .39-.13z" fill="#769584"/><path d="M577.2 70.88c3-1.38.51-3.26 1-5.09a9.37 9.37 0 0 1 6.48-1.16c2.47.37 4.92.94 7.4 1.1 2.21.15 4.65.89 6.46-1.34 1-1.23 2.38-.27 3.54-.24a8.07 8.07 0 0 1 7 3.9c-1.7 4.16-3.35 8.08-4.87 12.06-.29.76 0 1.72 0 3.1 1.21-.54 2-.84 2.69-1.19 1.77-.85 3.5-1.78 5.3-2.57a5 5 0 0 1 4.17.15c1.14.52 2.41 1.1 2.52 2.51.13 1.58-1.16 2-2.41 2.37-2.62.77-4.2 3.08-6.39 4.52-2.64 1.74-4.79 4.24-6.78 6.07-1.15 4.81-2.35 9.1-3.18 13.46s-1.53 8.7-2.22 13.33c-2.55-.23-4.67-.72-6.71-.52a33.82 33.82 0 0 0-6.07 1.71c-2.59-2.53-3.39-5.42-3.47-8.78-.08-4.1-.68-8.18-.87-12.28-.19-4.28-.18-8.57-.2-12.85-.07-6.08.05-12.14-3.39-18.26z" fill="#3e7965"/><path class="cls-2" d="M610.23 9.89a9.2 9.2 0 0 0 1.77-.32c6.8-3.45 13-1 18.81 2.36 4.81 2.72 7.34 9.75 5.92 15.56a72.78 72.78 0 0 1-2.85 7.8 28.14 28.14 0 0 0 2.77 3.38c2.51 2.31 2.77 5.3 2.75 8.36a6 6 0 0 1-2.61 5.06c-3.52 2.42-7.1 4.75-10.67 7.11a4.21 4.21 0 0 1-1.43.73c-4.82.79-8.21 4.08-11.77 7a5.86 5.86 0 0 1-5.92 1.29 7.08 7.08 0 0 0-5.67.81c-1.74.9-3.56 1.69-5.23 2.7a17 17 0 0 1-6.57 2.19 39.32 39.32 0 0 1-14.38-.59A9.88 9.88 0 0 1 568 68.2a7.21 7.21 0 0 0-4.75-4c-3.13-.91-6-2.28-7.79-5.27-2.2-3.59-4-7.31-3.62-11.57a15.6 15.6 0 0 0-1.37-8.3 20.87 20.87 0 0 1-1.49-10 6.61 6.61 0 0 1 .94-3.55 17.79 17.79 0 0 0 2.79-6.29 19.55 19.55 0 0 1 9.49-11.85c4.2-2.37 8.8-2.51 13.56-1.62a32.37 32.37 0 0 1 3.26 1c3.79-3.81 8.55-3.9 13.46-3.41 1.6.14 3.2.19 4.79.17a13.06 13.06 0 0 1 9.28 3.41 45.91 45.91 0 0 0 3.68 2.97zm-34.15-1a6.51 6.51 0 0 0-.69-.7 2 2 0 0 0-.4.18l1.17.41a4.48 4.48 0 0 0 .52 1.31c.24.26.76.28 1.15.4-.11-.43-.09-1-.36-1.24s-.91-.24-1.39-.38zm-22.27 27.42a8.42 8.42 0 0 0 4.19-5.24c-1.73-.42-2.94-1.92-4.9-1.46-1.23 2.32-.26 4.22.71 6.7zm46-3.3a14.88 14.88 0 0 0 7.64-8.56c-.33 0-.8-.14-.95 0q-3.33 3.4-6.55 6.91a8.05 8.05 0 0 0-.19 1.64zm-29.5-4.58c.82-1.3 1.63-2.44 2.29-3.66s.47-2.29-1.26-3.09c-1 1.51-2.07 2.89-2.87 4.4-.59 1.18 0 2 1.87 2.35zm38.27 21.68c.92-2.79.59-4.06-.95-4.76-.86-.38-2.45.19-2.61 1.13a2.31 2.31 0 0 0 .63 1.77 21.94 21.94 0 0 0 2.88 1.86zm7.66-12.26l4.32-3.78-4.18-1.47c-.62 1.9-1.99 3.34-.19 5.25zM589.7 13.58l-1-.65c-1.2 1.45-2.45 2.86-3.58 4.37-.28.38-.17 1.05-.24 1.59 1.88-1.78 4.12-2.98 4.82-5.31zM556.61 24c.78-.64 1.55-1.3 2.37-1.9s1.57-1.05 2.36-1.57a11.11 11.11 0 0 0-4.53 1c-.28.11-.44.52-.62.82a1.11 1.11 0 0 0-.1.51 1.15 1.15 0 0 0 .06.52 4 4 0 0 0 .46.62zm7.24 34.81a4.73 4.73 0 0 0-4.62-2c1.53 3.81 2.06 4 4.62 2zM587.13 70c-5 .5-5 .5-7.26 2.38 2.79-.68 4.89.3 7.26-2.38zm41.31-31.62l5.12 1.51c-3.32-3.79-3.32-3.79-5.12-1.48zm-6.68-13.5a30.12 30.12 0 0 0 2.87-2.14c.19-.19 0-1-.22-1.33a1.42 1.42 0 0 0-1.33-.28c-1.32.67-2.01 1.73-1.32 3.76zm10.73-1.45c.19 1.68-2.08 2.78-1.16 5 1.43-1.67 1.93-3.19 1.19-5zM599 22.07l3.65-2.72c-2.76-.88-2.76-.88-3.62 2.72zm-43.43 18c-.24.59-.53 1.07-.45 1.13a14.23 14.23 0 0 0 1.56 1c.12-.3.43-.75.34-.86a12.56 12.56 0 0 0-1.5-1.22zm30.13 11.36c-.15-.23-.24-.36-.32-.5-.42.42-.86.82-1.25 1.26-.07.07 0 .43.08.45.29.06.74.16.86 0a5.57 5.57 0 0 0 .63-1.21zm-17.35 5.06l.85-.39a3.87 3.87 0 0 0-.46-.68s-.4.11-.41.2a5.06 5.06 0 0 0 .02.87zM595 39l-.73-.42c0 .15-.09.38 0 .45a4.43 4.43 0 0 0 .69.47zm-5.81-15.3c-.06-.14-.11-.38-.2-.4s-.3.1-.46.16c.11.21.22.41.34.61zm-17.43 12.82v-.4l-.74.08c0 .14 0 .28.07.41.23-.02.45-.05.67-.09zm13.67-29c-.1.13-.27.25-.27.37s.14.29.22.44l.5-.57zm11.33 7.75l-.74-.59c-.09.13-.3.31-.27.38a7.66 7.66 0 0 0 .5.76zm19-2.38l.33.2c.06-.11.19-.25.16-.32s-.21-.13-.33-.19zm-18.76 10a2.66 2.66 0 0 1-.07.74c.1-.12.26-.22.27-.34s-.08-.23-.16-.37zm24.13 33.62l-.43.19.43.17zM558.05 47h-.81c.12.09.24.25.37.25s.26-.1.44-.25zm56.39-4.93h-.32l.12.39zm-10-3.23l.14.31.14-.3z"/><path class="cls-7" d="M826.14 48.72a15.86 15.86 0 0 1 8.3-7 4.31 4.31 0 0 1 4.55.42c3.12 2.47 5.91 5.14 6 9.64.06 5.16 1 10.3-.46 15.44-.54 1.83-.28 3.89-.43 5.84-.49 6.61-2.12 13-3.51 19.46-1.11 5.09-3.15 9.82-4.58 14.77a7.6 7.6 0 0 1-4.39 5.14 16.76 16.76 0 0 0-5.52 4.11 9.71 9.71 0 0 1-9.3 2.9c-2.35-.44-4.42-1.25-5.55-3.69a24.26 24.26 0 0 0-2.57-3.65c-1.08.17-2.12.25-3.11.51-3 .76-5.25-.44-7-2.79a12.27 12.27 0 0 1-1.8-3.27c-1.73-5.44-4.23-10.63-5.14-16.34s-2.12-11.23-3-16.88a77.38 77.38 0 0 1-1.21-12.25 48.39 48.39 0 0 1 1.68-10c.42-1.86 1.82-2.86 3.82-3.27 3.12-.63 6-.55 8.76 1.25 1.77 1.18 3.54 2.34 5.57 3.68.9-1.19 1.87-2.64 3-3.94a41.32 41.32 0 0 1 4.81-5c2.19-1.76 4.59-1.34 6.62.76.74.77 1.49 1.53 2.26 2.27.51.5 1.06.93 2.2 1.89zM804.53 109a1.23 1.23 0 0 0-.42-.14c-.05 0-.1.21-.14.33a1.23 1.23 0 0 0 .41.13c.06-.04.1-.25.15-.32z"/><path class="cls-7" d="M813.7 41.48v-1.59c-.1-2.69-.33-5.47 1.68-7.62 2.65-2.84 5-6.19 9-7.3a5.66 5.66 0 0 1 3 .09 2.13 2.13 0 0 1 1.52 2.59 2.67 2.67 0 0 1-.14.36c-.63 1.87-1.27 3.81-3.06 4.86-2.23 1.32-3 3.48-3.65 5.7-.82 2.91-1.39 5.9-2.14 8.83a3 3 0 0 1-3.07 2.44 3.09 3.09 0 0 1-3.54-2.56 4.73 4.73 0 0 1 0-.53c-.07-1.76.15-3.54.25-5.32z"/><path class="cls-8" d="M1066.38 44.83c3.3 3.93 3.32 5 .26 9.27A41.07 41.07 0 0 1 1058 63c-4.81 3.69-9.88 7.06-14.11 11.47a18.57 18.57 0 0 0-4.42 6.53 168.41 168.41 0 0 1-8.39 20.12c-.66 1.31-1 2.79-1.6 4.13a5.59 5.59 0 0 1-1.59 2.11 2.43 2.43 0 0 1-2 .32 2.17 2.17 0 0 1-1.18-1.64 20.09 20.09 0 0 1 1.22-5.13c1.83-4.37 4-8.62 5.77-13 2.33-5.6 4.67-11.21 6.65-16.94s3.49-11.62 5.29-17.42c1.39-4.55 3.13-9 4.37-13.55 2-7.5 5.38-14.44 8.36-21.54 1-2.33 1.84-4.69 2.76-7a24.63 24.63 0 0 1 4.34-7.72 9.71 9.71 0 0 1 7.85-3.53 4.73 4.73 0 0 1 4.7 3.42c1.07 3.2 1.25 6.41-.41 9.48-1.2 2.21-2.53 4.35-3.82 6.57-.13 1.16.72 1.77 1.5 2.49 3.45 3.17 3.76 5.84 1.57 9.8a55.1 55.1 0 0 1-8 11.68 3.73 3.73 0 0 0-.48 1.18zm5.11-31.36c2-.89 1.92-2.56 1.62-4.31a6 6 0 0 0-1.16 2.23 19.18 19.18 0 0 0-.39 2.14 2.65 2.65 0 0 1-.16.66zm-1.73 21.45c2.71-2 3.41-4.91 3.42-8.07 0-.62-.38-1.05-1-.8-.67 2.19-1.35 4.26-1.94 6.36a24.79 24.79 0 0 0-.43 2.58 8.37 8.37 0 0 0-3.4 3.35c-1.22 1.83-2.59 3.57-3.87 5.38-.17.24-.13.63-.32 1.59a28.58 28.58 0 0 0 5.34-6.12c.94-1.32 2.2-2.51 2.2-4.27zm-5.11 17.19c-3.25 2.52-3.8 3.25-4 5.27 2.87-2.38 2.87-2.38 4-5.27zm-3.06-11.28a6.55 6.55 0 0 0 .66-1.29 2.15 2.15 0 0 0-.27-.65 4.32 4.32 0 0 0-.85.75c-.08.11.16.45.46 1.19zm-8.19-7.16l-.32.7.51.19a4.85 4.85 0 0 0 .14-.76zm15.36-25.75l-.27-.51c-.06.1-.2.21-.18.29a5 5 0 0 0 .26.52z"/><path class="cls-4" d="M1015 135.76a5.2 5.2 0 0 1-2.49-3.38c-.9-4.65-3.88-7.88-7.1-11a39.17 39.17 0 0 1-3.71-4.41 6.74 6.74 0 0 1-1.08-5.92 36.7 36.7 0 0 1 3.48-9.13 7.06 7.06 0 0 1 1-1.47c5.18-5 11-8.67 18.61-7.78a61 61 0 0 1 8.28 1.57 14.89 14.89 0 0 1 9 6.75c.63 1 1.4 1.92 2.1 2.88 4.09 5.63 3.39 10.53-.09 16.14-2.33 3.77-6 6.16-9.8 8.19-1.63.88-3.69 1-5.58 1.31a35.48 35.48 0 0 1-4 .19 5.92 5.92 0 0 0-4.28 2c-1.25 1.39-2.26 3.11-4.34 4.06zm-8-29.48c-.32.14-.92.16-.31.7.07-.25.15-.51.23-.76.87-.39.87-1.14.82-1.92a6 6 0 0 0 3.12-3.16c-2 1.17-2 1.16-3 3.24a1.68 1.68 0 0 0-.91 1.9zm10.6-2.81c.85-.29 1.52-.71 1.39-1.75 0-.1-.25-.26-.33-.23-1 .34-1.06 1.16-1 2l-.3.61c0-.18.12-.41.19-.63zm.59 9.51c-.17-.4-.28-.86-.38-.86a4.52 4.52 0 0 0-1 .28c.09.25.15.68.26.7a4.79 4.79 0 0 0 1.07-.09zm6-14.19a5.56 5.56 0 0 0-.71-.29s-.24.27-.21.33a5.39 5.39 0 0 0 .45.59zm-5.46-2.89a6.6 6.6 0 0 0-1.46-.34c-.23 0-.45.27-.67.41.2.17.42.48.6.46a7.29 7.29 0 0 0 1.56-.53zm23.47 16.7c-.16.22-.31.33-.3.41.09.3.19.6.3.89zm-7.67 12c-.34-.15-.6-.36-.8-.31a1 1 0 0 0-.59.51c0 .11.22.37.35.55zm3.48-2.9l-.32.14.31.13z"/><path class="cls-8" d="M1030 95c-2-1.24-3-2.75-2.51-4.92 1-4.26.4-8.57.26-12.84-.1-3-.15-5.91 0-8.87a85.36 85.36 0 0 0-1-18.62 25.14 25.14 0 0 0-5.49-11.51c-1.45-1.84-3.59-2.57-5.75-3.16-2.86-.78-5.76-1.4-8.61-2.2-4.31-1.21-6.16-3.76-5.85-8.19a4.6 4.6 0 0 1 1.24-2.69 60.89 60.89 0 0 1 4.9-3.88c-1-1.61-2-3.21-2.88-4.89a12 12 0 0 1-1.13-9.45c.89-2.91 2.19-3.9 5.16-3.78 6.29.28 10.88 3.37 14.17 8.58 1 1.49 1.74 3.09 2.74 4.55a36.46 36.46 0 0 1 5.16 12.2c1.3 5.32 2.69 10.62 4 15.94a19.9 19.9 0 0 1 .49 3.06c.2 2.51.26 5 .52 7.53a96.41 96.41 0 0 1-.5 21.74c-.44 3.53-.75 7.08-1.4 10.58-.57 3-1.5 6-2.36 9A7.12 7.12 0 0 1 1030 95zm-15.4-90.48c.4.4.79.81 1.21 1.19.06.06.36 0 .36 0V5c-.53-.17-1.08-.25-1.62-.37-1.22-2.3-3.3-2.51-5.55-2.28-1.1.12-1.89.6-1.88 1.89 3.99-.87 4.06-.87 7.48.28zm-4.08 17c-1.14-1-1.83-.13-2.58.06-.08 0-.17.24-.15.33s.21.26.29.24c.75-.22 1.49-.43 2.44-.68zm7 11.37l2.55 1.4c0-1.51-.73-1.67-2.51-1.45z"/><path d="M1231.76 99.23a7.15 7.15 0 0 0 3-4.21 26.06 26.06 0 0 1 4.62-10c1.22-.29 1.68.52 1.63 1.45a25.83 25.83 0 0 1-.64 5.68c-.66 2.42-1.78 4.71-2.58 7.09-1.42 4.22-2.76 8.46-4.07 12.71-.07.23.4.7.7.93.12.09.58-.1.75-.29a3.24 3.24 0 0 0 .74-1.09c2.18-6 4.71-11.86 5.56-18.23.18-1.39.44-2.52 1.78-3.33 1.17-.69 1.25-2.79 3.44-2.64.47 2.76-1.4 5-1.52 7.69-.11 2.46-1.28 4.82-1.08 7.4 1.45-2.69 3.29-5.14 3.41-8.42a5.09 5.09 0 0 1 2.46-4.56l3.83 2.94a12.22 12.22 0 0 1-.15 6.21 6.62 6.62 0 0 0-.3 2.17.89.89 0 0 0 .92.86.85.85 0 0 0 .35-.08c1-4.37 2.33-8.06 3.37-9 2.18 3.63 2.47 5 1.79 8.08a33.94 33.94 0 0 0-.86 4.36c-.35 5.15-2.89 9.58-4.53 14.3a3.88 3.88 0 0 1-.89 1.53c-2.26 2.22-3.51 5.11-5.21 7.7a16.65 16.65 0 0 1-10.52 7.53 11.13 11.13 0 0 0-2.87 1.1 4 4 0 0 1-4.22-.23 11.29 11.29 0 0 1-2.84-2.11c-5.31-6.4-8.32-13.34-4.69-21.71 1.35-3.12 2.53-6.31 4-9.4a75 75 0 0 0 5.62-18.22c.2-1.1.07-2.39 1.24-3.09 1 0 .86.77.85 1.28a50.64 50.64 0 0 1-2.34 13.08c-.25.85-.41 1.72-.6 2.59q-.11.15-.21.33v.26zm13.62 26.14c-3.27 2.52-3.39 2.7-3.44 4.71 2.24-1.78 2.24-1.78 3.36-4.77a6.87 6.87 0 0 0 1-.86 1.34 1.34 0 0 0 .17-.78c0-.09-.25-.28-.26-.27-.3.22-.72.41-.82.71a3.81 3.81 0 0 0 0 1.26zm-10.38-9.58c-3.51 2-3.13 4.87-3.54 7.32-.68 4-.48 4.53 1.24 6.6zm12.79 4.52c-.23-.08-.52-.28-.66-.21s-.22.42-.32.65c.23.08.53.29.66.22s.15-.43.29-.66zm-22.34 4.81h-.21l.09.27z" fill="#447b67"/><path class="cls-2" d="M1253 43.39c1.12-3.42 2.13-6.83 3.35-10.16a37 37 0 0 1 6.77-10.88 5.26 5.26 0 0 1 2.09-1.62 5.56 5.56 0 0 0 3.32-3.35 7.45 7.45 0 0 1 7-4.54 26.22 26.22 0 0 1 8.76 1.16 10.43 10.43 0 0 1 7.12 9 12.73 12.73 0 0 0 4.61 8.65 8.6 8.6 0 0 1 1.85 2.47c1.11 2.07 1.36 4.46 2 6.68s0 4.66-.2 7a8 8 0 0 1-.56 2.59 85.76 85.76 0 0 1-6.06 12.82c-.62 1-1.08 2.09-1.6 3.15-2.17 4.42-4.6 8.62-8.79 11.53a7.86 7.86 0 0 0-2 2.33 28.38 28.38 0 0 1-6 7.1c-1.91 1.62-3.54 3.57-5.32 5.35-.94.94-1.92 1.84-2.93 2.71s-2.09 1.61-3.07 2.48a10.87 10.87 0 0 1-7.33 2.69c-.29 0-.59-.07-.88-.08-6.32-.19-7.26-.66-10.15-6a23.37 23.37 0 0 1-2.85-12.84c.18-2.5.55-5 .7-7.51a55.53 55.53 0 0 0 0-5.77 53.44 53.44 0 0 1 .88-11.5c1.11-5.98 4.05-10.53 9.29-13.46zm23.37-16.27c-.08.1-.15.2-.23.29.06-.12.12-.24.18-.38zm-13.72 53c.77-1.08 2.25-1.69 2.56-3.44-2.16.55-1.79 2.38-2.47 3.54-.31.69-1.38 1.15-.59 2.34a4.14 4.14 0 0 0 .57-1.13 4.79 4.79 0 0 0-.07-1.31zm10.83-7.88a15.12 15.12 0 0 0 1.57-1.92c.15-.24-.16-.75-.26-1.13-.32.19-.84.33-.9.59a21.79 21.79 0 0 0-.33 2.54 2.49 2.49 0 0 0-.69.43c-.12.16-.06.45-.07.69.19-.13.47-.21.56-.39a2.25 2.25 0 0 0 .12-.81zm7-41.33c-1 1.31-1.49 2.26-.74 3.52 1.5-1.42 1.5-1.42.71-3.52zm-3.78-9.76a4.42 4.42 0 0 0 1-.71c.47-.56.83-1.26.19-1.9a1.23 1.23 0 0 0-1.11-.22c-1 .41-1.09 1.2-.62 2.09.16.26.33.5.51.74zm10.3 12.37c.67-.6 1.2-.89 1.43-1.34.31-.62-.38-1.44-1.25-1.36-.47.05-1.31.63-1.27.83a7.06 7.06 0 0 0 1.06 1.87zm-21.73 5.36l-.69-.48a11.16 11.16 0 0 0-1.19 1.61c-.15.3-.1 1 .11 1.13.68.45 1-.17 1.19-.68s.36-1.05.55-1.58zm17.11-22.1l-.41-.65-.87.57c.21.17.42.44.66.47s.38-.25.59-.39zm-23.81 79.43h.44c-.1-.14-.16-.32-.29-.41s-.24.1-.37.16zm25.37-36.85l-.16-.64c-.11.06-.32.13-.31.19a3.32 3.32 0 0 0 .16.62zm-9.9-42.3l-.2.28.29.06zm18.56 38.33h.24l-.08-.3zm-1.63 3.18l-.18.33h.29zm.08-22.81l.1-.34-.3-.09a1 1 0 0 0-.07.34z"/><path class="cls-2" d="M1248.88 29.91a38.4 38.4 0 0 1 8.62-11.71c1 .27 2 .52 3 .8 2.64.77 3.37 1.7 3.43 4.37a25.18 25.18 0 0 1-1.93 9.09c-4.33 12.17-9.52 24-14.69 35.81-1.84 4.2-3.15 8.62-4.72 12.94-1.16 3.19-2.34 6.38-3.48 9.5-3.16.45-3.93 0-4.47-2.64-.33-1.6-.71-3.18-1.06-4.77a7.48 7.48 0 0 1-.11-4.37 3.09 3.09 0 0 0 .21-1.75c-1.14-4.42.06-8.82 0-13.23a31.66 31.66 0 0 0-1.1-9.19c-1.54-4.87-2-9.89.47-14.72a8.46 8.46 0 0 0 .37-1.28 12.38 12.38 0 0 1 10.58-8.14c1.18-.07 2.36-.12 3.53-.24a6.87 6.87 0 0 0 1.35-.47zm-2.19 3.73a11.64 11.64 0 0 0-2.1.41c-.89.38-1.77.81-2.63 1.28l-.55.43.51-.53c1.86.29 3.76.65 4.72-1.64l.81.25zm-7.58 4.53a2.57 2.57 0 0 1 .08-.4c0-.13-.29-.1-.32-.06a1.66 1.66 0 0 0-.11.38z"/><path class="cls-3" d="M1477.89 58a21.56 21.56 0 0 1 1.85-1.46c1.65-1 3.24-2.45 5.06-3a132.78 132.78 0 0 1 15.12-3.44 8.27 8.27 0 0 1 6.47 1.94c4 3.15 7.46 6.53 9.88 11.09a32.36 32.36 0 0 1 3.72 12.2 117.46 117.46 0 0 1 .16 22.5 33 33 0 0 1-5.08 14.55c-2.55 4.11-6.71 6.32-11.26 7.75s-9.5 1.68-14.3 2.13a16.44 16.44 0 0 0-7.16 1.85 11 11 0 0 1-7.79 1.23 68.35 68.35 0 0 1-16.84-5.27c-2.74-1.3-4.45-4-5.67-6.88-.83-2-1.85-3.84-2.73-5.78a18.89 18.89 0 0 1-1.36-3.48 96.84 96.84 0 0 1-1.85-30.93c.42-4.34 1.53-8.5 5-11.54a18.44 18.44 0 0 1 4.77-3.4c5-2 10.28-3.26 15.73-2.25a45.74 45.74 0 0 1 6.28 2.19zm23.87 18.35l-.17.3a.77.77 0 0 1 .07-.39c.74-.13 1.24-.37.45-1.12a5.77 5.77 0 0 0-.35 1.22zm14 28.24a4.46 4.46 0 0 0-2.27 4c-1.39.73-3.26 1-3.41 3.48a3.82 3.82 0 0 0 3.32-3.56c1.62-.86 1.74-2.61 2.38-4.06zm-34.5-35.75c-2.37 2.39-2.37 2.39-1.47 5 .9-1.65 1.76-3.17 1.38-5 .78-.62 1.44-1.27.39-3-.13 1.39-.21 2.16-.29 3zM1473.42 92h-.53c-.16.69-.35 1.37-.45 2.06a2.41 2.41 0 0 0 .3.79c.18-.27.48-.52.53-.82a17.17 17.17 0 0 0 .15-2.03zm18.78-22.38l.73.56a12.15 12.15 0 0 0 1-1.75c.09-.24-.19-.63-.31-1a3.88 3.88 0 0 0-.75.71 14.85 14.85 0 0 0-.67 1.46zm-30.85-2.41l-.2.36h.32z"/><path d="M1480 35.63c1.08 3.45.48 6.47.37 9.45s-.48 5.67-.76 8.5c-.2 2-.63 3.86-2.72 5a4.41 4.41 0 0 1-3-4 27.27 27.27 0 0 1 2.11-15.15c.63-1.51 1.47-3.18 4-3.8z" fill="#c49258"/><path class="cls-2" d="M1473.82 44.17c0-4 1.39-7.5 4.74-9.67a46.51 46.51 0 0 1 9.12-4.35c1.4-.52 3.17-.2 4.75 0a2.21 2.21 0 0 1 2 2.4 1.57 1.57 0 0 1 0 .3c-2.17 6.33-5.08 12.18-11.28 15.59a9.64 9.64 0 0 1-3.5 1.16c-4.46.4-5.81-.91-5.83-5.43z"/><path d="M1710.37 42.94c3.17-1 5.84-2 8.6-2.57a16.19 16.19 0 0 1 14.49 3.63 3.18 3.18 0 0 1 1 1.82 51.44 51.44 0 0 1 .93 6.3c.23 3.38.42 6.77.34 10.14-.1 3.73-.47 7.46-.84 11.18a28.11 28.11 0 0 1-1 4.72 96.88 96.88 0 0 0-2.72 17.84c-.42 5.54-2.26 10.84-4.09 16.06-1.23 3.53-3 6.87-4.08 10.44-.87 3-2.58 5.49-4 8.14a13.27 13.27 0 0 1-3.83 4.4 100 100 0 0 1-9.56 5.84 15.16 15.16 0 0 1-12.89 1.4 57.32 57.32 0 0 0-6.26-1.42c-4.44-1-8.44-2.74-11.25-6.64a15.72 15.72 0 0 1-2.48-5.83c-1.47-6.46-.07-12.39 2.91-18.11 1.48-2.85 2.9-5.74 4.41-8.59a119.34 119.34 0 0 1 6.33-10.53c6.78-10.09 13.29-20.38 17.91-31.68 2.22-5.39 4.06-10.98 6.08-16.54zm-15.86 47.42l-1.11 2.07c-2.36 3.14-2.73 4-3.29 7.89 1.89-2.69 3.34-5 3.2-8 .37-.69.75-1.38 1.12-2.08l.36-.54a4.58 4.58 0 0 1-.28.66zm31.35 4.39c-.27.18-.54.38-.8.59-.11.1-.12.31-.17.46.16-.07.4-.1.48-.22a5.39 5.39 0 0 0 .39-.93c.2-.47.41-.94.58-1.42a.68.68 0 0 0-.07-.47c-.21.16-.59.31-.6.48a8.54 8.54 0 0 0 .19 1.51zM1703 72.9a4.62 4.62 0 0 0 2-4.48c1.93-.49 2.88-1.59 2.54-4.16-1.85 1.24-2.13 2.76-2.44 4.26-.81 1.43-2.15 2.62-2 4.47l-.52.74zm4.22 20.38c.43-.28 1-.46 1.27-.86a48.9 48.9 0 0 0 5.47-16 1.72 1.72 0 0 0-1 1.06c-1.51 3.4-2.92 6.86-4.54 10.21a11.36 11.36 0 0 0-1.09 5.68c-1.3 1.07-1.62 2.51-2.1 5 1.77-2.04 2.14-3.48 2-5.09zm6.56 18c-.4-.12-.93-.49-1.25-.35a2 2 0 0 0-1.14 2.54c.07.27.45.66.69.66 1.07 0 1.37-.81 1.6-1.65a6.2 6.2 0 0 0 .07-1.22zm-23.8 20.1c.48-.33.7-.4.76-.54.33-.78 1.08-1.57.09-2.39a.67.67 0 0 0-.52 0c-1.12.44-1 1.36-.83 2.26 0 .1.2.23.5.65zm9.65-49.28c-.41-.82-.54-1.1-.68-1.37a7.24 7.24 0 0 0-.94 1.19c-.08.15.36.76.42.74a9.5 9.5 0 0 0 1.2-.58zm-14.09 42.54l-.3-.17c0 .13-.19.33-.15.37a3.81 3.81 0 0 0 .42.24zm-6.18 8.22l.56.63c.06-.13.2-.31.16-.39a3 3 0 0 0-.49-.58zm42.39-88.73l.19-.29-.28-.06z" fill="#10589c"/><path d="M1726.66 16.36c2.48 1.49 2.63 3.73 2.34 6.11-.21 1.75-.49 3.49-.74 5.25 2.1 1.78 4 3.37 5.9 5a11.78 11.78 0 0 1 4.09 6.12 9.4 9.4 0 0 1-3.08 9.83c-3.69-.32-6.05-3.54-9.55-4.56-2.69 1.4-4.23 4.13-6.32 6.39a5.71 5.71 0 0 1-3.43-5.14c-.11-2-.9-2.53-2.73-2.17s-3.45.91-5.18 1.31c-1.53.35-3.07.61-5 1-.2-1.37-.69-2.47-.42-3.32 2-6.59 5.76-11.95 12.42-14.49a12.06 12.06 0 0 0 6-5c1.54-2.43 3.04-4.91 5.7-6.33zm9.26 26.38a9.69 9.69 0 0 0-1.13.9c-.07.07.13.41.21.63.14-.07.35-.12.4-.23a11.78 11.78 0 0 0 .44-1.39c.07-.12.13-.24.19-.36-.03.15-.03.3-.11.45zm-29.6-1.1a6.2 6.2 0 0 0 .93-1.18.85.85 0 0 0-.29-.82 1 1 0 0 0-.92.17 4 4 0 0 0-.6 1.36c-.01.07.56.28.88.47zm8.62-2.34l-.13-.32-.15.32z" fill="#7d9988"/></g></g></g></svg>