<svg xmlns="http://www.w3.org/2000/svg" viewBox="0 0 48.778 42.938"><defs><style>.cls-2{fill:#6ee5b7}</style></defs><g id="グループ化_156" data-name="グループ化 156" transform="translate(0 .008)" opacity=".802"><g id="グループ化_148" data-name="グループ化 148" transform="translate(21.255 13.852)"><circle id="楕円形_14" data-name="楕円形 14" class="cls-2" cx="2.969" cy="2.969" r="2.969"/></g><g id="グループ化_149" data-name="グループ化 149" transform="translate(22.056 18.47)"><path id="パス_280" data-name="パス 280" class="cls-2" d="M50.994 63.66H46.8l1.32-24.46h1.508z" transform="translate(-46.8 -39.2)"/></g><g id="グループ化_150" data-name="グループ化 150" transform="translate(12.725 10.203)"><path id="パス_281" data-name="パス 281" class="cls-2" d="M30.629 34.4a.909.909 0 0 1-.471-.141A7.08 7.08 0 0 1 27 28.181a7.978 7.978 0 0 1 3.111-6.362.948.948 0 1 1 1.084 1.555 6.084 6.084 0 0 0-2.309 4.807 5.185 5.185 0 0 0 2.214 4.477.935.935 0 0 1 .33 1.272.875.875 0 0 1-.801.47z" transform="translate(-27 -21.657)"/></g><g id="グループ化_151" data-name="グループ化 151" transform="translate(7.211 4.469)"><path id="パス_282" data-name="パス 282" class="cls-2" d="M21.8 33.72a.95.95 0 0 1-.518-.141A14.825 14.825 0 0 1 15.3 21.467a13.81 13.81 0 0 1 6.033-11.83.93.93 0 0 1 .943 1.6 12.008 12.008 0 0 0-5.09 10.227 13.163 13.163 0 0 0 5.137 10.557.977.977 0 0 1 .283 1.32 1.079 1.079 0 0 1-.806.379z" transform="translate(-15.3 -9.492)"/></g><g id="グループ化_152" data-name="グループ化 152" transform="translate(0 -.008)"><path id="パス_283" data-name="パス 283" class="cls-2" d="M8.719 33.175a.95.95 0 0 1-.518-.141A20.464 20.464 0 0 1 0 16.35 19.041 19.041 0 0 1 8.248.137a.9.9 0 0 1 1.272.33.887.887 0 0 1-.33 1.273 17.242 17.242 0 0 0-7.3 14.61 18.95 18.95 0 0 0 7.347 15.081.977.977 0 0 1 .283 1.32.926.926 0 0 1-.801.424z" transform="translate(0 .008)"/></g><g id="グループ化_153" data-name="グループ化 153" transform="translate(31.462 10.203)"><path id="パス_284" data-name="パス 284" class="cls-2" d="M67.72 34.4a.939.939 0 0 1-.471-1.744 5.185 5.185 0 0 0 2.215-4.477 6.084 6.084 0 0 0-2.309-4.807.948.948 0 0 1 1.084-1.555 7.876 7.876 0 0 1 3.111 6.362 6.991 6.991 0 0 1-3.158 6.08 1.054 1.054 0 0 1-.472.141z" transform="translate(-66.757 -21.657)"/></g><g id="グループ化_154" data-name="グループ化 154" transform="translate(34.057 4.454)"><path id="パス_285" data-name="パス 285" class="cls-2" d="M73.223 33.7a.985.985 0 0 1-.8-.424.935.935 0 0 1 .283-1.32A13.049 13.049 0 0 0 77.841 21.4a12.131 12.131 0 0 0-5.09-10.227.93.93 0 1 1 .943-1.6A13.927 13.927 0 0 1 79.727 21.4a14.826 14.826 0 0 1-5.985 12.159.95.95 0 0 1-.519.141z" transform="translate(-72.263 -9.459)"/></g><g id="グループ化_155" data-name="グループ化 155" transform="translate(39.052 -.008)"><path id="パス_286" data-name="パス 286" class="cls-2" d="M83.823 33.175a.986.986 0 0 1-.8-.424.935.935 0 0 1 .283-1.32 18.805 18.805 0 0 0 7.35-15.081 17.242 17.242 0 0 0-7.3-14.61.981.981 0 0 1-.33-1.272.939.939 0 0 1 1.32-.33 19.041 19.041 0 0 1 8.243 16.212 20.565 20.565 0 0 1-8.2 16.684 1.255 1.255 0 0 1-.566.141z" transform="translate(-82.863 .008)"/></g></g></svg>