<svg xmlns="http://www.w3.org/2000/svg" viewBox="0 0 139.3 111.968"><defs><style>.cls-3{fill:#fff}</style></defs><g id="グループ化_389" data-name="グループ化 389" transform="translate(-567 -764)"><g id="グループ化_379" data-name="グループ化 379"><g id="グループ化_380" data-name="グループ化 380"><path id="パス_269" data-name="パス 269" d="M51.7.5C23.4.5.5 14.8.5 32.4c0 12.2 11 22.8 27.1 28.1a11.486 11.486 0 0 1-5.1 7.4c-.2.1-.1.5.1.5a14.957 14.957 0 0 0 9-2 14.252 14.252 0 0 0 4.4-3.7 78.642 78.642 0 0 0 15.6 1.5c28.3 0 51.2-14.3 51.2-31.9C102.9 14.8 80 .5 51.7.5z" transform="translate(603.5 807.5)" fill="#ffd476"/><path id="パス_251" data-name="パス 251" d="M51.7.5C23.4.5.5 14.8.5 32.4c0 12.2 11 22.8 27.1 28.1a11.486 11.486 0 0 1-5.1 7.4c-.2.1-.1.5.1.5a14.957 14.957 0 0 0 9-2 14.252 14.252 0 0 0 4.4-3.7 78.642 78.642 0 0 0 15.6 1.5c28.3 0 51.2-14.3 51.2-31.9C102.9 14.8 80 .5 51.7.5z" transform="translate(566.5 763.5)" fill="#f77"/></g></g><g id="グループ化_356" data-name="グループ化 356" transform="translate(37 45)"><path id="パス_252" data-name="パス 252" class="cls-3" d="M32.6 36.3a.991.991 0 0 1 1.1.8 2.01 2.01 0 0 0 .4.8 3.735 3.735 0 0 0 2.9 1.2c2 0 3.1-.9 3.1-2.3a1.981 1.981 0 0 0-1-1.8 16.045 16.045 0 0 0-3.4-1 6.465 6.465 0 0 1-3-1.2 3.934 3.934 0 0 1-1.5-3.2c0-2.7 2.2-4.5 5.6-4.5a5.906 5.906 0 0 1 4.9 2 8.794 8.794 0 0 1 .6 1 1.123 1.123 0 0 1-.9 1.5l-.6.1a.973.973 0 0 1-1.1-.7 2.092 2.092 0 0 0-.4-.6 3.093 3.093 0 0 0-2.4-.9c-1.7 0-2.9.9-2.9 2.1a1.879 1.879 0 0 0 1.3 1.8 14.86 14.86 0 0 0 2.8.7 8.223 8.223 0 0 1 3.2 1.2 3.878 3.878 0 0 1 1.6 3.4 4.459 4.459 0 0 1-1.2 3.3 6.47 6.47 0 0 1-4.7 1.5 8 8 0 0 1-4.1-1 4.7 4.7 0 0 1-1.7-2.2.6.6 0 0 1-.1-.4 1.091 1.091 0 0 1 .9-1.4z" transform="translate(566.5 763.5)"/><path id="パス_253" data-name="パス 253" class="cls-3" d="M56.1 41.1a1.05 1.05 0 0 1-.9-.5c-.3-.5-.6-.9-1-1.5l-5-7.6a15.7 15.7 0 0 1-1.3-2.3 5.13 5.13 0 0 0 .1 1c0 .4.1 1.3.1 1.7v8.2a1.049 1.049 0 0 1-1.1 1.1h-.5a1.11 1.11 0 0 1-1.1-1.1V26.6a1.049 1.049 0 0 1 1.1-1.1h1.2a.961.961 0 0 1 .9.6 14.676 14.676 0 0 0 .9 1.5l4.9 7.5a20.676 20.676 0 0 1 1.5 2.5 25.283 25.283 0 0 1-.1-2.8v-8.2a1.049 1.049 0 0 1 1.1-1.1h.5a1.11 1.11 0 0 1 1.1 1.1v13.3a1.11 1.11 0 0 1-1.1 1.1h-1.3z" transform="translate(566.5 763.5)"/><path id="パス_254" data-name="パス 254" class="cls-3" d="M62.7 36.3a.991.991 0 0 1 1.1.8 2.01 2.01 0 0 0 .4.8 3.735 3.735 0 0 0 2.9 1.2c2 0 3.1-.9 3.1-2.3a1.981 1.981 0 0 0-1-1.8 16.045 16.045 0 0 0-3.4-1 6.465 6.465 0 0 1-3-1.2 3.934 3.934 0 0 1-1.5-3.2c0-2.7 2.2-4.5 5.6-4.5a5.906 5.906 0 0 1 4.9 2 8.794 8.794 0 0 1 .6 1 1.123 1.123 0 0 1-.9 1.5l-.6.1a.973.973 0 0 1-1.1-.7 2.092 2.092 0 0 0-.4-.6 3.093 3.093 0 0 0-2.4-.9c-1.7 0-2.9.9-2.9 2.1a1.879 1.879 0 0 0 1.3 1.8 14.86 14.86 0 0 0 2.8.7 8.223 8.223 0 0 1 3.2 1.2 3.878 3.878 0 0 1 1.6 3.4 4.459 4.459 0 0 1-1.2 3.3 6.47 6.47 0 0 1-4.7 1.5 8 8 0 0 1-4.1-1 4.7 4.7 0 0 1-1.7-2.2.6.6 0 0 1-.1-.4 1.091 1.091 0 0 1 .9-1.4z" transform="translate(566.5 763.5)"/></g><g id="グループ化_138" data-name="グループ化 138" transform="translate(565.5 764.5)"><path id="パス_270" data-name="パス 270" class="cls-3" d="M28.4 39.8h-1.1a1.11 1.11 0 0 1-1.1-1.1V26.5a1.11 1.11 0 0 1 1.1-1.1h5.3c2.8 0 4.4 1.3 4.4 3.5a3.04 3.04 0 0 1-1 2.5 3.687 3.687 0 0 1-1.4.8 3.292 3.292 0 0 1 2.9 3.6c0 2.5-1.7 3.9-4.7 3.9h-4.4zm4-8.4c1.4 0 2.2-.7 2.2-2a1.578 1.578 0 0 0-.5-1.3 2.352 2.352 0 0 0-1.7-.6h-2.7a1.11 1.11 0 0 0-1.1 1.1v1.7a1.11 1.11 0 0 0 1.1 1.1h2.7zm-3.8 5.3a1.11 1.11 0 0 0 1.1 1.1h2.8c1.6 0 2.5-.8 2.5-2.3a2.111 2.111 0 0 0-.6-1.6 2.986 2.986 0 0 0-2-.6h-2.8a1.11 1.11 0 0 0-1.1 1.1v2.3z"/><path id="パス_271" data-name="パス 271" class="cls-3" d="M49.8 38.8a1.11 1.11 0 0 1-1.1 1.1h-7.8a1.11 1.11 0 0 1-1.1-1.1v-12a1.11 1.11 0 0 1 1.1-1.1h.4a1.11 1.11 0 0 1 1.1 1.1v9.9a1.11 1.11 0 0 0 1.1 1.1h5.4a1.11 1.11 0 0 1 1.1 1.1v-.1z"/><path id="パス_272" data-name="パス 272" class="cls-3" d="M62.2 27a7.817 7.817 0 0 1 2 5.6c0 4.6-2.6 7.5-6.7 7.5s-6.7-2.9-6.7-7.5a7.465 7.465 0 0 1 2.1-5.6 6.177 6.177 0 0 1 4.6-1.8 6.409 6.409 0 0 1 4.7 1.8zm-.5 5.6a5.9 5.9 0 0 0-1.4-4.2 3.928 3.928 0 0 0-2.8-1.1c-2.6 0-4.2 2.1-4.2 5.3a5.525 5.525 0 0 0 1.5 4.2 3.928 3.928 0 0 0 2.8 1.1c2.5.1 4.1-2 4.1-5.3z"/><path id="パス_273" data-name="パス 273" class="cls-3" d="M78.1 36.1v1.7a1.1 1.1 0 0 1-.6 1 9.282 9.282 0 0 1-2.2.9 11.529 11.529 0 0 1-2.6.3 6.086 6.086 0 0 1-5.1-2.1 8.406 8.406 0 0 1-1.7-5.5c0-2.9 1-5.1 2.9-6.3a7 7 0 0 1 4-1.1 6.229 6.229 0 0 1 4.1 1.5 5.5 5.5 0 0 1 .7.9A1.051 1.051 0 0 1 77 29l-.4.1a1.083 1.083 0 0 1-1.2-.5c-.6-1-1.4-1.4-3-1.4a3.534 3.534 0 0 0-2.7 1.1 5.617 5.617 0 0 0-1.3 4.1 6.2 6.2 0 0 0 1.2 4.2 3.561 3.561 0 0 0 3.1 1.2 4.709 4.709 0 0 0 2.4-.5 1.1 1.1 0 0 0 .6-1V34H74a1.11 1.11 0 0 1-1.1-1.1 1.11 1.11 0 0 1 1.1-1.1h2.9a1.11 1.11 0 0 1 1.1 1.1v3.2z"/></g></g></svg>