<svg xmlns="http://www.w3.org/2000/svg" viewBox="0 0 12.528 12.027"><g data-name="グループ化 402"><path data-name="パス 387" d="M7.516 2.003a5.012 5.012 0 0 1 5.012 5.012 5.154 5.154 0 0 1-1.949 3.968 4.781 4.781 0 0 1-3.063 1.044 5.012 5.012 0 1 1 0-10.024z" fill="#f77"/><g data-name="パス 388" fill="none"><path d="M5.263 0A5.263 5.263 0 1 1 0 5.263 5.263 5.263 0 0 1 5.263 0z"/><path d="M5.263 1A4.268 4.268 0 0 0 1 5.263a4.268 4.268 0 0 0 4.263 4.263 4.268 4.268 0 0 0 4.263-4.263A4.268 4.268 0 0 0 5.263 1m0-1a5.263 5.263 0 1 1 0 10.526A5.263 5.263 0 0 1 5.263 0z" fill="#4d4d4d"/></g></g></svg>