<svg xmlns="http://www.w3.org/2000/svg" viewBox="0 0 162.265 157.547"><defs><style>.cls-2{fill:#4d4d4d}</style></defs><g id="グループ化_147" data-name="グループ化 147" transform="rotate(-21 107.657 27.752)" opacity=".802"><g id="グループ化_140" data-name="グループ化 140" transform="translate(5.244 71.936)"><path id="パス_274" data-name="パス 274" class="cls-2" d="M26.758 53.5h-6.05a6.886 6.886 0 0 0-6.857 6.857v3.9L7.127 66A3.272 3.272 0 0 0 3.9 69.232v23.53a3.477 3.477 0 0 0 3.362 3.093l6.723 1.745v4.572a6.886 6.886 0 0 0 6.857 6.857h6.051A10.645 10.645 0 0 0 37.515 98.41V64.257A10.788 10.788 0 0 0 26.758 53.5z" transform="translate(-3.9 -53.5)"/></g><g id="グループ化_141" data-name="グループ化 141" transform="translate(94.389 71.936)"><path id="パス_275" data-name="パス 275" class="cls-2" d="M80.823 109.032h6.051a6.886 6.886 0 0 0 6.857-6.857v-3.9l6.723-1.748a3.272 3.272 0 0 0 3.227-3.227V69.9a3.272 3.272 0 0 0-3.227-3.227l-6.723-1.748v-4.568a6.886 6.886 0 0 0-6.857-6.857h-6.051A10.645 10.645 0 0 0 70.2 64.122v34.153a10.589 10.589 0 0 0 10.623 10.757z" transform="translate(-70.198 -53.5)"/></g><g id="グループ化_143" data-name="グループ化 143" transform="translate(0 7.799)"><path id="パス_277" data-name="パス 277" class="cls-2" d="M97.08 110.276h-2.689v-6.723c16.135 0 24.068-.538 27.833-4.3 3.63-3.63 4.3-11.429 4.3-24.472 0-2.555-.672-62.255-54.188-62.255H61.045c-53.65 0-54.322 59.7-54.322 62.255 0 13.177.672 20.976 4.3 24.472 3.765 3.765 11.564 4.3 27.833 4.3v6.723c-16.27.134-26.623-.269-32.539-6.185C.941 98.712 0 89.972 0 74.778c0-10.757 2.824-27.161 10.488-40.741C20.976 15.616 38.456 5.8 60.911 5.8h11.294c22.455 0 39.935 9.816 50.423 28.237 7.664 13.581 10.488 29.985 10.488 40.742 0 15.328-.941 24.068-6.32 29.312-5.513 5.509-15.059 6.185-29.716 6.185z" transform="translate(0 -5.8)"/></g><g id="グループ化_146" data-name="グループ化 146" transform="translate(42.086)"><g id="グループ化_144" data-name="グループ化 144" transform="translate(2.689 2.689)"><path id="パス_278" data-name="パス 278" class="cls-2" d="M70.277 18.673H39.889a6.6 6.6 0 0 1-6.589-6.588V2h43.431v10.085a6.324 6.324 0 0 1-6.454 6.588z" transform="translate(-33.3 -2)"/></g><g id="グループ化_145" data-name="グループ化 145"><path id="パス_279" data-name="パス 279" d="M70.966 22.052H40.578a9.3 9.3 0 0 1-9.278-9.278V0h48.809v12.774a9.1 9.1 0 0 1-9.143 9.278zM36.678 5.378v7.4a3.9 3.9 0 0 0 3.9 3.9h30.253a3.9 3.9 0 0 0 3.9-3.9v-7.4z" transform="translate(-31.3)" fill="#fff"/></g></g></g></svg>