<svg xmlns="http://www.w3.org/2000/svg" viewBox="0 0 1466.855 769.43"><defs><style>.cls-1{fill:#6ee5b7}.cls-2{fill:#ffd476}.cls-10,.cls-11,.cls-2,.cls-3{opacity:.802}.cls-5{fill:#fff}.cls-6{fill:#4d4d4d}.cls-10,.cls-15,.cls-7{fill:none}.cls-7{stroke:#000;stroke-miterlimit:10}.cls-8{fill:#f77}.cls-9{fill:#77b6ff}.cls-10{stroke:#707070}.cls-11{fill:#bfbfbf}.cls-14{stroke:none}</style><clipPath id="clip-path"><path id="長方形_52" data-name="長方形 52" class="cls-1" d="M0 0h58.723v77.195H0z"/></clipPath></defs><g id="グループ化_391" data-name="グループ化 391" transform="translate(-239.948 -41.6)"><path id="パス_371" data-name="パス 371" class="cls-2" d="M14.18 68.391l2.56 5.121c.32.64.64.96 1.28.96l5.761.96a1.756 1.756 0 0 1 .96 2.88l-4.161 4.161a2.445 2.445 0 0 0-.64 1.6l.96 5.761a1.835 1.835 0 0 1-2.56 1.92l-4.8-3.2h-1.6l-5.121 2.88c-1.28.64-2.56-.32-2.56-1.92l.96-5.761a1.762 1.762 0 0 0-.64-1.6L.418 77.992a1.756 1.756 0 0 1 .96-2.88l5.761-.96c.64 0 .96-.32 1.28-.96l2.56-5.121a1.949 1.949 0 0 1 3.201.32z" transform="rotate(-49 246.596 -493.384)"/><g id="グループ化_390" data-name="グループ化 390"><g id="グループ化_131" data-name="グループ化 131" class="cls-3" transform="rotate(19 -732.42 966.413)"><g id="グループ化_130" data-name="グループ化 130" transform="translate(3.171 14.888)"><g id="グループ化_129" data-name="グループ化 129" clip-path="url(#clip-path)"><g id="グループ化_53" data-name="グループ化 53" transform="translate(70.854 37.357)"><path id="パス_195" data-name="パス 195" class="cls-1" d="M60.73 39.83h4.687V37.9H53.7v1.93h7.03" transform="translate(-53.7 -37.9)"/></g><g id="グループ化_54" data-name="グループ化 54" transform="translate(28.672 24.813)"><path id="パス_196" data-name="パス 196" class="cls-1" d="M38.539 34.176c-.827-.276-6.479-2.619-6.892-3.722a28.849 28.849 0 0 1-3.447 2.481 14.741 14.741 0 0 1-3.722 1.241L23.1 32.384a13.243 13.243 0 0 0 7.444-3.584l2.343.138c.138 0 .414 0 .414.276a.135.135 0 0 1-.138.138 16.136 16.136 0 0 0 6.617 2.895z" transform="translate(-23.1 -28.8)"/></g><g id="グループ化_55" data-name="グループ化 55" transform="translate(9.649 28.397)"><path id="パス_197" data-name="パス 197" class="cls-1" d="M9.3 38.844a35.443 35.443 0 0 0 4.135-7.444l2.206.689a.3.3 0 0 1 .276.276.481.481 0 0 1-.138.276c-.414.138-.414.138-.551.414a38.658 38.658 0 0 1-3.86 6.755z" transform="translate(-9.3 -31.4)"/></g><g id="グループ化_56" data-name="グループ化 56" transform="translate(14.75 25.088)"><path id="パス_198" data-name="パス 198" class="cls-1" d="M15.481 29l2.343.138c.138 0 .414 0 .414.276a.481.481 0 0 1-.138.276l-.276.276v12.82c0 1.378-.551 1.93-3.722 1.93L13 42.509a9.889 9.889 0 0 0 1.792.138.62.62 0 0 0 .689-.689z" transform="translate(-13 -29)"/></g><g id="グループ化_57" data-name="グループ化 57" transform="translate(20.402 28.397)"><path id="パス_199" data-name="パス 199" class="cls-1" d="M21.649 40.084a41.683 41.683 0 0 1-4.549-7.72l2.068-.965a31.012 31.012 0 0 0 4.687 7.306z" transform="translate(-17.1 -31.4)"/></g><g id="グループ化_58" data-name="グループ化 58" transform="translate(28.259 24.813)"><path id="パス_200" data-name="パス 200" class="cls-1" d="M24.454 34.452L22.8 32.384h.276A13.767 13.767 0 0 0 30.52 28.8l2.48.138c.138 0 .551.138.551.414v.138a17.092 17.092 0 0 0 6.479 2.757h.276l-1.516 2.067h-.138c-.827-.276-1.792-.551-3.171-1.1v.827h-7.305v-.827a23.541 23.541 0 0 1-3.722 1.241zm-.827-1.93l1.1 1.378a15.746 15.746 0 0 0 3.584-1.241l.276-.138v.965h6.617v-1.1l.276.138a27.881 27.881 0 0 0 3.308 1.241l1.1-1.378a19.8 19.8 0 0 1-6.479-2.895l-.276-.138.276-.138h-.138l-2.206-.138a15.013 15.013 0 0 1-7.438 3.444z" transform="translate(-22.8 -28.8)"/></g><g id="グループ化_59" data-name="グループ化 59" transform="translate(28.81 30.327)"><path id="パス_201" data-name="パス 201" class="cls-1" d="M38.225 44.1h-2.481v-.41h-6.065v.41H27.2v-3.3a8.772 8.772 0 0 1-1.792 3.033l-.138.138-2.07-1.246.138-.138c1.93-2.068 2.343-3.86 2.343-7.444V32.8h11.855v5.79h-9.649a1.042 1.042 0 0 1-.138.551h10.476zm-2.068-.414h1.654v-4.407H27.335V39c0-.276.138-.689.138-.827v-.138h9.649v-4.959H25.957v2.068c0 3.584-.276 5.376-2.206 7.444l1.378.827a9.028 9.028 0 0 0 2.071-4.136h.414v4.273h1.654v-.414h6.892z" transform="translate(-23.2 -32.8)"/></g><g id="グループ化_60" data-name="グループ化 60" transform="translate(33.084 31.705)"><path id="パス_202" data-name="パス 202" class="cls-1" d="M34.3 34.9h-8v-1.1h8zm-7.582-.414h7.168v-.414h-7.172z" transform="translate(-26.3 -33.8)"/></g><g id="グループ化_61" data-name="グループ化 61" transform="translate(33.084 33.773)"><path id="パス_203" data-name="パス 203" class="cls-1" d="M34.3 36.265h-8V35.3h8zm-7.582-.414h7.168v-.276h-7.172v.276z" transform="translate(-26.3 -35.3)"/></g><g id="グループ化_62" data-name="グループ化 62" transform="translate(34.186 26.329)"><path id="パス_204" data-name="パス 204" class="cls-1" d="M33.441 32.106H27.1l.551-.414a10.161 10.161 0 0 0 2.206-1.654l.138-.138.138.138a15.263 15.263 0 0 0 2.481 1.654zm-4.963-.414h3.446a20.165 20.165 0 0 1-1.792-1.241 6.48 6.48 0 0 1-1.654 1.241z" transform="translate(-27.1 -29.9)"/></g><g id="グループ化_63" data-name="グループ化 63" transform="translate(34.876 38.046)"><path id="パス_205" data-name="パス 205" class="cls-1" d="M34.492 40.054H27.6V38.4h6.892zm-6.479-.414h6.065v-.965h-6.064z" transform="translate(-27.6 -38.4)"/></g><g id="グループ化_64" data-name="グループ化 64" transform="translate(47.833 25.226)"><path id="パス_206" data-name="パス 206" class="cls-1" d="M43.065 41.92c-.551 2.343-1.1 3.033-4.411 2.895l-.689-2.343a5.924 5.924 0 0 0 1.654.276 1.206 1.206 0 0 0 1.241-.827c.276-1.1.414-2.481.551-3.171h-2.205a1.243 1.243 0 0 0-.138.689L37 39.025a23.336 23.336 0 0 0 .827-6.479l1.1.414h2.481v-1.792h-4V29.1h6.065v5.79h-3.86a7.282 7.282 0 0 0-.138 1.792h4.135c-.138 2.343-.276 3.308-.414 4.687" transform="translate(-37 -29.1)"/></g><g id="グループ化_65" data-name="グループ化 65" transform="translate(53.899 24.951)"><path id="パス_207" data-name="パス 207" class="cls-1" d="M41.4 41.444h1.378A125.781 125.781 0 0 0 45.122 28.9l2.068.276c.414 0 .827.138.827.414 0 .138-.138.138-.138.276a.506.506 0 0 1-.414.138c-.138.138-.551 2.343-.689 2.757-.138.551-1.241 5.376-1.93 8.409 1.1-.138 1.654-.138 3.446-.414a27.222 27.222 0 0 0-1.654-4.549l2.206-.551a40.712 40.712 0 0 1 2.481 8.271l-2.206.551c-.138-.551-.138-1.1-.414-2.068-1.516.276-1.93.414-5.652.965-.276 0-.276.138-.414.276s-.138.276-.414.276-.276-.138-.414-.551l-.411-1.518z" transform="translate(-41.4 -28.9)"/></g><g id="グループ化_66" data-name="グループ化 66" transform="translate(66.167 24.813)"><path id="パス_208" data-name="パス 208" class="cls-1" d="M62.155 45.2h-2.481v-1.93h-4.825v-1.788h-1.654v-.827h-.689v1.1H50.3V29.214h5.1v11.992h4.273v-.551h-3.446V33.9h3.446v-.551h-2.894v-1.241h-1.1V28.8h10.749v3.308h-1.24v1.241h-3.033v.551h3.584v6.755h-3.584v.551h4.411v1.93h-4.411zm-2.068-.414h1.654v-1.374h-1.654zm0-1.792h1.654v-.138h4.411V41.62h-4.411v-.138h-1.654v.138H55.4v1.241h4.825V43zm-9.374-1.654h1.378v-1.1h1.516v.827h1.378v-11.44h-4.409v11.717zm9.374-.276h1.654v-.827h3.584v-6.061h-3.584V32.8h3.033v-.965h1.241v-2.484H56.09v2.481h1.1v1.241h2.895v1.378h-3.444v6.065h3.446zm3.722-1.792h-2.068V37.76h2.068zm-1.654-.414H63.4v-.689h-1.245zm-2.068.414h-1.93V37.76h2.068v1.516zm-1.516-.414h1.241v-.689h-1.241zM53.608 39h-1.516v-3.17h1.516zm-1.1-.414h.689v-2.48h-.689zm11.3-1.654h-2.067v-1.515h2.068zm-1.654-.414H63.4v-.688h-1.245zm-2.068.414h-1.93v-1.515h2.068v1.516zm-1.516-.414h1.241v-.688h-1.24zm-4.963-2.206h-1.515v-3.169h1.516zm-1.1-.414h.689v-2.341h-.689zm11.855-1.93h-2.621v-1.652h2.619zm-2.206-.414h1.792v-.824h-1.793zm-2.068.414h-2.482v-1.652h2.481zm-1.93-.414h1.654v-.824h-1.655z" transform="translate(-50.3 -28.8)"/></g><g id="グループ化_67" data-name="グループ化 67" transform="translate(87.809 32.808)"><path id="パス_209" data-name="パス 209" class="cls-1" d="M72.341 39.425a5.269 5.269 0 0 1-1.93 1.516l-.689-.827a2.749 2.749 0 0 0 1.516-.965 2.331 2.331 0 0 0 .551-1.654 2.566 2.566 0 0 0-.551-1.516 1.782 1.782 0 0 0-1.378-.551 10.835 10.835 0 0 1-1.1 3.722c-.276.551-.689 1.241-1.1 1.241A2.483 2.483 0 0 1 66 38.184a3.592 3.592 0 0 1 3.722-3.584 3.007 3.007 0 0 1 3.171 3.033 3.909 3.909 0 0 1-.552 1.792zm-4.549-3.308a2.978 2.978 0 0 0-.827 1.93 1.141 1.141 0 0 0 .551 1.1c.414 0 1.1-2.206 1.378-3.584a1.648 1.648 0 0 0-1.102.553z" transform="translate(-66 -34.6)"/></g><g id="グループ化_75" data-name="グループ化 75" transform="translate(23.986 47.42)"><g id="グループ化_68" data-name="グループ化 68"><path id="パス_210" data-name="パス 210" class="cls-1" d="M23.284 51.4c-.138 0-.138 0-.276.138a16.431 16.431 0 0 1-2.068 2.481L19.7 53.2a8.084 8.084 0 0 0 2.481-2.757l.965.689s.276.138.276.276c0-.143-.138-.143-.138-.008zm2.343-2.068v4.687c0 1.1-.276 1.378-2.343 1.378l-.414-1.378c.276 0 .551.138.965.138s.414-.138.414-.414v-4.27h-3.584v-1.24h3.584v-2.206l1.378.138c.138 0 .276 0 .276.138a.135.135 0 0 1-.138.138l-.138.138v1.516h3.584v1.241zm2.895 4.273a11.671 11.671 0 0 0-1.93-2.619l.965-.827a9.694 9.694 0 0 1 2.068 2.481zm.827-6.2a1.1 1.1 0 0 1 0-2.206 1.1 1.1 0 1 1 0 2.206zm0-1.792a.689.689 0 1 0 .689.689.738.738 0 0 0-.689-.688z" transform="translate(-19.7 -45.2)"/></g><g id="グループ化_69" data-name="グループ化 69" transform="translate(13.096 4.687)"><path id="パス_211" data-name="パス 211" class="cls-1" d="M29.2 50.116V48.6h8.822v1.516z" transform="translate(-29.2 -48.6)"/></g><g id="グループ化_70" data-name="グループ化 70" transform="translate(28.259 .551)"><path id="パス_212" data-name="パス 212" class="cls-1" d="M45.3 52.492a18.192 18.192 0 0 0-3.584-2.481v5.376H40.2V45.6l1.516.276s.276 0 .276.138-.276.276-.276.276v3.17l.551-.965a7.677 7.677 0 0 1 2.068 1.1c.965.689 1.378 1.1 1.93 1.516z" transform="translate(-40.2 -45.6)"/></g><g id="グループ化_71" data-name="グループ化 71" transform="translate(37.908 1.241)"><path id="パス_213" data-name="パス 213" class="cls-1" d="M55.333 47.754a13.608 13.608 0 0 1-2.481 4.546 12.126 12.126 0 0 1-3.308 2.757l-1.378-1.1a10.492 10.492 0 0 0 5.652-6.341H47.2v-1.378h6.892c.138 0 .276-.138.414-.138l1.241 1.1a1.9 1.9 0 0 0-.414.554z" transform="translate(-47.2 -46.1)"/></g><g id="グループ化_72" data-name="グループ化 72" transform="translate(50.866 2.619)"><path id="パス_214" data-name="パス 214" class="cls-1" d="M61.7 49.995l.138 4.135c0 .965-1.1 1.1-1.516 1.1h-.551l-.414-1.241h.689c.276 0 .689 0 .689-.276V51.1a14.479 14.479 0 0 1-3.308 2.895l-.827-.827a5.766 5.766 0 0 0 2.068-1.378 11.365 11.365 0 0 0 1.516-1.654h-3.17v-1.1h3.722V47.1l1.1.138c.138 0 .276 0 .276.138a.481.481 0 0 1-.138.276v1.378h1.93v1.1H61.7z" transform="translate(-56.6 -47.1)"/></g><g id="グループ化_73" data-name="グループ化 73" transform="translate(63.41 .414)"><path id="パス_215" data-name="パス 215" class="cls-1" d="M67.354 46.051l-.138.138v5.238H65.7v-5.79l1.516.138c.138 0 .276 0 .276.138zm5.1 0c-.138.138-.138.138-.138.551v.827a13.281 13.281 0 0 1-.414 4.549 6.354 6.354 0 0 1-3.583 3.722l-1.1-1.241C69.7 53.5 70.8 52.255 70.8 48.533a28.041 28.041 0 0 0-.138-3.033l1.516.138s.276 0 .276.138c.138 0 .138.138.001.275z" transform="translate(-65.7 -45.5)"/></g><g id="グループ化_74" data-name="グループ化 74" transform="translate(74.576 .138)"><path id="パス_216" data-name="パス 216" class="cls-1" d="M80.141 49.16l.138 4.687c0 1.516-.827 1.654-2.481 1.654l-.551-1.516a7.773 7.773 0 0 0 .965.138c.551 0 .689-.138.689-.414V50.4a12.486 12.486 0 0 1-4 3.584l-1.1-1.1a10.645 10.645 0 0 0 4.273-3.86h-4v-1.381h4.687V45.3l1.378.138c.138 0 .276 0 .276.138a.135.135 0 0 1-.138.138l-.138.138v1.792h2.481v1.378h-2.479z" transform="translate(-73.8 -45.3)"/></g></g><g id="グループ化_88" data-name="グループ化 88" transform="translate(102.559 23.159)"><g id="グループ化_77" data-name="グループ化 77" transform="translate(1.551 11.166)"><g id="グループ化_76" data-name="グループ化 76"><path id="パス_217" data-name="パス 217" class="cls-1" d="M78.755 43.144a.506.506 0 0 1-.414-.138c-.276-.138-.414-.276-.414-.551a.626.626 0 0 1 0-.689L81.1 35.7l1.654.689-3.171 6.065c-.138.138-.276.414-.551.414-.001.276-.139.276-.277.276zm-.138-.551h.276a.135.135 0 0 0 .138-.138l2.895-5.655-.551-.276-2.895 5.655v.276l.138.138z" transform="translate(-77.825 -35.7)"/></g></g><g id="グループ化_79" data-name="グループ化 79" transform="translate(9.046 11.338)"><g id="グループ化_78" data-name="グループ化 78"><path id="パス_218" data-name="パス 218" class="cls-1" d="M86.9 42.821a.982.982 0 0 1-.827-.414l-2.757-5.376a.868.868 0 0 1 .414-1.1.626.626 0 0 1 .689 0 1.9 1.9 0 0 1 .551.414l2.757 5.238a.626.626 0 0 1 0 .689 1.9 1.9 0 0 1-.414.551zm-2.757-6.479H84c-.138.138-.276.276-.138.414l2.757 5.376c.138.138.276.276.414.138a.135.135 0 0 0 .138-.138v-.276l-2.757-5.238c0-.138 0-.276-.276-.276z" transform="translate(-83.262 -35.825)"/></g></g><g id="グループ化_81" data-name="グループ化 81" transform="translate(6.479)"><g id="グループ化_80" data-name="グループ化 80"><path id="パス_219" data-name="パス 219" class="cls-1" d="M82.778 30.771h-.965a.3.3 0 0 1-.276-.276l-.137-2.068a.829.829 0 0 1 .138-.551c.138-.138.276-.276.414-.276h.414c.138 0 .414.138.414.276.138.138.138.276.138.551l-.138 2.068c.274.276.136.276-.002.276zm-.689-.551h.551l.138-1.792v-.138h-.689v1.93z" transform="translate(-81.4 -27.6)"/></g></g><g id="グループ化_84" data-name="グループ化 84" transform="translate(4.687 2.068)"><g id="グループ化_82" data-name="グループ化 82" transform="translate(.276 .276)"><path id="パス_220" data-name="パス 220" class="cls-1" d="M84.987 30.954h-4.273a.366.366 0 0 1-.414-.414v-.827a.366.366 0 0 1 .414-.414h4.411a.366.366 0 0 1 .414.414v.827a.739.739 0 0 1-.552.414z" transform="translate(-80.3 -29.3)"/></g><g id="グループ化_83" data-name="グループ化 83"><path id="パス_221" data-name="パス 221" class="cls-1" d="M85.063 31.306h-4.274a.651.651 0 0 1-.689-.689v-.827a.651.651 0 0 1 .689-.689H85.2a.651.651 0 0 1 .689.689v.827a1.018 1.018 0 0 1-.826.689zm-2.206-1.654h-2.206a.135.135 0 0 0-.138.138v.827a.135.135 0 0 0 .138.138h4.273a.135.135 0 0 0 .138-.138v-.827c0-.138 0-.138-.138-.138z" transform="translate(-80.1 -29.1)"/></g></g><g id="グループ化_87" data-name="グループ化 87" transform="translate(0 2.7)"><g id="グループ化_85" data-name="グループ化 85" transform="translate(.238 .295)"><path id="パス_222" data-name="パス 222" class="cls-1" d="M91.66 40.425a63.531 63.531 0 0 0-14.474 0c-.138 0-.414-.138-.276-.276.689-1.93.689-8.133 0-10.063 0-.138.138-.414.276-.276a63.531 63.531 0 0 0 14.474 0c.138 0 .414.138.276.276-.689 1.93-.689 8.133 0 10.063.138.138-.136.413-.276.276z" transform="translate(-76.873 -29.773)"/></g><g id="グループ化_86" data-name="グループ化 86"><path id="パス_223" data-name="パス 223" class="cls-1" d="M77.251 40.781a.506.506 0 0 1-.414-.138c-.138-.138-.138-.276-.138-.551.689-1.93.689-8 0-9.787a.829.829 0 0 1 .138-.551c.138-.138.276-.276.551-.138a62.33 62.33 0 0 0 14.336 0 .829.829 0 0 1 .551.138v.546c-.689 1.93-.689 8 0 9.787a.829.829 0 0 1-.138.551c-.138.138-.276.276-.551.138a62.328 62.328 0 0 0-14.336 0zm0-10.614a25.42 25.42 0 0 1 0 10.2 63.532 63.532 0 0 1 14.474 0 25.42 25.42 0 0 1 0-10.2 63.531 63.531 0 0 1-14.474 0z" transform="translate(-76.7 -29.559)"/></g></g></g><g id="グループ化_91" data-name="グループ化 91" transform="translate(99.389 22.469)"><g id="グループ化_89" data-name="グループ化 89" transform="translate(.172 .185)"><path id="パス_224" data-name="パス 224" class="cls-1" d="M74.628 27.876l.276-.414a.48.48 0 0 1 .689-.138l5.1 3.308-1.516 1.93-4.549-4a.626.626 0 0 1 0-.686z" transform="translate(-74.525 -27.234)"/></g><g id="グループ化_90" data-name="グループ化 90"><path id="パス_225" data-name="パス 225" class="cls-1" d="M79.225 32.89l-4.549-4.135c-.138-.138-.276-.276-.276-.414a.829.829 0 0 1 .138-.551l.276-.414c.138-.138.276-.276.414-.276a.829.829 0 0 1 .551.138l5.1 3.308zm-4.411-4.963c0 .138-.138.138-.138.276s.138.138.138.276l4.411 3.86 1.375-1.793-4.963-3.171a.341.341 0 0 0-.551.138z" transform="translate(-74.4 -27.1)"/></g></g><g id="グループ化_94" data-name="グループ化 94" transform="translate(104.489 26.053)"><g id="グループ化_92" data-name="グループ化 92" transform="translate(.214 .352)"><path id="パス_226" data-name="パス 226" class="cls-1" d="M79.833 32.774l1.241-1.516-1.241-1.241a.191.191 0 0 0-.276 0l-1.241 1.654a.191.191 0 0 0 0 .276l1.516.827z" transform="translate(-78.256 -29.956)"/></g><g id="グループ化_93" data-name="グループ化 93"><path id="パス_227" data-name="パス 227" class="cls-1" d="M79.892 33.008l-1.654-.965c-.138-.138-.138-.276-.138-.551l1.241-1.654c0-.138.138-.138.276-.138h.276l1.378 1.378-.138.138zm-.276-2.895l-1.378 1.654v.138l1.378.827 1.1-1.378-1.1-1.241z" transform="translate(-78.1 -29.7)"/></g></g><g id="グループ化_96" data-name="グループ化 96" transform="translate(106.557 27.722)"><g id="グループ化_95" data-name="グループ化 95"><path id="パス_228" data-name="パス 228" class="cls-1" d="M83.6 36.134l-.138-.551a.941.941 0 0 0-.551-.551 5.971 5.971 0 0 0-.689-.138 4.025 4.025 0 0 1-1.93-.689 2.141 2.141 0 0 1-.689-1.792l1.1-1.378h.138a1.8 1.8 0 0 1 1.792.276c1.654 1.241 1.241 4.273 1.241 4.411zm-3.86-3.722a1.76 1.76 0 0 0 .551 1.516 6.825 6.825 0 0 0 1.792.551c.276 0 .551.138.827.138a1.9 1.9 0 0 1 .551.414c0-.827 0-2.895-1.1-3.722a1.54 1.54 0 0 0-1.516-.138z" transform="translate(-79.6 -30.911)"/></g></g><g id="グループ化_98" data-name="グループ化 98" transform="translate(107.246 28.259)"><g id="グループ化_97" data-name="グループ化 97"><path id="パス_229" data-name="パス 229" class="cls-1" d="M80.651 34.195h.414a1.143 1.143 0 0 0 1.1-.414 1.34 1.34 0 0 0 .138-1.241.867.867 0 0 1 0-.827c.138-.138.138-.138.276-.138l-.276-.276h-.138c-.138 0-.138.138-.276.276a1.34 1.34 0 0 0-.138 1.241.867.867 0 0 1 0 .827c-.138.276-.414.276-.827.276a1.748 1.748 0 0 0-.827.138h.138c.141 0 .279.138.416.138z" transform="translate(-80.1 -31.3)"/></g></g><g id="グループ化_100" data-name="グループ化 100" transform="translate(109.949 32.946)"><g id="グループ化_99" data-name="グループ化 99"><path id="パス_230" data-name="パス 230" class="cls-1" d="M82.115 35.665a.616.616 0 1 0 1.1.551c.414-.827-.551-1.516-.551-1.516a1.845 1.845 0 0 1-.138.689c-.273.138-.411.138-.411.276z" transform="translate(-82.061 -34.7)"/></g></g><g id="グループ化_102" data-name="グループ化 102" transform="translate(109.038 33.635)"><g id="グループ化_101" data-name="グループ化 101"><path id="パス_231" data-name="パス 231" class="cls-1" d="M81.538 35.476a.308.308 0 0 0 .276.551.806.806 0 0 0 .276-.827.481.481 0 0 1-.276.138.427.427 0 0 1-.276.138z" transform="translate(-81.4 -35.2)"/></g></g><g id="グループ化_103" data-name="グループ化 103" transform="translate(87.947 39.563)"><path id="パス_232" data-name="パス 232" class="cls-1" d="M67.478 40.327h-.965a.44.44 0 0 1-.414-.414.44.44 0 0 1 .414-.414h.965a.44.44 0 0 1 .414.414.366.366 0 0 1-.414.414z" transform="translate(-66.1 -39.5)"/></g><g id="グループ化_104" data-name="グループ化 104" transform="translate(89.464 38.46)"><path id="長方形_48" data-name="長方形 48" class="cls-1" d="M0 0h.276v1.378H0z"/></g><g id="グループ化_105" data-name="グループ化 105" transform="translate(92.221 39.563)"><path id="パス_233" data-name="パス 233" class="cls-1" d="M69.614 40.327h.965a.44.44 0 0 0 .414-.414.44.44 0 0 0-.414-.414h-.965a.44.44 0 0 0-.414.414.366.366 0 0 0 .414.414z" transform="translate(-69.2 -39.5)"/></g><g id="グループ化_106" data-name="グループ化 106" transform="translate(92.177 38.461)"><path id="長方形_49" data-name="長方形 49" class="cls-1" transform="rotate(180 .138 .689)" d="M0 0h.276v1.378H0z"/></g><g id="グループ化_110" data-name="グループ化 110" transform="translate(7.995 50.59)"><g id="グループ化_107" data-name="グループ化 107" transform="translate(0 .276)"><path id="パス_234" data-name="パス 234" class="cls-1" d="M11.822 51.146v1.1L8.1 50.181v-.414l3.722-2.067v1.1l-2.344 1.243z" transform="translate(-8.1 -47.7)"/></g><g id="グループ化_108" data-name="グループ化 108" transform="translate(4.411 .138)"><path id="パス_235" data-name="パス 235" class="cls-1" d="M12.4 48.014v.276a1.617 1.617 0 0 1 1.516-.689 2.073 2.073 0 0 1 1.516.551 2.339 2.339 0 0 1 .551 1.792 1.994 1.994 0 0 1-2.068 2.206 1.779 1.779 0 0 1-1.515-.69v2.068h-1.1v-5.79h.965v.276zm1.378.414a1.482 1.482 0 0 0-1.378 1.378 1.417 1.417 0 0 0 1.378 1.516c.689 0 1.241-.551 1.241-1.516.003-.828-.411-1.379-1.238-1.379z" transform="translate(-11.3 -47.6)"/></g><g id="グループ化_109" data-name="グループ化 109" transform="translate(9.649)"><path id="パス_236" data-name="パス 236" class="cls-1" d="M15.1 48.6v-1.1l3.722 2.068v.414L15.1 52.049v-1.1l2.343-1.241z" transform="translate(-15.1 -47.5)"/></g></g><g id="グループ化_115" data-name="グループ化 115" transform="translate(111.106 49.074)"><g id="グループ化_111" data-name="グループ化 111" transform="translate(0 1.792)"><path id="パス_237" data-name="パス 237" class="cls-1" d="M86.622 51.146v1.1L82.9 50.181v-.414l3.722-2.067v1.1l-2.343 1.241z" transform="translate(-82.9 -47.7)"/></g><g id="グループ化_112" data-name="グループ化 112" transform="translate(4.135)"><path id="パス_238" data-name="パス 238" class="cls-1" d="M89.622 46.4l-2.757 7.168H85.9l2.757-7.168z" transform="translate(-85.9 -46.4)"/></g><g id="グループ化_113" data-name="グループ化 113" transform="translate(8.409 1.654)"><path id="パス_239" data-name="パス 239" class="cls-1" d="M90.1 48.014v.276a1.616 1.616 0 0 1 1.516-.689 2.073 2.073 0 0 1 1.516.551 2.339 2.339 0 0 1 .551 1.792 1.994 1.994 0 0 1-2.068 2.206 1.779 1.779 0 0 1-1.515-.69v2.068H89v-5.79h.965v.276zm1.378.414a1.482 1.482 0 0 0-1.378 1.378 1.417 1.417 0 0 0 1.378 1.516c.689 0 1.241-.551 1.241-1.516a1.273 1.273 0 0 0-1.238-1.379z" transform="translate(-89 -47.6)"/></g><g id="グループ化_114" data-name="グループ化 114" transform="translate(13.647 1.516)"><path id="パス_240" data-name="パス 240" class="cls-1" d="M92.8 48.6v-1.1l3.722 2.068v.414L92.8 52.049v-1.1l2.343-1.241z" transform="translate(-92.8 -47.5)"/></g></g><g id="グループ化_122" data-name="グループ化 122" transform="translate(32.808 16.68)"><g id="グループ化_116" data-name="グループ化 116" transform="translate(0 .138)"><path id="パス_241" data-name="パス 241" class="cls-1" d="M26.1 25.619c.689-.414.827-.551 1.1-.689v-.551h-.689v-.551h.689V23h.551l-.138.138v.551c.276 0 .414-.138.689-.276v.551a1.243 1.243 0 0 1-.689.138v.414a5.97 5.97 0 0 1 .689-.138.983.983 0 0 1 1.1.965c0 .551-.276.965-.827.965a.5.5 0 0 1-.551-.551l.414-.138a.3.3 0 0 0 .276.276c.138 0 .276-.138.276-.414a.5.5 0 0 0-.551-.551 5.971 5.971 0 0 0-.689.138v1.241l-.414.138-.689-.689-.138.138zm1.1-.138c-.138.138-.276.138-.414.276l.414.414zm2.206-.827a8.164 8.164 0 0 0-.827-.551l.276-.414a1.266 1.266 0 0 1 .827.551z" transform="translate(-26.1 -23)"/></g><g id="グループ化_117" data-name="グループ化 117" transform="translate(6.065)"><path id="パス_242" data-name="パス 242" class="cls-1" d="M32.706 23.451c-.414.276-.414.414-1.378 1.241l-.138.138v.138l1.378 1.378-.414.414a7.285 7.285 0 0 0-1.241-1.516.739.739 0 0 1-.414-.551c0-.276.138-.276.414-.551l1.241-1.242.414.276a.427.427 0 0 1 .138.276zm.414 1.1l-.414-.414.138-.276.414.414zm.275-.551l-.414-.414.138-.276.414.414z" transform="translate(-30.5 -22.9)"/></g><g id="グループ化_118" data-name="グループ化 118" transform="translate(11.441 .276)"><path id="パス_243" data-name="パス 243" class="cls-1" d="M35.227 26.684l-.276-.551h.549c.827 0 1.1-.414 1.1-.827 0-.276-.276-.414-.551-.414a1.864 1.864 0 0 0-1.241.689l-.414-.138c0-.551.276-1.378.276-1.654l.551.138c-.138.276-.138.689-.276.965a1.39 1.39 0 0 1 1.1-.414.936.936 0 0 1 .965.965c.285 1.241-1.232 1.241-1.783 1.241zm.965-2.757a3.294 3.294 0 0 0-.965-.414l.138-.414c.276.138.689.276.965.414z" transform="translate(-34.4 -23.1)"/></g><g id="グループ化_119" data-name="グループ化 119" transform="translate(19.299 .414)"><path id="パス_244" data-name="パス 244" class="cls-1" d="M41.754 23.614a2.956 2.956 0 0 0-.551 1.654c0 .138 0 .827.689.827s.827-.689.827-1.1a2.854 2.854 0 0 0-.414-1.516l.414-.276a2.848 2.848 0 0 0 1.241 1.516l-.276.414c-.276-.276-.414-.551-.689-.827v.689c0 1.241-.689 1.654-1.241 1.654a1.127 1.127 0 0 1-1.1-1.241 4.078 4.078 0 0 1 .276-1.378c-.276.138-.414.138-.551.276l-.276-.414a4.128 4.128 0 0 0 1.1-.551z" transform="translate(-40.1 -23.2)"/></g><g id="グループ化_120" data-name="グループ化 120" transform="translate(25.226 .276)"><path id="パス_245" data-name="パス 245" class="cls-1" d="M45.641 26.684l-.276-.414a4.252 4.252 0 0 0 1.241-.138c.138 0 .414-.276.414-.689s-.276-.551-.689-.551a1.87 1.87 0 0 0-1.516.965l-.414-.414 1.654-1.654c-.276 0-.551.138-.965.138l-.138-.551h.414a1.748 1.748 0 0 0 .827-.138c.276 0 .276-.138.551-.138l.276.414a9 9 0 0 0-.965 1.1c.138 0 .276-.138.551-.138a.942.942 0 0 1 .965.965c-.138 1.105-1.379 1.243-1.93 1.243z" transform="translate(-44.4 -23.1)"/></g><g id="グループ化_121" data-name="グループ化 121" transform="translate(31.016 .138)"><path id="パス_246" data-name="パス 246" class="cls-1" d="M50.668 24.654a2.609 2.609 0 0 0 .551.827l-.276.276a2.135 2.135 0 0 0-1.1-.276c-.276 0-.551.138-.551.414 0 .414.551.414.689.414.414 0 .689 0 .827-.138v.551h-.689q-1.241 0-1.241-.827c0-.551.414-.689.965-.689h.551c-.138-.138-.138-.276-.276-.414a4.25 4.25 0 0 1-1.378.138l-.138-.414a4.69 4.69 0 0 0 1.378-.138c0-.138-.138-.276-.138-.414a2.691 2.691 0 0 1-.965.138l-.138-.414a2.044 2.044 0 0 0 .965-.138c-.138-.276-.138-.414-.276-.551h.689a1.389 1.389 0 0 1 .138.414c.276-.138.414-.138.689-.276l.138.414c-.276.138-.414.276-.689.276 0 .138.138.138.138.276l.827-.414.138.414a2.1 2.1 0 0 1-.828.551z" transform="translate(-48.6 -23)"/></g></g><g id="グループ化_123" data-name="グループ化 123" transform="translate(1.597 43.009)"><path id="パス_247" data-name="パス 247" class="cls-1" d="M5.17 42.276l.276.689.138.138.689.138a.264.264 0 0 1 .138.414l-.551.551s-.138.138 0 .138l.14.689a.3.3 0 0 1-.276.276l-.689-.551h-.141l-.689.276c-.138.138-.276 0-.276-.276l.138-.689v-.139l-.551-.551c-.138-.138 0-.276.138-.414l.689-.138a.135.135 0 0 0 .138-.138L4.756 42c.138.138.414.138.414.276z" transform="translate(-3.459 -42)"/></g><g id="グループ化_128" data-name="グループ化 128" transform="translate(6.065 44.525)"><g id="グループ化_124" data-name="グループ化 124" transform="translate(126.407 .138)"><path id="長方形_50" data-name="長方形 50" class="cls-1" d="M0 0h1.378v.551H0z"/></g><g id="グループ化_125" data-name="グループ化 125" transform="translate(3.722 .276)"><path id="パス_248" data-name="パス 248" class="cls-1" d="M129.742 43.714H127.4V43.3h2.343zm-4.687 0h-2.343V43.3h2.343zm-4.687 0h-2.343V43.3h2.343zm-4.825 0H113.2V43.3h2.343zm-4.687 0h-2.343V43.3h2.343zm-4.687 0h-2.343V43.3h2.343zm-4.687 0h-2.343V43.3h2.343zm-4.825 0h-2.342V43.3h2.343zm-4.687 0h-2.342V43.3h2.343zm-4.687 0h-2.342V43.3h2.343zm-4.687 0h-2.342V43.3H82.6zm-4.825 0h-2.342V43.3h2.343zm-4.687 0h-2.341V43.3h2.343zm-4.687 0h-2.341V43.3H68.4zm-4.687 0h-2.479V43.3h2.343v.414zm-4.825 0h-2.341V43.3h2.343zm-4.687 0h-2.341V43.3H54.2zm-4.687 0H47.17V43.3h2.343zm-4.687 0h-2.34V43.3h2.343zm-4.825 0h-2.34V43.3H40zm-4.687 0h-2.34V43.3h2.343zm-4.687 0h-2.34V43.3h2.343zm-4.687 0H23.6V43.3h2.343zm-4.825 0h-2.339V43.3h2.343zm-4.687 0h-2.339V43.3h2.343zm-4.687 0H9.4V43.3h2.343z" transform="translate(-9.4 -43.3)"/></g><g id="グループ化_126" data-name="グループ化 126" transform="translate(0 .138)"><path id="長方形_51" data-name="長方形 51" class="cls-1" d="M0 0h1.378v.551H0z"/></g><g id="グループ化_127" data-name="グループ化 127" transform="translate(3.722)"><path id="パス_249" data-name="パス 249" class="cls-1" d="M129.742 43.514H127.4V43.1h2.343zm-4.687 0h-2.343V43.1h2.343zm-4.687 0h-2.343V43.1h2.343zm-4.825 0H113.2V43.1h2.343zm-4.687 0h-2.343V43.1h2.343zm-4.687 0h-2.343V43.1h2.343zm-4.687 0h-2.343V43.1h2.343zm-4.825 0h-2.342V43.1h2.343zm-4.687 0h-2.342V43.1h2.343zm-4.687 0h-2.342V43.1h2.343zm-4.687 0h-2.342V43.1H82.6zm-4.825 0h-2.342V43.1h2.343zm-4.687 0h-2.341V43.1h2.343zm-4.687 0h-2.341V43.1H68.4zm-4.687 0h-2.479V43.1h2.343v.414zm-4.825 0h-2.341V43.1h2.343zm-4.687 0h-2.341V43.1H54.2zm-4.687 0H47.17V43.1h2.343zm-4.687 0h-2.34V43.1h2.343zm-4.825 0h-2.34V43.1H40zm-4.687 0h-2.34V43.1h2.343zm-4.687 0h-2.34V43.1h2.343zm-4.687 0H23.6V43.1h2.343zm-4.825 0h-2.339V43.1h2.343zm-4.687 0h-2.339V43.1h2.343zm-4.687 0H9.4V43.1h2.343z" transform="translate(-9.4 -43.1)"/></g></g></g></g><path id="パス_250" data-name="パス 250" class="cls-1" d="M59 0H6.617A6.709 6.709 0 0 0 0 6.617v93.6a6.618 6.618 0 0 0 6.617 6.617H59a6.618 6.618 0 0 0 6.617-6.617v-93.6A6.531 6.531 0 0 0 59 0zm.414 89.739H6.341V14.888h53.072z"/><circle id="楕円形_13" data-name="楕円形 13" class="cls-5" cx="3.033" cy="3.033" r="3.033" transform="translate(29.775 95.391)"/></g><g id="グループ化_147" data-name="グループ化 147" class="cls-3" transform="rotate(-21 1484.74 -4026.946)"><g id="グループ化_140" data-name="グループ化 140" transform="translate(5.244 71.936)"><path id="パス_274" data-name="パス 274" class="cls-6" d="M26.758 53.5h-6.05a6.886 6.886 0 0 0-6.857 6.857v3.9L7.127 66A3.272 3.272 0 0 0 3.9 69.232v23.53a3.477 3.477 0 0 0 3.362 3.093l6.723 1.745v4.572a6.886 6.886 0 0 0 6.857 6.857h6.051A10.645 10.645 0 0 0 37.515 98.41V64.257A10.788 10.788 0 0 0 26.758 53.5z" transform="translate(-3.9 -53.5)"/></g><g id="グループ化_141" data-name="グループ化 141" transform="translate(94.389 71.936)"><path id="パス_275" data-name="パス 275" class="cls-6" d="M80.823 109.032h6.051a6.886 6.886 0 0 0 6.857-6.857v-3.9l6.723-1.748a3.272 3.272 0 0 0 3.227-3.227V69.9a3.272 3.272 0 0 0-3.227-3.227l-6.723-1.748v-4.568a6.886 6.886 0 0 0-6.857-6.857h-6.051A10.645 10.645 0 0 0 70.2 64.122v34.153a10.589 10.589 0 0 0 10.623 10.757z" transform="translate(-70.198 -53.5)"/></g><g id="グループ化_143" data-name="グループ化 143" transform="translate(0 7.799)"><path id="パス_277" data-name="パス 277" class="cls-6" d="M97.08 110.276h-2.689v-6.723c16.135 0 24.068-.538 27.833-4.3 3.63-3.63 4.3-11.429 4.3-24.472 0-2.555-.672-62.255-54.188-62.255H61.045c-53.65 0-54.322 59.7-54.322 62.255 0 13.177.672 20.976 4.3 24.472 3.765 3.765 11.564 4.3 27.833 4.3v6.723c-16.27.134-26.623-.269-32.539-6.185C.941 98.712 0 89.972 0 74.778c0-10.757 2.824-27.161 10.488-40.741C20.976 15.616 38.456 5.8 60.911 5.8h11.294c22.455 0 39.935 9.816 50.423 28.237 7.664 13.581 10.488 29.985 10.488 40.742 0 15.328-.941 24.068-6.32 29.312-5.513 5.509-15.059 6.185-29.716 6.185z" transform="translate(0 -5.8)"/></g><g id="グループ化_146" data-name="グループ化 146" transform="translate(42.086)"><g id="グループ化_144" data-name="グループ化 144" transform="translate(2.689 2.689)"><path id="パス_278" data-name="パス 278" class="cls-6" d="M70.277 18.673H39.889a6.6 6.6 0 0 1-6.589-6.588V2h43.431v10.085a6.324 6.324 0 0 1-6.454 6.588z" transform="translate(-33.3 -2)"/></g><g id="グループ化_145" data-name="グループ化 145"><path id="パス_279" data-name="パス 279" class="cls-5" d="M70.966 22.052H40.578a9.3 9.3 0 0 1-9.278-9.278V0h48.809v12.774a9.1 9.1 0 0 1-9.143 9.278zM36.678 5.378v7.4a3.9 3.9 0 0 0 3.9 3.9h30.253a3.9 3.9 0 0 0 3.9-3.9v-7.4z" transform="translate(-31.3)"/></g></g></g><g id="グループ化_156" data-name="グループ化 156" class="cls-3" transform="translate(1492.965 309.201)"><g id="グループ化_148" data-name="グループ化 148" transform="translate(21.255 13.852)"><circle id="楕円形_14" data-name="楕円形 14" class="cls-1" cx="2.969" cy="2.969" r="2.969"/></g><g id="グループ化_149" data-name="グループ化 149" transform="translate(22.056 18.47)"><path id="パス_280" data-name="パス 280" class="cls-1" d="M50.994 63.66H46.8l1.32-24.46h1.508z" transform="translate(-46.8 -39.2)"/></g><g id="グループ化_150" data-name="グループ化 150" transform="translate(12.725 10.203)"><path id="パス_281" data-name="パス 281" class="cls-1" d="M30.629 34.4a.909.909 0 0 1-.471-.141A7.08 7.08 0 0 1 27 28.181a7.978 7.978 0 0 1 3.111-6.362.948.948 0 1 1 1.084 1.555 6.084 6.084 0 0 0-2.309 4.807 5.185 5.185 0 0 0 2.214 4.477.935.935 0 0 1 .33 1.272.875.875 0 0 1-.801.47z" transform="translate(-27 -21.657)"/></g><g id="グループ化_151" data-name="グループ化 151" transform="translate(7.211 4.469)"><path id="パス_282" data-name="パス 282" class="cls-1" d="M21.8 33.72a.95.95 0 0 1-.518-.141A14.825 14.825 0 0 1 15.3 21.467a13.81 13.81 0 0 1 6.033-11.83.93.93 0 0 1 .943 1.6 12.008 12.008 0 0 0-5.09 10.227 13.163 13.163 0 0 0 5.137 10.557.977.977 0 0 1 .283 1.32 1.079 1.079 0 0 1-.806.379z" transform="translate(-15.3 -9.492)"/></g><g id="グループ化_152" data-name="グループ化 152" transform="translate(0 -.008)"><path id="パス_283" data-name="パス 283" class="cls-1" d="M8.719 33.175a.95.95 0 0 1-.518-.141A20.464 20.464 0 0 1 0 16.35 19.041 19.041 0 0 1 8.248.137a.9.9 0 0 1 1.272.33.887.887 0 0 1-.33 1.273 17.242 17.242 0 0 0-7.3 14.61 18.95 18.95 0 0 0 7.347 15.081.977.977 0 0 1 .283 1.32.926.926 0 0 1-.801.424z" transform="translate(0 .008)"/></g><g id="グループ化_153" data-name="グループ化 153" transform="translate(31.462 10.203)"><path id="パス_284" data-name="パス 284" class="cls-1" d="M67.72 34.4a.939.939 0 0 1-.471-1.744 5.185 5.185 0 0 0 2.215-4.477 6.084 6.084 0 0 0-2.309-4.807.948.948 0 0 1 1.084-1.555 7.876 7.876 0 0 1 3.111 6.362 6.991 6.991 0 0 1-3.158 6.08 1.054 1.054 0 0 1-.472.141z" transform="translate(-66.757 -21.657)"/></g><g id="グループ化_154" data-name="グループ化 154" transform="translate(34.057 4.454)"><path id="パス_285" data-name="パス 285" class="cls-1" d="M73.223 33.7a.985.985 0 0 1-.8-.424.935.935 0 0 1 .283-1.32A13.049 13.049 0 0 0 77.841 21.4a12.131 12.131 0 0 0-5.09-10.227.93.93 0 1 1 .943-1.6A13.927 13.927 0 0 1 79.727 21.4a14.826 14.826 0 0 1-5.985 12.159.95.95 0 0 1-.519.141z" transform="translate(-72.263 -9.459)"/></g><g id="グループ化_155" data-name="グループ化 155" transform="translate(39.052 -.008)"><path id="パス_286" data-name="パス 286" class="cls-1" d="M83.823 33.175a.986.986 0 0 1-.8-.424.935.935 0 0 1 .283-1.32 18.805 18.805 0 0 0 7.35-15.081 17.242 17.242 0 0 0-7.3-14.61.981.981 0 0 1-.33-1.272.939.939 0 0 1 1.32-.33 19.041 19.041 0 0 1 8.243 16.212 20.565 20.565 0 0 1-8.2 16.684 1.255 1.255 0 0 1-.566.141z" transform="translate(-82.863 .008)"/></g></g><g id="グループ化_157" data-name="グループ化 157" class="cls-3" transform="translate(356.902 373.923)"><circle id="楕円形_15" data-name="楕円形 15" class="cls-8" cx="14.141" cy="14.141" r="14.141" transform="translate(17.683 18.799)"/><path id="パス_287" data-name="パス 287" class="cls-8" d="M57.025 85.969h-8.872a1.55 1.55 0 0 1-1.553-1.553v-1.663a1.55 1.55 0 0 1 1.553-1.553h8.873a1.55 1.55 0 0 1 1.553 1.553v1.664a1.516 1.516 0 0 1-1.554 1.552z" transform="translate(-20.766 -36.172)"/><path id="パス_288" data-name="パス 288" class="cls-8" d="M43.7 79.605s-.333-2.329-3.6-4.935l2.052-4.27 4.548 5.712L45.313 79z" transform="translate(-17.87 -31.361)"/><path id="パス_289" data-name="パス 289" class="cls-8" d="M65.794 79.605s.333-2.329 3.6-4.935l-2.047-4.27-4.547 5.712L64.186 79z" transform="translate(-27.982 -31.361)"/><path id="パス_290" data-name="パス 290" d="M57.363 94.385h-7.32a.972.972 0 0 1-.943-.943.972.972 0 0 1 .943-.943h7.32a.972.972 0 0 1 .943.943.9.9 0 0 1-.943.943z" transform="translate(-21.879 -41.206)"/><path id="パス_291" data-name="パス 291" d="M57 99.885h-4.157a.972.972 0 0 1-.943-.943.972.972 0 0 1 .943-.942H57a.972.972 0 0 1 .943.943.935.935 0 0 1-.943.942z" transform="translate(-23.127 -43.656)"/><circle id="楕円形_16" data-name="楕円形 16" cx=".776" cy=".776" r=".776" transform="translate(31.047 58.004)"/><path id="パス_292" data-name="パス 292" d="M57.144 7.6c-.222 0-.444-.277-.444-.61V.61c0-.333.166-.61.444-.61.222 0 .388.277.388.61v6.377c0 .333-.167.613-.388.613z" transform="translate(-25.265)"/><path id="パス_293" data-name="パス 293" d="M83.6 16.977c-.166-.111-.166-.444 0-.721l3.66-5.213c.166-.277.5-.388.665-.277.166.111.166.444 0 .721l-3.66 5.213c-.222.277-.499.388-.665.277z" transform="translate(-37.192 -4.777)"/><path id="パス_294" data-name="パス 294" d="M100.392 41.528a.564.564 0 0 1 .444-.61l5.989-2.163c.333-.111.61-.055.721.166a.564.564 0 0 1-.444.61l-5.989 2.163c-.333.167-.666.056-.721-.166z" transform="translate(-44.723 -17.24)"/><path id="パス_295" data-name="パス 295" d="M101.493 71.087c.055-.222.388-.333.721-.222l6.155 1.664c.333.111.555.333.5.555-.055.222-.388.333-.721.222l-6.155-1.664c-.333-.112-.555-.333-.5-.555z" transform="translate(-45.215 -31.549)"/><path id="パス_296" data-name="パス 296" d="M27.608 16.932c-.166.111-.5 0-.665-.277l-3.66-5.268c-.166-.277-.222-.61 0-.721.166-.111.5 0 .665.277l3.66 5.213a.532.532 0 0 1 0 .776z" transform="translate(-10.313 -4.732)"/><path id="パス_297" data-name="パス 297" d="M8.745 41.428c-.055.222-.388.277-.721.166l-5.989-2.162a.564.564 0 0 1-.444-.61c.055-.222.388-.277.721-.166L8.3 40.818c.334.166.5.388.445.61z" transform="translate(-.711 -17.195)"/><path id="パス_298" data-name="パス 298" d="M7.368 70.987c.055.222-.166.5-.5.555L.714 73.2a.562.562 0 0 1-.721-.222c-.055-.222.166-.5.5-.555l6.155-1.664c.332-.105.665.006.72.228z" transform="translate(0 -31.504)"/></g><g id="グループ化_382" data-name="グループ化 382"><g id="グループ化_241" data-name="グループ化 241" class="cls-3" transform="translate(355.478 260.475)"><path id="パス_302" data-name="パス 302" class="cls-9" d="M22.4 3.7l-16.7 25a1.406 1.406 0 0 0 1.2 2.1h33.5a1.388 1.388 0 0 0 1.2-2.1l-16.7-25a1.416 1.416 0 0 0-2.5 0z"/><path id="パス_303" data-name="パス 303" class="cls-7" d="M17.4 1.2L.7 26.2a1.406 1.406 0 0 0 1.2 2.1h33.5a1.388 1.388 0 0 0 1.2-2.1l-16.7-25a1.494 1.494 0 0 0-2.5 0z" transform="translate(1)"/></g></g><g id="グループ化_355" data-name="グループ化 355" class="cls-3" transform="rotate(-24 2016.953 -1517.12)"><path id="パス_302-2" data-name="パス 302" class="cls-9" d="M22.4 3.7l-16.7 25a1.406 1.406 0 0 0 1.2 2.1h33.5a1.388 1.388 0 0 0 1.2-2.1l-16.7-25a1.416 1.416 0 0 0-2.5 0z"/><path id="パス_303-2" data-name="パス 303" class="cls-7" d="M17.4 1.2L.7 26.2a1.406 1.406 0 0 0 1.2 2.1h33.5a1.388 1.388 0 0 0 1.2-2.1l-16.7-25a1.494 1.494 0 0 0-2.5 0z" transform="translate(1)"/></g><g id="グループ化_384" data-name="グループ化 384"><path id="パス_305" data-name="パス 305" class="cls-2" d="M14.18 68.391l2.56 5.121c.32.64.64.96 1.28.96l5.761.96a1.756 1.756 0 0 1 .96 2.88l-4.161 4.161a2.445 2.445 0 0 0-.64 1.6l.96 5.761a1.835 1.835 0 0 1-2.56 1.92l-4.8-3.2h-1.6l-5.121 2.88c-1.28.64-2.56-.32-2.56-1.92l.96-5.761a1.762 1.762 0 0 0-.64-1.6L.418 77.992a1.756 1.756 0 0 1 .96-2.88l5.761-.96c.64 0 .96-.32 1.28-.96l2.56-5.121a1.949 1.949 0 0 1 3.201.32z" transform="translate(430.105 658.826)"/><path id="パス_304" data-name="パス 304" class="cls-10" d="M14.18 68.391l2.56 5.121c.32.64.64.96 1.28.96l5.761.96a1.756 1.756 0 0 1 .96 2.88l-4.161 4.161a2.445 2.445 0 0 0-.64 1.6l.96 5.761a1.835 1.835 0 0 1-2.56 1.92l-4.8-3.2h-1.6l-5.121 2.88c-1.28.64-2.56-.32-2.56-1.92l.96-5.761a1.762 1.762 0 0 0-.64-1.6L.418 77.992a1.756 1.756 0 0 1 .96-2.88l5.761-.96c.64 0 .96-.32 1.28-.96l2.56-5.121a1.949 1.949 0 0 1 3.201.32z" transform="translate(427.105 657.826)"/></g><path id="パス_370" data-name="パス 370" class="cls-10" d="M14.18 68.391l2.56 5.121c.32.64.64.96 1.28.96l5.761.96a1.756 1.756 0 0 1 .96 2.88l-4.161 4.161a2.445 2.445 0 0 0-.64 1.6l.96 5.761a1.835 1.835 0 0 1-2.56 1.92l-4.8-3.2h-1.6l-5.121 2.88c-1.28.64-2.56-.32-2.56-1.92l.96-5.761a1.762 1.762 0 0 0-.64-1.6L.418 77.992a1.756 1.756 0 0 1 .96-2.88l5.761-.96c.64 0 .96-.32 1.28-.96l2.56-5.121a1.949 1.949 0 0 1 3.201.32z" transform="rotate(-49 246.998 -489.593)"/><g id="グループ化_386" data-name="グループ化 386"><path id="パス_360" data-name="パス 360" class="cls-11" d="M3 0h19a3 3 0 0 1 3 3v18a3 3 0 0 1-3 3H3a3 3 0 0 1-3-3V3a3 3 0 0 1 3-3z" transform="translate(1376 660)"/><g id="長方形_340" data-name="長方形 340" class="cls-10" transform="translate(1372 656)"><rect class="cls-14" width="25" height="24" rx="3"/><rect class="cls-15" x=".5" y=".5" width="24" height="23" rx="2.5"/></g></g><g id="グループ化_385" data-name="グループ化 385"><rect id="長方形_343" data-name="長方形 343" class="cls-2" width="7" height="40" rx="3" transform="rotate(-31 1593.174 -306.662)"/><g id="長方形_342" data-name="長方形 342" class="cls-10" transform="rotate(-31 1591.068 -300.252)"><rect class="cls-14" width="7" height="40" rx="3"/><rect class="cls-15" x=".5" y=".5" width="6" height="39" rx="2.5"/></g></g><g id="グループ化_387" data-name="グループ化 387"><rect id="長方形_919" data-name="長方形 919" class="cls-11" width="7" height="40" rx="3" transform="rotate(42 514.867 1865.078)"/><g id="長方形_920" data-name="長方形 920" class="cls-10" transform="rotate(42 518.972 1862.17)"><rect class="cls-14" width="7" height="40" rx="3"/><rect class="cls-15" x=".5" y=".5" width="6" height="39" rx="2.5"/></g></g><g id="グループ化_383" data-name="グループ化 383"><path id="合体_2" data-name="合体 2" class="cls-11" d="M3.289 31.113l-.707-.707a3 3 0 0 1 0-4.243l9.357-9.363-9.781-9.441a3 3 0 0 1-.074-4.242l.694-.717a3 3 0 0 1 4.243-.075l9.869 9.531 9.733-9.733a3 3 0 0 1 4.243 0l.707.707a3 3 0 0 1 0 4.243l-9.647 9.647 9.552 9.225a3 3 0 0 1 .074 4.242l-.695.72a3 3 0 0 1-4.242.074l-9.64-9.309-9.444 9.441a3 3 0 0 1-4.243 0z" transform="translate(540.381 404.264)"/><g id="合体_1" data-name="合体 1" fill="none" opacity=".802"><path class="cls-14" d="M3.289 31.113l-.707-.707a3 3 0 0 1 0-4.243l9.357-9.363-9.781-9.441a3 3 0 0 1-.074-4.242l.694-.717a3 3 0 0 1 4.243-.075l9.869 9.531 9.733-9.733a3 3 0 0 1 4.243 0l.707.707a3 3 0 0 1 0 4.243l-9.647 9.647 9.552 9.225a3 3 0 0 1 .074 4.242l-.695.72a3 3 0 0 1-4.242.074l-9.64-9.309-9.444 9.441a3 3 0 0 1-4.243 0z" transform="translate(537.381 402.264)"/><path d="M5.41 30.991a1.99 1.99 0 0 0 1.414-.585l9.445-9.445.694-.694.707.682 9.64 9.31a1.99 1.99 0 0 0 1.39.561c.547 0 1.058-.217 1.438-.61l.695-.72a2.002 2.002 0 0 0-.05-2.828l-9.551-9.225-.732-.707.72-.72 9.646-9.646c.78-.78.78-2.049 0-2.828l-.708-.708a1.987 1.987 0 0 0-1.414-.586 1.99 1.99 0 0 0-1.414.586l-9.733 9.733-.695.695-.707-.682-9.868-9.53a1.993 1.993 0 0 0-1.39-.562 1.99 1.99 0 0 0-1.44.61l-.693.72a2.002 2.002 0 0 0 .049 2.828l9.78 9.446.733.706-.72.72-9.358 9.358c-.78.78-.78 2.049 0 2.828l.708.708c.377.377.88.585 1.414.585m0 1a2.99 2.99 0 0 1-2.121-.878l-.708-.707a3 3 0 0 1 0-4.243l9.358-9.358-9.78-9.446a3 3 0 0 1-.075-4.241l.694-.72a2.99 2.99 0 0 1 2.159-.916c.75 0 1.501.28 2.084.842l9.869 9.53 9.733-9.733a2.99 2.99 0 0 1 2.121-.879 2.99 2.99 0 0 1 2.122.88l.707.707a3.001 3.001 0 0 1 0 4.242l-9.647 9.647 9.552 9.225a3 3 0 0 1 .074 4.241l-.695.72a2.992 2.992 0 0 1-2.158.916 2.99 2.99 0 0 1-2.083-.842l-9.64-9.31-9.445 9.445a2.992 2.992 0 0 1-2.121.878z" fill="#707070" transform="translate(537.381 402.264)"/></g></g><g id="グループ化_388" data-name="グループ化 388"><circle id="楕円形_18" data-name="楕円形 18" cx="11" cy="11" r="11" transform="translate(1006 332)" fill="#ffeaba" opacity=".802"/><g id="楕円形_17" data-name="楕円形 17" class="cls-10" transform="translate(1003 330)"><circle class="cls-14" cx="11" cy="11" r="11"/><circle class="cls-15" cx="11" cy="11" r="10.5"/></g></g></g></g></svg>