<svg xmlns="http://www.w3.org/2000/svg" viewBox="0 0 63.677 59.557"><defs><style>.cls-2{fill:#f77}</style></defs><g id="グループ化_157" data-name="グループ化 157" transform="translate(.015)" opacity=".802"><circle id="楕円形_15" data-name="楕円形 15" class="cls-2" cx="14.141" cy="14.141" r="14.141" transform="translate(17.683 18.799)"/><path id="パス_287" data-name="パス 287" class="cls-2" d="M57.025 85.969h-8.872a1.55 1.55 0 0 1-1.553-1.553v-1.663a1.55 1.55 0 0 1 1.553-1.553h8.873a1.55 1.55 0 0 1 1.553 1.553v1.664a1.516 1.516 0 0 1-1.554 1.552z" transform="translate(-20.766 -36.172)"/><path id="パス_288" data-name="パス 288" class="cls-2" d="M43.7 79.605s-.333-2.329-3.6-4.935l2.052-4.27 4.548 5.712L45.313 79z" transform="translate(-17.87 -31.361)"/><path id="パス_289" data-name="パス 289" class="cls-2" d="M65.794 79.605s.333-2.329 3.6-4.935l-2.047-4.27-4.547 5.712L64.186 79z" transform="translate(-27.982 -31.361)"/><path id="パス_290" data-name="パス 290" d="M57.363 94.385h-7.32a.972.972 0 0 1-.943-.943.972.972 0 0 1 .943-.943h7.32a.972.972 0 0 1 .943.943.9.9 0 0 1-.943.943z" transform="translate(-21.879 -41.206)"/><path id="パス_291" data-name="パス 291" d="M57 99.885h-4.157a.972.972 0 0 1-.943-.943.972.972 0 0 1 .943-.942H57a.972.972 0 0 1 .943.943.935.935 0 0 1-.943.942z" transform="translate(-23.127 -43.656)"/><circle id="楕円形_16" data-name="楕円形 16" cx=".776" cy=".776" r=".776" transform="translate(31.047 58.004)"/><path id="パス_292" data-name="パス 292" d="M57.144 7.6c-.222 0-.444-.277-.444-.61V.61c0-.333.166-.61.444-.61.222 0 .388.277.388.61v6.377c0 .333-.167.613-.388.613z" transform="translate(-25.265)"/><path id="パス_293" data-name="パス 293" d="M83.6 16.977c-.166-.111-.166-.444 0-.721l3.66-5.213c.166-.277.5-.388.665-.277.166.111.166.444 0 .721l-3.66 5.213c-.222.277-.499.388-.665.277z" transform="translate(-37.192 -4.777)"/><path id="パス_294" data-name="パス 294" d="M100.392 41.528a.564.564 0 0 1 .444-.61l5.989-2.163c.333-.111.61-.055.721.166a.564.564 0 0 1-.444.61l-5.989 2.163c-.333.167-.666.056-.721-.166z" transform="translate(-44.723 -17.24)"/><path id="パス_295" data-name="パス 295" d="M101.493 71.087c.055-.222.388-.333.721-.222l6.155 1.664c.333.111.555.333.5.555-.055.222-.388.333-.721.222l-6.155-1.664c-.333-.112-.555-.333-.5-.555z" transform="translate(-45.215 -31.549)"/><path id="パス_296" data-name="パス 296" d="M27.608 16.932c-.166.111-.5 0-.665-.277l-3.66-5.268c-.166-.277-.222-.61 0-.721.166-.111.5 0 .665.277l3.66 5.213a.532.532 0 0 1 0 .776z" transform="translate(-10.313 -4.732)"/><path id="パス_297" data-name="パス 297" d="M8.745 41.428c-.055.222-.388.277-.721.166l-5.989-2.162a.564.564 0 0 1-.444-.61c.055-.222.388-.277.721-.166L8.3 40.818c.334.166.5.388.445.61z" transform="translate(-.711 -17.195)"/><path id="パス_298" data-name="パス 298" d="M7.368 70.987c.055.222-.166.5-.5.555L.714 73.2a.562.562 0 0 1-.721-.222c-.055-.222.166-.5.5-.555l6.155-1.664c.332-.105.665.006.72.228z" transform="translate(0 -31.504)"/></g></svg>