<svg xmlns="http://www.w3.org/2000/svg" viewBox="0 0 824.775 260.116"><defs><style>.cls-1{fill:#3a3a3a}.cls-2{fill:#fff}.cls-5{fill:#ffd476}.cls-7{fill:#f77}.cls-8{fill:#4bcb95}</style></defs><g id="アセット_2" data-name="アセット 2" transform="translate(-.125 .016)"><path id="パス_306" class="cls-1" d="M50.7 119.7a220.245 220.245 0 0 0 26.2-46.6l14.2 4.6a2.549 2.549 0 0 1 2.1 2.1 1.456 1.456 0 0 1-1.3 1.6c-2.3.9-2.6 1.1-3.2 2.3a226.035 226.035 0 0 1-24.5 42.7z"/><path id="パス_307" class="cls-1" d="M98.4 52.1l14.9 1.3c.5 0 2.5.2 2.5 1.6a2.787 2.787 0 0 1-1.2 1.8c-.2.2-1.9 1.6-1.9 2.1v80.2c0 8.7-3.5 12.1-23.5 12.3L83 137.1c4.2.5 9.3.8 11 .8.9 0 4.5 0 4.5-4V52.1z"/><path id="パス_308" class="cls-1" d="M137.5 114.8A224.4 224.4 0 0 1 118 78.7l12.9-5.8a191.283 191.283 0 0 0 20 34.2z"/><path id="パス_309" class="cls-1" d="M251.8 155.3v-2.7l-40.7-.1v2.7H198l.1-28.3c-2.4 9.5-5.7 18.1-13.8 27l-11.2-6.5c12.4-13.5 14.9-23.9 14.9-47.4 0-4.2-.1-10.8-.1-14.2l72.5.2-.1 33.7-60.9-.2c-.2 1.4-.6 3.9-.8 5.5l66.2.2-.1 30.2zm-4-60.7l-47.7-.2c0 .9 0 2.6-.1 4.5l47.8.2zm0 12.7l-47.7-.2c0 1.9-.1 2.1-.1 4.5l47.8.2zm4.1 27.1l-40.7-.1v8.3l40.7.1z"/><path id="パス_310" class="cls-1" d="M329.1 133.3c-3.1 14.7-7 19.1-27.4 18.4l-4-14.9a44.247 44.247 0 0 0 10.2 1.6c4.2 0 6.3-1.4 7.5-5.1 2.1-7 2.8-16 3.2-20.2h-13.8c-.6 2.1-.6 2.2-1.1 4.5l-13-2.8c2-6.9 5.3-18.8 5.5-40.5l7 2.3h15.3V65.5h-25V52.9h38.4v36.6h-24.1c-.6 5.2-.6 5.5-1.3 11.3h25.9c-.8 14.6-1.4 21-2.7 29.2"/><path id="パス_311" class="cls-1" d="M375.8 136.8s-11.7 2.5-35.6 6.1a3.515 3.515 0 0 0-2.7 2c-.6 1.2-1.1 2-2.7 2s-2.1-1.1-2.9-3.8l-2.8-9.9.7-3.3c1.8 0 5-.1 8.5-.4 6.7-25.9 10.8-52.5 14.8-79l12.9 1.6c2.8.4 5.2.7 5.2 2.7a1.811 1.811 0 0 1-1.3 1.6 11.507 11.507 0 0 0-2.5 1.2c-1.2 1.2-3.6 14.9-4.2 17.7-.6 3.4-7.5 33.9-12 52.9 6.7-.7 10.8-1.2 21.9-2.8-1.9-6.3-5.4-18.2-10.7-28.3l13.7-3.6a277.848 277.848 0 0 1 13.1 38.9z"/><path id="パス_312" class="cls-1" d="M426.5 128.8v-5.1h-7.2v7H408V54.6h29.9v74.2zm0-62.6h-7.2v17.5h7.2zm0 28.9h-7.2V113h7.2zm41 34.1v-4.8h-22.1V84.1h22.1v-6h-18.2v-8.2h-7.2V51.8H507v18.4h-7.5v7.9h-19.1v6h22.3v40.3h-22.3v4.8m-12.9 12.2v-1h-30.3v-9.9h30.3v-1.3h12.9v1.3h28.2v9.9h-28.2v1m0 0v10.8h-12.9v-10.8zm-12.9-80.5h-12.9v7.8h12.9zm0 32.1h-10.2v7h10.2zm0 14.9h-10.2v7.2h10.2zm26.5-47h-13.6v7.8H494zM490.8 93h-10.4v7h10.4zm0 14.9h-10.4v7.2h10.4z"/><path id="パス_313" class="cls-1" d="M583 130.8a25.474 25.474 0 0 1-12.4 9.3l-3.9-5.4a17.634 17.634 0 0 0 9.6-5.7 16.405 16.405 0 0 0 3.8-10.6 12.447 12.447 0 0 0-3.8-9.3 13.877 13.877 0 0 0-9.1-3.6c-1.7 12.7-4.8 20.1-6.6 23.7-1.6 3.3-4 7.8-6.8 7.8-1.9 0-10.6-4.8-10.6-14.3 0-11.8 9.7-22.6 23.5-22.6 11.1 0 19.8 7.5 19.8 19.4a20.329 20.329 0 0 1-3.5 11.3zm-28.6-20.5a17.47 17.47 0 0 0-5.3 11.8c0 4.3 2.4 6.5 3.4 6.5 2.8 0 7.3-13.9 8.4-22.2a16.642 16.642 0 0 0-6.5 3.9z"/><path id="パス_314" class="cls-1" d="M163.5 231.4c-1 .3-1.1.3-1.3.6-4 5.9-6.7 9.7-13.2 15.4l-8-5a57.2 57.2 0 0 0 15.7-17.5l6.4 4.2c.3.2 1.5.9 1.5 1.5s-.6.7-1.1.8z"/><path id="パス_315" class="cls-1" d="M178 218.4V248c0 7.2-1.9 8.5-14.8 8.6l-2.9-9a31.534 31.534 0 0 0 6.1.6c2.5 0 2.9-.6 2.9-2.5v-27.3h-22.6v-8h22.6v-14l8.4 1.1c1.2.2 2.1.4 2.1 1.1 0 .4-.3.6-1 1.1-.3.2-.7.5-.7.9v9.9h22.3v8z"/><path id="パス_316" class="cls-1" d="M196.6 245.6a58.429 58.429 0 0 0-12.3-16.1l6-5.1c6.2 5.2 11 12.5 13.1 15.7z"/><path id="パス_317" class="cls-1" d="M223.4 231.7v-9.9h55.1v9.8z"/><path id="パス_318" class="cls-1" d="M351.4 239.3c-5.7-5.3-13.5-11.6-22.8-15.5v33.5h-9.2v-61.4l9.3 1.6c.2.1 1.9.3 1.9 1.2 0 .5-2 1.7-2 2.1v20.4l3.6-5.7a72.483 72.483 0 0 1 13.2 7 99.625 99.625 0 0 1 12.1 9.3z"/><path id="パス_319" class="cls-1" d="M431.1 210.8c-3.5 9.1-7.2 18.8-15.6 29a69.8 69.8 0 0 1-21.2 17l-8.5-6.8c13.4-6.3 27.2-16.3 35.2-39.7h-41.3v-9.1h43.8a4.823 4.823 0 0 0 2.6-1.2l7.7 7a8.582 8.582 0 0 0-2.7 3.8z"/><path id="パス_320" class="cls-1" d="M493.2 227.3l.5 26.1c.1 6-6.9 6.7-9.3 6.7a21.736 21.736 0 0 1-3.6-.2l-3-7.5a32.722 32.722 0 0 0 4 .2c1.7 0 4.3-.2 4.3-1.6l-.4-16.9a71.774 71.774 0 0 1-20.5 17.9l-5.6-5.3c3.3-1.5 6.6-3 12.9-8.6a58.561 58.561 0 0 0 9.7-10.8H462v-6.8h23.5l-.2-12.2 7 .5c.5 0 1.9.2 1.9 1.2 0 .6-.8 1.3-1.2 1.6l.2 8.8h12.5v6.8z"/><path id="パス_321" class="cls-1" d="M550.9 198.9c-1.2.9-1.2.9-1.2 1.2v32.7h-9.2v-36.6l9.2.8c.6.1 2 .2 2 .8 0 .4-.5.8-.8 1.1zm32.2-.6c-1 1-1 1.2-1 3.4-.1.7.1 4.2.1 5 0 15.1-.1 21.2-2.6 28.8-4.6 13.7-14.7 19.5-22.7 23.6l-6.7-7.5c15.9-6.3 22.6-13.6 22.6-37.1 0-1.9-.2-12.6-.5-18.8l9.9.5c.4 0 1.9.1 1.9 1a6.578 6.578 0 0 1-1 1.1z"/><path id="パス_322" class="cls-1" d="M650.6 217.9l.5 29.5c.2 9.8-4.9 10.6-15.4 10.7l-3.8-9.5a38.076 38.076 0 0 0 5.9.5c3.2 0 4-.8 4-2.3l-.3-21c-6.3 9.2-15.8 16.8-25.2 22.9l-6.7-6.7a64.706 64.706 0 0 0 26.8-24h-24.2v-8.3h29.2l-.3-14.7 9 .5c.5 0 1.8.1 1.8 1 0 .2-.1.5-.6.9-.9.6-1 .8-1 1.2l.3 11.2h15.7v8.3z"/><path id="パス_323" class="cls-1" d="M651.8 157a5.932 5.932 0 0 1-2.3-.5 5.444 5.444 0 0 1-2.7-7.3l19.6-38.4 10 4.6-19.6 38.5a5.555 5.555 0 0 1-5 3.1zm-.9-3.6a2.128 2.128 0 0 0 2.8-1l18-35.4-3.8-1.8-18 35.5a2.208 2.208 0 0 0 0 1.6 2.66 2.66 0 0 0 1 1.1z"/><path id="パス_324" class="cls-1" d="M715.9 155.7a5.5 5.5 0 0 1-4.9-3l-17.1-33.6a5.5 5.5 0 0 1 10-4.6l17 33.3a5.5 5.5 0 0 1-2.4 7.4c-.1 0-.1.1-.2.1a6.722 6.722 0 0 1-2.4.4zm-17.1-41.1a2.92 2.92 0 0 0-.9.2 2.045 2.045 0 0 0-1 2.8l17.1 33.6a2.127 2.127 0 1 0 3.9-1.7c0-.1-.1-.1-.1-.2l-17-33.4a2.342 2.342 0 0 0-1.2-1.2 2.2 2.2 0 0 0-.8-.1z"/><path id="パス_325" class="cls-1" d="M685.7 60.2h-6.3a1.735 1.735 0 0 1-1.7-1.6l-.8-13.2a4.085 4.085 0 0 1 3.9-4.4h3.2a4.14 4.14 0 0 1 4.2 4.1v.3l-.8 13.2a1.735 1.735 0 0 1-1.7 1.6zm-4.7-3.4h3.1l.7-11.7a.773.773 0 0 0-.7-.8h-3a.789.789 0 0 0-.8.8v.1z"/><path id="パス_326" class="cls-2" d="M696.3 65.4h-27.1a2.689 2.689 0 0 1-2.7-2.7v-5.1a2.721 2.721 0 0 1 2.5-2.7c2.5-.2 6.9-.4 13.8-.4s11.3.2 13.8.4a2.721 2.721 0 0 1 2.5 2.7v5.1a2.843 2.843 0 0 1-2.8 2.7z"/><path id="パス_327" class="cls-1" d="M696.3 67.1h-27.1a4.439 4.439 0 0 1-4.4-4.4v-5.1a4.455 4.455 0 0 1 4.1-4.4c2.5-.2 7-.4 13.9-.4s11.4.2 13.9.4a4.455 4.455 0 0 1 4.1 4.4v5.1a4.525 4.525 0 0 1-4.5 4.4zm-13.6-10.9c-6.8 0-11.2.2-13.7.4a.987.987 0 0 0-.9 1v5.1a.945.945 0 0 0 1 1h27.1a.945.945 0 0 0 1-1v-5a.987.987 0 0 0-.9-1c-2.4-.2-6.7-.4-13.6-.5z"/><path id="パス_328" d="M730.4 126.2c-16.6-3.4-74.2-3.4-90.9 0a1.636 1.636 0 0 1-2-1.2 1.388 1.388 0 0 1 0-.9c4.5-12.3 4.5-51 0-63.2a1.511 1.511 0 0 1 1.1-2 1.388 1.388 0 0 1 .9 0c16.6 3.4 74.2 3.4 90.9 0a1.636 1.636 0 0 1 2 1.2 1.388 1.388 0 0 1 0 .9c-4.5 12.3-4.5 51 0 63.2a1.511 1.511 0 0 1-1.1 2 2.719 2.719 0 0 1-.9 0z" fill="#77b6ff"/><path id="パス_329" class="cls-1" d="M639.2 127.9a3.367 3.367 0 0 1-2.6-1.2 3.133 3.133 0 0 1-.6-3.2c4.4-11.9 4.4-50.2 0-62.1a3.133 3.133 0 0 1 .6-3.2 3.426 3.426 0 0 1 3.3-1.1c16.4 3.4 73.8 3.4 90.2 0a3.666 3.666 0 0 1 3.3 1.1 3.133 3.133 0 0 1 .6 3.2c-4.4 11.9-4.4 50.2 0 62.1a3.133 3.133 0 0 1-.6 3.2 3.426 3.426 0 0 1-3.3 1.1c-16.4-3.4-73.8-3.4-90.2 0a1.7 1.7 0 0 1-.7.1zm.1-67.4c4.6 12.8 4.6 51.2 0 64 16.8-3.4 74.6-3.4 91.4 0-4.6-12.8-4.6-51.2 0-64-16.8 3.4-74.7 3.4-91.4 0z"/><path id="パス_330" class="cls-2" d="M617.8 40.3l1.8-2.4a3.264 3.264 0 0 1 4.7-.6l31.8 20.6-9.5 12.5-28.2-25.3a3.381 3.381 0 0 1-.6-4.8z"/><path id="パス_331" class="cls-1" d="M646.7 71.6l-28.9-25.9a4.451 4.451 0 0 1-1.6-2.8 4.831 4.831 0 0 1 .8-3.1l1.8-2.4a4.178 4.178 0 0 1 5.9-.8l32.5 21.1zm-28.3-30.8a2.569 2.569 0 0 0 .5 3.6l27.6 24.7 8.4-11-31-20.1a2.553 2.553 0 0 0-3.6.4z"/><path id="パス_372" data-name="パス 372" d="M679.6 70.4c-4.4-3.4-8.8-2.2-11.4-1.5l-.9.2-6.6 8.7v.3c0 2.4.1 8 4.4 11.3 2.8 2.2 7.7 3.2 12 4.1 1.6.3 3.1.7 4.7 1.1a6.224 6.224 0 0 1 3.9 3.7l1.1 3.4.5-3.5c0-.8 2.8-19.8-7.7-27.8z" stroke="#3a3a3a" stroke-miterlimit="10" fill="#fff"/><path id="パス_332" class="cls-2" d="M659.2 77.9l7.6-9.9-7.9-8a1.363 1.363 0 0 0-1.8.2l-7.9 10.4a1.363 1.363 0 0 0 .2 1.8l9.8 5.5z"/><path id="パス_333" class="cls-1" d="M659.4 79l-.7-.3-9.9-5.5a2.222 2.222 0 0 1-.6-3 .1.1 0 0 1 .1-.1l7.9-10.4a1.723 1.723 0 0 1 1.4-.8 2.276 2.276 0 0 1 1.6.4l8.6 8.6-.5.6zM658 60.5a.52.52 0 0 0-.4.2l-7.9 10.4a.377.377 0 0 0 .1.6l9.1 5.1 6.7-8.8-7.4-7.5z"/><path id="パス_335" class="cls-1" d="M668 91.1c.4-.5 2.6-.6 3.4-.6 2.3 0 5.2 0 7.3-2.8s1.4-5.5.8-7.8-.9-3.7.3-5.2a5.254 5.254 0 0 1 2.6-1.6 12.985 12.985 0 0 0-2.4-2.4 6.833 6.833 0 0 0-2.5 2.2c-2.1 2.8-1.4 5.5-.8 7.8s.9 3.7-.3 5.2-2.7 1.6-5 1.6a9.567 9.567 0 0 0-6.6 1.7 10.791 10.791 0 0 0 3.2 1.9z"/><path id="パス_336" class="cls-1" d="M682.8 107.8a3.742 3.742 0 0 0 6.9 2.9c2.3-5.4-3.8-9.4-3.8-9.4s-.1 2.9-1.2 4.1a7.214 7.214 0 0 0-1.9 2.4z"/><path id="パス_337" class="cls-1" d="M677.4 107.7a1.954 1.954 0 0 0-.6 2.7 1.907 1.907 0 0 0 2.5.7c2.7-1.5 1.5-5.1 1.5-5.1a4.628 4.628 0 0 1-1.8 1.3 2.935 2.935 0 0 0-1.6.4z"/><path id="長方形_911" class="cls-1" d="M544.6 144.1h9.9c.2 0 .5.2.5.4v3.5a.458.458 0 0 1-.5.4h-9.9c-.2 0-.5-.2-.5-.4v-3.5a.665.665 0 0 1 .5-.4z"/><path id="長方形_912" class="cls-1" transform="translate(553.6 136.2)" d="M0 0h1.4v8.8H0z"/><path id="長方形_913" class="cls-1" d="M581.2 148.4h-9.9c-.2 0-.5-.2-.5-.4v-3.5a.458.458 0 0 1 .5-.4h9.9c.2 0 .5.2.5.4v3.5a.458.458 0 0 1-.5.4z"/><path id="長方形_914" class="cls-1" transform="translate(570.8 136.2)" d="M0 0h1.4v8.8H0z"/><path id="パス_338" class="cls-5" d="M64 235.9v6.6l-23.5-13.4v-2.5L64 213.3v6.5l-14.9 8z"/><path id="パス_339" class="cls-5" d="M75.1 216.5v1.7a10.85 10.85 0 0 1 9.8-4.7 12.3 12.3 0 0 1 9.1 3.4c2.6 2.6 3.8 6.2 3.8 11.1 0 8.9-4.9 14.2-13 14.2a11.3 11.3 0 0 1-9.7-4.6v7.3a45.833 45.833 0 0 0 .4 6.4h-6.8c.2-2.1.3-4.2.3-6.4v-24.2c0-2.2-.1-4.3-.3-6.5h6.4zm8.6 2.1c-4.8 0-8.4 3.9-8.4 9.1 0 5.5 3.6 9.3 8.6 9.3 4.7 0 7.7-3.6 7.7-9.2s-3-9.2-7.9-9.2z"/><path id="パス_340" class="cls-5" d="M101.4 219.8v-6.5l23.5 13.4v2.5l-23.5 13.4V236l14.9-8.1z"/><path id="パス_341" class="cls-5" d="M713.5 235.9v6.6L690 229.1v-2.5l23.5-13.4v6.5l-14.9 8z"/><path id="パス_342" class="cls-5" d="M739.3 203.5L722 249.1h-5.9l17.4-45.6z"/><path id="パス_343" class="cls-5" d="M749.6 216.5v1.7a10.85 10.85 0 0 1 9.8-4.7 12.3 12.3 0 0 1 9.1 3.4c2.6 2.6 3.8 6.2 3.8 11.1 0 8.9-4.9 14.2-13 14.2a11.3 11.3 0 0 1-9.7-4.6v7.4c0 2.1.1 4.3.3 6.4h-6.8c.2-2.1.3-4.2.3-6.4v-24.2c0-2.2-.1-4.3-.3-6.4h6.4zm8.6 2.1c-4.8 0-8.4 3.9-8.4 9.1 0 5.5 3.6 9.3 8.6 9.3 4.7 0 7.7-3.6 7.7-9.2s-3-9.2-7.9-9.2z"/><path id="パス_344" class="cls-5" d="M775.9 219.8v-6.5l23.5 13.4v2.5l-23.5 13.4V236l14.9-8.1z"/><path id="パス_345" class="cls-1" d="M196.8 16.3a51.466 51.466 0 0 1 6.8-4.1V8.7a18.751 18.751 0 0 1-4.1.1l-.4-3.1a24.369 24.369 0 0 0 2.7.1 12.75 12.75 0 0 0 1.9-.1c0-3.1 0-3.3-.1-5.1l3 .4c.8.1.8.3.8.4s-.4.4-.5.5a29.167 29.167 0 0 0-.2 3.3 23 23 0 0 0 4.2-1.4v3.1a33.106 33.106 0 0 1-4.2 1.2V11a15.225 15.225 0 0 1 4.2-.6c4.2 0 6.5 2.8 6.5 6.2s-2.2 6-5.1 6-3.4-1.9-3.7-3.8l2.4-1c.3 1.1.5 1.8 1.4 1.8 1 0 2.1-1 2.1-2.9a3.5 3.5 0 0 0-3.5-3.6h-.3a14.328 14.328 0 0 0-4.1.9c0 4.3 0 4.8-.1 8.1l-2.9 1.1c-1.2-1.2-1.8-2-4.3-4.6a3.043 3.043 0 0 0-.8.8zm6.8-.9a21.956 21.956 0 0 0-2.5 1.7 19.678 19.678 0 0 0 2.5 2.5zm13.9-4.9a16.769 16.769 0 0 0-5.3-3.1L214 5a18.9 18.9 0 0 1 5.3 3.1z"/><path id="パス_346" class="cls-1" d="M248.3 2.9a1.49 1.49 0 0 0-.8.3c-1.7 1.7-2 1.9-7.7 7.1a1.855 1.855 0 0 0-.7 1.2 1.16 1.16 0 0 0 .4 1 63.1 63.1 0 0 1 8.9 9l-2.7 2.4a45.737 45.737 0 0 0-7.9-9.1c-1.4-1.3-2.4-2.2-2.4-3.3 0-1.3.9-2.2 2.5-3.6a58.973 58.973 0 0 0 7.9-7.9l2.4 1.9c.1.1.6.5.6.7s-.3.3-.5.3zm3 6.9a16.614 16.614 0 0 0-2.6-2.7l1.2-1.4a22.256 22.256 0 0 1 2.6 2.7zm1.8-3.7a16.614 16.614 0 0 0-2.6-2.7l1.2-1.4a16.614 16.614 0 0 1 2.6 2.7z"/><path id="パス_347" class="cls-1" d="M274.2 23.3l-1.4-3.3a19.529 19.529 0 0 0 3.4.3c5 0 7.3-2.6 7.3-5.1 0-1.7-1.4-2.8-3.4-2.8-1.9 0-4.6 1.1-7.4 4.3l-2.3-1.2a44.863 44.863 0 0 1 2.1-10.3l3.1 1.2a37.7 37.7 0 0 0-1.6 6 10.291 10.291 0 0 1 6.7-2.7 5.891 5.891 0 0 1 6 5.7v.3c-.1 7.3-9.1 7.5-12.5 7.6zm6-17.2a23.7 23.7 0 0 0-6.2-3l1.1-2.7a31.117 31.117 0 0 1 6.5 2.8z"/><path id="パス_348" class="cls-1" d="M328.7 4c-1.8 2.8-3.9 6.5-3.9 10.5 0 .9 0 5 4.2 5s5.2-4.5 5.2-7.1a26.431 26.431 0 0 0-2.2-9.7l2.9-1.4c2.7 5.3 4.8 7.6 7.4 9.8l-1.9 2.5a19.7 19.7 0 0 1-3.9-5.2 19.924 19.924 0 0 1 .4 4.2c0 8.2-4.5 10.1-7.9 10.1a7.148 7.148 0 0 1-7.3-7v-.5a21.532 21.532 0 0 1 2-8.3 15.805 15.805 0 0 1-3.6 1.4l-1.4-2.8A15.528 15.528 0 0 0 326 2z"/><path id="パス_349" class="cls-1" d="M363.4 23.2l-1.4-2.9c1.5.1 4.9.2 7.4-1.2a4.722 4.722 0 0 0 2.5-4.1c0-2.3-1.8-3.5-4-3.5-4 0-6.9 3-9.4 5.7L356 15a75.164 75.164 0 0 0 10.4-10.7 30.779 30.779 0 0 1-6.1.6l-1.1-3.1a28.252 28.252 0 0 0 2.9.2 19.725 19.725 0 0 0 4.8-.6 20.245 20.245 0 0 0 3.3-.9l1.9 2.2a69.623 69.623 0 0 0-6.5 6.8 10.588 10.588 0 0 1 3.1-.5 6.113 6.113 0 0 1 6.4 5.7v.5c-.1 7.4-8.5 7.8-11.7 8z"/><path id="パス_350" class="cls-1" d="M405 10.4a29.717 29.717 0 0 0 3.6 5.6l-1.7 2.1a15.018 15.018 0 0 0-7.1-2.1c-1.8 0-3.3.8-3.3 2.2 0 2.3 3.5 2.3 4.4 2.3a19.523 19.523 0 0 0 5.4-.7L406 23a30.027 30.027 0 0 1-4.3.3c-4.9 0-8.2-1.6-8.2-5.1 0-3.7 2.9-4.7 6-4.7a25.788 25.788 0 0 1 3.9.4 23.42 23.42 0 0 1-1.4-2.7 37.039 37.039 0 0 1-8.7 1.1l-1-2.7a34.532 34.532 0 0 0 8.5-.8l-1-2.2a27.89 27.89 0 0 1-6.4.7l-.8-2.6a44.572 44.572 0 0 0 6.3-.5c-.6-1.7-.9-2.5-1.4-3.8l3.1-.4c.2 0 .9-.1.9.2 0 .1-.1.2-.2.3a.52.52 0 0 0-.2.4 24.136 24.136 0 0 0 .8 2.5 19.154 19.154 0 0 0 4.6-2.1l.6 2.6a16.316 16.316 0 0 1-4.3 1.8c.3.8.5 1.1.9 2.1a37.128 37.128 0 0 0 4.9-2.4l.5 2.7a11.119 11.119 0 0 1-4.1 2.3z"/><path id="パス_351" class="cls-1" d="M10.9 166.5l2 4a1.2 1.2 0 0 0 1 .7l4.5.6a1.341 1.341 0 0 1 1.1 1.5 1.012 1.012 0 0 1-.4.7l-3.2 3.1a1.286 1.286 0 0 0-.4 1.2l.8 4.4a1.341 1.341 0 0 1-1.1 1.5 1.949 1.949 0 0 1-.8-.1l-4-2.1a1.275 1.275 0 0 0-1.2 0l-4 2.1a1.373 1.373 0 0 1-1.8-.6 1.063 1.063 0 0 1-.1-.8l.8-4.4a1.374 1.374 0 0 0-.4-1.2L.5 174a1.268 1.268 0 0 1 0-1.8 2.01 2.01 0 0 1 .8-.4l4.5-.6a1.445 1.445 0 0 0 1-.7l2-4a1.407 1.407 0 0 1 1.8-.6c0 .2.2.4.3.6z"/><path id="パス_352" class="cls-1" d="M824.9 177.7h-4.7v-1.6h4.7zm-9.4 0h-4.7v-1.6h4.7zm-9.3 0h-4.7v-1.6h4.7zm-9.4 0h-4.7v-1.6h4.7zm-9.3 0h-4.7v-1.6h4.7zm-9.3 0h-4.7v-1.6h4.7zm-9.4 0h-4.7v-1.6h4.7zm-9.3 0h-4.7v-1.6h4.7zm-9.4 0h-4.7v-1.6h4.7zm-9.3 0h-4.7v-1.6h4.7zm-9.3 0h-4.7v-1.6h4.7zm-9.4 0h-4.7v-1.6h4.7zm-9.3 0h-4.7v-1.6h4.7zm-9.4 0h-4.7v-1.6h4.7zm-9.3 0h-4.7v-1.6h4.7zm-9.3 0h-4.7v-1.6h4.7zm-9.4 0h-4.7v-1.6h4.7zm-9.3 0h-4.7v-1.6h4.7zm-9.4 0H652v-1.6h4.7zm-9.3 0h-4.7v-1.6h4.7zm-9.3 0h-4.7v-1.6h4.7zm-9.4 0H624v-1.6h4.7zm-9.3 0h-4.7v-1.6h4.7zm-9.4 0h-4.7v-1.6h4.7zm-9.3 0H596v-1.6h4.7zm-9.3 0h-4.7v-1.6h4.7zm-9.4 0h-4.7v-1.6h4.7zm-9.3 0H568v-1.6h4.7zm-9.4 0h-4.7v-1.6h4.7zm-9.3 0h-4.7v-1.6h4.7zm-9.3 0H540v-1.6h4.7zm-9.4 0h-4.7v-1.6h4.7zm-9.3 0h-4.7v-1.6h4.7zm-9.4 0H512v-1.6h4.7v1.6zm-9.3 0h-4.7v-1.6h4.7zm-9.3 0h-4.7v-1.6h4.7zm-9.4 0h-4.7v-1.6h4.7zm-9.3 0h-4.7v-1.6h4.7zm-9.4 0h-4.7v-1.6h4.7zm-9.3 0h-4.7v-1.6h4.7zm-9.3 0h-4.7v-1.6h4.7zm-9.4 0h-4.7v-1.6h4.7zm-9.3 0h-4.7v-1.6h4.7zm-9.4 0h-4.7v-1.6h4.7zm-9.3 0h-4.7v-1.6h4.7zm-9.3 0h-4.7v-1.6h4.7zm-9.4 0h-4.7v-1.6h4.7zm-9.3 0h-4.7v-1.6h4.7zm-9.4 0h-4.7v-1.6h4.7zm-9.3 0h-4.7v-1.6h4.7zm-9.3 0h-4.7v-1.6h4.7zm-9.4 0h-4.7v-1.6h4.7zm-9.3 0h-4.7v-1.6h4.7zm-9.4 0h-4.7v-1.6h4.7zm-9.3 0h-4.7v-1.6h4.7zm-9.3 0h-4.7v-1.6h4.7zm-9.4 0h-4.7v-1.6h4.7zm-9.3 0h-4.7v-1.6h4.7zm-9.4 0h-4.7v-1.6h4.7zm-9.3 0h-4.7v-1.6h4.7zm-9.3 0h-4.7v-1.6h4.7zm-9.4 0h-4.7v-1.6h4.7zm-9.3 0h-4.7v-1.6h4.7zm-9.4 0h-4.7v-1.6h4.7zm-9.3 0h-4.7v-1.6h4.7zm-9.3 0h-4.7v-1.6h4.7zm-9.4 0h-4.7v-1.6h4.7zm-9.3 0h-4.7v-1.6h4.7zm-9.4 0H185v-1.6h4.7zm-9.3 0h-4.7v-1.6h4.7zm-9.3 0h-4.7v-1.6h4.7zm-9.4 0H157v-1.6h4.7zm-9.3 0h-4.7v-1.6h4.7zm-9.4 0h-4.7v-1.6h4.7zm-9.3 0H129v-1.6h4.7zm-9.3 0h-4.7v-1.6h4.7zm-9.4 0h-4.7v-1.6h4.7zm-9.3 0H101v-1.6h4.7zm-9.4 0h-4.7v-1.6h4.7zm-9.3 0h-4.7v-1.6H87zm-9.3 0H73v-1.6h4.7zm-9.4 0h-4.7v-1.6h4.7zm-9.3 0h-4.7v-1.6H59zm-9.4 0h-4.7v-1.6h4.7zm-9.3 0h-4.7v-1.6h4.7z"/><path id="パス_353" d="M203.9 189.1l2 4a1.2 1.2 0 0 0 1 .7l4.5.6a1.341 1.341 0 0 1 1.1 1.5 1.012 1.012 0 0 1-.4.7l-3.2 3.1a1.286 1.286 0 0 0-.4 1.2l.8 4.4a1.341 1.341 0 0 1-1.1 1.5 1.949 1.949 0 0 1-.8-.1l-4-2.1a1.275 1.275 0 0 0-1.2 0l-4 2.1a1.373 1.373 0 0 1-1.8-.6 1.128 1.128 0 0 1-.1-.8l.8-4.4a1.374 1.374 0 0 0-.4-1.2l-3.2-3.1a1.268 1.268 0 0 1 0-1.8 2.01 2.01 0 0 1 .8-.4l4.5-.6a1.445 1.445 0 0 0 1-.7l2-4a1.286 1.286 0 0 1 1.8-.5c0 .1.2.3.3.5z" fill="#6ee5b7"/><path id="パス_354" class="cls-7" d="M497.4 140.3h11.1v-9.9h-28.2v9.9h17.1"/><circle id="楕円形_19" class="cls-8" cx="3.1" cy="3.1" r="3.1" transform="translate(564.9 85.6)"/><circle id="楕円形_20" class="cls-8" cx="3.1" cy="3.1" r="3.1" transform="translate(588.8 97.1)"/><circle id="楕円形_21" class="cls-8" cx="3.1" cy="3.1" r="3.1" transform="translate(539.3 94.6)"/><path id="パス_355" class="cls-7" d="M150.9 107.2c2.8 3.8 5.8 7.6 9.1 11.6l-13.4 8.8c-3.4-4.4-6.4-8.6-9.2-12.8.9-.4 13.5-7.6 13.5-7.6z"/><path id="パス_356" class="cls-1" d="M246.4 75.6V82h-43.8v-5.8a109.2 109.2 0 0 1-23.5 8.2l-8.5-11.2c13.3-2.5 32-7.1 47.2-23l14.7.9c.5 0 2.5.3 2.5 1.6a1.709 1.709 0 0 1-.7 1.3c12.6 9 24.2 14.6 42 18.7l-8.4 11a107.7 107.7 0 0 1-21.5-8.1m-22.2-13.7a87.562 87.562 0 0 1-14.4 10.6h30.4a94.434 94.434 0 0 1-16-10.6z"/><path id="パス_357" class="cls-7" d="M246.4 82H225v-9.5h15.2l6.2 3.2z"/><path id="パス_359" class="cls-7" d="M389.3 132.6c1 4.1 2 8.4 2.8 12.9l-14 4c-.6-3.4-1.1-6.7-2.3-12.7z"/></g></svg>