<svg id="グループ化_136" data-name="グループ化 136" xmlns="http://www.w3.org/2000/svg" viewBox="0 0 99.135 81.763"><defs><style>.cls-2{fill:#f77}</style></defs><path id="長方形_918" data-name="長方形 918" transform="translate(3.748 4.048)" fill="#fff" d="M0 0h92v61H0z"/><path id="パス_255" data-name="パス 255" class="cls-2" d="M93.492 0H5.752A5.776 5.776 0 0 0 0 5.752v54.922a5.874 5.874 0 0 0 5.752 5.864h87.627a5.776 5.776 0 0 0 5.752-5.752V5.752A5.609 5.609 0 0 0 93.492 0zm-43.87 62.93a3.8 3.8 0 0 1-3.834-3.83 3.875 3.875 0 0 1 3.834-3.834 3.834 3.834 0 1 1 0 7.669zm43.419-10.15H6.2V8.571a2.744 2.744 0 0 1 2.709-2.707h81.426a2.744 2.744 0 0 1 2.707 2.707z"/><g id="グループ化_134" data-name="グループ化 134" transform="translate(31.69 70.373)"><path id="パス_256" data-name="パス 256" class="cls-2" d="M58.626 71.309c-3.609-.451-4.624-6.09-4.849-8.12V62.4H37.762s-.562 8.346-4.962 8.8l1.8 1.8 3.158-.564v1.015h15.9v-1.014l3.051.563z" transform="translate(-27.499 -62.4)"/><path id="パス_257" data-name="パス 257" class="cls-2" d="M62.835 72.781H29.341a1.252 1.252 0 0 1-1.241-1.24 1.252 1.252 0 0 1 1.241-1.241h33.494a1.252 1.252 0 0 1 1.241 1.241 1.252 1.252 0 0 1-1.241 1.24z" transform="translate(-28.1 -61.391)"/></g><g id="グループ化_135" data-name="グループ化 135" transform="translate(13.195 22.443)"><path id="パス_258" data-name="パス 258" class="cls-2" d="M11.813 22.568A15.138 15.138 0 0 0 11.7 20.2h5.526c2.256 0 3.722.451 4.849 1.579a7.238 7.238 0 0 1 2.03 5.526 7.407 7.407 0 0 1-2.143 5.752c-1.128 1.128-2.594 1.579-4.737 1.579H11.7a15.138 15.138 0 0 0 .113-2.368v-9.7zm5.3 9.924a3.865 3.865 0 0 0 3.158-1.128 5.514 5.514 0 0 0 1.353-4.06 5.391 5.391 0 0 0-1.241-3.834 4.122 4.122 0 0 0-3.271-1.128h-2.818v10.15z" transform="translate(-11.7 -19.862)"/><path id="パス_259" data-name="パス 259" class="cls-2" d="M34.863 34.774a13.722 13.722 0 0 0-2.368-.113H24.6a14.419 14.419 0 0 0 .113-2.368v-9.812a16.656 16.656 0 0 0-.113-2.368h7.669A16.655 16.655 0 0 0 34.637 20v2.368a13.722 13.722 0 0 0-2.368-.113h-5.188v3.722h4.4a15.882 15.882 0 0 0 2.368-.113v2.368a14.419 14.419 0 0 0-2.368-.113h-4.4v4.286h5.413a12.99 12.99 0 0 0 2.256-.113v2.481z" transform="translate(-10.052 -19.887)"/><path id="パス_260" data-name="パス 260" class="cls-2" d="M37.794 30.275a4.421 4.421 0 0 0 .451 1.579 3.236 3.236 0 0 0 2.594 1.015c1.8 0 2.932-.789 2.932-2.143a1.855 1.855 0 0 0-.9-1.692c-.564-.338-.677-.338-3.158-.9A6.093 6.093 0 0 1 37 27a3.489 3.489 0 0 1-1.353-2.932c0-2.481 2.03-4.173 5.075-4.173a5.6 5.6 0 0 1 4.511 1.8 4.726 4.726 0 0 1 .9 2.143l-2.594.338a2.121 2.121 0 0 0-.564-1.241 2.8 2.8 0 0 0-2.256-.9c-1.579 0-2.594.789-2.594 1.917 0 .789.451 1.241 1.241 1.692.451.113.564.226 2.594.677a8.308 8.308 0 0 1 2.94 1.135 3.7 3.7 0 0 1 1.466 3.158 4.37 4.37 0 0 1-1.128 3.045 5.92 5.92 0 0 1-4.286 1.353 7.708 7.708 0 0 1-3.834-.9 4.147 4.147 0 0 1-1.579-2.03 14.711 14.711 0 0 1-.338-1.466z" transform="translate(-8.697 -19.9)"/><path id="パス_261" data-name="パス 261" class="cls-2" d="M49.819 20.3a13.723 13.723 0 0 0-.113 2.368v9.7a14.42 14.42 0 0 0 .113 2.368H47a13.723 13.723 0 0 0 .113-2.368v-9.7A14.42 14.42 0 0 0 47 20.3h2.819z" transform="translate(-7.19 -19.849)"/><path id="パス_262" data-name="パス 262" class="cls-2" d="M63.493 31.039a15.138 15.138 0 0 0 .113 2.368 10.293 10.293 0 0 1-2.932 1.241 10.468 10.468 0 0 1-2.707.338 6.228 6.228 0 0 1-5.075-2.03 8.507 8.507 0 0 1-1.692-5.525c0-2.819 1.015-5.075 2.932-6.316a6.612 6.612 0 0 1 4.06-1.015 5.793 5.793 0 0 1 4.173 1.579 5.013 5.013 0 0 1 1.353 2.143l-2.481.677c-.564-1.692-1.466-2.256-3.271-2.256a3.938 3.938 0 0 0-2.707 1.128 5.514 5.514 0 0 0-1.353 4.06 6.35 6.35 0 0 0 1.241 4.169 3.719 3.719 0 0 0 3.153 1.244 5.338 5.338 0 0 0 3.045-.789v-3.046h-1.01a7.511 7.511 0 0 0-1.8.113v-2.368a11.012 11.012 0 0 0 2.143.113h.9a13.648 13.648 0 0 0 2.143-.113 12.991 12.991 0 0 0-.113 2.256v2.03z" transform="translate(-6.653 -19.874)"/><path id="パス_263" data-name="パス 263" class="cls-2" d="M73.76 34.648c-.338-.564-.677-1.128-1.128-1.917l-4.624-6.992c-.338-.564-.789-1.353-1.241-2.143a4.225 4.225 0 0 0 .113.9v7.443a17.562 17.562 0 0 0 .113 2.707H64.4a16.8 16.8 0 0 0 .113-2.707v-9.358a15.883 15.883 0 0 0-.113-2.368h2.819a6.131 6.131 0 0 0 1.128 1.917l4.511 6.879a23.856 23.856 0 0 1 1.353 2.256 19.114 19.114 0 0 1-.113-2.594v-6.09a15.924 15.924 0 0 0-.113-2.481h2.595a15.191 15.191 0 0 0-.113 2.481v9.812a14.42 14.42 0 0 0 .113 2.368h-2.82z" transform="translate(-4.966 -19.874)"/></g></svg>