<svg xmlns="http://www.w3.org/2000/svg" viewBox="0 0 88.012 97.2"><defs><style>.cls-1{fill:#6ee5b7}</style></defs><g id="グループ化_350" data-name="グループ化 350" transform="translate(-1.005 -2.2)"><path id="パス_361" data-name="パス 361" class="cls-1" d="M66.828 13.21c-.163 0-.163.163-.325.325L9.381 80.585l-.488.488-3.418 3.906a7.436 7.436 0 0 0 .814 10.415 7.307 7.307 0 0 0 10.411-.977l3.418-3.906.488-.488 57.125-67.048c.163-.163.163-.163.163-.325l5.37-14.972a1.845 1.845 0 0 0-2.441-2.116z" transform="translate(1.706 2.009)"/><path id="長方形_917" data-name="長方形 917" transform="rotate(40.458 -97.517 59.435)" fill="#fff" d="M0 0h14.647v2.767H0z"/><g id="グループ化_349" data-name="グループ化 349" transform="translate(1.005 2.2)"><path id="パス_362" data-name="パス 362" class="cls-1" d="M33.382 34.1c-.651-2.767-1.3-10.09-5.045-13.833-3.906-4.068-5.859-3.255-12.694-5.7S3.438 2.2 3.438 2.2s-8.951 18.715 7.486 35.314c3.743 3.743 11.066 4.557 13.833 5.37.976-1.301 7.486-7.648 8.625-8.784z" transform="translate(-1.005 -2.2)"/><path id="パス_363" data-name="パス 363" class="cls-1" d="M16.6 32.99l47.845 48.659.325.325L67.7 84.9c2.278 2.278 6.347 1.953 9.113-.814s3.255-6.835.976-9.113l-2.767-2.929-.325-.325L26.853 22.9c-.163 0-10.253 9.927-10.253 10.09z" transform="translate(8.779 10.787)"/></g></g></svg>