<svg xmlns="http://www.w3.org/2000/svg" viewBox="0 0 96.827 122.376"><defs><style>.cls-1{fill:#6ee5b7}</style><clipPath id="clip-path"><path id="長方形_52" data-name="長方形 52" class="cls-1" d="M0 0h58.723v77.195H0z"/></clipPath></defs><g id="グループ化_131" data-name="グループ化 131" transform="rotate(19 17.39 103.922)" opacity=".802"><g id="グループ化_130" data-name="グループ化 130" transform="translate(3.171 14.888)"><g id="グループ化_129" data-name="グループ化 129" clip-path="url(#clip-path)"><g id="グループ化_53" data-name="グループ化 53" transform="translate(70.854 37.357)"><path id="パス_195" data-name="パス 195" class="cls-1" d="M60.73 39.83h4.687V37.9H53.7v1.93h7.03" transform="translate(-53.7 -37.9)"/></g><g id="グループ化_54" data-name="グループ化 54" transform="translate(28.672 24.813)"><path id="パス_196" data-name="パス 196" class="cls-1" d="M38.539 34.176c-.827-.276-6.479-2.619-6.892-3.722a28.849 28.849 0 0 1-3.447 2.481 14.741 14.741 0 0 1-3.722 1.241L23.1 32.384a13.243 13.243 0 0 0 7.444-3.584l2.343.138c.138 0 .414 0 .414.276a.135.135 0 0 1-.138.138 16.136 16.136 0 0 0 6.617 2.895z" transform="translate(-23.1 -28.8)"/></g><g id="グループ化_55" data-name="グループ化 55" transform="translate(9.649 28.397)"><path id="パス_197" data-name="パス 197" class="cls-1" d="M9.3 38.844a35.443 35.443 0 0 0 4.135-7.444l2.206.689a.3.3 0 0 1 .276.276.481.481 0 0 1-.138.276c-.414.138-.414.138-.551.414a38.658 38.658 0 0 1-3.86 6.755z" transform="translate(-9.3 -31.4)"/></g><g id="グループ化_56" data-name="グループ化 56" transform="translate(14.75 25.088)"><path id="パス_198" data-name="パス 198" class="cls-1" d="M15.481 29l2.343.138c.138 0 .414 0 .414.276a.481.481 0 0 1-.138.276l-.276.276v12.82c0 1.378-.551 1.93-3.722 1.93L13 42.509a9.889 9.889 0 0 0 1.792.138.62.62 0 0 0 .689-.689z" transform="translate(-13 -29)"/></g><g id="グループ化_57" data-name="グループ化 57" transform="translate(20.402 28.397)"><path id="パス_199" data-name="パス 199" class="cls-1" d="M21.649 40.084a41.683 41.683 0 0 1-4.549-7.72l2.068-.965a31.012 31.012 0 0 0 4.687 7.306z" transform="translate(-17.1 -31.4)"/></g><g id="グループ化_58" data-name="グループ化 58" transform="translate(28.259 24.813)"><path id="パス_200" data-name="パス 200" class="cls-1" d="M24.454 34.452L22.8 32.384h.276A13.767 13.767 0 0 0 30.52 28.8l2.48.138c.138 0 .551.138.551.414v.138a17.092 17.092 0 0 0 6.479 2.757h.276l-1.516 2.067h-.138c-.827-.276-1.792-.551-3.171-1.1v.827h-7.305v-.827a23.541 23.541 0 0 1-3.722 1.241zm-.827-1.93l1.1 1.378a15.746 15.746 0 0 0 3.584-1.241l.276-.138v.965h6.617v-1.1l.276.138a27.881 27.881 0 0 0 3.308 1.241l1.1-1.378a19.8 19.8 0 0 1-6.479-2.895l-.276-.138.276-.138h-.138l-2.206-.138a15.013 15.013 0 0 1-7.438 3.444z" transform="translate(-22.8 -28.8)"/></g><g id="グループ化_59" data-name="グループ化 59" transform="translate(28.81 30.327)"><path id="パス_201" data-name="パス 201" class="cls-1" d="M38.225 44.1h-2.481v-.41h-6.065v.41H27.2v-3.3a8.772 8.772 0 0 1-1.792 3.033l-.138.138-2.07-1.246.138-.138c1.93-2.068 2.343-3.86 2.343-7.444V32.8h11.855v5.79h-9.649a1.042 1.042 0 0 1-.138.551h10.476zm-2.068-.414h1.654v-4.407H27.335V39c0-.276.138-.689.138-.827v-.138h9.649v-4.959H25.957v2.068c0 3.584-.276 5.376-2.206 7.444l1.378.827a9.028 9.028 0 0 0 2.071-4.136h.414v4.273h1.654v-.414h6.892z" transform="translate(-23.2 -32.8)"/></g><g id="グループ化_60" data-name="グループ化 60" transform="translate(33.084 31.705)"><path id="パス_202" data-name="パス 202" class="cls-1" d="M34.3 34.9h-8v-1.1h8zm-7.582-.414h7.168v-.414h-7.172z" transform="translate(-26.3 -33.8)"/></g><g id="グループ化_61" data-name="グループ化 61" transform="translate(33.084 33.773)"><path id="パス_203" data-name="パス 203" class="cls-1" d="M34.3 36.265h-8V35.3h8zm-7.582-.414h7.168v-.276h-7.172v.276z" transform="translate(-26.3 -35.3)"/></g><g id="グループ化_62" data-name="グループ化 62" transform="translate(34.186 26.329)"><path id="パス_204" data-name="パス 204" class="cls-1" d="M33.441 32.106H27.1l.551-.414a10.161 10.161 0 0 0 2.206-1.654l.138-.138.138.138a15.263 15.263 0 0 0 2.481 1.654zm-4.963-.414h3.446a20.165 20.165 0 0 1-1.792-1.241 6.48 6.48 0 0 1-1.654 1.241z" transform="translate(-27.1 -29.9)"/></g><g id="グループ化_63" data-name="グループ化 63" transform="translate(34.876 38.046)"><path id="パス_205" data-name="パス 205" class="cls-1" d="M34.492 40.054H27.6V38.4h6.892zm-6.479-.414h6.065v-.965h-6.064z" transform="translate(-27.6 -38.4)"/></g><g id="グループ化_64" data-name="グループ化 64" transform="translate(47.833 25.226)"><path id="パス_206" data-name="パス 206" class="cls-1" d="M43.065 41.92c-.551 2.343-1.1 3.033-4.411 2.895l-.689-2.343a5.924 5.924 0 0 0 1.654.276 1.206 1.206 0 0 0 1.241-.827c.276-1.1.414-2.481.551-3.171h-2.205a1.243 1.243 0 0 0-.138.689L37 39.025a23.336 23.336 0 0 0 .827-6.479l1.1.414h2.481v-1.792h-4V29.1h6.065v5.79h-3.86a7.282 7.282 0 0 0-.138 1.792h4.135c-.138 2.343-.276 3.308-.414 4.687" transform="translate(-37 -29.1)"/></g><g id="グループ化_65" data-name="グループ化 65" transform="translate(53.899 24.951)"><path id="パス_207" data-name="パス 207" class="cls-1" d="M41.4 41.444h1.378A125.781 125.781 0 0 0 45.122 28.9l2.068.276c.414 0 .827.138.827.414 0 .138-.138.138-.138.276a.506.506 0 0 1-.414.138c-.138.138-.551 2.343-.689 2.757-.138.551-1.241 5.376-1.93 8.409 1.1-.138 1.654-.138 3.446-.414a27.222 27.222 0 0 0-1.654-4.549l2.206-.551a40.712 40.712 0 0 1 2.481 8.271l-2.206.551c-.138-.551-.138-1.1-.414-2.068-1.516.276-1.93.414-5.652.965-.276 0-.276.138-.414.276s-.138.276-.414.276-.276-.138-.414-.551l-.411-1.518z" transform="translate(-41.4 -28.9)"/></g><g id="グループ化_66" data-name="グループ化 66" transform="translate(66.167 24.813)"><path id="パス_208" data-name="パス 208" class="cls-1" d="M62.155 45.2h-2.481v-1.93h-4.825v-1.788h-1.654v-.827h-.689v1.1H50.3V29.214h5.1v11.992h4.273v-.551h-3.446V33.9h3.446v-.551h-2.894v-1.241h-1.1V28.8h10.749v3.308h-1.24v1.241h-3.033v.551h3.584v6.755h-3.584v.551h4.411v1.93h-4.411zm-2.068-.414h1.654v-1.374h-1.654zm0-1.792h1.654v-.138h4.411V41.62h-4.411v-.138h-1.654v.138H55.4v1.241h4.825V43zm-9.374-1.654h1.378v-1.1h1.516v.827h1.378v-11.44h-4.409v11.717zm9.374-.276h1.654v-.827h3.584v-6.061h-3.584V32.8h3.033v-.965h1.241v-2.484H56.09v2.481h1.1v1.241h2.895v1.378h-3.444v6.065h3.446zm3.722-1.792h-2.068V37.76h2.068zm-1.654-.414H63.4v-.689h-1.245zm-2.068.414h-1.93V37.76h2.068v1.516zm-1.516-.414h1.241v-.689h-1.241zM53.608 39h-1.516v-3.17h1.516zm-1.1-.414h.689v-2.48h-.689zm11.3-1.654h-2.067v-1.515h2.068zm-1.654-.414H63.4v-.688h-1.245zm-2.068.414h-1.93v-1.515h2.068v1.516zm-1.516-.414h1.241v-.688h-1.24zm-4.963-2.206h-1.515v-3.169h1.516zm-1.1-.414h.689v-2.341h-.689zm11.855-1.93h-2.621v-1.652h2.619zm-2.206-.414h1.792v-.824h-1.793zm-2.068.414h-2.482v-1.652h2.481zm-1.93-.414h1.654v-.824h-1.655z" transform="translate(-50.3 -28.8)"/></g><g id="グループ化_67" data-name="グループ化 67" transform="translate(87.809 32.808)"><path id="パス_209" data-name="パス 209" class="cls-1" d="M72.341 39.425a5.269 5.269 0 0 1-1.93 1.516l-.689-.827a2.749 2.749 0 0 0 1.516-.965 2.331 2.331 0 0 0 .551-1.654 2.566 2.566 0 0 0-.551-1.516 1.782 1.782 0 0 0-1.378-.551 10.835 10.835 0 0 1-1.1 3.722c-.276.551-.689 1.241-1.1 1.241A2.483 2.483 0 0 1 66 38.184a3.592 3.592 0 0 1 3.722-3.584 3.007 3.007 0 0 1 3.171 3.033 3.909 3.909 0 0 1-.552 1.792zm-4.549-3.308a2.978 2.978 0 0 0-.827 1.93 1.141 1.141 0 0 0 .551 1.1c.414 0 1.1-2.206 1.378-3.584a1.648 1.648 0 0 0-1.102.553z" transform="translate(-66 -34.6)"/></g><g id="グループ化_75" data-name="グループ化 75" transform="translate(23.986 47.42)"><g id="グループ化_68" data-name="グループ化 68"><path id="パス_210" data-name="パス 210" class="cls-1" d="M23.284 51.4c-.138 0-.138 0-.276.138a16.431 16.431 0 0 1-2.068 2.481L19.7 53.2a8.084 8.084 0 0 0 2.481-2.757l.965.689s.276.138.276.276c0-.143-.138-.143-.138-.008zm2.343-2.068v4.687c0 1.1-.276 1.378-2.343 1.378l-.414-1.378c.276 0 .551.138.965.138s.414-.138.414-.414v-4.27h-3.584v-1.24h3.584v-2.206l1.378.138c.138 0 .276 0 .276.138a.135.135 0 0 1-.138.138l-.138.138v1.516h3.584v1.241zm2.895 4.273a11.671 11.671 0 0 0-1.93-2.619l.965-.827a9.694 9.694 0 0 1 2.068 2.481zm.827-6.2a1.1 1.1 0 0 1 0-2.206 1.1 1.1 0 1 1 0 2.206zm0-1.792a.689.689 0 1 0 .689.689.738.738 0 0 0-.689-.688z" transform="translate(-19.7 -45.2)"/></g><g id="グループ化_69" data-name="グループ化 69" transform="translate(13.096 4.687)"><path id="パス_211" data-name="パス 211" class="cls-1" d="M29.2 50.116V48.6h8.822v1.516z" transform="translate(-29.2 -48.6)"/></g><g id="グループ化_70" data-name="グループ化 70" transform="translate(28.259 .551)"><path id="パス_212" data-name="パス 212" class="cls-1" d="M45.3 52.492a18.192 18.192 0 0 0-3.584-2.481v5.376H40.2V45.6l1.516.276s.276 0 .276.138-.276.276-.276.276v3.17l.551-.965a7.677 7.677 0 0 1 2.068 1.1c.965.689 1.378 1.1 1.93 1.516z" transform="translate(-40.2 -45.6)"/></g><g id="グループ化_71" data-name="グループ化 71" transform="translate(37.908 1.241)"><path id="パス_213" data-name="パス 213" class="cls-1" d="M55.333 47.754a13.608 13.608 0 0 1-2.481 4.546 12.126 12.126 0 0 1-3.308 2.757l-1.378-1.1a10.492 10.492 0 0 0 5.652-6.341H47.2v-1.378h6.892c.138 0 .276-.138.414-.138l1.241 1.1a1.9 1.9 0 0 0-.414.554z" transform="translate(-47.2 -46.1)"/></g><g id="グループ化_72" data-name="グループ化 72" transform="translate(50.866 2.619)"><path id="パス_214" data-name="パス 214" class="cls-1" d="M61.7 49.995l.138 4.135c0 .965-1.1 1.1-1.516 1.1h-.551l-.414-1.241h.689c.276 0 .689 0 .689-.276V51.1a14.479 14.479 0 0 1-3.308 2.895l-.827-.827a5.766 5.766 0 0 0 2.068-1.378 11.365 11.365 0 0 0 1.516-1.654h-3.17v-1.1h3.722V47.1l1.1.138c.138 0 .276 0 .276.138a.481.481 0 0 1-.138.276v1.378h1.93v1.1H61.7z" transform="translate(-56.6 -47.1)"/></g><g id="グループ化_73" data-name="グループ化 73" transform="translate(63.41 .414)"><path id="パス_215" data-name="パス 215" class="cls-1" d="M67.354 46.051l-.138.138v5.238H65.7v-5.79l1.516.138c.138 0 .276 0 .276.138zm5.1 0c-.138.138-.138.138-.138.551v.827a13.281 13.281 0 0 1-.414 4.549 6.354 6.354 0 0 1-3.583 3.722l-1.1-1.241C69.7 53.5 70.8 52.255 70.8 48.533a28.041 28.041 0 0 0-.138-3.033l1.516.138s.276 0 .276.138c.138 0 .138.138.001.275z" transform="translate(-65.7 -45.5)"/></g><g id="グループ化_74" data-name="グループ化 74" transform="translate(74.576 .138)"><path id="パス_216" data-name="パス 216" class="cls-1" d="M80.141 49.16l.138 4.687c0 1.516-.827 1.654-2.481 1.654l-.551-1.516a7.773 7.773 0 0 0 .965.138c.551 0 .689-.138.689-.414V50.4a12.486 12.486 0 0 1-4 3.584l-1.1-1.1a10.645 10.645 0 0 0 4.273-3.86h-4v-1.381h4.687V45.3l1.378.138c.138 0 .276 0 .276.138a.135.135 0 0 1-.138.138l-.138.138v1.792h2.481v1.378h-2.479z" transform="translate(-73.8 -45.3)"/></g></g><g id="グループ化_88" data-name="グループ化 88" transform="translate(102.559 23.159)"><g id="グループ化_77" data-name="グループ化 77" transform="translate(1.551 11.166)"><g id="グループ化_76" data-name="グループ化 76"><path id="パス_217" data-name="パス 217" class="cls-1" d="M78.755 43.144a.506.506 0 0 1-.414-.138c-.276-.138-.414-.276-.414-.551a.626.626 0 0 1 0-.689L81.1 35.7l1.654.689-3.171 6.065c-.138.138-.276.414-.551.414-.001.276-.139.276-.277.276zm-.138-.551h.276a.135.135 0 0 0 .138-.138l2.895-5.655-.551-.276-2.895 5.655v.276l.138.138z" transform="translate(-77.825 -35.7)"/></g></g><g id="グループ化_79" data-name="グループ化 79" transform="translate(9.046 11.338)"><g id="グループ化_78" data-name="グループ化 78"><path id="パス_218" data-name="パス 218" class="cls-1" d="M86.9 42.821a.982.982 0 0 1-.827-.414l-2.757-5.376a.868.868 0 0 1 .414-1.1.626.626 0 0 1 .689 0 1.9 1.9 0 0 1 .551.414l2.757 5.238a.626.626 0 0 1 0 .689 1.9 1.9 0 0 1-.414.551zm-2.757-6.479H84c-.138.138-.276.276-.138.414l2.757 5.376c.138.138.276.276.414.138a.135.135 0 0 0 .138-.138v-.276l-2.757-5.238c0-.138 0-.276-.276-.276z" transform="translate(-83.262 -35.825)"/></g></g><g id="グループ化_81" data-name="グループ化 81" transform="translate(6.479)"><g id="グループ化_80" data-name="グループ化 80"><path id="パス_219" data-name="パス 219" class="cls-1" d="M82.778 30.771h-.965a.3.3 0 0 1-.276-.276l-.137-2.068a.829.829 0 0 1 .138-.551c.138-.138.276-.276.414-.276h.414c.138 0 .414.138.414.276.138.138.138.276.138.551l-.138 2.068c.274.276.136.276-.002.276zm-.689-.551h.551l.138-1.792v-.138h-.689v1.93z" transform="translate(-81.4 -27.6)"/></g></g><g id="グループ化_84" data-name="グループ化 84" transform="translate(4.687 2.068)"><g id="グループ化_82" data-name="グループ化 82" transform="translate(.276 .276)"><path id="パス_220" data-name="パス 220" class="cls-1" d="M84.987 30.954h-4.273a.366.366 0 0 1-.414-.414v-.827a.366.366 0 0 1 .414-.414h4.411a.366.366 0 0 1 .414.414v.827a.739.739 0 0 1-.552.414z" transform="translate(-80.3 -29.3)"/></g><g id="グループ化_83" data-name="グループ化 83"><path id="パス_221" data-name="パス 221" class="cls-1" d="M85.063 31.306h-4.274a.651.651 0 0 1-.689-.689v-.827a.651.651 0 0 1 .689-.689H85.2a.651.651 0 0 1 .689.689v.827a1.018 1.018 0 0 1-.826.689zm-2.206-1.654h-2.206a.135.135 0 0 0-.138.138v.827a.135.135 0 0 0 .138.138h4.273a.135.135 0 0 0 .138-.138v-.827c0-.138 0-.138-.138-.138z" transform="translate(-80.1 -29.1)"/></g></g><g id="グループ化_87" data-name="グループ化 87" transform="translate(0 2.7)"><g id="グループ化_85" data-name="グループ化 85" transform="translate(.238 .295)"><path id="パス_222" data-name="パス 222" class="cls-1" d="M91.66 40.425a63.531 63.531 0 0 0-14.474 0c-.138 0-.414-.138-.276-.276.689-1.93.689-8.133 0-10.063 0-.138.138-.414.276-.276a63.531 63.531 0 0 0 14.474 0c.138 0 .414.138.276.276-.689 1.93-.689 8.133 0 10.063.138.138-.136.413-.276.276z" transform="translate(-76.873 -29.773)"/></g><g id="グループ化_86" data-name="グループ化 86"><path id="パス_223" data-name="パス 223" class="cls-1" d="M77.251 40.781a.506.506 0 0 1-.414-.138c-.138-.138-.138-.276-.138-.551.689-1.93.689-8 0-9.787a.829.829 0 0 1 .138-.551c.138-.138.276-.276.551-.138a62.33 62.33 0 0 0 14.336 0 .829.829 0 0 1 .551.138v.546c-.689 1.93-.689 8 0 9.787a.829.829 0 0 1-.138.551c-.138.138-.276.276-.551.138a62.328 62.328 0 0 0-14.336 0zm0-10.614a25.42 25.42 0 0 1 0 10.2 63.532 63.532 0 0 1 14.474 0 25.42 25.42 0 0 1 0-10.2 63.531 63.531 0 0 1-14.474 0z" transform="translate(-76.7 -29.559)"/></g></g></g><g id="グループ化_91" data-name="グループ化 91" transform="translate(99.389 22.469)"><g id="グループ化_89" data-name="グループ化 89" transform="translate(.172 .185)"><path id="パス_224" data-name="パス 224" class="cls-1" d="M74.628 27.876l.276-.414a.48.48 0 0 1 .689-.138l5.1 3.308-1.516 1.93-4.549-4a.626.626 0 0 1 0-.686z" transform="translate(-74.525 -27.234)"/></g><g id="グループ化_90" data-name="グループ化 90"><path id="パス_225" data-name="パス 225" class="cls-1" d="M79.225 32.89l-4.549-4.135c-.138-.138-.276-.276-.276-.414a.829.829 0 0 1 .138-.551l.276-.414c.138-.138.276-.276.414-.276a.829.829 0 0 1 .551.138l5.1 3.308zm-4.411-4.963c0 .138-.138.138-.138.276s.138.138.138.276l4.411 3.86 1.375-1.793-4.963-3.171a.341.341 0 0 0-.551.138z" transform="translate(-74.4 -27.1)"/></g></g><g id="グループ化_94" data-name="グループ化 94" transform="translate(104.489 26.053)"><g id="グループ化_92" data-name="グループ化 92" transform="translate(.214 .352)"><path id="パス_226" data-name="パス 226" class="cls-1" d="M79.833 32.774l1.241-1.516-1.241-1.241a.191.191 0 0 0-.276 0l-1.241 1.654a.191.191 0 0 0 0 .276l1.516.827z" transform="translate(-78.256 -29.956)"/></g><g id="グループ化_93" data-name="グループ化 93"><path id="パス_227" data-name="パス 227" class="cls-1" d="M79.892 33.008l-1.654-.965c-.138-.138-.138-.276-.138-.551l1.241-1.654c0-.138.138-.138.276-.138h.276l1.378 1.378-.138.138zm-.276-2.895l-1.378 1.654v.138l1.378.827 1.1-1.378-1.1-1.241z" transform="translate(-78.1 -29.7)"/></g></g><g id="グループ化_96" data-name="グループ化 96" transform="translate(106.557 27.722)"><g id="グループ化_95" data-name="グループ化 95"><path id="パス_228" data-name="パス 228" class="cls-1" d="M83.6 36.134l-.138-.551a.941.941 0 0 0-.551-.551 5.971 5.971 0 0 0-.689-.138 4.025 4.025 0 0 1-1.93-.689 2.141 2.141 0 0 1-.689-1.792l1.1-1.378h.138a1.8 1.8 0 0 1 1.792.276c1.654 1.241 1.241 4.273 1.241 4.411zm-3.86-3.722a1.76 1.76 0 0 0 .551 1.516 6.825 6.825 0 0 0 1.792.551c.276 0 .551.138.827.138a1.9 1.9 0 0 1 .551.414c0-.827 0-2.895-1.1-3.722a1.54 1.54 0 0 0-1.516-.138z" transform="translate(-79.6 -30.911)"/></g></g><g id="グループ化_98" data-name="グループ化 98" transform="translate(107.246 28.259)"><g id="グループ化_97" data-name="グループ化 97"><path id="パス_229" data-name="パス 229" class="cls-1" d="M80.651 34.195h.414a1.143 1.143 0 0 0 1.1-.414 1.34 1.34 0 0 0 .138-1.241.867.867 0 0 1 0-.827c.138-.138.138-.138.276-.138l-.276-.276h-.138c-.138 0-.138.138-.276.276a1.34 1.34 0 0 0-.138 1.241.867.867 0 0 1 0 .827c-.138.276-.414.276-.827.276a1.748 1.748 0 0 0-.827.138h.138c.141 0 .279.138.416.138z" transform="translate(-80.1 -31.3)"/></g></g><g id="グループ化_100" data-name="グループ化 100" transform="translate(109.949 32.946)"><g id="グループ化_99" data-name="グループ化 99"><path id="パス_230" data-name="パス 230" class="cls-1" d="M82.115 35.665a.616.616 0 1 0 1.1.551c.414-.827-.551-1.516-.551-1.516a1.845 1.845 0 0 1-.138.689c-.273.138-.411.138-.411.276z" transform="translate(-82.061 -34.7)"/></g></g><g id="グループ化_102" data-name="グループ化 102" transform="translate(109.038 33.635)"><g id="グループ化_101" data-name="グループ化 101"><path id="パス_231" data-name="パス 231" class="cls-1" d="M81.538 35.476a.308.308 0 0 0 .276.551.806.806 0 0 0 .276-.827.481.481 0 0 1-.276.138.427.427 0 0 1-.276.138z" transform="translate(-81.4 -35.2)"/></g></g><g id="グループ化_103" data-name="グループ化 103" transform="translate(87.947 39.563)"><path id="パス_232" data-name="パス 232" class="cls-1" d="M67.478 40.327h-.965a.44.44 0 0 1-.414-.414.44.44 0 0 1 .414-.414h.965a.44.44 0 0 1 .414.414.366.366 0 0 1-.414.414z" transform="translate(-66.1 -39.5)"/></g><g id="グループ化_104" data-name="グループ化 104" transform="translate(89.464 38.46)"><path id="長方形_48" data-name="長方形 48" class="cls-1" d="M0 0h.276v1.378H0z"/></g><g id="グループ化_105" data-name="グループ化 105" transform="translate(92.221 39.563)"><path id="パス_233" data-name="パス 233" class="cls-1" d="M69.614 40.327h.965a.44.44 0 0 0 .414-.414.44.44 0 0 0-.414-.414h-.965a.44.44 0 0 0-.414.414.366.366 0 0 0 .414.414z" transform="translate(-69.2 -39.5)"/></g><g id="グループ化_106" data-name="グループ化 106" transform="translate(92.177 38.461)"><path id="長方形_49" data-name="長方形 49" class="cls-1" transform="rotate(180 .138 .689)" d="M0 0h.276v1.378H0z"/></g><g id="グループ化_110" data-name="グループ化 110" transform="translate(7.995 50.59)"><g id="グループ化_107" data-name="グループ化 107" transform="translate(0 .276)"><path id="パス_234" data-name="パス 234" class="cls-1" d="M11.822 51.146v1.1L8.1 50.181v-.414l3.722-2.067v1.1l-2.344 1.243z" transform="translate(-8.1 -47.7)"/></g><g id="グループ化_108" data-name="グループ化 108" transform="translate(4.411 .138)"><path id="パス_235" data-name="パス 235" class="cls-1" d="M12.4 48.014v.276a1.617 1.617 0 0 1 1.516-.689 2.073 2.073 0 0 1 1.516.551 2.339 2.339 0 0 1 .551 1.792 1.994 1.994 0 0 1-2.068 2.206 1.779 1.779 0 0 1-1.515-.69v2.068h-1.1v-5.79h.965v.276zm1.378.414a1.482 1.482 0 0 0-1.378 1.378 1.417 1.417 0 0 0 1.378 1.516c.689 0 1.241-.551 1.241-1.516.003-.828-.411-1.379-1.238-1.379z" transform="translate(-11.3 -47.6)"/></g><g id="グループ化_109" data-name="グループ化 109" transform="translate(9.649)"><path id="パス_236" data-name="パス 236" class="cls-1" d="M15.1 48.6v-1.1l3.722 2.068v.414L15.1 52.049v-1.1l2.343-1.241z" transform="translate(-15.1 -47.5)"/></g></g><g id="グループ化_115" data-name="グループ化 115" transform="translate(111.106 49.074)"><g id="グループ化_111" data-name="グループ化 111" transform="translate(0 1.792)"><path id="パス_237" data-name="パス 237" class="cls-1" d="M86.622 51.146v1.1L82.9 50.181v-.414l3.722-2.067v1.1l-2.343 1.241z" transform="translate(-82.9 -47.7)"/></g><g id="グループ化_112" data-name="グループ化 112" transform="translate(4.135)"><path id="パス_238" data-name="パス 238" class="cls-1" d="M89.622 46.4l-2.757 7.168H85.9l2.757-7.168z" transform="translate(-85.9 -46.4)"/></g><g id="グループ化_113" data-name="グループ化 113" transform="translate(8.409 1.654)"><path id="パス_239" data-name="パス 239" class="cls-1" d="M90.1 48.014v.276a1.616 1.616 0 0 1 1.516-.689 2.073 2.073 0 0 1 1.516.551 2.339 2.339 0 0 1 .551 1.792 1.994 1.994 0 0 1-2.068 2.206 1.779 1.779 0 0 1-1.515-.69v2.068H89v-5.79h.965v.276zm1.378.414a1.482 1.482 0 0 0-1.378 1.378 1.417 1.417 0 0 0 1.378 1.516c.689 0 1.241-.551 1.241-1.516a1.273 1.273 0 0 0-1.238-1.379z" transform="translate(-89 -47.6)"/></g><g id="グループ化_114" data-name="グループ化 114" transform="translate(13.647 1.516)"><path id="パス_240" data-name="パス 240" class="cls-1" d="M92.8 48.6v-1.1l3.722 2.068v.414L92.8 52.049v-1.1l2.343-1.241z" transform="translate(-92.8 -47.5)"/></g></g><g id="グループ化_122" data-name="グループ化 122" transform="translate(32.808 16.68)"><g id="グループ化_116" data-name="グループ化 116" transform="translate(0 .138)"><path id="パス_241" data-name="パス 241" class="cls-1" d="M26.1 25.619c.689-.414.827-.551 1.1-.689v-.551h-.689v-.551h.689V23h.551l-.138.138v.551c.276 0 .414-.138.689-.276v.551a1.243 1.243 0 0 1-.689.138v.414a5.97 5.97 0 0 1 .689-.138.983.983 0 0 1 1.1.965c0 .551-.276.965-.827.965a.5.5 0 0 1-.551-.551l.414-.138a.3.3 0 0 0 .276.276c.138 0 .276-.138.276-.414a.5.5 0 0 0-.551-.551 5.971 5.971 0 0 0-.689.138v1.241l-.414.138-.689-.689-.138.138zm1.1-.138c-.138.138-.276.138-.414.276l.414.414zm2.206-.827a8.164 8.164 0 0 0-.827-.551l.276-.414a1.266 1.266 0 0 1 .827.551z" transform="translate(-26.1 -23)"/></g><g id="グループ化_117" data-name="グループ化 117" transform="translate(6.065)"><path id="パス_242" data-name="パス 242" class="cls-1" d="M32.706 23.451c-.414.276-.414.414-1.378 1.241l-.138.138v.138l1.378 1.378-.414.414a7.285 7.285 0 0 0-1.241-1.516.739.739 0 0 1-.414-.551c0-.276.138-.276.414-.551l1.241-1.242.414.276a.427.427 0 0 1 .138.276zm.414 1.1l-.414-.414.138-.276.414.414zm.275-.551l-.414-.414.138-.276.414.414z" transform="translate(-30.5 -22.9)"/></g><g id="グループ化_118" data-name="グループ化 118" transform="translate(11.441 .276)"><path id="パス_243" data-name="パス 243" class="cls-1" d="M35.227 26.684l-.276-.551h.549c.827 0 1.1-.414 1.1-.827 0-.276-.276-.414-.551-.414a1.864 1.864 0 0 0-1.241.689l-.414-.138c0-.551.276-1.378.276-1.654l.551.138c-.138.276-.138.689-.276.965a1.39 1.39 0 0 1 1.1-.414.936.936 0 0 1 .965.965c.285 1.241-1.232 1.241-1.783 1.241zm.965-2.757a3.294 3.294 0 0 0-.965-.414l.138-.414c.276.138.689.276.965.414z" transform="translate(-34.4 -23.1)"/></g><g id="グループ化_119" data-name="グループ化 119" transform="translate(19.299 .414)"><path id="パス_244" data-name="パス 244" class="cls-1" d="M41.754 23.614a2.956 2.956 0 0 0-.551 1.654c0 .138 0 .827.689.827s.827-.689.827-1.1a2.854 2.854 0 0 0-.414-1.516l.414-.276a2.848 2.848 0 0 0 1.241 1.516l-.276.414c-.276-.276-.414-.551-.689-.827v.689c0 1.241-.689 1.654-1.241 1.654a1.127 1.127 0 0 1-1.1-1.241 4.078 4.078 0 0 1 .276-1.378c-.276.138-.414.138-.551.276l-.276-.414a4.128 4.128 0 0 0 1.1-.551z" transform="translate(-40.1 -23.2)"/></g><g id="グループ化_120" data-name="グループ化 120" transform="translate(25.226 .276)"><path id="パス_245" data-name="パス 245" class="cls-1" d="M45.641 26.684l-.276-.414a4.252 4.252 0 0 0 1.241-.138c.138 0 .414-.276.414-.689s-.276-.551-.689-.551a1.87 1.87 0 0 0-1.516.965l-.414-.414 1.654-1.654c-.276 0-.551.138-.965.138l-.138-.551h.414a1.748 1.748 0 0 0 .827-.138c.276 0 .276-.138.551-.138l.276.414a9 9 0 0 0-.965 1.1c.138 0 .276-.138.551-.138a.942.942 0 0 1 .965.965c-.138 1.105-1.379 1.243-1.93 1.243z" transform="translate(-44.4 -23.1)"/></g><g id="グループ化_121" data-name="グループ化 121" transform="translate(31.016 .138)"><path id="パス_246" data-name="パス 246" class="cls-1" d="M50.668 24.654a2.609 2.609 0 0 0 .551.827l-.276.276a2.135 2.135 0 0 0-1.1-.276c-.276 0-.551.138-.551.414 0 .414.551.414.689.414.414 0 .689 0 .827-.138v.551h-.689q-1.241 0-1.241-.827c0-.551.414-.689.965-.689h.551c-.138-.138-.138-.276-.276-.414a4.25 4.25 0 0 1-1.378.138l-.138-.414a4.69 4.69 0 0 0 1.378-.138c0-.138-.138-.276-.138-.414a2.691 2.691 0 0 1-.965.138l-.138-.414a2.044 2.044 0 0 0 .965-.138c-.138-.276-.138-.414-.276-.551h.689a1.389 1.389 0 0 1 .138.414c.276-.138.414-.138.689-.276l.138.414c-.276.138-.414.276-.689.276 0 .138.138.138.138.276l.827-.414.138.414a2.1 2.1 0 0 1-.828.551z" transform="translate(-48.6 -23)"/></g></g><g id="グループ化_123" data-name="グループ化 123" transform="translate(1.597 43.009)"><path id="パス_247" data-name="パス 247" class="cls-1" d="M5.17 42.276l.276.689.138.138.689.138a.264.264 0 0 1 .138.414l-.551.551s-.138.138 0 .138l.14.689a.3.3 0 0 1-.276.276l-.689-.551h-.141l-.689.276c-.138.138-.276 0-.276-.276l.138-.689v-.139l-.551-.551c-.138-.138 0-.276.138-.414l.689-.138a.135.135 0 0 0 .138-.138L4.756 42c.138.138.414.138.414.276z" transform="translate(-3.459 -42)"/></g><g id="グループ化_128" data-name="グループ化 128" transform="translate(6.065 44.525)"><g id="グループ化_124" data-name="グループ化 124" transform="translate(126.407 .138)"><path id="長方形_50" data-name="長方形 50" class="cls-1" d="M0 0h1.378v.551H0z"/></g><g id="グループ化_125" data-name="グループ化 125" transform="translate(3.722 .276)"><path id="パス_248" data-name="パス 248" class="cls-1" d="M129.742 43.714H127.4V43.3h2.343zm-4.687 0h-2.343V43.3h2.343zm-4.687 0h-2.343V43.3h2.343zm-4.825 0H113.2V43.3h2.343zm-4.687 0h-2.343V43.3h2.343zm-4.687 0h-2.343V43.3h2.343zm-4.687 0h-2.343V43.3h2.343zm-4.825 0h-2.342V43.3h2.343zm-4.687 0h-2.342V43.3h2.343zm-4.687 0h-2.342V43.3h2.343zm-4.687 0h-2.342V43.3H82.6zm-4.825 0h-2.342V43.3h2.343zm-4.687 0h-2.341V43.3h2.343zm-4.687 0h-2.341V43.3H68.4zm-4.687 0h-2.479V43.3h2.343v.414zm-4.825 0h-2.341V43.3h2.343zm-4.687 0h-2.341V43.3H54.2zm-4.687 0H47.17V43.3h2.343zm-4.687 0h-2.34V43.3h2.343zm-4.825 0h-2.34V43.3H40zm-4.687 0h-2.34V43.3h2.343zm-4.687 0h-2.34V43.3h2.343zm-4.687 0H23.6V43.3h2.343zm-4.825 0h-2.339V43.3h2.343zm-4.687 0h-2.339V43.3h2.343zm-4.687 0H9.4V43.3h2.343z" transform="translate(-9.4 -43.3)"/></g><g id="グループ化_126" data-name="グループ化 126" transform="translate(0 .138)"><path id="長方形_51" data-name="長方形 51" class="cls-1" d="M0 0h1.378v.551H0z"/></g><g id="グループ化_127" data-name="グループ化 127" transform="translate(3.722)"><path id="パス_249" data-name="パス 249" class="cls-1" d="M129.742 43.514H127.4V43.1h2.343zm-4.687 0h-2.343V43.1h2.343zm-4.687 0h-2.343V43.1h2.343zm-4.825 0H113.2V43.1h2.343zm-4.687 0h-2.343V43.1h2.343zm-4.687 0h-2.343V43.1h2.343zm-4.687 0h-2.343V43.1h2.343zm-4.825 0h-2.342V43.1h2.343zm-4.687 0h-2.342V43.1h2.343zm-4.687 0h-2.342V43.1h2.343zm-4.687 0h-2.342V43.1H82.6zm-4.825 0h-2.342V43.1h2.343zm-4.687 0h-2.341V43.1h2.343zm-4.687 0h-2.341V43.1H68.4zm-4.687 0h-2.479V43.1h2.343v.414zm-4.825 0h-2.341V43.1h2.343zm-4.687 0h-2.341V43.1H54.2zm-4.687 0H47.17V43.1h2.343zm-4.687 0h-2.34V43.1h2.343zm-4.825 0h-2.34V43.1H40zm-4.687 0h-2.34V43.1h2.343zm-4.687 0h-2.34V43.1h2.343zm-4.687 0H23.6V43.1h2.343zm-4.825 0h-2.339V43.1h2.343zm-4.687 0h-2.339V43.1h2.343zm-4.687 0H9.4V43.1h2.343z" transform="translate(-9.4 -43.1)"/></g></g></g></g><path id="パス_250" data-name="パス 250" class="cls-1" d="M59 0H6.617A6.709 6.709 0 0 0 0 6.617v93.6a6.618 6.618 0 0 0 6.617 6.617H59a6.618 6.618 0 0 0 6.617-6.617v-93.6A6.531 6.531 0 0 0 59 0zm.414 89.739H6.341V14.888h53.072z"/><circle id="楕円形_13" data-name="楕円形 13" cx="3.033" cy="3.033" r="3.033" transform="translate(29.775 95.391)" fill="#fff"/></g></svg>