<svg id="グループ化_353" data-name="グループ化 353" xmlns="http://www.w3.org/2000/svg" viewBox="0 0 97.604 94.348"><defs><style>.cls-1{fill:#77b6ff}</style></defs><circle id="楕円形_22" data-name="楕円形 22" class="cls-1" cx="14.475" cy="14.475" r="14.475" transform="translate(34.937)"/><circle id="楕円形_23" data-name="楕円形 23" class="cls-1" cx="14.475" cy="14.475" r="14.475" transform="translate(68.654 64.352)"/><g id="グループ化_351" data-name="グループ化 351" transform="translate(63.073 16.742)"><path id="パス_365" data-name="パス 365" class="cls-1" d="M127.451 65.83a33.045 33.045 0 0 1-1.1 8.371 13.6 13.6 0 0 1 2.209-.174 16.541 16.541 0 0 1 5.929 1.1 41.13 41.13 0 0 0 1.1-9.3A40.549 40.549 0 0 0 111.523 28.8a16.362 16.362 0 0 1-3.023 7.557 32.35 32.35 0 0 1 18.951 29.473z" transform="translate(-108.5 -28.8)"/></g><circle id="楕円形_24" data-name="楕円形 24" class="cls-1" cx="14.475" cy="14.475" r="14.475" transform="translate(0 64.352)"/><g id="グループ化_352" data-name="グループ化 352" transform="translate(9.01 16.916)"><path id="パス_367" data-name="パス 367" class="cls-1" d="M20.964 74.21a16.51 16.51 0 0 1 3.837.465 33.113 33.113 0 0 1-1.163-8.662 32.455 32.455 0 0 1 18.719-29.356 17.371 17.371 0 0 1-3.081-7.557 40.386 40.386 0 0 0-22.788 45.692 16.3 16.3 0 0 1 4.476-.582z" transform="translate(-15.5 -29.1)"/><path id="パス_368" data-name="パス 368" class="cls-1" d="M86.935 139.43a32.336 32.336 0 0 1-35.228-.93 16.688 16.688 0 0 1-2.907 7.848 40.544 40.544 0 0 0 41.332.639 16.6 16.6 0 0 1-3.197-7.557z" transform="translate(-29.442 -74.904)"/></g></svg>