<svg xmlns="http://www.w3.org/2000/svg" viewBox="0 0 17.09 16.472"><g data-name="グループ化 392"><path data-name="パス 360" d="M4.77 3.032h10.64a1.68 1.68 0 0 1 1.68 1.68v10.08a1.68 1.68 0 0 1-1.68 1.68H4.77a1.68 1.68 0 0 1-1.68-1.68V4.712a1.68 1.68 0 0 1 1.68-1.68z" fill="#6ee5b7"/><g data-name="パス 373" fill="none"><path d="M2 0h10.444a2 2 0 0 1 2 2v9.867a2 2 0 0 1-2 2H2a2 2 0 0 1-2-2V2a2 2 0 0 1 2-2z"/><path d="M2 1c-.551 0-1 .449-1 1v9.867c0 .551.449 1 1 1h10.444c.552 0 1-.449 1-1V2c0-.551-.448-1-1-1H2m0-1h10.444a2 2 0 0 1 2 2v9.867a2 2 0 0 1-2 2H2a2 2 0 0 1-2-2V2a2 2 0 0 1 2-2z" fill="#4d4d4d"/></g></g></svg>