<svg xmlns="http://www.w3.org/2000/svg" viewBox="0 0 28.766 26.039"><g data-name="グループ化 384"><path data-name="パス 305" d="M17.742 2.506l2.56 5.121c.32.64.64.96 1.28.96l5.761.96a1.756 1.756 0 0 1 .96 2.88l-4.161 4.161a2.445 2.445 0 0 0-.64 1.6l.96 5.761a1.835 1.835 0 0 1-2.56 1.92l-4.8-3.2h-1.6l-5.121 2.88c-1.28.64-2.56-.32-2.56-1.92l.96-5.761a1.762 1.762 0 0 0-.64-1.6L3.98 12.107a1.756 1.756 0 0 1 .96-2.88l5.761-.96c.64 0 .96-.32 1.28-.96l2.56-5.121a1.949 1.949 0 0 1 3.201.32z" opacity=".802" fill="#ffd476"/><path data-name="パス 304" d="M14.742 1.506l2.56 5.121c.32.64.64.96 1.28.96l5.761.96a1.756 1.756 0 0 1 .96 2.88l-4.161 4.161a2.445 2.445 0 0 0-.64 1.6l.96 5.761a1.835 1.835 0 0 1-2.56 1.92l-4.8-3.2h-1.6l-5.121 2.88c-1.28.64-2.56-.32-2.56-1.92l.96-5.761a1.762 1.762 0 0 0-.64-1.6L.98 11.107a1.756 1.756 0 0 1 .96-2.88l5.761-.96c.64 0 .96-.32 1.28-.96l2.56-5.121a1.949 1.949 0 0 1 3.201.32z" fill="none" stroke="#707070" opacity=".802"/></g></svg>