<svg xmlns="http://www.w3.org/2000/svg" viewBox="0 0 17 16"><g data-name="グループ化 400"><path data-name="パス 73" d="M9.105 3.517l.918 1.871a.722.722 0 0 0 .442.34l2.075.306a.6.6 0 0 1 .34 1.02l-1.5 1.463a.627.627 0 0 0-.17.544l.34 2.075a.611.611 0 0 1-.884.646l-1.871-.986a.584.584 0 0 0-.578 0l-1.8.986a.611.611 0 0 1-.884-.646l.34-2.075a.627.627 0 0 0-.17-.544l-1.5-1.463a.59.59 0 0 1 .34-1.02l2.075-.306a.517.517 0 0 0 .442-.34l.918-1.871a.641.641 0 0 1 1.127 0z" fill="#ffd476"/><path data-name="長方形 938" fill="none" d="M0 0h17v16H0z"/></g></svg>