<svg xmlns="http://www.w3.org/2000/svg" viewBox="0 0 29.482 29.482"><ellipse data-name="楕円形 3" cx="14.741" cy="14.741" rx="14.741" ry="14.741" fill="#6ee5b7"/><path data-name="パス 23" d="M12.043 22.517a10.044 10.044 0 0 0 10.112-10.112c0-.155 0-.31-.007-.457a7.281 7.281 0 0 0 1.776-1.843 7.213 7.213 0 0 1-2.042.56 3.552 3.552 0 0 0 1.563-1.968 7.2 7.2 0 0 1-2.255.862 3.556 3.556 0 0 0-6.147 2.432 3.257 3.257 0 0 0 .1.811 10.082 10.082 0 0 1-7.326-3.715 3.552 3.552 0 0 0 1.106 4.739 3.492 3.492 0 0 1-1.607-.442v.044a3.558 3.558 0 0 0 2.852 3.486 3.543 3.543 0 0 1-.936.125 3.393 3.393 0 0 1-.671-.066 3.549 3.549 0 0 0 3.317 2.469 7.144 7.144 0 0 1-4.415 1.518 6.463 6.463 0 0 1-.848-.052 9.9 9.9 0 0 0 5.432 1.607" fill="#fff"/></svg>