<svg xmlns="http://www.w3.org/2000/svg" viewBox="0 0 34.209 32.749"><g data-name="グループ化 383"><path data-name="合体 2" d="M5.047 31.87l-.707-.707a3 3 0 0 1 0-4.243l9.357-9.363-9.781-9.441a3 3 0 0 1-.074-4.242l.694-.717a3 3 0 0 1 4.243-.075l9.869 9.531 9.733-9.733a3 3 0 0 1 4.243 0l.707.707a3 3 0 0 1 0 4.243l-9.647 9.647 9.552 9.225a3 3 0 0 1 .074 4.242l-.695.72a3 3 0 0 1-4.242.074l-9.64-9.309-9.444 9.441a3 3 0 0 1-4.243 0z" opacity=".802" fill="#bfbfbf"/><g data-name="合体 1" fill="none" opacity=".802"><path d="M2.047 29.87l-.707-.707a3 3 0 0 1 0-4.243l9.357-9.363L.916 6.116a3 3 0 0 1-.074-4.242l.694-.717a3 3 0 0 1 4.243-.075l9.869 9.531L25.381.88a3 3 0 0 1 4.243 0l.707.707a3 3 0 0 1 0 4.243l-9.647 9.647 9.552 9.225a3 3 0 0 1 .074 4.242l-.695.72a3 3 0 0 1-4.242.074l-9.64-9.309-9.444 9.441a3 3 0 0 1-4.243 0z"/><path d="M4.168 29.748a1.99 1.99 0 0 0 1.414-.585l9.445-9.445.694-.694.707.682 9.64 9.31a1.99 1.99 0 0 0 1.39.561c.547 0 1.058-.217 1.438-.61l.695-.72a2.002 2.002 0 0 0-.05-2.828l-9.551-9.225-.732-.707.72-.72 9.646-9.646c.78-.78.78-2.049 0-2.828l-.708-.708A1.987 1.987 0 0 0 27.502 1a1.99 1.99 0 0 0-1.414.586l-9.733 9.733-.695.695-.707-.682L5.085 1.8a1.993 1.993 0 0 0-1.39-.562 1.99 1.99 0 0 0-1.44.61l-.693.72a2.002 2.002 0 0 0 .049 2.828l9.78 9.446.733.706-.72.72-9.358 9.358c-.78.78-.78 2.049 0 2.828l.708.708c.377.377.88.585 1.414.585m0 1a2.99 2.99 0 0 1-2.121-.878l-.708-.707a3 3 0 0 1 0-4.243l9.358-9.358-9.78-9.446a3 3 0 0 1-.075-4.241l.694-.72A2.99 2.99 0 0 1 3.695.24c.75 0 1.501.28 2.084.842l9.869 9.53L25.38.878A2.99 2.99 0 0 1 27.502 0a2.99 2.99 0 0 1 2.122.88l.707.707a3.001 3.001 0 0 1 0 4.242l-9.647 9.647 9.552 9.225a3 3 0 0 1 .074 4.241l-.695.72a2.992 2.992 0 0 1-2.158.916 2.99 2.99 0 0 1-2.083-.842l-9.64-9.31-9.445 9.445a2.992 2.992 0 0 1-2.121.878z" fill="#707070"/></g></g></svg>