<svg xmlns="http://www.w3.org/2000/svg" viewBox="0 0 134.84 136.33"><defs><style>.cls-4{fill:#fbebd0}.cls-10{fill:#9bc3e8}.cls-11{fill:#fff}.cls-12{fill:none;stroke:#fff;stroke-miterlimit:10;stroke-width:.73px}</style></defs><g id="レイヤー_2" data-name="レイヤー 2"><g id="レイヤー_1-2" data-name="レイヤー 1"><g id="レイヤー_1-2-2" data-name="レイヤー 1-2"><circle cx="68.95" cy="70.44" r="65.89" fill="#96c964"/><path d="M95 94.78a8 8 0 0 1 1.71-11.18 8.14 8.14 0 0 1 2.47-1.22 4.61 4.61 0 0 1 3.74.28 2.5 2.5 0 0 1 .89 3.34 7.66 7.66 0 0 1 6.45-3.22 6.07 6.07 0 0 1 5.47 4.4 5 5 0 0 1-3.36 5.89 5.46 5.46 0 0 1 1.52 5.9 6.23 6.23 0 0 1-4.81 3.9 7.34 7.34 0 0 1-6-1.84 4.41 4.41 0 0 1-6.79-5m-62.86 6.11a29.18 29.18 0 0 1-6.8.1 10.7 10.7 0 0 1-6.11-2.72 6.69 6.69 0 0 1-2-6.18 4.91 4.91 0 0 1 5-3.79 6.51 6.51 0 0 1 6.83-10.47 6.68 6.68 0 0 1 4.52 6.44 7.15 7.15 0 0 1 6.37-4.41 6.54 6.54 0 0 1 6.17 4.52 6 6 0 0 1-3 6.91c1.64.39 2.42 2.48 1.9 4.09a6.76 6.76 0 0 1-3.44 3.56 16.47 16.47 0 0 1-8.16 2" fill="#78c176"/><path fill="#e3d2bb" d="M86.9 51.37L39.1 84.74V53.68l28.24-18.57 20.61 13.2-1.05 3.06z"/><path class="cls-4" d="M53.25 48.02h4.62v2.02h-4.62zm16.32-9.57h4.62v2.02h-4.62zm30.46 22.13l-12.64-9.55L39.1 84.74v14.9h60.93V60.58z"/><path d="M99.89 59.13L70.33 37.49a.53.53 0 0 1-.22-.43v-.89l-.79.58-.27-.21V37l-30 22v.82l29.6-20a.56.56 0 0 1 .61 0l30.85 20.8v-1a.52.52 0 0 0-.22-.49z" fill="#486f85"/><path class="cls-4" d="M49.17 50.28h4.62v2.02h-4.62z"/><path fill="#666d69" d="M34.48 97.4h70.18v4.48H34.48z"/><path fill="#b87d49" d="M63.61 74.03h11.91v22.99H63.61z"/><path d="M75.14 74.41v22.22H64.05V74.41h11.09m.77-.77H63.23V97.4h12.68z" fill="#8d5308"/><path d="M108.69 59L74.37 34.25 69 30.34l-5.42 3.91L29.22 59a3.2 3.2 0 0 0-1.31 2.57 3.17 3.17 0 0 0 5 2.58l36-26 36 26a3.17 3.17 0 0 0 4-4.93 2.83 2.83 0 0 0-.28-.2z" fill="#5e829a"/><path class="cls-10" d="M47.94 61.3h12.87v8.78H47.94z"/><path class="cls-11" d="M60.44 61.66v8H48.3v-8h12.14m.73-.73h-13.6v9.51h13.6z"/><path class="cls-12" d="M54.4 60.93v9.51m6.77-4.75h-13.6"/><path class="cls-10" d="M78.34 61.3h12.87v8.78H78.34z"/><path class="cls-11" d="M90.84 61.66v8H78.7v-8h12.14m.73-.73H78v9.51h13.6z"/><path class="cls-12" d="M84.8 60.93v9.51m6.77-4.75h-13.6"/><path class="cls-4" d="M41.12 88.37h4.62v2.02h-4.62zm49.52-15h4.62v2.02h-4.62zm-4.08 2.25h4.62v2.02h-4.62zm-.92 18.66h4.62v2.02h-4.62zm-46.54.41h4.62v2.02H39.1z"/><path transform="rotate(-34.8 30.005 25.138)" fill="#f4b436" d="M.49 15.03h59v20.22h-59z"/><text transform="rotate(-35 70.1 -11.32)" style="isolation:isolate" font-size="11.98" font-family="NotoSansCJKjp-Regular-83pv-RKSJ-H,Noto Sans CJK JP" fill="#fff">支援</text><text transform="rotate(-35 58.992 -52.143)" style="isolation:isolate" font-size="14.71" font-family="Lato-Regular,Lato" fill="#fff">3</text></g></g></g></svg>