<svg xmlns="http://www.w3.org/2000/svg" viewBox="0 0 134.84 136.33"><defs><style>.cls-3{fill:#f5ea29}.cls-7{fill:#444}</style></defs><g id="レイヤー_2" data-name="レイヤー 2"><g id="レイヤー_1-2" data-name="レイヤー 1"><g id="レイヤー_1-2-2" data-name="レイヤー 1-2"><circle cx="68.95" cy="70.44" r="65.89" fill="#96c964"/><path d="M90.94 57.86L75.75 34.33l-11.81 3.6s-21.75 26-26.44 28.36-7.12 8.34-7.12 8.95 11 16.93 11 16.93l11.44-.45s29.59-32.36 38.12-33.86z" fill="#a3a3a3"/><path class="cls-3" d="M67.57 71.64l1.39-12.66-9.85-8.73-7.85 8.87-.7 9 7.52 5.91 9.49-2.39z"/><path transform="rotate(-34.8 30.005 25.138)" fill="#f4b436" d="M.49 15.03h59v20.22h-59z"/><text transform="rotate(-35 70.117 -11.314)" style="isolation:isolate" font-size="11.98" font-family="NotoSansCJKjp-Regular-83pv-RKSJ-H,Noto Sans CJK JP" fill="#fff">支援</text><text transform="rotate(-35 58.992 -52.143)" style="isolation:isolate" font-size="14.71" font-family="Lato-Regular,Lato" fill="#fff">1</text><path class="cls-7" d="M25.53 68.35a1.19 1.19 0 0 0-.9.66 1.15 1.15 0 0 0 .11 1.12l18.31 26.75c23.84-.76 27.38-31.23 48.6-35.83a16.36 16.36 0 0 1 2.79-.34 1.14 1.14 0 0 0 .91-.66 1.13 1.13 0 0 0-.1-1.12L77 32.19C53.29 33 49.62 62.94 28.85 67.91a17.66 17.66 0 0 1-3.32.44zM42 88.22l-8.22-12c2.79-1.06 3.46-4.06 2.08-6.61 5.1-2.42 9.11-6.46 12.82-10.93a20.61 20.61 0 0 0 3 15.64c3.18 4.66 7.82 6.92 11.77 6-3.7 4.46-7.7 8.46-12.81 10.89-1.97-2.32-5.32-3.21-8.64-2.99zM61.92 56l.3.43.91 1.36.3.44c-1 1.17-2 2.38-2.9 3.59 0 .34.07.67.1 1l1 1.46c1.06-1.35 2.12-2.69 3.22-4l1.29 1.89.21.3c-1.09 1.3-2.16 2.64-3.22 4l2.06 3-2 2.51-2.06-3c-1.06 1.35-2.12 2.69-3.21 4l-.2-.3-1.26-1.89c1.09-1.3 2.15-2.64 3.21-4l-1-1.46-.73-.22c-1 1.22-1.91 2.42-2.9 3.6l-.3-.44-.91-1.33-.3-.44c.6-.72 1.19-1.45 1.78-2.18l-3.44-1.07.22-.27c.5-.6 1-1.21 1.47-1.82l.23-.28 4.64 1.4c-.24-2.14-.48-4.29-.7-6.42l.22-.28c.48-.61 1-1.22 1.47-1.82l.22-.27c.16 1.56.33 3.13.5 4.7.59-.76 1.18-1.49 1.78-2.19zm6.38-1.21c-3.18-4.65-7.82-6.92-11.78-6 3.71-4.46 7.71-8.5 12.82-10.92 2 2.33 5.3 3.24 8.64 3l8.23 12c-2.79 1-3.47 4-2.08 6.61-5.08 2.45-9.08 6.49-12.82 11a20.62 20.62 0 0 0-3.01-15.7z"/><path d="M88.8 105.6s-22.35-1.48-21.75-11.95-1.26-13.71 11.88-15.33 25.48.84 26.61 7 2.11 10.5-.35 12.39-16.39 7.89-16.39 7.89z" fill="#dcc794"/><path class="cls-3" d="M92.1 88.83l-3.73-.05-.1-1.4 3.69.06-.22-1.79-2.63-.06 2.52-4.35-2.91-.1-2.21 3.58-2.22-3.58-2.9.1 2.52 4.35-2.63.06-.22 1.79 3.69-.06-.1 1.4-3.74.05-.23 1.91 3.81-.02-.21 2.58h4.46l-.21-2.58 3.81.02-.24-1.91z"/><path class="cls-7" d="M106.42 84.92a8 8 0 0 0-1.21-2 11.19 11.19 0 0 0-1.72-1.72 21.08 21.08 0 0 0-7.44-3.64 36.85 36.85 0 0 0-9.91-1.3 38.68 38.68 0 0 0-7.73.77A27.66 27.66 0 0 0 72 79.19a14.4 14.4 0 0 0-4.66 3.45 8.55 8.55 0 0 0-1.42 2.28 6.89 6.89 0 0 0-.54 2.64v7.22a6.81 6.81 0 0 0 .54 2.64 8.43 8.43 0 0 0 1.2 2 12.16 12.16 0 0 0 1.72 1.72 20.82 20.82 0 0 0 7.44 3.64h.19-.18a36.32 36.32 0 0 0 9.89 1.31 38.54 38.54 0 0 0 7.73-.78 26.76 26.76 0 0 0 6.45-2.16A14.26 14.26 0 0 0 105 99.7a8.34 8.34 0 0 0 1.43-2.28 7 7 0 0 0 .54-2.64v-7.22a6.88 6.88 0 0 0-.55-2.64zM70.05 98.53a6.08 6.08 0 0 1-.61-.63 5.67 5.67 0 0 1-1-1.54 4.25 4.25 0 0 1-.33-1.58V91.5a10.28 10.28 0 0 0 1.48 1.5l.42.33zm4 2.52l-.8-.38a12.19 12.19 0 0 1-1.66-1v-5.38a20.63 20.63 0 0 0 2.46 1.19zm4.95 1.54a25 25 0 0 1-3.5-1h.09V96c.34.12.7.23 1.06.33.76.22 1.54.4 2.35.57zm6.46.72a34.22 34.22 0 0 1-4.94-.44v-5.68a37.27 37.27 0 0 0 4.94.42zm6.65-.48a33.87 33.87 0 0 1-5.13.48v-5.7a37.58 37.58 0 0 0 5.08-.44zm4.89-1.25q-.81.28-1.68.54c-.56.16-1.14.3-1.74.43v-5.66A28.75 28.75 0 0 0 97 96zm4-2a15.62 15.62 0 0 1-2.47 1.36V95.4c.44-.19.87-.38 1.29-.58s.8-.42 1.18-.64zm3.16-4.8a3.94 3.94 0 0 1-.33 1.59 6.13 6.13 0 0 1-1.38 2v-5.15h-.09a11 11 0 0 0 1.65-1.55l.14-.17v3.28zm-.33-5.63a6.71 6.71 0 0 1-2.12 2.63 17.87 17.87 0 0 1-6.45 3.11 33.67 33.67 0 0 1-9.15 1.2 29.73 29.73 0 0 1-13-2.64 11.92 11.92 0 0 1-3.79-2.78 5.67 5.67 0 0 1-1-1.54 4.15 4.15 0 0 1 0-3.17 7.11 7.11 0 0 1 2.12-2.65 18.3 18.3 0 0 1 6.57-3.1A34.06 34.06 0 0 1 86.2 79a30.14 30.14 0 0 1 13 2.65 11.82 11.82 0 0 1 3.8 2.78 5.74 5.74 0 0 1 1 1.57 4 4 0 0 1 0 3.17z"/></g></g></g></svg>