<svg xmlns="http://www.w3.org/2000/svg" viewBox="0 0 134.84 136.33"><defs><style>.cls-11{fill:#fff}.cls-5{fill:none;stroke:#040000;stroke-linecap:round;stroke-linejoin:round;stroke-width:.47px}.cls-10{fill:#323333}.cls-12{fill:#d6d4d4}.cls-13{fill:#a7555e}</style></defs><g id="レイヤー_2" data-name="レイヤー 2"><g id="レイヤー_1-2" data-name="レイヤー 1"><g id="レイヤー_1-2-2" data-name="レイヤー 1-2"><circle cx="68.95" cy="70.44" r="65.89" fill="#96c964"/><path transform="rotate(-34.8 30.005 25.138)" fill="#f4b436" d="M.49 15.03h59v20.22h-59z"/><text transform="rotate(-35 70.117 -11.314)" style="isolation:isolate" fill="#fff" font-size="11.98" font-family="NotoSansCJKjp-Regular-83pv-RKSJ-H,Noto Sans CJK JP">支援</text><text transform="rotate(-35 58.992 -52.143)" style="isolation:isolate" font-size="14.71" font-family="Lato-Regular,Lato" fill="#fff">2</text><path class="cls-5" d="M57.85 86.2h10.72v7.63H57.85z"/><path d="M90.02 40.67h-2.74L59.25 78.95l2.3 1.69h5.15l23.66-32.31-.34-7.66zm.43 9.68L68.27 80.64h3.26l19.1-26.09-.18-4.2z" fill="#8fbfda" opacity=".4"/><path style="isolation:isolate" fill="#8fbfda" opacity=".4" d="M91.79 80.35H51.76l6.18-39.96h32.08l1.77 39.96z"/><path class="cls-5" d="M91.79 80.64H51.76l6.18-39.97h32.08l1.77 39.97z"/><rect x="43.71" y="77.75" width="45.57" height="13.2" rx="4.4" fill="#8e8e8e" stroke-width=".47" stroke="#040000" stroke-linecap="round" stroke-linejoin="round"/><path class="cls-10" d="M110.81 86.91a2.59 2.59 0 0 1 1.56-1.91v-1.4a13.1 13.1 0 0 0 0-1.4 2.54 2.54 0 0 1-1.41-3.3 2.51 2.51 0 0 1 .66-1 19.34 19.34 0 0 0-1-2.62 2.55 2.55 0 0 1-2.46-2.63 2.75 2.75 0 0 1 .3-1.12 20.27 20.27 0 0 0-1.8-2.13 2.53 2.53 0 0 1-3.2-1.62 2.58 2.58 0 0 1-.1-1.17 21.38 21.38 0 0 0-2.42-1.39 2.54 2.54 0 0 1-4-1.48 21.08 21.08 0 0 0-2.75-.48 2.54 2.54 0 0 1-4.32 0 21.68 21.68 0 0 0-2.75.48 2.53 2.53 0 0 1-4 1.48 23.28 23.28 0 0 0-2.42 1.39 2.53 2.53 0 0 1-2.13 2.89 2.48 2.48 0 0 1-1.18-.1 22.67 22.67 0 0 0-1.79 2.13 2.53 2.53 0 0 1-1 3.45 2.43 2.43 0 0 1-1.12.3 22.42 22.42 0 0 0-1 2.62 2.54 2.54 0 0 1 .2 3.59 2.51 2.51 0 0 1-1 .66V85A2.55 2.55 0 0 1 73 88.3a2.61 2.61 0 0 1-.67.94 21.91 21.91 0 0 0 1 2.63 2.5 2.5 0 0 1 2.13 3.74 22.24 22.24 0 0 0 1.82 2.17 2.53 2.53 0 0 1 3.31 2.78 19.31 19.31 0 0 0 2.43 1.36 2.54 2.54 0 0 1 4.06 1.48 18.4 18.4 0 0 0 2.75.48 2.55 2.55 0 0 1 3.5-.82 2.67 2.67 0 0 1 .82.82 18.18 18.18 0 0 0 2.75-.48 2.54 2.54 0 0 1 4.06-1.48 18.71 18.71 0 0 0 2.42-1.39 2.59 2.59 0 0 1 .88-2.32 2.55 2.55 0 0 1 2.42-.46 19.41 19.41 0 0 0 1.8-2.14 2.54 2.54 0 0 1 1-3.44 2.64 2.64 0 0 1 1.13-.3 20.1 20.1 0 0 0 .95-2.63 2.53 2.53 0 0 1-.75-2.33z"/><path class="cls-11" d="M102.36 83.59A10.35 10.35 0 1 1 92 73.24a10.36 10.36 0 0 1 10.36 10.35z"/><path class="cls-12" d="M95.89 83.59A3.88 3.88 0 1 1 92 79.71a3.89 3.89 0 0 1 3.89 3.88z"/><path class="cls-13" d="M26.87 66.62a4.4 4.4 0 0 0-4.4 4.4v12.64a4.4 4.4 0 0 0 4.4 4.4h27.18V65.58z"/><path class="cls-12" d="M29.41 73.83H23a4 4 0 0 0-.49 0v9.25a4 4 0 0 0 .49 0h6.45a4.4 4.4 0 0 0 4.4-4.4v-.48a4.39 4.39 0 0 0-4.44-4.37z"/><path class="cls-10" d="M52.12 92a1.83 1.83 0 0 1 1.1-1.37v-2a1.81 1.81 0 0 1-.53-3 13.7 13.7 0 0 0-.64-1.83 1.8 1.8 0 0 1-1.75-1.85 1.92 1.92 0 0 1 .22-.81 15.25 15.25 0 0 0-1.28-1.51 1.8 1.8 0 0 1-2.24-1.2 1.76 1.76 0 0 1-.07-.82 14.44 14.44 0 0 0-1.71-1 1.82 1.82 0 0 1-1.74.28 1.79 1.79 0 0 1-1.15-1.33 14.94 14.94 0 0 0-2-.35 1.8 1.8 0 0 1-3.07 0 15.22 15.22 0 0 0-2 .35 1.8 1.8 0 0 1-2.88 1 16.38 16.38 0 0 0-1.72 1 1.76 1.76 0 0 1-2.29 2 16.74 16.74 0 0 0-1.28 1.51 1.79 1.79 0 0 1-.69 2.45 1.69 1.69 0 0 1-.85.23 13.93 13.93 0 0 0-.68 1.87 1.8 1.8 0 0 1-.53 3v2a1.81 1.81 0 0 1 1 2.37 1.75 1.75 0 0 1-.44.63 13.32 13.32 0 0 0 .68 1.86 1.8 1.8 0 0 1 1.75 1.85 1.7 1.7 0 0 1-.21.8 18.7 18.7 0 0 0 1.28 1.52 1.81 1.81 0 0 1 2.28 1.16 1.71 1.71 0 0 1 .07.84 13.49 13.49 0 0 0 1.72 1 1.81 1.81 0 0 1 2.53.3 1.7 1.7 0 0 1 .35.76 15.19 15.19 0 0 0 2 .34 1.81 1.81 0 0 1 1.53-.86 1.84 1.84 0 0 1 1.54.86 14.92 14.92 0 0 0 2-.34 1.81 1.81 0 0 1 2.89-1.06 12.13 12.13 0 0 0 1.71-1 1.83 1.83 0 0 1 .63-1.64 1.79 1.79 0 0 1 1.72-.33 14.29 14.29 0 0 0 1.28-1.52 1.81 1.81 0 0 1 .7-2.46 1.91 1.91 0 0 1 .77-.23 13.32 13.32 0 0 0 .68-1.86 1.79 1.79 0 0 1-.68-1.61z"/><path class="cls-11" d="M46.58 89.64a7.82 7.82 0 1 1-7.82-7.86 7.81 7.81 0 0 1 7.82 7.86z"/><path class="cls-12" d="M41.69 89.64a2.93 2.93 0 1 1-2.93-2.93 2.93 2.93 0 0 1 2.93 2.93z"/><path stroke-width=".46" stroke="#040000" stroke-linecap="round" stroke-linejoin="round" fill="none" d="M63.53 41.62v35.9"/><path class="cls-5" d="M81.31 39.57v24.68"/><rect class="cls-13" x="55.55" y="38.73" width="35.48" height="3.01" rx=".98"/><path fill="#6d6b6b" stroke-width=".47" stroke="#040000" stroke-linecap="round" stroke-linejoin="round" d="M57.73 83.32h10.72v7.63H57.73z"/><path class="cls-13" d="M106.33 68.91a1.87 1.87 0 0 1-.89-.23 29.15 29.15 0 0 0-26.86 0 1.84 1.84 0 0 1-1.79-3.21 32.86 32.86 0 0 1 30.43 0 1.83 1.83 0 0 1 .69 2.51 1.81 1.81 0 0 1-1.58.93z"/></g></g></g></svg>