<svg xmlns="http://www.w3.org/2000/svg" viewBox="0 0 22 24"><g data-name="レイヤー 2"><path d="M17 10a6 6 0 1 1-6-6 6 6 0 0 1 6 6zm4 1.74l-1.9 1.17.69 2.09-2.19.46-.07 2.2-2.22-.3-.84 2-2-1L11 20l-1.5-1.63-2 1-.84-2-2.22.3-.08-2.2L2.21 15l.68-2.09L1 11.74 2.37 10 1 8.26 2.89 7.1 2.21 5l2.18-.46.08-2.2 2.22.3.84-2 2 1L11 0l1.5 1.63 2-1 .84 2 2.22-.3.08 2.2 2.15.47-.69 2.09L21 8.26 19.63 10zM18 10a7 7 0 1 0-7 7 7 7 0 0 0 7-7zm-1.86 10.28l2.4 3.72 1.15-2H22l-2.66-4.1a11.42 11.42 0 0 1-3.2 2.38zM2.65 17.9L0 22h2.31l1.15 2 2.4-3.72a11.61 11.61 0 0 1-3.21-2.38z" fill="#de6a7c" data-name="レイヤー 1"/></g></svg>