<svg xmlns="http://www.w3.org/2000/svg" viewBox="0 0 37.1 38"><path d="M10.7 33.2c.4 1.7 1.9 2.9 3.6 2.9 1.8 0 3.3-1.2 3.6-2.9v-.1h-7.3l.1.1zm16.2-4.8c-.3-.3-.6-.5-.9-.7-1.2-1-2.3-1.8-2.3-5.3v-2.8c-.1-4.2-3.1-7.7-7.2-8.5.2-.3.3-.7.2-1C16.7 9 15.6 8 14.4 8c-1.2 0-2.3.9-2.3 2.1 0 .3.1.7.2 1-4.1.8-7.1 4.3-7.2 8.5v2.8c0 3.5-1.1 4.3-2.3 5.3-.3.2-.6.5-.9.7v2.7h25v-2.7z" fill="#ffd800"/><circle cx="25.7" cy="12.4" r="9.5" fill="#de6a7c"/><text transform="translate(24.076 17.013)" font-size="12" font-family="KozGoPr6N-Bold-83pv-RKSJ-H" fill="#fff">!</text></svg>