<svg xmlns="http://www.w3.org/2000/svg" viewBox="0 0 497.85 512"><defs><style>.cls-1{fill:#bc80c3}</style></defs><g id="レイヤー_2" data-name="レイヤー 2"><g id="_2" data-name="2"><path class="cls-1" d="M142.12 103.53a29 29 0 0 0 29-29V29a29 29 0 0 0-57.93 0v45.55a29 29 0 0 0 28.93 28.98zm213.62 0a29 29 0 0 0 29-29V29a29 29 0 0 0-57.94 0v45.55a29 29 0 0 0 28.94 28.98z"/><path class="cls-1" d="M428.09 41.29h-17.92v33.26a54.43 54.43 0 0 1-108.86 0V41.29H196.54v33.26a54.43 54.43 0 1 1-108.85 0V41.29H69.76A69.76 69.76 0 0 0 0 111.05v331.19A69.76 69.76 0 0 0 69.76 512h358.33a69.76 69.76 0 0 0 69.76-69.76V111.05a69.76 69.76 0 0 0-69.76-69.76zM443 430a32.37 32.37 0 0 1-32.33 32.33H87.23A32.38 32.38 0 0 1 54.9 430V170.88H443V430z"/><path class="cls-1" d="M183.66 371.77h51.19v51.19h-51.19zm0-79.35h51.19v51.19h-51.19zm-79.35 79.35h51.19v51.19h-51.19zm0-79.35h51.19v51.19h-51.19zm238.04-79.35h51.19v51.19h-51.19zm-79.34 0h51.2v51.19h-51.2zm0 79.35h51.2v51.19h-51.2zm79.34 79.35h51.19v51.19h-51.19zm0-79.35h51.19v51.19h-51.19zm-79.34 79.35h51.2v51.19h-51.2zm-79.35-158.7h51.19v51.19h-51.19zm-79.35 0h51.19v51.19h-51.19z"/></g></g></svg>