<svg xmlns="http://www.w3.org/2000/svg" viewBox="0 0 512 438.4"><defs><style>.cls-1{fill:#689d38}</style></defs><g id="レイヤー_2" data-name="レイヤー 2"><g id="_2" data-name="2"><path class="cls-1" d="M420.7 350.2v-40.7H217.3L197 251.8h242.5l72.5-198h-43.3l-57.6 157.3H182.6L114.1 16.4H0v40.7h85.3l103.1 293.1h232.3z"/><circle class="cls-1" cx="197.4" cy="405.8" r="32.6"/><circle class="cls-1" cx="409.1" cy="405.8" r="32.6"/><path class="cls-1" d="M286.5 161.5a15.41 15.41 0 0 0 2.9 2.3 18.6 18.6 0 0 0 10.1 3 17.93 17.93 0 0 0 12.9-5.4l58.3-58.3a18.31 18.31 0 0 0-25.9-25.9l-27.1 27.1v-86a18.3 18.3 0 0 0-36.6 0v86l-27.1-27a18.31 18.31 0 0 0-25.9 25.9z"/></g></g></svg>