<svg xmlns="http://www.w3.org/2000/svg" viewBox="0 0 349.74 512.1"><g data-name="レイヤー 2"><path d="M349.44 421c-.1-14.6-.3-28.4-.5-39.1-.5-20.3-3.7-37.6-18.5-52.7-11.8-12.1-26.9-19-40.8-23.7-6.9-2.4-13.6-4.2-19.5-5.8s-11-3-14.5-4.3c-6.9-2.6-14.3-5.9-19.4-9.5a24.77 24.77 0 0 1-5.7-5.2A6 6 0 0 1 229 277v-26c8.9-9.9 21.7-25.2 26.9-49.5a36.42 36.42 0 0 0 5.4-3c4.3-3 8-7.4 11.2-13.3s5.9-13.5 8.9-23.9a51 51 0 0 0 2.2-13.9 26.36 26.36 0 0 0-2.7-12.1 19.83 19.83 0 0 0-10.5-9.1c-.6-.2-1.1-.3-1.7-.5h2.1s-5.3-55.6-5.3-75.1S208.94 0 174.84 0s-90.6 31.2-90.6 50.7-5.3 75.1-5.3 75.1h1.4c0 .1-.1.2-.1.3a17.84 17.84 0 0 0-4.6 2 19.33 19.33 0 0 0-6.8 7.3 24.06 24.06 0 0 0-2.7 12.1 50.41 50.41 0 0 0 2.2 13.9c4 13.8 7.6 22.8 12.2 29.4a32.56 32.56 0 0 0 7.8 7.9 41 41 0 0 0 5.4 3c5.2 24.3 18 39.6 26.9 49.5v26a6.25 6.25 0 0 1-1.6 3.7c-1.9 2.5-5.7 5.5-10.3 8.1a92.37 92.37 0 0 1-14.5 6.5c-4.8 1.7-12.2 3.5-20.6 5.8-12.6 3.5-27.7 8.3-41.1 17.1C5.84 335.9.94 362.1.84 391.7c-.1 27.1-.7 54.1-.8 81.2-.1 9.9 0 19.7 0 29.6v9.6h349.7v-15.2c0-14.9 0-46.8-.3-75.9zM230 303.5l29.9 31.7-28 21.5 6.3 14.5H197zM150.14 50.4h49.5v22.3h-49.5V50.4zm-43.9 145l-.7-3.9-3.7-1.3a22.39 22.39 0 0 1-5.8-2.8c-2.3-1.6-4.4-3.9-6.9-8.5s-5-11.4-7.8-21.3a39.5 39.5 0 0 1-1.7-10.2 13 13 0 0 1 1.1-5.7 6.1 6.1 0 0 1 3.2-2.8 8.61 8.61 0 0 1 2.7-.5l2.1.3v8.6L104 178.2v-55.8c16.7-6.7 40.5-15.6 67-15.6 20.7 0 41 5.4 57.8 10.9l16.6 7.8v52.6l15.3-30.9v-8.7l1.9-.1a9.28 9.28 0 0 1 4.1 1.2 5.8 5.8 0 0 1 2 2.1 11.72 11.72 0 0 1 1.1 5.7 35.58 35.58 0 0 1-1.7 10.2c-3.8 13.2-7.1 20.9-10.2 25.2a17.94 17.94 0 0 1-4.5 4.6 23.29 23.29 0 0 1-5.7 2.8l-3.7 1.3-.7 3.9c-4.4 24.4-16.9 38.1-26.2 48.5l-1.7 1.9V277a19.5 19.5 0 0 0 4.1 11.7c.5.7 1.1 1.2 1.6 1.8l-13.2 27h-66.4l-13.2-27.1a19.2 19.2 0 0 0 1.4-1.5 19.48 19.48 0 0 0 4.4-11.9v-31.2l-1.7-1.9c-9.26-10.4-21.76-24.1-26.16-48.5zm13.4 108.1l33 67.7h-41.2l6.3-14.5-28-21.5zm157.7 194.9h-205V384.8h87.5v32.4h30v-32.4h87.6l-.1 113.6z" fill="#689d38" data-name="2"/></g></svg>