<svg xmlns="http://www.w3.org/2000/svg" viewBox="0 0 74.9 81.62"><defs><style>.cls-1{fill:#eda411}</style></defs><g id="レイヤー_2" data-name="レイヤー 2"><g id="レイヤー_1-2" data-name="レイヤー 1"><g id="レイヤー_1-2-2" data-name="レイヤー 1-2"><path class="cls-1" d="M10.1 73.12h12.5v1.7H10.1zm28.7 0h12.5v1.7H38.8z"/><path class="cls-1" d="M60.2 66.22a11.08 11.08 0 0 0-3.1-4 21 21 0 0 0-8.1-3.9c-1.7-.5-3.2-.8-4.2-1.2l-1.1-.3h-.2l-.6-2.9a3.43 3.43 0 0 0-2.7-2.6v-2a18.1 18.1 0 0 0 4.7-8.7 4.67 4.67 0 0 0 1-.5 6.2 6.2 0 0 0 1.4-1.4 15.8 15.8 0 0 0 2.1-5.2 10 10 0 0 0 .4-2.4 5.45 5.45 0 0 0-.5-2.2c-.1-.1-.2-.3-.3-.4V27h.2v-1.1c2.7-8 2.9-18.5-9.3-21.8C23.9-6.58 15.3 6.82 14.2 8A16 16 0 0 0 10 23.52c.9 3.4 1.6 4.5 2.4 5.1-.1.1-.2.3-.3.4a5.37 5.37 0 0 0-.5 2.1 7.27 7.27 0 0 0 .4 2.5 19.57 19.57 0 0 0 2.1 5.2 6.2 6.2 0 0 0 1.4 1.4 4.05 4.05 0 0 0 .9.5 18.1 18.1 0 0 0 4.7 8.7v2A3.3 3.3 0 0 0 18.4 54l-.6 2.9h-.2c-.4.1-.8.2-1.1.3-.9.3-2.5.7-4.2 1.2a21.76 21.76 0 0 0-8.1 3.9 11.18 11.18 0 0 0-3 4.1A13.55 13.55 0 0 0 0 72.12a10.28 10.28 0 0 0 .1 1.7 1.78 1.78 0 0 0 .4 1 5.84 5.84 0 0 0 1.4 1.3A16.88 16.88 0 0 0 6 78c5.3 1.9 14 3.6 24.8 3.6s19.5-1.7 24.8-3.6a21.72 21.72 0 0 0 4.1-1.9 5.71 5.71 0 0 0 1.4-1.3 3 3 0 0 0 .4-1c0-.6.1-1.1.1-1.7a15.44 15.44 0 0 0-1.4-5.88zm-19.6-11.8l.9 4.1 2.2 9.7-8.5-1.1-3.2 3.5V68h-.1l7.8-9.7v-4.6h.1a1 1 0 0 1 .8.72zm-21.9-14.9l-.1-.7-.6-.2a3.13 3.13 0 0 1-1-.5 4.43 4.43 0 0 1-1.2-1.5 23.49 23.49 0 0 1-1.4-3.7 5.66 5.66 0 0 1-.3-1.8 1.8 1.8 0 0 1 .2-1c.1-.2.3-.3.4-.4a14.32 14.32 0 0 1 2.8 3.2s-.3-4.5-.3-6.9c1.5-10.5 12.2-3.5 16.3-11.1a9.08 9.08 0 0 0 4.5 3.7c6.8 2.7 6.1 12.4 6.1 12.4s-.6 3.4 2-1.4h.1a.9.9 0 0 1 .5.1 2.65 2.65 0 0 1 .6.5 3.55 3.55 0 0 1 .2 1 5.66 5.66 0 0 1-.3 1.8 16.57 16.57 0 0 1-1.4 3.7 4.43 4.43 0 0 1-1.2 1.5 3.13 3.13 0 0 1-1 .5l-.7.2-.1.7a15.86 15.86 0 0 1-4.6 8.5l-.3.3v9.4l-2.3 2.9a10.2 10.2 0 0 1-9.6 0l-2.4-2.9v-9.4l-.3-.4a15.86 15.86 0 0 1-4.6-8.5zm1.3 19l.9-4.1a1.22 1.22 0 0 1 .9-.8h.1v4.6l7.7 9.7h-.1v2.6L26.3 67l-8.5 1.1zm39 15c-.1.1-.1.2-.2.2a6.71 6.71 0 0 1-1.4.9 31 31 0 0 1-5.8 2.1 81.36 81.36 0 0 1-20.9 2.5 81.12 81.12 0 0 1-20.8-2.5 31.93 31.93 0 0 1-5.9-2.1 4.19 4.19 0 0 1-1.4-.9l-.2-.2v-1.4A10.28 10.28 0 0 1 4.1 66a13.39 13.39 0 0 1 6.5-4.7c1.2-.4 2.5-.8 3.7-1.2s2.2-.6 3.1-.9L14.8 71l10.7-1.4 5.3 5.7 5.3-5.7L46.7 71l-2.6-11.7c.9.3 1.9.6 3.1.9a22.85 22.85 0 0 1 3.7 1.2 12.79 12.79 0 0 1 6.5 4.7 11.14 11.14 0 0 1 1.7 6.2c0 .3-.1.7-.1 1.2z"/><path class="cls-1" d="M71.5 7.32V37l-6.8-5.9L58 37V7.32zM74.9 4H54.6v40.5l10.1-8.9 10.1 8.9V4zm-7 21.7L64.7 24l-3.1 1.7.6-3.5-2.6-2.5 3.5-.5 1.6-3.2 1.6 3.2 3.5.5-2.6 2.5z"/></g></g></g></svg>