<svg xmlns="http://www.w3.org/2000/svg" viewBox="0 0 74.86 81.58"><defs><style>.cls-1{fill:#96bd58}</style></defs><g id="レイヤー_2" data-name="レイヤー 2"><g id="レイヤー_1-2" data-name="レイヤー 1"><path class="cls-1" d="M10.14 73.06h12.47v1.74H10.14zm28.69 0H51.3v1.74H38.83z"/><path class="cls-1" d="M60.24 66.2a11.93 11.93 0 0 0-3.08-4.05 21.15 21.15 0 0 0-8.11-3.94c-1.71-.5-3.24-.85-4.19-1.18a7.49 7.49 0 0 0-1.13-.27h-.2l-.63-2.88a3.35 3.35 0 0 0-2.67-2.56v-2a18.38 18.38 0 0 0 4.71-8.67 6.82 6.82 0 0 0 1-.52 5.79 5.79 0 0 0 1.37-1.38 16.94 16.94 0 0 0 2.14-5.15 9 9 0 0 0 .39-2.44 4.48 4.48 0 0 0-.53-2.16 2.82 2.82 0 0 0-.29-.39V27h.18v-1.08c2.73-8 2.9-18.48-9.34-21.76C23.9-6.64 15.33 6.85 14.23 8 10 12.54 8.59 17.7 10 23.5c.85 3.41 1.55 4.55 2.38 5.07a3.89 3.89 0 0 0-.28.39 4.48 4.48 0 0 0-.48 2.12 9 9 0 0 0 .38 2.45 17.2 17.2 0 0 0 2.14 5.15 5.65 5.65 0 0 0 1.38 1.38 6.2 6.2 0 0 0 .94.52 18.29 18.29 0 0 0 4.72 8.67v2a3.32 3.32 0 0 0-2.67 2.56l-.64 2.88h-.19a7.59 7.59 0 0 0-1.14.27c-.94.33-2.48.68-4.19 1.18a21.11 21.11 0 0 0-8.1 3.94A11.83 11.83 0 0 0 1.2 66.2 14.11 14.11 0 0 0 0 72.13c0 .54 0 1.09.07 1.67a2.14 2.14 0 0 0 .37 1 4.73 4.73 0 0 0 1.36 1.25A19.82 19.82 0 0 0 5.92 78c5.27 1.87 14 3.59 24.8 3.6s19.53-1.73 24.8-3.6a20.19 20.19 0 0 0 4.13-1.93A5 5 0 0 0 61 74.79a2 2 0 0 0 .36-1c.05-.58.07-1.13.07-1.67a13.81 13.81 0 0 0-1.19-5.92zM40.57 54.36l.9 4.11 2.15 9.71-8.5-1.12-3.22 3.46V68h-.08l7.78-9.69v-4.66h.08a1 1 0 0 1 .89.71zM18.7 39.51l-.12-.69-.65-.23a4.13 4.13 0 0 1-1-.49 3.89 3.89 0 0 1-1.21-1.49 19.14 19.14 0 0 1-1.37-3.73 6.58 6.58 0 0 1-.3-1.79 2 2 0 0 1 .2-1 1 1 0 0 1 .44-.41 15.92 15.92 0 0 1 2.77 3.16s-.32-4.52-.32-6.93c1.45-10.48 12.25-3.55 16.28-11.12a9.28 9.28 0 0 0 4.51 3.71c6.77 2.74 6.13 12.41 6.13 12.41s-.59 3.39 2-1.39h.09a1.27 1.27 0 0 1 .46.1 1 1 0 0 1 .57.48 2.07 2.07 0 0 1 .2 1 6.9 6.9 0 0 1-.29 1.79 20.56 20.56 0 0 1-1.37 3.73 4.08 4.08 0 0 1-1.21 1.49 4.53 4.53 0 0 1-1 .49l-.66.23-.12.69A16.12 16.12 0 0 1 38.15 48l-.31.34v9.33l-2.32 2.93a10.11 10.11 0 0 1-9.59 0l-2.35-2.93c0-.75.05-2.7.05-3.86v-5.47L23.3 48a16.13 16.13 0 0 1-4.6-8.49zm1.27 19l.91-4.11a1 1 0 0 1 .94-.75h.07v4.66L29.61 68h-.08v2.56l-3.21-3.46-8.51 1.12zm39 15a1.26 1.26 0 0 1-.21.22 7 7 0 0 1-1.39.89 31 31 0 0 1-5.82 2.1 82 82 0 0 1-20.86 2.49A82 82 0 0 1 9.86 76.7 31.27 31.27 0 0 1 4 74.6a7.33 7.33 0 0 1-1.39-.89 1.83 1.83 0 0 1-.21-.22v-1.36A10.73 10.73 0 0 1 4.06 66a12.87 12.87 0 0 1 6.48-4.65 37.05 37.05 0 0 1 3.71-1.15c1.17-.32 2.22-.58 3.1-.88L14.76 71l10.66-1.41 5.3 5.7L36 69.58 46.69 71 44.1 59.29c.88.3 1.93.56 3.09.88a38 38 0 0 1 3.72 1.15A12.91 12.91 0 0 1 57.39 66a10.88 10.88 0 0 1 1.67 6.16c0 .41-.06.84-.06 1.33z"/><path class="cls-1" d="M71.48 7.34v29.71l-6.76-5.93L58 37.05V7.34zM74.86 4H54.59v40.51l10.13-8.9 10.14 8.9zm-7 21.7L64.72 24l-3.13 1.67.63-3.49-2.56-2.46 3.51-.49L64.72 16l1.55 3.19 3.52.49-2.56 2.46z"/></g></g></svg>