<svg xmlns="http://www.w3.org/2000/svg" viewBox="0 0 512 488.52"><defs><style>.cls-1{fill:#aee78b}</style></defs><g id="レイヤー_2" data-name="レイヤー 2"><g id="_2" data-name="2"><path class="cls-1" d="M440.31 70.68A244.13 244.13 0 0 0 290.71.1a21.48 21.48 0 0 0-23.48 21.4v16.44a21.4 21.4 0 0 0 19.1 21.35 185.53 185.53 0 1 1-198.07 136l24 15a11.45 11.45 0 0 0 10.24 1.09 8.8 8.8 0 0 0 5.55-7.57L138.46 68.2a11.61 11.61 0 0 0-16.94-10.54L4.37 126.72A8.77 8.77 0 0 0 0 135a11.38 11.38 0 0 0 5.5 8.73l30.7 19.12a244.77 244.77 0 1 0 404.11-92.17z"/><path class="cls-1" d="M250.77 284.5a26.52 26.52 0 0 1-26.44-26.44v-112.5a26.52 26.52 0 0 1 26.44-26.44 26.52 26.52 0 0 1 26.44 26.44v112.5a26.51 26.51 0 0 1-26.44 26.44z"/><path class="cls-1" d="M389.71 263.4a26.52 26.52 0 0 1-26.44 26.44h-112.5a26.52 26.52 0 0 1-26.44-26.44 26.52 26.52 0 0 1 26.44-26.4h112.5a26.52 26.52 0 0 1 26.44 26.4z"/></g></g></svg>