<svg xmlns="http://www.w3.org/2000/svg" viewBox="0 0 60.43 52.94"><g data-name="レイヤー 2"><g data-name="レイヤー 1"><path d="M56.09 27.87a.43.43 0 0 1-.3-.08.38.38 0 0 0-.18-.09v.13c0 .02 0 .08-.08.05s0-.1-.1-.1-.11.08-.2.11a.87.87 0 0 1-.4-.07c-.05 0-.21-.05-.22 0s-.22.24-.28.31-.2 0-.27.17a.92.92 0 0 1-.32.33 2.61 2.61 0 0 0-.27.2.62.62 0 0 0-.15.2c-.05.1-.09.23-.22.24a4.19 4.19 0 0 1-.54-.19.75.75 0 0 1-.2 0c-.08 0-.11 0 0 .11s.16.11.18.17-.29.06-.41.06-.35-.23-.43-.25-.11 0-.18.05-.17-.06-.12-.11-.06-.09-.05-.16.12-.07.18-.07.1 0 .16.07 0 0 0-.09a1.14 1.14 0 0 0-.44-.18c-.05 0-.21 0-.25.06s-.07-.11-.13-.2.11-.05.09-.08-.1 0-.1-.11.28-.12.43-.07.16.25.26.34.25.1.39.21a.76.76 0 0 0 .37.18c.1 0 0-.11-.12-.16s-.23-.2-.57-.48a3.16 3.16 0 0 1-.56-1.57 3.29 3.29 0 0 0-.21-.85 2.45 2.45 0 0 1-.15-.43.6.6 0 0 0-.15-.32c-.07-.09-.08-.32 0-.33a3.09 3.09 0 0 1 .56.19c.09 0-.07.15-.17.16s-.11 0 0 .06.18-.05.27-.07a.18.18 0 0 0 .13-.1v.09a.55.55 0 0 1 .34.08c.07.05 0 0-.1 0s0 .08.06.12 0 0 .09 0 .06.08 0 .12a.19.19 0 0 1-.15.06.32.32 0 0 0-.14 0v.09c0 .02-.06 0-.12 0s0 .08.08.09-.06 0 .12.07a.42.42 0 0 0 .39-.16.46.46 0 0 0-.2-.45 4.75 4.75 0 0 0-1.09-.38 1.48 1.48 0 0 1-.65-.35 1.28 1.28 0 0 1-.18-.43 1.44 1.44 0 0 0-.26-.38 2.33 2.33 0 0 1-.25-.6.86.86 0 0 1 .12-.75 1 1 0 0 0 .16-.59 1.14 1.14 0 0 1 0-.41c0-.08.13-.23.18-.33a1.05 1.05 0 0 0 .13-.36 1.75 1.75 0 0 1 .31-.52c.06-.08.26-.3.35-.42a2.76 2.76 0 0 0 .37-.5v-.4c0-.08.12-.44.18-.5s.36-.43.47-.57.16-.16.17-.27a.77.77 0 0 1 .12-.26 2.74 2.74 0 0 0 .07-.32c0-.12.1-.11.12-.26s-.09-.33-.11-.39a.31.31 0 0 1 0-.23c0-.12 0-.18-.07-.24s0-.22-.1-.25-.18.11-.21.16a1.23 1.23 0 0 0 0 .29h-.12s-.1.17-.16.28a.91.91 0 0 1-.36.34c-.14.08-.26.53-.33.72a.74.74 0 0 1-.35.33 4.65 4.65 0 0 0-.42.34l-.42.35c-.08.09-.45.32-.55.42s-.1.18-.15.22a3.73 3.73 0 0 1-.47.41.35.35 0 0 0-.21.23 1.1 1.1 0 0 1-.34.4 2.92 2.92 0 0 0-.44.41.65.65 0 0 1-.19.21.78.78 0 0 0-.2.16.43.43 0 0 1-.29.1l-1 .08h-.89a7.55 7.55 0 0 1-2.14-.65.61.61 0 0 1-.3-.43c0-.1-.16-.18-.23-.21s-.07-.27-.12-.34 0-.26 0-.42a.53.53 0 0 0-.06-.36c0-.11-.13-.07-.17 0a.51.51 0 0 1-.3.07c-.06 0-.14 0-.1.15a2.83 2.83 0 0 1 0 .59c0 .1-.17.22-.22.27a.69.69 0 0 1-.47.06.28.28 0 0 1-.12-.34c0-.11.11-.39.13-.5s.17-.11.25-.16.32 0 .37-.08-.23-.09-.42-.14a4.61 4.61 0 0 1-.48-.25 3.79 3.79 0 0 1-.38 0c-.12 0-.56-.18-.69-.2s-1.36-.37-1.55-.43-.13 0-.11 0h.18a2 2 0 0 1 .7.25.62.62 0 0 0 .37.11.65.65 0 0 1 .29.13c.07 0 .07-.05.16-.06s.14.07.11.08-.17 0-.17.05a.37.37 0 0 1-.09.23c-.08.1-.21.32-.26.28s-.22-.22-.26-.22h-.12a.58.58 0 0 1-.3-.06.36.36 0 0 0-.25 0s-.22.11-.28.09 0-.09-.08-.08-.1.06-.14.06h-.13c-.07 0-.07-.15-.09-.21s-.17 0-.18-.09a.86.86 0 0 0-.22-.25s-.06-.12-.07-.23-.17-.12-.23-.19a.35.35 0 0 1 0-.27h.21a.31.31 0 0 1 .25.09c0 .06.16.05.2.05a.46.46 0 0 1 .16 0h.13l-.55-.19c-.31-.13-1.21-.52-1.31-.59a1.25 1.25 0 0 0-.26-.13l-.31-.15a.22.22 0 0 0 0 .1s-.05.05-.1.07-.1-.11-.12-.14.09-.08.12-.08 0 0-.2-.13-.47-.25-.73-.42a.73.73 0 0 1-.36-.45.39.39 0 0 0-.14-.21 4.65 4.65 0 0 1-.51-.33 6.33 6.33 0 0 1-.57-.45c0-.08-.05-.16-.13-.21s-.61-.35-.74-.45-.71-.51-.71-.51a.72.72 0 0 1 0-.15l-.14-.07a4.06 4.06 0 0 1-.64-.4c-.12-.12-.23-.41-.32-.48a.28.28 0 0 1-.11-.23c0-.08-.11-.13-.19-.15s-.24-.23-.35-.33-.33-.35-.39-.39a.74.74 0 0 1-.17-.18c-.06-.07-.19 0-.23-.15s-.13-.14-.25-.26a5.73 5.73 0 0 1-.42-.54 1.77 1.77 0 0 1-.14-.27c0-.07-.14-.2-.17-.28a.72.72 0 0 0-.42-.2.58.58 0 0 1-.17-.37c0-.14-.33-.45-.44-.61a1.34 1.34 0 0 1-.18-.6c0-.08-.07-.16-.2-.3a.86.86 0 0 1-.2-.46c0-.11-.05-.1-.05-.1l-.06-.1-.15-.12v-.15c0-.07-.06-.08-.12-.1a.55.55 0 0 1-.3-.21 8.46 8.46 0 0 0-.67-.67c-.09-.07-.12-.23-.14-.26s-.23-.29-.35-.42-.62-.79-.71-.94a7.45 7.45 0 0 1-.58-.68 3.57 3.57 0 0 0-.47-.68c-.12-.09-.49-.26-.6-.43s-.47-.35-.49-.41a1.41 1.41 0 0 1 0-.2c0-.05-.07-.08-.08-.14a.31.31 0 0 0-.2-.23.91.91 0 0 1-.29-.52.35.35 0 0 0-.33-.3.4.4 0 0 0-.35.17l-.16.14a2.8 2.8 0 0 0 0 .36 1 1 0 0 1-.15.41 2.38 2.38 0 0 1-.47.38 1.5 1.5 0 0 1-.52 0c-.06 0-.13 0-.19.09a.41.41 0 0 1-.38 0c-.14-.05-.09-.32-.13-.37a3.58 3.58 0 0 0-.29-.27s-.07.08-.09.17a1.15 1.15 0 0 0 0 .54c.07.18.13.23.13.41a1.36 1.36 0 0 1-.28.64c-.06.06 0 .16 0 .37s-.3.47-.43.63.05.87.12 1.09.58 1.35.6 1.4a.33.33 0 0 0 .11.15.57.57 0 0 1 .08.24.21.21 0 0 0 0 .13.88.88 0 0 1 .15.27c.05.13.26.74.31.87a6.12 6.12 0 0 1 .2.82c0 .11.15.43.17.62s.08.63.09.7.08.49.08.62a4.19 4.19 0 0 0 .11.66 4 4 0 0 1 0 .95 1.9 1.9 0 0 1-.19.45.91.91 0 0 0-.08.39v.77a3.65 3.65 0 0 1-.28.74c-.06.09-.26.46-.3.5a.64.64 0 0 0-.14.32c0 .14-.26.4-.3.52a3.88 3.88 0 0 0 0 .76 3.76 3.76 0 0 1 0 .47 1.9 1.9 0 0 0 0 .41V18c0 .13.07.58.07.82a5.09 5.09 0 0 1-.05.93 3.4 3.4 0 0 0-.11.49c0 .24 0 .22-.06.25s0 .12-.06.25-.13.19-.16.25-.08.19-.14.3a.69.69 0 0 1-.2.25s-.13.14-.18.13-.15.09-.19.09 0-.05-.07-.07a.24.24 0 0 0-.21.07c-.05.06-.14.18-.21.2s-.3.05-.44.09a2.33 2.33 0 0 0-.6.36c-.07.08 0 .17 0 .28a.35.35 0 0 1-.11.28 1.17 1.17 0 0 0-.28.5 1.23 1.23 0 0 0 .15.59.36.36 0 0 1 0 .27.13.13 0 0 0 .05.13.3.3 0 0 1 .08.18.34.34 0 0 0 .14.23.5.5 0 0 1 .09.39.73.73 0 0 1-.12.25 2 2 0 0 1-.13.27.57.57 0 0 0 0 .28c0 .05 0 .07.07.09s.14.21.19.3a1 1 0 0 1 .09.31c0 .14.21.28.26.37a1.34 1.34 0 0 1 .13.4c0 .12 0 .2-.11.33s0 .44 0 .58-.12.28-.2.37a1.81 1.81 0 0 0-.24.34c0 .07 0 .13-.05.17s0-.06 0 0-.23.31-.32.42a4.06 4.06 0 0 1-.71.64c-.18.09-.55.33-.62.37a.3.3 0 0 1-.29 0 4.5 4.5 0 0 1-.43-.23 1.79 1.79 0 0 0-.54-.19.48.48 0 0 1-.34-.17.28.28 0 0 1 0-.27c.05-.06 0-.21 0-.26s0-.07-.09 0-.16 0-.27 0a.55.55 0 0 0-.26.09 1.79 1.79 0 0 1-.26.1c-.08 0-.08.07-.12.08s-.14 0-.18-.05a1.31 1.31 0 0 0-.27.06s-.09.09-.1.11 0 .09-.18.17a.57.57 0 0 1-.48-.07v-.13c0-.07-.06-.18-.1-.16a.14.14 0 0 1-.17 0c-.05-.05-.25-.16-.31-.21s-.14-.13-.23-.11a1.3 1.3 0 0 1-.48-.12c-.05 0-.11-.1-.06-.15S8.08 29 8 29s0-.1-.12-.12a.2.2 0 0 0-.16 0h-.08a.28.28 0 0 0-.09-.1 4.29 4.29 0 0 1-.48-.48c-.1-.13-.14-.11-.19-.12s0-.17-.13-.2a.52.52 0 0 0-.34 0v.12c0 .07 0 .08-.05.19s-.17.17-.27.2-.17-.05-.24 0a1.13 1.13 0 0 1-.32 0c-.07 0-.13-.1-.17-.06s0 .07.05.13a.53.53 0 0 1 0 .27.54.54 0 0 1-.2.33.27.27 0 0 0-.12.18v.27a1 1 0 0 1 0 .25c0 .08.08.14.12.2s0 .13 0 .23.14.19.19.24a.53.53 0 0 0 .24.14c.07 0 .27.22.31.3s.07.09.09.16a1.72 1.72 0 0 0 .09.19c0 .05.06.06.11.09s0 .14 0 .19v.11a2.25 2.25 0 0 1 .21.12.28.28 0 0 1 0 .18s0 .1.09.18.07.17.15.17.11 0 .11.11a.9.9 0 0 1-.08.35 2.83 2.83 0 0 1-.29.17 1.87 1.87 0 0 0-.39.28.71.71 0 0 1-.15.08 3 3 0 0 0-.35.36c-.07.07-.09.21-.14.27a1.49 1.49 0 0 0-.19.38c-.06.14-.39.42-.45.53s0 .25 0 .42a.28.28 0 0 1-.17.31.44.44 0 0 1-.34 0 .43.43 0 0 1-.13-.27.45.45 0 0 0-.2-.21A.22.22 0 0 1 4 35c-.05-.08-.17-.06-.18 0a2.34 2.34 0 0 1-.19.33c-.08.16-.12.24-.1.3a.36.36 0 0 1-.05.21.31.31 0 0 1-.15.08 1.26 1.26 0 0 0-.18.08.34.34 0 0 1-.17.1 2.59 2.59 0 0 0-.19.23.41.41 0 0 0-.08.13c0 .07-.08.1-.13.14s-.16 0-.19 0a1.44 1.44 0 0 1-.17.06H2a1.49 1.49 0 0 1-.26 0 1.06 1.06 0 0 0-.4.09c-.09 0-.44.23-.49.38a1.58 1.58 0 0 1-.19.36s-.14.06-.17.12 0 .14 0 .26a1.84 1.84 0 0 0 .08.3 1.8 1.8 0 0 0 .06.33 1.25 1.25 0 0 1 0 .42v.43a.88.88 0 0 1 0 .22 3.67 3.67 0 0 0 0 .46 1.6 1.6 0 0 1-.08.23.4.4 0 0 1-.13.19s0 .13-.06.19a1.79 1.79 0 0 1-.29.27s-.06.11-.08.2a3.59 3.59 0 0 0-.08.35.68.68 0 0 0 .13.33c.06.08 0 .14 0 .18s-.09.11-.07.16a1.31 1.31 0 0 1 .1.19.57.57 0 0 0 .34.28 1.17 1.17 0 0 0 .4 0c.08 0 .13.16.12.2a.39.39 0 0 0 0 .14c0 .05.1.18.13.25a2.92 2.92 0 0 0 .2.39c.07.14.11.09.26.12s.17 0 .19 0H2l.14.09h.11a.63.63 0 0 1 .2.22c.06.08.18.23.24.33s.16.42.2.46A.45.45 0 0 1 3 45a2.6 2.6 0 0 0 .1.25c0 .05.07.09.08.14a1.6 1.6 0 0 0 0 .21.58.58 0 0 1 0 .16.25.25 0 0 1 0 .09v.1a1.4 1.4 0 0 1 .09.31.62.62 0 0 1 0 .27v.12a.21.21 0 0 1 0 .15s.03.2.01.2 0 0 0 .11a2.6 2.6 0 0 0 0 .28.38.38 0 0 1 0 .2l-.08.17h-.09a.49.49 0 0 0-.24 0s-.06.06 0 .09a.92.92 0 0 1 0 .3 1 1 0 0 1-.17.44l-.29.44a1.12 1.12 0 0 0-.15.35 2.15 2.15 0 0 0-.09.44 1 1 0 0 1-.1.35 2 2 0 0 0 0 .63.63.63 0 0 0 .16.41 2.14 2.14 0 0 1 .06.31 2.5 2.5 0 0 0 .17.33 1 1 0 0 1 0 .25c0 .06 0 .08.06.15s.08.07.12.08.07 0 .1 0a1.5 1.5 0 0 1 .11.13.22.22 0 0 0 .15.08.35.35 0 0 0 .22-.08h.31c.13 0 .31.28.34.32a.47.47 0 0 0 .16.1l.06-.07c.06-.07.15-.09.19-.14s0-.12 0-.16.07-.06.09-.09 0-.08 0-.11a.56.56 0 0 0 .06-.17 1 1 0 0 0 .13-.2v-.15a.67.67 0 0 1 .24 0c.07 0 .13 0 .23-.08a2.68 2.68 0 0 0 .34-.17.78.78 0 0 1 .27-.09 2 2 0 0 0 .26 0 .19.19 0 0 0 .1-.15 3.79 3.79 0 0 1 .17-.3.1.1 0 0 0 0-.14v-.36a4.44 4.44 0 0 1 .09-1c.07-.28.12-.31.21-.35s.4 0 .6-.07.38-.3.42-.34.12-.07.23-.14a.31.31 0 0 0 .09-.28v-.09c0-.01.06-.08.07-.18a.36.36 0 0 1 .11-.32c.13-.18.22-.11.43-.12s.34.09.35.17 0 0 .06.09a.19.19 0 0 1 .06.2c-.07.11-.13.13-.15.08s-.09 0-.14 0-.05.16 0 .33.05.06.14.09 0 0 .08 0 .08 0 .06-.12 0-.11.1-.22a.57.57 0 0 1 .43-.07l.36.09a.72.72 0 0 0 .28 0c.06 0 .08 0 .09.07s.14.07.2 0 .31.13.45.17.08.1.14.25.11.14.19.11a1.47 1.47 0 0 1 .36 0c.07 0 0-.07.2 0s.08-.05.09-.09.08 0 .17 0 .19-.16.24-.21a.65.65 0 0 0 .17-.32c0-.11.12-.17.18-.22s.06 0 .14 0h.25c.14 0 .13-.15.22-.17s.11-.08 0-.2-.16-.12-.23-.17-.13-.11-.11-.19 0-.14-.14-.28a4.09 4.09 0 0 0-.58-.31 1.11 1.11 0 0 0-.46-.11 1.44 1.44 0 0 1-.53-.24c-.08-.07-.11-.1-.11-.18s-.11-.14-.17-.23a.93.93 0 0 1-.19-.37c0-.11-.15-.27-.2-.36a1.59 1.59 0 0 0-.49-.31.48.48 0 0 1-.27-.43.19.19 0 0 0-.17-.21c-.09 0-.25-.17-.23-.32s-.19-.27-.38-.33-.2 0-.29 0a.59.59 0 0 1-.25 0c-.17 0-.53.27-.64.3a.68.68 0 0 1-.35-.05.84.84 0 0 1-.35-.11 2.27 2.27 0 0 0-.34-.31.4.4 0 0 1-.21-.23c0-.11-.32-.25-.41-.38a1.58 1.58 0 0 0-.53-.35 1.28 1.28 0 0 1-.48-.1c-.22-.1-.17-.15-.3-.28s-.11-.37.16-1.5a5.51 5.51 0 0 1 1.22-2.27c.25-.29.34-.34.45-.32h.48a2.8 2.8 0 0 1 .49.19c.09 0 .12-.11.37-.19a2.62 2.62 0 0 1 .65-.09c.05 0 .09.12.16.17a2.34 2.34 0 0 1 .37.22.87.87 0 0 1 .22.41c0 .07.09.16.1.25s.07 0 .14.05.24.31.33.37a1.53 1.53 0 0 1 .51.55 1.08 1.08 0 0 1 .11.56c0 .09.08 0 .19.09a1.38 1.38 0 0 0 .37.18 1.21 1.21 0 0 0 .37.13c.16 0-.06.15-.11.17a.43.43 0 0 1-.18.09c-.1 0-.13-.14-.16-.18s-.06 0-.15 0-.06 0-.07.06 0 .17 0 .19a.57.57 0 0 0 .22 0h.09c.11.06 0 0 0 .08s.22.12.36.12.08-.19.11-.28.12-.15.14-.2.07-.09.2-.22c.06-.06.48-.58.61-.73a.88.88 0 0 1 .4-.25s.12-.11.2-.12.39-.28.5-.31.29-.25.43-.38a6.11 6.11 0 0 1 1.73-1.13 3.46 3.46 0 0 1 2.34-.32 3.22 3.22 0 0 1 1.63.71c.11.15.44.37.61.56s.4.42.48.48a.91.91 0 0 0 .37.09c.06 0 .08.16.19.14a4.32 4.32 0 0 1 1.07.31c.11.09.2.34.31.44s.28.34.39.43.7.47.76.53a1.12 1.12 0 0 0 .36.28l.54.22c.05 0 .2.29.31.32s.59.25.78.3a1.69 1.69 0 0 1 .68.45 1 1 0 0 0 .22.28c.06 0 .12-.05.29 0a4.53 4.53 0 0 0 .44.12.16.16 0 0 1 .17.1c0 .07.17.09.32.23a.68.68 0 0 0 .47.14h.11a1.48 1.48 0 0 0 .36.08c.06 0 .09.11.15.17s.05-.09.12-.14a.35.35 0 0 1 .32.11c.06.08.06.2.18.22s.11 0 .22.17a1.56 1.56 0 0 0 .57.28c.07 0 .19.2.36.26a1.74 1.74 0 0 1 .56.7c.09.22.42.41.59.59s.14.26.2.24 0-.32 0-.72a.8.8 0 0 1 .31-.59c.05-.05.1-.2.17-.26s.08-.3.08-.41.11-.28.09-.4a3.19 3.19 0 0 1 0-.45c0-.16.14-.44.16-.61s-.02-.15-.02-.23a.77.77 0 0 1-.06-.46 5.19 5.19 0 0 1 .34-1.23 17.64 17.64 0 0 1 1.33-2.31c.55-.79 1.48-1.85 1.52-1.9a.15.15 0 0 0 0-.11l.11-.09s.29-.28.26-.32.1-.1.14-.1a2.28 2.28 0 0 0 .47-.42c.11-.12.62-.68.88-.9s.36-.42.59-.57l1.14-.79a1.11 1.11 0 0 1 .39-.13c.12 0 .14-.08.23-.12a3.31 3.31 0 0 1 .59-.28 5.87 5.87 0 0 1 1-.24 1 1 0 0 1 .58 0c.09 0 .1.14.14.16s.1.07.09.12-.13.1-.07.13a2.2 2.2 0 0 1 .4.16 3 3 0 0 0 .76.22 2.56 2.56 0 0 0 .58-.11 4.05 4.05 0 0 1 .61 0l.14.07c.14.07.13 0 .18 0s.11.08.18.12a1.53 1.53 0 0 0 .44 0h.5c.09 0 0-.11 0-.13s-.14-.14-.19-.17 0-.05-.11-.1-.12-.16-.11-.38a1.34 1.34 0 0 1 .44-.7c.15-.13.23 0 .37-.1s.28 0 .32 0 0-.11 0-.17a.23.23 0 0 1 .09-.15v.1c0 .04.07 0 .2 0s.3.19.37.25 0 .09 0 .18-.07.1-.16.1-.09.12-.2.11-.16-.08-.25-.11-.1-.24-.14-.25 0 0 0 .05-.08 0-.08 0v.17s-.06.12 0 .12a.2.2 0 0 1 .15.06v.13c0 .06.07.15.09.2s.1 0 .16 0a.5.5 0 0 1 .23.09s.07 0 .12-.08.14 0 .2.06l.24.06c.08 0 .1-.12.17-.16s.17 0 .3-.1.1-.16.08-.21 0-.17 0-.15.1 0 .18-.06a1.21 1.21 0 0 1 .29-.16v-.08a.22.22 0 0 0 0-.17c0-.08 0-.12.06-.15a.44.44 0 0 1 .26 0s0 .06.13.05.11 0 .14-.07.06 0 .15 0 0-.08-.08-.11a.27.27 0 0 0-.23 0c-.07 0-.08-.06-.18-.07s-.09-.15-.08-.33.08-.2.21-.29a.9.9 0 0 1 .35-.18c.12 0 .1.18.23.2a.55.55 0 0 0 .43-.15c.07-.09.36-.32.48-.29a.53.53 0 0 0 .31 0s.11-.1.15-.11a2.52 2.52 0 0 0 .43-.09 4.46 4.46 0 0 1 .73 0 .26.26 0 0 1 .27.16c0 .07 0 .1-.09.14s0 .08.13.05a1.19 1.19 0 0 0 .25-.13c.05 0-.06-.08-.1-.09a.07.07 0 0 1 0-.11.37.37 0 0 1 .14 0c.06 0 .11-.1 0-.14s0-.16 0-.16.22-.05.19-.12 0-.16 0-.22a.56.56 0 0 1 0-.28.92.92 0 0 0 .05-.26c0-.09.11 0 .2 0s.1-.14.14-.18.1-.21.15-.25a.76.76 0 0 1 .33-.08h.11c.04 0 .06.1.1.09s0-.07 0-.1a2 2 0 0 1 .39-.19l.08.06c.08.06.13-.06.13-.06l.23-.09c.09 0 .24-.24.27-.25h.12c.07 0 0-.11 0-.18s.4.07.29.08zM17.85 4.12c-.05 0-.1 0-.09-.12s0-.06.07 0 .09.16.02.12zm.07 1.79s.07-.09.1-.06 0 .2-.07.2-.04-.05-.03-.14zm.26.55a.31.31 0 0 1-.2 0c-.06 0 0-.09 0-.13a.14.14 0 0 1 .12-.06c.07.05.13.15.08.19zm.44-4.62a.36.36 0 0 0-.12.16c-.09 0-.24-.07-.19-.18a.24.24 0 0 1 .23-.15c.09.01.17.13.08.17zm-8 36c0 .13-.19.22-.25.29a.32.32 0 0 1-.22.08c-.06 0-.1-.09-.25-.06a.28.28 0 0 1-.31-.1c-.05-.07 0-.21-.08-.3s0-.1 0-.13l.1-.07a.38.38 0 0 0 .1-.21.3.3 0 0 1 .18-.2.07.07 0 0 1 .1.05v.15c0 .15 0 .07.05.09s0-.07 0-.1v-.13c0-.04 0 0 .11 0s.09.07.16.12a2.05 2.05 0 0 1 .25.27s.09.12.05.26zm2.64 1.2c0 .05-.11.1-.17.08A.15.15 0 0 1 13 39c0-.06 0-.12.09-.11h.16s.04.11 0 .16zm2-3.14a.51.51 0 0 1-.26.1c-.07 0-.08.07-.15.06s-.16-.06-.23 0a3.92 3.92 0 0 1-.29.29h-.23c-.08 0-.17 0-.18-.09v-.19c0-.13-.13-.18-.07-.31s.11-.22.16-.15.1.09.14.07.16 0 .17-.06a.59.59 0 0 1 .11-.23c.07-.08.08-.19.18-.16s.18.13.3.15a.26.26 0 0 1 .21.13c0 .05.08.08.07.15s.06.21.02.25zM20 20.77a.11.11 0 0 1-.06.08c-.06 0-.07 0 0 .09s0 .12 0 .11a.16.16 0 0 1-.13-.13c0-.07 0 0 .07-.05a.53.53 0 0 0 .12-.2.11.11 0 0 1 .1-.07.31.31 0 0 0-.1.17zm3-4.85c-.11 0-.17.1-.2.05s-.06-.12-.09-.08 0 .13 0 .16-.1 0-.1 0v.09l-.11-.08a.75.75 0 0 0-.14-.08v-.09a.11.11 0 0 0 0-.08s-.06-.08 0-.09.11 0 .12 0a.11.11 0 0 0-.06-.11.31.31 0 0 1-.09-.07s-.06 0 0 0h.17s.08 0 .06-.07-.07-.11 0-.11h.1c.03 0 0-.09 0-.09s-.1-.05 0 0h.19c-.06.06-.15.13-.12.2s.09.29.06.34.07 0 .1-.09.06-.06.09 0-.07.06 0 .15 0 .15.05.16.13-.12-.03-.11zm1-10.65c0 .06-.16.06-.23 0a.21.21 0 0 1-.13-.15c0-.07 0-.28-.15-.26s-.13.1-.08.16 0 .22 0 .16a1.08 1.08 0 0 0-.2-.18.17.17 0 0 1 0-.26c.09-.07.13 0 .25.08a.83.83 0 0 0 .29.21c.16-.03.25.18.25.24zm1.84 25.31a.67.67 0 0 0-.24.08s-.09 0-.12.06l-.13.11-.23.18c-.07.07-.1.06-.09.12s.09.08 0 .06-.1-.05-.14 0-.05.1-.08.05a.2.2 0 0 1 0-.2l.22-.07a2.34 2.34 0 0 0 .18-.23c.06-.07.12-.1.17-.09s.14-.09.2-.12a.76.76 0 0 1 .27 0c.08-.05.03.03-.04.05zm15.52-10.66s-.13 0-.16.08-.09.09 0 .17.1.17 0 .21-.13 0-.17.09a.29.29 0 0 0-.07.2v.2c0 .03-.1.06-.12 0s0-.13 0-.15-.17-.07-.18 0 0 .12-.07.08-.07-.08 0-.17 0-.16.06-.21.23-.1.25-.17 0-.31.18-.35.28 0 .34-.06-.02.06-.06.08zm1.77 4.45c-.05 0-.1.11-.13.1s-.13 0-.13 0-.19.16-.21.2a.33.33 0 0 0 0 .15c0 .07-.05.12-.07.18a1.11 1.11 0 0 0 0 .26c0 .07 0 .15-.07.16s-.15 0-.16-.05a.16.16 0 0 1 0-.17s0-.1-.08-.09-.1 0-.1.08v.15s-.07-.06-.11-.1-.1 0-.16-.09a.34.34 0 0 1-.1-.21c0-.05 0-.14.05-.18s.09-.08.08-.14a.87.87 0 0 0-.07-.19l.11-.08c.06-.05.09-.12.13-.12s.06.08.11 0 .07-.1.11-.12.11 0 .16 0a.26.26 0 0 0 .15 0 .31.31 0 0 1 .23 0 .94.94 0 0 0 .22.07s.23 0 .22.05-.13.14-.18.14zm1.52.93h-.24c-.03 0-.12.16-.12.21s-.08.1-.13.09 0-.08-.1-.1 0-.1 0-.1a.46.46 0 0 1 .06-.31 1.93 1.93 0 0 1 .24-.13.2.2 0 0 1 .26.08c.11.17.09.25.03.26z" fill="#699132"/><path d="M57.08 1H57a3.18 3.18 0 0 0-2.78 1.54A3.18 3.18 0 0 0 51.44 1h-.06A3.14 3.14 0 0 0 49 2.09 4.22 4.22 0 0 0 48 5c0 2.31 1.85 3.72 3.64 5.09a20.38 20.38 0 0 1 2 1.66.63.63 0 0 0 .49.24.65.65 0 0 0 .49-.24 21.84 21.84 0 0 1 2-1.67c1.96-1.39 3.81-2.8 3.81-5.08s-1.38-4-3.35-4z" fill="#d36778"/></g></g></svg>