<svg xmlns="http://www.w3.org/2000/svg" viewBox="0 0 23.25 12"><g data-name="レイヤー 2"><path d="M22.78 3.66A6.09 6.09 0 0 0 20.6 1 6 6 0 0 0 19 .27 5.81 5.81 0 0 0 17.25 0 5.93 5.93 0 0 0 15 .44h-.17a5.93 5.93 0 0 0-1.7 1.13 5.11 5.11 0 0 0-.45.48c-.23.26-.48.57-.78 1l-.16.21c-.15.24-1.47 2.18-1.74 2.54l-.3.45-.2.28c-.23.33-.5.69-.77 1L8.41 8a3.37 3.37 0 0 1-.27.27A3.09 3.09 0 0 1 6 9.13 2.92 2.92 0 0 1 5.17 9H5l-.24-.09a3.1 3.1 0 0 1-1.35-1.16A3 3 0 0 1 3 6.93 3.38 3.38 0 0 1 2.87 6a3.2 3.2 0 0 1 .24-1.22 3.16 3.16 0 0 1 1.14-1.37A3.09 3.09 0 0 1 5.07 3 3 3 0 0 1 6 2.87a3.05 3.05 0 0 1 1.17.23 3.16 3.16 0 0 1 1 .62l.24.28c.18.22.4.5.64.82l.13.18c.36-.53 1.47-2.17 1.62-2.37l.09-.12a4 4 0 0 0-.32-.38 5.52 5.52 0 0 0-.45-.48A5.94 5.94 0 0 0 8.26.44 6 6 0 0 0 1 2.64a6.31 6.31 0 0 0-.73 1.57 6 6 0 0 0 .2 4.12A6 6 0 0 0 2.64 11a6.32 6.32 0 0 0 1.57.76 5.95 5.95 0 0 0 5.79-1.3.52.52 0 0 0 .11-.1 5.32 5.32 0 0 0 .46-.48c.23-.26.48-.57.79-1l.15-.21 1.42-2.07.69-1 .1-.15c.26-.36.53-.73.77-1l.35-.45a3.59 3.59 0 0 1 .26-.27 3.24 3.24 0 0 1 1-.63l.27-.1.26-.06a3.5 3.5 0 0 1 .65-.07 3.13 3.13 0 0 1 1.22.25 3 3 0 0 1 1.37 1.13 3 3 0 0 1 .4.82 3.19 3.19 0 0 1-.1 2.15A3.24 3.24 0 0 1 19 8.59a3 3 0 0 1-.82.4 3.28 3.28 0 0 1-.93.14 3.13 3.13 0 0 1-1.17-.23 3.46 3.46 0 0 1-1-.62L14.84 8c-.17-.19-.38-.46-.65-.81L14.07 7l-.23.34c-.91 1.33-1.3 1.9-1.39 2l-.09.13.31.36a5.75 5.75 0 0 0 .46.49A5.94 5.94 0 0 0 15 11.56a6 6 0 0 0 2.26.44 6 6 0 0 0 6-6 6 6 0 0 0-.48-2.34z" fill="#4b4b4b" data-name="レイヤー 1"/></g></svg>