<svg xmlns="http://www.w3.org/2000/svg" viewBox="0 0 512.01 435.45"><g data-name="レイヤー 2"><path d="M501.42 317l-37.87 4c-5.52.6-12.77-2.53-16.13-6.93l-143.15-187.8c-3.36-4.41-8.36-4.1-11.11.72L167.75 346.08c-2.75 4.8-.5 9.28 5 9.94l234.41 28.36c5.5.65 11.86 5.32 14.14 10.37l15.7 34.7c4.45 9.1 15 7.16 16.87-1.2 0 0 6.2-25.83 19.34-48.78s35.71-47.38 35.71-47.38c6.25-5.84 2.61-15.92-7.5-15.09zM257.67 128.42L178.16 0 160.5 10.94l79.53 128.4 17.64-10.92zM0 311.22l151.01 3.55.49-20.74-151-3.56-.5 20.75z" fill="#d6b2e7" data-name="2"/></g></svg>