<svg xmlns="http://www.w3.org/2000/svg" viewBox="0 0 283.57 265.97"><defs><style>.cls-11,.cls-2{fill:#fff}.cls-3{fill:#f6aa00}.cls-4{fill:#00a85f}.cls-5{fill:#e95541}.cls-6{fill:#b99040}.cls-9{fill:#689d38}.cls-11{font-family:TBUDRGoStd-Bold-83pv-RKSJ-H,TBUDRGothic Std;font-size:20px}</style></defs><g id="レイヤー_2" data-name="レイヤー 2"><g id="レイヤー_1-2" data-name="レイヤー 1"><path d="M222.66 135a.86.86 0 0 0-1-.69h-.12a17.29 17.29 0 0 0-6.76 2.29 30.81 30.81 0 0 1 5.11-4.71.86.86 0 0 0-.93-1.45 29.32 29.32 0 0 0-4.46 3.92l2.63-5.4a.88.88 0 0 0-.4-1.16.87.87 0 0 0-1.16.4l-2.82 5.8a30.21 30.21 0 0 0 .4-6.39.87.87 0 0 0-1.73.17 31.23 31.23 0 0 1-.53 6.93 17.16 17.16 0 0 0-2.39-6.73l-.06-.11a.86.86 0 1 0-1.53.8l.06.11c1.28 2.46 2.27 4.36 2.24 7.42a10.63 10.63 0 0 1 1.79.69l1.13.54a11 11 0 0 1 2.35 1.54c2.45-2 4.59-2.43 7.38-3h.12a.86.86 0 0 0 .68-.97zm-17.94 16.85l6.31 3.07 3.11-3.93a7.62 7.62 0 0 0-2.77-12.06l-1.12-.55a8.81 8.81 0 0 0-3.82-.92 7.39 7.39 0 0 0-6.87 4.7l6.75 3.28a1.17 1.17 0 0 1 .54 1.57 1.16 1.16 0 0 1-1.06.67 1.23 1.23 0 0 1-.52-.12l-6.4-3.11-2.6 10.84 4.65 2.26a1.18 1.18 0 0 1-.52 2.24 1.14 1.14 0 0 1-.51-.11l-4.18-2-3.45 14.32c-.72 3-.47 4.58.5 4.58.73 0 1.87-.89 3.32-2.72l3.94-5-4.24-2.05a1.19 1.19 0 0 1 1-2.13l4.7 2.29 8-10.15-5.79-2.82a1.18 1.18 0 1 1 1-2.13z" fill="#ea6000"/><path class="cls-2" d="M203.28 171.35l7.8-15.59a9.57 9.57 0 0 1-1.94-3.55c-.31-1.68-4-.15-4.17 0s-4.85 4.81-4.85 4.81l-.51 4.37v7l-.52 3.27zm-3.83-11.88c.19-5.05-.71-6.17-3.3-9.83s-3.82-2.6-3.12-6.88-4.07 5.85-4.07 5.85l-3.23 8.39-3.15 6.4s.1 4.62.57 4.81 6.7 1.57 6.7 1.57 6.43-4.36 7.64-5.52 1.96-4.79 1.96-4.79z"/><path class="cls-3" d="M185.15 167.68a17.11 17.11 0 0 0 4.14-6.28 25.74 25.74 0 0 0 2.16-10.4 15.87 15.87 0 0 1 .26-3.85 20.09 20.09 0 0 0 2.84 4.81c.28.39.55.76.78 1.1a8.15 8.15 0 0 1 .64 8.46 12.42 12.42 0 0 1-9.63 6.43c-.39-.07-.79-.16-1.19-.25zm-5.43-2.05a14.09 14.09 0 0 1-6.36-6.25 9.87 9.87 0 0 1-.54-7.22c1.77-5.5 7.19-7.08 12.39-7.86 3.69-.55 4.84-5.34 5-6.05l.67.21c-1.94 5.66-3.42 6.6-6.64 8.63l-1.28.82a12.38 12.38 0 0 0-5.95 9.53 12.07 12.07 0 0 0 2.67 8.19z"/><path class="cls-3" d="M191 168.23a16.63 16.63 0 0 0 1.77-1 12.73 12.73 0 0 0 4.64-5.08 9.77 9.77 0 0 0-.75-10c-.24-.35-.51-.73-.8-1.13-1.67-2.29-3.76-5.16-2.81-8.11a.32.32 0 0 0 0-.14l.14-.38c.3-.84.64-1.79 1-2.87l.62.2c-.25.69-2.11 5.26.57 7.85 3.78 3.66 7.27 8.1 5.5 13.61-1.29 4-5.06 6.69-9.9 7.06zm-7.73-1.15c-3.21-2.7-4.87-6.09-4.65-9.55a10.87 10.87 0 0 1 5.23-8.31l1.25-.79c3.33-2.1 5-3.31 7.14-9.53l.61.2c-.35 1.06-.69 2-1 2.82-1.24 3.45-2.16 5.47-2 9.14a24.5 24.5 0 0 1-2 9.74c-1.31 3.14-3 5.48-4.56 6.29z"/><path class="cls-4" d="M209.07 174.44l1-1a4.46 4.46 0 0 0 1.36-.79.55.55 0 0 0 .18 0 12.23 12.23 0 0 0 4.29-1.22.46.46 0 0 0 .2-.62.42.42 0 0 0-.17-.18.45.45 0 0 0-.45 0 10.36 10.36 0 0 1-2.56.9 5 5 0 0 0 3-2.34l.33-.8a6.92 6.92 0 0 0 3.62-.7l.17-.08a.47.47 0 0 0 .24-.61.52.52 0 0 0-.18-.21.47.47 0 0 0-.43 0l-.17.08a7.61 7.61 0 0 1-1.73.57 7.72 7.72 0 0 0 1.67-2.51l.15-.33a6.08 6.08 0 0 0 2.32-1.35l.2-.16a.47.47 0 0 0 .16-.32.43.43 0 0 0-.1-.34.52.52 0 0 0-.11-.1.47.47 0 0 0-.54 0l-.2.17a5.93 5.93 0 0 1-1.2.85 13.8 13.8 0 0 0 1.28-4.35h.15a2.57 2.57 0 0 1 1 .35 1.71 1.71 0 0 1 .8 1.72 15.36 15.36 0 0 1-3 7.13l-.27.37c-1 1.35-2.93 3.88-6.35 4.55a.08.08 0 0 0-.07.08c0 .56-.95 1.56-2.14 1.73a5.35 5.35 0 0 1-2.85-.19zm-6.65 4.11a8 8 0 0 0 1.79-1.75l.09-.06a33.14 33.14 0 0 0 2.85-2.85 8 8 0 0 0 1.53-.17l-.17.19a39.83 39.83 0 0 1-3.63 3.65 6 6 0 0 1-2.46 1zm-2.42-9.27a6.49 6.49 0 0 1-1.09-1.95c-.07-.18-.16-.37-.25-.59a2.6 2.6 0 0 1 0-1.9.8.8 0 0 1 .44-.49.08.08 0 0 0 0-.1s-.34-1-.49-1.52a3.06 3.06 0 0 1 .87-3.26.1.1 0 0 0 0-.05v-.06c-.5-.8.21-2.64.89-4a9.86 9.86 0 0 1 4.8-4.94 3.28 3.28 0 0 1 2.86.21 1.91 1.91 0 0 1 .33.27 4.08 4.08 0 0 1 1 2.09 14.45 14.45 0 0 0-2.79 2.41 19 19 0 0 0-1.81 2.59 18 18 0 0 1-.35-3.71v-.4a.45.45 0 0 0-.48-.44.46.46 0 0 0-.44.48v.37a15.91 15.91 0 0 0 .63 4.82 16.66 16.66 0 0 0-.95 2 25.59 25.59 0 0 1-1.13-4.19.44.44 0 0 0-.21-.37.52.52 0 0 0-.27-.07.48.48 0 0 0-.32.15.46.46 0 0 0-.12.34 25.84 25.84 0 0 0 1.58 5.5 6.16 6.16 0 0 0-.92 1.51 6.62 6.62 0 0 1-.55-2.05.48.48 0 0 0-.22-.41.61.61 0 0 0-.24-.07.47.47 0 0 0-.33.14.52.52 0 0 0-.14.32 10 10 0 0 0 1 3.42v.05a4.61 4.61 0 0 0-.08.8c-.13.3-.25.58-.38.85-.27.62-.52 1.2-.77 1.85z"/><path class="cls-4" d="M207 172.8l.92-1.44.42-.15a6.71 6.71 0 0 0 1.69-1.09 12.86 12.86 0 0 0 3.78-1.69.49.49 0 0 0 .19-.3.47.47 0 0 0-.07-.35.86.86 0 0 0-.14-.13.45.45 0 0 0-.51 0 11.2 11.2 0 0 1-2 1 2.28 2.28 0 0 0 .13-.28 9.64 9.64 0 0 0 3.08-2.86 8.42 8.42 0 0 0 3.17-1.89l.14-.12a.46.46 0 0 0 0-.65.47.47 0 0 0-.1-.1.47.47 0 0 0-.55.05l-.15.2a9.36 9.36 0 0 1-1.75 1.27 18 18 0 0 0 1.15-2.82 7.8 7.8 0 0 0 2.7-2.12l.11-.12a.52.52 0 0 0 .12-.34.45.45 0 0 0-.16-.32l-.06-.05a.46.46 0 0 0-.59.09l-.11.12a7.69 7.69 0 0 1-1.62 1.47 19.49 19.49 0 0 0 .83-4.4 3.13 3.13 0 0 1 1.37.48 2.64 2.64 0 0 1 1.07 1.15c.49 1.39.31 2.66-1.65 7-1 2.29-2.09 2.76-3 3a.08.08 0 0 0-.05.05s-.3.79-.49 1.23c-.3.68-1.44 1.65-3.66 2.13a.08.08 0 0 0-.06.08c0 .83-1.27 1.45-1.79 1.56a9 9 0 0 1-2.46.34zm-7.64 3.96a6 6 0 0 1-.19-2.75 39.46 39.46 0 0 1 1.67-4.87 28 28 0 0 1 .56-1.37 7.38 7.38 0 0 0 .41 1.65v.07a42.66 42.66 0 0 0-1.62 4.67v.11a7.83 7.83 0 0 0-.78 2.49zm-.48 3.96l-.54-.39-.1-.08a.29.29 0 0 1 0-.38c.09-.15.66-1.2 1-1.75a3 3 0 0 0 .86.85 2.91 2.91 0 0 0 1 .38l-1.2 1.65c-.08.11-.2.19-.3.13l-.27-.14-.43-.23z"/><path class="cls-4" d="M205 170.85l1.65-2.85h.1a21.38 21.38 0 0 0 4.82-1.83.46.46 0 0 0 .19-.3.44.44 0 0 0-.07-.35.58.58 0 0 0-.14-.13.45.45 0 0 0-.51 0 19.65 19.65 0 0 1-3.73 1.47c.63-1.09 1.13-1.94 1.49-2.54a24.8 24.8 0 0 0 5.38-2.15.46.46 0 0 0 .19-.3.41.41 0 0 0-.07-.34.35.35 0 0 0-.14-.13.47.47 0 0 0-.51 0 24.76 24.76 0 0 1-4.19 1.76c.27-.42.68-1 1.15-1.73l.39-.43a1 1 0 0 0 .21-.08A12.14 12.14 0 0 0 215 158a.49.49 0 0 0 .12-.34.48.48 0 0 0-.15-.32h-.07a.46.46 0 0 0-.59.09 10.81 10.81 0 0 1-2.27 1.92c1.73-2.63 1.8-2.9 1.72-3.28a.74.74 0 0 0-.33-.46c-.34-.21-.71-.12-1.1.28-.14.14-.32.35-.55.62-.37.46-.87 1.13-1.46 1.94l-.83 1.16a15.38 15.38 0 0 1 .43-2.74c.05-.21.09-.39.11-.53a.46.46 0 0 0-.21-.47.49.49 0 0 0-.17-.06.47.47 0 0 0-.35.08.5.5 0 0 0-.18.31c0 .11-.06.26-.1.46a17.1 17.1 0 0 0-.5 4.18 1 1 0 0 0 0 .17c-.37.53-.66 1-.83 1.25s-.24.38-.45.69a19.62 19.62 0 0 1-.14-4.06.46.46 0 0 0-.21-.47.49.49 0 0 0-.17-.06.46.46 0 0 0-.53.39 19 19 0 0 0 .3 5.25.19.19 0 0 0 0 .07c-.35.55-.76 1.17-1.19 1.81a7 7 0 0 1 0-2.25.46.46 0 0 0-.21-.49.39.39 0 0 0-.09-.14.48.48 0 0 0-.35.06.5.5 0 0 0-.2.29 9.21 9.21 0 0 0 .14 3.45.36.36 0 0 0 0 .11l-1.59 2.52a8.79 8.79 0 0 1-.62-3 5 5 0 0 1 1.49-3.64c0-1.48 2.34-5.37 3.49-6.66a15 15 0 0 1 6.19-4 2.13 2.13 0 0 1 1.9.11 2.27 2.27 0 0 1 1 1.47c.26 1.28.42 3-1 7.45-.73 2.26-1.94 5.06-4.92 6.61a.07.07 0 0 0 0 .07c.06.72-2 2.23-2.52 2.42a12.23 12.23 0 0 1-3 .73zm-3 7.05a1.34 1.34 0 0 0 0-.35 1.81 1.81 0 0 1 0-.92 26.57 26.57 0 0 0 3.41-4.67 9.33 9.33 0 0 0 1.36-.27c-2.32 3.66-3.52 5.42-4.75 6.21z"/><path class="cls-4" d="M200.45 178.31a.5.5 0 0 1-.22-.29c-.42-1.51.33-3.15 2.15-6.23.31-.54 1.78-2.76 3.19-4.91 1.23-1.86 2.39-3.63 2.79-4.26a62.67 62.67 0 0 1 4.63-6.35 51.84 51.84 0 0 1-3 4.74c-.59.87-1.1 1.63-1.35 2-.64 1-2.87 4.88-4.34 7.43-.55.95-1 1.71-1.15 2-1.57 2.67-2.26 4.15-2 5.29a.49.49 0 0 1-.35.62.48.48 0 0 1-.4-.06z"/><path class="cls-3" d="M87.38 132.58c-.17 2.69 2.62.6 2.09-.38a1.1 1.1 0 0 0-2.09.38zm7.52-3.91c.06-1.49-1.54-1.35-2.68-1.81S90 129.08 89.73 130c-.32 1.16 1.39 1.33 2.4 1.1s2.7-.93 2.77-2.43zm-3.05 5.45c1.16.84 3.9 1.69 4.68 1s0-2.34-.41-2.85-3.15-.46-4.31.06c-.89.37-1.12.94.04 1.79zm3.08 3.23c0-1.06-2.76-1.92-4-2.31-.86-.27-.91 1.6-.67 2.62s.73 2.21 2.31 2.22a2.44 2.44 0 0 0 2.36-2.53zm-6.08-.2c0-1.06-.71-1.84-1.64-1.14s-1.72 1.94-1.27 2.53a2 2 0 0 0 1.68.84c.75.03 1.23-1.18 1.23-2.23zm-4.57-3.3c-1 .38-1.38.64-1.27 1.48s.44 1.12 1.22 1.45 1.54-1.28 2-2.19-.92-1.12-1.95-.74zm1.97-4.76c.85.93 1.87 1.1 2.06-.23.38-1.08.94-3.34.24-3.74s-2.4-.57-2.89.19-.91 2.13.59 3.78zm-.81.91c-.76-1-1.35-1.63-2.06-1.35s-1.15 1.64-.68 2.08 1 .3 1.92.28 1.05-.57.82-1.01zm-.8 1.87c-.57-.23-2.34-.11-2.28.65.1 1.37.88 1 1.39.8 1.25-.42 1.46-1.22.89-1.45z"/><path class="cls-3" d="M105.16 131.58a34.32 34.32 0 0 0-10.85-8.53 8.79 8.79 0 0 0-2.45-1.1c-2.94-.8-8.83-.14-11 2.41a9.39 9.39 0 0 0-2.35 7 12.61 12.61 0 0 0 2.65 6.31 19.37 19.37 0 0 0 7.13 5.87 6.57 6.57 0 0 0 2 .53c5.29 1 9.15 0 12-1.78 4.09-2.49 4.97-7.89 2.87-10.71zm-12 10.48a4.87 4.87 0 0 1-4.23.1 18 18 0 0 1-6.53-5.38c-2.13-2.85-3.91-7.14-.34-11.43 1.63-2 6.91-2.57 9.36-1.9a9.16 9.16 0 0 1 4.74 3.48c2 2.64 3 6.27 2.41 8.43a11.52 11.52 0 0 1-5.37 6.7z"/><path class="cls-5" d="M100.15 136.21c0 5.54 5.51 10.69 12.31 10.69s12.32-5.15 12.32-10.69c0-3.91-2.75-6.32-6.75-7.4l-.37.3 1 .6a1.38 1.38 0 0 1 .66 1.53 1.33 1.33 0 0 1-1.27 1h-.18a8.46 8.46 0 0 1-2-.25c-.43-.12-.85-.19-1.23-.26a4.87 4.87 0 0 1-.41 1.37c-.06.13-.12.26-.18.42s0 0 0 .05a1.46 1.46 0 0 1-1.34 1h-.06a1.46 1.46 0 0 1-1.34-1v-.05c0-.05-.12-.29-.18-.42a4.55 4.55 0 0 1-.4-1.37c-.39.07-.81.14-1.24.26a8.46 8.46 0 0 1-2 .25h-.18a1.33 1.33 0 0 1-1.27-1 1.38 1.38 0 0 1 .66-1.53l1-.6-.42-.35c-4.09 1.06-6.91 3.48-6.91 7.45"/><path class="cls-5" d="M113.18 125.34a5.09 5.09 0 0 0-1.11 1.67 3.56 3.56 0 0 0-.25 1.2 7.41 7.41 0 0 0-2.52-1 10.14 10.14 0 0 1-2-.58h-.14c-.11 0-.17.09-.09.24a4 4 0 0 0 1.45 1.49c.58.38 1.19.46 1.51.67a10.34 10.34 0 0 0-1.68.9l-1.19.75c-.21.13-.21.33 0 .33h.16a7.08 7.08 0 0 0 1.76-.21 27 27 0 0 0 2.7-.6 4.34 4.34 0 0 0 .49 2.84c.09.19.19.29.28.29h.06c.09 0 .19-.1.28-.29a4.34 4.34 0 0 0 .49-2.84c.49.24 1.53.3 2.7.6a7.08 7.08 0 0 0 1.76.21h.16c.23 0 .23-.2 0-.33l-1.19-.75a10.34 10.34 0 0 0-1.68-.9c.32-.21.93-.29 1.51-.67a4 4 0 0 0 1.45-1.49c.08-.15 0-.24-.09-.24h-.14a10.14 10.14 0 0 1-2 .58 7.5 7.5 0 0 0-2.89 1.18.57.57 0 0 0 0-.18 2.71 2.71 0 0 1 .5-1.45 3.63 3.63 0 0 1 .5-.63"/><path class="cls-6" d="M66.81 150.72a1.19 1.19 0 0 1 0-1.69 1.2 1.2 0 0 1 1.7 0c.76.75 1.14.61 1.9.33a4.68 4.68 0 0 1 .8-.24 1 1 0 0 1 .24 0 22.64 22.64 0 0 1 2.1-2.74 13.29 13.29 0 0 1 4.45-3 2.58 2.58 0 0 0-1.7-.62 1.2 1.2 0 0 1-.64-2.31 4.83 4.83 0 0 1 4.76 2.08 16.09 16.09 0 0 1 4.27-.62h.53l.06-.4c.38-2.87-.69-6.42-3.07-7.16a34.69 34.69 0 0 0-9.51-1.82h-.6c-7.4 0-13.26 3.84-14 9.13a18.44 18.44 0 0 1-1.54 4.74c-1.1 2.6-2.24 5.29-1.34 8.05 1.48 4.51 6.34 6 8.47 6a26.66 26.66 0 0 0 3.52-.18 23.34 23.34 0 0 1 2.56-8.27h-.25a3.75 3.75 0 0 1-2.71-1.28zm5.79-15a6.56 6.56 0 0 1 .72-.3 5.43 5.43 0 0 0 1.32-.66 1.2 1.2 0 0 1 2.27.76c-.38 1.23-1.79 1.77-2.72 2.14l-.47.19a1.25 1.25 0 0 1-.56.14 1.21 1.21 0 0 1-.56-2.27zm-11.72 20.54a1.32 1.32 0 0 1-.39.06 1.2 1.2 0 0 1-1.14-.81c-.06-.19-.6-.54-2.14-.5a1.2 1.2 0 1 1-.06-2.4c3.07-.08 4.12 1.11 4.47 2.12a1.2 1.2 0 0 1-.74 1.53zm1.51-13.33a1.2 1.2 0 1 1 1-2.18 1.45 1.45 0 0 0 2-.53 1.2 1.2 0 0 1 1.86 1.52 3.91 3.91 0 0 1-3.06 1.61 4.28 4.28 0 0 1-1.8-.42z"/><path class="cls-6" d="M103.08 147c-1-2-5-3.54-7.81-3.54a5.26 5.26 0 0 0-1.18.11c-.72.15-1.35.31-2 .46a19.14 19.14 0 0 1-5.12.78c-.52 0-1 0-1.61-.07h-.72c-3.25 0-7.22 1.55-9 3.53-2.17 2.37-5.46 7.82-5.62 13.13-.1 3.64 1.93 6.16 6.22 7.7a18.12 18.12 0 0 0 5.94 1.38 6.11 6.11 0 0 0 3.11-.77 16.73 16.73 0 0 1 6.41-1.81 16.29 16.29 0 0 0 5.67-1.49c2.26-1.16 6.11-5.46 7.77-8.69 1.09-2.1.4-5.72-2.06-10.72zM74 162.93a1.31 1.31 0 0 1-.68.2 1.3 1.3 0 0 1-.68-2.4c.19-.12.43-.76 0-2.37a1.3 1.3 0 0 1 2.52-.63c.84 3.21-.16 4.6-1.16 5.2zm6.8-10.16a1.3 1.3 0 0 1 1.25-1.34 1.56 1.56 0 0 0 1.7-1.43 1.31 1.31 0 0 1 1.55-1 1.29 1.29 0 0 1 1 1.55 4.11 4.11 0 0 1-4.13 3.45 1.3 1.3 0 0 1-1.34-1.23zm6.2 12.47a1.3 1.3 0 0 1-1.17.75 1.33 1.33 0 0 1-.55-.12 3.59 3.59 0 0 0-.45-.14 4 4 0 0 1-3.33-3.53 1.29 1.29 0 0 1 2.55-.45c.2 1.14.62 1.25 1.46 1.48a4.84 4.84 0 0 1 .86.29 1.29 1.29 0 0 1 .63 1.72zm9.48-9.24a2.83 2.83 0 0 0-1.57 2 1.3 1.3 0 0 1-1.26 1.33 1.29 1.29 0 0 1-1.29-1.26 5.16 5.16 0 0 1 3.64-4.61 1.29 1.29 0 1 1 .44 2.55zm1.83-8a2.33 2.33 0 0 1-1 .22 6.36 6.36 0 0 1-2.65-.83l-.49-.24a1.29 1.29 0 0 1 .87-2.43 6.79 6.79 0 0 1 .77.34 5.3 5.3 0 0 0 1.47.57 1.3 1.3 0 0 1 1 2.37z"/><path class="cls-2" d="M172.55 155.55l-.94.75-27.75 22.08-22.5-11.38s-6-19.76-5.9-20.28 10.69-8.8 10.69-8.8 3.51-1.84 3.93-4.79-1.68-9-6.33-16.33-8-7.58-7.73-14 3.29-7.59 4.32-9.28S124 82.09 124 82.09l13.78-4-4.64-10 17.43-2.53 10.27-.71-2.67 17.2 7.56 11.21 4.15 3.74s3.52 1.68.56 6-7 9.92-7.87 12-10 14.37-7.88 19.54 16.17 8.39 19.69 10.23-1.83 10.78-1.83 10.78z"/><path class="cls-4" d="M186.77 140.33l-.15-.07a2.13 2.13 0 0 0 .16-.25 2.31 2.31 0 0 0 .18-1.81.21.21 0 0 1 0-.06 2 2 0 0 0-1-1 2.4 2.4 0 0 0-1.9.12.41.41 0 0 1-.36 0 1.88 1.88 0 0 0-1.05-.12.43.43 0 0 1-.51-.4 1.86 1.86 0 0 0-.93-1.46 1.83 1.83 0 0 0-2.37.51.45.45 0 0 1-.43.17 1.82 1.82 0 0 0-2.09 1.42.45.45 0 0 1-.39.34 1.8 1.8 0 0 0-.32.06.49.49 0 0 1-.26.1 1.79 1.79 0 0 0-.84.77.43.43 0 0 1-.5.2h-.1a.44.44 0 0 1-.17-.59 2.73 2.73 0 0 1 1.32-1.17 1.47 1.47 0 0 0 .06-.14 1.62 1.62 0 0 0 0-1.24 1.76 1.76 0 0 0-1-.92 1.8 1.8 0 0 0-1.19 0 .45.45 0 0 1-.34 0 .43.43 0 0 1-.21-.28 1.75 1.75 0 0 0-1.08-1.21 1.73 1.73 0 0 0-.67-.12.48.48 0 0 1-.24-.07h-.06a.82.82 0 0 1-.42-.26 1.21 1.21 0 0 0-.83-.36h-.21a2.23 2.23 0 0 0-.94.52 3.59 3.59 0 0 0-.34-.17 2.17 2.17 0 0 0-2.81 1.17 1.92 1.92 0 0 0-.12 1.05 2.07 2.07 0 0 0-.33 3.72 1.75 1.75 0 0 0-.11.24 2.1 2.1 0 0 0 1.26 2.73 2.24 2.24 0 0 0 1.55 0 2.15 2.15 0 0 0 1.4 1.8 2.22 2.22 0 0 0 1.77-.07c.68 2.11.7 2.73.48 3.25a15.48 15.48 0 0 0-.6 2.06.74.74 0 0 0 0 .21c.16 1.08 1.79 1.92 3.14 2.3 2 .58 3.51.25 3.9-.85.63-2.19.9-2.92 2-4.11a2.3 2.3 0 0 0 2.51-.33 2.09 2.09 0 0 0 .73.65 2.26 2.26 0 0 0 3.09-.86 2.21 2.21 0 0 0 .29-1.08 2.27 2.27 0 0 0 1.1-4.25zm-13.32 9.73a4.2 4.2 0 0 1-2.27-1.26 16 16 0 0 1 .5-1.71c.37-.85.31-1.72-.38-3.88a2.32 2.32 0 0 0 1.1.13l.44 1.49a.59.59 0 0 0 1.15-.09l.44-3.56a3.65 3.65 0 0 0 .37.29 2.26 2.26 0 0 0 .76 2.75l-.54 1.44a.6.6 0 0 0 .29.74.59.59 0 0 0 .76-.2l1-1.56a2.36 2.36 0 0 0 .68-.18 2.39 2.39 0 0 0 .35.93c-1.26 1.35-1.59 2.21-2.26 4.55-.09.38-1.04.51-2.39.12z"/><path class="cls-4" d="M170.46 132.13h.18a2.71 2.71 0 0 1 .88.18 2.65 2.65 0 0 1 1.49 1.41 2.64 2.64 0 0 1 1.33.16 2.6 2.6 0 0 1 1.48 1.39 3 3 0 0 1 .19.65 2.71 2.71 0 0 1 2.21-.9 2.71 2.71 0 0 1 4.64 1.16 2.91 2.91 0 0 1 .92.15 3.28 3.28 0 0 1 2.32-.11 1.81 1.81 0 0 0 1.27-1.26 1.85 1.85 0 0 0-1-2.1 1.71 1.71 0 0 0 .21-.5 1.86 1.86 0 0 0-1.36-2.25 2 2 0 0 0-1.42.15 1.91 1.91 0 0 0-1.42-1.7 2.42 2.42 0 0 0-.65-.06 3.35 3.35 0 0 1 .11 1.72 2.64 2.64 0 0 1 .95 3.2.41.41 0 0 1-.5.25.43.43 0 0 1-.24-.55 1.78 1.78 0 0 0-.83-2.3.43.43 0 0 1-.22-.5 2.09 2.09 0 0 0-1.07-2.63.09.09 0 0 1-.06 0 2.08 2.08 0 0 0-1.52.28 2.1 2.1 0 0 0-1.21-1.45 2.08 2.08 0 0 0-2.38.62 1.83 1.83 0 0 0-.74-.53 2.11 2.11 0 0 0-2.75 1.26 2.41 2.41 0 0 0-.16 1.08 2.21 2.21 0 0 0-1.69 1.39 2.3 2.3 0 0 0-.14 1.15 2 2 0 0 1 1.18.64z"/><path d="M186.69 151.07c-2.95-4.42-7.42-6.86-11.63-8.44-2.11-.8-4.17-1.38-6-1.88s-3.39-.91-4.45-1.31a24.5 24.5 0 0 1-5.18-2.54 6.31 6.31 0 0 1-1.51-1.38 1.73 1.73 0 0 1-.4-1v-6.95a27.9 27.9 0 0 0 7.18-13.21 8.83 8.83 0 0 0 1.44-.79 9.6 9.6 0 0 0 3-3.55 33.55 33.55 0 0 0 2.38-6.39 13.65 13.65 0 0 0 .58-3.72 6.76 6.76 0 0 0-.73-3.23 5.16 5.16 0 0 0-2.8-2.42l-.29-.09.07-3.09s.17-3.16 0-4.81c-.35-4.47-.7-8.94-1-13.41-.06-.88-.14-1.75-.14-2.63 0-5.21-15.1-13.53-24.2-13.53s-24.15 8.3-24.15 13.55c0 2-1.69 20.06-1 20.11v3.83a5.55 5.55 0 0 0-1.27.57 5.12 5.12 0 0 0-1.82 1.94 6.88 6.88 0 0 0-.73 3.23 13.7 13.7 0 0 0 .59 3.72c1.06 3.7 2 6.08 3.26 7.84a8.86 8.86 0 0 0 2.09 2.1 9.26 9.26 0 0 0 1.44.79 28 28 0 0 0 7.18 13.21v6.95a1.69 1.69 0 0 1-.43 1 9.09 9.09 0 0 1-2.76 2.18 24.75 24.75 0 0 1-3.86 1.73c-1.45.51-3.78 1-6.39 1.8-3.93 1.13-8.57 2.77-12.34 6a18.17 18.17 0 0 0-4.7 6.18 21.14 21.14 0 0 0-1.83 9c0 .81 0 1.65.11 2.52a3.21 3.21 0 0 0 .55 1.52A7.26 7.26 0 0 0 99 168.4a29.83 29.83 0 0 0 6.28 2.94c8 2.86 21.31 5.48 37.77 5.48a128.25 128.25 0 0 0 32.72-3.91 50.46 50.46 0 0 0 9.58-3.49 13.51 13.51 0 0 0 2.85-1.85 5 5 0 0 0 1-1.08 3.22 3.22 0 0 0 .56-1.52c.07-.87.11-1.71.11-2.52a20.07 20.07 0 0 0-3.18-11.38zm-50.25-80.9h13.22v6h-13.22v-6zm-11.7 42.58l-.18-1-1-.36a6.23 6.23 0 0 1-1.53-.75 5.89 5.89 0 0 1-1.84-2.26 30.45 30.45 0 0 1-2.1-5.69 10 10 0 0 1-.44-2.72 3.15 3.15 0 0 1 .3-1.51 1.53 1.53 0 0 1 .86-.74 2.71 2.71 0 0 1 .71-.15l1.38.18 3.27 6.58V89.38c4.45-1.8 10.81-4.15 17.91-4.15a49.73 49.73 0 0 1 15.43 2.93l4.42 2.08v14.05l3.31-6.66 1.31-.1a2.42 2.42 0 0 1 1.07.31 1.53 1.53 0 0 1 .54.58 3.15 3.15 0 0 1 .3 1.51 10.09 10.09 0 0 1-.45 2.72 22.82 22.82 0 0 1-2.72 6.72 4.88 4.88 0 0 1-1.21 1.23 6.7 6.7 0 0 1-1.54.75l-1 .36-.19 1c-1.16 6.51-4.51 10.17-7 12.93l-.47.52v8.34a5.28 5.28 0 0 0 1.1 3.13c.06.08.14.15.2.24l-3.29 6.85H134.2l-3.31-6.88.15-.16a5.25 5.25 0 0 0 1.16-3.18v-8.3l-.46-.52c-2.48-2.76-5.84-6.42-7-12.93zm36.29 49l-18 9.9-18-9.9 2.74-6.45-7.47-5.83 8-8.58 14.73 30.76 14.73-30.76 8 8.58-7.48 5.83z" fill="#4c4c4c"/><path d="M229.5 219.12l-3.65-14.73h17.86l-.99 10.39-13.22 4.34zm-175.35 0l3.65-14.73H39.94l.99 10.39 13.22 4.34z" fill="#507c21"/><path class="cls-9" d="M42.29 168.41h199v42h-199z"/><text transform="translate(73.39 197.75)" font-family="TBUDRGoStd-Bold-83pv-RKSJ-H,TBUDRGothic Std" font-size="27" letter-spacing=".04em" fill="#fff">新人の野菜</text><path class="cls-9" d="M18.14 189.41l9.32 14.98-9.32 14.73h36.01l-11.86-13.21v-16.5H18.14zm247.36 0l-9.31 14.98 9.31 14.73h-36l11.86-13.21v-16.5h24.14z"/><text class="cls-11" transform="rotate(-91.1 83.133 67.056)">N</text><text class="cls-11" transform="rotate(-81.4 84.173 54.058)">e</text><text class="cls-11" transform="rotate(-71.24 87.614 40.287)">w</text><text class="cls-11" transform="rotate(-55.3 91.623 4.766)">F</text><text class="cls-11" transform="rotate(-46.78 94.6 -23.153)">a</text><text class="cls-11" transform="rotate(-38.98 98.121 -60.607)">r</text><text class="cls-11" transform="rotate(-29.81 108.676 -115.443)">m</text><text class="cls-11" transform="rotate(-19.65 125.055 -256.42)">e</text><text class="cls-11" transform="rotate(-11.63 159.636 -538.778)">r</text><text class="cls-11" transform="translate(126.7 18.1)">’</text><text class="cls-11" transform="rotate(7.45 -61.21 1176.736)">s</text><text class="cls-11" transform="rotate(21.56 27.812 489.377)">v</text><text class="cls-11" transform="matrix(.87 .5 -.5 .87 198 30.8)">e</text><text class="cls-11" transform="rotate(39.05 49.656 322.837)">g</text><text class="cls-11" transform="rotate(48 54.994 285.503)">e</text><text class="cls-11" transform="rotate(55.97 56.798 261.803)">t</text><text class="cls-11" transform="rotate(63.91 60.106 241.373)">a</text><text class="cls-11" transform="rotate(72.94 62.702 223.927)">b</text><text class="cls-11" transform="rotate(80.8 62.505 213.16)">l</text><text class="cls-11" transform="rotate(87.7 64.86 203.385)">e</text><text class="cls-11" transform="rotate(96.36 65.96 193.796)">s</text></g></g></svg>