<svg xmlns="http://www.w3.org/2000/svg" viewBox="0 0 511.97 453.6"><defs><style>.cls-1{fill:#fff}</style></defs><g id="レイヤー_2" data-name="レイヤー 2"><g id="_2" data-name="2"><path class="cls-1" d="M374.1 419.6H34V164.9h130.9V34h209.2v33.5l34-32.7V0H164.9L34 130.9l-34 34v288.7h408.1V253.4l-34 35.4v130.8z"/><path class="cls-1" d="M508.6 89.6l-51.3-51.3a11.65 11.65 0 0 0-16.4 0L224.2 246.4a12.38 12.38 0 0 0-2.9 4.8l-26.2 86.1a11.53 11.53 0 0 0 14.4 14.4l88.9-27.1 210.2-218.7a11.53 11.53 0 0 0 0-16.3zM244 320.1l-16.9-18.4 11.7-38.4 29.1 15.7 15.7 29.1zM476 81.4L291.4 267.2l-11.7-11.7L465.5 70.8 476 81.4z"/></g></g></svg>