<svg xmlns="http://www.w3.org/2000/svg" viewBox="0 0 152.44 152.45"><defs><style>.cls-2{fill:#fff}</style></defs><g id="レイヤー_2" data-name="レイヤー 2"><g id="レイヤー_1-2" data-name="レイヤー 1"><path fill="#d39200" d="M0 0h152.44v152.45H0z"/><path class="cls-2" d="M116.54 76.75a26.09 26.09 0 0 0-19.7-4.85l-.4.1c-3.93.93-10.17 2.46-17.47 11.52 0 .06-.09.11-.12.16l-.1.11a.62.62 0 0 0-.12.35.65.65 0 0 0 .08.31l.17.28c.92 1.53 2.07 3.51 3.05 5.33a.62.62 0 0 0 .56.34.6.6 0 0 0 .43-.17c0-.06.09-.12.13-.19 6.48-9 11.58-10.2 15-11l.41-.1A18.86 18.86 0 0 1 112 82.45c3.84 3 5.79 7.85 5.79 14.32 0 10.86-5.28 15.1-9.72 16.76-6.86 2.56-13.44-.87-13.49-.9l-.3-.14c-3.77-1.63-9.39-5-14.7-15.69C68.92 75.33 60 73.31 54.07 72l-.32-.07c-2.69-.61-12-1.05-19.4 4.82-3.85 3.07-8.42 9-8.42 20 0 6.69 1.37 11.1 4.9 15.75.78 1.06 8.69 11.23 24 8.3a23 23 0 0 0 9.42-4.38l3.36 3a.56.56 0 0 0 .78 0 .53.53 0 0 0 .13-.36V119L71 104v-.16a.53.53 0 0 0-.18-.4.48.48 0 0 0-.35-.13h-.27l-14.31 4h-.26a.53.53 0 0 0-.28.16.55.55 0 0 0 0 .78l.17.15 3.21 2.9a15 15 0 0 1-5.26 2.23c-11.07 2.11-16.54-5.14-16.74-5.43l-.08-.1c-2.57-3.38-3.44-6.25-3.44-11.38 0-6.49 1.91-11.31 5.68-14.32A18.27 18.27 0 0 1 52.14 79l.32.07c4.85 1.1 11.49 2.6 20.64 21 4.75 9.54 10.71 15.78 18.2 19.07a26.38 26.38 0 0 0 11.4 2.64 22.77 22.77 0 0 0 8-1.41c4.34-1.62 14.44-7.15 14.44-23.57 0-11-4.65-16.94-8.55-20"/><path d="M116.54 76.75a26.09 26.09 0 0 0-19.7-4.85l-.4.1c-3.93.93-10.17 2.46-17.47 11.52 0 .06-.09.11-.12.16l-.1.11a.62.62 0 0 0-.12.35.65.65 0 0 0 .08.31l.17.28c.92 1.53 2.07 3.51 3.05 5.33h0a.62.62 0 0 0 .56.34.6.6 0 0 0 .43-.17c0-.06.09-.12.13-.19 6.48-9 11.58-10.2 15-11l.41-.1A18.86 18.86 0 0 1 112 82.45c3.84 3 5.79 7.85 5.79 14.32 0 10.86-5.28 15.1-9.72 16.76-6.86 2.56-13.44-.87-13.49-.9l-.3-.14c-3.77-1.63-9.39-5-14.7-15.69C68.92 75.33 60 73.31 54.07 72l-.32-.07c-2.69-.61-12-1.05-19.4 4.82-3.85 3.07-8.42 9-8.42 20 0 6.69 1.37 11.1 4.9 15.75.78 1.06 8.69 11.23 24 8.3a23 23 0 0 0 9.42-4.38l3.36 3a.56.56 0 0 0 .78 0 .53.53 0 0 0 .13-.36V119L71 104v-.16a.53.53 0 0 0-.18-.4.48.48 0 0 0-.35-.13h-.27l-14.31 4h-.26a.53.53 0 0 0-.28.16.55.55 0 0 0 0 .78l.17.15 3.21 2.9a15 15 0 0 1-5.26 2.23c-11.07 2.11-16.54-5.14-16.74-5.43l-.08-.1c-2.57-3.38-3.44-6.25-3.44-11.38 0-6.49 1.91-11.31 5.68-14.32A18.27 18.27 0 0 1 52.14 79l.32.07c4.85 1.1 11.49 2.6 20.64 21 4.75 9.54 10.71 15.78 18.2 19.07a26.38 26.38 0 0 0 11.4 2.64 22.77 22.77 0 0 0 8-1.41c4.34-1.62 14.44-7.15 14.44-23.57 0-11-4.65-16.94-8.55-20" fill="none" stroke="#fff" stroke-miterlimit="10" stroke-width=".76"/><path class="cls-2" d="M15.93 20.03h.05v23.53h5.17V12.82h-4.13l-4.76 5.58v5.4h.05l3.62-3.77zm8.3-.86v3.72h4.71V19c0-1.85.91-2.4 2-2.4s1.86.41 1.86 2.31v2.54c0 2.54-.23 3.54-1.91 5.31L28 29.87c-2.81 3-3.85 5-3.85 8v5.66h13.41v-4.18h-8.48V37.9c0-2.41.86-3.31 2.17-4.72l3.31-3.49c2.68-2.86 3.27-4.67 3.27-7.75v-3c0-4.39-2.13-6.48-6.76-6.48s-6.84 2.4-6.84 6.71M56 24.19a11.94 11.94 0 0 1-2.24.53c-.37-.45-.73-.93-1.12-1.34a17.16 17.16 0 0 0 2.88-.67c1.38-.49 2.7-1.39 2.7-3.29s-1-2.48-2.44-2.48c-2 0-3.9 1.42-5.88 1.91-.06-.2-.61-1.77-.61-1.84s.18-.09.27-.09a11.05 11.05 0 0 0 3-.73 11.37 11.37 0 0 1 3.66-.78 3.6 3.6 0 0 1 3.63 3.87c0 2.93-1.64 4.18-3.85 4.91m12.85 1.29a23.06 23.06 0 0 0-3.63-4.1 11.15 11.15 0 0 0-1-.92 2.85 2.85 0 0 1-.61-.54 1.19 1.19 0 0 1-.22-.76 1.64 1.64 0 0 1 .55-1.2c.58-.62 1.18-1.2 1.75-1.83.84-1 1.7-1.92 2.52-2.93l1 .87a3.26 3.26 0 0 1 .4.34.2.2 0 0 1 .06.13c0 .2-.27.22-.4.2-.8.76-1.62 1.5-2.42 2.28-.34.32-.65.68-1 1-.16.16-.34.3-.48.47a.89.89 0 0 0-.3.56.53.53 0 0 0 .22.42c.51.48 1.08.89 1.6 1.34a24.54 24.54 0 0 1 3.2 3.46c-.42.39-.83.81-1.25 1.21m9.16-.32c-1 0-2.62-.41-2.62-1.89a1.63 1.63 0 0 1 1.74-1.54A1.77 1.77 0 0 1 78.74 23a3.26 3.26 0 0 1 .13.77 2.14 2.14 0 0 0 1.54-2.09 2 2 0 0 0-2.11-2.15c-1.82 0-2.87 1.68-4 3.07l-1.12-1.14a29.85 29.85 0 0 0 4.57-6c-1 .23-1.93.41-2.89.61l-.27-1.67a2.55 2.55 0 0 0 .39 0 12.19 12.19 0 0 0 1.6-.14 20.45 20.45 0 0 0 2.21-.4 5.56 5.56 0 0 0 .76-.24c.28.38.56.75.83 1.13-.12.1-.25.2-.36.31a9 9 0 0 0-.78.95c-.58.76-1.13 1.55-1.68 2.32a4.11 4.11 0 0 1 1.11-.13 3 3 0 0 1 3.21 3.18c0 2.62-1.92 3.71-3.91 3.71m-1-2.3c-.24 0-.38.09-.38.38 0 .52.69.59 1 .59-.06-.41-.18-1-.62-1m18.45 3.18a10 10 0 0 1-3.7-1.45l.74-.83h-3.34l.72.77a.18.18 0 0 1-.16.19.51.51 0 0 1-.22-.07 10.05 10.05 0 0 1-3.3 1.35l-.91-1.2a5.87 5.87 0 0 0 3-1h-1.39v-5.31h7.84v5.27h-1.44a7.35 7.35 0 0 0 3.08.92zM85.33 18v-1.1H90v-.43h-3.32v-1H90V15h-4.11v-1.24H90v-1.1l1.49.1a.18.18 0 0 1 .19.17.25.25 0 0 1-.19.24v.59h4.22v1.17h-4.26v.47h3.31v1h-3.31v.43h4.71V18zm8 1.39h-5.16v.48h5.14zm0 1.36h-5.16v.51h5.16zm0 1.41h-5.16v.51h5.16zm9.19-8.28c-.34.93-.7 1.86-1.11 2.75v9H100v-6.7a5.37 5.37 0 0 1-.88 1.26l-.88-1.07a14.5 14.5 0 0 0 2.87-6.27l1.6.66a.19.19 0 0 1 .12.17c0 .15-.23.22-.32.24m4.09 5.88V24h2.82v1.27h-7.07V24h2.79v-4.24h-3.04V18.5h3.05v-2.82c-.8.13-1.61.23-2.41.31l-.54-1.24a16.16 16.16 0 0 0 6-1.52l1.09 1.56a.2.2 0 0 1-.21.17.42.42 0 0 1-.21-.08c-.76.21-1.51.41-2.28.55v3.07h3.09v1.26zM55.73 42.4a11.83 11.83 0 0 1-2.25.52c-.37-.46-.72-.93-1.12-1.34a17.92 17.92 0 0 0 2.88-.66c1.39-.5 2.71-1.4 2.71-3.3s-1-2.48-2.44-2.48c-2 0-3.91 1.42-5.89 1.91-.06-.2-.6-1.78-.6-1.85s.18-.08.27-.08a11.05 11.05 0 0 0 3-.73 11.31 11.31 0 0 1 3.71-.78 3.59 3.59 0 0 1 3.62 3.87c0 2.93-1.64 4.18-3.84 4.92m11.94.15a1.84 1.84 0 0 1-1.36.43 2.8 2.8 0 0 1-1.19-.28c0-.54-.07-1.08-.14-1.62a2.69 2.69 0 0 0 1.33.41c1 0 1-3.18 1-4 0-.58 0-1.62-.67-1.62a3.15 3.15 0 0 0-.73.11 27.53 27.53 0 0 1-2.57 7c-.47-.23-.91-.52-1.38-.77a19.5 19.5 0 0 0 2.43-6c-.55.11-1.11.24-1.65.4 0-.19-.35-1.48-.35-1.54s0 0 .06 0h.31a10.4 10.4 0 0 0 1.93-.24 24 24 0 0 0 .44-3.36l1.12.32a2.35 2.35 0 0 1 .47.15c.06 0 .15.06.15.15s-.1.15-.16.18c-.15.8-.3 1.6-.51 2.38a5.82 5.82 0 0 1 .73-.07 1.45 1.45 0 0 1 1.6 1.2 8 8 0 0 1 .23 2.14c0 1.26-.18 3.76-1 4.61m3-2.66c-.26-.41-.55-.79-.84-1.19.35-.05 1.23-.26 1.23-.8 0-.93-1.16-2.55-1.74-3.17l1.27-.82a8.05 8.05 0 0 1 2 4.21c0 1.13-1.19 1.51-1.93 1.77M78 44c-.45-.41-.89-.83-1.36-1.2a5.74 5.74 0 0 0 3.47-2.45 4.44 4.44 0 0 0 .48-2.07c0-1.25-.42-2-1.54-2a10 10 0 0 0-3.41 1.51C75.57 37.6 75 36.15 75 36s.12-.09.17-.09a8 8 0 0 0 1.5-.41 8.21 8.21 0 0 1 2.81-.72c1.93 0 2.77 1.52 2.77 3.63A6 6 0 0 1 78 44m2.11-10.16a17.75 17.75 0 0 0-3.41-1.27c.23-.51.45-1 .67-1.52a13.48 13.48 0 0 1 3.51 1.28c-.25.51-.49 1-.77 1.51m15.17 10.3a9.91 9.91 0 0 1-3.7-1.45l.73-.83H89l.72.78a.18.18 0 0 1-.16.18.47.47 0 0 1-.22-.07A10.05 10.05 0 0 1 86 44.1l-.91-1.2a5.94 5.94 0 0 0 3-1h-1.37v-5.31h7.84v5.27h-1.44a7.31 7.31 0 0 0 3.08.92zm-10.1-8v-1.07h4.7v-.44h-3.34v-1h3.34v-.47h-4.13V32h4.11v-1.1l1.49.1a.19.19 0 0 1 .19.17.25.25 0 0 1-.19.24V32h4.22v1.17h-4.26v.47h3.31v1h-3.31v.44H96v1.09zm8 1.39H88V38h5.14zm0 1.36H88v.51h5.15zm0 1.41H88v.51h5.15zm9.06-8.22c-.34.93-.7 1.86-1.11 2.75v9h-1.41V37.1a5.19 5.19 0 0 1-.87 1.25L98 37.28a14.51 14.51 0 0 0 2.84-6.28l1.6.66a.18.18 0 0 1 .12.17c0 .15-.23.22-.32.24m4.08 5.93v4.23h2.83v1.27h-7.07v-1.32h2.79V38h-3.06v-1.3h3.06v-2.82c-.8.13-1.61.23-2.41.31l-.54-1.19a16 16 0 0 0 6-1.52L109 33a.2.2 0 0 1-.21.17.42.42 0 0 1-.21-.08c-.76.21-1.51.41-2.28.55v3.06h3.08V38z"/></g></g></svg>