<svg xmlns="http://www.w3.org/2000/svg" viewBox="0 0 152.4 152.4"><g data-name="レイヤー 2"><g data-name="レイヤー 1"><path fill="#427935" d="M0 0h152.4v152.4H0z"/><path d="M133.2 96.3a69.7 69.7 0 0 0-112 0l-.4.6.5.6a69.7 69.7 0 0 0 111.9 0l.4-.6-.4-.6m-74.8-14l1.4-1.8A1.7 1.7 0 0 1 61 80c.3 0 .8.1.9.4a3.1 3.1 0 0 1-.3 1.5 4 4 0 0 1-2.6 1.2c-.6-.1-.8-.5-.7-.7m-1.2 2.4l.2-.2a3.2 3.2 0 0 1 1.9-.6c.5-.1 1.3.2 1.4.6s-1.5 1-1.7 1.3c-.9.8-2.1 2.3-2.9 2.5a.9.9 0 0 1-.6 0 22.9 22.9 0 0 1 1.8-3.6m12.6 26a6.8 6.8 0 0 1-1.4 3 4.9 4.9 0 0 1-3.2 1.2c-1.1 0-1.3-3-1.3-4.4 0-.5-.7 1-1-2-.3-2-1.6.1-1.6-1.2s-.8-1-1.4-1.8-1.5 0-2.4.5-.5.6-1.8.2h-.1a23.5 23.5 0 0 1-1.9-9.2l.1-2.3a1.7 1.7 0 0 1 .2-.2c1.2-1.5 1.2-1.9 1.2-1.9l1.4-.4a23.4 23.4 0 0 1 3.8 1c1.4.5 3.5 1.6 4.8 1.1.9-.4 1.6-.9 1.5-1.6 0-1-.8-1.2-1.7-.5-.4.2-1-1.5-1.6-1.4s.7 2 .2 2-1.4-2-1.6-2.3-.9-1.2-1.6-.5c-1.3 1.3-3.6 1.2-4 1.5-1.4 1-1.8-.3-1.7-1.1l.1-.6a2.8 2.8 0 0 1 2.6-.3c.6.4 1-.1 1.3-.3a.9.9 0 0 0 0-1c-.1-.4.3-.6.6-.7a16.6 16.6 0 0 0 1.8-1 5.9 5.9 0 0 1 3.6 0A1.9 1.9 0 0 0 67 86a6.5 6.5 0 0 1 1.7-1.5c.4-.1-.8-1.2-1.8 0s-1.4 1.3-1.9 1.3-3.2-.7-3.5-1.5.8-1.5 1.8-2 3.8-.5 4.5-.7c1.4-.3 3.2-1 4.2-.4S68 83 69.7 84c.5.3 3-1.5 4-2 2-1-2-1.3-1.5-3.4.6-2.4-5-1.5-7.6-1.3A23.5 23.5 0 0 1 100 91.5a3.7 3.7 0 0 1-.1 1.1 1.5 1.5 0 0 1-2.8.2c-.2-.3-1.2-1.3-1.2.4s1.6 1.8 0 2.7a5.8 5.8 0 0 1-2.4 1c-.7.3-1.3 2-1.2 2.9s2.3 3.3.7 3.2c-.3 0-3.1-2-3.6-3.2L88 96.3a1.4 1.4 0 0 0-2.2-.7c-.9.6.2 1.2-.4 2.4s-1 2.3-2 1.3c-2.2-2.6-5.5-1.3-6-4.3-.3-1.5-1.7-1.4-2.8-2.3s-1.8-1.4-2-.7 3.6 3.5 3.8 4.3c.4 1.1-1 2.1-2.2 2.4s-1.6-.6-2.7-1.8S70 95 70 96a5.2 5.2 0 0 0 2.1 3.9c1 .6 2 .9 1.8 1.8s0 .5-1.1 1.5a2.9 2.9 0 0 0-1.2 2.9c0 1.5-.3 1.6-.6 2.8s-.7.2-1.2 2m25.2-9.4c.8 0 2 1 1.6 1.4a2.1 2.1 0 0 1-2.3-.1c-.6-.5.4-1.3.7-1.3m-1-.7c-.2-.1-.4-.4-.6-1a.5.5 0 0 1 .7-.6c.5.2 1.2 1 1.2 1.3s-1 .4-1.3.3m-10.3 0a2.1 2.1 0 0 1-2.3-.2c-.6-.5.4-1.3.7-1.3.8 0 2 1 1.6 1.5m-9.6 4.6c-.4.6-1.2 4.5-1.8 4s.2-4.5.4-4.9c.9-1.7 3-1.6 1.4 1m3.2 15.2a23.7 23.7 0 0 1-6.7-1 1 1 0 0 1-.2-1.1c.7-1.9 2.8-2.6 4.6-2.8 3.8-.4 8.8 2.5 9.6 2s2.4-2.6 4.8-2.5a3.8 3.8 0 0 1 2.1.6 23.4 23.4 0 0 1-14.2 4.8m16.6-6.9a4.2 4.2 0 0 1-.8-.2c-1.3-.7-1.1.4-1.7.1s.7-1.7-1.2-.4-1.4-.2-2.2-2.3 1-4.5 2.4-5a30.2 30.2 0 0 1 4.3-1.2c2.8-.7 3.4-2.3 3.9-1.3l.3.5a3.8 3.8 0 0 1 .3 1.6 23.6 23.6 0 0 1-5.3 8.3m6.4-12c-.6 0-3.3-3.7-1.2-6.1.4-.4-.7-1.6-.4-1.6a2 2 0 0 1 2 1.6v1.4a23.7 23.7 0 0 1-.5 4.8M20.7 12.8v30.8h-5.2V20l-3.7 3.8v-5.4l4.8-5.5h4zm17 6.7v2.7a5 5 0 0 1-3.5 5c2.6.6 3.8 2.4 3.8 5.2v4.5c0 4.3-2.3 7-7.5 7s-7.1-3-7.1-7.6v-4H28v4.4c0 1.8.6 3 2.4 3 1.6 0 2.3-1.2 2.3-2.8v-5.1c0-1.6-.7-2.5-2.5-2.5H28v-4h2c1.6 0 2.7-.8 2.7-2.4v-3.3c0-1.7-.6-2.8-2.2-2.8s-2.2 1-2.2 3v3.1h-4.7v-2.7c0-4.5 1.8-7.7 7.2-7.7 4.7 0 6.8 2.7 6.8 7m14.5-4.2l-.5.8h6.8v1.2h-6.8v-1.1a7 7 0 0 1-1.2 1.4l-1.2-.8a8.8 8.8 0 0 0 2.4-4.4l1.5.4c.1 0 .2.1.2.3s-.1.2-.2.2l-.3.7h6.4v1.3zm7.2 10.2c-2-1.3-2.7-3.6-2.7-6.2h-2.3l1 .5c.1 0 .2 0 .2.2s-.2.2-.3.3a8.6 8.6 0 0 1-.8 1.7 22.3 22.3 0 0 1 1.7 1.7l-1 1-1.6-1.7a8.7 8.7 0 0 1-3 2.2l-1.1-1a7.6 7.6 0 0 0 3.1-2L50.7 21a14.8 14.8 0 0 0 .8-1.3 14 14 0 0 1 1.8 1.3 8.3 8.3 0 0 0 .7-1.8h-4.2V18h8.4a9.8 9.8 0 0 0-.1 1.7 4.7 4.7 0 0 0 2.2 4.5zM66 15.2V23h-1.3v-8l-.5 1.4v9h-1.4V19a5.3 5.3 0 0 1-.7 1l-.8-1a15.2 15.2 0 0 0 2.5-6.3l1.5.6a.3.3 0 0 1 .2.2.2.2 0 0 1-.3.2l-.3 1 1.1.2a.2.2 0 0 1 .2.2l-.2.2m6 10.4a6.7 6.7 0 0 1-3-3.1 5.5 5.5 0 0 1-3 2.9l-.8-1a4.9 4.9 0 0 0 2.8-2.8h-2v-1.3h2.3v-1.2h-.8a5.7 5.7 0 0 1-.6 1.1l-1-.6A8.7 8.7 0 0 0 67 17h-.9v-1.2h3.5v-1.3h-3v-1.2H71v2.5h1.3V17H68l.5.2v.1c0 .1 0 .2-.2.2l-.2.5H72v1.2h-2.2v1.3h2.8v1.2h-2.5a5.3 5.3 0 0 0 2.9 2.8zm6-9.2a8.1 8.1 0 0 1-2 2.5l-1-.9a6.4 6.4 0 0 0 2-2.6l1.2.7v.1c0 .1 0 .3-.1.2m7 9a12.6 12.6 0 0 1-4.2-1.6 13 13 0 0 1-4.8 1.7l-.8-1.3a9 9 0 0 0 4.5-1.3 7.6 7.6 0 0 1-1.2-1.1 8.2 8.2 0 0 1-2 1.4l-1-1a7.4 7.4 0 0 0 3.7-3.4l1.2.6.1.1-.2.1-.2.2H84v.9a9.6 9.6 0 0 1-2 2.2 11.3 11.3 0 0 0 3.9 1zm-2.7-10.3v2.5a1.6 1.6 0 0 1-1.4 1.9l-1-1c.7-.2 1-.3 1-1.2v-2.1h-.7a5.3 5.3 0 0 1-1.5 3.9 4.1 4.1 0 0 1-1.1.8l-1-1a6 6 0 0 0 1-.6 3.8 3.8 0 0 0 1.2-3.1h-3.5V14h4.3v-1.6l1.5.1a.2.2 0 0 1 .2.2.3.3 0 0 1-.2.2v1h4.5v1.3zm-3 5.7a6.7 6.7 0 0 0 1.4 1.4 5 5 0 0 0 1.2-1.4zm5.6-1.6a12.4 12.4 0 0 1-2.2-2.9l1.2-.8a8.7 8.7 0 0 0 2 2.6zM98.7 22c0 2-.4 3-2.2 3.3l-.8-1.2c1.2-.2 1.6-.7 1.7-2.1l.1-4.8h-.7c-.1 3-.5 6.3-2.7 8.2l-1.1-.9a4.3 4.3 0 0 0 .8-.7l-4.8.9s0 .2-.2.2 0 0-.1-.1l-.5-1.4 2.6-.3v-.7h-2.3v-1.1h2.4v-.5h-2.1v-4h2v-.6h-2.4v-1h2.5v-.7h-2l-.5-1h1.2a11.4 11.4 0 0 0 4-.8 11.4 11.4 0 0 1 1 1.3.2.2 0 0 1-.2.1.5.5 0 0 1-.2 0l-2 .3v.7h2.3v.9h1.1v-3.3l1.5.1s.3.1.3.3a.4.4 0 0 1-.2.3L97 16h2l-.1 6M91 17.6h-1v.7h.9zm0 1.6h-1v.7h.9zm2-1.6h-.7v.7h.8zm0 1.6h-.8v.7h.8zm1.4-2v-1h-2.3v.6h2v4h-2v.5h2v1h-2v.7l2-.3v.8c1.2-1.7 1.3-4 1.4-6.2zM56.8 40.3a6.5 6.5 0 0 0 3.3 2.1l-1 1.3a11.6 11.6 0 0 1-3.5-2.4l1-1h-3.8a7.7 7.7 0 0 1 1 1l-.2.1a9.7 9.7 0 0 1-3.3 2.2l-.8-1.1a6.5 6.5 0 0 0 3-2.3h-3.1V39h10.8v1.3zM51 31.2h7.5v7.2H51zm6.1 1.2h-4.8v.9h4.8zm0 2h-4.8v.9h4.8zm0 2h-4.8v.9h4.8zM72 41.1a10.3 10.3 0 0 1-1.2-1.5v1.1h-1.5v2.7H68v-2.7h-1.5v-1a7 7 0 0 1-1.2 1.3l-.8-.8v3.2H63v-6.7a6.8 6.8 0 0 1-1 1.2l-.8-1a14.3 14.3 0 0 0 2.9-6.3l1.5.7a.2.2 0 0 1 .1.2l-.3.2a23.4 23.4 0 0 1-1 2.7V40a13 13 0 0 0 3-5.3H65v-1.4h3v-2.7l1.4.1a.2.2 0 0 1 .2.2l-.2.2v2.2h3.3v1.4h-2.9a13 13 0 0 0 3.4 5.2zm-5.4-1.6H68v-2.8a11.2 11.2 0 0 1-1.4 2.8m2.7-2.8v2.8h1.4a13.4 13.4 0 0 1-1.4-2.8m15.7-.3v1.8c-.1 2.6-.2 4.8-2.9 5.3l-.9-1.2a2.5 2.5 0 0 0 2.3-2.2 13 13 0 0 0 .1-1.4v-4.1h-2.2a10.3 10.3 0 0 1-1.2 2l-.6-.6v6.5H75v-9.1h1.3l.7-2.5 1.5.4a.2.2 0 0 1 .2.2l-.2.2-.9 1.7h1.9v1.9a13.1 13.1 0 0 0 1.4-4.6l1.4.6a.3.3 0 0 1 .2.3l-.2.1-.6 1.6H85zm-6.8-1.9h-1.9v2.6h2zm0 3.8h-1.9v3h2zm4 1.4a30 30 0 0 0-1.8-2.2l1-1.1a18.7 18.7 0 0 1 1.6 2.4zm11.1-5.4l-1.7.4a29.4 29.4 0 0 1-2.6 6.6l-1.3-.7a22.8 22.8 0 0 0 2.3-5.7 13.4 13.4 0 0 1-1.8.2l-.2-1.5a5 5 0 0 0 .7 0 11.7 11.7 0 0 0 1.6-.1 15.2 15.2 0 0 0 .4-2.5l1.6.3c0 .6-.2 1.3-.4 2a12.3 12.3 0 0 0 1.4-.5v1.5m3.3 8.4a10.8 10.8 0 0 0-1.6-1.5v.5c0 1.4-1 1.8-2 1.8a3.4 3.4 0 0 1-1.1-.2 2.2 2.2 0 0 1-1.5-2 2 2 0 0 1 2.1-2.1 6.5 6.5 0 0 1 1 0v-2a3 3 0 0 1 0-1h1.2s.4 0 .4.2a1.9 1.9 0 0 0-.2.9v2.2a9 9 0 0 1 2.7 1.7l-.9 1.4m-3-2a2 2 0 0 0-1-.2c-.4 0-1 .2-1 .8s.8 1 1.2 1 .8-.1.8-.7v-1m3.2-4.2a7.5 7.5 0 0 0-3-1.7l.7-1.4a7.4 7.4 0 0 1 3 1.7zm8.1 6.3a21.8 21.8 0 0 0-1.6-2.5 9.4 9.4 0 0 1-2.7 3.4l-1-1a7.6 7.6 0 0 0 2.8-3.4 12.8 12.8 0 0 0-2.1-2.3l.8-1.3a17.6 17.6 0 0 1 1.8 2.2 15.3 15.3 0 0 0 .6-3H100v-1.2h2.2V31l1.5.1a.2.2 0 0 1 .2.2l-.2.2v2h1.6v1.2h-.9c.2 0 .6.2.6.4a.1.1 0 0 1-.1.1 17.3 17.3 0 0 1-1 3.7 23.6 23.6 0 0 1 2 2.6zm1.7-2.7a27.3 27.3 0 0 0-1.6-2.5l1.1-1a22 22 0 0 1 1.5 2.6zm2.7-4.4v4.9c0 2.3-.2 3-2.3 3.5l-.8-1.3c1.6-.2 1.7-.8 1.7-2.6v-4.5h-2.3v-1.3h2.3V31l1.5.1s.2 0 .2.2-.2.2-.2.2v2.7h1.4v1.3zm13.5 8a9.5 9.5 0 0 1-4-3V44h-1.4v-3.5a9.2 9.2 0 0 1-4 3l-.8-1a9.5 9.5 0 0 0 4.8-4V38h-2.2v2.5H114V37h3.5v-.6H113v-1.1h4.5v-1h.8l-.6-.3a7.6 7.6 0 0 0 1.6-3.3l1.3.3s.3 0 .3.3-.2.2-.3.2l-.3.7h3.2v1H122l-.5 1.4h-1v-1.4h-.8a6.2 6.2 0 0 1-.8 1.2c.1 0 .2 0 .2.2s-.1.2-.2.3v.4h4.5v1.1H119v.6h3.9v2c0 1.2-.6 1.6-1.5 1.8l-.8-1c1-.3.9-.7.9-1.8H119v.3a7 7 0 0 0 2 2.4 8.4 8.4 0 0 0 2.9 1.5zM117 33.2l.2 1.1-1 .3-.5-1.4h-.5a8 8 0 0 1-1.4 1.7l-1-.7a7.8 7.8 0 0 0 2-3.5l1.5.3s.2.1.2.3-.2.2-.3.2l-.3.7h2.3v1zm18.2 4.6a.3.3 0 0 1-.2-.1l-3.3 1.3v2.2h-1.4v-1.5c-1 .5-1.5 1-1.5 1.7s.6.9 1.7.9a10.7 10.7 0 0 0 3.5-.6v1.6a9.7 9.7 0 0 1-3 .5q-3.6 0-3.6-2.3a2.8 2.8 0 0 1 1-2 8.8 8.8 0 0 1 1.8-1.2c0-.6-.2-1-.5-1a1.8 1.8 0 0 0-1.3.5 11 11 0 0 0-1 1l-.8 1-1-1.1a10.2 10.2 0 0 0 3-3.8l-2.1.1-.2-1.4a20.7 20.7 0 0 0 2.7-.2 10.9 10.9 0 0 0 .4-2l1.7.5a.2.2 0 0 1 .1.1c0 .1 0 .2-.2.2l-.3 1.1a19.2 19.2 0 0 0 2.3-.5l-.2 1.6-2.6.4a9.2 9.2 0 0 1-.8 1.4 2.5 2.5 0 0 1 .7-.1c.7 0 1.2.5 1.4 1.5l3.3-1.6.5 1.6-.1.2m-30.8-12.9l-1.3.2a18.6 18.6 0 0 1-.7-5.6 35.2 35.2 0 0 1 .7-6.2l1 .2a3 3 0 0 1 .6.2.2.2 0 0 1 0 .2.2.2 0 0 1-.1.1 29.2 29.2 0 0 0-.7 6.5v1.6l.6-2 1 .8a14 14 0 0 0-1.1 4m7.7-.7a9.8 9.8 0 0 1-2.2.1c-1.7 0-3.4-.3-3.6-3l1.3-.9c0 1.5.7 2.2 1.8 2.2a7.8 7.8 0 0 0 2.8-.3v2m-.5-8a9.6 9.6 0 0 0-2.8-.1 12 12 0 0 0-2 .3l-.1-1.7a14.4 14.4 0 0 1 2.8-.3 10.4 10.4 0 0 1 2.3 0l-.2 1.8" fill="#fff"/></g></g></svg>