<svg xmlns="http://www.w3.org/2000/svg" viewBox="0 0 170.2 69.36"><defs><style>.cls-1{isolation:isolate}.cls-2{fill:#fff}</style></defs><g id="レイヤー_2" data-name="レイヤー 2"><g id="レイヤー_1-2" data-name="レイヤー 1"><g class="cls-1"><path class="cls-2" d="M53.86 59.69a.61.61 0 0 1-.61.6h-4.13a.61.61 0 0 1 0-1.21h4.13a.61.61 0 0 1 .61.61zm-.45 8.4a1 1 0 0 1-1 1H50a1 1 0 0 1-1-1v-2.34a1 1 0 0 1 1-1h2.39a1 1 0 0 1 1 1zm-.21-6.53a.6.6 0 0 1-.59.59h-2.84a.6.6 0 0 1-.58-.59.59.59 0 0 1 .58-.57h2.84a.59.59 0 0 1 .59.57zm0 1.87a.58.58 0 0 1-.58.57h-2.85a.58.58 0 1 1 0-1.15h2.85a.58.58 0 0 1 .58.58zm-.2-5.59a.59.59 0 0 1-.57.57h-2.5a.58.58 0 0 1-.57-.57.57.57 0 0 1 .57-.58h2.53a.58.58 0 0 1 .54.58zm-3 9.89a.29.29 0 0 0 .28.28H52a.27.27 0 0 0 .27-.28v-1.61a.26.26 0 0 0-.27-.27h-1.65a.27.27 0 0 0-.28.27zm10.61.5a.63.63 0 0 1-.63.62h-4.5a1 1 0 0 1-1-1v-5.56a1 1 0 0 1 1-1H58a.33.33 0 0 0 .3-.29l.36-2.1a.22.22 0 0 0-.22-.27h-3.31a.63.63 0 0 1 0-1.25h4.08a.84.84 0 0 1 .82 1l-.57 3.12a1.23 1.23 0 0 1-1.21 1H56a.27.27 0 0 0-.26.27v4.55a.27.27 0 0 0 .26.27h4a.63.63 0 0 1 .68.64zM75.52 64.39a.52.52 0 0 1 .52.53.51.51 0 0 1-.52.52h-.75a.3.3 0 0 0-.27.3V66a1 1 0 0 1-1 1h-2.79a.3.3 0 0 0-.29.28v1.15a.88.88 0 0 1-.9.89h-.36a.52.52 0 0 1-.53-.53.52.52 0 0 1 .53-.53.18.18 0 0 0 .17-.17v-.81a.3.3 0 0 0-.23-.28h-3.29a.5.5 0 0 1 0-1h3.29a.3.3 0 0 0 .28-.29.3.3 0 0 0-.28-.3h-4.8a.51.51 0 0 1-.53-.52.52.52 0 0 1 .53-.53h4.8a.3.3 0 0 0 .28-.28.3.3 0 0 0-.28-.28h-3.29a.48.48 0 0 1-.49-.51.48.48 0 0 1 .49-.49h3.29a.3.3 0 0 0 .28-.29v-.2a.3.3 0 0 0-.28-.31h-2.62a1 1 0 0 1-1-1v-.5a1 1 0 0 1 1-1h2.62a.31.31 0 0 0 .28-.28v-.15a.3.3 0 0 0-.28-.29h-4.38a.51.51 0 0 1-.53-.52.51.51 0 0 1 .53-.52h4.49a.17.17 0 0 0 .17-.16v-.05a.52.52 0 0 1 1 0v.05a.17.17 0 0 0 .17.16h4.55a.52.52 0 0 1 .52.52.51.51 0 0 1-.52.52h-4.39a.3.3 0 0 0-.29.29v.15a.31.31 0 0 0 .29.28h2.59a1 1 0 0 1 1 1v.5a1 1 0 0 1-1 1h-2.59a.3.3 0 0 0-.29.29v.2a.3.3 0 0 0 .29.29h2.76a1 1 0 0 1 1 1v.28a.3.3 0 0 0 .27.28zm-9.09-3.57a.3.3 0 0 0 .29.29h2.38a.3.3 0 0 0 .28-.29v-.13a.29.29 0 0 0-.28-.28h-2.38a.3.3 0 0 0-.29.28zm6.93-.13a.29.29 0 0 0-.28-.28h-2.37a.3.3 0 0 0-.29.28v.13a.3.3 0 0 0 .29.29h2.37a.3.3 0 0 0 .28-.29zm-2.65 3.13a.3.3 0 0 0-.29.28.3.3 0 0 0 .29.28h2.48a.3.3 0 0 0 .28-.28.3.3 0 0 0-.28-.28zM73.19 66a.3.3 0 0 0 .28-.29.3.3 0 0 0-.28-.3h-2.48a.31.31 0 0 0-.29.3.3.3 0 0 0 .29.29z"/></g><g class="cls-1"><path class="cls-2" d="M82.74 61.38c1.87-.84 4.62-.79 5.58 1.79a3.49 3.49 0 0 1-.38 3.08A4.43 4.43 0 0 1 84.81 68a.49.49 0 0 1-.08-1 4.83 4.83 0 0 0 1.57-.56 2.58 2.58 0 0 0 .37-4.14 2.45 2.45 0 0 0-1.5-.54.2.2 0 0 0-.17.24 7.66 7.66 0 0 1-.43 1.61 13.14 13.14 0 0 1-1.45 2.84 1.54 1.54 0 0 1-1.56.83 1.75 1.75 0 0 1-1.24-1.53 4 4 0 0 1 2.42-4.37zm1.28.67c0-.07 0-.13-.11-.12a3.47 3.47 0 0 0-2.39 1.85 2.46 2.46 0 0 0-.29 1.75c.15.69.55 1.14 1.1.44A10.1 10.1 0 0 0 84 62.05z"/></g><g class="cls-1"><path class="cls-2" d="M103.07 62.38a.11.11 0 0 0 .1-.12.35.35 0 0 1 .36-.43h.21a.76.76 0 0 1 .76.63v.28a.77.77 0 0 1-.77.9H93.25a.63.63 0 1 1 0-1.26zM113.2 61.13a.44.44 0 0 1 0 .87h-3.87a1 1 0 0 1-1-1v-3a1 1 0 0 1 1-1h3.88a.42.42 0 0 1 0 .84h-1.4a.27.27 0 0 0-.26.27.25.25 0 0 0 .26.26h.35a1 1 0 0 1 0 2h-.35a.26.26 0 0 0-.26.28v.15a.25.25 0 0 0 .26.27zm-2.59-3a.27.27 0 0 0-.27-.27h-.91a.27.27 0 0 0-.26.27.25.25 0 0 0 .26.26h.91a.25.25 0 0 0 .27-.26zm1.54 1.57a.26.26 0 0 0 .25-.26.25.25 0 0 0-.25-.25h-2.73a.25.25 0 0 0-.25.25.26.26 0 0 0 .25.26zm-2.72.74a.26.26 0 0 0-.26.28v.15a.25.25 0 0 0 .26.27h.91a.26.26 0 0 0 .27-.27v-.15a.27.27 0 0 0-.27-.28zm6.77 6.62a.27.27 0 0 0-.27.28v.4a.27.27 0 0 0 .27.28h2.62a.53.53 0 0 1 .53.53.53.53 0 0 1-.53.53h-3a1 1 0 0 1-1-1v-.72a.28.28 0 0 0-.27-.28h-1.19a.52.52 0 0 0-.42.23l-1 1.44a1.24 1.24 0 0 1-1 .52.34.34 0 0 1-.27-.53l1-1.43a.15.15 0 0 0-.12-.23h-.63a1 1 0 0 1-1-1v-2.37a1 1 0 0 1 1-1h6.21a1 1 0 0 1 1 1V66a1 1 0 0 1-1 1zm1-3.3a.18.18 0 0 0-.18-.18H111a.19.19 0 1 0 0 .37h6a.18.18 0 0 0 .22-.2zm-.18 1.3a.18.18 0 0 0 .18-.18.19.19 0 0 0-.18-.2H111a.2.2 0 0 0-.2.2.19.19 0 0 0 .2.18zm-6.08.74a.2.2 0 0 0-.2.18.19.19 0 0 0 .2.2H117a.19.19 0 0 0 0-.38zm4.93-7.73a.18.18 0 0 0 .17.24h3.25a.5.5 0 0 1 .5.5.51.51 0 0 1-.5.51h-3.7a.14.14 0 0 0-.15.11.64.64 0 0 1-.59.43h-.09a.4.4 0 0 1-.39-.52l.52-1.62a.75.75 0 0 1 .71-.53.4.4 0 0 1 .38.52zm-.21 3.64a.53.53 0 0 1-.52-.52.51.51 0 0 1 .52-.5h3.47a.5.5 0 0 1 .52.5.52.52 0 0 1-.52.52z"/></g><path class="cls-2" d="M39.15 63.71c-.87 0-.87.08-1.74.08h-8.72c-.87 0-.87-.07-1.75-.07s-.87.07-1.75.07a.59.59 0 0 1-.6-.57v-.06a.57.57 0 0 1 .59-.55c.88 0 .88-.1 1.75-.1s.87.08 1.74.08h5.23c.87 0 .87.07 1.74.07s.88-.11 1.75-.11.88.1 1.75.1a.56.56 0 0 1 .59.55.55.55 0 0 1-.57.52zM143.15 63.71c-.87 0-.87.08-1.74.08h-8.72c-.87 0-.87-.07-1.75-.07s-.87.07-1.75.07a.59.59 0 0 1-.6-.57v-.06a.57.57 0 0 1 .59-.55c.88 0 .88-.1 1.75-.1s.87.08 1.74.08h5.23c.87 0 .87.07 1.74.07s.88-.11 1.75-.11.88.1 1.75.1a.56.56 0 0 1 .59.55.55.55 0 0 1-.57.52z"/><g class="cls-1"><path class="cls-2" d="M13.24 34.89l-2.44 9.64H0L14.46 0h11L39.9 44.53h-11l-2.43-9.64zM19.89 9h-.12l-4.58 18h9.27z"/></g><g class="cls-1"><path class="cls-2" d="M49.15 44.53h-7V22.69h6.76v4.2H49a10.7 10.7 0 0 1 8.83-4.2h.84v5.12h-.84c-5.42 0-8.7 2.9-8.7 7.48zM72.71 22.27a30.86 30.86 0 0 1 6.93.76v5.2a21.51 21.51 0 0 0-5.88-.88c-3.19 0-4.7 1.89-4.7 6.26s1.59 6.26 5.12 6.26A19 19 0 0 0 80 39v5.16a29.44 29.44 0 0 1-6.85.84c-7.22 0-11.21-3.82-11.21-11.34-.02-7.4 3.84-11.39 10.77-11.39zM85.52 44.53V13h6.81v12h.08a9.42 9.42 0 0 1 6.34-2.73c2.57 0 4.41.76 5.55 2.23s1.7 4.07 1.7 7.85v12.18h-6.66V33.19c0-2.23-.21-3.74-.67-4.45a2.57 2.57 0 0 0-2.44-1.09 3.76 3.76 0 0 0-2.69 1.26 3.69 3.69 0 0 0-1.21 2.6v13zM119.5 13v5.46h-7.14V13zm0 9.66v21.87h-7.14V22.69zM131.17 44.53l-6.76-21.84h7.23l4.07 17.94h.08l4.08-17.94h7.06l-6.77 21.84zM156 35.59c.38 3.36 2.18 4.66 6.17 4.66a23.31 23.31 0 0 0 6.35-1.18V44a29.25 29.25 0 0 1-7.35 1c-7.61 0-11.89-4-11.89-11.34S153.1 22.27 160 22.27c6.76 0 10.17 3.74 10.17 11.26a13.85 13.85 0 0 1-.17 2.06zm7.81-4c0-3.15-1.26-4.7-3.69-4.7-2.65 0-3.83 1.3-4.12 4.7z"/></g></g></g></svg>