<svg xmlns="http://www.w3.org/2000/svg" width="48.853" height="38.487"><g data-name="グループ化 472"><g data-name="グループ化 330"><rect data-name="長方形 118" width="37.557" height="29.402" rx=".909" transform="translate(4.457 2.399)" fill="#1d1d1d"/></g><g data-name="グループ化 331"><rect data-name="長方形 119" width="34.133" height="20.86" rx=".259" transform="translate(6.168 9.511)" fill="#fff"/></g><g data-name="グループ化 332"><rect data-name="長方形 120" width="3.891" height="2.916" rx=".259" transform="translate(6.403 4.783)" fill="#fff"/></g><g data-name="グループ化 333"><rect data-name="長方形 121" width="3.891" height="2.916" rx=".259" transform="translate(11.22 4.783)" fill="#fff"/></g><g data-name="グループ化 334"><rect data-name="長方形 122" width="16.491" height="2.916" rx=".259" transform="translate(23.81 4.783)" fill="#fff"/></g><g data-name="グループ化 335"><path data-name="パス 531" d="M33.134 14.612H8.475a.43.43 0 0 1-.429-.43V12.69a.43.43 0 0 1 .429-.43h24.659a.43.43 0 0 1 .429.43v1.489a.43.43 0 0 1-.429.433zm-24.484-.6h24.311v-1.144H8.65z" fill="#1d1d1d"/></g><g data-name="グループ化 336"><path data-name="パス 532" d="M28.192 18.878H8.476a.4.4 0 0 1-.4-.4v-1.489a.4.4 0 0 1 .4-.4h19.716a.4.4 0 0 1 .4.4v1.493a.4.4 0 0 1-.4.396zm-19.573-.541h19.43V17.13H8.619z" fill="#1d1d1d"/></g><g data-name="グループ化 337"><path data-name="パス 533" d="M22.16 23.132H8.476a.353.353 0 0 1-.353-.353v-1.493a.353.353 0 0 1 .353-.353H22.16a.354.354 0 0 1 .354.353v1.493a.354.354 0 0 1-.354.353zm-13.585-.451h13.487v-1.3H8.575z" fill="#1d1d1d"/></g><g data-name="グループ化 338"><path data-name="パス 534" d="M29.376 27.483h-20.9a.406.406 0 0 1-.405-.406v-1.494a.406.406 0 0 1 .405-.406h20.9a.406.406 0 0 1 .406.406v1.492a.406.406 0 0 1-.406.408zm-20.745-.556h20.594v-1.192H8.631z" fill="#1d1d1d"/></g><g data-name="グループ化 339"><path data-name="パス 535" d="M1.507 5.323a1.506 1.506 0 1 1 1.506-1.506 1.508 1.508 0 0 1-1.506 1.506zm0-2.031a.524.524 0 1 0 .524.524.525.525 0 0 0-.524-.521z" fill="#1d1d1d"/></g><g data-name="グループ化 341"><path data-name="パス 537" d="M40.302 35.802a.963.963 0 1 1 .963-.964.965.965 0 0 1-.963.964zm0-1.436a.473.473 0 1 0 .472.472.473.473 0 0 0-.472-.472z" fill="#1d1d1d"/></g><g data-name="グループ化 342"><path data-name="パス 538" d="M48.556 18.457h-1.584a.3.3 0 0 1 0-.6h1.584a.3.3 0 0 1 0 .6z" fill="#1d1d1d"/></g><g data-name="グループ化 343"><path data-name="パス 539" d="M48.227 19.363h-3.394a.3.3 0 0 1 0-.6h3.394a.3.3 0 0 1 0 .6z" fill="#1d1d1d"/></g><g data-name="グループ化 344"><path data-name="パス 540" d="M3.429 35.802a.248.248 0 0 1-.237-.174l-.3-.967a.248.248 0 0 1 .474-.148l.3.967a.247.247 0 0 1-.163.31.243.243 0 0 1-.074.012z" fill="#1d1d1d"/></g><g data-name="グループ化 345"><path data-name="パス 541" d="M4.266 38.487a.249.249 0 0 1-.237-.174l-.3-.967a.248.248 0 0 1 .474-.147l.3.967a.248.248 0 0 1-.163.311.241.241 0 0 1-.074.01z" fill="#1d1d1d"/></g><g data-name="グループ化 346"><path data-name="パス 542" d="M1.845 37.237a.248.248 0 0 1-.074-.485l.967-.3a.248.248 0 1 1 .148.473l-.967.3a.238.238 0 0 1-.074.012z" fill="#1d1d1d"/></g><g data-name="グループ化 347"><path data-name="パス 543" d="M4.509 36.406a.248.248 0 0 1-.074-.485l.967-.3a.248.248 0 1 1 .148.474l-.967.3a.241.241 0 0 1-.074.011z" fill="#1d1d1d"/></g><g data-name="グループ化 357"><path data-name="パス 553" d="M38.546 1.487L38.306.24l1.248-.239.239 1.247zm0-1.087l.163.851.851-.163-.163-.851z" fill="#1d1d1d"/></g></g></svg>