<svg version="1.1" id="レイヤー_1" xmlns="http://www.w3.org/2000/svg" x="0" y="0" viewBox="0 0 242.3 148.5" xml:space="preserve"><style>.st0{fill:#fef86c}.st1{fill:#f4ff54}</style><g transform="translate(-731 -3256.198)"><ellipse class="st0" cx="909.3" cy="3310.2" rx="64" ry="38.8"/><path class="st1" d="M775.5 3310l7.5-2.7-5.4-8.5-6.8 7.3c-1.4 1.5 3.5 9.4 5.4 8.5l17.4-8.4-5.3-8.5-11.2 16.7c-1.2 1.8 4.1 9.6 5.4 8.5l16.8-14.8-5.6-8.2-7.6 15.3c-.8 1.6 4.5 9.3 5.6 8.2l17.1-17-5.6-8.2-6.6 17.2c-.8 2.1 4.8 9.4 5.8 7.9l8.4-15.1-5.8-7.8c-3.6 6.8-5.8 14.1-6.7 21.7-.2 1.7 4.7 9.8 5.8 7.9l6.7-12.2-5.8-7.9c-6.9 21.7-12.1 43.9-15.5 66.4-.3 1.9 1.4 4.3 2.5 5.8.2.3 3 3.6 3.3 2.1l2.4-15.2c.3-1.7-1.2-3.9-2.1-5.2-.2-.3-2.9-3.8-3.5-3l-10.2 16.3c-1.1 1.8 3.9 9.7 5.4 8.5l2.5-2c1.7-1.4-4-9.6-5.4-8.5l-2.5 2 5.4 8.5 10.3-16.3-5.6-8.2-2.4 15.2 5.8 7.9c3.4-22.5 8.6-44.7 15.5-66.4.7-2-4.8-9.5-5.8-7.9l-6.7 12.2 5.8 7.9c.8-7.6 3.1-15 6.7-21.7 1.1-2-4.9-9.4-5.8-7.8l-8.4 15.1 5.8 7.9 6.6-17.2c.6-1.6-4.4-9.4-5.6-8.2l-17.1 17 5.6 8.2 7.6-15.3c.8-1.6-4.3-9.3-5.6-8.2l-16.8 14.8 5.4 8.5 11.2-16.7c1.1-1.7-3.4-9.5-5.4-8.5l-17.4 8.3 5.4 8.5 6.8-7.3c1.4-1.5-3.4-9.3-5.4-8.5l-7.5 2.7c-1.5.4 2.9 9.2 5.2 8.4z"/><path class="st1" d="M799.5 3311.7l8.8-1.3-7.7-6-6.8 1.8c-1.9.5 1.3 3.4 1.8 3.7 1.5 1.2 3.8 2.7 5.9 2.3l6.9-1.4c2-.4 4.5-1.4 6.5-1.1l-5.2-2.4.4.3-2.3-2.9c.2 1.7-.8 3.5-.5 5.3.3 1.8 1.1 3.6 2.3 5l1.3-2.1-4.6-.7 5.5 6.1c2.3 0 8.5 1.1 9.6-1.7l-8.6-4.9v.7c.1 2 3 3.6 4.6 4.4.6.3 4.3 1.9 4.1 0v-.7c-.1-1.9-7.6-7.3-8.6-4.9-.8 1.8-5.9 1-7.5 1-1.9 0-.9 1.8-.1 2.6 1.5 1.7 3.5 2.9 5.7 3.5l4.6.8c1.8.3 2.5-.5 1.3-2.1-.7-1-1.1-2.2-1.1-3.4 0-1.2.5-2.2.7-3.3.2-2.8-3.8-5.2-6.1-6.1-2.4-.9-4.8-.1-7.3.4l-9.2 1.9 7.7 6 6.8-1.8c1.9-.5-1.3-3.4-1.8-3.7-1.6-1.2-3.8-2.6-5.9-2.3l-8.8 1.3c-1.9.3 1.4 3.5 1.8 3.7 1.5.9 3.7 2.3 5.8 2zM775 3373.9c13.5 5.6 27.9 9 42.5 10 .3 0 5.2 0 5.1-.3-2.8-6.6-12.3-8.4-18.5-10.1-8.9-2.4-18-3.8-27.2-4.3-.5 0-4.6-.5-4.9.1s1.8.8 2.3.9l22.4 3.6c2 .3 4.1.4 6.1.3.5 0 2.3-.3.9-.7-3.1-.9-6.4-1.1-9.7-.7-1.6.3-3.3 1.8-2.1 3.5 1.2 1.6 4.5 1.7 6.3 1.8 3.3.3 6.3.3 9.2-1.3.7-.4-2.3-.9-2.3-.9-11.4-1.9-23-2.3-34.6-1.2-1.2.1-2.1.3-.4.8 2.1.5 4.3.7 6.5.6l23-.3-6-1.4-6 .3 8.3 1.2 2.5-1.8c.7-.5-2.2-.9-2.3-.9-7-1.2-14.2-1-21.1.8-.8.1.7.5.8.5 1.3.3 2.6.5 3.9.5l13.3.8c.5 0 5 .4 5.1-.3s-4.8-1-5-1l-3.5-.2c-.5 0-5-.4-5.1.3s4.8 1 5 1l3.5.2.1-1.2-13.3-.8 4.8 1.1c1.4-.4 2.8-.7 4.2-.9.6 0 1.2 0 1.7-.1 1-.2-1.8-.3.5.1l-2.3-.9-2.5 1.8c-.7.5 2.2.9 2.3.9 2 .3 4.1.4 6.1.3l6-.3c1.2 0 2.1-.3.4-.8-2.1-.5-4.3-.7-6.5-.6l-23 .4 6 1.4c7.5-.7 15-.5 22.4.7l-2.3-.9c-1.7 1-3 .6 1.5 1.1 5.5.5 2.5.9 2.3-.9 0-.3.1-.7.2-1 .2-.4 1.2-1 .6-.9l-7.9-.6.5.1 6.9-.4-22.4-3.6-2.6 1c6.9.4 13.7 1.6 20.3 3.5 5.4 1.5 13 3.2 15.5 8.9l5.1-.3c-11.4-1.1-22.5-3.9-32.9-8.5-2-.6-4.1-.9-6.1-.9-1-.1-2-.1-3 .1-.1 0-1.1.2-.6.4z"/><path class="st0" d="M822.3 3324.5l-21.7 8.2 7.8 18.4 28-18c3.6-2.3 6-7 4.6-11.4-1.3-4-5.2-7.7-9.7-7.4l-39.2 3 5.1 18.7 12.4-8.3c4.2-2.8 6.1-7.8 4.1-12.6-1.9-4.4-7.1-7.4-11.9-5.9l-28.7 9.3 9.8 16.8 11.7-11.4c2.9-2.9 3.7-7.2 2.1-11-1.4-3.4-5.3-6.6-9.2-6.2l-40.4 3.7 7.1 17.2 12.9-10.9-14.2-14.2c-8.1 6.8-15.8 17-11.8 28.2 2.2 6.2 7 10.5 13.1 12.7 5.8 2.1 12 1.2 18 .3l-7.8-18.4-28.5 12.3c-4.8 2.1-6.3 9.6-3.6 13.8 3.3 5 8.6 5.9 13.8 3.6l28.5-12.3c4.6-2 5.8-8.4 4.1-12.6-2.1-5-6.8-6.6-11.9-5.9-3 .4 2.1-.1-.9.1-.9.1-1.8.1-2.7.2-.9.1-1.8.1-2.7-.1 1.2.3 1.2.2 0-.1-.3-.1-.7-.2-1-.3 1.2.5 1.4.6.8.3-1.1-.8-.8-.6 0 .2-1.6-1.4.8 1.8-.2-.1-1.1-2 .5 1.9 0-.3.5 2.2-.4.3.2-.2-.4.4-.4 2 .1.1.1-.4.2-.7.3-1.1l-.4 1.1c.2-.7.6-1.4 1.2-2-.7.9-.9 1.1-.4.5.2-.3.5-.6.8-.9.5-.6 1.1-1.2 1.7-1.7 1.2-1.1 2.3-2.1 3.5-3.1 4-3.4 3.8-10.8 0-14.2-4.3-3.9-9.9-3.6-14.2 0l-12.9 10.9c-3.1 2.6-3.5 7.6-2.1 11s5.3 6.6 9.2 6.2l40.5-3.6-7.1-17.2-11.7 11.4c-7 6.9.1 19.9 9.8 16.8l28.7-9.3-7.7-18.4-12.4 8.3c-3.6 2.4-6 7-4.7 11.4 1.3 4 5.2 7.7 9.7 7.4l39.2-3-5.1-18.7-28.1 17.8c-4.3 2.6-6.1 7.9-4.1 12.6 1.8 4.3 7.2 7.6 11.9 5.9l21.7-8.2c4.9-1.9 8.8-6.9 7-12.4-1.6-4.7-7.1-9-12.4-7z"/><path class="st0" d="M756.7 3339.6c-4.7.9-8.4 5.1-9.6 9.6-1.4 5.7 1.2 11.6 6.2 14.5 4.4 2.5 9.9 2.5 14.2-.2 4.3-2.8 6.9-7.6 6.9-12.8.1-8.7-11.1-13.4-17.2-7.1-3 3.1-7 6.3-9 10.2-2.6 5.2-1.9 11.5 1.7 16.1 3.7 4.6 9.8 6.5 15.4 4.8 2.7-.8 5.1-2.4 6.9-4.5 2.5-2.8 3.3-5.7 3.8-9.4.6-4.1-3.5-8.8-7.4-9.7-4.4-1.1-9 .8-11.4 4.7l-8 12.9c-1.8 3.1-1.8 7 0 10.2 1.6 2.8 5.3 5.4 8.7 5l22.2-2.7-2.7-19.8-33.1 13.4c-4.9 2-8.8 6.8-7 12.4 1.6 5.3 7 8.4 12.4 7l27.5-7.5-7.8-18.4-23.3 10.7c-3.8 1.8-5.9 7.4-4.7 11.4 1.3 4.3 5.2 7.2 9.7 7.4 16.6.9 33.3.3 49.8-1.6L794 3379l-10.8 8.6c-3.3 2.6-3.8 8.8-1.6 12.2 2.4 3.8 7 5.7 11.4 4.6l26.6-5c7.8-1.5 9.3-11.7 4.5-16.8-.9-1 0 .1.4.5-1.1-1.5.2 1.3.1.4 0-.3-.3-1.8-.1-.2.1 1.7.1-.2 0-.6-.1-1.7.1.7-.1.7.1-.6.3-1.1.4-1.6.1-1.2-.9 1.5-.3.5.3-.5.5-1 .8-1.4.9-1.4-.2.1-.2.2 0-.1.9-1 1-1.1.4-.4.9-.9 1.4-1.3.2-.1 1.5-1.2.5-.4-1.2.9.6-.4.8-.6l1.3-.9c1.1-.7 2.2-1.3 3.3-2 3.7-2.2 6-7.1 4.6-11.4-1.3-4.3-5.2-7.3-9.7-7.4l-32.1-1.4 5.1 18.7 12-6.1c3.8-1.9 5.9-7.3 4.6-11.4-1.3-4.2-5.1-7.5-9.7-7.4l-30.6.5 5.1 18.7 21.4-9.8c3.8-1.8 5.9-7.5 4.6-11.4-1.5-4.6-5.1-6.9-9.7-7.4l-16.1-1.7 7.1 17.2 4.5-3.5c3.4-2.6 3.8-8.8 1.6-12.2-2.6-4-6.8-5.4-11.4-4.6-.7.1-1.5.2-2.3.4-1.2.2 1.5-.1-.5 0-1.5.1-3 .3-4.5.4-3 .2-6 .2-9.1.1l2.7 19.7 1.9-.5c5-1.5 8.7-7.1 7-12.4-1.6-5.1-7-8.6-12.4-7l-1.9.5c-5.3 1.5-8.4 7.1-6.9 12.5 1.2 4.3 5.1 7.2 9.6 7.3 7.3.2 14.5-.4 21.7-1.7l-9.8-16.8-4.5 3.5c-3.1 2.4-3.5 7.7-2.1 11 1.7 3.9 5.1 5.8 9.2 6.2l16.1 1.7-5.1-18.7-21.5 9.8c-3.8 1.8-5.9 7.5-4.7 11.4 1.3 4.2 5.1 7.5 9.7 7.4l30.6-.5-5.1-18.7-12 6.1c-3.8 1.9-5.9 7.3-4.7 11.4 1.3 4.3 5.2 7.3 9.7 7.4l32.1 1.5-5.1-18.7c-6.2 3.7-12.9 8.2-16.2 15-3.9 8.2-3.4 17.7 3 24.5l4.5-16.8-26.5 5.1 9.8 16.8 10.8-8.6c3.1-2.5 3.5-7.7 2.1-11s-5.3-6.7-9.3-6.2c-16.5 2-33.2 2.5-49.8 1.6l5.1 18.7 23.3-10.7c4.6-2.1 5.9-8.3 4.1-12.6-1.9-4.6-7-7.1-11.9-5.9l-27.5 7.5 5.4 19.4 33.2-13.4c4.7-1.9 7.9-5.7 7.2-11-.6-4.5-4.9-9.4-9.9-8.7l-22.2 2.7 8.7 15.2 8-12.9-18.7-5.1c.3-2.5.8-3.9 2.8-5.1-1.4.9 1.5-.5 2.2-.5 2.2-.1 4.2 1.1 5.3 3-.5-.9-.4-.7.3.8.3.7.3 1.5 0 2.3-.1.8-.3 1.5-.8 2.1-.9 1.1-1.1 1.3-.6.8.7-.6 1.3-1.3 1.9-2l4.3-4.4-17.2-7.1c.3-1.5.4-1.9.2-1.2s-.1.4.4-1c1.3-2.2 3.8-3.4 6.3-3.1 3 .6 6 3.4 5.6 6.8-.3 2.7-1.9 6-4.8 6.6 5.2-1 8.6-7.5 7-12.4-1.6-5.5-6.6-8.2-12.2-7.1zM770.5 3304.6c6.1-3.8 12.5-7.3 19-10.4 1.6-.7 3.2-1.4 4.7-2.1-2.1.9.6-.2.8-.3.8-.3 1.6-.6 2.4-1 3.5-1.3 7-2.6 10.6-3.7l-5.4-19.4c-18.6 6.6-38.3 13.9-51.4 29.4-3.3 3.9-4 9-.8 13.2 3.2 4.2 8.4 4.8 13 2.6 9.3-4.6 18.6-9 28.1-13.1l3.4-1.4c.8-.3 1.1-.4.1 0l1.7-.7c2.4-1 4.8-2 7.2-2.9 5-2 9.9-3.9 14.9-5.8l-7.8-18.4c-16.4 8.5-34.8 15.9-45.8 31.4-2.3 3.3-1.5 8.2.8 11.2s6.9 5.1 10.6 3.6l34.7-14.2c2.5-1.1 4.6-2.2 6-4.7 1.4-2.4 1.7-5.1 1-7.8-1.6-5.1-7-8.6-12.4-7l-20.4 6.1c-3.4 1.1-7 1.9-10.1 3.7-4.9 2.8-7.9 8-7.9 13.6.1 6 6.4 12 12.8 9.7l34.2-12.6-7.8-18.4c-3.6 2.3-6.6 5-8.1 9.3-1.8 5.2-.1 10.9 4.2 14.3 5.9 4.6 13.7 2.6 20.5 1.9l-5.1-18.7-4.7 3.5c-4.1 3-6.2 7.6-4.1 12.6 1.8 4.2 7.2 7.6 11.9 5.9l9.8-3.8-11.4-14.8c-3.6 4.9-4.1 10.9-3.3 16.7.8 5.2 7.7 8.5 12.4 7 5.7-1.9 7.9-6.8 7-12.4.2 1.2.3 1.5.2.1 0-1-.7 2 0 .1.7-1.5-.3.3-.2.4.4-.6.8-1.2 1.2-1.9 2.3-3.2 1.4-8.3-.8-11.2s-6.9-5-10.6-3.6l-9.8 3.8 7.8 18.4 4.7-3.5c3.5-2.6 6.1-6.9 4.6-11.4-1.3-3.9-5.2-7.8-9.7-7.4-3.2.3-6.4.6-9.5 1-.6 0-1.2.1-1.8.1h-.7c2.4-.1 3.7 1.3 4 4.5 3.1 2.3 3.5 4.7 1 7l.5-.5c-1.2 1-1 .7.2 0 4.3-2.6 6.1-7.9 4.1-12.6-1.8-4.3-7.1-7.6-11.9-5.9l-34.3 12.5 12.8 9.7c0 .8-.3 1.6-.7 2.3-.2.3-1.8 1.8-1.1 1.3 1.1-.7-1.6.5-.3.1.6-.1 1.2-.4 1.8-.6 2.6-.8 5.3-1.6 8-2.4l15.9-4.7-5.4-19.4-34.7 14.2 11.4 14.8c.7-.9.6-.9-.2.2.3-.4.6-.8 1-1.2.7-.8 1.4-1.5 2.1-2.3 1.3-1.3 2.6-2.5 4-3.5-2.1 1.5.7-.4 1.1-.7l2.6-1.7c1.5-1 3.1-1.9 4.7-2.8 7.6-4.3 15.5-8.2 23.3-12.2 4.5-2.3 6-8.2 4.1-12.6-1.8-4.3-7.1-7.6-11.9-5.9-20.5 7.8-40.6 16.4-60.1 26.1l12.2 15.8c1.4-1.6 2.9-3.2 4.4-4.7.8-.7 1.6-1.4 2.4-2.2.3-.3 2.9-2.6 1.1-1 2.8-2.6 6.9-4.6 10.2-6.4 2.1-1.1 4.2-2.2 6.4-3.1.8-.4 1.7-.7 2.5-1.1-2 .9 1.5-.6 1.8-.7 4.5-1.8 9.1-3.4 13.7-5 4.9-1.8 8.8-7 7-12.4-1.6-5-7-8.7-12.4-7-14.9 4.7-29.2 11.3-42.5 19.5-4.5 2.8-6.6 9.1-3.6 13.8 3.1 4.7 9.3 6.8 14.1 3.8z"/><path d="M800.7 3310.8c4.3-3.7 9.8-.9 11.6 3.7.1.4 1.5 0 1.4-.2-1.7-4.6-6.9-7-11.5-5.2-1 .4-2 .9-2.8 1.7-.3.3 1.1.3 1.3 0zM803.2 3321.5c-5.1-.9-3.5-9.1 1.3-7.8s2.9 9.1-2 7.9c-.7-.2-1.4.5-.5.8 2.5.6 5.5-.3 6.5-2.9.9-2.6-.5-5.5-3.1-6.4-.2-.1-.4-.1-.5-.2-2.7-.7-5.5.9-6.2 3.5-.8 3 1.6 5.5 4.4 5.9.8.2.9-.6.1-.8zM787.8 3310.2c-4.7-4.1-11.4-2.1-13.6 3.6-.2.5.9 1.4 1.1.9 1.9-4.9 7.9-7.5 12.3-3.7.7.6.7-.4.2-.8z"/><path d="M785.2 3322.2c2.5-.3 4.2-2.6 3.9-5.1-.1-.5-.2-1-.5-1.5-1.1-2.2-3.6-3.4-6-2.9-2.5.7-4 3.2-3.4 5.7.1.3.2.7.4 1 1.2 2.3 3.8 3.5 6.4 3 .3 0-.6-1.1-1-1-1.3.5-2.7.1-3.5-1-1-.7-1.4-2-1.2-3.2.2-1.8 1.6-3.2 3.3-3.5 2-.4 3.9.9 4.3 2.8.1.6.1 1.1 0 1.7-.5 1.7-1.9 3-3.7 3.2-.3-.1.6.9 1 .8zM794.7 3323.3l.1.7 1.1.9-.2-.5c-.1-.3-.3-.5-.6-.7-.1-.1-.2-.2-.4-.2h-.1l.2.5c.1.3.3.5.6.7 0 0 .5.4.5.2l-.1-.7c0-.2-.4-.5-.6-.7 0 0-.5-.3-.5-.2zM793.7 3331.7c-.2-.6-.7-.9-1.1-1.4-1.4-2.3 1.9-.8 2.5-.5.5.1.9.4 1.3.7.4.1.3.3-.1.5l-.6.1-2.7.4c-.9.1-.1 1.2.5 1.1 1.1-.1 2.3-.2 3.4-.5.5-.1 1.1-.2 1.2-.7.5-1.3-1.9-2.3-2.6-2.6-1-.5-3.1-1.5-4.2-.7-1.5 1.2.9 2.7 1.2 3.7.3.7 1.6.8 1.2-.1zM813 3279.3c4.1 3.6 7.2 8.2 9 13.4.9 2.5 1.7 5 2.3 7.6.7 3.3.4 6.7.4 10.1 0 .5 1.2 1.4 1.2.7 0-3.6.3-7.2-.5-10.8-.7-2.8-1.5-5.5-2.5-8.2-1.9-5.3-5.1-10-9.4-13.6-.8-.7-1.1.3-.5.8zM810.3 3276.4c-2.4-2.3-5.5-3-8.7-3.6-3.8-.8-7.7-1.3-11.6-1.4-7.4-.1-14.6 2.6-20.2 7.5-10.4 9.1-11.7 22.9-9.5 35.8.1.8 1.4 1 1.2 0-2-11.8-1.1-24.9 8.1-33.7 5.1-5 11.8-8 18.9-8.3 3.5-.1 7.1.2 10.5.9 3.5.6 7.8 1.1 10.5 3.7.8.6 1.4-.4.8-.9zM767.8 3313.9c.1 3.8.6 7.6 1.6 11.3.1.4 1.2 1.2 1 .5-1-3.6-1.6-7.3-1.6-11 .1-.5-1-1.4-1-.8zM819.9 3312.5c-.4 4.3.8 8.4.8 12.7 0 3.8-1.4 7.5-4.1 10.3-6.3 6.5-15.8 6.7-24.2 6.7-.9 0-.9.7 0 .7 8.4 0 17.7-.2 24.5-6.1 2.8-2.3 4.6-5.5 5.2-9.1.7-5-1.2-10.1-.7-15.2 0-.5-1.4-.6-1.5 0zM790.4 3341.2c-8.4-.7-15.7-6.1-18.9-14-.3-.7-1.7-.6-1.3.2 3.4 8.4 11.3 14.2 20.3 14.9.9.2.7-1-.1-1.1z"/><path d="M767.6 3316.2c-1.4-1.6-3.7-2.4-5.8-1.9-3.5.8-4.7 4.9-3.8 8.1 1.2 3.6 4.5 6.1 7.8 7.9 1.8 1 5.1 2.1 5.9-.7 0-.2-1.3-.6-1.4-.3-1.5 4.8-9.7-3.5-10.7-5.9-.7-1.7-.8-3.5-.1-5.2 1-2.6 4.4-4.9 6.8-2.1.2.2 1.4.1 1.3.1zM823.6 3314.2c2-.6 3.1-.2 3.2 1.2.2.8.2 1.5.2 2.3 0 1.4-.3 2.7-.8 4-.4 1-.9 2-1.6 2.8-.2.2-2.7 3.5-3.1 1.3-.1-.6-1-.5-.9.1.3 1.7 1.4 2.4 2.9 1.3 2.2-1.9 3.7-4.5 4.2-7.4.4-2.3.4-5.7-1.4-7.4-1.4-1.3-2.9-.5-3.6 1.1-.2.6.6 1.3.9.7zM778.6 3302.3c.3 3 1.9 5.7 4.4 7.3.1.1 1.4-.1 1.4-.3-.3-1.6 0-3.2.8-4.6 0 0-1.2-.1-1.4.2-.8 1.4-1.1 3.1-.8 4.7l1.4-.3c-2.5-1.6-4.1-4.3-4.3-7.2-.1-.2-1.5 0-1.5.2z"/><path d="M783.3 3304.2c2 3.9 5.7 6.7 10 7.6.3.1 1.3-.3.9-.8-1.2-1.5-1.5-3.6-.9-5.4.3-.8-1.1-.9-1.3-.3-.8 2.1-.5 4.5.9 6.2l.9-.8c-4-.9-7.4-3.5-9.3-7.1-.2-.6-1.5-.1-1.2.6zM794.5 3306.2l3.2 4.6c.2.3.6.5 1 .3l.3-.3 1.7-4.2-1.2.2c1.4 1.6 2.4 3.5 3 5.5.1.5 1 .8 1.3.3 1.7-2.6 2.5-5.7 2.2-8.8-.1-.8-1.5-1-1.4-.1.3 2.9-.4 5.8-2 8.2l1.3.3c-.7-2.2-1.8-4.3-3.4-6.1-.3-.3-.7-.3-1-.1-.1.1-.2.1-.2.2l-1.7 4.2h1.3l-3.2-4.6c-.4-.8-1.7-.3-1.2.4zM767 3310.5l.8 2.2c0 .1.6 1.2.7 1l1.8-3.5-.7-.8 1.9 5c0 .1.7 1 .7.8.2-2.7.8-5.3 1.7-7.9.1-.3-.7-1.3-.8-1.2-1 2.5-1.5 5.2-1.7 7.9l.7.8-1.9-5c0-.1-.6-1.1-.7-.8l-1.8 3.5.7 1-.8-2.2c0-.2-.8-1.3-.6-.8z"/><path d="M806 3304.6c.8 2.6 1.9 5.2 3.5 7.5.1.2 1.4 0 1.4-.2.1-1.9.8-3.8 2-5.3l-1.4.1c1.4 2.6 2.2 5.5 2.3 8.4 0 .2 1.3 0 1.4-.1 1.6-1.5 2.5-3.6 2.7-5.8 0-.1-1.4-.1-1.4.2-.2 2.2-1.1 4.2-2.7 5.7l1.4-.1c-.1-2.9-.9-5.8-2.3-8.4-.1-.2-1.3 0-1.4.1-1.2 1.6-1.9 3.4-2.1 5.4l1.4-.2c-1.5-2.3-2.7-4.8-3.5-7.5.1-.3-1.3.1-1.3.2zM779.5 3339.4c1 1.9 2.4 5.4-.1 6.8-.8.4-.3 1.3.4.9 3.3-1.8 2.4-5.6 1-8.3-.4-.7-1.6 0-1.3.6zM794.6 3342.7c-1.1 2.1.2 4.8 2.3 5.8-.1 0-.4-1-.7-1.2-1.4-.7-1.5-2.1-.8-3.4.2-.3-.9-1.1-.8-1.2zM775 3345.5c-1.2 2.8.9 5.8 2.4 8.1 2.1 3.1 4.7 5.9 7.7 8.1.7.6.5-.6.1-1-2.2-1.6-4.2-3.5-5.8-5.7-1.7-2.1-4.5-5.7-3.4-8.5.2-.5-.8-1.5-1-1z"/><path d="M797.1 3349c.2 3.8-.3 7.6-1.6 11.3-.3.8-.6 1.5-.9 2.3-.4 1.7-1.7 2.2-3.7 1.4l-.7-.5c-1.8-1-3.5-2.1-5.1-3.4-.6-.4-1.7.5-1.1 1 2.3 1.5 4.8 3.8 7.4 4.7 1.4.5 2.9 0 3.6-1.2 3-4.2 3.7-10.6 3.5-15.7-.1-1-1.4-.7-1.4.1z"/><path d="M795.5 3344.7c3-1 6.3.6 7.3 3.6.1.2.1.5.2.7.5 2.1.2 4.4-.7 6.4-.1.3 1.1 1.1 1.2.9 1.3-3.3 1.3-7.2-1.2-10-1.9-2.3-5-3.2-7.9-2.3-.2-.2.7.8 1.1.7z"/><path d="M803.7 3349.5c2 .3 4 .8 6 1.3 1.8.6 6.1 1.5 6.5 3.5.3 1.4-.7 1.9-1.6 3l-2.1 2.4-4.6 5.1c-.5.6.5 1.6 1.1 1l6.7-7.5c1-1.2 3.3-2.8 2.4-4.7s-3.9-2.6-5.6-3.3c-2.8-1.1-5.7-1.8-8.6-2.3-.4 0-.7.2-.8.6-.1.5.2.8.6.9zM781 3340c-3.5-.6-6.4-3.7-10.3-3-3.5.7-4.5 4.2-5 7.2-.1.5 1.3.4 1.4 0 .7-3.7 2.3-7.9 7.1-5.9 2.1.9 3.8 2 6.1 2.4.6.1 1.6-.4.7-.7zM770.1 3354c3.9 4.8 8.5 9 13.5 12.7.8.5.1-.6-.2-.8-4.7-3.4-9-7.4-12.7-11.9-.3-.5-1.2-.7-.6 0z"/><path d="M766 3343.1l-1.2 3.1c-.1.4 1.2.3 1.4-.1l1.2-3.1c.2-.5-1.2-.4-1.4.1z"/><path d="M765.1 3344.3c-1 .9-2.3 0-3.4.2-.5.1-.9.4-1.2.9-1.1 1.4-1.3 3.5-1.9 5.2-.1.3 1.2.8 1.3.6.5-1.6.8-3.8 1.9-5.2 1.2-1.6 3.2.1 4.6-1.1.1-.2-1-.9-1.3-.6z"/><path d="M760.4 3350.7c-3.2.8-5.9 2.9-7.7 5.7-2.3 3.7.2 5.2 3.5 6.5 9.3 3.6 18.8 6.7 28.5 9.2.7.2 1.4-.4.4-.7-7.5-2-14.9-4.3-22.2-6.9-1.7-.6-3.5-1.3-5.2-1.9-2.1-.8-5.2-1.5-4.5-4.4.8-3.4 4.6-6 7.7-6.9 1-.2-.1-.8-.5-.6zM800.1 3361.5c-.2-.2-.3-.4-.2-.7l-.5.3h.1c.1.1.1.1.1.2s0 .3-.1.4c0 0-.1 0-.1.1h.2s0 .1 0 0v-.3h-.2s0-.1 0 0c0 .3.5.6.8.6s.6-.1.7-.4c.1-1-1.3-1.5-2.1-1.1-.9.4-.5 1.6.2 2 .6.4 1.5.3 1.9-.4.1-.2.2-.3.2-.5.1-1.1-1.2-1.7-2.1-1.5-.2 0-.4.1-.5.3-.1.8.3 1.6 1 1.9.3.2.7.2 1 0 0-.4-.2-.7-.4-.9zM786.4 3364.4l-1-.7.1.3c.1-.2.2-.6.5-.6-.1 0 0 0 .1.1s.2.2.2.3v.4l.1.2c.3 0 .4 0 .2-.2 0 0-.1-.1-.1-.2 0-.2.1-.2-.1-.1.2-.1.6-.3.4-.5s-.7-.1-.9 0c-.6.2-1.1 1.1-.5 1.6.8.5 1.8.2 2.3-.6v-.1c.4-.9-.5-1.5-1.3-1.5-1 0-1.9.6-2.3 1.5 0 .1 0 .2.1.3l1 .7c.4 0 1.7-.6 1.2-.9z"/><path d="M785.6 3364c-3.5 5.6-2.6 13.4-2.9 19.8 0 .4.3.8.7.8 1.1-.1 1.9-1 1.8-2.1 0-.5-.3-1-.7-1.4-.2-.3-.6-.4-.9-.1-.3.2-.4.6-.1.9v.1l-.4 1.2.9.8c.1-3.3.2-6.5.4-9.7.2-3.3.5-6.5 2.3-9.4.6-.7-.6-1.6-1.1-.9zM799.6 3361.9c1.9 2.6 3.3 5.5 4.2 8.6.8 2.7 2 7.5.1 9.9-.2.4-.1.9.3 1.1 0 0 .1 0 .2.1.9.3 1.9 0 2.5-.8.3-.3 0-.9-.2-1.1l-.7-.5c-.7-.6-1 .6-.4 1.1l.7.5-.2-1.1-1.7.6.5 1.2c2-2.6 1.1-6.7.4-9.6-.9-3.9-2.6-7.6-4.9-10.8-.6-.8-1.2.2-.8.8z"/><path d="M808.5 3364.1l-4.5 2.9c-.8.5-.2 1.4.5.9l4.5-2.8c.7-.5.2-1.5-.5-1zM800.8 3369.4c-3.2 3-7.7 4.1-11.8 2.8-.2-.1-1.6-.2-.8 0 4.8 1.8 10.2.9 14-2.5-.1 0-1.1-.6-1.4-.3zM753.1 3360.9c-4.5 4.3-2.4 12.6-1.8 18 .9 7.9 2.3 15.6 4 23.4.2.4.7.6 1.1.5l1.8-1c.7-.3-.5-1.2-1-.9l-1.8.9 1.2.5c-1.7-7.3-3-14.7-3.9-22.2-.4-3.4-.8-6.7-1-10.1-.1-3 .1-6.2 2.4-8.4.6-.4-.6-1.1-1-.7zM815.6 3357.5c5.9 11.7 10.3 24 13.1 36.8.2.8 1.5.5 1.4-.4-2.8-12.8-7.2-25.2-13.1-36.8-.4-.7-1.7-.4-1.4.4zM812.6 3280.7c0-4 5-6.8 3.5-11-.7-2-2.6-3.4-3.7-5.2-1.5-2.4-2-5.3-1.3-8.1l-1.3.3c4.9 3.2 7.6 8.8 7 14.6 0 .5 1.2.2 1.4 0 1-1.5 2.7-2.4 4.5-2.2 1.4.1 3.4 1.1 3.4 2.8l-.3 1.1-2.9 1.2c-.8 0-1.8-1.1-2.2-1.6-.8-.9-1.5-2-2-3.1-.2-.4-1.6-.1-1.4.3 1.4 2.5 3.2 5.2 6.4 5.2 2 0 4.4-1.6 3.7-3.8-.6-2-3.3-2.8-5.1-2.8-2.2 0-4.3 1.1-5.6 2.8h1.4c.6-6-2.2-11.7-7.3-15-.3-.2-1.2-.2-1.3.3-.5 2.2-.3 4.5.5 6.6 1 2.3 3 3.7 4.1 5.9 2.4 4.4-3.1 7.4-3.1 11.7.2.6 1.6.5 1.6 0z"/><path d="M806.7 3278.9c.1-1.8 2.2-3.1 1.6-4.9-.4-.8-.8-1.5-1.4-2.1-.8-1.2-1.2-2.6-.9-4l-.7.1c2.2 1.5 3.4 4 3.2 6.7 0 .2.6.1.7 0 4.1-.6 4.4-.5.9.3l-.7-1.2c-.1-.2-.8 0-.7.1.7 1.2 1.5 2.4 3 2.3.9 0 1.9-.7 1.6-1.7-.6-2.3-4-1.2-4.9 0h.7c.2-2.7-1-5.3-3.3-6.8-.1-.1-.6-.1-.7.1-.4 2.5.8 3.5 2 5.4 1.3 2.2-1.1 3.5-1.2 5.6.1.4.8.4.8.1z"/><g><path d="M882.5 3310.6c0 .2-.1.4-.1.6 0 .2.1.4.1.6s-.3.3-.3.5c-.1.2 0 .4-.1.6s-.3.3-.5.4c-.1.2-.3.3-.4.4-.1.1-.3.3-.5.4-.2.1-.4.2-.6.2-.2.1-.4 0-.6 0s-.4.3-.6.3h-.1c-.2 0-.4-.1-.6-.3-.2-.2-.3-.4-.3-.6 0-.3.1-.5.2-.7.2-.2.4-.3.7-.3.2 0 .4 0 .5-.1.2 0 .4-.1.5-.1.2-.1.3-.2.5-.3.1-.2.2-.3.3-.5 0-.2.2-.3.3-.5.1-.2.1-.4.1-.6v-.1c-.1-.4-.3-.8-.6-1.2-.1-.2-.2-.4-.4-.5-.1-.2-.3-.3-.5-.4-.2 0-.4 0-.5-.1h-.5c-.2 0-.5.1-.7.2-.2 0-.5 0-.7.1l-.6.3c-.3.2-.5.4-.7.7-.1.3 0 .3 0 .7s-.1.3-.1.7v1.3c0 .3.1.3.1.7v.7c0 .4-.1.3-.1.6 0 .2 0 .5-.2.6-.2.1-.4.2-.6.2v-.1c-.2 0-.4 0-.6-.1-.2-.2-.3-.4-.2-.7v-1.4-.7c-.1.1-.1.2-.2.4-.2.3-.3.5-.3.5-.1.2-.3.3-.5.3-.2.1-.4 0-.6-.1-.2-.1-.5-.2-.5-.4s.1-.4.3-.6c.1-.2.2-.5.3-.7.1-.2.2-.5.3-.7.1-.2.4-.3.5-.5.1-.1.1-.4.2-.5.1-.2.2-.3.4-.4.1-.1.2-.3.3-.4 0-.2.3-.3.1-.4-.3-.1-.3.2-.6.2s-.3-.1-.6-.1-.3.1-.6.1c0 0 0 .1-.1.1-.2 0-.5-.1-.7-.2-.2-.2-.3-.4-.3-.6 0-.2.2-.4.4-.6.1-.2.3-.3.5-.3.3 0 .3-.2.6-.2s.3.1.7 0 .5.1.7 0c.2-.2 0-.3 0-.6s-.1-.3-.1-.5c0-.3.2-.3.2-.5s.1-.4.2-.6c.1-.1.4-.3.6-.3.2 0 .5.1.7.2.1.2.2.4.2.7v1.4c0 .3-.1.3 0 .6.2-.1.3-.1.5-.1l.6-.3c.2 0 .4 0 .6-.1.2-.1.4-.1.6-.1l1.2.3h.6c.2.1.3.4.5.5l.6.3c.2.1.3.3.5.5.1.2.2.4.2.6.1.2.4.3.5.5v.7c0 .2.3.4.3.6-.2-.3-.4-.3-.4-.2zM894.9 3312c-.1.2-.1.4-.2.6-.1.2-.3.3-.5.5-.1.2-.3.3-.5.5-.1.2-.3.3-.5.5s-.3.3-.5.4c-.4.1-.8.3-1.2.4h-.6H889.3c-.2-.1-.4-.1-.6-.2-.2-.1-.4-.3-.5-.4-.1-.1-.4-.1-.5-.3s-.1-.4-.2-.6c-.1-.1-.3-.2-.4-.4s0-.4-.1-.6v-.6c0-.2-.3-.4-.3-.6 0-.2.1-.4.1-.6v-.6c0-.2-.2-.4-.2-.6s.1-.4.1-.6v-.6c0-.2-.1-.4-.1-.6s.2-.4.2-.6v-.6l.1-.6c0-.2 0-.4.1-.6 0-.2.2-.4.4-.6.2-.1.5-.1.7-.1.2.1.4.2.6.4.1.2.1.5 0 .7 0 .2.1.4 0 .6 0 .2-.1.4-.1.6s-.1.4-.2.6c0 .2.1.4 0 .6 0 .2-.2.4-.2.6v1.1c0 .2.1.4.1.5 0 .2-.1.4-.1.6s.2.3.2.5.1.5.2.7c.1.2.3.4.4.5.2.2.4.3.6.4.3 0 .5.1.8 0l.1.1c.2 0 .5-.1.7-.2l.6-.3.6-.3c.2-.2.3-.3.4-.5l.3-.6c.1-.2.3-.3.6-.4.2 0 .4 0 .6.1.2.1.4.2.5.5.3.3.2.5.1.7zM908.7 3311.5c0 .2.1.4 0 .6-.1.2-.1.4-.2.6-.1.2-.4.2-.5.4s-.1.5-.3.6-.5.1-.6.3c-.2.1-.2.4-.4.5-.2.1-.4.2-.6.2-.2 0-.4.1-.6.1h-2.3c-.2 0-.4-.3-.6-.4l-.6-.3c-.1-.1-.2-.4-.3-.5s-.4-.2-.5-.4c-.1-.1 0-.4-.1-.6s-.2-.3-.3-.5c0-.2-.1-.4 0-.6 0-.2-.2-.4-.2-.6 0-.2.2-.4.1-.6v-.6c0-.2-.1-.4-.1-.6s-.1-.4-.1-.6.2-.4.2-.6c0-.2-.1-.4-.1-.6s.1-.4.1-.6v-.6c.1-.2.1-.4.1-.6v-.6c0-.2.3-.3.5-.5.2-.1.4-.3.6-.2.2.1.5.2.6.4.1.2.1.5.1.7-.1.2-.1.4-.1.6 0 .2-.1.4-.2.6s0 .4 0 .6c0 .2-.1.4-.2.6 0 .2.2.4.2.6 0 .2-.2.4-.2.6s.2.4.2.5c0 .2-.1.4 0 .5v.5c0 .2 0 .4.1.5 0 .2.1.5.2.7.1.2.1.5.4.7.2.1.5.2.7.3.3.1.5.1.8.1h.1c.2 0 .5-.1.7-.1.2 0 .5-.1.7-.2.2-.1.3-.3.5-.5l.5-.5c.1-.2.1-.5.2-.7.1-.2.3-.3.6-.4.2 0 .4 0 .6.1.1.5.3.8.3 1.1zm-1.6-3.5c0 .2-.1.3-.3.4s-.2.3-.4.3-.3-.2-.4-.3-.2-.2-.2-.4-.1-.4-.1-.6c0-.2.2-.4.2-.6v-.6c0-.2.1-.3.2-.4.1-.1.2-.3.4-.3s.3.1.5.2.3.3.3.5v.6c0 .2.1.4.1.6-.2.2-.3.4-.3.6zm2.1.5c-.1.1-.3 0-.5 0v.1c-.2 0-.4-.1-.5-.2-.1-.1-.2-.3-.1-.5v-1.3c0-.1.1-.3.1-.5v-.5c0-.2.3-.1.5-.1s.4-.1.5 0c.1.1.2.3.1.5v2c0 .2 0 .4-.1.5zM922.9 3311.3c0 .2-.1.4-.2.5-.1.1-.1.4-.2.5s-.3.2-.5.4c-.2.1-.3.2-.5.3-.2 0-.3.2-.5.2s-.4 0-.6.1-.4-.1-.6-.1c-.2 0-.4-.1-.6-.2-.3-.2-.4-.6-.3-.9.1-.1.1-.2.3-.3.1-.2.4-.3.6-.3.2 0 .4 0 .6-.1.2 0 .5 0 .6-.1.2-.1.3-.4.2-.6h.1c-.1-.2-.2-.3-.3-.4-.2-.1-.3-.2-.5-.2s-.3-.1-.5 0h-.7c-.2 0-.5.1-.7.1s-.5-.1-.8-.1c-.2.2 0 .3 0 .7 0 .2.2.4.2.6v.6c0 .3-.1.3-.1.6v.6c.1.4.1.8.2 1.2v.6c0 .2-.1.4-.2.6-.1.2-.3.3-.5.3v.1c-.2 0-.5-.1-.6-.2-.1-.1-.1-.4-.1-.6 0-.3-.1-.3-.1-.6s-.1-.3-.1-.6v-.6c0-.3.1-.3.1-.6v-.6c0-.2 0-.4-.1-.6v-.6c0-.3-.1-.3-.2-.6-.2 0-.4.1-.6.1-.2 0-.4 0-.6.1-.2 0-.5-.1-.6-.2-.2-.1-.3-.3-.3-.6 0-.2.1-.4.2-.6.1-.2.2-.4.5-.4s.5.1.7 0 .4-.2.6-.2c.1-.2.1-.2.1-.5 0-.2-.2-.2-.2-.5 0-.2.2-.4.3-.6.1-.2.3-.3.5-.3s.4.1.6.2c.1.2.2.4.1.6v.5c0 .3.1.2.2.4.2 0 .4.1.6.1h.7c.1-.4 0-.5 0-.9 0-.2.2-.4.3-.6.2-.1.4-.2.6-.1.2 0 .4.1.6.2.2.2.3.4.3.6 0 .4-.3.4-.2.9.2.1.5.1.7.2.2.1.4.2.5.4.2.1.3.2.5.4l.3.6c.1.2.2.4.2.6v.1c.1 0 .1.2 0 .4zM936.7 3307c-.1.2-.3.4-.6.4H934.3c-.3 0-.3-.1-.5 0 0 .2 0 .4.1.5 0 .2-.1.4 0 .6 0 .2.1.4.2.6v.6c0 .2.1.4.1.6.2 0 .4.1.5.1.2 0 .4 0 .6.1h.6c.2 0 .3.3.4.5.1.2.4.4.3.6s-.3.4-.5.5c-.2.1-.4.2-.6.1-.2-.1-.4-.1-.6-.1h-.5c0 .2-.2.4-.2.6 0 .2.1.5 0 .7-.1.2-.1.4-.2.6-.1.2-.2.4-.3.5l-.5.5c-.1.2-.3.4-.5.5-.2.1-.4.2-.6.2-.2.1-.4.3-.6.3h-.4c-.2 0-.5-.1-.7-.2l-.6-.3-.6-.3-.5-.5c-.1-.2-.2-.4-.2-.6-.1-.2-.2-.4-.2-.7v-.1c0-.2 0-.4.1-.6.1-.2.1-.4.2-.5.1-.2.2-.3.3-.5.1-.2.2-.3.4-.4.1-.1.3-.2.4-.3l.4-.4c.1 0 .3-.1.5-.2s.4.1.6.1c.2 0 .5-.1.7-.1h.8v-1.2c0-.2-.1-.4-.1-.6v-.6c0-.2-.1-.4-.2-.6v-.6l-.1-.6v-.6c0-.2-.1-.4-.1-.6v-.6c0-.5.2-.9.7-1.1.2 0 .4.2.6.3.2.1.3.3.4.5 0 .2.1.5.1.8 0 .3.1.6 0 .9.3.1.3-.2.7-.2s.3.1.6.1.3.1.6 0c.3 0 .3-.2.6-.2.2 0 .4.2.6.3.2.1.3.4.3.6-.5.3-.6.5-.7.6zm-4.4 5.1c-.2 0-.4-.1-.6-.1-.2 0-.5.1-.7.2-.2 0-.4.1-.5.2-.2.1-.4.1-.5.2s-.1.2-.2.4c0 .1-.2.2-.2.5s.2.3.4.5c.1.1.1.3.3.3h.7c.2 0 .4-.1.5-.2.2-.1.3-.2.5-.3.1-.1.3-.2.4-.4 0-.1.1-.4.1-.5-.1-.4-.2-.6-.2-.8z"/></g><g><path d="M846.3 3325.4c1.3 1.3-.1 4.4-2.1 3.1-.4.3-.8.5-1.2.8 20.2 11.7 43.4 17 66.7 15.1 11.3-.8 22.3-3.4 32.8-7.6 9.5-3.9 18.8-9.9 24.2-19 5.2-9 6-20.1-.2-28.9-5.8-8.3-15.6-12.9-25-16-23-7.6-49.1-7.6-71.8 1-10.1 3.8-20.4 10.2-25.3 20.2-4.5 9.3-4.2 21.5 3.6 29 .3.3 1.5-.4 1.2-.8-7-6.7-7.8-17.3-4.6-26 3.7-9.9 12.8-16.5 22.2-20.5 21-9 46-9.6 67.9-3.7 9.4 2.5 19.2 6.2 26.5 13 7.6 6.9 10.3 17.7 6.8 27.3-3.7 10.7-12.9 18.1-23 22.6-9.9 4.3-20.3 7.1-31.1 8.2-24.2 2.6-48.7-2.5-69.8-14.8-.4-.2-1.6.5-1.2.8 2.6 1.8 6.8-2.3 4.3-4.7-.1-.2-1.3.5-.9.9z"/></g></g></svg>