<svg xmlns="http://www.w3.org/2000/svg" width="131.718" height="58.505"><path data-name="パス 332" d="M48.678 35.725c0 15.837-10.783 21.121-24.079 21.121a31.82 31.82 0 0 1-6.841-.716c-7.8-3.155-11.123-7.2-11.123-18.342 0-15.837 8.755-34.883 22.052-34.883a14.642 14.642 0 0 1 2.394.2c10.148 4.631 17.597 19.459 17.597 32.62z" fill="#ffd750"/><g data-name="グループ化 197"><path data-name="パス 333" d="M47.654 34.72c-.113 9.613-4.681 18.2-14.385 20.88-9.276 2.562-20.852.317-26.448-8.067-5.8-8.688-3.9-20.991.184-29.972C11.138 8.479 20.257-2.004 31.223 3.445c10.866 5.4 16.3 19.821 16.431 31.276.016 1.422 3.134.819 3.121-.333-.132-11.753-5.364-25.653-15.934-31.909-10.658-6.309-21.82.356-27.858 9.615-6.187 9.488-9.66 23.616-4.434 34.264 5.048 10.285 17.384 13.431 27.982 11.7a24.956 24.956 0 0 0 14.268-7.068c4.253-4.514 5.9-10.515 5.976-16.6.017-1.419-3.107-.83-3.121.33z" fill="#333"/></g><path data-name="パス 334" d="M28.548 27.526a4.817 4.817 0 0 1-2.822-2.933 3.648 3.648 0 0 1 1.049-3.825 3.469 3.469 0 0 1 3.335-.519 4.057 4.057 0 0 1 2.365 2.468 3.888 3.888 0 0 1-.681 3.823 3.11 3.11 0 0 1-3.709.69" fill="#333"/><path data-name="パス 336" d="M39.603 25.84c.409-.116.6 0 .937-.347a3.122 3.122 0 0 0 .319-3.138 2.39 2.39 0 0 0-2.515-1.6 2.435 2.435 0 0 0-1.764 2.595 2.8 2.8 0 0 0 3.023 2.49z" fill="#333"/><g data-name="グループ化 198"><path data-name="パス 337" d="M27.357 36.038a19.254 19.254 0 0 0 2.295-2.528c.509-.681 2.245-4.359 3.725-2.224 2.248 3.242-6.465 5.848-8.048 3.529l-1.234.9a4.91 4.91 0 0 0 4.757-.429c1.677-1.179 2.288-3.275 3.7-4.7l-1.264-.4a34.469 34.469 0 0 1-4.094 5.545c-.72.8.606 1.091 1.155.554l4.259-4.17-1.264-.4-2.311 3.34c-.531.767.861.864 1.264.4a17.773 17.773 0 0 1 3.648-3.177l-1.005-.687-2.08 2.768c-.637.847.626 1.147 1.155.554l1.708-1.916-1.155-.554a6.57 6.57 0 0 1-2.219 1.946c-.868.465-.42 1.482.486 1.039 1.665-.813 3.179-1.819 3.169-3.84 0-.882-1.335-.232-1.518.222l-.649 1.6 1.518-.222.149-2.385c.051-.823-1.232-.251-1.454.064l-.381.544c-.542.772.86.843 1.264.4l.183-.2c.712-.775-.616-1.14-1.155-.554l-.183.2 1.264.4.382-.544-1.454.064-.148 2.385c-.055.87 1.338.223 1.518-.222l.649-1.605-1.518.222c.007 1.443-1.124 1.933-2.122 2.421l.486 1.039a8.448 8.448 0 0 0 2.887-2.431c.637-.847-.626-1.147-1.155-.554l-1.708 1.916 1.155.554 2.08-2.768c.583-.776-.412-1.079-1.005-.687a19.361 19.361 0 0 0-3.947 3.445l1.264.4 2.311-3.34c.555-.8-.865-.794-1.264-.4l-4.259 4.17 1.155.554a36.344 36.344 0 0 0 4.312-5.846c.5-.842-.862-.809-1.264-.4-1.874 1.891-2.821 5.952-6.288 4.567-.416-.167-1.65.288-1.234.9 1.328 1.945 4.486 1.394 6.463.936 2.063-.478 4.509-1.737 4.773-4.1a2.691 2.691 0 0 0-3.4-3.016 3.672 3.672 0 0 0-1.995 1.724 24.36 24.36 0 0 1-3.511 4.447c-.765.716.584 1.088 1.155.554z" fill="#333"/></g><g data-name="グループ化 199"><path data-name="パス 338" d="M42.102 34.315a20.281 20.281 0 0 1-2.933-3.714 2.531 2.531 0 0 0-4.8 1.383c.092 2.151 2.273 3.162 4.109 3.531s4.3.632 5.494-1.112c.436-.638-.518-.811-.93-.646-2.823 1.129-3.767-2.471-5.277-3.995-.438-.442-1.736.185-1.366.808a30.371 30.371 0 0 0 3.6 4.883l1.275-.933-3.558-3.483c-.44-.431-1.775.215-1.366.807l1.93 2.79 1.366-.808a16.129 16.129 0 0 0-3.3-2.856c-.551-.363-1.594.424-1.144 1.023l1.738 2.312 1.275-.933-1.427-1.6c-.488-.548-1.774.27-1.275.933a6.6 6.6 0 0 0 2.263 1.918l1.012-1.113c-.988-.482-1.955-1.01-1.949-2.249l-1.5.531.543 1.341c.276.682 1.533.087 1.495-.53l-.124-1.992-1.495.531.318.454 1.366-.807-.153-.167c-.493-.537-1.839.319-1.275.933l.154.167c.429.467 1.768-.233 1.365-.807l-.319-.454a.877.877 0 0 0-1.495.531l.124 1.992 1.495-.531-.542-1.341c-.286-.707-1.492-.065-1.5.531-.008 1.577 1.182 2.351 2.47 2.981.636.311 1.821-.68 1.012-1.113a5.9 5.9 0 0 1-2-1.738l-1.275.933 1.426 1.6c.488.548 1.773-.27 1.275-.933l-1.738-2.312-1.143 1.023a14.9 14.9 0 0 1 3.04 2.676c.422.481 1.762-.234 1.366-.808l-1.93-2.789-1.365.807 3.558 3.483c.518.507 1.837-.311 1.275-.933a28.765 28.765 0 0 1-3.42-4.632l-1.366.808c1.149 1.159 1.646 2.919 3.029 3.856a4.168 4.168 0 0 0 4.009.245l-.93-.647c-.647.948-3.728.183-4.592-.16-.756-.3-2.9-1.761-2.059-2.864l1.3-.444a4.672 4.672 0 0 1 .7 1c.308.465.587.94.919 1.39a15.931 15.931 0 0 0 1.961 2.175c.535.5 1.877-.37 1.275-.933z" fill="#333"/></g><g data-name="グループ化 202"><g data-name="グループ化 200"><path data-name="パス 339" d="M71.003 15.15v2.821h-5.961v3.068H70.6v2.657h-5.558v3.666h5.961v2.821h-9.384V15.15z" fill="#ffd750"/></g><g data-name="グループ化 201"><path data-name="パス 340" d="M130.953 15.418v2.883a12.543 12.543 0 0 0-3.584-.577c-3 0-4.512 1.648-4.512 4.943s1.491 4.943 4.169 4.943a4.484 4.484 0 0 0 1.45-.206v-3.707h-3.2V21.04h6.444v8.486a13.6 13.6 0 0 1-4.894.865 7.3 7.3 0 0 1-5.417-2.038 9.028 9.028 0 0 1-.04-11.369 7.481 7.481 0 0 1 5.6-2.039 16.057 16.057 0 0 1 3.984.473z" fill="#ffd750"/></g></g><g data-name="グループ化 203" fill="#ffd750"><path data-name="パス 341" d="M70.845 42.565v1.856h-9.712v-1.856h3.979v-4.6l-2.921.221-.168-2.605 1.358-.073.048.7 6.6-.454.121 1.843-3.077.234v4.732z"/><path data-name="パス 342" d="M73.183 37.853l1.446-.244.608 3.325-1.475.276zm7.176.143l-.089 1.03a7.613 7.613 0 0 1-4.117 5.427l-.718-1.285a6.341 6.341 0 0 0 3.368-4.263l-.518-.041.08-1.01zm-4.9-.346l1.5-.092.19 3.284-1.5.081z"/><path data-name="パス 343" d="M82.754 37.853l1.446-.244.608 3.325-1.476.276zm7.177.143l-.089 1.03a7.615 7.615 0 0 1-4.118 5.427l-.718-1.285a6.345 6.345 0 0 0 3.369-4.263l-.519-.041.08-1.01zm-4.9-.346l1.495-.092.19 3.284-1.5.081z"/><path data-name="パス 344" d="M92.327 37.853l1.446-.244.608 3.325-1.475.276zm7.176.143l-.089 1.03a7.614 7.614 0 0 1-4.117 5.427l-.718-1.285a6.341 6.341 0 0 0 3.368-4.263l-.518-.041.08-1.01zm-4.9-.346l1.5-.092.19 3.284-1.5.081z"/><path data-name="パス 345" d="M101.898 37.853l1.446-.244.608 3.325-1.476.276zm7.177.143l-.089 1.03a7.615 7.615 0 0 1-4.117 5.427l-.718-1.285a6.343 6.343 0 0 0 3.368-4.263l-.519-.041.08-1.01zm-4.9-.346l1.495-.092.19 3.284-1.5.081z"/><path data-name="パス 346" d="M111.471 37.853l1.446-.244.608 3.325-1.476.276zm7.181.147l-.09 1.03a7.613 7.613 0 0 1-4.117 5.427l-.718-1.285a6.345 6.345 0 0 0 3.369-4.263l-.519-.041.08-1.01zm-4.9-.346l1.5-.092.19 3.284-1.5.081z"/><path data-name="パス 347" d="M130.438 35.939l-3.75 9.341-1.827-.7 2.945-7.031h-3.87a10 10 0 0 1-2.777 4.327l-1.322-1.34a6.969 6.969 0 0 0 2.4-4.511l-.865.037-.048-1.365 2.765-.073c.024.405.036.762.048 1.094l3.918.012-.264-1.462 1.154-.209.288 1.671h.4l-.252-1.462 1.154-.209.336 1.807z"/></g><g data-name="グループ化 208"><g data-name="グループ化 206"><g data-name="グループ化 205"><g data-name="グループ化 204"><path data-name="パス 348" d="M86.424 24.998a5.977 5.977 0 0 1-.038.682 6.356 6.356 0 0 1-12.676-.682c0-.185.006-.376.026-.58a10.109 10.109 0 0 1 .229-1.516c.765-3.582 3.206-8.164 6.1-8.164 3.18 0 5.818 5.538 6.284 9.189a8.136 8.136 0 0 1 .075 1.071z" fill="#ffd750"/></g></g></g><g data-name="グループ化 207"><path data-name="パス 349" d="M86.424 24.998a5.991 5.991 0 0 1-.038.682l-1.95-1.765-2.817 2.549-2.811-2.549-2.817 2.549-2.255-2.046a10.108 10.108 0 0 1 .229-1.516l2.027 1.841 2.817-2.549 2.811 2.549 2.817-2.549 1.912 1.733a8.145 8.145 0 0 1 .075 1.071z" fill="#fff"/></g></g><g data-name="グループ化 213"><g data-name="グループ化 211"><g data-name="グループ化 210"><g data-name="グループ化 209"><path data-name="パス 350" d="M101.583 24.998a6.005 6.005 0 0 1-.038.682 6.356 6.356 0 0 1-12.675-.682c0-.185.006-.376.025-.58a10.117 10.117 0 0 1 .229-1.516c.765-3.582 3.206-8.164 6.1-8.164 3.18 0 5.818 5.538 6.284 9.189a8.145 8.145 0 0 1 .075 1.071z" fill="#ffd750"/></g></g></g><g data-name="グループ化 212"><path data-name="パス 351" d="M101.583 24.998a5.991 5.991 0 0 1-.038.682l-1.95-1.765-2.817 2.549-2.811-2.549-2.817 2.549-2.256-2.045a10.125 10.125 0 0 1 .229-1.516l2.027 1.841 2.817-2.549 2.811 2.549 2.817-2.549 1.912 1.733a8.145 8.145 0 0 1 .076 1.07z" fill="#fff"/></g></g><g data-name="グループ化 218"><g data-name="グループ化 216"><g data-name="グループ化 215"><g data-name="グループ化 214"><path data-name="パス 352" d="M116.793 24.998a6.106 6.106 0 0 1-.038.682 6.356 6.356 0 0 1-12.676-.682c0-.185.006-.376.026-.58a10.046 10.046 0 0 1 .229-1.516c.765-3.582 3.206-8.164 6.1-8.164 3.18 0 5.818 5.538 6.283 9.189a8.057 8.057 0 0 1 .076 1.071z" fill="#ffd750"/></g></g></g><g data-name="グループ化 217"><path data-name="パス 353" d="M116.793 24.998a6.12 6.12 0 0 1-.038.682l-1.95-1.765-2.817 2.549-2.811-2.549-2.817 2.549-2.256-2.045a10.054 10.054 0 0 1 .229-1.516l2.027 1.841 2.817-2.549 2.811 2.549 2.817-2.549 1.911 1.733a8.057 8.057 0 0 1 .077 1.07z" fill="#fff"/></g></g></svg>