<svg xmlns="http://www.w3.org/2000/svg" width="44.662" height="30.385"><g data-name="グループ化 487" fill="#fff"><path data-name="パス 624" d="M22.123 17.393L2.082.04A2.3 2.3 0 0 1 2.521 0h39.616a2.338 2.338 0 0 1 .443.04L22.61 17.322l-.071.071a.294.294 0 0 1-.21.087.286.286 0 0 1-.206-.087z"/><path data-name="パス 625" d="M44.663 2.526V27.86a2.522 2.522 0 0 1-2.525 2.525H2.522A2.521 2.521 0 0 1 0 27.86V2.526a2.486 2.486 0 0 1 .194-.974l20.271 17.54a2.662 2.662 0 0 0 3.733 0l20.271-17.54a2.486 2.486 0 0 1 .194.974z"/></g></svg>