<svg xmlns="http://www.w3.org/2000/svg" viewBox="0 0 170.62 76.27"><defs><style>.cls-1{isolation:isolate}.cls-2{fill:#fff}</style></defs><g id="レイヤー_2" data-name="レイヤー 2"><g id="レイヤー_1-2" data-name="レイヤー 1"><g class="cls-1"><path class="cls-2" d="M10.19 45.14H0V.92A92 92 0 0 1 13.42 0c13 0 19.52 4.82 19.52 14.52 0 10.49-6.16 16-17.87 16a48.14 48.14 0 0 1-4.88-.24zm0-22.57a27.61 27.61 0 0 0 3.84.31c5.86 0 9.21-2.87 9.21-7.75s-3-7.26-9.21-7.26a19.1 19.1 0 0 0-3.84.37z"/></g><g class="cls-1"><path class="cls-2" d="M48.36 22.88c3.49 0 6.17 1 8.11 3s2.89 4.79 2.89 8.36-1 6.39-2.89 8.36-4.62 3-8.11 3-6.18-1-8.11-3-2.9-4.79-2.9-8.36 1-6.38 2.9-8.36 4.62-3 8.11-3zm0 17.94a3.45 3.45 0 0 0 3.11-1.56 9.23 9.23 0 0 0 1.05-5 9.23 9.23 0 0 0-1.05-5 3.45 3.45 0 0 0-3.11-1.55 3.54 3.54 0 0 0-3.15 1.55 9.66 9.66 0 0 0-1 5 9.66 9.66 0 0 0 1 5 3.54 3.54 0 0 0 3.15 1.56zM70.24 54.38h-6.81V23.3h6.47l.1 2.77h.08a8.25 8.25 0 0 1 6.51-3.19c5.21 0 8.57 4.07 8.57 11.34 0 3.53-.8 6.3-2.43 8.32a7.5 7.5 0 0 1-6.14 3A9 9 0 0 1 70.32 43h-.08zm4-26.46a4.23 4.23 0 0 0-2.94 1.18 3.33 3.33 0 0 0-1.26 2.52v5.21a3.44 3.44 0 0 0 1.26 2.56 4.17 4.17 0 0 0 2.94 1.13c2.56 0 4.2-2.1 4.2-6.3s-1.35-6.3-4.17-6.3zM89.22 23.3h6.6V36c0 3.23.8 4.24 2.94 4.24a3.75 3.75 0 0 0 2.69-1.18 3.71 3.71 0 0 0 1.21-2.6V23.3h6.81v21.84H103l-.08-2.77h-.09a8.33 8.33 0 0 1-6.59 3.19c-4.92 0-7-2.43-7-9.11zM123.2 13.64v31.5h-7.14v-31.5zM146.47 24.85c1.55 1.31 2.31 3.49 2.31 6.56v13.73h-6.34l-.09-2.89h-.08a8.27 8.27 0 0 1-6.89 3.31 6.43 6.43 0 0 1-4.79-1.85 6.56 6.56 0 0 1-1.85-4.87c0-5.08 3.78-7.64 11.35-7.64H142v-.55c0-2.14-1-3-3.58-3A31.28 31.28 0 0 0 130 29v-4.86a31.56 31.56 0 0 1 8.7-1.26c3.65 0 6.3.67 7.77 1.97zM142 35.15h-1.89c-3.41 0-5.13 1.05-5.13 3.15a2.28 2.28 0 0 0 2.48 2.43A4.37 4.37 0 0 0 142 36zM161.08 45.14h-7V23.3h6.76v4.2h.16a10.68 10.68 0 0 1 8.82-4.2h.84v5.12h-.84c-5.42 0-8.7 2.9-8.7 7.48z"/></g><g class="cls-1"><path class="cls-2" d="M54.08 69.24a.8.8 0 0 0 .16.49l4.14 5.37a.39.39 0 0 1-.31.64 1.67 1.67 0 0 1-1.32-.64L53.61 71a.2.2 0 0 0-.32 0l-2.91 4.1a1.54 1.54 0 0 1-1.25.64.41.41 0 0 1-.34-.64l3.84-5.35a.85.85 0 0 0 .16-.5v-4.38a.64.64 0 0 1 .64-.64.65.65 0 0 1 .65.64zM65.5 66.12a.38.38 0 0 0-.35.22l-.12.25a1 1 0 0 1-.93.62.45.45 0 0 1-.41-.62l.85-2a1 1 0 0 1 .94-.61.43.43 0 0 1 .4.6v.11a.13.13 0 0 0 .13.18h6.85a.61.61 0 0 1 0 1.21zm7.28 5a2.33 2.33 0 0 0 .07.53l.9 3.45a.45.45 0 0 1-.45.56.75.75 0 0 1-.73-.56l-.69-2.57a7.37 7.37 0 0 1-.26-2v-.25a.28.28 0 0 0-.27-.27h-6.43a.56.56 0 0 1-.57-.57.58.58 0 0 1 .57-.58h6.84a1 1 0 0 1 1 1zm-3-.3a.36.36 0 0 1 .28.59L69 72.83a.32.32 0 0 0 0 .4l1.38 1.53a.36.36 0 0 1-.27.6 1.81 1.81 0 0 1-1.35-.6l-.54-.62a.31.31 0 0 0-.39 0l-.79.67a2.6 2.6 0 0 1-1.64.59.37.37 0 0 1-.22-.6L67 73.22a.27.27 0 0 0 0-.37l-1.12-1.35a.36.36 0 0 1 .26-.61 1.84 1.84 0 0 1 1.35.61l.37.43a.23.23 0 0 0 .35 0l.4-.51a1.58 1.58 0 0 1 1.22-.6zm2.42-3.34a.59.59 0 0 1-.58.57h-5.69a.58.58 0 0 1-.57-.57.57.57 0 0 1 .57-.58h5.74a.58.58 0 0 1 .58.58z"/></g><g class="cls-1"><path class="cls-2" d="M81.57 68.29c1.87-.84 4.62-.79 5.58 1.78a3.54 3.54 0 0 1-.37 3.09 4.51 4.51 0 0 1-3.13 1.77.53.53 0 0 1-.51-.41.52.52 0 0 1 .42-.56 4.83 4.83 0 0 0 1.57-.56 2.59 2.59 0 0 0 .37-4.14 2.45 2.45 0 0 0-1.5-.54.18.18 0 0 0-.16.15 9 9 0 0 1-.43 1.62A13 13 0 0 1 82 73.32a1.52 1.52 0 0 1-1.55.84 1.76 1.76 0 0 1-1.25-1.53 4 4 0 0 1 2.37-4.34zm1.28.67a.09.09 0 0 0-.1-.12 3.48 3.48 0 0 0-2.4 1.85 2.46 2.46 0 0 0-.29 1.75c.16.69.55 1.14 1.1.44A10.17 10.17 0 0 0 82.85 69z"/></g><g class="cls-1"><path class="cls-2" d="M96.69 66.59a.61.61 0 0 1-.6.61H92a.61.61 0 0 1 0-1.2h4.14a.61.61 0 0 1 .55.59zM96.24 75a1 1 0 0 1-1 1h-2.4a1 1 0 0 1-1-1v-2.34a1 1 0 0 1 1-1h2.38a1 1 0 0 1 1 1zM96 68.47a.6.6 0 0 1-.59.59H92.6a.6.6 0 0 1-.58-.59.59.59 0 0 1 .58-.57h2.84a.59.59 0 0 1 .56.57zm0 1.86a.58.58 0 0 1-.57.58H92.6a.58.58 0 1 1 0-1.15h2.86a.58.58 0 0 1 .54.57zm-.17-5.59a.59.59 0 0 1-.57.58h-2.49a.58.58 0 0 1-.58-.58.57.57 0 0 1 .58-.57h2.52a.57.57 0 0 1 .57.57zm-3 9.89a.27.27 0 0 0 .28.28h1.66a.27.27 0 0 0 .27-.28V73a.25.25 0 0 0-.27-.26h-1.58a.26.26 0 0 0-.28.26zm10.6.51a.62.62 0 0 1-.63.61h-4.5a1 1 0 0 1-1-1V69.2a1 1 0 0 1 1-1h2.43a.33.33 0 0 0 .32-.27l.36-2.1a.22.22 0 0 0-.22-.26H98a.63.63 0 0 1 0-1.25h4a.85.85 0 0 1 .83 1l-.58 3.13a1.23 1.23 0 0 1-1.2 1h-2.18a.27.27 0 0 0-.26.27v4.55a.27.27 0 0 0 .26.27h4a.63.63 0 0 1 .64.6zM118.35 71.3a.53.53 0 0 1 0 1h-.74a.3.3 0 0 0-.28.29v.28a1 1 0 0 1-1 1h-2.76a.3.3 0 0 0-.29.28v1.15a.88.88 0 0 1-.9.89H112a.53.53 0 0 1-.53-.53.52.52 0 0 1 .53-.53h.06a.18.18 0 0 0 .16-.17v-.81a.3.3 0 0 0-.28-.28h-3.29a.48.48 0 0 1-.49-.51.48.48 0 0 1 .49-.49h3.29a.3.3 0 0 0 .28-.29.3.3 0 0 0-.28-.29h-4.8a.53.53 0 1 1 0-1h4.8a.3.3 0 0 0 .28-.28.3.3 0 0 0-.28-.28h-3.29a.48.48 0 0 1-.49-.51.48.48 0 0 1 .49-.49h3.29a.3.3 0 0 0 .28-.29v-.2a.3.3 0 0 0-.28-.29h-2.62a1 1 0 0 1-1-1v-.54a1 1 0 0 1 1-1h2.62a.3.3 0 0 0 .28-.28V66a.3.3 0 0 0-.28-.29h-4.38a.51.51 0 0 1-.53-.52.51.51 0 0 1 .53-.52h4.5a.17.17 0 0 0 .16-.17.52.52 0 0 1 .52-.52.51.51 0 0 1 .52.52.18.18 0 0 0 .17.17h4.51a.52.52 0 0 1 .52.52.51.51 0 0 1-.52.52h-4.39a.3.3 0 0 0-.29.29v.14a.3.3 0 0 0 .29.28h2.6a1 1 0 0 1 1 1V68a1 1 0 0 1-1 1h-2.6a.3.3 0 0 0-.29.29v.2a.3.3 0 0 0 .29.29h2.76a1 1 0 0 1 1 1V71a.3.3 0 0 0 .28.28zm-9.09-3.57a.3.3 0 0 0 .29.29h2.38a.3.3 0 0 0 .28-.29v-.13a.29.29 0 0 0-.28-.28h-2.38a.3.3 0 0 0-.29.28zm6.93-.13a.28.28 0 0 0-.28-.28h-2.37a.3.3 0 0 0-.29.28v.13a.3.3 0 0 0 .29.29h2.37a.29.29 0 0 0 .28-.29zm-2.65 3.13a.3.3 0 0 0-.29.28.3.3 0 0 0 .29.28H116a.3.3 0 0 0 .28-.28.3.3 0 0 0-.28-.28zM116 73a.3.3 0 0 0 .28-.29.3.3 0 0 0-.28-.29h-2.48a.3.3 0 0 0-.29.29.3.3 0 0 0 .29.29z"/></g><path id="パス_270" data-name="パス 270" class="cls-2" d="M40 70.62c-.87 0-.87.08-1.74.08h-6.99c-.87 0-.87.06-1.75.06s-.87-.07-1.75-.07-.87.07-1.75.07a.59.59 0 0 1-.6-.57v-.09a.58.58 0 0 1 .59-.55c.88 0 .88-.1 1.75-.1s.87.08 1.74.08h5.23c.87 0 .87.07 1.74.07s.88-.11 1.75-.11.88.09 1.75.09a.57.57 0 0 1 .59.56.55.55 0 0 1-.57.52z"/><path id="パス_271" data-name="パス 271" class="cls-2" d="M144 70.62c-.87 0-.87.08-1.74.08H135.29c-.87 0-.87.06-1.75.06s-.87-.07-1.75-.07-.87.07-1.75.07a.59.59 0 0 1-.6-.57v-.09a.58.58 0 0 1 .59-.55c.88 0 .88-.1 1.75-.1s.87.08 1.74.08h5.23c.87 0 .87.07 1.74.07s.88-.11 1.75-.11.88.09 1.75.09a.57.57 0 0 1 .59.56.55.55 0 0 1-.57.52z"/></g></g></svg>