<svg xmlns="http://www.w3.org/2000/svg" viewBox="0 0 176.38 171.66"><defs><style>.cls-2{isolation:isolate}.cls-3{fill:#ffd750}.cls-4{fill:#1d1d1d}</style></defs><g id="レイヤー_2" data-name="レイヤー 2"><g id="レイヤー_1-2" data-name="レイヤー 1"><ellipse cx="88.19" cy="85.83" rx="88.52" ry="85.44" transform="rotate(-20 88.192 85.839)" fill="#fff"/><g class="cls-2"><path class="cls-3" d="M39.86 96.71l2.5-1.71 1.08 1.62c1.7-2.2.75-4.64-2.13-5.23a7 7 0 0 0-2.93.09c1.17 3.6 2.07 8.84-1.31 11.77a5.09 5.09 0 0 1-3.93 1.2c-3.55-.35-5.7-4-5.42-7.08.29-3.29 2.52-6.09 5.22-7.9l-.94-1.8-5.91 2.15-1.37-3.69 5.32-2c-.38-.64-.73-1.29-1.12-2l3.7-1.92c.42.85.9 1.68 1.37 2.51l4.13-1.52 1.36 3.72L36 86.21c.27.5.55 1 .79 1.52a15.13 15.13 0 0 1 3-.53 16.51 16.51 0 0 1 2.87-6.88l3.52 2.11a16 16 0 0 0-2.44 5.28 7.21 7.21 0 0 1 4.77 5.91 7.9 7.9 0 0 1-5.42 8zm-7.93.93c-.23 3.16 3.18 3.55 3.32.22a12.74 12.74 0 0 0-.7-4.54 6.31 6.31 0 0 0-2.62 4.32zM71.15 73.37l-6.36 2.31a19.3 19.3 0 0 1 .91 3.92 7.65 7.65 0 0 1 1.62 1.05c3.72 2.9 2.83 7.56 2.07 11.94L63.77 92l.43-2.94 1.54.22a10 10 0 0 0-.06-4.2 6 6 0 0 1-1.61 3.08 5.67 5.67 0 0 1-7.25.52 5.26 5.26 0 0 1-2.07-4.11A5.75 5.75 0 0 1 57 80.11a7.9 7.9 0 0 1 4.27-1.59 11.67 11.67 0 0 0-.39-1.41L50.08 81l-1.39-3.81 10.51-3.75c-.37-.7-.73-1.23-1.21-2l3.63-2.19c.64 1.06 1.06 1.74 1.56 2.74l6.6-2.4zm-11.62 10a1.33 1.33 0 0 0-.13 2.09 1.41 1.41 0 0 0 1.84-.24 3.13 3.13 0 0 0 .76-2.57 3.3 3.3 0 0 0-2.47.69zM96.53 64.13l-6.37 2.32a18.51 18.51 0 0 1 .91 3.92 7.65 7.65 0 0 1 1.62 1c3.72 2.89 2.83 7.55 2.07 11.94l-5.61-.6.42-2.94 1.54.21a10 10 0 0 0-.06-4.2 6 6 0 0 1-1.61 3.09 5.66 5.66 0 0 1-7.25.51 5.26 5.26 0 0 1-2.07-4.1 5.77 5.77 0 0 1 2.23-4.46 7.89 7.89 0 0 1 4.28-1.58 13.33 13.33 0 0 0-.4-1.41L75.45 71.8 74.06 68l10.51-3.8c-.36-.7-.73-1.23-1.21-2L87 60c.64 1.06 1.06 1.74 1.57 2.73l6.59-2.4zm-11.63 10a1.32 1.32 0 0 0-.13 2.08 1.41 1.41 0 0 0 1.84-.21 3.16 3.16 0 0 0 .74-2.54 3.27 3.27 0 0 0-2.45.65zM119.07 70.89l.4-2.93 2.07.31a6.68 6.68 0 0 0-.94-4.94 6.16 6.16 0 0 0-3.25-2.47 17.3 17.3 0 0 1-.58 9c-1.32 3.61-4.49 7-8.8 6.28-3.75-.62-5.59-4.49-5.48-7.89a11.54 11.54 0 0 1 1.33-4.94 25.8 25.8 0 0 1-2.69-6.83l4.08-1.11a22.26 22.26 0 0 0 1.6 4.39A13.89 13.89 0 0 1 112 57c-.57-1.57-1.21-3.09-1.95-4.75l3.93-1.74c.85 2 1.65 4 2.35 6a10.43 10.43 0 0 1 7.8 4.49c2.42 3.72 2 7.49 1.14 10.56zM109 63.41a14.61 14.61 0 0 0 3.63 3.42l-2.33 3.46a13.66 13.66 0 0 1-3.52-3c0 .35 0 .68-.06 1.09 0 1.36.49 3.41 2 3.66 2.09.39 3.52-2.09 4-3.54a14 14 0 0 0 .34-7.5 8 8 0 0 0-4.06 2.41z"/></g><g class="cls-2"><path class="cls-4" d="M141 61.45l.94-2L143 60a5.28 5.28 0 0 0-.17-2.85 5.14 5.14 0 0 0-3.15-3.22 5.8 5.8 0 0 0-7.24 4 4.68 4.68 0 0 0 .9 4.18 1.79 1.79 0 0 0 1.74.62 2.22 2.22 0 0 0 1.39-1.17c.68-1.2.6-3-.21-5.07l3-1.19c1.17 2.91 1.13 5.65 0 7.75a5.38 5.38 0 0 1-3.52 2.72 4.89 4.89 0 0 1-4.64-1.51 7.85 7.85 0 0 1-1.67-7 8.69 8.69 0 0 1 4.28-5.4 9 9 0 0 1 7-.79 8.15 8.15 0 0 1 5.15 5.14 7.87 7.87 0 0 1-.93 7.11z"/></g><g class="cls-2"><path class="cls-4" d="M55.26 109.73l1 2.84-8.62 3.14-1-2.84zm2 3.33l1.13 3.12-9.94 3.62-1.14-3.12zm.8 4.1l1 2.74-8.46 3.1-1-2.73zm1.27 3.5l1 2.74-8.44 3.08-1-2.74zm1.41 3.46l2.5 6.87-5.51 2 .31.84-3.33 1.17-2.81-7.71zm-2 3.71l-2.54.93.58 1.6 2.54-.93zM74.4 119c.38 1.18.65 2.17.86 2.9a10.5 10.5 0 0 1 .46 3.48 2.06 2.06 0 0 1-.44 1 4.69 4.69 0 0 1-2.16 1.41c-1.08.51-2.11.91-3.1 1.27a25.12 25.12 0 0 1-2.68.84c-.54.16-1 .23-1.24.3a2.24 2.24 0 0 1-1.54-.27 2.45 2.45 0 0 1-.58-.74 14.21 14.21 0 0 1-1.28-3l-3.34-9.15 8-2.91-1.56-4.29-8.34 3-1.21-3.32 12.2-4.44 4.49 12.35-3.85 1.4-.51-1.39-4 1.47 2.06 5.65a3.72 3.72 0 0 0 .59 1.22c.13.13.39.15.81 0s.7-.2 1.23-.4 1.11-.43 1.48-.59a.94.94 0 0 0 .67-.93A24 24 0 0 0 70.3 120zM96.59 105.6l1.11 3.05 1.37-.5 1 2.64-1.37.5 1.48 4-3.86 1.41-.36-1-4.21 1.53c.64 1.67.76 2.63.39 3.34a3.91 3.91 0 0 1-1.81 1.28c-.4.15-1 .42-1.68.67s-2 .68-3.85 1.26L83.6 121c1.8-.57 3-.93 3.42-1.1.71-.26.71-.26.5-.84l-.07-.18-8.6 3.12-.85-2.34 8.6-3.13-.27-.76-9.44 3.44-1-2.64 9.44-3.44-.28-.76-8.6 3.13-.83-2.28 8.6-3.13-.26-.71-7.79 2.83-1.84-5 7.79-2.84-.25-.68-9.13 3.31-1-2.82 9.18-3.34-.53-1.44 4.26-1.55.53 1.44 9.18-3.34 1 2.81-9.19 3.35.25.68 7.8-2.79 1.84 5-7.79 2.84.26.71zm-13.59.91L79 108l.34.91 3.93-1.43zm8.19-3L87.23 105l.33.92 3.93-1.43zm2.41 5.76l-4.21 1.53.28.76 4.21-1.53zm1.24 3.4l-4.21 1.53.27.76 4.21-1.53z"/></g><path class="cls-4" d="M116.27 90.63A6.86 6.86 0 0 0 114 95a53.39 53.39 0 0 1-2.32 8.61 6 6 0 0 1-3.16.78c-.84 0-2.66 1.65-1.51 2.41 3.66 2.44 8.74-.72 11.84-2.9s6.59-6.15 5.39-10.43a5 5 0 0 0-6-3.79 5.09 5.09 0 0 0-2 .95z"/><path class="cls-4" d="M126.57 86.47a6.81 6.81 0 0 1 4.65 1.59 53.37 53.37 0 0 0 7.65 4.58 6.07 6.07 0 0 0 2.81-1.64c.61-.58 3.06-.66 2.76.69-.93 4.29-6.78 5.55-10.52 6.14-3.91.61-9 .14-11.13-3.76a5 5 0 0 1 1.69-6.9 4.89 4.89 0 0 1 2.09-.7z"/></g></g></svg>