<svg xmlns="http://www.w3.org/2000/svg" width="51.173" height="44.844"><g data-name="グループ化 469"><path data-name="パス 601" d="M43.995 17.393H29.721a2.271 2.271 0 0 0-.339-.432l-4.372-4.372-.67-.67a2.351 2.351 0 0 0-3.318 0l-.667.67-4.374 4.372a2.394 2.394 0 0 0-.342.432H1.754a1.241 1.241 0 0 1-1.157-1.692l2.981-7.673a1.244 1.244 0 0 1 1.16-.792h11.9l5.454-5.455a.831.831 0 0 1 1.173 0l5.455 5.455h12.289a1.244 1.244 0 0 1 1.16.792l2.982 7.673a1.242 1.242 0 0 1-1.156 1.692z" fill="none" stroke="#9d67b1"/><g data-name="グループ化 441" fill="#ffd750"><path data-name="パス 602" d="M23.034 23.628l-.193.193a.229.229 0 0 1-.32 0l-.191-.191a2.523 2.523 0 0 0 .349.024 2.237 2.237 0 0 0 .355-.026z"/><path data-name="パス 603" d="M23.27 19.177v2.333a.4.4 0 0 1-.4.4h-1.692a.4.4 0 1 1 0-.794h1.295V19.18a.4.4 0 0 1 .794 0z"/></g><g data-name="グループ化 442"><path data-name="パス 604" d="M42.187 36.082h-.694v-17.46H27.949a.227.227 0 0 0-.066-.159l-5.042-5.042a.227.227 0 0 0-.32 0l-.667.67-3.307 3.3-1.067 1.067a.216.216 0 0 0-.066.159H4.109v17.465h-.935a.8.8 0 0 0-.794.8v1.557a.8.8 0 0 0 .794.8h39.013a.8.8 0 0 0 .8-.8v-1.557a.8.8 0 0 0-.8-.8zm-31.586-4.7H7.622v-2.979h2.979zm0-4.7H7.622v-2.979h2.979zm5.56 4.7h-2.979v-2.979h2.979zm0-4.7h-2.979v-2.979h2.979zm8.978 9.4h-4.914v-7.035a1.973 1.973 0 0 1 1.975-1.973h.967a1.971 1.971 0 0 1 1.973 1.973zm.034-14.587a2.508 2.508 0 0 1-2.137 2.137l-.052.018-.653-.016a2.518 2.518 0 1 1 2.868-2.494 2.251 2.251 0 0 1-.027.351zm7.247 9.884h-2.981V28.4h2.979zm0-4.7h-2.981V23.7h2.979zm5.561 4.7h-2.979V28.4h2.979zm0-4.7h-2.979V23.7h2.979z" fill="none" stroke="#9d67b1"/></g><g data-name="グループ化 443"><path data-name="パス 607" d="M23.27 19.177v2.333a.4.4 0 0 1-.4.4h-1.692a.4.4 0 1 1 0-.794h1.295V19.18a.4.4 0 0 1 .794 0z" fill="#fff"/></g><g data-name="グループ化 444"><path data-name="パス 608" d="M23.27 19.177v2.333a.4.4 0 0 1-.4.4h-1.692a.4.4 0 1 1 0-.794h1.295V19.18a.4.4 0 0 1 .794 0z" fill="#9d67b1"/></g><g data-name="グループ化 445"><path data-name="パス 609" d="M50.259 15.084a.914.914 0 1 1 .914-.914.915.915 0 0 1-.914.914zm0-1.232a.318.318 0 1 0 .318.318.318.318 0 0 0-.318-.321z" fill="#9d67b1"/></g><g data-name="グループ化 446"><path data-name="パス 610" d="M1.427 23.729a.914.914 0 1 1 .914-.914.915.915 0 0 1-.914.914zm0-1.232a.318.318 0 1 0 .318.318.319.319 0 0 0-.318-.313z" fill="#9d67b1"/></g><g data-name="グループ化 447"><path data-name="パス 611" d="M31.526 44.846a1.118 1.118 0 1 1 1.117-1.118 1.119 1.119 0 0 1-1.117 1.118zm0-1.666a.548.548 0 1 0 .548.548.549.549 0 0 0-.548-.55z" fill="#9d67b1"/></g><g data-name="グループ化 448"><path data-name="パス 612" d="M5.851 1.421a.241.241 0 0 1-.23-.169L5.328.313a.241.241 0 1 1 .46-.143l.293.939a.241.241 0 0 1-.23.313z" fill="#9d67b1"/></g><g data-name="グループ化 449"><path data-name="パス 613" d="M6.663 4.028a.241.241 0 0 1-.23-.169L6.14 2.92a.241.241 0 1 1 .46-.143l.293.939a.241.241 0 0 1-.158.3.233.233 0 0 1-.072.012z" fill="#9d67b1"/></g><g data-name="グループ化 450"><path data-name="パス 614" d="M4.312 2.813a.241.241 0 0 1-.072-.471l.939-.293a.241.241 0 0 1 .143.46l-.939.293a.242.242 0 0 1-.071.011z" fill="#9d67b1"/></g><g data-name="グループ化 451"><path data-name="パス 615" d="M6.9 2.007a.241.241 0 0 1-.072-.471l.939-.293a.241.241 0 0 1 .143.46l-.939.293a.242.242 0 0 1-.071.011z" fill="#9d67b1"/></g><g data-name="グループ化 452"><path data-name="パス 616" d="M17.728 41.754a.172.172 0 0 1-.081-.02.174.174 0 0 1-.073-.235l.33-.629a.174.174 0 1 1 .308.162l-.331.629a.173.173 0 0 1-.153.093z" fill="#9d67b1"/></g><g data-name="グループ化 453"><path data-name="パス 617" d="M16.812 43.501a.172.172 0 0 1-.081-.02.174.174 0 0 1-.073-.235l.33-.629a.174.174 0 0 1 .308.162l-.33.629a.174.174 0 0 1-.154.093z" fill="#9d67b1"/></g><g data-name="グループ化 454"><path data-name="パス 618" d="M16.859 42.009a.173.173 0 0 1-.081-.02l-.629-.33a.174.174 0 0 1 .161-.308l.629.33a.174.174 0 0 1-.081.328z" fill="#9d67b1"/></g><g data-name="グループ化 455"><path data-name="パス 619" d="M18.595 42.919a.17.17 0 0 1-.08-.02l-.63-.33a.174.174 0 1 1 .161-.308l.629.33a.174.174 0 0 1-.081.328z" fill="#9d67b1"/></g><path data-name="パス 620" d="M45.846 2.641a.091.091 0 0 1-.075-.04l-.517-.751a.091.091 0 0 1 0-.1l.517-.751a.092.092 0 0 1 .075-.039.09.09 0 0 1 .075.039l.517.751a.09.09 0 0 1 0 .1l-.517.751a.09.09 0 0 1-.075.04zm-.406-.842l.406.59.406-.59-.406-.59z" fill="#9d67b1"/></g></svg>