<svg data-name="グループ化 92" xmlns="http://www.w3.org/2000/svg" width="31.279" height="33.179"><g data-name="グループ化 91"><g data-name="グループ化 89"><path data-name="パス 195" d="M14.599 27.531C7.71 27.531 1.563 22.907.25 16.299-1.232 8.84 4.002 1.636 11.917.239A15.222 15.222 0 0 1 22.854 2.41a13.641 13.641 0 0 1 6.1 8.824c1.482 7.459-3.752 14.664-11.667 16.06a15.56 15.56 0 0 1-2.688.237zm.032-25.562a13.38 13.38 0 0 0-2.329.205c-6.782 1.2-11.267 7.371-10 13.763s7.823 10.621 14.6 9.422 11.267-7.371 10-13.763a11.691 11.691 0 0 0-5.231-7.562 12.967 12.967 0 0 0-7.04-2.065z" fill="#fff"/></g><g data-name="グループ化 90"><path data-name="パス 196" d="M30.083 33.178a1.19 1.19 0 0 1-.863-.368l-6.55-6.935a1.195 1.195 0 0 1 1.725-1.653l6.55 6.935a1.194 1.194 0 0 1-.863 2.021z" fill="#fff"/></g></g></svg>