<svg data-name="グループ化 92" xmlns="http://www.w3.org/2000/svg" width="24.399" height="25.881"><g data-name="グループ化 91"><g data-name="グループ化 89"><path data-name="パス 195" d="M11.388 21.476A11.254 11.254 0 0 1 .195 12.714C-.961 6.896 3.122 1.276 9.295.186a11.874 11.874 0 0 1 8.531 1.694 10.641 10.641 0 0 1 4.762 6.883c1.156 5.818-2.927 11.438-9.1 12.528a12.134 12.134 0 0 1-2.1.185zm.025-19.94a10.436 10.436 0 0 0-1.817.16 9.26 9.26 0 0 0-7.8 10.736 9.752 9.752 0 0 0 11.392 7.349 9.26 9.26 0 0 0 7.8-10.736 9.12 9.12 0 0 0-4.08-5.9 10.114 10.114 0 0 0-5.495-1.609z"/></g><g data-name="グループ化 90"><path data-name="パス 196" d="M23.467 25.88a.928.928 0 0 1-.673-.287l-5.109-5.41a.932.932 0 0 1 1.346-1.289l5.109 5.41a.932.932 0 0 1-.673 1.576z"/></g></g></svg>