<svg xmlns="http://www.w3.org/2000/svg" viewBox="0 0 336.44 141.57"><g data-name="レイヤー 2"><g data-name="レイヤー 1"><path d="M213.74 138.77c-20.48 1.8-41.05 3.59-61.57 2.43s-41.17-5.4-59.32-15c-16.35-8.69-31.1-23-34.26-41.25C56 69.73 62 53.86 72.26 42.41s24.48-18.85 39.21-23.35 30.12-6.3 45.41-8.07l45.5-5.29c11-1.28 22.53-2.5 32.9 1.43 12.55 4.77 21.22 16.26 28 27.82 10.6 18 18.63 39.63 12.09 59.43-5 15.19-18 26.69-32.5 33.53s-30.45 9.63-46.22 12.36" fill="#e2e2e2"/><path d="M147.9 116.82c-11.62-3.58-19.46-15.35-20.88-27.43s2.69-24.23 8.8-34.74c6.55-11.24 16.56-21.73 29.44-23.54 4.67-.65 9.42-.12 14.13-.29 9.79-.37 19.16-3.76 28.75-5.75s20.16-2.44 28.55 2.61c6.63 4 11 10.88 14.45 17.79 4.38 8.65 7.87 17.93 8.46 27.61s-2 19.82-8.51 27c-6.77 7.45-16.8 10.87-26.37 14-12.23 4-24.75 8-37.61 7.77-15.54-.35-24.77 1.85-38.89-4.66" fill="#fff"/><path d="M109.61 115.33c6.66 3.59 25.64 9.88 33.19 10.33s15-1.57 22.31-3.56l17.39-4.76c8.84-2.42 4.15-5.12 10.4-11.83 6.68-7.18 8.53-17.84 7.15-27.56s-5.59-18.78-9.76-27.67c-2.5-5.34-5.32-11-10.49-13.87-5-2.71-11-2.21-16.56-1.15s-11.18 2.6-16.76 1.71c-6.5-1-12.24-5.29-18.81-5.77-5.6-.41-11 2-16 4.38-8.78 4.17-17.73 8.77-23.88 16.29-7.25 8.86-9.72 21.25-7 32.36A43.12 43.12 0 0 0 101 110.8s7 3.66 8.61 4.53z" fill="#d18a4a"/><path d="M117.31 51.15a4.19 4.19 0 0 1 2.76-3.57 7.17 7.17 0 0 1 5 .76c1.9.91 3.69 2.31 4.13 4.51a3.54 3.54 0 0 1-.66 2.87c-1.64 2.05-4.58 1.22-6.87.29-1.14-.46-1.39 0-3.42-1.39s-1.04-1.41-.94-3.47zm-17.06 40.61c0-.63.87-1.32 1.84-1.49a7.31 7.31 0 0 1 3.33.32c1.27.38 2.46 1 2.75 1.88a1.06 1.06 0 0 1-.43 1.19c-1.09.85-3.06.51-4.58.12a7.08 7.08 0 0 1-2.29-.58c-1.35-.59-.69-.58-.62-1.44zm65.94-21a1.84 1.84 0 0 1 1.39-1.49 4.31 4.31 0 0 1 2.53.32 3.1 3.1 0 0 1 2.08 1.88 1.3 1.3 0 0 1-.33 1.19c-.83.85-2.31.51-3.47.12a4.3 4.3 0 0 1-1.72-.58c-1.03-.59-.52-.58-.48-1.44zm.35 32.18a2.25 2.25 0 0 1-1.52-1.62 2.37 2.37 0 0 1 1-1.86 3.43 3.43 0 0 1 2.79-.95 2.31 2.31 0 0 1 1.39.69c.87 1 .11 2-.63 2.75-.37.38-.14.56-1.11 1.14s-.87.2-1.92-.15zm-35.4-20.61a4.51 4.51 0 0 1 .94-3c.58-.4 1.18 0 1.71.64a6.29 6.29 0 0 1 1.41 3.75 6.56 6.56 0 0 1-.23 2.39c-.56 1.71-1.56 1-2.34.25-.39-.39-.48 0-1.17-1.16s-.35-1.2-.32-2.87z" fill="#ffd157"/><path d="M308.79 43.27c-.71-.54-1.17-1-1.7-1.28a13.23 13.23 0 0 1-6.26-8.84c-.24-1.09-.64-2.15-.89-3.24-.42-1.84-.76-3.66.35-5.43a5.78 5.78 0 0 0 .42-1.81 15 15 0 0 1 1.67-4.51c1.24-2.15 2-4.54 3.07-6.81.56-1.25 1.2-2.46 1.84-3.67a6.93 6.93 0 0 1 5.36-3.61c1.83-.32 3.62-1 5.46-1.16 4-.35 8-.17 11.39 2.34a44 44 0 0 1 3.88 3.49 3.13 3.13 0 0 1 .88 1.19c1.15 3.53 2.64 7 2 10.86-.52 3.32-1 6.65-1.66 9.94-1 4.91-4 8.53-8.05 11.21-2.28 1.49-4.75 2.69-7.22 4.07-.55 4.4-2.57 8.29-3.85 12.43-1.06 3.45-2.07 6.92-3.1 10.38a1.75 1.75 0 0 0-.14.73c.41 2.48-.75 4.62-1.48 6.85-1 3.08-2.07 6.14-3 9.24-.36 1.18-.21 2.55-.72 3.64-1.65 3.51-2.31 7.35-3.73 10.9-2.05 5.11-3.16 10.46-4.69 15.71-1.08 3.68-1.93 7.42-3.59 10.94a9.08 9.08 0 0 1-3.78 4 2.51 2.51 0 0 1-3.91-1.46 13.21 13.21 0 0 1-.55-7c.38-1.95 1-3.86 1.52-5.77 1.19-4.32 2.51-8.6 3.55-13 1.22-5.09 2.91-10.06 4.3-15.11 1-3.72 1.82-7.5 2.85-11.23 1.39-5 2.88-10.07 4.37-15.09 1.7-5.74 3.46-11.46 5.17-17.2a11.1 11.1 0 0 0 .24-1.7zM13.71 27.06c.7-1.37.32-2.74.15-4.07-.64-5.06-1.29-10.12-2-15.16a4.63 4.63 0 0 1 2.04-4.49 2.39 2.39 0 0 1 1.73-.44c2.29.52 4.16 1.51 4.69 4.16.56 2.81 1.26 5.6 2.05 8.36.55 1.9 1.35 3.74 2.08 5.59a1.86 1.86 0 0 0 1.65 1.32 2.61 2.61 0 0 0 2.36-1.54 4.52 4.52 0 0 0 .26-1.79c-.18-2.49-.42-5-.67-7.44a5.23 5.23 0 0 0-.34-1.06c-1.52-4.23-1.54-5.12-.22-9.81A3.19 3.19 0 0 1 31 .39a4.31 4.31 0 0 1 2.46 3.13c.64 2.8 1.21 5.61 1.69 8.43.55 3.2.68 6.49 1.52 9.6a53 53 0 0 1 1.49 6.9c.38 3 .62 5.95 1 8.92.41 3.24-.85 5.87-2.9 8.18-1.08 1.21-2.32 2.25-3.72 3.59-.14 2.21.57 4.6 1.09 7 1.65 7.68 4.1 15.15 6 22.76 1.22 5 2.93 9.78 4 14.75 2.1 9.86 5.42 19.44 6.81 29.46.29 2.09.67 4.17 1 6.26.37 2.28-1.12 3.78-2.49 5.16-1.22 1.24-4 .75-4.95-.77-.77-1.23-1.81-2.33-1.91-4a6.16 6.16 0 0 0-1.13-2.72 17.61 17.61 0 0 1-2.96-7.86 50.41 50.41 0 0 0-1.64-6.87 25 25 0 0 0-1.19-3.92 4.42 4.42 0 0 1 .2-4c-.86-1.34-1.91-2.56-1.82-4.35a8.43 8.43 0 0 0-.73-3.26 92.79 92.79 0 0 1-3.42-13c-.66-3-1.58-6-2.48-9-1.07-3.55-1.57-7.27-2.34-10.91-.67-3.15-1.31-6.3-2.1-9.42-.59-2.34-1.21-2.78-3.65-2.92-5.6-.36-9.16-3.37-11.14-8.53-.63-1.63-1.65-3.15-2-4.82C4.94 34.64 3.45 31.37 2.3 28a57.19 57.19 0 0 1-1.63-7.28c-.1-.46.16-1 .17-1.47a28.59 28.59 0 0 0-.08-2.93C.53 14 .26 11.63 0 9.28v-.37c.09-2 .72-3.14 1.85-3.3a4 4 0 0 1 4.4 2.07 13.13 13.13 0 0 1 1 4c.35 4.67 2.23 8.94 3.28 13.43.39 1.57 1.66 1.98 3.18 1.95z" fill="#e2e1e1"/></g></g></svg>