<svg xmlns="http://www.w3.org/2000/svg" viewBox="0 0 385.45 236.9"><defs><style>.cls-4{stroke:#fff}.cls-7{fill:#eda411}.cls-4{stroke-miterlimit:10}.cls-6{fill:#9cc556}.cls-4{fill:none;stroke-width:1.99px}.cls-5{fill:#fff}</style></defs><g id="レイヤー_2" data-name="レイヤー 2"><g id="レイヤー_1-2" data-name="レイヤー 1"><path d="M173 27c-4.6-4.9-9.5-10.7-17-14.1-6.4-2.9-13.4-6.9-21.2-8.4-7-1.3-14.9-1.3-22.7-1.3a115.78 115.78 0 0 0-22.5 2.4c-7.9 1.6-14.7 5.1-21.1 8a58.17 58.17 0 0 0-18.2 12.6c-5.7 5.9-11.6 12.3-11.6 19.6s3.7 15.8 9.4 21.7a62.59 62.59 0 0 0 19 13.4c6.4 2.8 14.9 2 22.7 3.5 7 1.3 14.4 5 22.2 5s15.5-2.1 22.5-3.5c3-.6 6.1-1.1 9.1-1.6A111.39 111.39 0 0 0 158.07 96s-4.2-8.8-3.9-14.3a27.73 27.73 0 0 0 2.6-1c7.5-3.4 12.3-10.4 17-15.3 5.6-5.9 9.6-12.3 9.6-19.6S178.57 32.85 173 27z" stroke-linejoin="round" stroke="#fff" fill="#de6a7c" stroke-linecap="round" stroke-width="2"/><path d="M255.17 63c-16.3-17-33.8-23.1-42.5-18.3-.6.4-7.6 3.6-9.7 4.8a14.38 14.38 0 0 0-2.8 2.7h0c-1.3 1.4-75.6 122.7-87.7 152.3h0a10.23 10.23 0 0 0-1.4 6.7 10.5 10.5 0 0 0 11.3 9.1h0a.6.6 0 0 1 .4-.1c2.7-.4 2.6-.8 7-3.2 6.3-3.3 15.3-8.8 23.4-13.7h0c-5.9 6.2-7.3 12-7.3 12h0c-.3.8-.4 1.2-.7 2-2.9 8-1.5 16.2 3.5 18s11.4-3.1 14.4-11.1c-.1-.2.2-.3.2-.3l.1.4s13.6-43.9 92-98.8c2.2-1.4 4-2.3 6-3.7h0a21.25 21.25 0 0 0 3-3c2-2.1 4.7-6.4 7.6-12.8 3.9-9.15-.6-26.25-16.8-43z" stroke-width="2.55" stroke-miterlimit="10" fill="#eda411" stroke="#fff"/><path d="M268.47 65.35c7.7-5.4 25.3-15.1 43-17.8l-1.6-10.8a85.39 85.39 0 0 0-13.2 2.8c8.7-5 18.4-9.3 28-11.3l-1.9-9.2a39 39 0 0 1 5.8.5s.2-.1.3.2l1.9-10.7c-.2.1-.2.1-.3-.2-22.9-4.1-48.2 11.2-63.2 24.6 6.8-7.1 20.6-16.9 33.2-21.5l-3.8-10.4c-27.6 10.1-46 33.6-51.5 43.6m38.7-11.3c7.5-5.2 20.1-12 28.8-13.8-8.5 2.95-21.3 9.5-28.8 13.8z" stroke-width="3.11" fill="#9cc556" stroke-linejoin="round" stroke="#fff"/><path class="cls-4" d="M232.77 133.25c-5.5-4.9-11.2-7.7-12.6-6s1.8 6.9 7.5 11.8a25 25 0 0 0 3.4 2.7c1.9-1.6 3.9-3 5.8-4.6a51.62 51.62 0 0 0-4.1-3.9z"/><ellipse class="cls-4" cx="194.77" cy="127.16" rx="2.5" ry="8.9" transform="rotate(-48.66 194.78 127.161)"/><path class="cls-4" d="M187.47 86.35c7.4 7 14.7 11 16.4 9.2s-3-8.9-10.3-15.7a50.26 50.26 0 0 0-7.1-5.9c-1.3 2.1-2.6 4.5-4.1 6.9a28.43 28.43 0 0 0 5.1 5.5zm-56.9 91.5c3.7 3.3 7.3 4.9 8.3 4 .9-1.1-1.3-4.5-5-7.8a25.4 25.4 0 0 0-3.6-2.8c-.8 1.3-1.4 2.6-2.2 4.2a7.09 7.09 0 0 0 2.5 2.4zm74.7-15.6c-3.7-3.3-7.3-4.9-8.3-4-.9 1.1 1.3 4.5 5 7.8a3.33 3.33 0 0 0 1.1.9c1.1-1.2 2.4-2.4 3.5-3.6-.5-.6-.8-1-1.3-1.1zM157.47 136c3.7 3.3 7.3 4.9 8.3 4 .9-1.1-1.3-4.5-5-7.8a25.22 25.22 0 0 0-5.7-3.9c-.7 1.1-1.2 1.9-1.8 2.9a33.34 33.34 0 0 0 4.2 4.8z"/><path class="cls-5" d="M26.17 121.15c-6.5 0-15.8-2.9-22.1-16.8-7.5-16.4-4.2-39.8 6.3-44.7a11.48 11.48 0 0 1 5-1.1c12.1 0 27.5 13.5 32.9 25.6 6.8 15.1 2.7 27.9-11 34.2a24.65 24.65 0 0 1-11.1 2.8z"/><path class="cls-5" d="M64.17 200.45l-41.9-106.7a3.2 3.2 0 0 1 1.6-4.1 3.35 3.35 0 0 1 4.4 1.5l53.1 101.7c.1.1.1.4.3.5l6.5 20a3.34 3.34 0 0 1-1.8 4l-6.7 3a3.14 3.14 0 0 1-4.1-1.4l-11-17.8c-.2-.15-.2-.5-.4-.7z"/><path class="cls-6" d="M25.67 91.85l-1.1.5 42.1 106.8c.1.3.3.5.4.8l8.9 14.6a5 5 0 0 0 6 1.9h.1a4.43 4.43 0 0 0 2.5-5.7l-5.2-16.1a2.61 2.61 0 0 0-.3-.8z"/><path class="cls-6" d="M45.67 85.45c7.1 15.6 1.2 25.8-9.7 30.8s-22.5 2.6-29.6-12.8c-7.1-15.6-3.5-37.3 4.9-41.3s27.5 7.7 34.4 23.3z"/><path class="cls-5" d="M282.17 216.15l7.8-19.4a1.27 1.27 0 0 1 .4-.7l55.8-90.4a4 4 0 0 1 5.3-1.4 4.2 4.2 0 0 1 1.7 5.3l-45.9 95.9c-.1.1-.1.4-.3.5l-12 17.1a3.91 3.91 0 0 1-5 1.2l-5.9-3.1a4.09 4.09 0 0 1-1.9-5z"/><path class="cls-5" d="M332.67 129.55l-5.8-19.9 7.5-14.1 34.5 18.4-7.4 13.9-21.1 5.5-7.7-3.8z"/><path class="cls-5" d="M334 101.85a2.6 2.6 0 0 1-1-3.6l23.6-37.8a3.25 3.25 0 0 1 4-1.1l.5.3a3.19 3.19 0 0 1 1.4 3.9l-18 40.8a2.76 2.76 0 0 1-3.6 1.3zm22.77 11.9a2.6 2.6 0 0 1-1-3.6l23.6-37.8a3.25 3.25 0 0 1 4-1.1l.5.3a3.19 3.19 0 0 1 1.4 3.9l-17.7 40.6a2.76 2.76 0 0 1-3.6 1.3z"/><path class="cls-5" d="M350 110.05a2.64 2.64 0 0 1-1-3.6L374.37 64a3.09 3.09 0 0 1 3.9-1.1l.7.4a3 3 0 0 1 1.3 3.9l-21 44.9a2.44 2.44 0 0 1-3.5 1.1z"/><path class="cls-5" d="M342.37 106.05a2.6 2.6 0 0 1-1-3.6l25.2-42.6a3.09 3.09 0 0 1 3.9-1.1l.7.4a3 3 0 0 1 1.3 3.9l-21 44.7a2.84 2.84 0 0 1-3.7 1.3z"/><path class="cls-6" d="M359.57 125.75l-18.9 4.8-5.5-2.9-5.3-17.6 5.6-10.7 29.7 15.7-5.6 10.7z"/><path class="cls-6" d="M348.57 109.35a1.14 1.14 0 0 1 .4 1.6l-44.2 92.9a1.79 1.79 0 0 1-.5.7l-9.8 14.1a4.65 4.65 0 0 1-6.3 1.4A4.74 4.74 0 0 1 286 214l6.4-16a1.52 1.52 0 0 1 .4-.8l54.1-87.6a1.44 1.44 0 0 1 1.67-.25zm-13.1-10l23.6-37.8.9.5-17.9 40.9-6.6-3.6zm22.8 12l23.8-37.7.9.4-17.8 41-6.9-3.7zm-6.9-3.5l25.4-42.6 1 .6-21 44.7-5.4-2.7zm-7.5-4l25.2-42.6.9.5-20.8 44.8-5.3-2.7z"/><path class="cls-5" d="M363.87 117.35l-29.8-15.5 1.7-.8 27.6 14.8.5 1.5zm-286-2.1c-.7 0-1 .3-1 1v1.8h2.9v-2.8zm-1 8.6v2c0 .7.3 1 1 1h1.9v-3zM74 164.35c-5.4 0-9.1-3.6-9.1-8.9a8.1 8.1 0 0 1 2.2-5.7 9.13 9.13 0 0 1-1.2-4.7c0-4.8 3.1-8.3 7.3-8.3h6.2v2.3h6.8v-2.3h6.3c4.2 0 7.3 3.6 7.3 8.4a9.28 9.28 0 0 1-.9 4.2 9 9 0 0 1 1.7 5.5 7.9 7.9 0 0 1-6.8 8c-2.8.5-15.93 1.5-19.8 1.5z"/><path class="cls-5" d="M86.27 138.85v2.7h6.3c1.3 0 2.3 1.4 2.3 3.4s-1 3.4-2.3 3.4h-6.3v3h2c.8-.1 1-.1 2.8-.3H92c2.4 0 3.7 1.3 3.7 3.8A2.9 2.9 0 0 1 93 158c-2.4.5-15.2 1.5-18.9 1.5-2.6 0-4.1-1.4-4.1-3.9a3.08 3.08 0 0 1 2-3.1 7 7 0 0 1 2.6-.2c.6 0 1.4 0 4.9-.2v-3.7h-6.2c-1.3 0-2.3-1.4-2.3-3.4s.9-3.3 2.3-3.3h6.2V139"/><path class="cls-5" d="M76 143.85c-6 0-9.8-3.8-9.8-9.8v-14.3c0-6 3.8-9.8 9.8-9.8h13.8c6 0 9.8 3.8 9.8 9.8v14.3c0 6-3.8 9.8-9.8 9.8z"/><path class="cls-5" d="M79.47 138.85H76q-4.8 0-4.8-4.8v-14.3q0-4.8 4.8-4.8h13.8q4.8 0 4.8 4.8v14.3q0 4.8-4.8 4.8H79.47z"/><path class="cls-5" d="M81 129.05v-12.8h7a5.89 5.89 0 0 1 6 6v6.8z"/><path class="cls-5" d="M89 122.25c0-.7-.3-1-1-1h-2v2.8h3zm-8 15.6v-13h13v7a5.89 5.89 0 0 1-6 6z"/><path class="cls-5" d="M86 132.85h2c.7 0 1-.3 1-1v-2h-3zm16.77 31.8a20.17 20.17 0 0 1-6.3-.7l-.2-.1c-3.4-1.2-5.4-4.3-5.4-8.2 0-4.1 2.4-7.3 5.9-8.2v-4c-4.1-.5-6.9-4-6.9-8.6 0-5 3.4-8.7 8-8.7h4.2v7.3h7.7v-7.3h3.4c8.3 0 9.2 6.1 9.2 8.8a54.13 54.13 0 0 1-1.2 10.8c-.9 3.9-3.7 6.4-7.5 6.6v1.7c.2 7.1-3.5 10.6-10.9 10.6z"/><path class="cls-5" d="M110 131.25h3.4c3.1 0 4.2 1 4.2 3.8a63.82 63.82 0 0 1-1 9.8q-.6 2.7-3 2.7c-2.1 0-3.7-1.4-3.7-3.1a2.8 2.8 0 0 1 .2-1.1 22.51 22.51 0 0 0 .7-3.8c0-.5-.3-.8-1.1-.8h-.8v15.6c0 4.1-1.5 5.5-6.1 5.5a17.86 17.86 0 0 1-4.8-.4c-1.4-.5-2.1-1.7-2.1-3.5 0-2.1 1.3-3.5 3.1-3.5h.7c.3 0 .7.1 1 .1.8 0 1.1-.3 1.1-1.1v-12.6h-3.9c-1.8 0-3-1.4-3-3.6s1.2-3.7 3-3.7h4.2"/><path class="cls-5" d="M100.07 136.25l-3.1-3.1c-.1-.1-.8-.8-1.6-1.5a8.23 8.23 0 0 1-3-6.3v-.7a8.69 8.69 0 0 1-2.4-6.2c0-4.8 3.2-8.4 7.5-8.4h15.8c5.2 0 8.9 3.4 8.9 8.3a11.49 11.49 0 0 1-2.5 6.9 46.05 46.05 0 0 1-4.7 5.8l.4 5.3-15.3-.1z"/><path class="cls-5" d="M102.17 131.25l-1.7-1.7a21.58 21.58 0 0 0-1.9-1.7 3.15 3.15 0 0 1 1.8-5.7 4 4 0 0 1 2.4.9c.1.1 1 .9 2.5 2.3 1.7-1.7 2.7-2.9 2.7-3.3 0-.2-.3-.3-.8-.3h-9.8c-1.5 0-2.5-1.4-2.5-3.3 0-2.1 1-3.4 2.5-3.4h15.8c2.4 0 3.9 1.2 3.9 3.3a6.08 6.08 0 0 1-1.6 4 53.11 53.11 0 0 1-6.4 7.3 3.1 3.1 0 0 1 .7 1.7l-7.6-.1zm45.4 33.8c-4.8 0-7.7-2.5-8.5-5.4-4 2.3-8.3 4.2-11.2 4.2a8.71 8.71 0 0 1-8.6-8.8 8.37 8.37 0 0 1 2.6-6.1 8.56 8.56 0 0 1-2.1-5.8 8 8 0 0 1 4.6-7.6c-.1-.1-.3-.2-.4-.3a8.83 8.83 0 0 1-2.9-6.6 7.81 7.81 0 0 1 5.6-7.8c1.1-.3 1.5-.3 5.3-.3 14.3-.1 22.8-.5 31.2-1.2 1.2-.1 1.7-.2 2.1-.2a7.72 7.72 0 0 1 8 8 8.23 8.23 0 0 1-2.3 5.9v.1a8.33 8.33 0 0 1-.3 2.2 8.05 8.05 0 0 1 5 7.8 8.67 8.67 0 0 1-2 5.6 8 8 0 0 1 2.5 5.9 8.77 8.77 0 0 1-8.7 9 11.8 11.8 0 0 1-4.9-1.2 55.9 55.9 0 0 1-6.5-3.2c-.6 3.1-3.6 5.8-8.5 5.8z"/><path class="cls-5" d="M151.37 157.75c0 1.4-1.5 2.3-3.8 2.3s-3.8-.9-3.8-2.3v-7.4c-4.9 4.2-13 8.5-15.9 8.5a3.7 3.7 0 0 1-3.6-3.8 3.24 3.24 0 0 1 1.6-2.9 13 13 0 0 1 2.1-.8 58.35 58.35 0 0 0 11.4-5.1H127c-1.3 0-2.2-1.2-2.2-3s.9-3.1 2.2-3.1h16.9a2.24 2.24 0 0 1 1.5-1.5 2.15 2.15 0 0 1-1-1.4 14.05 14.05 0 0 0-1.1-2.2 2.7 2.7 0 0 1-.6-1.7 2.34 2.34 0 0 1 .7-1.7l-3.9.1h-3.4c1.7 2 2.4 3.3 2.4 4.5 0 1.9-1.9 3.5-4 3.5a2.88 2.88 0 0 1-2.7-1.6l-1.2-1.8a5.92 5.92 0 0 1-.4-.6 2.31 2.31 0 0 1-.7-1.8 3.21 3.21 0 0 1 1-2.2c-2.4 0-2.7-.1-3.2-.5a3.54 3.54 0 0 1-1-2.7 2.78 2.78 0 0 1 2-2.9c.5-.1.5-.1 4-.1 14.8-.1 23.3-.5 31.7-1.2 1.2-.1 1.4-.1 1.6-.1a2.78 2.78 0 0 1 3 3 3 3 0 0 1-1.7 3 7.19 7.19 0 0 1-1.8.2h-.4a3.17 3.17 0 0 1 1.7 2.7c0 1.5-1.1 3.5-3.4 5.9a5.3 5.3 0 0 1-1.2 1h7.2c1.2 0 2.2 1.4 2.2 3.1s-.9 3-2.2 3h-12.5a59.28 59.28 0 0 0 12.4 5.2q2.7.9 2.7 3.3a3.77 3.77 0 0 1-3.7 4 5.75 5.75 0 0 1-2.9-.8 53.39 53.39 0 0 1-13.2-7.8v7.7z"/><path class="cls-5" d="M139.67 130c-3.3 0-5.6-1.1-7-2.7h-5.6c-4.1 0-7.3-3.5-7.3-8s3.2-8 7.3-8h5.6a9.6 9.6 0 0 1 6.9-2.6 9.85 9.85 0 0 1 7 2.6h2.1a10.59 10.59 0 0 1 13.9 0h5.7c4.1 0 7.4 3.5 7.4 8s-3.2 8-7.4 8h-6.2a11 11 0 0 1-12.9 0h-2.5c-1.4 1.55-3.67 2.7-7 2.7z"/><path class="cls-5" d="M136 115.75c0-1.3 1.6-2.2 3.7-2.2s3.8.9 3.8 2.2v.4h8.4v-.4c0-1.3 1.6-2.3 3.8-2.3s3.7.9 3.7 2.3v.4h8.9c1.4 0 2.4 1.3 2.4 3s-1 3-2.4 3h-8.9c-.1 1.4-1.5 2.1-3.7 2.1s-3.7-.8-3.8-2.1h-8.4v.4c0 1.4-1.5 2.3-3.8 2.3s-3.7-.9-3.7-2.3v-.4h-8.8c-1.3 0-2.3-1.3-2.3-3s1-3 2.3-3h8.8v-.4zm11.27 29.3l-.5-2.3-9.3-3 8-4.9a1.38 1.38 0 0 0-.3-.4l-6.5-7.7 12.2-.6 3.3-.1c2-.1 3.3-.1 4.6-.2l11.3-.9-6.4 8.9a36.92 36.92 0 0 1-2.9 4c-.1.1-.1.2-.2.2a2.84 2.84 0 0 0 .4-1.3 1.75 1.75 0 0 0-.5-1.3l-2.1 9.5h-11.1v.1z"/><path class="cls-5" d="M158.37 140.05a3.69 3.69 0 0 1-2.4-3.2 2.92 2.92 0 0 1 1-2.2 40.65 40.65 0 0 0 2.5-3.5l.2-.3h-.6c-2 .1-3.8.2-8 .4l-2.1.1a10.39 10.39 0 0 1 2.1 4.6 2.82 2.82 0 0 1-1.7 2.5c1.1.3 1.8.9 1.9 1.7h7.1zm31 22.8a9.07 9.07 0 0 1-9-9.2 9.37 9.37 0 0 1 3.4-7.2c1.6-1.3 2.5-1.5 5.8-2.2 5.4-1.1 9-3.4 11.3-7a19.93 19.93 0 0 0 2.4-6.1h-22.1c-4.5 0-8-3.8-8-8.7s3.5-8.7 8-8.7h29.7c10.4 0 11.6 7.3 11.6 10.5a59.15 59.15 0 0 1-2.8 16.1c-2.9 8.1-8.5 14.2-16.6 18.3-3.4 1.8-10.4 4.2-13.7 4.2z"/><path class="cls-5" d="M211.07 118.85c4.6 0 6.6 1.7 6.6 5.5a55.82 55.82 0 0 1-2.5 14.4c-2.4 6.9-7.2 12.1-14.2 15.5-3.4 1.7-9.5 3.6-11.5 3.6a4.12 4.12 0 0 1-4-4.2 4.22 4.22 0 0 1 1.6-3.3c.7-.6.7-.6 3.7-1.2 6.7-1.4 11.5-4.4 14.5-9.2a26.3 26.3 0 0 0 3.7-12.4c0-1.1-.4-1.4-1.8-1.4h-25.8c-1.7 0-3-1.6-3-3.7s1.3-3.7 3-3.7l29.7.1zm49.7 19.2h-9.5v-7h-7.4v7h-9.2c-4.4 0-7.9-3.7-7.9-8.5s3.5-8.5 7.9-8.5h26.1c4.4 0 7.9 3.7 7.9 8.5s-3.4 8.5-7.9 8.5z"/><path class="cls-5" d="M243.87 133.05h-9.2c-1.7 0-2.9-1.5-2.9-3.5s1.2-3.5 2.9-3.5h26.1c1.7 0 2.9 1.5 2.9 3.5s-1.2 3.5-2.9 3.5h-9.5"/><path class="cls-5" d="M232.57 161.35c-4.5 0-7.9-3.7-7.9-8.5s3.4-8.5 7.9-8.5h6.3v-16.2h17.4v16.2h6.6c4.5 0 7.9 3.8 7.9 8.6s-3.5 8.5-7.9 8.5h-30.3z"/><path class="cls-5" d="M251.27 133.05v16.3h11.6c1.7 0 2.9 1.5 2.9 3.6s-1.2 3.5-2.9 3.5h-30.4c-1.7 0-2.9-1.5-2.9-3.5s1.2-3.5 2.9-3.5h11.3v-16.2h7.5zm29.4 29.1c-4.8 0-8.9-4.4-8.9-9.7a8.85 8.85 0 0 1 2.8-6.5l.1-.1a10.49 10.49 0 0 1 3.4-2 45.63 45.63 0 0 0 16.4-13.5h-13.1c-4.6 0-8-3.7-8-8.7s3.5-8.7 8-8.7h24.4c6.7 0 11.6 4.3 11.6 10.2a14.37 14.37 0 0 1-1.5 6 60.28 60.28 0 0 1-7.3 12l-6.3-4.7a63.33 63.33 0 0 1-4.9 5.6l5.7 5.5a68.33 68.33 0 0 1-17.5 13.2 10.19 10.19 0 0 1-4.9 1.4zm26.4-39l.3.6a.76.76 0 0 0 .1-.4.52.52 0 0 0-.4-.2z"/><path class="cls-5" d="M299.67 144.05a60.56 60.56 0 0 1-16.2 12.2 5.41 5.41 0 0 1-2.7.8c-2.1 0-3.9-2.2-3.9-4.7a3.63 3.63 0 0 1 1.2-2.8c.4-.4.5-.4 2.2-1.2a50.4 50.4 0 0 0 21.2-19.4 14.15 14.15 0 0 0 1.5-3q0-.6-1.2-.6h-20.2c-1.7 0-3-1.5-3-3.7s1.3-3.7 3-3.7H306c4 0 6.6 2.1 6.6 5.2a9.3 9.3 0 0 1-1.1 4 61.25 61.25 0 0 1-6.7 11"/><path class="cls-5" d="M313.87 161.65c-3.6 0-5.4-1.7-7.1-3.6-3-3.2-7.3-7.5-10.5-10.3l-3.7-3.3 3.3-3.7c1.4-1.6 3.9-4.5 4.7-5.6l3.1-4.2 4.1 3.2a135.52 135.52 0 0 1 13.1 11.6 9.11 9.11 0 0 1 2.6 6.3 9.8 9.8 0 0 1-9.6 9.6z"/><path class="cls-5" d="M304.67 138.15a129.38 129.38 0 0 1 12.5 11.1 4.05 4.05 0 0 1 1.3 2.9 4.78 4.78 0 0 1-4.6 4.5c-1.4 0-2-.3-3.4-1.9-2.9-3.2-7.4-7.6-10.9-10.7a69.88 69.88 0 0 0 5.1-5.9z"/><path class="cls-6" d="M86.27 138.85v2.7h6.3c1.3 0 2.3 1.4 2.3 3.4s-1 3.4-2.3 3.4h-6.3v3h2c.8-.1 1-.1 2.8-.3H92c2.4 0 3.7 1.3 3.7 3.8A2.9 2.9 0 0 1 93 158c-2.4.5-15.2 1.5-18.9 1.5-2.6 0-4.1-1.4-4.1-3.9a3.08 3.08 0 0 1 2-3.1 7 7 0 0 1 2.6-.2c.6 0 1.4 0 4.9-.2v-3.7h-6.2c-1.3 0-2.3-1.4-2.3-3.4s.9-3.3 2.3-3.3h6.2V139"/><path class="cls-7" d="M79.47 138.85H76q-4.8 0-4.8-4.8v-14.3q0-4.8 4.8-4.8h13.8q4.8 0 4.8 4.8v14.3q0 4.8-4.8 4.8H79.47z"/><path class="cls-5" d="M89 122.25c0-.7-.3-1-1-1h-2v2.8h3zm-3 10.6h2c.7 0 1-.3 1-1v-2h-3zm-9.23-8.8h3v-2.8h-2c-.7 0-1 .3-1 1zm3 5.8h-3v2c0 .7.3 1 1 1h2z"/><path class="cls-7" d="M110 131.25h3.4c3.1 0 4.2 1 4.2 3.8a63.82 63.82 0 0 1-1 9.8q-.6 2.7-3 2.7c-2.1 0-3.7-1.4-3.7-3.1a2.8 2.8 0 0 1 .2-1.1 22.51 22.51 0 0 0 .7-3.8c0-.5-.3-.8-1.1-.8h-.8v15.6c0 4.1-1.5 5.5-6.1 5.5a17.86 17.86 0 0 1-4.8-.4c-1.4-.5-2.1-1.7-2.1-3.5 0-2.1 1.3-3.5 3.1-3.5h.7c.3 0 .7.1 1 .1.8 0 1.1-.3 1.1-1.1v-12.6h-3.9c-1.8 0-3-1.4-3-3.6s1.2-3.7 3-3.7h4.2"/><path class="cls-6" d="M102.17 131.25l-1.7-1.7a21.58 21.58 0 0 0-1.9-1.7 3.15 3.15 0 0 1 1.8-5.7 4 4 0 0 1 2.4.9c.1.1 1 .9 2.5 2.3 1.7-1.7 2.7-2.9 2.7-3.3 0-.2-.3-.3-.8-.3h-9.8c-1.5 0-2.5-1.4-2.5-3.3 0-2.1 1-3.4 2.5-3.4h15.8c2.4 0 3.9 1.2 3.9 3.3a6.08 6.08 0 0 1-1.6 4 53.11 53.11 0 0 1-6.4 7.3 3.1 3.1 0 0 1 .7 1.7l-7.6-.1zm33.83-15.5c0-1.3 1.6-2.2 3.7-2.2s3.8.9 3.8 2.2v.4h8.4v-.4c0-1.3 1.6-2.3 3.8-2.3s3.7.9 3.7 2.3v.4h8.9c1.4 0 2.4 1.3 2.4 3s-1 3-2.4 3h-8.9c-.1 1.4-1.5 2.1-3.7 2.1s-3.7-.8-3.8-2.1h-8.4v.4c0 1.4-1.5 2.3-3.8 2.3s-3.7-.9-3.7-2.3v-.4h-8.8c-1.3 0-2.3-1.3-2.3-3s1-3 2.3-3h8.8v-.4z"/><path class="cls-7" d="M145.27 138.45a2.46 2.46 0 0 0-1.5 1.5h-16.9c-1.3 0-2.2 1.3-2.2 3.1s.9 3 2.2 3h12.4a55.81 55.81 0 0 1-11.4 5.1 5.8 5.8 0 0 0-2.1.8 3.36 3.36 0 0 0-1.6 2.9 3.7 3.7 0 0 0 3.6 3.8c2.8 0 10.9-4.3 15.9-8.5v7.4c0 1.4 1.5 2.3 3.8 2.3s3.8-.9 3.8-2.3V150a57.3 57.3 0 0 0 13.2 7.8 7.44 7.44 0 0 0 2.9.8 3.71 3.71 0 0 0 3.7-4c0-1.7-.9-2.7-2.7-3.3a72.37 72.37 0 0 1-12.4-5.2h12.7c1.2 0 2.2-1.3 2.2-3s-.9-3.1-2.2-3.1h-7.2a3.31 3.31 0 0 0 1.2-1c2.3-2.4 3.4-4.4 3.4-5.9a2.88 2.88 0 0 0-1.7-2.7h.4a7.19 7.19 0 0 0 1.8-.2 3.15 3.15 0 0 0 1.7-3 2.78 2.78 0 0 0-3-3c-.2 0-.4 0-1.6.1-8.4.7-16.9 1.1-31.7 1.2-3.5 0-3.5 0-4 .1a2.86 2.86 0 0 0-2 2.9 3.54 3.54 0 0 0 1 2.7c.5.4.8.5 3.2.5a3.21 3.21 0 0 0-1 2.2 2.59 2.59 0 0 0 .7 1.8 6.13 6.13 0 0 1 .4.6l1.2 1.8a2.88 2.88 0 0 0 2.7 1.6c2.1 0 4-1.7 4-3.5 0-1.2-.7-2.5-2.4-4.5h3.4l3.9-.1a2.34 2.34 0 0 0-.7 1.7 2.7 2.7 0 0 0 .6 1.7 10.71 10.71 0 0 1 1.1 2.2 3.8 3.8 0 0 0 1.2 1.3m4.1-.1a3 3 0 0 0 1.7-2.5 10.89 10.89 0 0 0-2.1-4.6l2.1-.1c4.3-.2 6-.2 8-.4h.6l-.2.3a29.32 29.32 0 0 1-2.5 3.5 2.92 2.92 0 0 0-1 2.2 3.69 3.69 0 0 0 2.4 3.2h-7.1c-.1-.7-.8-1.3-1.9-1.6m61.7-19.55c4.6 0 6.6 1.7 6.6 5.5a55.82 55.82 0 0 1-2.5 14.4c-2.4 6.9-7.2 12.1-14.2 15.5-3.4 1.7-9.5 3.6-11.5 3.6a4.12 4.12 0 0 1-4-4.2 4.22 4.22 0 0 1 1.6-3.3c.7-.6.7-.6 3.7-1.2 6.7-1.4 11.5-4.4 14.5-9.2a26.3 26.3 0 0 0 3.7-12.4c0-1.1-.4-1.4-1.8-1.4h-25.8c-1.7 0-3-1.6-3-3.7s1.3-3.7 3-3.7l29.7.1z"/><path class="cls-6" d="M243.87 133.05h-9.2c-1.7 0-2.9-1.5-2.9-3.5s1.2-3.5 2.9-3.5h26.1c1.7 0 2.9 1.5 2.9 3.5s-1.2 3.5-2.9 3.5h-9.5"/><path class="cls-7" d="M251.27 133.05v16.3h11.6c1.7 0 2.9 1.5 2.9 3.6s-1.2 3.5-2.9 3.5h-30.4c-1.7 0-2.9-1.5-2.9-3.5s1.2-3.5 2.9-3.5h11.3v-16.2h7.5zm48.4 11a60.56 60.56 0 0 1-16.2 12.2 5.41 5.41 0 0 1-2.7.8c-2.1 0-3.9-2.2-3.9-4.7a3.63 3.63 0 0 1 1.2-2.8c.4-.4.5-.4 2.2-1.2a50.4 50.4 0 0 0 21.2-19.4 14.15 14.15 0 0 0 1.5-3q0-.6-1.2-.6h-20.2c-1.7 0-3-1.5-3-3.7s1.3-3.7 3-3.7H306c4 0 6.6 2.1 6.6 5.2a9.3 9.3 0 0 1-1.1 4 61.25 61.25 0 0 1-6.7 11"/><path class="cls-6" d="M304.67 138.15a129.38 129.38 0 0 1 12.5 11.1 4.05 4.05 0 0 1 1.3 2.9 4.78 4.78 0 0 1-4.6 4.5c-1.4 0-2-.3-3.4-1.9-2.9-3.2-7.4-7.6-10.9-10.7a69.88 69.88 0 0 0 5.1-5.9z"/><text transform="translate(82.25 55.86)" style="isolation:isolate" font-size="22" font-family="TBUDRGoStd-Bold-83pv-RKSJ-H,TBUDRGothic Std" fill="#fff">訳<tspan x="22" y="0" letter-spacing="-.05em">あり</tspan></text></g></g></svg>