<svg xmlns="http://www.w3.org/2000/svg" viewBox="0 0 278 278"><g data-name="レイヤー 2"><g data-name="レイヤー 1"><circle cx="139" cy="139" r="139" fill="#389638"/><path d="M63.2 81.36H63c-1.23 0-2.45-1.77-2.45-2.92a.82.82 0 0 1 .68-.89c1.77-.34 3.47-.81 6.8-1.43a54 54 0 0 1 9.59-.81c11.76 0 17.2 4.15 17.2 11 0 8-5.37 12.51-13.67 14.21a65.91 65.91 0 0 1-11.15 1.1c-1.43 0-2.51 0-2.85-.48v14.56c0 3 .2 6.32.2 7.88 0 .48-.48.68-1.16.68-1.29 0-3.12-.75-3.12-1.9s.13-4.08.13-6.73zm4 18.09a1.3 1.3 0 0 1 1-.48 96.88 96.88 0 0 0 11.35-1.63c7.07-1.63 11.22-5 11.22-10.61 0-5.92-5.24-7.82-13.26-7.82a43.32 43.32 0 0 0-10.33 1.36zm50.67-8.84c7.69 0 13.06 6 13.06 16.25 0 8.63-5.65 17.74-16.12 17.74-9 0-14.21-5.78-14.21-15.16 0-8.09 6.26-16.66 8.09-16.66a1.2 1.2 0 0 1 1.09.68 12.84 12.84 0 0 1 8.09-2.85zm9.32 16.25c0-7.62-3.47-12.85-9.73-12.85-7.61 0-13.12 8.22-13.12 15.36 0 7.55 4 11.76 10.47 11.76 6.67 0 12.38-6.39 12.38-14.27zM140.86 79c0-1.7.88-2.79 2.58-2.79s3.2 2 3.2 3.74a2.39 2.39 0 0 1-2.52 2.65c-1.7-.02-3.26-1.99-3.26-3.6zM142 98.49c0-1.29-.21-5.71-.21-7.27 0-.41.41-.55 1-.55 1.23 0 3.06.75 3.06 1.77s-.13 4.42-.13 6v17.89c0 .81.2 5.64.2 7.2 0 .41-.41.55-1 .55-1.22 0-3.06-.75-3.06-1.77s.14-5 .14-6zm40.67 5.03c0-5.37-1.15-9.38-6.25-9.38a13.12 13.12 0 0 0-12.51 9.79c-1.09 3.61-1 8.5-1.09 12.45v1c0 2.51.2 4.89.2 6.25 0 .41-.47.61-1 .61-1.22 0-3-.74-3-1.83s.14-5 .14-6V98.7c0-1.29-.21-5.71-.21-7.28 0-.41.48-.61 1-.61 1.23 0 3 .75 3 1.84s-.07 4.55-.07 6.46a15.52 15.52 0 0 1 13.53-8.5c8.63 0 9.93 7.14 9.93 12.64v13.13c0 .81.2 5.64.2 7.2 0 .41-.48.61-1 .61-1.22 0-3-.74-3-1.83s.13-4.42.13-6zm31.56 13.94a2.62 2.62 0 0 1 1.29-.54.57.57 0 0 1 .61.61c0 1.43-4.76 7.07-9.25 7.07-4.69 0-6-2.85-6-8.56v-21.9h-.27c-2 .07-4.35.27-4.35.27-1.16 0-2.11-1.56-2.11-2.51a.61.61 0 0 1 .68-.68h6.05v-3.61c0-1.29-.14-5.71-.14-7.27 0-.41.41-.61 1-.61 1.16 0 2.93.74 2.93 1.83s-.14 4.42-.14 6V91l2-.06c1.63-.07 4.22-.34 5.17-.41h.07c1.08 0 2 1.49 2 2.45 0 .47-.21.81-.68.81-1 0-4.08 0-5.85.07l-2.79.14v22.16c0 3.81.55 4.76 2.59 4.76s4.35-1.29 6.73-3.19z" fill="#fff"/><path d="M136.83 169.16a31.55 31.55 0 0 1-8.93 3.19 1.73 1.73 0 0 1-.75.1c-1.79 0-4-1.22-4-2.26 0-.47.28-.84 1-1.12a47.52 47.52 0 0 0 11.37-6.4c.76-.56 2.73-3.28 4.14-3.28s4.6 1.78 4.6 3.66c0 1.5-.56 3.95-.56 6.67v46c0 2.54.09 8 .19 10.52 0 .66-.85.94-2 .94-2.16 0-5.26-1-5.26-2.63s.19-6.29.19-8.27z" fill="#fffb55"/></g></g></svg>