<svg xmlns="http://www.w3.org/2000/svg" viewBox="0 0 563.09 538.47"><defs><style>.cls-2{fill:#de6a7c}.cls-3{fill:#fff}.cls-5{fill:#72a030}</style></defs><g id="レイヤー_2" data-name="レイヤー 2"><g id="レイヤー_1-2" data-name="レイヤー 1"><path fill="#534741" d="M70.44 143.45h310.69v261.23H70.44z"/><path class="cls-2" d="M17.88 382.49h412.33v99.08H17.88z"/><path class="cls-2" d="M423 398.21a4.89 4.89 0 0 1-3.46-8.34l44.24-44.24a4.89 4.89 0 0 1 3.46-1.44h44.24a4.89 4.89 0 1 1 0 9.78h-42.26l-42.81 42.81a4.87 4.87 0 0 1-3.41 1.43zm26.01-238.01H0l63.85-96.6H384.3l64.71 96.6z"/><path class="cls-3" d="M108.59 68.81h25.57l-29.41 84.69H56.17l52.42-84.69zm69.04 0l-26.85 84.69h47.73l7.67-84.69h-28.55zm92.89 0l27.7 84.69H250.5l-7.25-84.69h27.27zm44.32 0l30.26 84.69h46.02l-50.71-84.69h-25.57zm57.69 112.96a22.15 22.15 0 0 1-22.13-22.12v-.42h44.22a2.88 2.88 0 0 1 0 .42 22.15 22.15 0 0 1-22.09 22.12z"/><path class="cls-2" d="M76.7 181.77a22.15 22.15 0 0 0 22.13-22.12v-.42h54.37v.42a22.13 22.13 0 0 0 44.25 0v-.42h54.35v.42a22.13 22.13 0 0 0 44.25 0v-.42h54.38v.42a22.13 22.13 0 0 0 44.26 0 2.88 2.88 0 0 0 0-.42H449v.42a27.17 27.17 0 0 1-51.83 11.41 27.16 27.16 0 0 1-49.3 0 27.16 27.16 0 0 1-49.3 0 27.17 27.17 0 0 1-49.32 0 27.16 27.16 0 0 1-49.3 0 27.16 27.16 0 0 1-49.3 0 27.17 27.17 0 0 1-49.31 0 27.16 27.16 0 0 1-49.3 0A27.18 27.18 0 0 1 .21 159.65v-.42h54.36v.42a22.15 22.15 0 0 0 22.13 22.12z"/><path class="cls-3" d="M273.92 181.77a22.14 22.14 0 0 1-22.12-22.12v-.42H296v.42a22.14 22.14 0 0 1-22.08 22.12zm-98.61 0a22.15 22.15 0 0 1-22.13-22.12v-.42h44.23v.42a22.14 22.14 0 0 1-22.1 22.12zm-76.48-22.12a22.13 22.13 0 0 1-44.26 0v-.42h44.25c0 .14.01.27.01.42z"/><path d="M.24 158.88v.35H0z" fill="#1b1464"/><circle class="cls-3" cx="111.41" cy="479.94" r="55.8"/><path class="cls-2" d="M111.41 538.47a58.53 58.53 0 1 1 58.53-58.53 58.6 58.6 0 0 1-58.53 58.53zm0-111.6a53.07 53.07 0 1 0 53.07 53.07 53.13 53.13 0 0 0-53.07-53.07z"/><circle class="cls-3" cx="111.41" cy="479.94" r="39.62"/><path class="cls-2" d="M111.41 522.29a42.36 42.36 0 1 1 42.36-42.35 42.4 42.4 0 0 1-42.36 42.35zm0-79.24a36.89 36.89 0 1 0 36.89 36.89 36.93 36.93 0 0 0-36.89-36.89z"/><circle class="cls-2" cx="111.41" cy="479.94" r="20.14"/><circle class="cls-3" cx="336.69" cy="479.94" r="55.8"/><path class="cls-2" d="M336.69 538.47a58.53 58.53 0 1 1 58.52-58.53 58.59 58.59 0 0 1-58.52 58.53zm0-111.6a53.07 53.07 0 1 0 53.06 53.07 53.13 53.13 0 0 0-53.06-53.07z"/><circle class="cls-3" cx="336.69" cy="479.94" r="39.62"/><path class="cls-2" d="M336.69 522.29A42.36 42.36 0 1 1 379 479.94a42.4 42.4 0 0 1-42.31 42.35zm0-79.24a36.89 36.89 0 1 0 36.89 36.89 36.94 36.94 0 0 0-36.89-36.89z"/><circle class="cls-2" cx="336.69" cy="479.94" r="20.14"/><path class="cls-3" d="M154.27 268.2a3.64 3.64 0 0 1-1 1.55 2.34 2.34 0 0 1-.66 1.18 2.43 2.43 0 0 1-.89 1l-.29.44a.94.94 0 0 1-.81.44l-.37.74h-.52l-.36.66-.6.22-.44.52-.37.29a2.66 2.66 0 0 0-1.84.66 5.35 5.35 0 0 1-2 .37 4.65 4.65 0 0 1-2.07-.51c-.78-.05-1.18-.18-1.18-.37l-1-.15-.22-.22-.44-.89-.81-.66a3.27 3.27 0 0 1-.88-1.77 8.94 8.94 0 0 1-1-2.79l-.74-1.18v-.66l-.52-2.21.08-.89-.44-2.28.22-1.84-.37-.52-.75 1.87c-.93 1-1.48 1.66-1.65 1.88a.78.78 0 0 1-.63.33 1.14 1.14 0 0 1-.3-.07l-.44.81a.42.42 0 0 0-.07.29c0 .3.17.47.51.52a12.18 12.18 0 0 0-.73 1 3.43 3.43 0 0 1-.52.81l-.22-.37-.15 1a3.86 3.86 0 0 0-1.32 2.21q-.74 1-2.28 2.73l-1 1c-.25 0-.37.05-.37.15v.14a3.24 3.24 0 0 1-1.55 1.62l-.88 1.11h-.52l-1.76.66a2.69 2.69 0 0 1-2.73-1.91l-.07-.81-.44-1v-.81l-.59-2.14v-.66l-.44-.74.22-2.28v-2.58l-.37-.81.59-1.4c-.1-.39-.25-1-.44-1.91l.22-.66.22-2.14-.59-1.55.15-1.25-.23-.66c0-.15-.22-.61-.51-1.4l-.52.29-1 1.18-.89.81-1.76 2.21-.15.81-1.25 1.33-.52 1-.51.59A2.77 2.77 0 0 1 107 263l-.07 1a8 8 0 0 0-.92 1.18 3.75 3.75 0 0 1-.66.85 4.94 4.94 0 0 0-.63.48l-.88 1.25a1.85 1.85 0 0 1-1 1.77v.47a7.09 7.09 0 0 1-1.2 1.18l-.07-.15-.22 1c-.41 0-.78.47-1.13 1.42l-.22.3a2.09 2.09 0 0 1-1.27 1.79l-1.05 1a5 5 0 0 1-1.57.59c-1.3 0-2.14-1.06-2.54-3.17l-.3-1.63a1 1 0 0 1-.08-.44 2 2 0 0 1 .3-1l-.3-1.41v-2.36a3.58 3.58 0 0 1 .52-1.92c-.15-1-.22-1.62-.22-1.77v-1.33c.19-.34.44-.78.73-1.33l-.55-.44a5 5 0 0 1-.18-.66 3.77 3.77 0 0 1 1-1.78l-.52-1.4.3-.88-.44-2.14.14-1-.51-1.62.22-1.11-.52-1.33c1-1.92 2-2.88 3.1-2.88a2.43 2.43 0 0 1 1.65.74l.14.74a2.12 2.12 0 0 1 1.23 2 10.77 10.77 0 0 0-.23 1.55l-.29-.07.66 1.25-.57.59-.09.29.59 3.39-.15 2.87-.22.52.3 1.18a1.22 1.22 0 0 1 .22.73 1.69 1.69 0 0 1-.59 1.18 3.57 3.57 0 0 1-.37 1.7l.22 2.2v.89l.07-.15.45-.66 1-1.84h.22c.29 0 .61-.47 1-1.4l.51-1.4a4.75 4.75 0 0 1 1.11-1.4l.29-1.32.88-1.33.3-1a6.58 6.58 0 0 0 .73-.52l.08-.22a21.33 21.33 0 0 1 1.62-1.55l.44-.22.15-.73.37-.22a2.72 2.72 0 0 1 1.84-2.07l-.3-.22.3-.14a.31.31 0 0 1-.08-.22 1.15 1.15 0 0 1 .15-.45l1.18-.51.22-1.18h.81a3.15 3.15 0 0 1 .15-.52l1.47-1.17a6.23 6.23 0 0 1 1.4-.3 8.09 8.09 0 0 1 2.43.52l.74 1 .29.15.37.88 1 1.41v1l.66.73v1.11a7.55 7.55 0 0 1 .81 3l-.22.88.44 1.26-.81.81.3 1.63-.08.44-.07.37a6.11 6.11 0 0 0-.15 1.1 6.36 6.36 0 0 0 .37 1.48l-.22.81.22 1-.22.22c.1.69.25 1.84.44 3.47v.19l2.32-2.61.73-1.4c.19-.29.5-.76.94-1.39v-.15a2.61 2.61 0 0 1 1-1.62c0-.3.24-.67.73-1.11l.59-.37a3.35 3.35 0 0 1 1.55-2.06l.37-1 .66-.88.74-.74a3.32 3.32 0 0 0 1-1.62l.59-.88.29-1.11.81-.44.81-1 .81-1.77c-.19 0-.29-.05-.29-.15l.15-.29.55-.44.61-1.17a9.4 9.4 0 0 1 1.39-.48l.29.15 1.31.08 1.16.51 1 1.18.22 1-.07.81-.37.3-.81 1.54-.37 1.7a1.65 1.65 0 0 1 .44 1.32 1.84 1.84 0 0 0-.22 1l-.22.59v1.18a4.13 4.13 0 0 1-.08.95l-.29.37.37.52-.59.66c.29 0 .44.32.44 1a2.31 2.31 0 0 1 .15.59v2.06c0 .1.32 1.1 1 3l.14.74.81.88.45 1 .44.22.29.44.37.08.66.14.37-.07h.22a3.78 3.78 0 0 0 1.77-.59 3.81 3.81 0 0 1 1.55-1.55 4.45 4.45 0 0 1 .88-1.39l1.25-.89.44-.88a2.31 2.31 0 0 1 1.26-.37 4.3 4.3 0 0 1 1.76.44 4.33 4.33 0 0 1 .48 2.17zm27.33 2.65a3.64 3.64 0 0 1-1.33 2.21 4.52 4.52 0 0 1-1.1 1.92l-.45.07-.81 1.4-1.32.22-1.4.88-.74 1.33h-.81a5.74 5.74 0 0 1-1.32.38l-.44.58h-.67a2.37 2.37 0 0 0-1.84 1.25l-1-.89h-.88a3.34 3.34 0 0 1-1.62-.36h-1.26l-.58-.37c-1.87-.29-3.05-1-3.54-2.12v-.22l-.88-.43-.44-1.24-.89-.59v-1.1l-.88-3.21v-2.63l.44-1.16v-1.54l.37-1.17-.08-.51.52-.87-.15.14a3.12 3.12 0 0 1 .37-1.4v-.36l-.22-1.77a2.87 2.87 0 0 1 1.1-2.21 1 1 0 0 0 .08-.44 6.13 6.13 0 0 0-.26-1.22 5.77 5.77 0 0 1-.26-1.29 4.45 4.45 0 0 1 .44-1.84 1.93 1.93 0 0 0 1.7.89h.22a2.14 2.14 0 0 1 .66-.67 9.24 9.24 0 0 1 1.62-3.09l.3-.29a8.69 8.69 0 0 1 .44-1.7h.59l.14-.37.59-.14a5.61 5.61 0 0 1 .48-.7 16.17 16.17 0 0 1 1.59-.92 3 3 0 0 1 .88-1 5.62 5.62 0 0 1 .74-.3l.29-.44a11.7 11.7 0 0 1 2.5-.66 2.24 2.24 0 0 1 1.11.29l.37-.07.51.3a11.38 11.38 0 0 0 1.77 1.1l1.25 1v.29a4.51 4.51 0 0 1 1.7 3.76l-.22.74.22 2.42-.67.45-.73 1.91-1.4 1.55-.08 1.18a36.32 36.32 0 0 1-4.34 2.72 2.27 2.27 0 0 1-2.06 1h-.22l-1.4.89h-1.18l-1.77.73-1.32-.66h-.15a16.34 16.34 0 0 0-.3 1.78l-.59.44-.07.89-.44 1.26c.1 1.19.15 2 .15 2.3l-.25.22a11.82 11.82 0 0 1-.06 1.41.66.66 0 0 1-.06.22v.22a1.1 1.1 0 0 0 .59 1 1.49 1.49 0 0 0 .73 1.11l.52.44 1.62.45v.22l.59.15h2.5l1.48-.22.73-.51.44-.15.74-1.09.37-.07 1.84-.58a2.51 2.51 0 0 1 1-.88l.22-.36a1.89 1.89 0 0 0 1.69-1.53 3.61 3.61 0 0 1 2.65-1h.3a4.63 4.63 0 0 1 1.33 2.63zm-7.29-21.21a4 4 0 0 0-.22-.88l-.37-.08-.15.08h-.3a.59.59 0 0 1-.29.07.53.53 0 0 1-.22-.07h-.22l-.74.51-.66.08-.37.15-1.25 1.61-.81.59-1.18 2.07-.66.44a4.18 4.18 0 0 1-1 2.13l-.3.52a3.4 3.4 0 0 1 1.84-.52l.52-.22.22-.66 1 .07.59-.88h.44l.81.29.37-1.1h.52V253l1-.22.22-.22.15-.67 1-1.39a2.37 2.37 0 0 0 .06-.86zm39.47 21.21l-.88 1-.81 1.92-.59.44-.52 1-1.47.15-1 1h-1.47l-.89.73-.81-.22-.95.22v.59l-2.73-.22h-1.18l-.88.52-.74-.45c.49-.05.89-.07 1.18-.07-.39 0-1.57.11-3.53.22l-.22-.11-.59-.11-1 .52a9.52 9.52 0 0 0-1.62-.43c-1.08-.06-1.79-.09-2.14-.09h-.58a2.78 2.78 0 0 0-1.11-.22 3.28 3.28 0 0 0-1.18.22l-1-.66-.59-.14a2.72 2.72 0 0 1-.81-.22c-1.82-.2-2.72-1.7-2.72-4.53v-.65l1.4-1 1.76-.66 1.33.66h1v.22a2.33 2.33 0 0 1 1.18 1.18l.59.07v1l1 .22.22.15 9.42-.59 2.28-.37h.23l.14-.37 1-.14.15-.22a9.15 9.15 0 0 0 2.87-.89l.08-.36a3.24 3.24 0 0 1-.3-.52l-.36.07-1-.73h-.67l-.36-.52.22-.29-.81.14-.59-.58h-.74a5.36 5.36 0 0 1-1.91-.37h-.67l-.51-.22-1 .36-.59-.66h-.22l-1-.81-2.29-.88-.73-.59-2.8-.52-.3-.51-1.97-1.37-1.1-2.43-.89-1.25-.29-3.83.29-.44a5.26 5.26 0 0 1 1.18-3 1.83 1.83 0 0 0 1.11-1.69l1.1-.22a2.9 2.9 0 0 1 1.18-1.11l1.1-.88 4.64-1.77.81-.22 1.48-.15 2.43-.66 4.64.29.14.37a3.63 3.63 0 0 1 1.48 1.18v.37l1.18.74-.52 1.76-.15.67a2 2 0 0 1-2.06 1.84 2.14 2.14 0 0 1-2-1.25v-.22h-.86l-1 .28-1-.73-.52.39a2.86 2.86 0 0 0-1.77.61 3.19 3.19 0 0 0-2.15.92h-1l-.67.44-1 .22-.15.15-.44.22-.66.66-.22.08-.66 1-.81.44a8.74 8.74 0 0 0-.36 1.63 3.7 3.7 0 0 0 .25 1.36 2.29 2.29 0 0 0 1 .71v.36l1 .52a6.2 6.2 0 0 1 1.77 1h1.47l.93.84 1.7.22.66.43 2.88.8.37.8.29-.51a5.87 5.87 0 0 1 2.58.88l1.33.22.15.52H209l2.06 1.18a4 4 0 0 0 1.62 1.77l.81.51-.22.88a2.65 2.65 0 0 1 .52 1.55zm33.43 0l-.88 1-.81 1.92-.59.44-.51 1-1.48.15-.95 1h-1.48l-.88.73-.81-.22-1 .22v.59l-2.72-.22H234l-.88.52-.74-.45c.49-.05.88-.07 1.18-.07-.4 0-1.58.11-3.54.22l-.22-.11-.59-.11-1 .52a9 9 0 0 0-1.62-.43q-1.62-.09-2.13-.09h-.59a2.7 2.7 0 0 0-1.1-.22 3.24 3.24 0 0 0-1.18.22l-1-.66-.59-.14a2.72 2.72 0 0 1-.81-.22c-1.82-.2-2.73-1.7-2.73-4.53v-.65l1.4-1 1.77-.66 1.32.66h1v.22a2.3 2.3 0 0 1 1.18 1.18l.59.07v1l1 .22.22.15 9.43-.59 2.28-.37h.22l.15-.37 1-.14.15-.22a9.15 9.15 0 0 0 2.87-.89l.07-.36a3.58 3.58 0 0 1-.29-.52l-.37.07-1-.73h-.66l-.37-.52.22-.29-.81.14-.59-.58h-.73a5.45 5.45 0 0 1-1.92-.37H234l-.52-.22-1 .36-.59-.66h-.22l-1-.81-2.28-.88-.74-.59-2.8-.52-.29-.51-2.06-1.33-1.11-2.43-.88-1.25-.3-3.83.3-.44a5.26 5.26 0 0 1 1.18-3 1.84 1.84 0 0 0 1.1-1.69l1.11-.22a2.87 2.87 0 0 1 1.17-1.11l1.11-.88 4.64-1.77.81-.22 1.47-.15 2.43-.66 4.64.29.15.37a3.68 3.68 0 0 1 1.47 1.18v.37l1.18.74-.52 1.76-.14.67a2 2 0 0 1-2.06 1.84 2.13 2.13 0 0 1-2-1.25v-.22h-.87l-1 .28-1-.73-.52.39a2.89 2.89 0 0 0-1.78.61 3.17 3.17 0 0 0-2.14.92h-1l-.66.44-1 .22-.15.15-.44.22-.66.66-.22.08-.65 1-.81.44a8.87 8.87 0 0 0-.37 1.63 3.86 3.86 0 0 0 .26 1.36 2.18 2.18 0 0 0 1 .71v.36l1 .52a5.94 5.94 0 0 1 1.77 1h1.48l.93.84 1.69.22.67.43 2.87.8.37.8.3-.51a5.87 5.87 0 0 1 2.58.88l1.33.22.14.52h1.18l2.07 1.18a3.87 3.87 0 0 0 1.62 1.77l.81.51-.22.88a2.71 2.71 0 0 1 .51 1.55zm35.21-23.79l-.74 1 .59 1.77-1 1.1-.36 1.55-.23.37.15.37a2.1 2.1 0 0 1-.51 1.54l-.15.22v.3a2.37 2.37 0 0 1 .22 1 1.46 1.46 0 0 1-.07.51l.07.3-.29.81.22.88-.59.59.22 1 .44.52-.66.58v1.18l-.52 1.18.37 1.18-.44.59.73.52-1 1.69-.07.22.74.15-.52 1.69v.3a4.19 4.19 0 0 1-.07.81l.07.22 1.18.14 1 1.48-.52 1.1.81-.07a4.65 4.65 0 0 1 .52 1.54l-1.11 1.11a6.21 6.21 0 0 1-1.47 1l-1.25.66-.37-.37-.74.37-2.28-2.64v-1.24a9.32 9.32 0 0 1-.44-2.72v-.44l-.44-4.32.58-3.08-.44-1.76-1.28 2.04-.66 1.92-.59.29-1 1.63-1.84 1.71-.52.89-1.62 1.41-.37 1-2.35 1.48-2.51 2.82-1.4.29-1 .74a3.41 3.41 0 0 1-2.79-1.4q-3.31-1.64-3.47-4.66l.37-.22-.07-.44-.07-.89-.45-1 .45-1L253 267l.52-2.43v-.3a.63.63 0 0 1-.08-.29 2.36 2.36 0 0 1 .15-.74 1.56 1.56 0 0 1-.07-.59 5.79 5.79 0 0 1 .44-1.7l.52-.22a1.06 1.06 0 0 1-.45-.82v-1a1.43 1.43 0 0 1 .89-1.33 4.15 4.15 0 0 1 .81-1.47l-.37-.6.88-1.1v-.3a4 4 0 0 1 1-2.57l-.07-1.33.29-.29v-.23a.5.5 0 0 1-.07-.21 1 1 0 0 1 .29-.74v-.44a9.6 9.6 0 0 1 1.55-2.21 15.16 15.16 0 0 0 1.84-2.58l.37.37.81-.37.37-.15 2.43-1.1 5.67.29v.52l1.77.37a2.19 2.19 0 0 1 2.21 1.1 2.13 2.13 0 0 1 .07-.52v-.29l1.55 1.4 1.39.29 2.66-.66.95 1.84zm-7 3.83l-.29-.51-.59-.15-2.28-1.84-1.48-.22h-1.18l-.14-.3-.59.3-.67-.3h-1.91l.22.3-1.69.59-.3.37-.22.07a10.76 10.76 0 0 0-1.84 1.84l-.52 1.77-.29.66.74 1-1.26 1 .15.3a5.5 5.5 0 0 0-.8 2.72l-.59.74v1.33l-.59.66-.14.66-.23.15v1l-.22.37a5.75 5.75 0 0 1-.14 1.4l.14.36-.66 1.4.3.44-.52.74.52 1.4-.81 1 .14 1.4v.22l.3.15.37-.08c.24-.24.49-.46.73-.66l-.15-.59 1-.15.22-.51 4.33-3.54.44-.15.51-1.26a7.1 7.1 0 0 0 1.25-.59l.48-1.16h.58l-.22-1.26 1-.14a5 5 0 0 1 .48-.74 7.83 7.83 0 0 1 .7-.81l3.76-5 .59-1.1-.08-.3.52-.81.15-.81.66-.59zm51.11 16.87l-.74 2.72.3.89-.3.22a2.33 2.33 0 0 1 .45 1.32 2.09 2.09 0 0 1-.22.89v.14c0 .59-.23 3-.67 7.22l-.14 1.4v.29l-.15.3-.08.3.08.44-.22.22-.22.44h-.3l.08.37-.15.44a1.8 1.8 0 0 1-.37 1l-.37 1.18a4.22 4.22 0 0 1-.73 1.47 18 18 0 0 1-1.85 2.58l-1.25 1-1.4 1.18-1.1.51-.89.66-.58.15a8.22 8.22 0 0 1-3.32 1L312 296l-.66.3v.15a10 10 0 0 1-2.14.29h-2.87l-1.77-.37-1.55.37-.73-.67-2.21-.22-1.47-1.34-1.11-.59a4.86 4.86 0 0 1-3.39-3.93l.15-.3-.22-1.18c.59-.94 1.13-1.44 1.62-1.49a2.24 2.24 0 0 1 1.18-.37 39.64 39.64 0 0 0 4.2.52l-.15 1.1.88.59v.88l-.59.74 3.39 1 1.7-.37v.52l.51-.15h.15l.95.15.07.29.74-.36a8.94 8.94 0 0 1 3.52-.45 4.67 4.67 0 0 0 .74-.59l.36.08h.44c.3 0 .59-.3.88-.89a.3.3 0 0 0 .3.23.69.69 0 0 0 .36-.15.77.77 0 0 1 .3-.15h.15l2.39-2 1.08-1.7.07-.95.79-1 .07-1 .44-.89.35-2 .58-1.84v-1.36a12.59 12.59 0 0 1 .44-3.25l-.44-1.17v-3.61l-.44-1.26v-2.06l-.59-1.55v-2.35l-.08-.37-.51.15-.44 1.11-1.1 1-1.34 2.1-1.95 1.36-2.05 2.12a19.32 19.32 0 0 1-4.12 3.25l-.73.89-1.1.67-1 .52-1 1-1.17.59a3.27 3.27 0 0 1-1.69.81 6.33 6.33 0 0 1-3.67 1.11h-1.84a3.86 3.86 0 0 1-.88-.07l-1.33-.08-1.91-1.84-1.39-1.84-.59-1.55-.51-2.94.29-2.14.74-2.5-.15-.81.66-2.28.67-1.33a8.05 8.05 0 0 0 .29-2.28l1.62-3a3.18 3.18 0 0 1 1.1-1.25l.74-1.26.89-.95a3.57 3.57 0 0 1 1.17-1.7A1.69 1.69 0 0 0 299 249q.26-.81 2.76-1.47l-.37.07.37-.15c.15-.24.49-.73 1-1.47l.89.15.66-.45a3.77 3.77 0 0 1 2.5-1h.52l1.91-.73 1.11.37h1.32l.81.44a1.62 1.62 0 0 1 1.18.66l1 1 .3.15.15.29.66 1 .07.37-.22 1.17.15.81-.95 1.46-2.11.29-1.12-1.75-1.06-.35-.52-.51h-.73c-.25.1-.77.34-1.56.73l-.07.59h-1.85a2.26 2.26 0 0 1-1.62 1.18 9.29 9.29 0 0 1-.89.52l-.59 1.4-.52.07-.07.66h-1l-.92 1.57-.81.51-.29 1-1.09 1.56-.14 1.48-.89.88-.81 3.17-.58.59.09.81-.9 2.79.22.89-.08.88a2.63 2.63 0 0 1 .52 1.55l.51.14.22.45a3 3 0 0 1 1.63.29 11 11 0 0 1 3.6-1.1 3.13 3.13 0 0 1 1.26-1.51c.54-.32 1.64-.92 3.31-1.81l.22.08a1.68 1.68 0 0 1 .44-1.11 9.69 9.69 0 0 0 1.33-.59 1.29 1.29 0 0 0 .66-.95l1.18-.3.74-.66 1.84-2.51.51.3a16.6 16.6 0 0 1 1.62-2l1.77-2.06.15-1c.59-.54 1.27-2.11 2.06-4.71l-.37-1.55-.59-1 .44-1.1-.58-.82-.15-1-.22-.73.73-1.33a4.61 4.61 0 0 1 1.7-.59 3.81 3.81 0 0 1 1.77.66l.51 1 1 .74.15 1.62c.14.44.31 1.1.51 2a3.05 3.05 0 0 1 .37 1.54v.43l.15.44.81 1.18-.31 1.38.44.59a3 3 0 0 1 .22 1.11 3.44 3.44 0 0 1-.08.81l.81.22-.66 1.84.3 1.4a3.06 3.06 0 0 1 .36 1.33 4.09 4.09 0 0 1-.36 1.47l.44.37zm31.82 3.09a3.64 3.64 0 0 1-1.33 2.21 4.73 4.73 0 0 1-1.1 1.92l-.45.07-.81 1.4-1.32.22-1.4.88-.74 1.33h-.81a5.74 5.74 0 0 1-1.32.38l-.45.58H348a2.37 2.37 0 0 0-1.84 1.25l-1-.89h-.89a3.33 3.33 0 0 1-1.61-.36h-1.26l-.59-.37c-1.86-.29-3-1-3.53-2.12v-.22l-.89-.43-.44-1.24-.88-.59v-1.1l-.88-3.21v-2.63l.44-1.16v-1.54l.37-1.17-.08-.51.52-.87-.15.14a3.12 3.12 0 0 1 .37-1.4v-.36l-.22-1.77a2.87 2.87 0 0 1 1.1-2.21 1 1 0 0 0 .08-.44 6.13 6.13 0 0 0-.26-1.22 5.77 5.77 0 0 1-.26-1.29 4.45 4.45 0 0 1 .44-1.84 1.93 1.93 0 0 0 1.7.89h.22a2.14 2.14 0 0 1 .66-.67 9.24 9.24 0 0 1 1.62-3.09l.3-.29a8.69 8.69 0 0 1 .44-1.7h.52l.14-.37.59-.14a5.61 5.61 0 0 1 .48-.7 16.7 16.7 0 0 1 1.58-.92 3.07 3.07 0 0 1 .89-1 5.1 5.1 0 0 1 .74-.3l.29-.44a11.7 11.7 0 0 1 2.5-.66 2.27 2.27 0 0 1 1.11.29l.37-.07.51.3a11.38 11.38 0 0 0 1.77 1.1l1.25 1v.29a4.51 4.51 0 0 1 1.7 3.76l-.23.74.23 2.42-.67.45-.73 1.91-1.4 1.55-.08 1.18a36.32 36.32 0 0 1-4.34 2.72 2.27 2.27 0 0 1-2.06 1h-.22l-1.41.89h-1.17l-1.77.73-1.33-.66h-.14a16.34 16.34 0 0 0-.3 1.78l-.59.44-.07.89-.44 1.26c.1 1.19.15 2 .15 2.3l-.25.22a11.82 11.82 0 0 1-.06 1.41.66.66 0 0 1-.06.22v.22a1.1 1.1 0 0 0 .59 1 1.49 1.49 0 0 0 .73 1.11l.52.44 1.62.45v.22l.59.15h2.5l1.47-.22.74-.51.44-.15.74-1.09.37-.07 1.84-.58a2.37 2.37 0 0 1 1-.88l.22-.36a1.89 1.89 0 0 0 1.69-1.53 3.61 3.61 0 0 1 2.65-1h.3a4.63 4.63 0 0 1 1.36 2.63zm-7.3-21.21a3.51 3.51 0 0 0-.22-.88l-.36-.08-.15.08H350a.62.62 0 0 1-.29.07.53.53 0 0 1-.22-.07h-.22l-.74.51-.66.08-.37.15-1.25 1.61-.81.59-1.18 2.07-.66.44a4.18 4.18 0 0 1-1 2.13l-.3.52a3.38 3.38 0 0 1 1.84-.52l.52-.22.22-.66 1 .07.59-.88h.44l.81.29.37-1.1h.51V253l1-.22.22-.22.15-.67 1-1.39a2.6 2.6 0 0 0 .08-.86zm-235.53 66.05l-.26.79-.45.41v.33a2.64 2.64 0 0 0-.51.18h-.08a.49.49 0 0 1-.41.36 2.09 2.09 0 0 1-1.09.51 1.14 1.14 0 0 1-.81.45l-.36.18H111l-.28.18h-.13a1 1 0 0 1-.3.18l-.28.2h-.59l-.3.25-1.1.23-.61.05-.53.41a1.09 1.09 0 0 0-.46-.1h-.15l-.18.1-.33.08-.23.15-.18.05.28.45-.17.63.2.84v.58l.1.23a.6.6 0 0 1 .54.68c0 .39-.32.68-.94.89l-.71.23-.79-.95-.33-1v-1l-.36-.64.25-.28-.07-.31v-.2a6.84 6.84 0 0 1-1-.13l-.87-1.22 1.91-.12v-.26l.14-.31.12-1.07.15-.15-.08-1 .08-.41v-1.38l.32-.59h.06v-.08a.86.86 0 0 1 .41-.51h.74c.72 0 1.09.27 1.09.82a2 2 0 0 1-.36.92v.12a1.25 1.25 0 0 0 .36.8l-.36.1v.64l-.38.25.13.36-.2.38.07.49-.07.23v.23l.18-.1h.51a1.41 1.41 0 0 1 .84-.31l.35-.3a1.17 1.17 0 0 0 .33.23l1-.41.33-.05.41-.26h.2v-.05h.24a1.51 1.51 0 0 0 .92-.3h.56v-.13l.35-.15.18-.23a.94.94 0 0 0 .25 0l.23-.43a.36.36 0 0 1 .21-.1s.08 0 .1.1a.72.72 0 0 1 .35-.23v-.12l.18-.13v-.21l-.13-.33-.2-.22-.2-.06-.49-.4-.94-.36a7.42 7.42 0 0 0-1.17-.58l-.41.24-.71-.44h-.58l-.39-.22h-.4l-.36-.21h-.22a1.26 1.26 0 0 1-.64-.2l-.61-.09-.46.06-.48-.15-.53.12h-.08l-.38.13-.31-.1v.1h-.61l-.46.26-.53.08-.69.35-.45-.65a1.69 1.69 0 0 1-.31-1l.28-.31a.71.71 0 0 1 .56-.55l.94-.25h.48l-.07.1.53-.16h.31a.88.88 0 0 1 .48.16h1l.76.05 1.4.2.38.28.36-.1.66.18h.76l.1.15h.54l.58.35.56.06.13.17a1.56 1.56 0 0 1 .91.34l.51-.11.21.51.28.21h.43l.33.48 1 .56v.38zm7.98 6.11a.55.55 0 0 1-.2.45 2.38 2.38 0 0 1-.66.64l-.25.18-.23.3-.23.1-.35.23h-.25l-.11.1a1.53 1.53 0 0 0-.78.51.56.56 0 0 1-.33.13.48.48 0 0 1-.18 0 2.14 2.14 0 0 1-1.11.26 1.73 1.73 0 0 1-.76-.11l-.46-.25-.15-.26V324a.65.65 0 0 0-.29-.54l-.1-.5-.21-.23-.14-.94v-1l.08-.15a.73.73 0 0 1-.08-.33c.09-.71.13-1.16.13-1.35l-.23-.46.23-.38.08-.64v-.43l.15-.38-.15-.51.27-.35v-2.37l.08-1.09-.08-.21v-1.7l.15-1.53a4.56 4.56 0 0 0 .92-.25.75.75 0 0 1 .65.43v.21l.37.38-.1.53v.1a1.78 1.78 0 0 1-.18.64l.07.53.11.49-.18.53a2.47 2.47 0 0 1-.13.79 3 3 0 0 1-.05.4v.16l.21.28-.08.28a1 1 0 0 1 .08.28 1.07 1.07 0 0 1-.13.4v.23l-.15.82v.53l-.18.53.1.49-.1 1.12.08.12-.13.59v.71a1.37 1.37 0 0 0 0 .18 6.88 6.88 0 0 1 0 .71l.08.36v.38l.15.33v.13a1.07 1.07 0 0 1 .27.4h.23l.33.1.15-.2h.23a.63.63 0 0 1 .23-.05h.07a.67.67 0 0 0 .41-.26l.15-.08a1 1 0 0 1 .58-.38l.48-.4a.59.59 0 0 1 .43-.54.7.7 0 0 0 .51-.13 1 1 0 0 1 .64.27 1.27 1.27 0 0 1 .04.75zm9.29.68a1.29 1.29 0 0 1-.46.77 1.64 1.64 0 0 1-.38.66h-.16l-.28.49-.45.07-.49.31-.25.46H130a2.58 2.58 0 0 1-.46.13l-.15.2h-.23a.83.83 0 0 0-.64.43l-.35-.31h-.31a1.22 1.22 0 0 1-.56-.12h-.43l-.2-.13a1.45 1.45 0 0 1-1.22-.73v-.08l-.31-.15-.15-.43-.31-.2v-.38l-.3-1.11v-.9l.15-.41v-.53l.13-.4v-.18l.18-.3a1 1 0 0 1 .13-.48v-.13l-.08-.61a1 1 0 0 1 .38-.76.33.33 0 0 0 0-.15 2 2 0 0 0-.09-.42 2 2 0 0 1-.09-.45 1.6 1.6 0 0 1 .15-.64.66.66 0 0 0 .59.31h.07a.82.82 0 0 1 .23-.23 3.29 3.29 0 0 1 .56-1.07l.1-.1a3.59 3.59 0 0 1 .16-.58h.2v-.13h.2a1.26 1.26 0 0 1 .17-.24 4.91 4.91 0 0 1 .55-.32 1 1 0 0 1 .3-.33 1.09 1.09 0 0 1 .26-.1l.1-.16a3.9 3.9 0 0 1 .86-.22.72.72 0 0 1 .38.1h.13l.18.1a3.39 3.39 0 0 0 .61.38l.43.33v.11a1.53 1.53 0 0 1 .59 1.29l-.08.26.08.84-.23.15-.26.66-.48.54v.4a11.19 11.19 0 0 1-1.5.94.78.78 0 0 1-.71.36h-.07l-.49.3h-.4l-.61.26-.46-.23a5.42 5.42 0 0 0-.11.61l-.2.16v.3l-.16.44v.79l-.08.08v.64a.36.36 0 0 0 .2.33.56.56 0 0 0 .25.39l.18.15.56.15v.08h1.07l.51-.08.25-.17h.16l.25-.38h.13l.63-.21a1 1 0 0 1 .33-.3l.08-.12a.64.64 0 0 0 .58-.53 1.28 1.28 0 0 1 .92-.35h.1a1.63 1.63 0 0 1 .44.88zm-2.52-7.32a1.51 1.51 0 0 0-.08-.31h-.28a.19.19 0 0 1-.1 0h-.15l-.26.18h-.23l-.12.05-.44.56-.28.2-.4.71-.23.16a1.37 1.37 0 0 1-.36.73l-.1.18a1.17 1.17 0 0 1 .64-.18l.18-.07.07-.23h.36l.2-.3h.15l.28.1.13-.38h.18v-.28l.33-.08.08-.07v-.23l.33-.49a.85.85 0 0 0 .1-.25zm14.24-.89l-.25.33.2.61-.33.38-.13.54-.08.12.06.13a.69.69 0 0 1-.18.53l-.05.08v.1a.85.85 0 0 1 .07.33.39.39 0 0 1 0 .18v.1l-.1.28.08.31-.21.2.08.36.15.17-.23.21v.41l-.17.4.12.41-.15.2.25.18-.35.58v.08l.26.05-.18.59v.1a1 1 0 0 1 0 .28v.08l.41.05.33.5-.18.39h.28a1.71 1.71 0 0 1 .18.54l-.38.38a2.62 2.62 0 0 1-.51.35l-.5.2-.12-.13-.26.13-.79-.91v-.43a3.33 3.33 0 0 1-.15-.94v-.15l-.15-1.49.2-1.07-.15-.6-.43.71-.23.66-.2.1-.36.56-.64.59-.17.31-.56.49-.13.33-.81.51-.87 1-.48.1-.33.26a1.2 1.2 0 0 1-1-.48 1.86 1.86 0 0 1-1.19-1.61l.12-.08v-.46l-.15-.33.15-.36.05-.53.18-.84v-.11a.16.16 0 0 1 0-.1.65.65 0 0 1 0-.25.51.51 0 0 1 0-.21 1.94 1.94 0 0 1 .15-.58l.18-.08a.38.38 0 0 1-.15-.28v-.33a.48.48 0 0 1 .3-.46 1.85 1.85 0 0 1 .28-.51l-.12-.21.3-.38v-.1a1.38 1.38 0 0 1 .33-.89v-.46l.1-.1v-.08a.13.13 0 0 1 0-.07.36.36 0 0 1 .11-.26v-.15a3 3 0 0 1 .53-.76 5 5 0 0 0 .63-.89l.13.13.28-.13.13-.05.84-.38 2 .1v.18l.61.12a.76.76 0 0 1 .76.38 1.11 1.11 0 0 1 0-.17v-.11l.54.49.48.1.92-.23.33.64zm-2.42 1.32l-.1-.18-.2-.05-.79-.63-.51-.08h-.4l-.06-.1-.2.1-.23-.1h-.66l.08.1-.59.2-.1.13h-.08a3.67 3.67 0 0 0-.63.63l-.18.61-.1.23.25.36-.43.33.05.1a2 2 0 0 0-.28.94l-.2.26v.45l-.21.23-.05.23-.07.05v.36l-.08.13a2 2 0 0 1 0 .48v.13l-.23.48.1.15-.17.26.17.48-.28.35.06.49v.07l.1.05h.12a2.68 2.68 0 0 1 .26-.23v-.2l.35-.05.08-.18 1.49-1.22.15-.06.18-.43a2.46 2.46 0 0 0 .43-.2l.17-.41h.2l-.08-.43.36-.05a1.66 1.66 0 0 1 .16-.25 1.72 1.72 0 0 1 .25-.28l1.29-1.73.21-.38v-.11l.18-.28.05-.28.23-.2zm14.91 6.89l-.31.36-.28.66-.2.15-.21.35-.51.05-.33.33h-.51l-.3.26-.28-.08-.33.08v.2l-.94-.08h-.41l-.31.18-.25-.15h.41l-1.22.08h-.28l-.33.18a4.86 4.86 0 0 0-.56-.15h-.95a.92.92 0 0 0-.38-.07 1.12 1.12 0 0 0-.4.07l-.36-.23-.2-.05a.91.91 0 0 1-.28-.07c-.63-.07-.94-.59-.94-1.56v-.23l.48-.35.61-.23.46.23h.35v.08a.76.76 0 0 1 .41.4h.2v.33l.33.08.08.05 3.26-.21.78-.12h.08l.05-.13.36-.05.05-.08a3.26 3.26 0 0 0 1-.3v-.13a.84.84 0 0 1-.11-.18h-.12l-.33-.26h-.23l-.13-.18.08-.1h-.28l-.21-.2h-.25a1.72 1.72 0 0 1-.66-.13h-.23l-.18-.07-.35.12-.21-.23h-.08l-.35-.28-.79-.3-.25-.2-1-.18-.1-.18-.71-.46-.39-.84-.3-.43-.1-1.32.1-.15a1.78 1.78 0 0 1 .41-1 .65.65 0 0 0 .38-.59l.38-.07a.9.9 0 0 1 .41-.38l.38-.31 1.6-.61.28-.08.51-.05.84-.23 1.6.11.05.12a1.32 1.32 0 0 1 .51.41v.13l.41.25-.18.61v.23a.71.71 0 0 1-.71.64.74.74 0 0 1-.69-.44v-.07h-.3l-.36.1-.33-.25-.18.13a1 1 0 0 0-.61.21 1.11 1.11 0 0 0-.74.32H151l-.23.15-.35.08-.05.05-.15.07-.23.23h-.08l-.22.36-.28.15a3.32 3.32 0 0 0-.13.56 1.39 1.39 0 0 0 .09.47.7.7 0 0 0 .34.24v.13l.33.18a2 2 0 0 1 .62.33h.5l.33.29.58.08.23.15 1 .28.13.27.1-.18a2.09 2.09 0 0 1 .89.31l.46.07.05.18h.41l.71.41a1.44 1.44 0 0 0 .56.61l.28.18-.07.3a.92.92 0 0 1 .18.54zm10 0a1.29 1.29 0 0 1-.46.77 1.64 1.64 0 0 1-.38.66H166l-.27.49-.46.07-.49.31-.25.46h-.28a2.58 2.58 0 0 1-.46.13l-.15.2h-.23a.83.83 0 0 0-.64.43l-.35-.31h-.31a1.22 1.22 0 0 1-.56-.12h-.43l-.2-.13a1.45 1.45 0 0 1-1.22-.73v-.08l-.31-.15-.15-.43-.3-.2v-.38l-.31-1.11v-.9l.15-.41v-.53l.13-.4v-.18l.18-.3h-.05a1 1 0 0 1 .13-.48v-.13l-.08-.61a1 1 0 0 1 .38-.76.33.33 0 0 0 0-.15 2 2 0 0 0-.09-.42 2 2 0 0 1-.09-.45 1.6 1.6 0 0 1 .15-.64.66.66 0 0 0 .59.31h.07a.82.82 0 0 1 .23-.23 3.49 3.49 0 0 1 .56-1.07l.11-.1a3.11 3.11 0 0 1 .15-.58h.2v-.13h.21a1.47 1.47 0 0 1 .16-.24s.21-.13.55-.32a1 1 0 0 1 .3-.33 1.09 1.09 0 0 1 .26-.1l.1-.16a3.9 3.9 0 0 1 .86-.22.7.7 0 0 1 .38.1h.13l.18.1a3.39 3.39 0 0 0 .61.38l.43.33v.11a1.53 1.53 0 0 1 .59 1.29l-.08.26.08.84-.23.15-.26.66-.48.54v.4a12.61 12.61 0 0 1-1.5.94.8.8 0 0 1-.72.36h-.07l-.49.3H162l-.61.26-.46-.23h-.05a4 4 0 0 0-.1.61l-.21.16v.3l-.15.44v.79l-.08.08v.64a.38.38 0 0 0 .2.33.54.54 0 0 0 .26.39l.17.15.56.15v.08h1.07l.51-.08.25-.17h.16l.25-.38h.13l.63-.21a1 1 0 0 1 .33-.3l.08-.12a.65.65 0 0 0 .59-.53 1.24 1.24 0 0 1 .91-.35h.1a1.63 1.63 0 0 1 .46.88zm-2.52-7.32a1.51 1.51 0 0 0-.08-.31h-.28a.17.17 0 0 1-.1 0h-.15l-.26.18h-.22l-.13.05-.43.56-.28.2-.41.71-.23.16a1.37 1.37 0 0 1-.36.73l-.1.18a1.17 1.17 0 0 1 .64-.18l.18-.07.07-.23h.36l.2-.3h.16l.27.1.13-.38h.18v-.28l.33-.08.08-.07.05-.23.33-.49a.85.85 0 0 0 .07-.25zm26.75-.91l-.13.49.05.26-.3 1v.36l-.36.38-.13.49-.28.41-.4.9-.49.81-.74 1.1-.12.33-.38.69-.44.89-.76 1.37-.15.61-.41.58-.76-.25-.43-.25-.41-1.2-.51-.87v-.25l-.31-.71-.13-.15-1.11-2.24-.33-.53-.28.43-.41.33-.58.81-.41.43-.23.67-.56.68v.23l-.38.79v.38l-.25.36v.35l-.25.08-.56.58h.1a1.7 1.7 0 0 1-.69.21l-.18-.21-.38-.15v-.28l-.15-.2-.15-.69-.21-.46v-.43l-.38-1.09-.1-.69-.26-.28.05-.33-.25-.61v-.23l-.21-.56-.35-.48.05-.56v-.18l-.28-.66-.05-.41-.15-.25a2.3 2.3 0 0 1-.23-.51l-.43-1.09.36-.46a.79.79 0 0 1 .63-.36l.54-.07.17.25.33.15.23.46.21.18-.08.41.1.25-.07.23.25.41-.05.38.33 1.15-.05.28.13.69.37.81.15 1 .26.31v.48l.19.53v.2l.36-.23.58-.94.18-.43.2-.36a.59.59 0 0 1 .1-.38h.15l.08-.46.28-.05a.46.46 0 0 1 .23-.3v-.05a.45.45 0 0 1 .15-.31l-.05-.18.13-.05v-.15a2 2 0 0 1 .51-.61v-.51l.36-.2.1-.08.05-.05a1.18 1.18 0 0 1-.13-.56 1.32 1.32 0 0 1 .41-.89 1.34 1.34 0 0 1 .56-.1 1.1 1.1 0 0 1 .3 0l.49.43.25.38.15.61.23.41v.28l.18.56v.22l.43.77v.07l.1.08.51 1.22v.33l.25.28.59 1.32.13-.22.46-.94.29-.23.18-.54.26-.13v-.38a2.09 2.09 0 0 1 .41-.26q.15-.07.15-.12v-.54l.3-.3.13-.08.38-.64v-.07a1.45 1.45 0 0 1 .33-.64l-.05-.28.45-.56.23-.56a3.92 3.92 0 0 1-.27-1.29.81.81 0 0 1 .81-.89l.68.2.11-.2.17.23.26.18-.08.28zm10.77.86l-.21.84-.94.12-.51.34-.33-.16-.35.2-.39.15-.25.17v.1l-.53.27-.35.46h-.18a2.79 2.79 0 0 1-.59.53l-.35.59h-.13c-.05.14-.11.34-.18.61l-.35.13-.15.3-.21.26v.38l-.2.08v.38l-.08.07a3.23 3.23 0 0 0 .18.28l-.38.15v.34l-.26.43.16.33-.42.54a2.55 2.55 0 0 1 .05.35v.1a.39.39 0 0 0 0 .13v.23l.43.46-.33.58-.3.23-.71.36-.94-.38v-.59l-.11-.23.08-.38v-.61a.88.88 0 0 1 0-.2v-.43a.57.57 0 0 1-.18-.41.82.82 0 0 1 .18-.46c0-.08 0-.34-.05-.76l.08-.08-.08-.33.05-.3-.05-.18.08-.59-.16-.25.1-.28-.1-.33a2.22 2.22 0 0 0 0-.41 1 1 0 0 0-.1-.51l.1-.15-.1-.46-.23-.33.12-.41-.1-.15-.1-.61v-.2a.6.6 0 0 1-.13-.38c0-.34.38-.63 1.12-.87l.64.13.13.48.25.33-.08.69c.06.34.11.71.18 1.12l.08.41a1.05 1.05 0 0 1 .05.28.56.56 0 0 1-.13.33l.08.5v.56l-.1.26.07.1v.25a.71.71 0 0 0 .18-.38l.1-.38a.51.51 0 0 1 .23-.23l.1-.38.36-.2.05-.31.28-.3.2-.38a1.64 1.64 0 0 1 .64-.46v-.08l.23-.35.25-.06.08-.07.1-.15.28-.16.15-.17h.16l.2-.1.1-.15.31-.16.43-.28.61-.2h.38a.76.76 0 0 0 .31-.1.52.52 0 0 1 .35-.1 1.63 1.63 0 0 1 .36.05.68.68 0 0 1 .77.6zm7.21 5.75c0 .39-.07.63-.21.73l-.12.11-.13.35-.41.13a1.37 1.37 0 0 1-.53.63l-.23.08-.33.36-.31.07a.75.75 0 0 1-.73.49l-.23.3a2 2 0 0 1-.79.31h-.13l-.18.23h-.51l-.4.31-1-.77-.49-1v-1.24l-.1-.31.3-2.24.1-.1a3.78 3.78 0 0 1-.07-.74 6 6 0 0 1 .15-.94l.13-.58a1 1 0 0 0-.21-.33l.16-.49.05-.58v-.08a1.59 1.59 0 0 1-.13-.51.72.72 0 0 0 .05-.14.44.44 0 0 0 0-.14 1.35 1.35 0 0 1-.08-.43c0-.41.23-.59.69-.56h.3a1.79 1.79 0 0 1 .38-.13.7.7 0 0 1 .69.56v.1a1.83 1.83 0 0 1 .1.59.87.87 0 0 1 0 .33l-.18 1.27.18.36a1.23 1.23 0 0 1-.3.81l.1.31-.33 1a8.24 8.24 0 0 1-.13 1v.64l-.15.35v1.3l.38.3h.31v-.07h.2l.33-.1.28-.28.1-.15h.18l.05-.12.08-.11.15.11.26-.26h.15l.05-.18.07-.21.23-.1.49-.23a2 2 0 0 1 1.14-.4h.11a.94.94 0 0 1 .47.39zm-2.6-13.49c0 .21-.13.39-.4.56v.07a1.78 1.78 0 0 1-.85.66l-.38.46-.25.32-.59.15-.25.36-.41.21-.66.59-.4-.38.07-.63.28-.46a.82.82 0 0 1 .41-.61v-.1l.15-.1v-.39l.4-.1v-.23l.31-.05a1.15 1.15 0 0 1 .43-.74l.08-.05.15-.15.21-.61c1.14.25 1.7.67 1.7 1.22zm11.88 8.07c0 .15-.15.3-.46.43a.83.83 0 0 1-.38.23 4 4 0 0 0-.51.25l-.53-.17a1.72 1.72 0 0 1-1.05.3l-.3-.07-.23.17h-.69l-.43.31a1.5 1.5 0 0 0-.53-.1 1.55 1.55 0 0 1-.36.1.67.67 0 0 1-.28-.08l-.07 1v2.56l.07.46v.36l.36.76a.25.25 0 0 0-.08.18c0 .12.19.21.56.28v.31l.18.07.3.21.21.15a1.63 1.63 0 0 1 .36-.05 1.41 1.41 0 0 1 .45.07 2.51 2.51 0 0 0 .43-.35.67.67 0 0 1 .44-.2h.15a1.13 1.13 0 0 1 .9-.62 1.24 1.24 0 0 1 .89.33v.17a1 1 0 0 1-.61 1.1 1.22 1.22 0 0 1-1 .68l-.31.28h-.33l-.58.16a2.94 2.94 0 0 1-.59.05 1.17 1.17 0 0 1-.43-.1h-.33l-.89-.49-.23-.08-.54-.71-.3-.33-.56-1.27-.2-1.19.07-.31-.23-.28.13-.35-.13-.56.18-.18.05-.33-.07-.31.07-.46-.12-.4.12-.13v-.41l-.17-.07-.49.1-.46-.31h-.07c-.51 0-.77-.27-.77-.82v-.08l-.3-.49.48-.46.64.1.33-.05.48.13h.54v-.51l-.33-.72.33-.17-.13-.39v-.78L211 312a1 1 0 0 1-.18-.51.81.81 0 0 1 .13-.46l.08-.36.2-.2a7.26 7.26 0 0 1 .92-.13.78.78 0 0 1 .89.74l-.08.13a.83.83 0 0 1 .15.44v.12l-.05.16v.18l.1.33v.48l-.23.31.13.51-.11.62.21.23-.21.46.79-.13 1.4.13 1.12-.18h1.51c.46.01.72.2.72.57zm9.08 7.04a1.29 1.29 0 0 1-.46.77 1.64 1.64 0 0 1-.38.66h-.15l-.28.49-.46.07-.48.31-.26.46h-.28a2.58 2.58 0 0 1-.46.13l-.15.2H224a.81.81 0 0 0-.63.43l-.36-.31h-.31a1.15 1.15 0 0 1-.55-.12h-.44l-.2-.13a1.47 1.47 0 0 1-1.22-.73v-.08l-.31-.15-.15-.43-.3-.2v-.38l-.31-1.11v-.9l.15-.41v-.53l.13-.4v-.18l.18-.3a1 1 0 0 1 .13-.48v-.13l-.08-.61a1 1 0 0 1 .38-.76.33.33 0 0 0 0-.15 2 2 0 0 0-.09-.42 2 2 0 0 1-.09-.45 1.6 1.6 0 0 1 .15-.64.66.66 0 0 0 .59.31h.08a.76.76 0 0 1 .22-.23 3.49 3.49 0 0 1 .56-1.07l.11-.1a3.11 3.11 0 0 1 .15-.58h.2l.05-.13h.21a1.47 1.47 0 0 1 .16-.24s.21-.13.55-.32a1.15 1.15 0 0 1 .3-.33 1.28 1.28 0 0 1 .26-.1l.1-.16a4 4 0 0 1 .86-.22.76.76 0 0 1 .39.1h.12l.18.1a3.39 3.39 0 0 0 .61.38l.43.33v.11a1.53 1.53 0 0 1 .59 1.29l-.08.26.08.84-.23.15-.25.66-.49.54v.4a12.61 12.61 0 0 1-1.5.94.8.8 0 0 1-.72.36h-.07l-.48.3h-.41l-.61.26-.46-.23h-.05a4 4 0 0 0-.1.61l-.21.16v.3l-.15.44v.79l-.09.08v.64a.38.38 0 0 0 .2.33.54.54 0 0 0 .26.39l.18.15.55.15v.08h1.07l.51-.08.26-.17h.15l.25-.38h.13l.63-.21a.93.93 0 0 1 .34-.3l.07-.12a.65.65 0 0 0 .59-.53 1.24 1.24 0 0 1 .91-.35h.1a1.57 1.57 0 0 1 .39.88zm-2.52-7.32a1 1 0 0 0-.08-.31h-.23a.17.17 0 0 1-.1 0h-.15l-.25.18h-.23l-.13.05-.43.56-.28.2-.41.71-.23.16a1.43 1.43 0 0 1-.35.73l-.11.18a1.17 1.17 0 0 1 .64-.18l.18-.07.07-.23h.36l.2-.3h.16l.28.1.12-.38h.18v-.28l.33-.08.08-.07v-.23l.33-.49a.85.85 0 0 0 .05-.25zm20.73-.89l-.26.33.21.61-.33.38-.13.54-.08.12.05.13a.73.73 0 0 1-.17.53l-.07.09v.1a.72.72 0 0 1 .08.33.62.62 0 0 1 0 .18v.1l-.1.28.08.31-.21.2.08.36.15.17-.23.21v.41l-.18.4.13.41-.15.2.25.18-.35.58v.08l.26.05-.18.59v.1a1 1 0 0 1 0 .28v.08l.4.05.34.5-.18.39h.28a1.45 1.45 0 0 1 .17.54l-.38.38a2.34 2.34 0 0 1-.51.35l-.43.23-.13-.13-.25.13-.79-.91v-.43a3.33 3.33 0 0 1-.15-.94v-.15l-.15-1.49.15-1.12-.15-.6-.43.71-.23.66-.21.1-.35.56-.63.57-.18.31-.56.49-.12.33-.82.51-.86 1-.48.1-.33.26a1.2 1.2 0 0 1-1-.48 1.89 1.89 0 0 1-1.2-1.61l.13-.08v-.46l-.15-.33.15-.36v-.53l.18-.84v-.11a.17.17 0 0 1 0-.1.8.8 0 0 0 0-.46 1.94 1.94 0 0 1 .15-.58l.18-.08a.38.38 0 0 1-.15-.28v-.33a.48.48 0 0 1 .3-.46 1.62 1.62 0 0 1 .28-.51l-.13-.21.31-.38v-.1a1.38 1.38 0 0 1 .33-.89v-.46l.11-.1v-.08a.13.13 0 0 1 0-.07.35.35 0 0 1 .1-.26v-.15a3.44 3.44 0 0 1 .54-.76 5.57 5.57 0 0 0 .63-.89l.13.13.28-.13.13-.05.83-.38 2 .1v.18l.61.12a.77.77 0 0 1 .77.38.52.52 0 0 1 0-.17v-.11l.54.49.48.1.92-.23.33.64zm-2.42 1.32l-.1-.18-.2-.05-.79-.63-.51-.08h-.41v-.1l-.2.1-.23-.1h-.66l.07.1-.58.2-.1.13h-.08a3.33 3.33 0 0 0-.63.63l-.18.61-.1.23.25.36-.43.33v.1a1.85 1.85 0 0 0-.28.94l-.2.26v.45l-.21.23v.23l-.07.05v.36l-.08.13a2 2 0 0 1-.05.48l.05.13-.23.48.1.15-.18.26.18.48-.28.35v.56l.1.05h.13a2.68 2.68 0 0 1 .26-.23l-.05-.2.35-.05.08-.18 1.49-1.22.15-.06.18-.43a2.85 2.85 0 0 0 .43-.2l.17-.41h.2l-.08-.43.36-.05a1.66 1.66 0 0 1 .16-.25 2.32 2.32 0 0 1 .24-.28l1.3-1.73.2-.38v-.11l.18-.28.05-.28.23-.2zm33.34 5.98a1.21 1.21 0 0 1-.33.53.81.81 0 0 1-.23.41.71.71 0 0 1-.3.35l-.1.16a.33.33 0 0 1-.28.15l-.13.25h-.18l-.13.23-.2.08-.15.18-.13.1a.9.9 0 0 0-.64.23 2 2 0 0 1-.68.13 1.53 1.53 0 0 1-.71-.18c-.28 0-.41-.06-.41-.13l-.36-.05-.07-.08-.16-.3-.28-.23a1.19 1.19 0 0 1-.3-.61 3.18 3.18 0 0 1-.36-1l-.25-.41v-.22l-.18-.77v-.3l-.16-.79.08-.64-.13-.17-.25.63c-.32.36-.52.57-.57.65a.28.28 0 0 1-.22.12h-.1l-.15.28a.13.13 0 0 0 0 .1q0 .15.18.18a2.67 2.67 0 0 0-.26.35.91.91 0 0 1-.17.28l-.08-.12-.05.35a1.38 1.38 0 0 0-.46.77c-.17.22-.43.53-.79.94l-.33.35c-.08 0-.13 0-.13.05v.05a1.12 1.12 0 0 1-.53.57l-.3.38h-.18l-.61.23a.93.93 0 0 1-.93-.65v-.28l-.15-.33v-.28l-.21-.73v-.23l-.15-.26.08-.79v-.89l-.13-.27.2-.49-.15-.66.08-.23.07-.74-.2-.53.05-.43-.07-.23-.18-.48-.18.1-.33.4-.31.28-.61.77v.28l-.43.45-.18.36-.18.2a.93.93 0 0 1-.56.79v.36a2.55 2.55 0 0 0-.32.41 1 1 0 0 1-.23.29 1.93 1.93 0 0 0-.21.16l-.31.43a.65.65 0 0 1-.33.62v.15a2.64 2.64 0 0 1-.41.41v-.06l-.08.36c-.13 0-.26.17-.38.49l-.08.11a.72.72 0 0 1-.44.61l-.36.34a1.76 1.76 0 0 1-.54.21c-.45 0-.74-.37-.88-1.1l-.1-.56a.35.35 0 0 1 0-.16.69.69 0 0 1 .1-.35l-.1-.49v-.81a1.12 1.12 0 0 1 .18-.66c-.05-.36-.08-.57-.08-.62v-.45l.11-.47-.19-.16a1.49 1.49 0 0 1-.06-.23 1.3 1.3 0 0 1 .36-.61l-.18-.48.1-.31-.15-.74.05-.35-.18-.56.08-.39-.18-.46c.33-.66.69-1 1.07-1a.82.82 0 0 1 .57.25l.05.26a.74.74 0 0 1 .42.69 2.62 2.62 0 0 0-.08.53h-.1l.23.44-.2.2v.1l.21 1.17-.06 1-.07.18.1.41a.41.41 0 0 1 .08.25.59.59 0 0 1-.21.41 1.22 1.22 0 0 1-.12.58l.07.77v.3l.15-.23.36-.63h.07c.1 0 .21-.16.33-.49l.18-.48a1.58 1.58 0 0 1 .38-.48l.1-.46.31-.46.1-.35.26-.18v-.08a5.34 5.34 0 0 1 .56-.53l.15-.08.05-.25.13-.08a.94.94 0 0 1 .64-.71l-.1-.08h.1a.1.1 0 0 1 0-.08.5.5 0 0 1 .05-.15l.41-.18.08-.4h.27a.84.84 0 0 1 .06-.18l.5-.41a2 2 0 0 1 .49-.1 2.88 2.88 0 0 1 .84.18l.25.35.1.06.13.3.36.49v.33l.22.25v.39a2.53 2.53 0 0 1 .29 1l-.08.31.15.43-.28.28.1.56v.28a2.63 2.63 0 0 0-.05.38 1.82 1.82 0 0 0 .13.51l-.08.28.08.36-.08.08c0 .24.09.63.16 1.19v.11l.8-.9.25-.49.33-.48v-.05a.92.92 0 0 1 .33-.56c0-.1.08-.23.25-.38l.21-.13a1.12 1.12 0 0 1 .53-.71l.13-.36.23-.3.25-.26a1.18 1.18 0 0 0 .36-.56l.2-.3.1-.38.28-.16.28-.35.28-.61c-.07 0-.1 0-.1-.05l.05-.11.19-.15.21-.4a4.24 4.24 0 0 1 .48-.17l.1.06h.45l.41.18.35.41.07.35v.28l-.13.1-.28.54-.13.58a.56.56 0 0 1 .16.46.67.67 0 0 0-.08.33l-.08.21v.4a1.43 1.43 0 0 1 0 .33l-.1.13.12.18-.2.23q.15 0 .15.33a.6.6 0 0 1 0 .2v.71s.11.38.34 1l.05.26.28.31.15.35.15.08.1.15h.13l.23.05h.2a1.35 1.35 0 0 0 .61-.2 1.36 1.36 0 0 1 .54-.54 1.65 1.65 0 0 1 .3-.48l.43-.31.16-.3a.83.83 0 0 1 .43-.13 1.47 1.47 0 0 1 .61.15 1.56 1.56 0 0 1 .06.73zm9.44.91a1.29 1.29 0 0 1-.46.77 1.64 1.64 0 0 1-.38.66h-.16l-.27.49-.46.07-.49.31-.25.46h-.28a2.58 2.58 0 0 1-.46.13l-.15.2h-.23a.83.83 0 0 0-.64.43l-.35-.31h-.31a1.22 1.22 0 0 1-.56-.12h-.43l-.2-.13a1.45 1.45 0 0 1-1.22-.73v-.08l-.31-.15-.15-.43-.31-.2v-.38l-.3-1.11v-.9l.15-.41v-.53l.13-.4v-.18l.18-.3h-.05a1 1 0 0 1 .13-.48v-.13l-.08-.61a1 1 0 0 1 .38-.76.33.33 0 0 0 0-.15 2 2 0 0 0-.09-.42 2 2 0 0 1-.09-.45 1.6 1.6 0 0 1 .15-.64.66.66 0 0 0 .59.31h.07a.82.82 0 0 1 .23-.23 3.49 3.49 0 0 1 .56-1.07l.11-.1a3.11 3.11 0 0 1 .15-.58h.2l.05-.13h.21a1.47 1.47 0 0 1 .16-.24s.21-.13.55-.32a1 1 0 0 1 .3-.33 1.09 1.09 0 0 1 .26-.1l.1-.16a3.9 3.9 0 0 1 .86-.22.7.7 0 0 1 .38.1h.13l.18.1a3.39 3.39 0 0 0 .61.38l.43.33v.11a1.53 1.53 0 0 1 .59 1.29l-.08.26.08.84-.23.15-.26.66-.48.54v.4a11.81 11.81 0 0 1-1.49.94.8.8 0 0 1-.72.36H282l-.49.3h-.4l-.61.26-.46-.23H280a4 4 0 0 0-.1.61l-.21.16v.3l-.15.44v.79l-.08.08v.64a.38.38 0 0 0 .2.33.54.54 0 0 0 .26.39l.17.15.56.15v.08h1.07l.51-.08.25-.17h.16l.25-.38h.13l.63-.21a1 1 0 0 1 .33-.3l.08-.12a.65.65 0 0 0 .59-.53 1.24 1.24 0 0 1 .91-.35h.1a1.63 1.63 0 0 1 .48.88zm-2.52-7.32a1.51 1.51 0 0 0-.08-.31h-.28a.17.17 0 0 1-.1 0H283l-.26.18h-.22l-.13.05-.43.56-.28.2-.41.71-.23.16a1.37 1.37 0 0 1-.36.73l-.1.18a1.17 1.17 0 0 1 .64-.18l.18-.07.07-.23h.36l.2-.3h.16l.27.1.13-.38h.18v-.28l.33-.08.08-.07.05-.23.33-.49a.85.85 0 0 0 .06-.25zm13.63 7.32l-.31.36-.27.66-.21.15-.18.36-.5.05-.33.33h-.51l-.31.26-.28-.08-.33.08v.2l-.94-.08h-.41l-.3.18-.26-.15h.41l-1.22.08h-.28l-.33.18a4.33 4.33 0 0 0-.56-.15h-.94a1 1 0 0 0-.38-.07 1.18 1.18 0 0 0-.41.07l-.36-.23-.2-.05a1 1 0 0 1-.28-.07c-.63-.07-.94-.59-.94-1.56v-.23l.48-.35.61-.23.46.23h.36v.08a.74.74 0 0 1 .4.4h.21v.33l.33.08.07.05 3.26-.21.79-.12h.07l.06-.13.35-.05.05-.08a3.17 3.17 0 0 0 1-.3v-.13a1 1 0 0 1-.1-.18h-.13l-.33-.26h-.23l-.13-.18.08-.1H294l-.2-.2h-.26a1.72 1.72 0 0 1-.66-.13h-.23l-.17-.07-.36.12-.2-.23h-.08l-.36-.28-.79-.3-.25-.2-1-.18-.1-.18-.71-.46-.38-.84-.31-.43-.1-1.32.1-.15a1.85 1.85 0 0 1 .41-1 .65.65 0 0 0 .38-.59l.38-.07a1 1 0 0 1 .41-.38l.38-.31 1.6-.61.28-.08.51-.05.84-.23 1.6.11.06.12a1.23 1.23 0 0 1 .5.41v.13l.41.25-.18.61-.05.23a.71.71 0 0 1-.71.64.74.74 0 0 1-.69-.44v-.07h-.3l-.35.1-.33-.25-.18.13a1 1 0 0 0-.62.21 1.13 1.13 0 0 0-.74.32h-.33l-.22.05-.35.08-.06.05-.15.07-.23.23h-.07l-.23.36-.28.15a3.32 3.32 0 0 0-.13.56 1.39 1.39 0 0 0 .09.47.74.74 0 0 0 .35.24v.13l.33.18a2 2 0 0 1 .61.33h.51l.32.29.59.08.23.15 1 .28.13.27.1-.18a2.09 2.09 0 0 1 .89.31l.46.07.05.18h.41l.71.41a1.32 1.32 0 0 0 .56.61l.28.18-.08.3a.92.92 0 0 1 .18.54zm11.55 0l-.31.36-.28.66-.2.15-.18.36-.51.05-.33.33h-.51l-.3.26-.28-.08-.33.08v.2l-.94-.08h-.41l-.31.18-.25-.15h.41l-1.22.08h-.28l-.33.18a4.86 4.86 0 0 0-.56-.15h-.95a.92.92 0 0 0-.38-.07 1.12 1.12 0 0 0-.4.07l-.36-.23-.2-.05a.91.91 0 0 1-.28-.07c-.63-.07-.94-.59-.94-1.56v-.23l.48-.35.61-.23.46.23h.35v.08a.76.76 0 0 1 .41.4h.2v.33l.33.08.08.05 3.26-.21.78-.12h.08l.05-.13.36-.05.05-.08a3.17 3.17 0 0 0 1-.3v-.13a1.76 1.76 0 0 1-.11-.18h-.12l-.33-.26h-.23l-.13-.18.08-.1h-.28l-.21-.2h-.25a1.72 1.72 0 0 1-.66-.13h-.23l-.18-.07-.35.12-.21-.23h-.08l-.35-.28-.79-.3-.25-.2-1-.18-.1-.18-.71-.46-.39-.84-.3-.43-.1-1.32.1-.15a1.78 1.78 0 0 1 .41-1 .65.65 0 0 0 .38-.59l.38-.07a.9.9 0 0 1 .41-.38l.38-.31 1.6-.61.28-.08.51-.05.84-.23 1.6.11.05.12a1.32 1.32 0 0 1 .51.41v.13l.41.25-.18.61-.05.23a.71.71 0 0 1-.71.64.74.74 0 0 1-.69-.44v-.07h-.3l-.36.1-.33-.25-.18.13a1 1 0 0 0-.61.21 1.11 1.11 0 0 0-.74.32h-.34l-.23.15-.35.08-.05.05-.15.07-.23.23h-.08l-.22.36-.28.15a3.32 3.32 0 0 0-.13.56 1.39 1.39 0 0 0 .09.47.7.7 0 0 0 .34.24v.13l.33.18a2 2 0 0 1 .62.33h.5l.33.29.58.08.23.15 1 .28.13.27.1-.18a2.17 2.17 0 0 1 .9.31l.45.07.05.18h.41l.71.41a1.44 1.44 0 0 0 .56.61l.29.18-.08.3a.92.92 0 0 1 .18.54zm12.2-8.21l-.25.33.2.61-.33.38-.13.54-.07.12.05.13a.69.69 0 0 1-.18.53l-.05.08v.1a.88.88 0 0 1 .08.33.36.36 0 0 1 0 .18v.1l-.11.28.08.31-.2.2.07.36.16.17-.23.21v.41l-.18.4.13.41-.16.2.26.18-.36.58v.08l.25.05-.18.59v.1a1.91 1.91 0 0 1 0 .28v.08l.41.05.33.5-.18.39h.28a1.71 1.71 0 0 1 .18.54l-.38.38a2.62 2.62 0 0 1-.51.35l-.43.23-.13-.13-.25.13-.79-.91v-.43a3.33 3.33 0 0 1-.15-.94v-.15l-.16-1.49.21-1.07-.16-.6-.43.71-.23.66-.2.1-.36.56-.63.59-.18.31-.56.49-.13.33-.81.51-.87 1-.48.1-.33.26a1.21 1.21 0 0 1-1-.48 1.86 1.86 0 0 1-1.19-1.61l.13-.08v-.46l-.16-.33.16-.36.05-.53.17-.84v-.11a.3.3 0 0 1 0-.1.92.92 0 0 1 .05-.25.51.51 0 0 1 0-.21 1.75 1.75 0 0 1 .16-.58l.17-.08a.38.38 0 0 1-.15-.28v-.33a.48.48 0 0 1 .31-.46 1.44 1.44 0 0 1 .28-.51l-.13-.21.3-.38v-.1a1.4 1.4 0 0 1 .34-.89v-.46l.1-.1v-.08a.11.11 0 0 1 0-.07.35.35 0 0 1 .1-.26v-.15a3.3 3.3 0 0 1 .53-.76 5.73 5.73 0 0 0 .64-.89l.12.13.28-.13.13-.05.84-.38 2 .1v.18l.61.12a.76.76 0 0 1 .76.38.55.55 0 0 1 0-.17v-.11l.53.49.48.1.92-.23.33.64zm-2.41 1.32l-.1-.18-.21-.05-.79-.63-.5-.08h-.41v-.1l-.21.1-.23-.1h-.66l.08.1-.58.2-.11.13h-.07a3.45 3.45 0 0 0-.64.63l-.18.61-.1.23.26.36-.44.33v.1a1.93 1.93 0 0 0-.27.94l-.21.26v.45l-.2.23-.05.23-.08.05v.36l-.08.13a1.6 1.6 0 0 1-.05.48l.05.13-.22.48.1.15-.18.26.18.48-.28.35.05.49v.07l.1.05h.13a2.61 2.61 0 0 1 .25-.23l-.05-.2.35-.05.08-.18 1.5-1.22.15-.06.18-.43a2.85 2.85 0 0 0 .43-.2l.16-.41h.2l-.07-.43.35-.05a1.86 1.86 0 0 1 .17-.25 1.31 1.31 0 0 1 .24-.28l1.3-1.73.2-.38v-.11l.18-.28v-.28l.23-.2zm17.6 5.82l-.26.95.1.3-.1.08a.83.83 0 0 1 .16.46.67.67 0 0 1-.08.3v.05c0 .2-.08 1-.23 2.49v.59l-.05.1v.25l-.08.08-.08.15h-.1v.13l-.05.15a.59.59 0 0 1-.13.36l-.13.41a1.51 1.51 0 0 1-.25.51 6.42 6.42 0 0 1-.64.89l-.43.33-.48.4-.38.18-.31.23-.2.05a2.7 2.7 0 0 1-1.15.33h-.15l-.23.1v.05a3.15 3.15 0 0 1-.74.1h-1l-.61-.13-.53.13-.26-.23-.76-.08-.51-.46-.38-.2a1.67 1.67 0 0 1-1.17-1.36v-.1l-.07-.41c.2-.33.38-.5.56-.52a.77.77 0 0 1 .4-.12 12.48 12.48 0 0 0 1.45.17l-.05.38.31.21v.3l-.21.26 1.17.35.59-.12v.18l.17-.06h.06l.32.06v.1l.25-.13a3.24 3.24 0 0 1 1.22-.15 1.38 1.38 0 0 0 .25-.21h.28c.1 0 .2-.1.31-.31a.1.1 0 0 0 .1.08.36.36 0 0 0 .13-.05h.15l.82-.7.38-.59v-.33l.28-.35v-.33l.15-.31.12-.69.2-.63v-.46a4.37 4.37 0 0 1 .15-1.12l-.15-.41v-1.29l-.15-.43v-.72l-.2-.53v-.94l-.18.05-.15.38-.38.33-.46.74-.66.46-.71.74a6.37 6.37 0 0 1-1.42 1.13l-.25.31-.38.23-.36.17-.33.34-.4.2a1.09 1.09 0 0 1-.59.28 2.13 2.13 0 0 1-1.26.38h-.64a1.15 1.15 0 0 1-.3 0h-.46l-.66-.63-.48-.64-.2-.53-.18-1 .1-.74.25-.86-.05-.28.23-.79.23-.46a2.62 2.62 0 0 0 .1-.79l.56-1a1.1 1.1 0 0 1 .38-.43l.26-.43.3-.33a1.3 1.3 0 0 1 .41-.59.58.58 0 0 0 .29-.38q.09-.29 1-.51h-.13l.13-.05c.05-.09.17-.26.35-.51l.31.05.23-.15a1.27 1.27 0 0 1 .86-.36h.18l.66-.25.38.12h.46l.28.16a.56.56 0 0 1 .41.22l.35.36h.1l.05.1.23.36v.13l-.08.4.05.28-.32.5-.73.11-.39-.61-.37-.12-.17-.18h-.26l-.54.25v.21H329a.77.77 0 0 1-.56.4 1.92 1.92 0 0 1-.31.18l-.2.48h-.18v.23h-.36l-.32.54-.28.18-.1.35-.38.54-.05.51-.31.3-.28 1.1-.2.2v.28l-.31 1 .08.3v.31a.89.89 0 0 1 .18.53l.18.05.07.15a1 1 0 0 1 .56.11 3.8 3.8 0 0 1 1.25-.39 1.07 1.07 0 0 1 .43-.52l1.14-.62h.08a.6.6 0 0 1 .15-.39 3.83 3.83 0 0 0 .46-.2.43.43 0 0 0 .23-.33l.41-.1.25-.23.64-.86.18.1a4.83 4.83 0 0 1 .56-.69l.61-.71.05-.33a4.46 4.46 0 0 0 .71-1.63l-.13-.53-.2-.36.15-.38-.2-.28-.05-.36-.08-.25.25-.46a1.47 1.47 0 0 1 .59-.2 1.22 1.22 0 0 1 .61.23l.18.33.33.25.05.56q.08.22.18.69a1.12 1.12 0 0 1 .12.53v.18l.05.15.28.41-.07.46.15.2a1 1 0 0 1 .08.38 1 1 0 0 1 0 .28l.28.08-.23.63.1.49a1 1 0 0 1 .13.45 1.27 1.27 0 0 1-.13.51l.16.13zm10.98 1.07a1.24 1.24 0 0 1-.46.77 1.53 1.53 0 0 1-.38.66h-.15l-.28.49-.46.07-.48.31-.25.46h-.28a2.58 2.58 0 0 1-.46.13l-.15.2h-.23a.82.82 0 0 0-.64.43l-.35-.31h-.31a1.19 1.19 0 0 1-.56-.12h-.43l-.21-.13a1.47 1.47 0 0 1-1.22-.73v-.08l-.3-.15-.15-.43-.31-.2v-.38l-.3-1.11v-.9l.15-.41v-.53l.13-.4v-.18l.18-.3h-.05a1.13 1.13 0 0 1 .12-.48v-.13l-.07-.61a1 1 0 0 1 .38-.76.34.34 0 0 0 0-.15 2.49 2.49 0 0 0-.08-.42 2 2 0 0 1-.09-.45 1.6 1.6 0 0 1 .15-.64.66.66 0 0 0 .59.31h.07a.7.7 0 0 1 .23-.23 3.11 3.11 0 0 1 .56-1.07l.1-.1a3.11 3.11 0 0 1 .15-.58h.21l.05-.13h.2a1.26 1.26 0 0 1 .21-.2 4.22 4.22 0 0 1 .54-.32 1.06 1.06 0 0 1 .31-.33 1.18 1.18 0 0 1 .25-.1l.1-.16a3.93 3.93 0 0 1 .87-.22.75.75 0 0 1 .38.1h.13l.18.1a3.07 3.07 0 0 0 .61.38l.43.33v.11a1.53 1.53 0 0 1 .58 1.29l-.07.26.07.84-.23.15-.25.66-.48.54v.4a11.19 11.19 0 0 1-1.5.94.78.78 0 0 1-.71.36h-.08l-.48.3h-.41l-.61.26-.46-.23c0 .14-.06.34-.1.61l-.2.16v.3l-.15.44c0 .41.05.67.05.79l-.08.08v.49a.17.17 0 0 1 0 .07v.08a.37.37 0 0 0 .21.33.53.53 0 0 0 .25.39l.18.15.56.15v.08h1.07l.51-.08.25-.17h.15l.26-.38h.12l.64-.21a1 1 0 0 1 .33-.3l.08-.12a.64.64 0 0 0 .58-.53 1.28 1.28 0 0 1 .92-.35h.1a1.6 1.6 0 0 1 .27.84zm-2.52-7.32a1.27 1.27 0 0 0-.07-.31H344l-.25.18h-.23l-.13.05-.43.56-.28.2-.41.71-.22.16a1.37 1.37 0 0 1-.36.73l-.1.18a1.17 1.17 0 0 1 .64-.18l.17-.07.08-.23h.36l.2-.3h.15l.28.1.13-.38h.18v-.28l.33-.08.07-.07v-.23l.33-.49a.67.67 0 0 0 .14-.25z"/><path class="cls-5" d="M488.21 178.16A164.64 164.64 0 0 0 463.43 153c17.41-22.1 28.51-53.12 26.6-88.29A189.39 189.39 0 0 1 526.15 74 168.11 168.11 0 0 1 506 152.22a152.47 152.47 0 0 1-17.79 25.94z"/><path class="cls-5" d="M508.23 0l-54.85 75h109.71L508.23 0z"/></g></g></svg>