<?xml version="1.0" encoding="utf-8"?>
<!-- Generator: Adobe Illustrator 23.0.1, SVG Export Plug-In . SVG Version: 6.00 Build 0)  -->
<svg version="1.1" id="レイヤー_1" xmlns="http://www.w3.org/2000/svg" xmlns:xlink="http://www.w3.org/1999/xlink" x="0px"
	 y="0px" viewBox="0 0 247.7 177.2" style="enable-background:new 0 0 247.7 177.2;" xml:space="preserve">
<style type="text/css">
	.st0{fill:#FFFFFF;stroke:#000000;stroke-width:1.06;stroke-miterlimit:10;}
	.st1{fill:#231815;stroke:#231815;stroke-width:0.71;stroke-miterlimit:10;}
	.st2{fill:#848484;stroke:#231815;stroke-width:0.71;stroke-miterlimit:10;}
	.st3{fill:#FFFBC7;stroke:#231815;stroke-width:1.06;stroke-miterlimit:10;}
	.st4{fill:#FFFBC7;stroke:#231815;stroke-width:0.71;stroke-miterlimit:10;}
	.st5{fill:#FFFFFF;stroke:#231815;stroke-width:0.71;stroke-miterlimit:10;}
	.st6{fill:none;stroke:#231815;stroke-width:0.71;stroke-miterlimit:10;}
	.st7{fill:#F7CBDF;stroke:#231815;stroke-width:0.71;stroke-miterlimit:10;}
	.st8{fill:#D9D9DA;stroke:#231815;stroke-width:0.71;stroke-miterlimit:10;}
	.st9{fill:none;stroke:#231815;stroke-width:0.71;stroke-linecap:round;stroke-miterlimit:10;}
	.st10{fill:#91BFD9;}
	.st11{fill:none;stroke:#000000;stroke-width:1.06;stroke-miterlimit:10;}
	.st12{stroke:#000000;stroke-width:1.06;stroke-miterlimit:10;}
	.st13{fill:#98B85D;stroke:#000000;stroke-width:1.06;stroke-miterlimit:10;}
	.st14{fill:#98B85D;stroke:#000000;stroke-width:0.71;stroke-miterlimit:10;}
</style>
<path class="st0" d="M124.4,97.2c0,0-18.4-14.8-32.3,2.1l2.7,2.9c0,0,10.3-14,28.7-1.9L124.4,97.2z"/>
<path class="st1" d="M100.9,168.3l-0.2,7c-1.8,0.3-3.6,0.5-5.4,0.5c0,0-0.2-0.9-1.4-8.1L100.9,168.3z M112,169l-0.6,6.1l5.8,0.5
	l0.3-7L112,169z"/>
<path class="st2" d="M91.9,145.3c0,0-3.4,17-2,23.1c0,0,7.9,2.7,14.1-1.2c0,0-1.7-0.4-1.8-2.8c-0.1-2.4,0.8-19.6,1.3-21.1
	L91.9,145.3z M109.3,144.2c0,0,3.3,17.8,1.6,25.7c0,0,4.8,1.3,7.3,0.3c2.4-1,6.7-22.5,5.6-26.9L109.3,144.2z"/>
<path class="st3" d="M120.1,103.5c0,0,10.4,9.4,13.5,11.1c3.1,1.7,5.2,3,6.7,3c2.4,0.5,4.7,1.4,6.8,2.9c1.4,1.2,4.5,3.4,2.6,5.7
	c-1.9,2.3-8.1-0.1-9.9-3.7s-11.8-4.9-11.8-4.9l-9.8-6.2L120.1,103.5z"/>
<path class="st4" d="M83.1,122.1c0,0-0.1,15.8,0.3,17.9s-3.3,5.4-2.9,7.9s0.6,8.2,5.7,7.9s2.7-9.9,2-11.3s-0.9-4.9-0.1-7.7
	s3.3-14.5,3-16.9C90.9,117.5,83.1,122.1,83.1,122.1z"/>
<path class="st1" d="M133,74.9l-2.5-3.2l-5.1,3.4L84.5,82l1,3.4l4.2,3.5l-0.3-2.7l4.7,3.9l0.2-2.5l6.5,3.2l1-1.4l5,2l2.2-1.5
	l3.3,4.2l3.7-5.3l1,0.5l4-3.9l0.5,0.9l4.8-5.2c0,0,0.6,2.7,0.8,2.2l1-2.8l2.4,1.3l1.3-3.3L133,74.9z"/>
<path class="st4" d="M102.9,89.9c0,0,0,7-0.5,8.6s4.9,5.6,7.4,3.6s0.3-5.4,0-8.7s-0.5-5.1-0.5-5.1L102.9,89.9z M79.9,73.8
	c0,0-8.3-0.4-8.2,5.3s10.7,7.9,12.6,8.1s11.5-2.1,13.8-3.8l-8.5-8.1L79.9,73.8z"/>
<path class="st3" d="M132.7,65.2c0,0,6.2-5.5,10.3-2.4s1.8,9.3-1.9,11.7c-3.7,2.4-14.4,6.4-14.4,6.4L132.7,65.2z"/>
<path class="st4" d="M73.3,66.4c0,0,8.3,16.5,13.5,19c5.2,2.5,13.2,5.2,22.3,4s21.8-6.9,25.9-15.6c4-8.7,6.3-27.5,6.3-27.5l-50.9,1
	l-17.4,9L73.3,66.4z"/>
<path class="st5" d="M115,61.7c0,0,3.2-9.2,16.8-4.8c0,0-0.5,2.7-2.3,3.5C127.6,61.2,119.3,65,115,61.7z"/>
<circle class="st6" cx="128.3" cy="58.9" r="1.7"/>
<path class="st5" d="M80.9,65.7c0,0,3.2-9.2,16.7-4.7c0,0-0.5,2.7-2.3,3.5C93.5,65.3,85.2,69.1,80.9,65.7z"/>
<circle class="st6" cx="84" cy="65.4" r="1.7"/>
<path class="st1" d="M57.6,47.4c-4.1-29,17.5-43.9,40.8-46.7s45.8,13.1,47.6,28.8s-2.4,29.6-6.9,36.9l-1.1-5.7l-6.9-8.5l0.9,7.3
	c0,0-4.2-5.7-4.6-6.7c-0.5,1-0.4,2.1,0.1,3.1c-1.2-1.1-2.2-2.4-3-3.8c-0.5,1-1,2-1.3,3c0,0-1.9-1.9-2.2-2.3s-1.9,3.7-1.9,3.7
	l-1.5-2.5l-1.2,3.5c-0.3-0.9-0.6-1.9-0.8-2.9l-1,3.3c0,0-3.5-0.4-3.7-15.1c0,0-3.3,14.3-6.3,16.4c-0.3-1.2-0.6-2.3-1.1-3.5
	c-0.3-0.5-0.8-0.9-1.4-0.8c0,0-0.1,2.8-0.2,3c-0.1,0.2-1.8-2.8-2-3.6s-1.8,0.9-1.7,2c-1.2-0.7-1.9-1.9-2.2-3.2l-1.8,2.1
	c-1.2,0.1-2.2-0.7-2.4-1.9l-0.2,2.5l-1-1.8c0,0-2,0.9-2,2.1c0,0-1.2-2.9-1.3-3.4l-1.2,6.9c0,0-1.1-4.4-1.1-4.7
	c-0.5,1.1-1,2.1-1.4,3.2l-1.3-1.6l-1,3.8l-1.3-3.2c0,0-0.8,8.1-0.5,11.3L75.1,67l4.5,14.3l-7.5-6.7C72.1,74.6,61.2,73.4,57.6,47.4z"
	/>
<path class="st4" d="M110.8,66c-1.3-0.5-4.2-9.5-4.2-9.5l-2.8,0.4l-2.6,1c0,0,1.8,9.3,0.9,10.3s-2.5,3.8-2.2,5.3s1.8,4.4,2.7,4.4
	c0.8,0,1.9-1.4,2.9-1.4c1,0,2.2,0.8,3.5,0.5s2-1.7,2.9-2.2c0.9-0.5,2.4,0.2,3.2-0.2s0.7-3.6,0.2-5.1C114.8,68.1,112,66.5,110.8,66z"
	/>
<path class="st7" d="M108.2,80.7c-1.4-0.1-2.7,0.2-3.9,0.9c-1.5,1.1-2.3,4.4-1.7,4.8c0.6,0.4,4.1-0.8,5.1-2.2c1-1.5,3.7-2.1,4.9-3.2
	s3.4-3,2.6-3.2c-1.5-0.7-3.2-0.5-4.6,0.4C108.6,79.6,109.2,80,108.2,80.7z"/>
<path class="st7" d="M103.2,86.4c0,0,1.5,2.4,6.5-0.7c5.1-3.1,5.7-5.2,5.2-7.1c0,0,0.3-0.5-4.7,2.1C107.6,82.1,105.1,84,103.2,86.4z
	"/>
<path class="st8" d="M96.7,96.6c0,0-10.5,7.4-13.5,12.1c-3,4.7-5,14.5-5,14.5s10.1,1.5,14.5-0.7c0,0,0.2,11.8-1.4,15.9
	c-1.7,4.1-8.3,15.8-8.3,15.8s12.4-4,13.7-5.2c1.3-1.2,5.9-3.7,8.9-3.3c3,0.4,6.3,2.7,13.2,0.8c4.2-1.2,8.4-2.8,12.3-4.7
	c0,0-7.3,1.1-8.7-6.1s-2.5-14.8-2.5-14.8s4.4,2.5,5.1,0.3c1.7-5.6,4.2-17.5,4-17.9c-0.2-0.4,1.4,1.4-13-5l-9.7,3l-8.9-2.8L96.7,96.6
	z"/>
<path class="st8" d="M115,120.7c0,1.6-0.5,3.3-1.3,4.6c-1.3,2-3.3,3.4-5.6,3.9c-0.6,0.1-1.2,0.2-1.8,0.2c-2.1,0-2.9-1.1-4.4-2.4
	c-0.9-0.7-1.8-1.5-2.5-2.3c-1.1-1.1-1.7-2.5-1.8-4c0-1,0.2-2,0.5-2.9c1.2-3.5,4.5-5.9,8.3-5.9c0.4,0,0.7,0,1.1,0.1
	C111.7,112.6,115,116.3,115,120.7L115,120.7z"/>
<path class="st6" d="M105.9,122.8c0,0-2-1.2-2-2.2s2.4-1.7,2.4-1.7l1.7,1.6c0,0,0.2,0.3,0,1c-0.1,0.5-0.5,0.9-0.9,1.1
	C106.7,122.7,106.3,122.7,105.9,122.8z M113.6,125.3c-1.3,2-3.3,3.4-5.6,3.9l-1.2-2.5c0,0,0.9-2.6,1.5-2.9c0.7-0.3,1.5-0.4,2.3-0.2
	c0.5,0.3,1,0.7,1.5,1.1C112.6,125.1,113.1,125.2,113.6,125.3z M101.3,121.9c-0.2,0.4-1.6,2.6-1.6,2.6l-0.4,0.2
	c-1.1-1.1-1.7-2.5-1.8-4c0-1,0.2-2,0.5-2.9l0.2-0.1c0.5,0,1,0.2,1.4,0.7c0.5,0.7,1.1,1.4,1.8,2.1
	C101.6,120.6,101.5,121.5,101.3,121.9z M113,115.2c-0.7,0.8-1.7,1.8-2.1,2.1c-0.7,0.5-4.2-1.2-4.4-1.7c-0.2-0.5,0.3-0.7,0.8-1.3
	c0.4-0.6,0-2.3,0-2.3C109.5,112.3,111.6,113.4,113,115.2z"/>
<path class="st9" d="M97.5,134.3c0,0,3.2-1.7,4.9-0.8 M100.5,131.6l-1.6,5.2c0,0,1.6-0.8,2.1,0c0.5,0.8,0.2,2.8-1.1,2.8
	 M104.2,133.8l2.6-0.3 M103.6,136c0,0,2.6-0.7,3.4-0.4 M105.6,131.9l0.7,6.2 M103,138.2c0,0,0.9,2.1,2.6,2 M109.3,135.5l-0.4,2.9
	c0,0,2.6-3.2,3.5-1.4c1,1.8,0.5,3-0.8,2.4 M110.9,134.6c0,0,0.3,4.3-0.3,5.4 M114.6,131.4c0.4,0.9,0.8,1.7,0.8,1.7 M114,135.8
	c0.7-0.1,1.4-0.3,2-0.7c0.6-0.4,1.4-0.3,1.8,0.3c0.2,0.3,0.3,0.7,0.2,1.1c-0.2,1.8-2.1,5-3.2,4.9"/>
<path class="st5" d="M96.7,96.6c0,0,10.7,6.9,17.4,0l2.1,2.2c0,0-5.5,4.7-10.1,4.6c-4.5-0.1-11.3-4.2-11.2-4.9
	C95.1,97.8,96.7,96.6,96.7,96.6z"/>
<path class="st0" d="M194.7,113.7c0,0,15.2,1.4,12.4,23.2h-4c0,0,5.1-14.3-10.2-20.4L194.7,113.7z"/>
<circle class="st0" cx="205.5" cy="144.9" r="9.8"/>
<path class="st0" d="M143.1,146.1c0,0-7.2,15.3-4.9,20.8s4.9,0,4.9,0s-0.4-18.1,9.4-20.8H143.1z"/>
<path class="st10" d="M194.4,113.7c0,4,0.6,8.1-0.6,11.8c-1.3,3.8-3.2,7.3-5.6,10.5c-2.3,3.2-5.8,5.2-9,7.5c-3.2,2.3-6.1,5-9.9,6.3
	c-3.8,1.1-7.7,1.6-11.7,1.4c-4,0-7.7-1.3-11.4-2.5c-3.6-1.2-7.6-2.2-10.8-4.5c-3.1-2.4-5.8-5.3-8-8.5c-2.2-3.2-3.9-6.7-5.1-10.5
	c-1.4-3.7-2.1-7.5-2.3-11.4c-0.1-4,0.5-7.9,1.6-11.7c1.2-3.8,3.5-7,5.8-10.2c2.3-3.2,4.6-6.5,7.8-8.8c3.2-2.3,6.8-4.2,10.5-5.4
	c3.8-1.1,7.8-1.5,11.7-1.3c3.9-0.2,7.9,0.3,11.7,1.3c11.5,3.8,20.6,12.8,24.5,24.2C195,105.6,194.4,109.6,194.4,113.7L194.4,113.7z"
	/>
<path class="st11" d="M194.4,113.7c0,4,0.6,8.1-0.6,11.8c-1.3,3.8-3.2,7.3-5.6,10.5c-2.3,3.2-5.8,5.2-9,7.5c-3.2,2.3-6.1,5-9.9,6.3
	c-3.8,1.1-7.7,1.6-11.7,1.4c-4,0-7.7-1.3-11.4-2.5c-3.6-1.2-7.6-2.2-10.8-4.5c-3.1-2.4-5.8-5.3-8-8.5c-2.2-3.2-3.9-6.7-5.1-10.5
	c-1.4-3.7-2.1-7.5-2.3-11.4c-0.1-4,0.5-7.9,1.6-11.7c1.2-3.8,3.5-7,5.8-10.2c2.3-3.2,4.6-6.5,7.8-8.8c3.2-2.3,6.8-4.2,10.5-5.4
	c3.8-1.1,7.8-1.5,11.7-1.3c3.9-0.2,7.9,0.3,11.7,1.3c11.5,3.8,20.6,12.8,24.5,24.2C195,105.6,194.4,109.6,194.4,113.7L194.4,113.7z"
	/>
<path class="st12" d="M125.8,176.3c0,0-3.3-6.3,0-7.8s13.8-2.2,15.6-1.9s3.4,4.4,2.6,5.5C143.1,173.1,139.6,177.9,125.8,176.3z"/>
<path class="st0" d="M177.5,143c0,0,10.3,18.3,8,23.8s-4.9,0-4.9,0s0.4-18.1-9.4-20.8L177.5,143z"/>
<path class="st12" d="M197.9,176.3c0,0,3.3-6.3,0-7.8s-13.8-2.2-15.6-1.9s-3.4,4.4-2.6,5.5C180.5,173.1,184,177.9,197.9,176.3z"/>
<circle class="st0" cx="87.3" cy="106" r="9.7"/>
<path class="st13" d="M165.6,123.4c0,0-9.5,4.2-10.6,2.7s-2.6-4.6-3.7-4.8c-1.1-0.2-1.6-12.5-0.6-13.4s6.7-1.5,7.2-2.2
	c0.4-0.6,3.8,0.2,5.7,0.8c1.8,0.6,2,0.8,2,3.2s-0.1,3.6,1.2,4.7c1.5,1.2,2,3.2,1.3,5C167.3,121,167.2,122.7,165.6,123.4z
	 M166.6,77.3c0,1.1-0.4,2.2-1.1,3.1c-1.4,1.5-2.8,3.2-2,5.2c0.8,2,2.6,2.9,2.3,4.5c-0.3,1.6,1.3,2.7,2.7,2.8s3.9,1.6,4.3,2.8
	s0.8,3.4,3.1,3.2s4.6-0.9,5-3.1c0.4-2.2,0.3-3.1,2.2-3.3c1.6-0.2,3.1-0.7,4.5-1.5C182.3,84.2,174.9,79.3,166.6,77.3L166.6,77.3z"/>
<path class="st14" d="M127.8,97.1c-1.2-0.1-2.3-0.3-3.5-0.6c-2.8,5.3-4.2,11.2-4.2,17.2c0,1.9,0.1,3.8,0.4,5.7
	c1.1,0.7,2.4,1.1,3.7,1.2c2.6,0,4.9-3,6.1-5.5c1.2-2.5-0.3-5.5-0.8-6.6c-0.5-1.1,1.6-3,2-3.2s0.6-3,0.6-3c-0.5-0.9-0.8-1.8-1-2.8
	C131.2,98.5,129.2,97.1,127.8,97.1z"/>
<path class="st13" d="M188.6,134.9c-1.8-0.2-3.6-0.6-5.4-1.3c-2.2-0.8-4.5-1-6.8-0.7c-1,0.3-4.7,2.7-5.4,4c-0.7,1.3-3.3,3.9-3.6,4.4
	c-0.2,1.6-0.2,3.2,0,4.8c0,1.3,0,2.6-0.1,3.8C176,147.6,183.5,142.2,188.6,134.9L188.6,134.9z"/>
</svg>
