<svg id="レイヤー_1" data-name="レイヤー 1" xmlns="http://www.w3.org/2000/svg" viewBox="0 0 175.56 138.81"><defs><style>.cls-1{fill:#252525}.cls-2{fill:none;stroke:#252525;stroke-miterlimit:10;stroke-width:2.3px}</style></defs><path class="cls-1" d="M49 53a2.39 2.39 0 0 1-1.23-2C47.63 46 58.19 36.61 63 33.06a1.62 1.62 0 0 1 .93-.21 19 19 0 0 1 4.37.93c3.43 1 7.7 2.23 9-1.22a1 1 0 0 1 .9-.67c2.83-.4 9.14 4.09 9.93 5.14.05.06.18.3.09.92a7.77 7.77 0 0 1-2.71 4.35c-1.19.87-4.76 3.46-3.26 6.17 0 .84-1.08 4-3 7.81h2.53c1.63-3.38 3.32-7.54 2.48-8.87-.38-.61.54-1.77 2.58-3.25a10 10 0 0 0 3.62-5.87 3.42 3.42 0 0 0-.51-2.63c-1-1.35-8-6.61-12.08-6a3.28 3.28 0 0 0-2.72 2.11c-.55 1.4-3 .82-6.29-.14-2.87-.83-5.58-1.62-7.29-.37-.16.12-16.42 12.26-16.18 19.81a4.67 4.67 0 0 0 2.28 3.89c.62.4 1.25.87 1.89 1.37h3.64A32.64 32.64 0 0 0 49 53z" transform="translate(-3.44 -2.12)"/><path class="cls-2" d="M110.78 5.81S106 25 102.24 26.17s5.18 10.61 8.54 10.91 15.83-3.88 17.85-9 3.93-10.53 3.93-10.53M151.26 98.94a67.22 67.22 0 0 1-28.55 30.64c-3-5.1-6.2-10.9-5.76-11.52.78-1.15 5.26-16.94 5.26-16.94s14.73-6 19-5.74c2.59.18 6.93 2.04 10.05 3.56zM71.25 115.41c0 2.53-3.9 11.43-7.09 17.42-5.35-2.5-10.79-4.78-15.28-8.69s-8-9.46-11.35-14.35c2.62-1.72 4.73-3.1 5-3.28.87-.58 8.61-1.79 8.61-1.79l18.06 1.51s2.05 5.14 2.05 9.18z" transform="translate(-3.44 -2.12)"/><path class="cls-1" d="M29.51 53.88a65.51 65.51 0 0 1 6.39-15.75l1.08-2c2.5-4.56 4.86-8.85 8.28-12.41C48.89 20 53.53 17.2 58 14.51l1.18-.71a61.87 61.87 0 0 1 15.71-6.35h.14c5.55-1.54 10.79-3 16.58-3a61.58 61.58 0 0 1 18.64 3.05 42.85 42.85 0 0 0 5 1.1 23.13 23.13 0 0 1 7 2 65.21 65.21 0 0 1 10.22 7c2.34 1.89 4 4.53 5.7 7.33a52.35 52.35 0 0 0 3.22 4.81A64 64 0 0 1 149 42.29a64.52 64.52 0 0 1 5.18 13.79c0 .06 0 .13.05.2h2.35l-.15-.7a66.88 66.88 0 0 0-5.35-14.26 66.93 66.93 0 0 0-7.9-13 51.33 51.33 0 0 1-3.08-4.61c-1.75-2.83-3.56-5.76-6.2-7.91a68 68 0 0 0-10.58-7.27 25.27 25.27 0 0 0-7.71-2.22 39.89 39.89 0 0 1-4.69-1 63.76 63.76 0 0 0-19.31-3.19c-6.1 0-11.74 1.56-17.19 3.08h-.14A63.33 63.33 0 0 0 58 11.84l-1.18.7c-4.62 2.77-9.39 5.63-13.24 9.63C40 25.94 37.43 30.58 35 35.06L33.9 37a68.13 68.13 0 0 0-6.62 16.3c-.24.92-.48 1.93-.72 3h2.36c.19-.86.39-1.67.59-2.42zM153.32 92.79c-.77 1.85-1.62 3.66-2.46 5.45l-.61 1.3a44.44 44.44 0 0 1-5.8 8.64c-.72.91-1.43 1.82-2.13 2.74a63.68 63.68 0 0 1-9.47 9.92 63.06 63.06 0 0 1-11.3 7.83c-4.71 2.59-9.16 5-14.29 6.36-1.5.38-3 .86-4.5 1.31-3.63 1.13-7.37 2.29-11.15 2.29-2.77 0-5.53-1.06-8.21-2.09a38 38 0 0 0-5.4-1.79c-1.65-.37-3.35-.61-5-.84a29.14 29.14 0 0 1-8.68-2.1c-5.05-2.36-11.54-4.3-15.93-8.06-4.09-3.5-7.16-8.48-10.37-13a1 1 0 0 0 .16-1l-.05-.17-.1-.14a32.15 32.15 0 0 1-3.54-8c-.5-1.5-1-3-1.66-4.55-.28-.67-.57-1.34-.86-2s-.59-1.38-.88-2.06h-2.46c.41 1 .83 2 1.25 3 .29.66.57 1.33.85 2 .6 1.42 1.12 2.94 1.61 4.4a39.16 39.16 0 0 0 3.25 7.68l1.28 2c3.45 5 6.32 9.07 10.81 12.92s10.5 6.71 15.68 9.14a31.73 31.73 0 0 0 9.34 2.3c1.59.22 3.23.45 4.8.8a38.25 38.25 0 0 1 5.08 1.69c2.87 1.11 5.83 2.25 9 2.25 4.13 0 8-1.22 11.83-2.39 1.51-.48 2.94-.92 4.39-1.29 5.41-1.39 10.2-4 14.88-6.6a64.9 64.9 0 0 0 11.64-8.08 66 66 0 0 0 9.81-10.27c.68-.91 1.39-1.8 2.09-2.7a47 47 0 0 0 6.08-9.09l.61-1.29c1-2.1 2-4.23 2.87-6.43zM33.92 75a18.57 18.57 0 0 1-.14 3.19 16.17 16.17 0 0 1-.54 3.16 15 15 0 0 1-1.33 2.59 14 14 0 0 1-1.46 2.53 13.62 13.62 0 0 1-2.23 1.82 14.45 14.45 0 0 1-2.41 1.52A15 15 0 0 1 22.92 91a18.49 18.49 0 0 1-3.09.48 17.66 17.66 0 0 1-3.11-.13 15.75 15.75 0 0 1-3.11-.36A15.33 15.33 0 0 1 11 89.71 14.16 14.16 0 0 1 8.72 88a13.63 13.63 0 0 1-2.05-2 15.7 15.7 0 0 1-1.58-2.44 15.66 15.66 0 0 1-1-3 17.84 17.84 0 0 1-.61-3.11 18.68 18.68 0 0 1 0-3.18A15.28 15.28 0 0 1 4.06 71a15.55 15.55 0 0 1 1.07-2.69 13.24 13.24 0 0 1 1.52-2.5 13.44 13.44 0 0 1 2.08-2 14.63 14.63 0 0 1 2.49-1.58 15.44 15.44 0 0 1 3-1.27 19.43 19.43 0 0 1 3.23-.38 17.67 17.67 0 0 1 3.24-.06 15.74 15.74 0 0 1 3.2.56 14.71 14.71 0 0 1 2.67 1.31A13.56 13.56 0 0 1 29 64a13.22 13.22 0 0 1 1.79 2.33 14.61 14.61 0 0 1 1.68 2.41 16 16 0 0 1 .95 3.06 18.45 18.45 0 0 1 .5 3.2zm-4.42.28a18 18 0 0 0-.27-2.53 13.61 13.61 0 0 0-.86-2.4 13 13 0 0 0-.84-2 9.7 9.7 0 0 0-1.6-1.54 9.73 9.73 0 0 0-1.57-1.44 10.46 10.46 0 0 0-2-.85 11.58 11.58 0 0 0-2.36-.44 14.08 14.08 0 0 0-2.35 0 14.3 14.3 0 0 0-2.34.27 10.88 10.88 0 0 0-2.1 1.06 11 11 0 0 0-1.85 1 10.35 10.35 0 0 0-1.6 1.42 9.46 9.46 0 0 0-1.08 2A11.9 11.9 0 0 0 8 71.87a13.29 13.29 0 0 0-.53 2.51 18.74 18.74 0 0 0 .11 2.56A17.72 17.72 0 0 0 8 79.48a14.16 14.16 0 0 0 .84 2.43 12.35 12.35 0 0 0 1.08 1.93 10.48 10.48 0 0 0 1.53 1.59 9.26 9.26 0 0 0 1.7 1.22 9.77 9.77 0 0 0 1.93.83 10.26 10.26 0 0 0 2.25.3 12.91 12.91 0 0 0 2.27.16 13.06 13.06 0 0 0 2.24-.45 11 11 0 0 0 2.09-.86 9.7 9.7 0 0 0 1.83-1 8.49 8.49 0 0 0 1.4-1.53 9.66 9.66 0 0 0 1.37-1.73 12.17 12.17 0 0 0 .47-2.11 12.92 12.92 0 0 0 .51-2.49 16.77 16.77 0 0 0-.01-2.54zM59.81 86a21.35 21.35 0 0 0 2.27-.18 15.86 15.86 0 0 0 2-.37 14.52 14.52 0 0 0 1.69-.69c.53-.24 1.09-.52 1.63-.81.2-1.1-.12-1.13-.15-2.24s-.13-1.11-.16-2.23.83-1.38 0-2.12-1.09 0-2.28.06-1.2-.21-2.39-.17c-.27 0-.47 0-.64-.1a.82.82 0 0 1-.34-.54c0-1.17-.86-1.51 0-2.36s1.21 0 2.4 0S64.92 74 66.1 74s1.2.13 2.38.1 1.55-.93 2.41-.13-.13 1.2-.1 2.37.22 1.16.25 2.32-.16 1.17-.14 2.33.2 1.17.23 2.33a6.22 6.22 0 0 1-.08 2.32 17.08 17.08 0 0 1-2.24 1.61 16.76 16.76 0 0 1-2.69 1 19 19 0 0 1-3 .68 30.92 30.92 0 0 1-3.49.22 17.93 17.93 0 0 1-3.1 0 14.94 14.94 0 0 1-3-.83 14.39 14.39 0 0 1-2.6-1.22 13.12 13.12 0 0 1-2.4-1.62 13.7 13.7 0 0 1-1.77-2.34 15.3 15.3 0 0 1-1.64-2.44 15.67 15.67 0 0 1-.86-3.11 19 19 0 0 1-.54-3.18 18.69 18.69 0 0 1 .28-3.24 15.14 15.14 0 0 1 .68-3.17 15 15 0 0 1 1-2.75 12.32 12.32 0 0 1 4-4.36 15.52 15.52 0 0 1 2.7-1.37 16.08 16.08 0 0 1 2.11-.79 18.94 18.94 0 0 1 2.22-.52c.73-.1 1.5.12 2.28.09a21.78 21.78 0 0 1 3.48-.09 16 16 0 0 1 3 .71 13.34 13.34 0 0 1 2.58 1.13 15.88 15.88 0 0 1 2.26 1.64c-.21 1.08-.63 1-1.2 1.91a1.17 1.17 0 0 1-1 .55 1.72 1.72 0 0 1-.81-.12c-.37-.19-.66-.62-1.12-.89a13.14 13.14 0 0 0-1.77-.58 12.52 12.52 0 0 0-2.26-.82 15.68 15.68 0 0 0-3.18-.15 14.21 14.21 0 0 0-2.42.4 11.78 11.78 0 0 0-2.34.71 11.54 11.54 0 0 0-2 1 10 10 0 0 0-1.45 1.66 9.8 9.8 0 0 0-1.37 1.75 11.39 11.39 0 0 0-1 2 13.29 13.29 0 0 0-.4 2.51 16.43 16.43 0 0 0 0 2.53 17 17 0 0 0 .16 2.62 12.85 12.85 0 0 0 .82 2.5 12.47 12.47 0 0 0 1 2 10.26 10.26 0 0 0 1.47 1.74 10 10 0 0 0 1.71 1.34 11.13 11.13 0 0 0 2 .85 11.91 11.91 0 0 0 2.25.54 13.4 13.4 0 0 0 2.41.26zM95.29 85.08a8.29 8.29 0 0 0 3.36-.7 7.11 7.11 0 0 0 2.57-1.69A8.07 8.07 0 0 0 103 80a10.72 10.72 0 0 0 .52-3.53v-2.63c0-1.32-.16-1.32-.15-2.64s.08-1.31.1-2.63 0-1.32 0-2.64.12-1.32.14-2.64-.12-1.32-.11-2.64-.63-1.55.22-2.58c.66-.8 1-.2 2-.19s1.58-.7 2.21.12c.82 1-.19 1.38-.21 2.7s0 1.32 0 2.63v2.64c0 1.32-.09 1.32-.11 2.64s.16 1.32.14 2.64-.12 1.32-.14 2.64-.1 1.32-.12 2.64a16.79 16.79 0 0 1-.14 2.48 13.68 13.68 0 0 1-.58 2.43 12.59 12.59 0 0 1-1.06 2.07 11.17 11.17 0 0 1-1.44 1.83 10.91 10.91 0 0 1-1.85 1.44 12.62 12.62 0 0 1-2.09 1 11.94 11.94 0 0 1-2.49.73 16.34 16.34 0 0 1-5.16 0 12.6 12.6 0 0 1-2.52-.67 12.33 12.33 0 0 1-2.06-1.11 10.17 10.17 0 0 1-1.66-1.62A10.63 10.63 0 0 1 85 83.35a11.5 11.5 0 0 1-1-2 11.69 11.69 0 0 1-.65-2.39 14 14 0 0 1-.19-2.46c0-1.31-.09-1.31-.11-2.63s0-1.32 0-2.63-.1-1.32-.11-2.64-.12-1.32-.13-2.64 0-1.31 0-2.63v-2.65c0-1.32-.63-1.51.2-2.56.64-.82 1-.06 2-.07s1.5-.88 2.15-.07c.84 1 0 1.34 0 2.66s-.06 1.31-.06 2.63.16 1.31.17 2.63-.15 1.32-.14 2.64.09 1.31.09 2.63-.16 1.32-.15 2.64.2 1.32.21 2.64a11.1 11.1 0 0 0 .39 3.53 7.83 7.83 0 0 0 1.74 2.65 7.17 7.17 0 0 0 2.47 1.9 8.65 8.65 0 0 0 3.41.55zM125.44 76.34c-1 .77-.22 1.18-.27 2.44s-.07 1.27-.12 2.53.14 1.27.09 2.54 0 1.27 0 2.54.66 1.58-.18 2.54c-.67.77-1 0-2 0s-1.42.69-2-.12c-.77-1 0-1.26 0-2.53v-2.53c0-1.27.24-1.25.28-2.52s.08-1.26.12-2.52 0-1.27 0-2.54.05-1.26.09-2.52-.06-1.27 0-2.53 0-1.27 0-2.53-.08-1.27 0-2.54.1-1.26.14-2.53.17-1.26.21-2.53-.89-1.62.12-2.43 1.39-.2 2.87-.15 1.48.25 3 .3 1.47.15 2.95.21a24.84 24.84 0 0 1 2.58.2 18.88 18.88 0 0 1 2.59.35 9.78 9.78 0 0 1 3.42 2 6.86 6.86 0 0 1 2.11 2.68 9 9 0 0 1 .27 3.56 8.73 8.73 0 0 1-.57 3 8 8 0 0 1-1.7 2.38 9 9 0 0 1-2.41 1.87 12.08 12.08 0 0 1-3.31 1 4.55 4.55 0 0 1 1.28 1.45c.7 1 .77 1 1.47 2s.77 1 1.47 2 .64 1.07 1.34 2.12.57 1.11 1.26 2.16.75 1 1.44 2 2.35 1.23 1.38 2c-1.4 1.16-1.8.06-3.62 0a2 2 0 0 1-1.66-1c-.72-1.14-.74-1.12-1.48-2.24s-.66-1.18-1.4-2.3-.85-1-1.6-2.17-.58-1.23-1.33-2.35-1-1-1.72-2.1a2.09 2.09 0 0 0-.7-.74 2.32 2.32 0 0 0-1.19-.44c-1.6-.66-1.96-.94-3.22-.01zm.13-3.14c.63.89 1 .21 2.09.25s1.1.07 2.19.12a10.62 10.62 0 0 0 3.24-.48 6.33 6.33 0 0 0 2.34-1.15 5 5 0 0 0 1.57-1.76 6 6 0 0 0 .55-2.41 6 6 0 0 0-.24-2.29 4.39 4.39 0 0 0-1.4-1.83 6.49 6.49 0 0 0-2.55-1.18 12.81 12.81 0 0 0-2.83-.59c-1.16 0-1.16-.08-2.31-.13s-1.66-.87-2.41 0c-1 1.09-.09 1.49-.14 2.92s0 1.44 0 2.87.24 1.47-.06 2.87-.88 1.59-.04 2.79zM178.55 92.32c-1.2 1-1.51-.06-3.09-.2a1.38 1.38 0 0 1-.84-.39 1.62 1.62 0 0 1-.42-.73c-.36-1.26-.27-1.28-.64-2.54s-.55-1.21-.92-2.47.3-1.67-.74-2.49-1.34-.08-2.72-.2-1.35-.31-2.73-.42-1.37-.09-2.75-.2-1.38 0-2.76-.06-1.54-.89-2.74-.22-.62 1.14-1.19 2.32-.44 1.25-1 2.43-.56 1.19-1.11 2.38c-.12.25-.4.39-.65.57a1.4 1.4 0 0 1-.89.32c-1.59-.11-2.18 1-3.21-.22-.82-1 .5-1.2 1-2.33s.49-1.16 1-2.29.64-1.1 1.18-2.23.7-1.06 1.25-2.2.5-1.15 1.05-2.28.45-1.19 1-2.32.53-1.14 1.08-2.27.67-1.08 1.23-2.21.52-1.15 1.08-2.28.47-1.18 1-2.31.54-1.14 1.1-2.27.78-1 1.35-2.17 0-1.51 1.12-2.2c.9-.57 1-.07 2.08 0s1.41-.56 2.21.14c1 .85.34 1.27.72 2.47s.42 1.19.81 2.4.33 1.22.71 2.42.45 1.18.83 2.38.41 1.2.78 2.4.18 1.27.56 2.47.33 1.22.7 2.42.41 1.19.78 2.4.35 1.21.72 2.41.46 1.18.83 2.39.4 1.2.76 2.4a6.9 6.9 0 0 0 .82 2.36c.83 1.19 1.61 1.59.65 2.42zm-19.09-12.75c.79 1.18 1.53 0 3 .14s1.43.15 2.86.27 1.43.13 2.87.25 2 1.33 3 .28-.53-1.37-.91-2.64-.4-1.26-.78-2.53-.4-1.27-.79-2.54-.19-1.33-.58-2.6-.4-1.27-.79-2.54a19.4 19.4 0 0 1-.85-2.87c-.21.56-.35 1.07-.54 1.54s-.45.86-.62 1.21c-.59 1.19-.46 1.25-1 2.44s-.57 1.19-1.15 2.39-.7 1.14-1.27 2.33-.22 1.42-1.08 2.44-2.1 1.32-1.37 2.43z" transform="translate(-3.44 -2.12)"/></svg>