<svg id="レイヤー_1" data-name="レイヤー 1" xmlns="http://www.w3.org/2000/svg" viewBox="0 0 159.45 207.92"><defs><style>.cls-1{fill:#848485}.cls-1,.cls-2,.cls-3,.cls-4,.cls-5,.cls-6,.cls-7,.cls-8{stroke:#231815;stroke-miterlimit:10;stroke-width:.75px}.cls-2{fill:#231815}.cls-3{fill:#fbf7c6}.cls-4{fill:#fff}.cls-5,.cls-8{fill:none}.cls-6{fill:#f2c8dc}.cls-7{fill:#d9d9da}.cls-8{stroke-linecap:round}.cls-9{fill:#e69a12}</style></defs><path class="cls-1" d="M95.79 175.81s.5 6.48 2.09 6.48 13.3 1.15 16.67.66 10.21.21 12-2.78 1.41-8.47 1.41-8.47l-6.96-4.36s-25.79 4.46-25.21 8.47z" transform="translate(-33.43 -22.83)"/><path class="cls-2" d="M135.92 105.18l-2.21-3.65-5.77 2.9-43.67 2.15.57 3.64 4 4.18v-2.83l4.42 4.7.57-2.58 6.38 4.11 1.22-1.4 5 2.7 2.48-1.33 2.92 4.8 4.53-5 .93.68 4.67-3.55.38 1 5.63-4.87s.33 2.88.62 2.38l1.41-2.78 2.34 1.67 1.79-3.28z" transform="translate(-33.43 -22.83)"/><path class="cls-3" d="M107.85 117.36s0 7.35-.53 9 5.14 5.89 7.76 3.84.37-5.7 0-9.16-.56-5.42-.56-5.42zM80.53 97.41s-8.65-1.47-9.19 4.58 10.15 9.63 12.11 10.09 12.34-.79 14.91-2.21l-7.92-9.5zM136.8 95s7.17-5 11.06-1.24.73 9.93-3.44 12-15.86 4.91-15.86 4.91z" transform="translate(-33.43 -22.83)"/><path class="cls-3" d="M74.51 88.85s6.61 18.29 11.72 21.53 13.21 7.1 22.8 7 23.72-4.51 29-13.09 10.1-28 10.1-28l-53.31-5.42-19.31 7.23z" transform="translate(-33.43 -22.83)"/><path class="cls-4" d="M118.75 89.1s4.55-9.21 18.11-2.9c0 0-.85 2.81-2.85 3.41s-11.19 3.55-15.26-.51z" transform="translate(-33.43 -22.83)"/><circle class="cls-5" cx="97.23" cy="63.32" r="1.77"/><path class="cls-4" d="M82.58 89.1s4.55-9.21 18.1-2.9c0 0-.84 2.81-2.85 3.41s-11.19 3.55-15.25-.51z" transform="translate(-33.43 -22.83)"/><circle class="cls-5" cx="54.02" cy="66.55" r="1.77"/><path class="cls-2" d="M60.49 67c-.63-30.91 23.8-43.8 48.51-43.8s46.24 19.44 46.24 36.08S149.1 89.94 143.49 97l-.49-6-6.17-9.82V89s-3.7-6.45-4-7.62a3.78 3.78 0 0 0-.32 3.27 14 14 0 0 1-2.67-4.34 16.3 16.3 0 0 0-1.73 2.94s-1.74-2.2-2-2.66-2.45 3.64-2.45 3.64l-1.31-2.8-1.72 3.55a17.81 17.81 0 0 1-.47-3.13l-1.47 3.36s-3.58-.85-2-16.29c0 0-5.23 14.57-8.6 16.38a34.55 34.55 0 0 0-.69-3.79 1.58 1.58 0 0 0-1.37-1.06s-.43 2.86-.56 3.11-1.55-3.18-1.68-4-2 .75-2.06 1.93a4.88 4.88 0 0 1-1.87-3.61l-2.11 2a2.4 2.4 0 0 1-2.28-2.24L95 80.27l-.74-2s-2.2.7-2.39 1.91c0 0-.93-3.22-1-3.74l-2 7.06s-.56-4.72-.51-5a36.83 36.83 0 0 0-1.87 3.23l-1.12-1.82L84 83.58 83 80s-1.87 8.42-2 11.73l-4.67-2.07 2.9 15.49-7.03-7.89S61.05 94.61 60.49 67z" transform="translate(-33.43 -22.83)"/><path class="cls-3" d="M113.77 93.74C112.58 92.93 112 83 112 83l-3-.35-2.9.35s-.62 10-1.8 10.76-3.56 3.18-3.62 4.86.69 5 1.56 5.17 2.31-.93 3.3-.68 2 1.43 3.49 1.43 2.5-1.18 3.49-1.43 2.43.87 3.3.68 1.63-3.49 1.56-5.17-2.38-4.07-3.61-4.88z" transform="translate(-33.43 -22.83)"/><path class="cls-6" d="M110 108a7.22 7.22 0 0 0-4.11-1.07c-2 .28-4.3 3.08-3.93 3.69s4.24 1.31 5.86.42 4.47-.19 6.11-.56 4.58-1.12 4-1.73a5 5 0 0 0-4.48-1.86c-2.53.25-2.21 1-3.45 1.11z" transform="translate(-33.43 -22.83)"/><path class="cls-6" d="M102.59 111s.21 2.91 6.44 2.54 7.8-2.07 8.36-4.06c0 0 .51-.3-5.41-.3a21.77 21.77 0 0 0-9.39 1.82z" transform="translate(-33.43 -22.83)"/><path class="cls-7" d="M126.05 150.12l-.32.11s1.3 8 2.71 15.52a7.51 7.51 0 0 0 .28 1.11 7 7 0 0 0 4.06 4.66 9.88 9.88 0 0 0 4.8.68 73.64 73.64 0 0 1-13 5c-7.22 2-10.72-.5-13.89-.87s-8 2.24-9.41 3.48-14.46 5.49-14.46 5.49 4-7 6.64-12.29c.9-1.77 1.64-3.34 2.08-4.41a8.14 8.14 0 0 0 .33-1.05c1.39-5 1.16-15.72 1.16-15.72a12.17 12.17 0 0 1-3.81 1l-6.66.13c-2.72-.15-4.8-.46-4.8-.46s2.07-10.3 5.24-15.26 14.28-12.71 14.28-12.71l.64 2.14 9.38 3 10.23-3.21a29.44 29.44 0 0 1 17.26 21.07 10.65 10.65 0 0 0-4 .18 68.92 68.92 0 0 0-8.67 2.4z" transform="translate(-33.43 -22.83)"/><path class="cls-7" d="M120.59 149.85a9 9 0 0 1-1.42 4.89 9.12 9.12 0 0 1-5.89 4.12 9.21 9.21 0 0 1-1.9.2c-2.22 0-3.09-1.18-4.67-2.48a22.58 22.58 0 0 1-2.66-2.45 6.44 6.44 0 0 1-1.9-4.28 8.87 8.87 0 0 1 .52-3 9.19 9.19 0 0 1 8.71-6.21 8 8 0 0 1 1.1.08 9.22 9.22 0 0 1 8.11 9.15z" transform="translate(-33.43 -22.83)"/><path class="cls-5" d="M111 152s-2.15-1.31-2.15-2.34 2.49-1.81 2.49-1.81l1.81 1.72s.21.28 0 1a1.49 1.49 0 0 1-1 1.16 3.64 3.64 0 0 1-1.15.27zM119.17 154.74a9.12 9.12 0 0 1-5.89 4.12l-1.23-2.59s.94-2.71 1.54-3.05A4.07 4.07 0 0 1 116 153a8.94 8.94 0 0 1 1.53 1.18 5.69 5.69 0 0 0 1.64.56zM106.2 151.17c-.22.46-1.69 2.71-1.69 2.71l-.46.25a6.44 6.44 0 0 1-1.9-4.28 8.87 8.87 0 0 1 .52-3l.23-.15a2 2 0 0 1 1.46.69 18.1 18.1 0 0 0 1.84 2.2c.32.2.21 1.11 0 1.58zM118.52 144c-.74.81-1.78 1.92-2.19 2.25-.69.52-4.4-1.29-4.66-1.78s.35-.72.81-1.35 0-2.45 0-2.45a9.19 9.19 0 0 1 6.04 3.33z" transform="translate(-33.43 -22.83)"/><path class="cls-8" d="M102.15 164.25s3.35-1.78 5.22-.79M105.31 161.4l-1.68 5.47s1.68-.84 2.24 0 .23 2.94-1.12 2.9" transform="translate(-33.43 -22.83)"/><path class="cls-8" d="M75.85 140.88l2.77-.35"/><path class="cls-8" d="M108.63 166s2.76-.75 3.6-.45" transform="translate(-33.43 -22.83)"/><path class="cls-8" d="M77.24 138.9l.7 6.54"/><path class="cls-8" d="M108 168.27s.91 2.24 2.7 2.1M114.58 165.51l-.44 3s2.71-3.37 3.74-1.52.52 3.11-.84 2.5M116.28 164.48s.28 4.54-.3 5.71M120.22 161.12c.47 1 .79 1.82.79 1.82M119.61 165.77a5.06 5.06 0 0 0 2.15-.71 1.35 1.35 0 0 1 2.15 1.43c-.23 1.87-2.2 5.29-3.32 5.15" transform="translate(-33.43 -22.83)"/><path class="cls-4" d="M101.31 124.53s11.27 7.29 18.38 0l2.24 2.3s-5.79 5-10.59 4.89-12-4.39-11.84-5.2 1.81-1.99 1.81-1.99z" transform="translate(-33.43 -22.83)"/><path class="cls-1" d="M96.35 191.26c2.37 1.62 9.64 1.62 12.11-.5s-.73-29.21-1.25-30.24-9.62-1.52-10.86.48 0 30.26 0 30.26z" transform="translate(-33.43 -22.83)"/><path class="cls-2" d="M91.81 200.35s-.69-11.71 8.51-11.71 9 11.71 9 11.71-10.78 4.65-17.51 0z" transform="translate(-33.43 -22.83)"/><path class="cls-1" d="M126.18 191.26c-2.37 1.62-9.65 1.62-12.12-.5s.74-29.21 1.25-30.24 9.62-1.54 10.87.51 0 30.23 0 30.23z" transform="translate(-33.43 -22.83)"/><path class="cls-2" d="M130.71 200.35s.69-11.71-8.5-11.71-9 11.71-9 11.71 10.79 4.65 17.5 0z" transform="translate(-33.43 -22.83)"/><path class="cls-3" d="M106.13 173.5c-2.25 1-7.72.43-12.64-.51-4.73-.9-8.94-2.13-9.32-2.6-.6-.8-.65-12.78.25-17.56a63.46 63.46 0 0 0 8.83 0c-1.54 4.1-4.44 12.08-4 13.19.24.64 3.26 1.15 6.69 1.51 4.47.48 9.64.72 10.23.69.99-.06 4.37 3.32-.04 5.28zM126.05 150.12c2 5.77 5 15 4.71 15.9-.12.31-.87.6-2 .84s-2.88.49-4.65.67c-4.47.48-9.64.72-10.23.69-1-.06-4.41 3.32 0 5.28 2.25 1 7.72.43 12.64-.51 2.36-.45 4.61-1 6.3-1.47a10.34 10.34 0 0 0 3-1.13c.55-.75-.2-16.72-1-22.69-.04 0-8.02 1.66-8.77 2.42z" transform="translate(-33.43 -22.83)"/><path class="cls-9" d="M44.8 225.25l-1.91-.31 1-6.13q-3.72-.63-7.44-1.32c-.38 2-.75 4.08-1.13 6.11l-1.91-.36q1.29-6.7 2.56-13.41l1.84.35-1.11 6q3.7.69 7.42 1.31c.33-2 .67-4 1-6l1.85.3zM51.66 226.31l-1.9-.28 2-13.5 1.84.27q-.95 6.75-1.94 13.51zM59.43 221.63l-.72 5.65-1.9-.25q.9-6.76 1.81-13.53l3.85.49a9.31 9.31 0 0 1 2.21.53 4.28 4.28 0 0 1 1.47.94 3.07 3.07 0 0 1 .78 1.29 4.2 4.2 0 0 1-.26 2.91 3.57 3.57 0 0 1-.8 1.05 4 4 0 0 1-1.17.72 5.68 5.68 0 0 1-1.5.36 2.09 2.09 0 0 1 .55.65q1.71 2.94 3.48 5.85l-1.7-.18a.85.85 0 0 1-.72-.48c-1-1.76-2.05-3.51-3.06-5.28a1.07 1.07 0 0 0-.32-.37 1.33 1.33 0 0 0-.57-.17zm.18-1.33l2 .24a4.79 4.79 0 0 0 1.47 0 2.9 2.9 0 0 0 1.11-.43 2.24 2.24 0 0 0 .73-.77 2.81 2.81 0 0 0 .34-1.06 2.21 2.21 0 0 0-.6-1.93 4 4 0 0 0-2.33-.9l-2-.26zM84.07 222.94a7.74 7.74 0 0 1-.69 2.78 6.16 6.16 0 0 1-3.88 3.36 7.6 7.6 0 0 1-2.89.27 7.47 7.47 0 0 1-2.79-.76 6.31 6.31 0 0 1-2.06-1.59 6.21 6.21 0 0 1-1.19-2.33 7.5 7.5 0 0 1-.21-2.86 7.63 7.63 0 0 1 .78-2.75 6.56 6.56 0 0 1 1.6-2.06 6.26 6.26 0 0 1 2.26-1.28 7.14 7.14 0 0 1 2.8-.27 7.34 7.34 0 0 1 2.71.74 6.3 6.3 0 0 1 2 1.6 6.66 6.66 0 0 1 1.23 2.31 7.56 7.56 0 0 1 .33 2.84zm-1.93-.13a7 7 0 0 0-.18-2.28 4.81 4.81 0 0 0-.85-1.76 4.35 4.35 0 0 0-1.46-1.19 5.56 5.56 0 0 0-2-.54 5.46 5.46 0 0 0-2 .2 4.22 4.22 0 0 0-1.63.91 4.72 4.72 0 0 0-1.15 1.59 7.43 7.43 0 0 0-.44 4.49 4.66 4.66 0 0 0 .84 1.78 4.26 4.26 0 0 0 1.48 1.2 5.52 5.52 0 0 0 2 .55 5.46 5.46 0 0 0 2.09-.2 4.18 4.18 0 0 0 1.66-.93 4.69 4.69 0 0 0 1.12-1.6 6.58 6.58 0 0 0 .52-2.22zM89.93 222.46h.71a1.64 1.64 0 0 0 .59-.06 1.06 1.06 0 0 0 .43-.29q2.45-2.44 4.84-4.93a1.3 1.3 0 0 1 .42-.32 1.07 1.07 0 0 1 .5-.08l1.58.06q-2.72 2.85-5.5 5.66a3.84 3.84 0 0 1-.4.35 1.6 1.6 0 0 1-.4.23 1.47 1.47 0 0 1 .47.28 4.8 4.8 0 0 1 .41.45q2.61 3.36 5.33 6.69l-1.66-.06a1.39 1.39 0 0 1-.32 0l-.22-.08-.16-.13-.16-.17a405.42 405.42 0 0 1-4.61-5.64 1.88 1.88 0 0 0-.19-.2.8.8 0 0 0-.21-.15.77.77 0 0 0-.28-.1 2 2 0 0 0-.39 0l-.85-.05q-.18 3.12-.35 6.24L87.6 230l.82-13.63 1.85.11-.34 5.98zM104.33 230.69l-1.92-.05q.18-6.82.35-13.65h1.85q-.13 6.88-.28 13.7zM132.18 223.52a7.7 7.7 0 0 1-.37 2.84 6.3 6.3 0 0 1-1.32 2.26 6.21 6.21 0 0 1-2.15 1.52 8.15 8.15 0 0 1-5.7.17 6.34 6.34 0 0 1-2.22-1.39 6.21 6.21 0 0 1-1.45-2.19 7.48 7.48 0 0 1-.54-2.81 7.8 7.8 0 0 1 .46-2.82 6.69 6.69 0 0 1 1.35-2.23 6.3 6.3 0 0 1 2.12-1.49 7.28 7.28 0 0 1 2.74-.58 7.38 7.38 0 0 1 2.78.42 6.52 6.52 0 0 1 2.2 1.36 6.7 6.7 0 0 1 1.48 2.15 7.81 7.81 0 0 1 .62 2.79zm-1.93.09a7 7 0 0 0-.45-2.25 4.67 4.67 0 0 0-1.05-1.65 4.22 4.22 0 0 0-1.57-1 5.34 5.34 0 0 0-2-.31 5.28 5.28 0 0 0-2 .42 4.34 4.34 0 0 0-1.52 1.1 4.75 4.75 0 0 0-1 1.71 6.72 6.72 0 0 0-.31 2.26 6.54 6.54 0 0 0 .39 2.25 4.64 4.64 0 0 0 1 1.67 4.3 4.3 0 0 0 1.6 1 5.49 5.49 0 0 0 2.07.31 5.41 5.41 0 0 0 2.06-.43 4.28 4.28 0 0 0 1.53-1.11 4.51 4.51 0 0 0 .93-1.73 6.72 6.72 0 0 0 .32-2.24zM142.52 228.42a9.83 9.83 0 0 0 1-.13 7.24 7.24 0 0 0 .89-.22 6 6 0 0 0 .78-.31c.24-.12.48-.25.72-.4l-.24-3-2.16.16a.41.41 0 0 1-.31-.08.34.34 0 0 1-.13-.25c0-.35-.05-.7-.07-1l4.28-.33.42 5.22a7.64 7.64 0 0 1-1.05.74 7.31 7.31 0 0 1-1.2.55 8.06 8.06 0 0 1-1.39.38 12.29 12.29 0 0 1-1.62.21 7.64 7.64 0 0 1-2.86-.32 6.47 6.47 0 0 1-2.29-1.3 6.32 6.32 0 0 1-1.56-2.12 7.43 7.43 0 0 1-.66-2.8 7.63 7.63 0 0 1 .35-2.87 6.1 6.1 0 0 1 1.29-2.28 6.46 6.46 0 0 1 2.13-1.56 8 8 0 0 1 2.87-.69 8.52 8.52 0 0 1 1.52 0 6.72 6.72 0 0 1 1.32.24 5.78 5.78 0 0 1 1.14.46 6.17 6.17 0 0 1 1 .64l-.46.88a.49.49 0 0 1-.4.29.7.7 0 0 1-.35-.08l-.56-.28a4.47 4.47 0 0 0-.75-.31 6.32 6.32 0 0 0-1-.23 7 7 0 0 0-1.39 0 5.63 5.63 0 0 0-2.07.51 4.55 4.55 0 0 0-1.54 1.18 4.75 4.75 0 0 0-.93 1.75 6.78 6.78 0 0 0-.23 2.25 6.59 6.59 0 0 0 .51 2.29 4.75 4.75 0 0 0 1.17 1.65 4.47 4.47 0 0 0 1.69 1 5.84 5.84 0 0 0 2.14.16zM157.31 227a4 4 0 0 0 1.53-.45 3.26 3.26 0 0 0 1.08-.93 3.5 3.5 0 0 0 .58-1.3 4.63 4.63 0 0 0 .07-1.59l-.93-8.25 1.84-.21c.32 2.75.65 5.49 1 8.24a6 6 0 0 1-.13 2.22 5.08 5.08 0 0 1-.9 1.87 5.21 5.21 0 0 1-1.64 1.35 6.72 6.72 0 0 1-4.69.49 5.19 5.19 0 0 1-1.88-1 4.89 4.89 0 0 1-1.27-1.64 6 6 0 0 1-.59-2.15c-.25-2.75-.5-5.51-.76-8.26l1.85-.17q.39 4.13.79 8.25a4.65 4.65 0 0 0 .4 1.54 3.3 3.3 0 0 0 2.09 1.84 4.12 4.12 0 0 0 1.56.15zM168.87 221.37c.25 1.88.51 3.76.76 5.65l-1.9.25q-.87-6.78-1.75-13.55c1.28-.16 2.57-.34 3.85-.52a9.26 9.26 0 0 1 2.27 0 4.27 4.27 0 0 1 1.67.52 3.05 3.05 0 0 1 1.09 1.05 4.11 4.11 0 0 1 .53 1.5 3.91 3.91 0 0 1 0 1.37 3.54 3.54 0 0 1-.5 1.22 3.91 3.91 0 0 1-1 1 5.35 5.35 0 0 1-1.36.74 2 2 0 0 1 .7.49q2.42 2.39 4.88 4.75l-1.69.26a.84.84 0 0 1-.82-.28c-1.45-1.42-2.9-2.86-4.32-4.3a1.11 1.11 0 0 0-.41-.28 1.38 1.38 0 0 0-.59 0zm-.18-1.34l2-.26a5 5 0 0 0 1.42-.4 2.84 2.84 0 0 0 1-.7 2.13 2.13 0 0 0 .51-.93 2.78 2.78 0 0 0 .05-1.12 2.14 2.14 0 0 0-1.07-1.7 4 4 0 0 0-2.49-.27l-2 .28c.13 1.7.36 3.4.58 5.07zM192.88 223.24l-1.46.28a.61.61 0 0 1-.43-.05.83.83 0 0 1-.3-.26l-1.89-3c-2.08.37-4.16.74-6.24 1.08-.25 1.16-.51 2.32-.77 3.47a.71.71 0 0 1-.18.34.67.67 0 0 1-.39.2l-1.47.24q1.74-7.2 3.29-14.39l1.87-.33q3.9 6.26 7.97 12.42zm-10-3.35c1.73-.29 3.45-.59 5.18-.9-1.06-1.69-2.1-3.39-3.14-5.09a9.7 9.7 0 0 1-.63-1.19c0 .27-.05.51-.08.74s-.06.43-.1.6c-.42 1.95-.83 3.89-1.25 5.84z" transform="translate(-33.43 -22.83)"/></svg>