<svg xmlns="http://www.w3.org/2000/svg" viewBox="0 0 399.23 295.29"><defs><style>.cls-1{fill:#231815}.cls-1,.cls-2,.cls-3,.cls-4,.cls-5,.cls-6,.cls-7,.cls-8{stroke:#231815;stroke-width:1.18px;stroke-miterlimit:10}.cls-2{fill:#848484}.cls-3{fill:#fffbc7}.cls-4{fill:#fff}.cls-5,.cls-8{fill:none}.cls-6{fill:#f7cbdf}.cls-7{fill:#d9d9da}.cls-8{stroke-linecap:round}</style></defs><g id="レイヤー_2" data-name="レイヤー 2"><g id="レイヤー_2-2" data-name="レイヤー 2"><path class="cls-1" d="M320.26 282.18l-.35 11.63s-6.09 1.09-9 .86c0 0-.37-1.55-2.37-13.53zM338.74 283.29l-1.03 10.2 9.7.82.5-11.69-9.17.67z"/><path class="cls-2" d="M305.27 243.82s-5.72 28.4-3.25 38.46c0 0 13.21 4.43 23.46-2 0 0-2.86-.59-3-4.63s1.38-32.73 2.17-35.2zM334.26 242s5.52 29.68 2.66 42.89c0 0 8.08 2.17 12.13.49s11.14-37.46 9.36-44.86z"/><path class="cls-3" d="M361.17 195.71S359 219 359.89 224.89s1.27 9.93 2.71 11.94 3.06 8.82 2.91 11.92 0 9.47-5 9.17-8-10.94-5-16.86-5.32-20.7-5.32-20.7l-1.48-19.23zM290.68 205.08s-.1 26.32.49 29.77-5.42 9.07-4.83 13.21 1 13.71 9.56 13.22 4.53-16.44 3.4-18.82-1.52-8.2-.14-12.83 5.51-24.26 5-28.2-13.48 3.65-13.48 3.65z"/><path class="cls-1" d="M368 132.07l-3.5-5.77-9.12 4.59-69.1 3.4.91 5.75 6.33 6.63v-4.48l7 7.44.9-4.1 10.1 6.51 1.92-2.22 7.86 4.28 3.93-2.11 4.63 7.59 7.15-8 1.48 1.08 7.39-5.62.59 1.57 8.92-7.7s.51 4.56 1 3.77l2.24-4.4 3.7 2.64 2.83-5.18z"/><path class="cls-3" d="M323.61 151.35s.05 11.63-.84 14.29 8.13 9.32 12.28 6.06.59-9 0-14.49-.89-8.58-.89-8.58zM280.39 119.79s-13.69-2.33-14.55 7.24S281.9 142.27 285 143s19.51-1.25 23.59-3.49l-12.53-15zM369.41 116s11.34-7.85 17.5-2 1.16 15.71-5.44 19-25.1 7.77-25.1 7.77z"/><path class="cls-3" d="M270.86 106.23s10.45 29 18.54 34.07 20.9 11.24 36.08 11 37.53-7.13 45.95-20.7 16-44.37 16-44.37L303 77.79l-30.56 11.44z"/><path class="cls-4" d="M340.86 106.63s7.2-14.56 28.64-4.58c0 0-1.33 4.43-4.51 5.4s-17.7 5.61-24.13-.82z"/><circle class="cls-5" cx="352.6" cy="104.76" r="2.81"/><path class="cls-4" d="M283.62 106.63s7.2-14.56 28.65-4.58c0 0-1.34 4.43-4.52 5.4s-17.7 5.61-24.13-.82z"/><circle class="cls-5" cx="295.36" cy="104.76" r="2.81"/><path class="cls-1" d="M248.68 71.58c-1-48.82 37.66-69.21 76.8-69.21s73.16 30.76 73.16 57.09S388.88 108 380 119.2l-.74-9.61-9.76-15.53v12.35s-5.84-10.2-6.28-12a5.94 5.94 0 0 0-.52 5.17s-3.47-3.92-4.21-6.87c0 0-2.44 3.42-2.74 4.66 0 0-2.76-3.48-3.15-4.22s-3.87 5.77-3.87 5.77l-2.08-4.44-2.73 5.62a28.29 28.29 0 0 1-.74-5l-2.32 5.32s-5.67-1.35-3.15-25.78c0 0-8.28 23-13.61 25.92a58.83 58.83 0 0 0-1.08-6 2.52 2.52 0 0 0-2.17-1.67s-.69 4.53-.89 4.93-2.46-5-2.66-6.41-3.16 1.18-3.25 3.06a7.73 7.73 0 0 1-3-5.72l-3.35 3.15a3.8 3.8 0 0 1-3.61-3.55l-.73 4.17-1.19-3.25s-3.47 1.1-3.77 3c0 0-1.48-5.1-1.51-5.92l-3.22 11.17s-.89-7.47-.81-8-3 5.1-3 5.1l-1.78-2.88-2.36 6.14-1.48-5.62s-3 13.31-3.11 18.56l-7.39-3.28 4.58 24.5-11.19-12.53s-17.56-4.15-18.45-47.93z"/><path class="cls-3" d="M333 114c-1.88-1.28-2.86-17-2.86-17l-4.64-.53-4.63.53s-1 15.74-2.86 17-5.62 5-5.72 7.69 1.09 7.89 2.47 8.18 3.64-1.48 5.22-1.08 3.16 2.26 5.52 2.26 3.95-1.87 5.52-2.26 3.85 1.38 5.23 1.08 2.56-5.52 2.46-8.18-3.86-6.43-5.71-7.69z"/><path class="cls-6" d="M327.06 136.51s-3.4-2.15-6.51-1.7-6.8 4.88-6.21 5.84 6.7 2.07 9.27.66 7.07-.29 9.66-.88 7.25-1.78 6.36-2.74a8 8 0 0 0-7.1-2.95c-4.07.44-3.53 1.62-5.47 1.77z"/><path class="cls-6" d="M315.29 141.22s.33 4.6 10.19 4 12.34-3.26 13.22-6.41c0 0 .82-.48-8.55-.48s-14.86 2.89-14.86 2.89z"/><path class="cls-7" d="M313.26 162.68S295.71 175 290.68 182.8 282.4 207 282.4 207s16.86 2.56 24.15-1.08c0 0 .4 19.62-2.36 26.52s-13.81 26.42-13.81 26.42 20.71-6.7 22.88-8.68 9.85-6.11 14.88-5.52 10.55 4.54 22 1.38a116.24 116.24 0 0 0 20.51-7.88s-12.23 1.77-14.45-10.21-4.28-24.55-4.28-24.55 15.82-5.62 20.7-4.29a46.55 46.55 0 0 0-27.3-33.33l-16.18 5.09-14.85-4.74z"/><path class="cls-7" d="M343.77 202.75a14.28 14.28 0 0 1-2.25 7.74 14.43 14.43 0 0 1-9.33 6.51 14.07 14.07 0 0 1-3 .33c-3.5 0-4.88-1.87-7.38-3.93a35.59 35.59 0 0 1-4.22-3.88 10.19 10.19 0 0 1-3-6.77 13.81 13.81 0 0 1 .83-4.78 14.58 14.58 0 0 1 28.35 4.78z"/><path class="cls-5" d="M328.64 206.21s-3.4-2.07-3.4-3.7 3.94-2.86 3.94-2.86l2.86 2.72s.34.44 0 1.57a2.34 2.34 0 0 1-1.58 1.83 5.91 5.91 0 0 1-1.82.44zM341.52 210.49a14.43 14.43 0 0 1-9.33 6.51l-1.94-4.09s1.49-4.29 2.44-4.83a6.56 6.56 0 0 1 3.88-.29 14.13 14.13 0 0 1 2.42 1.87 9 9 0 0 0 2.53.83zM321 204.84c-.35.73-2.67 4.28-2.67 4.28l-.74.4a10.19 10.19 0 0 1-3-6.77 13.81 13.81 0 0 1 .83-4.78l.35-.23a3.11 3.11 0 0 1 2.32 1.09 27.32 27.32 0 0 0 2.91 3.47c.5.36.33 1.8 0 2.54zM340.5 193.55c-1.18 1.28-2.82 3-3.48 3.55-1.09.83-7-2-7.36-2.82s.55-1.13 1.28-2.13 0-3.88 0-3.88a14.58 14.58 0 0 1 9.56 5.28z"/><path class="cls-8" d="M314.6 225.54s5.29-2.81 8.24-1.26M319.59 221l-2.66 8.66s2.66-1.33 3.55 0 .37 4.65-1.78 4.58M325.88 224.67l4.38-.54M324.84 228.35s4.36-1.19 5.7-.71M328.07 221.54l1.11 10.35M323.81 231.89s1.43 3.55 4.26 3.33M334.26 227.53l-.69 4.81s4.29-5.33 5.91-2.41.82 4.92-1.33 4M337 225.9s.44 7.18-.47 9M343.18 220.58c.74 1.55 1.26 2.88 1.26 2.88M342.22 227.94a8.17 8.17 0 0 0 3.4-1.12c1-.84 3.77-.69 3.4 2.26s-3.48 8.36-5.25 8.14"/><path class="cls-4" d="M313.26 162.68s17.84 11.54 29.08 0l3.55 3.65s-9.17 7.84-16.76 7.74-18.93-6.95-18.73-8.23 2.86-3.16 2.86-3.16z"/></g><g id="レイヤー_3" data-name="レイヤー 3"><circle cx="293.5" cy="42.25" r="4.5" fill="#8fcce6"/><path stroke="#8fcce6" stroke-width="3" fill="none" stroke-miterlimit="10" d="M293.5 42.25L232.75 1.5H0"/></g></g></svg>