<svg xmlns="http://www.w3.org/2000/svg" viewBox="0 0 107 95.09"><defs><style>.cls-1,.cls-2{fill:#fff}.cls-1,.cls-2,.cls-5,.cls-6,.cls-7{stroke:#000;stroke-miterlimit:10}.cls-1,.cls-5,.cls-7{stroke-width:1.53px}.cls-2,.cls-6{stroke-width:1.33px}.cls-6,.cls-7{fill:#98b85d}</style></defs><g id="レイヤー_2" data-name="レイヤー 2"><g id="レイヤー_1-2" data-name="レイヤー 1"><path class="cls-1" d="M87.12 35.61s14.17 1.3 11.61 21.62H95s4.77-13.38-9.48-19z"/><circle class="cls-2" cx="97.24" cy="64.72" r="9.09"/><path class="cls-1" d="M39 65.8s-6.76 14.3-4.59 19.4 4.59 0 4.59 0-.38-16.85 8.81-19.4z"/><path d="M87.9 35.61c0 3.77-1.18 7.34-2.28 10.75a35.24 35.24 0 0 1-4.58 10A35.58 35.58 0 0 1 73.15 64c-2.94 2.13-6.46 3.15-10 4.3a34.08 34.08 0 0 1-10.61 2.15 34 34 0 0 1-20.73-6.27c-3-2.15-5-5.3-7.15-8.27s-4.45-5.91-5.6-9.42-1.12-7.11-1.12-10.88a34.45 34.45 0 0 1 1.45-10.77 34.45 34.45 0 0 1 13-17c2.94-2.14 5.76-4.61 9.28-5.76A35.29 35.29 0 0 1 52.55.77a34.34 34.34 0 0 1 10.67 2 34.08 34.08 0 0 1 9.51 5.06 34.62 34.62 0 0 1 7.89 7.38 34.65 34.65 0 0 1 4.8 9.71c1.1 3.42 2.48 6.92 2.48 10.69z" fill="#91bfd9"/><path d="M87.9 35.61c0 3.77-1.18 7.34-2.28 10.75a35.24 35.24 0 0 1-4.58 10A35.58 35.58 0 0 1 73.15 64c-2.94 2.13-6.46 3.15-10 4.3a34.08 34.08 0 0 1-10.61 2.15 34 34 0 0 1-20.73-6.27c-3-2.15-5-5.3-7.15-8.27s-4.45-5.91-5.6-9.42-1.12-7.11-1.12-10.88a34.45 34.45 0 0 1 1.45-10.77 34.45 34.45 0 0 1 13-17c2.94-2.14 5.76-4.61 9.28-5.76A35.29 35.29 0 0 1 52.55.77a34.34 34.34 0 0 1 10.67 2 34.08 34.08 0 0 1 9.51 5.06 34.62 34.62 0 0 1 7.89 7.38 34.65 34.65 0 0 1 4.8 9.71c1.1 3.42 2.48 6.92 2.48 10.69z" fill="none" stroke-width="1.53" stroke="#000" stroke-miterlimit="10"/><path class="cls-5" d="M22.82 94s-3.07-5.87 0-7.28 12.89-2 14.55-1.78 3.19 4.11 2.42 5.12-4.08 5.48-16.97 3.94z"/><path class="cls-1" d="M71.07 63s9.58 17.1 7.41 22.2-4.6 0-4.6 0 .39-16.85-8.8-19.4z"/><path class="cls-5" d="M90.09 94s3.07-5.87 0-7.28S77.2 84.69 75.54 85s-3.19 4.11-2.42 5.12S77.2 95.54 90.09 94z"/><path class="cls-1" d="M19.88 35.61S5.71 36.91 8.27 57.23H12s-4.77-13.38 9.48-19z"/><circle class="cls-2" cx="9.76" cy="64.72" r="9.09"/><path class="cls-6" d="M60 44.65s-8.9 3.92-9.86 2.49-2.39-4.31-3.45-4.5S45.15 31 46.11 30.1s6.28-1.44 6.68-2 3.56.19 5.28.76 1.82.77 1.92 3-.1 3.35 1.15 4.4a4.19 4.19 0 0 1 1.24 4.69c-.77 1.49-.9 3.05-2.38 3.7zM60.93 1.66a4.66 4.66 0 0 1-1 2.88c-1.34 1.43-2.58 3-1.82 4.88s2.4 2.68 2.11 4.21 1.19 2.49 2.51 2.59 3.62 1.53 4 2.58.76 3.16 2.87 3 4.31-.86 4.69-2.87.29-2.87 2-3.07a11.17 11.17 0 0 0 4.15-1.35A35 35 0 0 0 60.93 1.66z"/><path class="cls-7" d="M24.73 20.11a21.88 21.88 0 0 1-3.24-.56A35 35 0 0 0 18 41a7.83 7.83 0 0 0 3.46 1.09c2.47 0 4.56-2.81 5.7-5.1s-.25-5.11-.76-6.13 1.52-2.86 1.9-2.98.51-2.79.51-2.79a7.81 7.81 0 0 1-.89-2.65c0-.99-1.92-2.33-3.19-2.33zM81.41 55.37a21.06 21.06 0 0 1-5-1.18 12.57 12.57 0 0 0-6.31-.64c-1 .25-4.38 2.51-5 3.68s-3.08 3.59-3.34 4.1a17.59 17.59 0 0 0 0 4.47 32.68 32.68 0 0 1-.08 3.58 35 35 0 0 0 19.73-14.01z"/></g></g></svg>