<svg xmlns="http://www.w3.org/2000/svg" viewBox="0 0 405.89 396.31"><defs><style>.cls-1{fill:#00a95f}</style></defs><g id="レイヤー_2" data-name="レイヤー 2"><g id="レイヤー_1-2" data-name="レイヤー 1"><path class="cls-1" d="M377.94 169.33c-.87-.21-1.75-.37-2.63-.51a37.25 37.25 0 0 0 1.35-4.39 36.18 36.18 0 0 0-5.24-28.62 7 7 0 0 1-.84-.79 31.37 31.37 0 0 0-20.41-10.81c-10.35-1.43-21.78 4.11-28.52 10.23a7 7 0 0 1-5.58 1.76 29.2 29.2 0 0 0-16.55 2.8 7 7 0 0 1-9.66-3.83 29.26 29.26 0 0 0-54.86-.07 7 7 0 0 1-5.77 4.52A29.33 29.33 0 0 0 204.08 162a28.81 28.81 0 0 0-.73 8.58 7 7 0 0 1-4.42 6.94 30.28 30.28 0 0 0-4.62 2.33 7.05 7.05 0 0 1-3.65 2.67 29.29 29.29 0 0 0-9.49 15.48 7 7 0 0 1-6.81 5.39 6.87 6.87 0 0 1-1.61-.19 7 7 0 0 1-5.2-8.42 43.28 43.28 0 0 1 15-23.78c.16-.81.28-1.63.36-2.45a25.32 25.32 0 0 0-5.84-18.78 27.83 27.83 0 0 0-19.23-9.88 29.1 29.1 0 0 0-18.39 4.59 7 7 0 0 1-9.94-2.42 27.72 27.72 0 0 0-21.94-13.8 28.94 28.94 0 0 0-10.8 1.09 7.1 7.1 0 0 1-3.88 0c-.1 0-.65 0-1.05-.05a13.75 13.75 0 0 1-7.65-2.11c-3.45-2.35-8.94-3.07-14.34-1.87a25.15 25.15 0 0 0-3.12.94 34.57 34.57 0 0 0-12.15 12.06 35.12 35.12 0 0 0-6-1c-19.17-1.65-36.17 11.95-38 30.37a32.11 32.11 0 0 0 2.81 16.62A33.21 33.21 0 0 0 .16 207.59c-1.59 16.17 9.06 30.67 24.65 35.09a32.48 32.48 0 0 0-.73 4.34c-1.81 18.41 12.27 34.68 31.44 36.32a35.88 35.88 0 0 0 23.85-6.43 34.48 34.48 0 0 0 29.39 21.47 35.82 35.82 0 0 0 26.88-8.82c19.81 29.31 22.86 38.82 21.76 47.62-1.39 11.26-.21 33.33-.16 34.26a9.5 9.5 0 0 0 .84 3.4c7.2 15.85 35.88 21.47 58.25 21.47 33.42 0 54.91-11.62 56.08-30.33v-.59c0-36.39.87-48.78 12.91-72.05a36.28 36.28 0 0 0 37-16 36.28 36.28 0 0 0 57.5-37.88 36.27 36.27 0 0 0-1.89-70.1zm-161.6 208.06c-21.83 0-36.7-5.66-40.33-9.39-.32-7.24-.71-21.43.17-28.49 1.81-14.68-2.94-27.77-23-57.81l.56.07a36 36 0 0 0 17.52-2.86l13.25 21a9.46 9.46 0 0 0 17.34-6.52l-9-56.57a36.26 36.26 0 0 0 7 2.78 36.29 36.29 0 0 0 23.79 39l-2 24.52a9.46 9.46 0 0 0 18.46 3.56l8.9-28.5a36.72 36.72 0 0 0 9.72-5.68 36.49 36.49 0 0 0 9.52 12.72c-13.5 26.25-14.73 40.87-14.74 79.8-.67 6.12-14.62 12.37-37.16 12.37z"/><path class="cls-1" d="M91.58 115.28h.85c.61 0 1.3 0 2 .13a42.85 42.85 0 0 1 14.33-1.16 42 42 0 0 1 29.05 15.18 43.22 43.22 0 0 1 21.21-3.55 41.75 41.75 0 0 1 28.8 14.87 40.24 40.24 0 0 1 5.71 9.12 43.48 43.48 0 0 1 29.94-23.56 43.27 43.27 0 0 1 76.53-2.5 42.76 42.76 0 0 1 14.63-1.81c10.27-8.27 23.58-12.79 35.21-11.92a28.71 28.71 0 0 0 13.92-24.9c-.25-13.89-10.67-25.34-24.35-28a28.23 28.23 0 0 0 1.18-8.55c-.29-16-14.13-28.83-30.91-28.56a31 31 0 0 0-21.06 8.61c-4.09-11.71-15.75-20-29.34-19.83a31.76 31.76 0 0 0-10.15 1.85 53.86 53.86 0 0 1 9.24 25.88c18.35 5.7 30.65 24.44 28.66 45a6.7 6.7 0 0 1-6.66 6h-.65a6.7 6.7 0 0 1-6-7.31c1.5-15.52-8.54-29.47-22.85-31.76a6.69 6.69 0 0 1-5.65-6.51c0-11.51-5.75-33.76-28-35.61a7.61 7.61 0 0 1-1.08-.19 32.46 32.46 0 0 0-22 11A33.49 33.49 0 0 0 169 .21c-14.49-1.67-27.75 6.75-33.66 20a32.1 32.1 0 0 0-13.72-4.92c-18.38-2.12-34.81 12-36.7 31.55A37.48 37.48 0 0 0 87.3 64a35.2 35.2 0 0 0-19.79 28.82 37.42 37.42 0 0 0 2.78 18.26c7.81-1 15.53.5 21.29 4.2z"/></g></g></svg>