<svg xmlns="http://www.w3.org/2000/svg" viewBox="0 0 373.84 319.93"><defs><style>.cls-1{fill:#8dc556}</style></defs><g id="レイヤー_2" data-name="レイヤー 2"><g id="レイヤー_1-2" data-name="レイヤー 1"><path class="cls-1" d="M353.69 209.61a1 1 0 0 1-.91-.6 161.08 161.08 0 0 0-18.53-31.63 1 1 0 0 1-.17-.82c4.91-21.17 7.31-34.33-.31-58.73a7.6 7.6 0 1 0-14.51 4.54c5.07 16.23 4.85 26.19 2.75 37.91a1 1 0 0 1-.7.78.92.92 0 0 1-.29 0 1 1 0 0 1-.72-.31 213.53 213.53 0 0 0-33.3-28.62 1 1 0 0 1-.42-.7l-.06-.4c-.41-2.24-2.59-14.08-5.06-25.81a1 1 0 0 1 .41-1 1 1 0 0 1 .57-.18 1 1 0 0 1 .53.15 28.16 28.16 0 0 0 15 4.52 31.23 31.23 0 0 0 11.03-2.18 25 25 0 0 1 9.24-1.74 55 55 0 0 1 5.53.37 56.06 56.06 0 0 0 5.74.38 20.67 20.67 0 0 0 13.55-4.63 17.94 17.94 0 0 0 2-1.9 1 1 0 0 1 .73-.32 1 1 0 0 1 .75.38c17.81 22.79 27.22 49.05 27.22 76a114.81 114.81 0 0 1-1.11 15.92 1 1 0 0 1-1 .86h-.06a1 1 0 0 1-.94-1 188.51 188.51 0 0 0-7-47 7.62 7.62 0 0 0-7.34-5.63 7.39 7.39 0 0 0-2 .27 7.61 7.61 0 0 0-5.36 9.31c5.91 22 7.64 40.77 5.59 61a1 1 0 0 1-.84.89zM190.25 319.93a233.15 233.15 0 0 1-29-1.82 1 1 0 0 1-.86-.86 14.43 14.43 0 0 0-5.18-9.24c-10.64-8.6-20.46-31.28-17.54-50.08 1.9-12.21 8.73-20.44 20.87-25.16 28.83-11.21 33.76-21.49 40-38.7 1.54-4.25 3.29-9.07 6-14.73 5.82-12.28 3.51-22.05 1.82-29.19-1.51-6.4-2.27-9.61 1.39-16.37a42.75 42.75 0 0 0 4.42-15.56 1 1 0 0 1 .43-.72 1 1 0 0 1 .56-.18.84.84 0 0 1 .27 0A70.86 70.86 0 0 0 231 120.1h.89a1 1 0 0 1 .36.07 215.26 215.26 0 0 1 43.1 22.48 1 1 0 0 1-.56 1.83h-.06c-24-1.44-40.46-2-40.62-2h-.29a7.6 7.6 0 0 0-.24 15.2c2.94.1 29.77 1.12 65 3.63a1.15 1.15 0 0 1 .64.27c16.58 15.3 29.81 33 38.26 51.1a1 1 0 0 1 0 .9 1 1 0 0 1-.74.51 378.13 378.13 0 0 1-47.42 2.72c-25.38 0-46.22-2.05-55.75-5.48a7.6 7.6 0 0 0-5.15 14.3c11.29 4.07 33.23 6.4 60.18 6.4 19.9 0 40.15-1.29 54.17-3.46h.23a1 1 0 0 1 .95.71 109 109 0 0 1 4.06 19.5 1 1 0 0 1-.19.72A162 162 0 0 1 306 287.51a1 1 0 0 1-.54.16h-.21a7.53 7.53 0 0 0-1.56-.17c-56.87 0-83.6-7.54-106.25-18.86a7.47 7.47 0 0 0-3.4-.81 7.6 7.6 0 0 0-3.4 14.4c17.46 8.73 39.67 17.16 83.49 19.69a1 1 0 0 1 .32 1.93 225.12 225.12 0 0 1-84.16 16.1zm77.43-200.01a1 1 0 0 1-.49-.13c-5.42-3-11-5.83-16.52-8.37a1 1 0 0 1-.54-.63 1 1 0 0 1 .12-.82c3.89-6.1 7.92-12.42 11.84-15.2a1 1 0 0 1 .58-.18 1 1 0 0 1 .35.06 1 1 0 0 1 .62.7c1.72 7 3.68 16.57 5 23.38a1 1 0 0 1-1 1.19z"/><path class="cls-1" d="M231 104.9c-7 0-15.11-2.49-19.32-4a1 1 0 0 1-.65-.72A44.1 44.1 0 0 0 204 83.93c-1.82-2.5-1.79-2.84-1.47-7 .47-6.12 1.18-15.37-3.56-30.65a39.07 39.07 0 0 0-3.54-7.74c-1.39-2.5-2-3.68-2.22-5.54a13.3 13.3 0 0 1 0-2 1 1 0 0 1 .91-.95c3.77-.32 7.42-.48 11.16-.48 1.89 0 3.76 0 5.71.11a1 1 0 0 1 1 .89 194.1 194.1 0 0 1-.15 40.77 7.6 7.6 0 0 0 6.8 8.32 6.62 6.62 0 0 0 .77 0 7.57 7.57 0 0 0 7.55-6.85 214.94 214.94 0 0 0 .49-40.54 1 1 0 0 1 .3-.81 1 1 0 0 1 .7-.28h.12l.82.1a1.07 1.07 0 0 1 .33.11c5.59 2.84 20.44 10.38 30.35 30.69a7.6 7.6 0 0 0 13.66-6.66 85.8 85.8 0 0 0-10.36-16.37 1 1 0 0 1 .78-1.63h.23c18.93 4.47 30.61 12.82 40 19.53 9 6.41 16.72 11.95 27 11.95a28.16 28.16 0 0 0 3.42-.21h.12a1 1 0 0 1 .83.44 7.28 7.28 0 0 1 .69 1.48c2.09 6 .12 16.06-2.79 18.39a5.67 5.67 0 0 1-4.06 1.3c-1.17 0-2.53-.13-4.11-.29a67 67 0 0 0-7.16-.46 40.59 40.59 0 0 0-14.65 2.73 15.77 15.77 0 0 1-5.67 1.21c-4.7 0-8.52-3.06-12.94-6.6-3.87-3.11-8.25-6.62-13.81-8.06h-.11l-.32-.09h-.15l-.4-.08a20.41 20.41 0 0 0-4.36-.47c-13.31 0-21.07 12.15-28.57 23.89l-1.19 1.86a.94.94 0 0 1-.45.38 12.24 12.24 0 0 1-4.62.65zm-90.25 212.84a203.32 203.32 0 0 1-56.6-13.62 1 1 0 0 1-.62-.83 1 1 0 0 1 .45-.94c8.39-5.43 13.13-9.23 13.64-9.64A7.6 7.6 0 0 0 88 280.92a196.9 196.9 0 0 1-21.6 14.41 1 1 0 0 1-1 0c-20-10.88-36.05-24.87-47.59-41.58a1 1 0 0 1-.08-1 1 1 0 0 1 .82-.57c28.07-2.2 47.69-4 58.72-6.4a7.6 7.6 0 0 0-1.59-15 7.1 7.1 0 0 0-1.59.17c-12 2.58-39.82 4.83-64.9 6.74h-.03a1 1 0 0 1-.9-.58c-1.41-3-2.7-6-3.85-9.11a.94.94 0 0 1 0-.47 7.55 7.55 0 0 0-.41-3.37 80.63 80.63 0 0 1-3.28-34.62 1 1 0 0 1 .5-.76 6.05 6.05 0 0 0 .79-.53c6.24-4.88 20.55-7.46 41.37-7.46 19.51 0 44.58 2.3 72.5 6.66a6.75 6.75 0 0 0 1.19.1 7.6 7.6 0 0 0 1.15-15.11c-29.1-4.55-54.09-6.86-74.25-6.86-15.24 0-27.72 1.35-37.09 4a.84.84 0 0 1-.27 0 1 1 0 0 1-.94-1.34 88.63 88.63 0 0 1 4.86-11.11 83.55 83.55 0 0 1 32.25-33.63 1 1 0 0 1 .45-.14h.2c4.11-.27 8.14-.41 12-.41 21.8 0 36.09 4.39 48.7 8.27 10.2 3.14 19.84 6.11 31.45 6.11a69.21 69.21 0 0 0 12.78-1.2 7.6 7.6 0 0 0-1.36-15.08 8.13 8.13 0 0 0-1.38.12 54.57 54.57 0 0 1-10.06 1c-9.28 0-17.46-2.52-26.94-5.44a217.49 217.49 0 0 0-23.32-6.14 1 1 0 0 1-.07-2c28.64-7.89 47.56-13.1 69.44-31.07a7.6 7.6 0 0 0-4.83-13.47 7.59 7.59 0 0 0-4.84 1.73c-17.17 14.1-33 19.39-50.37 24.39a.86.86 0 0 1-.28 0 1 1 0 0 1-.84-.46 1 1 0 0 1 .09-1.19c12.67-14.61 26.29-24.7 39.12-33.42a7.6 7.6 0 1 0-8.55-12.57c-22 15-40 30-56.17 54.76a1.09 1.09 0 0 1-.57.42q-3.69 1-7.62 2.17a112.44 112.44 0 0 0-20.72 8.24.92.92 0 0 1-.46.11 1 1 0 0 1-.75-.33 1 1 0 0 1-.08-1.23c7.12-10.41 16.36-16.8 30.34-26.49a7.6 7.6 0 0 0-4.32-13.85 7.49 7.49 0 0 0-4.32 1.35C36.12 83.9 23.25 92.81 12 126.66a7.66 7.66 0 0 0-.38 2.27 1.07 1.07 0 0 1-.26.66A97.77 97.77 0 0 0 1.84 142a1 1 0 0 1-.84.46 1.09 1.09 0 0 1-.39-.08 1 1 0 0 1-.61-1.2C14.18 79.45 62.54 52.75 97.68 38c12.33-5.16 21.66-8.25 29.17-10.74 15.9-5.27 23.87-7.92 35.23-21.54C165.13 2.1 169 0 172.75 0a8.27 8.27 0 0 1 6.37 2.78c2.21 2.47 3.13 6.24 2.66 10.92a1.05 1.05 0 0 1-.06.24c-6.92 18.82-2.84 26.13.44 32a25.92 25.92 0 0 1 2.29 4.85c3.89 12.51 3.35 19.42 2.93 25-.45 5.85-.78 10.08 4.33 17.11 6.61 9.09 6.83 25.86 2.6 33.67-6.43 11.86-4.51 20-2.82 27.1 1.43 6 2.77 11.73-.76 19.19a172 172 0 0 0-6.52 16.06c-4.93 13.62-7.41 20.46-31.21 29.71-21.66 8.42-28.47 24.77-30.38 37-3.55 22.87 6.84 47.73 18.94 60.46a1 1 0 0 1 .18 1.12 1 1 0 0 1-.9.57z"/></g></g></svg>