<svg xmlns="http://www.w3.org/2000/svg" viewBox="0 0 368.13 417.01"><g data-name="レイヤー 2"><path d="M35.1 417c-14.46 0-24.81-3.51-29.95-10.14-4.88-6.31-6.36-15.77-4.15-26.65 2.75-13.56 10.77-28.35 23.19-42.79 14.38-16.72 33.66-31.93 57.3-45.22l4.07-2.28c93.91-52.76 129.05-72.5 196.56-238.92 13.57-33.46 39.73-51 58.55-51a28.26 28.26 0 0 1 10.62 2c6.95 2.81 13.26 16.11 15.69 33.09a123.29 123.29 0 0 1-7.2 61.31c-29.25 74.83-58.78 130.24-92.94 174.34-34.3 44.28-75.44 80-129.48 112.39C102.51 404 63.32 417 35.1 417zm62.64-98.78a18.8 18.8 0 0 0-15.83 9.18 7 7 0 0 0 2.22 9.65 7.07 7.07 0 0 0 3.71 1.06 7 7 0 0 0 5.94-3.28 5 5 0 0 1 4-2.61 3.73 3.73 0 0 1 .47 0 7.44 7.44 0 0 0 1.15.1 7 7 0 0 0 1.13-13.91 16.79 16.79 0 0 0-2.74-.23zm69-30.13c-7.07 0-13.64 4.5-16.75 11.46a7 7 0 0 0 3.55 9.24 6.86 6.86 0 0 0 2.85.61 7 7 0 0 0 6.39-4.15c.86-1.92 2.41-3.16 4-3.16h.23a7 7 0 0 0 7-6.84 7 7 0 0 0-6.83-7.15zm-42.91-5.45c-6.74 0-12.59 4.29-15.63 11.48a7 7 0 0 0 12.8 5.48c.83-2 1.78-3 2.8-3a3.06 3.06 0 0 1 .86.16 6.89 6.89 0 0 0 2 .3 7.05 7.05 0 0 0 6.7-5 7 7 0 0 0-4.71-8.71 17.15 17.15 0 0 0-4.91-.74zm64.8-33.29c-7.07 0-13.64 4.5-16.75 11.46a7 7 0 1 0 12.79 5.71c.86-1.92 2.41-3.17 4-3.17h.22a7.05 7.05 0 0 0 7-6.84 7 7 0 0 0-6.83-7.16zm46-25.25c-8.59 0-15.08 6.08-16.52 15.48a7 7 0 0 0 5.85 8 7.59 7.59 0 0 0 1.07.08 7 7 0 0 0 6.91-5.94c.56-3.61 2-3.61 2.56-3.61h.58a7 7 0 0 0 .3-14h-.75zm-4-35.16a7.32 7.32 0 0 0-1.62.19c-7 1.67-12.41 7.71-13.69 15.41a7 7 0 0 0 5.76 8 7.55 7.55 0 0 0 1.15.1 7 7 0 0 0 6.9-5.86c.35-2.11 1.57-3.71 3.1-4.07a7 7 0 0 0-1.6-13.82zm31.77-32.32a6.8 6.8 0 0 0-1.49.16c-8.79 1.91-13.82 9.49-12.82 19.32a7 7 0 0 0 7 6.29h.72a7 7 0 0 0 6.25-7.68c-.38-3.72 1.07-4 1.86-4.21a7 7 0 0 0-1.48-13.84zm12-41.15a7.39 7.39 0 0 0-1.62.19c-8.75 2.08-13.64 9.75-12.45 19.56a7 7 0 0 0 6.94 6.16 8.24 8.24 0 0 0 .85 0 7 7 0 0 0 6.11-7.8c-.45-3.72 1-4.06 1.77-4.24a7 7 0 0 0-1.6-13.82zm34.15-5.33a7.42 7.42 0 0 0-1.05.08c-8.9 1.36-14.39 8.61-14 18.48a7 7 0 0 0 7 6.72h.27a7 7 0 0 0 6.72-7.27c-.14-3.74 1.33-4 2.12-4.09a7 7 0 0 0-1.05-13.92zm-8.31-41.76a7.36 7.36 0 0 0-1.75.22c-8.71 2.25-13.45 10-12.06 19.81a7 7 0 0 0 6.92 6 6.61 6.61 0 0 0 1-.08 7 7 0 0 0 5.95-7.91c-.53-3.71.92-4.08 1.69-4.28a7 7 0 0 0-1.74-13.78z" fill="#519768" data-name="レイヤー 1"/></g></svg>