<svg xmlns="http://www.w3.org/2000/svg" viewBox="0 0 272.64 361.78"><defs><style>.cls-1{fill:#00a95f}</style></defs><g id="レイヤー_2" data-name="レイヤー 2"><g id="レイヤー_1-2" data-name="レイヤー 1"><path class="cls-1" d="M73.48 215.39c-1.3-7.61-2.6-14.88-3.85-21.91-10-55.95-17-95.36 1.75-133.37C44.08 53.66 16 60.05 5 88.62c-13.07 34 2.61 60.12 10.45 94.1S37.23 260.28 37 305.57c-.1 22.36 20.21 32.95 40.65 31.15.14-3.32.35-6.93.58-10.91 1.44-24.69 3.57-62.01-4.75-110.42zM267.62 88.62c-11-28.57-39.06-35-66.37-28.51C220 98.12 213 137.53 203 193.49c-1.26 7-2.55 14.29-3.86 21.9-8.32 48.42-6.19 85.73-4.77 110.42.23 4 .43 7.59.57 10.91 20.44 1.8 40.76-8.79 40.66-31.15-.21-45.29 13.71-88.87 21.55-122.85s23.54-60.12 10.47-94.1z"/><path class="cls-1" d="M178.4 326.73c-1.45-25.42-3.65-63.83 5-114 1.32-7.66 2.62-15 3.88-22 10.61-59.73 17.2-96.73-5.83-133.2-10.13-7.38-25.28-10.73-45.13-10.73s-35 3.35-45.14 10.73C68.16 94 74.74 131 85.38 190.67c1.26 7.06 2.56 14.35 3.87 22 8.63 50.21 6.44 88.63 5 114.05-.44 7.63-.91 15.93-.71 21.42 9.74 8.59 25.71 13.63 42.8 13.63s33.05-5 42.79-13.63c.19-5.47-.29-13.78-.73-21.41zM147 33a242.12 242.12 0 0 0 4.43-26.6c-5.66-8.5-15.1-7.55-21.71-2.84 0 0 0 15.73-2.74 29.34q4.5-.26 9.34-.26c3.68 0 7.23.12 10.68.36z"/></g></g></svg>