<svg xmlns="http://www.w3.org/2000/svg" viewBox="0 0 382.65 479.56"><defs><style>.cls-1{fill:#00a95f}</style></defs><g id="レイヤー_2" data-name="レイヤー 2"><g id="レイヤー_1-2" data-name="レイヤー 1"><path class="cls-1" d="M34.93 425.94c-4.41-4.21-8.95-8.37-12.31-11.44-1.42-1.31-2.88-2.64-3.73-3.44a6.67 6.67 0 0 1 1.11-2.13c39.14-41.6 117-146.6 171.43-240.67a104.32 104.32 0 0 0 17.4 11.48c7.68-13.59 14.91-27.08 21.51-40.27.22-.44 1-2.24 1.84-4.06 6-41.17 8.89-82.84 7.84-111.76a22.83 22.83 0 0 1 3.31-12.37c-.07-1.71-.15-3.48-.24-5.37-.1-2.2-2.79-6.16-6.28-5.9-8.23.64-22.39 1.7-24.81 1.77-3.46.1-4.95 5.27-4.85 7.91 1.07 29.5-1.51 63.65-7.71 104.54C144.09 223.26 44.69 355.17 6.25 396c-5.64 6-10 18.92-1.43 27.63.74.75 2.17 2.06 5.08 4.73 4.71 4.31 11.81 10.82 17.34 16.35a20 20 0 0 0 5.87 4.53 33.07 33.07 0 0 1 1.82-23.3z"/><path class="cls-1" d="M380 59.08c-6.45-4-16.61-10.37-19.09-12.16-3.72-2.67-7.65-1-10.55 3.44-2.64 4-6.3 9.47-10.7 15.86-17.82 38.53-45.18 68.65-56.94 81.59-1.35 1.48-2.46 2.71-3.31 3.67a5.12 5.12 0 1 1-7.69-6.76c.88-1 2-2.26 3.42-3.79 11.53-12.69 38.45-42.33 55.59-79.8 3.89-13.91 6.91-25.49 8.68-32.43.69-2.69-2-6.72-6.56-7.85l-20.55-5.11c-4-1-7.62 3.19-8.33 6-4.18 16.22-10.81 40.46-18.33 64.76 2.09-25.5 2.88-49 2.07-67-.1-2.2-2.79-6.16-6.28-5.89-8.23.63-22.39 1.7-24.82 1.76-3.46.1-4.94 5.27-4.85 7.92 1.08 29.41-1.8 72-8.18 115.49 0 0-2.18 4.94-2.73 6C186.18 254 88.85 383.06 49.71 424.65c-5.64 6-10 18.92-1.43 27.63.74.75 2.17 2.06 5.07 4.72 4.72 4.32 11.82 10.82 17.36 16.37a17.69 17.69 0 0 0 10.82 6.05c5.38.72 10.76-1.42 15.17-6 48.25-50.47 149.74-187.47 207-303.19.32-.65 2.07-3.93 2.07-3.93 32.23-32.9 63.28-78.7 75.09-96.69 2.66-4.02 2.34-8.54-.86-10.53zM83.71 459.72c-5.78-5.75-12.89-12.26-17.63-16.61-1.42-1.3-2.88-2.63-3.72-3.42a6.55 6.55 0 0 1 1.07-2.13c40-42.55 117.39-146.91 171-241 6.45 5.23 15.68 11.64 25.78 15.31-57.08 100.41-135.68 204.93-176.5 247.85z"/></g></g></svg>