<svg xmlns="http://www.w3.org/2000/svg" viewBox="0 0 557.44 229.87"><path d="M485.05 178.79v-73.13a10.23 10.23 0 0 0-20.46 0v82.13c-60.22 25.36-113.88 37.78-161.36 41.13v-76.34a10.23 10.23 0 0 0-20.46 0v77.24c-37.4.64-70.71-4.42-100.14-13.07v-64.17a10.23 10.23 0 1 0-20.46 0V210C49 167.94 0 74.1 0 74.1c42.06-25 82.33-42.68 120.6-54.48v50.06a10.23 10.23 0 1 0 20.46 0V13.8A421.35 421.35 0 0 1 241.33 0a10.22 10.22 0 0 0-.54 3.29v87.54a10.23 10.23 0 1 0 20.46 0V3.29a10.44 10.44 0 0 0-.47-3.08 392.17 392.17 0 0 1 58.69 6.5v30.12a10.23 10.23 0 0 0 20.46 0V11.12C477.12 44.45 557.44 141 557.44 141c-25.08 14.64-49.2 27.16-72.39 37.79z" fill="#906595" data-name="レイヤー 2"/></svg>