<svg xmlns="http://www.w3.org/2000/svg" viewBox="0 0 338.73 298.66"><defs><style>.cls-1{fill:#ea5541}</style></defs><g id="レイヤー_2" data-name="レイヤー 2"><g id="レイヤー_1-2" data-name="レイヤー 1"><path class="cls-1" d="M245.91 49.89a74.13 74.13 0 0 1-5.08 4.11c4.77 3 8.85 5.61 13.28 8.34 7.59 4.67 11.25 13.13 9.1 21-2.08 7.66-9.11 12.92-17.49 13.1h-2.56A113.37 113.37 0 0 1 215 93.06c-5.89-1.54-11.73-2.59-17-3.5-.89 7.34-2.93 12.62-5.62 18.77-.79 1.81-1.6 3.67-2.42 5.79q-.15.39-.33.78c-5.42 12.1-14.63 13.43-18.36 13.43h-.81c-3.71 0-12.94-1.31-18.39-13.43q-.18-.39-.33-.78c-.82-2.12-1.63-4-2.42-5.79-2.69-6.15-4.73-11.43-5.62-18.77-5.27.91-11.11 2-17 3.5a113.37 113.37 0 0 1-28.13 3.46h-2.56c-8.38-.18-15.41-5.44-17.49-13.1-2.15-7.92 1.51-16.38 9.1-21C92.05 59.61 96.13 57 100.9 54c-2-1.47-3.92-3.06-5.76-4.72C38.81 63.83 0 97.15 0 151.66c0 76.22 75.83 147 169.37 147s169.36-70.78 169.36-147c0-53.76-37.73-86.91-92.82-101.77zM59.57 201.26a10 10 0 0 1-16.81 10.84c-11.38-17.66-17.39-37.26-17.39-56.68 0-21.23 7-39.51 20.86-54.33a10 10 0 0 1 14.62 13.66c-10.28 11-15.48 24.67-15.48 40.67 0 15.58 4.91 31.42 14.2 45.84z"/><path class="cls-1" d="M160.57 41.68c-12-7.19-22.3-10.53-34.7-13a142.59 142.59 0 0 1-27.84-8 5.13 5.13 0 0 0-1.92-.44c-1.63 0-2.34 1.23-1.29 3.33C98.44 30.85 106.36 39 114.7 44c8 5.24 16.45 6.31 20.85 9.25a137.77 137.77 0 0 0-23.18 12.42c-6.1 3.87-11 7-16.35 10.29-2.85 1.75-2.88 4.46.33 4.53h2.22a97.08 97.08 0 0 0 24.09-2.94c16.11-4.2 30.53-4.91 37.21-8.25-2.28 23.28 1.72 25.92 6.79 39 1.2 2.67 2.5 4 3.8 4a2.85 2.85 0 0 0 .41 0 2.58 2.58 0 0 0 .4 0c1.3 0 2.6-1.33 3.8-4 5.07-13.08 9.07-15.72 6.8-39 6.67 3.34 21.09 4 37.19 8.25a97.21 97.21 0 0 0 24.1 2.94h2.22c3.21-.07 3.18-2.78.34-4.53-5.35-3.29-10.26-6.42-16.35-10.29a138.29 138.29 0 0 0-23.19-12.42c4.4-2.94 12.88-4 20.85-9.25 8.34-5 16.26-13.15 19.88-20.44 1.05-2.1.34-3.33-1.29-3.33a5.09 5.09 0 0 0-1.92.44 142.3 142.3 0 0 1-27.83 8c-14.11 2.82-25.53 6.74-39.73 16.18a7.91 7.91 0 0 0 .42-2.54c0-7.62 3.39-14.73 6.8-19.94a54.67 54.67 0 0 1 6.86-8.58 8 8 0 0 0-11-11.59 69.78 69.78 0 0 0-15.23 23 47.12 47.12 0 0 0-3.42 16.48z"/></g></g></svg>