<svg xmlns="http://www.w3.org/2000/svg" viewBox="0 0 305.25 105.5"><defs><style>.cls-1{fill:#ee712b;}</style></defs><title>corgi</title><g id="レイヤー_2" data-name="レイヤー 2"><g id="レイヤー_1-2" data-name="レイヤー 1"><path class="cls-1" d="M57.89,69.22A41,41,0,0,1,44.8,78a42.65,42.65,0,0,1-17.23,3.44q-14.25,0-20.91-7T0,56.66a57.26,57.26,0,0,1,6.89-28A52.17,52.17,0,0,1,25.47,8.94,47.32,47.32,0,0,1,50.71,1.75a19.9,19.9,0,0,1,9.81,2.46,17.77,17.77,0,0,1,7,7.06A21.91,21.91,0,0,1,70.1,22.08a7.86,7.86,0,0,1-2.63,6,9.92,9.92,0,0,1-7.07,2.45q-3.49,0-4.73-1.87a8.54,8.54,0,0,1-1.23-4.79l.12-3.73q0-2.12-2.34-4.09a6.92,6.92,0,0,0-4.32-2q-6.54,0-14.37,5.9a47.82,47.82,0,0,0-13.2,15.89A45.05,45.05,0,0,0,15,57.48a10.74,10.74,0,0,0,4.21,8.76,16.4,16.4,0,0,0,10.63,3.39,15.36,15.36,0,0,0,5.49-1.4,29.54,29.54,0,0,0,6.25-3.5,11.74,11.74,0,0,0,3.8-4.09,46.92,46.92,0,0,1,4-6.55q2.58-3.62,5.14-3.62c4,0,6.68.86,8.12,2.57a9.15,9.15,0,0,1,2.28,5.61A28.4,28.4,0,0,1,57.89,69.22Z"/><path class="cls-1" d="M80,74.42q-5.73-7-5.73-17.87A36.1,36.1,0,0,1,90.66,26.4a30.15,30.15,0,0,1,16.71-4.9,19.84,19.84,0,0,1,14.78,5.9q5.77,5.9,5.78,17.35a36.49,36.49,0,0,1-4.44,16.7,41.65,41.65,0,0,1-11.86,14.32A25.33,25.33,0,0,1,96,81.43Q85.75,81.43,80,74.42Zm25.29-7a38.2,38.2,0,0,0,6.25-11.8A42.44,42.44,0,0,0,114,41.71q0-10.39-8.65-10.4-4.78,0-8.76,4.56a33.86,33.86,0,0,0-6.31,11.27A38.34,38.34,0,0,0,88,59.7,13.16,13.16,0,0,0,89.49,66a12.74,12.74,0,0,0,3.8,4.5,7.73,7.73,0,0,0,4.5,1.64Q101.53,72.09,105.32,67.41Z"/><path class="cls-1" d="M146,77.28a3.84,3.84,0,0,1-2,2.87,11.39,11.39,0,0,1-5,.81,14.29,14.29,0,0,1-5.61-.81c-1.17-.55-1.75-1.72-1.75-3.51l5.61-22.31q4.66-19.28,6.19-24.54l-2.92-3.5a1.11,1.11,0,0,1-.35-.82c0-.78.85-1.42,2.57-1.93a26.48,26.48,0,0,1,7.12-.76q4.1,0,5.5,2.28a13.89,13.89,0,0,1,1.75,5.9l-.82,3a33.45,33.45,0,0,1,8.7-7.54c3.31-2,6.25-3,8.82-3q5,0,7.83,1.76a5.21,5.21,0,0,1,2.81,4.55,9.38,9.38,0,0,1-1.7,5.08,15.8,15.8,0,0,1-4.26,4.44,10.57,10.57,0,0,1-5,2,5.76,5.76,0,0,1-3.15-.59,2,2,0,0,1-.82-1.75l.7-3.85q-9.34,2.56-16.94,12.38l-6.77,27C146.43,75,146.25,75.92,146,77.28Z"/><path class="cls-1" d="M195,81a15,15,0,0,1-6.83-2,19.93,19.93,0,0,1-6.49-5.38A11.74,11.74,0,0,1,179,66.13q0-6.54,4.33-16.71a53.39,53.39,0,0,1,12.21-17.76,25.69,25.69,0,0,1,18.4-7.59q8.87,0,14.83,2.92t6,8.41a20.28,20.28,0,0,1-.46,2.45q-6,25.83-10.64,43-2.69,10.05-7.42,15.48a23.5,23.5,0,0,1-10.63,7.3,45.84,45.84,0,0,1-13.84,1.87,18.36,18.36,0,0,1-10.34-3,9.74,9.74,0,0,1-4.62-8.64q0-4,5-4c.78,0,1.67.59,2.69,1.76a15.71,15.71,0,0,0,3.91,3.09,12.93,12.93,0,0,0,6,1.11,14.25,14.25,0,0,0,11.09-5.37q4.68-5.39,6.2-15.31Q202.94,81,195,81Zm22.37-29a84.21,84.21,0,0,1,6.14-14.19q-.58-2.34-3.68-3.1a24,24,0,0,0-5.55-.76q-4.34,0-9.35,5.84a57.67,57.67,0,0,0-8.59,13.61q-3.56,7.77-3.56,12.56a3.94,3.94,0,0,0,1.29,3.33,5.12,5.12,0,0,0,3.27,1q2.68,0,8.58-2t8.24-4A97.3,97.3,0,0,1,217.36,51.93Z"/><path class="cls-1" d="M252.59,29.09l-.7-4.32a2.18,2.18,0,0,1,1.51-2c1-.47,3-.7,5.85-.7a6.16,6.16,0,0,1,5,1.87,6.69,6.69,0,0,1,1.58,4.44,10.5,10.5,0,0,1-.23,1.87l-10.4,42.06.7,4.32a2.19,2.19,0,0,1-1.52,2q-1.51.7-5.84.7-3.85,0-5-2.28a13.94,13.94,0,0,1-1.28-5.9Q242.19,69.05,252.59,29.09Zm3-25.94a7.75,7.75,0,0,1,6.36-2.8A11.4,11.4,0,0,1,269.47,3a7.81,7.81,0,0,1,3.21,6.07A7.15,7.15,0,0,1,269.41,15a12.28,12.28,0,0,1-7.59,2.46q-4.21,0-6.37-2.16a7.67,7.67,0,0,1-2.16-5.67A9.92,9.92,0,0,1,255.57,3.15Z"/><path class="cls-1" d="M275.25,78.22A7.38,7.38,0,0,1,273,72.9a7.74,7.74,0,0,1,2.8-5.66,9.68,9.68,0,0,1,6.9-2.63,10.41,10.41,0,0,1,6.07,1.69,5.88,5.88,0,0,1,2.46,5.2,7.92,7.92,0,0,1-3.33,6.31,11.55,11.55,0,0,1-7.42,2.69A7.09,7.09,0,0,1,275.25,78.22Zm15.25-19c-1.05.78-2.87,1.17-5.44,1.17q-6.54,0-6.54-4.55A47.22,47.22,0,0,1,280,46.56q1.47-6.37,4.27-17Q288,15.31,290.09,5.73,291.26,0,298.38,0a9.44,9.44,0,0,1,5.38,1.29,3.14,3.14,0,0,1,1.4,3.5L292.77,54.91C292.31,57,291.55,58.46,290.5,59.23Z"/></g></g></svg>