<svg id="sweat.svg" xmlns="http://www.w3.org/2000/svg" width="54.78" height="52.719"><defs><style>.cls-1{fill:#35aedd;fill-rule:evenodd}</style></defs><path id="楕円形_561" data-name="楕円形 561" class="cls-1" d="M5272.91 792.25c4.28 7.413 2.45 16.486-7.83 22.423-5.28 3.044-17.83 2.071-27.16 2.974-8.85.858-17.65 5.415-17.65 5.415s15.99-27.548 26.27-33.485 22.09-4.741 26.37 2.673z" transform="translate(-5220.28 -785.812)"/><path id="楕円形_561-2" data-name="楕円形 561" class="cls-1" d="M5258.16 828.5c.89 4.534-1.67 8.794-8.05 9.929-3.26.581-9.57-2.2-14.55-3.436a31.335 31.335 0 0 0-10.09-.472s13.18-11.039 19.55-12.174 12.26 1.623 13.14 6.153z" transform="translate(-5220.28 -785.812)"/></svg>