<svg xmlns="http://www.w3.org/2000/svg" width="127.482" height="73.481"><defs><linearGradient id="a" x1=".5" x2=".5" y2="1" gradientUnits="objectBoundingBox"><stop offset="0" stop-color="#fff8ba"/><stop offset="1" stop-color="#ff88d2"/></linearGradient></defs><g data-name="グループ化 267" transform="rotate(-24 -430.39 357.002)" opacity=".44" fill="url(#a)"><path data-name="パス 359" d="M153.084 254.369a75.394 75.394 0 0 1 13.751-15.747 2.2 2.2 0 0 1 1.04-.548.429.429 0 0 1 .43.385c0 .163-.123.385-.613.823-3.868 3.4-8.346 9.437-11.416 15.362 1.964.219 3.683.66 3.683 1.261a.336.336 0 0 1-.368.331 21.657 21.657 0 0 0-3.743-.77 34.012 34.012 0 0 0-3.683 14.87c0 2.633.918 3.293 1.719 3.293.245.054.487.107.487.382 0 .219-.365.275-.673.275-1.656 0-6.813-1.481-6.813-5.487 0-3.95 2.7-9 5.584-13.553-.735-.054-1.6-.054-2.514-.054-1.351 0-4.3.163-7.121.438-12.827 13.881-24.489 24.908-36.333 24.908-6.015 0-11.784-3.127-11.784-9.437 0-14.376 23.26-28.532 34.369-28.532 3.315 0 5.094 1.812 5.094 3.787 0 4.281-4.6 8.726-5.462 8.726-.676 0-2.146-.331-2.146-.66 0-.219.123-.329.368-.385 1.716-.329 5.707-4.335 5.707-8.338 0-1.152-.735-2.36-3.193-2.36-9.943 0-30.438 15.418-30.438 29.134 0 4.664 2.454 7.3 7.24 7.3 7.121 0 18.719-12.4 29.583-23.155-7.243 1.646-14.977 5.543-19.518 10.7-.245.275-.308.441-.553.441-.613 0-2.392-1.318-2.392-2.085 0-.657 1.1-1.646 2.332-2.579 5.524-4.116 13.2-6.366 21.542-7.847l.245-.219c10.373-10.1 21.972-18.986 33.693-18.986a1.393 1.393 0 0 1 1.471 1.208c0 .166-.06.275-.12.275-.123 0-.983-.11-1.474-.11-8.714 0-18.657 7.956-27.251 17.118 2.7-.166 5.587-.275 7.058-.275.433 0 1.228.056 2.212.11z"/><path data-name="パス 360" d="M154.196 273.809c-2.454 0-4.909-1.474-4.909-4.359 0-6.137 6.873-12.95 10.983-12.95a3.055 3.055 0 0 1 3.193 2.765 5.3 5.3 0 0 1-1.716 3.252 4.675 4.675 0 0 1-1.106.182.13.13 0 0 1-.123-.123.674.674 0 0 1 .182-.368 5.668 5.668 0 0 0 1.719-2.822c0-.063-.06-.371-.49-.371-2.947 0-8.84 5.71-8.84 10.926 0 1.534.8 2.392 1.964 2.392 4.911 0 12.7-7.486 12.7-7.486s.245-.245.368-.245.248.182.248.245c0 .12-.43.55-.616.735.009.006-8.52 8.227-13.557 8.227z"/><path data-name="パス 361" d="M169.373 273.809c-2.457 0-4.909-1.474-4.909-4.359 0-6.137 6.873-12.95 10.983-12.95a3.055 3.055 0 0 1 3.193 2.765 5.306 5.306 0 0 1-1.719 3.252 4.647 4.647 0 0 1-1.1.182.13.13 0 0 1-.123-.123.674.674 0 0 1 .182-.368 5.668 5.668 0 0 0 1.719-2.822c0-.063-.06-.371-.49-.371-2.947 0-8.839 5.71-8.839 10.926 0 1.534.8 2.392 1.964 2.392 4.911 0 12.7-7.486 12.7-7.486s.245-.245.368-.245.245.182.245.245c0 .12-.428.55-.613.735-.002.006-8.53 8.227-13.561 8.227z"/><path data-name="パス 362" d="M196.651 264.824a.258.258 0 0 1 .248.245c0 .12-.43.55-.616.735 0 0-6.074 6.628-10.8 6.628-3.193 0-5.216-1.964-5.216-5.157 0-5.521 5.707-11.291 8.654-11.291 1.9 0 2.822 2.209 2.822 2.885 0 1.474-3.375 4.6-6.75 6.75a11.941 11.941 0 0 0-.185 2.149c0 1.9.8 3.252 2.209 3.252 3.252 0 9.267-5.952 9.267-5.952s.249-.244.367-.244zm-6.5-5.892c0-.185-.06-.43-.305-.43-.921 0-2.947 1.841-4.789 6.137 2.58-1.842 5.094-4.609 5.094-5.709z"/><path data-name="パス 363" d="M195.181 273.781c-3.13 0-5.094-3.805-5.094-5.462a.885.885 0 0 1 .983-.921c1.106 0 3.07.613 6.137.736a7 7 0 0 0 .368-2.087 9.663 9.663 0 0 0-.368-3.19c-1.411 1.593-1.964 2.024-2.762 2.822a.567.567 0 0 1-.3.185.267.267 0 0 1-.248-.248c0-.182.248-.368.553-.673a23.174 23.174 0 0 0 2.454-2.7 6.932 6.932 0 0 1-.673-2.64c0-2.269 2.945-4.846 4.478-4.846.983 0 2.454 1.656 2.454 2.577s-3.988 2.7-3.988 4.418c0 2.639 1.841 3.312 2.087 6.137a10.674 10.674 0 0 0 5.707-2.945s.245-.245.368-.245.245.182.245.245c0 .12-.428.55-.613.735a10.549 10.549 0 0 1-5.644 2.947c-.004 2.515-3.197 5.155-6.144 5.155zm1.719-4.911c-2.209-.182-4.478-.613-5.216-.613-.185 0-.308.063-.308.308a2.4 2.4 0 0 0 2.517 1.9 3.024 3.024 0 0 0 3.007-1.596z"/><path data-name="パス 364" d="M210.896 262.857c-1.534 1.656-2.7 2.822-2.7 2.822-.123.123-.245.245-.3.245a.264.264 0 0 1-.248-.245c0-.185.248-.43.553-.735 0 0 .921-.983 2.457-2.64a7.3 7.3 0 0 1-.8-2.7c0-2.206 3-4.846 4.6-4.846a3.389 3.389 0 0 1 2.514 2.514c0 .8-4.051 2.825-4.051 4.481 0 2.086 1.288 3.07 1.779 5.094 1.964.305 2.762.983 2.762 1.229a.849.849 0 0 1-.735.673 14.3 14.3 0 0 0-1.9-1.043 4.112 4.112 0 0 1 .123.924c0 2.7-3.067 5.154-6.012 5.154-3.193 0-5.71-2.885-5.71-4.481 0-.553.43-.858 1.043-1.1a40.259 40.259 0 0 1 6.935-1.474 2.467 2.467 0 0 0 .063-.676 8.836 8.836 0 0 0-.373-3.196zm-6.382 6.627c0 .43 1.166.983 3.13.983 2.027 0 3.01-1.414 3.438-3.133a22.173 22.173 0 0 0-6.074 1.656c-.434.187-.495.309-.495.499z"/></g></svg>