<svg xmlns="http://www.w3.org/2000/svg" width="11.227" height="11.662"><g data-name="グループ化 91"><g data-name="グループ化 71"><path data-name="パス 854" d="M.315 1.864h10.6v9.485H.315z" fill="#88d1ff"/><path data-name="パス 849" d="M10.912 11.663H.312A.315.315 0 0 1 0 11.349V1.864a.315.315 0 0 1 .315-.315h10.6a.315.315 0 0 1 .315.315v9.485a.315.315 0 0 1-.318.314zM.629 11.034H10.6V2.179H.629z" fill="#fff"/></g><g data-name="グループ化 92"><g data-name="グループ化 72"><path data-name="長方形 105" fill="#fff" d="M2.129 5.275h1.258v1.258H2.129z"/></g><g data-name="グループ化 73"><path data-name="長方形 106" fill="#fff" d="M3.968 5.275h1.258v1.258H3.968z"/></g><g data-name="グループ化 74"><path data-name="長方形 107" fill="#fff" d="M5.807 5.275h1.258v1.258H5.807z"/></g><g data-name="グループ化 75"><path data-name="長方形 108" fill="#fff" d="M7.646 5.275h1.258v1.258H7.646z"/></g><g data-name="グループ化 76"><path data-name="長方形 109" fill="#fff" d="M2.129 7.017h1.258v1.258H2.129z"/></g><g data-name="グループ化 77"><path data-name="長方形 110" fill="#fff" d="M3.968 7.017h1.258v1.258H3.968z"/></g><g data-name="グループ化 78"><path data-name="長方形 111" fill="#fff" d="M5.807 7.017h1.258v1.258H5.807z"/></g><g data-name="グループ化 79"><path data-name="長方形 112" fill="#fff" d="M7.646 7.017h1.258v1.258H7.646z"/></g><g data-name="グループ化 80"><path data-name="長方形 113" fill="#fff" d="M2.129 8.759h1.258v1.258H2.129z"/></g><g data-name="グループ化 81"><path data-name="長方形 114" fill="#fff" d="M3.968 8.759h1.258v1.258H3.968z"/></g><g data-name="グループ化 82"><path data-name="長方形 115" fill="#fff" d="M5.807 8.759h1.258v1.258H5.807z"/></g><g data-name="グループ化 83"><path data-name="長方形 116" fill="#fff" d="M7.646 8.759h1.258v1.258H7.646z"/></g></g><g data-name="グループ化 84"><path data-name="長方形 117" fill="#fff" d="M.315 1.863h10.598v2.468H.315z"/></g><g data-name="グループ化 87"><g data-name="グループ化 85"><path data-name="パス 850" d="M2.517 3.363a.848.848 0 0 1-.847-.847V1.064a.847.847 0 1 1 1.694 0v1.454a.848.848 0 0 1-.847.845z" fill="#fff"/></g><g data-name="グループ化 86"><path data-name="パス 851" d="M2.517.436a.629.629 0 0 1 .629.629v1.452a.629.629 0 1 1-1.258 0V1.065a.629.629 0 0 1 .629-.629m0-.436a1.066 1.066 0 0 0-1.065 1.065v1.452a1.065 1.065 0 1 0 2.129 0V1.065A1.066 1.066 0 0 0 2.517 0z" fill="#88d1ff"/></g></g><g data-name="グループ化 90"><g data-name="グループ化 88"><path data-name="パス 852" d="M8.662 3.363a.848.848 0 0 1-.847-.847V1.064a.847.847 0 1 1 1.694 0v1.454a.848.848 0 0 1-.847.845z" fill="#fff"/></g><g data-name="グループ化 89"><path data-name="パス 853" d="M8.662.436a.629.629 0 0 1 .629.629v1.452a.629.629 0 1 1-1.258 0V1.065a.629.629 0 0 1 .629-.629m0-.436a1.066 1.066 0 0 0-1.065 1.065v1.452a1.065 1.065 0 1 0 2.129 0V1.065A1.066 1.066 0 0 0 8.662 0z" fill="#88d1ff"/></g></g></g></svg>