<svg xmlns="http://www.w3.org/2000/svg" width="270.064" height="130.01"><defs><linearGradient id="a" x1="3.338" y1=".229" x2="2.655" y2="2.527" gradientUnits="objectBoundingBox"><stop offset="0" stop-color="#fff8ba"/><stop offset="1" stop-color="#ff88d2"/></linearGradient></defs><g data-name="グループ化 47" transform="rotate(-14.98 208.807 27.411)" opacity=".435" fill="url(#a)"><path data-name="パス 305" d="M62.339 54.639s.411-.411.616-.411a.575.575 0 0 1 .616.513c0 .205-1.232 1.335-1.232 1.335-7.3 7.6-25.571 21.567-40.67 21.567C11.4 77.643 0 69.218 0 58.951 0 32.558 42 0 65.625 0c7.393 0 10.781 6.576 10.781 10.683 0 7.809-15.093 20.438-17.973 20.438-2.464 0-5.853-2.259-5.853-2.875a.884.884 0 0 1 .821-.924c7.09-1.129 20.951-10.376 20.951-18.179 0-2.156-2.053-3.388-5.852-3.388-19.924 0-61.21 32.142-61.21 57.1 0 8.424 5.134 11.71 13.969 11.71 16.946-.002 30.808-9.756 41.08-19.926z"/><path data-name="パス 306" d="M79.265 63.776c-2.978 2.362-5.75 3.6-7.29 3.6-2.464-.001-7.187-2.465-7.187-7.193a14.586 14.586 0 0 1 1.129-5.647c0-.205-.1-.411-.1-.719 0-8.727 9.549-15 15.2-15 4.62 0 8.317 2.983 8.317 7.29 0 6.782-4.21 12.429-8.625 16.33 5.442-.411 10.986-4.415 14.169-7.6 0 0 .308-.411.616-.411a.562.562 0 0 1 .513.411c0 .205-.821.924-1.129 1.232-2.876 2.676-7.907 7.399-15.613 7.707zm-.719-21.972c1.237 0 3.8 3.691 3.8 4.821 0 .621-.724 1.032-1.335 1.34-3.8 2.259-9.246 6.879-11.5 11.4 1.745 1.951 4.518 3.08 7.911 3.286 4.2-3.8 8.214-10.165 8.214-16.844 0-3.388-2.054-5.236-5.545-5.236-4.42 0-10.17 4.625-11.813 9.451a38.2 38.2 0 0 1 4.827-5.035c1.642-1.443 3.901-3.183 5.441-3.183zM68.382 62.75c0 1.848 1.027 3.08 2.567 3.08s2.875-.513 5.134-2.053c-3.388-.513-5.544-1.437-7.393-3.08a4.774 4.774 0 0 0-.308 2.053z"/><path data-name="パス 307" d="M110.175 46.938c0 1.54-1.848 4.21-4.107 8.009 4.107-2.978 13.656-9.246 17.352-9.246 1.951 0 3.7 3.6 3.7 4.933 0 1.129-8.214 8.317-8.214 13.758a.967.967 0 0 0 1.027 1.027c6.884 0 17.255-10.575 17.255-10.575s.411-.411.616-.411a.562.562 0 0 1 .513.411c0 .205-1.129 1.232-1.129 1.232s-11.919 11.912-17.259 11.912c-2.772 0-6.469-3.6-6.469-6.884 0-4.518 4.312-10.268 4.312-10.986a.221.221 0 0 0-.205-.205c-.924 0-7.906 3.491-13.558 8.625-6.365 5.75-7.392 10.988-8.419 10.988s-3.388-2.875-3.388-5.031c0-2.054 11.808-16.531 11.808-21.875 0-.816.41-1.232 1.026-1.232 1.956 0 5.139 2.88 5.139 5.55z"/><path data-name="パス 308" d="M142.513 69.629c-5.236 0-8.522-6.365-8.522-9.134a1.478 1.478 0 0 1 1.643-1.54c1.848 0 5.134 1.027 10.268 1.232a11.772 11.772 0 0 0 .616-3.491 16.231 16.231 0 0 0-.616-5.339c-2.362 2.669-3.286 3.388-4.62 4.723a.938.938 0 0 1-.513.308.442.442 0 0 1-.411-.411c0-.308.411-.616.924-1.129a38.36 38.36 0 0 0 4.109-4.522 11.672 11.672 0 0 1-1.129-4.42c0-3.8 4.934-8.111 7.5-8.111 1.638 0 4.107 2.772 4.107 4.312s-6.678 4.518-6.678 7.398c0 4.415 3.08 5.545 3.491 10.268a17.86 17.86 0 0 0 9.549-4.928s.411-.411.616-.411.411.308.411.411c0 .205-.719.924-1.027 1.232a17.647 17.647 0 0 1-9.446 4.928c.001 4.209-5.344 8.624-10.272 8.624zm2.878-8.214c-3.7-.308-7.5-1.027-8.727-1.027-.308 0-.513.1-.513.513a4.007 4.007 0 0 0 4.21 3.183 5.063 5.063 0 0 0 5.03-2.669z"/><path data-name="パス 309" d="M190.78 54.433a.431.431 0 0 1 .406.411c0 .205-.714.924-1.027 1.232 0 0-10.165 11.089-18.076 11.089-5.339 0-8.727-3.286-8.727-8.622 0-9.243 9.554-18.9 14.482-18.9 3.183 0 4.723 3.7 4.723 4.831 0 2.464-5.647 7.7-11.3 11.294a20.863 20.863 0 0 0-.3 3.594c0 3.183 1.335 5.447 3.691 5.447 5.445 0 15.504-9.966 15.504-9.966s.419-.41.624-.41zm-10.888-9.856c0-.308-.1-.724-.513-.724-1.54 0-4.928 3.085-8.014 10.272 4.317-3.082 8.527-7.706 8.527-9.548z"/><path data-name="パス 310" d="M229.69 54.844s.411-.411.616-.411a.432.432 0 0 1 .411.411c0 .205-.719.924-1.027 1.232a23.1 23.1 0 0 1-15.607 6.161c-4.112 3.08-9.246 5.139-12.429 5.139-3.286 0-6.161-1.648-6.879-3.394-5.852 10.273-11.813 22.081-11.813 30.094 0 .411-.1.919-.924.919-1.027 0-3.388-2.464-3.388-4.307 0-13.969 21.67-45.906 21.67-51.353 0-.308.205-.924 1.33-.924 1.54 0 4.415 3.5 4.415 5.134 0 1.032-.821 2.978-4.518 9.143 2.366-2.777 10.277-10.986 13.768-10.986 2.875 0 6.469 4.41 6.469 7.8 0 3.7-2.772 7.906-6.469 11.294 5.955.003 11.705-3.385 14.375-5.952zm-24.54 6.367a18.873 18.873 0 0 0-5.339-1.027c-2.464 0-3.594 1.027-3.594 2.259 0 1.129 1.129 1.951 2.875 1.951 1.638-.001 3.794-1.131 6.058-3.183zm1.232-1.437c4.626-4.928 8.63-11.91 8.63-14.374 0-.513-.205-1.027-.821-1.027-3.183 0-11.71 9.343-15.92 13.964a42.446 42.446 0 0 1 8.106 1.435z"/><path data-name="パス 311" d="M251.656 14.483c0-.205 0-1.335 1.135-1.335 1.848 0 5.134 4.826 5.134 7.808 0 .924-1.951 3.286-4.934 7.393 6.166.821 8.63 2.67 8.63 2.772 0 .205-.411.821-.616.821a21.608 21.608 0 0 0-8.933-2.362c-6.58 8.934-16.227 22.389-16.227 33.786a1.24 1.24 0 0 0 1.129 1.335 8.541 8.541 0 0 0 5.031-1.746 5.669 5.669 0 0 1 1.335-.821.656.656 0 0 1 .616.616c0 .308-.821.924-1.335 1.335a13.069 13.069 0 0 1-7.085 2.978c-2.058 0-5.544-2.362-5.544-5.647 0-9.651 6.571-20.951 12.629-30.6-3.183 1.027-4.21 2.156-4.826 2.156-1.335 0-2.67-2.156-2.67-3.286 0-.308 0-.513.513-.719a30.021 30.021 0 0 1 8.83-1.232c4.006-6.676 7.188-11.404 7.188-13.252z"/></g></svg>