<svg xmlns="http://www.w3.org/2000/svg" width="179.061" height="132.444"><g data-name="グループ化 118" fill="#c5b293"><path data-name="パス 365" d="M58.718 95.142s.103-.412.225-.486a.412.412 0 0 1 .569.087c.076.127-.264 1.28-.264 1.28-1.68 7.39-7.783 22.785-17.098 28.382-6.336 3.807-16.493 2.84-20.3-3.496-9.786-16.287 4.061-51.944 18.635-60.702a7.836 7.836 0 0 1 10.616 2.595c2.893 4.814-1.74 18.205-3.514 19.27-1.521.915-4.449.776-4.677.396a.633.633 0 0 1 .165-.872c3.952-3.325 9.079-14.168 6.184-18.985-.799-1.33-2.524-1.328-4.867.08-12.292 7.386-25.847 42.524-16.596 57.92 3.121 5.195 7.512 5.317 12.957 2.045 10.46-6.278 15.4-17.436 17.965-27.514z"/><path data-name="パス 366" d="M71.305 95.254c-.964 2.563-2.218 4.349-3.169 4.92-1.521.914-5.35 1.143-7.1-1.77A10.475 10.475 0 0 1 59.64 94.5c-.076-.127-.22-.218-.332-.405-3.236-5.385.335-12.79 3.82-14.883 2.854-1.716 6.235-1.248 7.834 1.412 2.513 4.182 2.01 9.226.733 13.274 3.204-2.275 5.144-6.799 5.927-9.94 0 0 .034-.371.225-.486a.4.4 0 0 1 .472.066c.075.123-.167.874-.241 1.179-.782 2.71-2.137 7.49-6.773 10.537zM62.712 81.96c.76-.457 3.718.874 4.135 1.57.228.379-.062.902-.332 1.32-1.505 2.802-3.149 7.671-2.87 11.297a8.106 8.106 0 0 0 6.1-.904c1.19-3.907 1.3-9.321-1.174-13.438-1.255-2.09-3.21-2.47-5.37-1.171-2.722 1.635-4.558 6.62-3.784 10.206a27.1 27.1 0 0 1 1.114-4.894c.484-1.501 1.231-3.417 2.182-3.988zm1.492 16.695c.686 1.142 1.778 1.519 2.726.95a6.288 6.288 0 0 0 2.411-3.17 9.577 9.577 0 0 1-5.704.839 3.408 3.408 0 0 0 .566 1.377z"/><path data-name="パス 367" d="M82.87 74.16c.571.951.422 3.284.435 6.465 1.43-3.359 5.001-10.763 7.282-12.134 1.2-.72 3.615.844 4.11 1.669.42.697-1.987 8.18.03 11.537a.7.7 0 0 0 1.014.252c4.246-2.551 6.724-12.92 6.724-12.92s.103-.412.225-.486a.4.4 0 0 1 .473.066c.074.124-.241 1.179-.241 1.179s-2.934 11.764-6.23 13.745c-1.71 1.027-5.323.182-6.541-1.846-1.674-2.787-1.15-7.933-1.417-8.378a.159.159 0 0 0-.203-.05c-.571.343-3.586 5.086-5.167 10.347-1.797 5.91-.486 9.524-1.119 9.904s-3.158-.517-3.96-1.85c-.76-1.266 1.157-14.579-.821-17.872-.306-.51-.201-.916.178-1.144 1.206-.725 4.237-.131 5.228 1.517z"/><path data-name="パス 368" d="M107.64 43.323a33.9 33.9 0 0 1 7.606-3.275c.154.257.154.684.025.762a40.769 40.769 0 0 0-6.199 3.03 13.646 13.646 0 0 0-2.57 1.895c-.69 9.471-1.871 24.585 2.507 31.871 1.596 2.658 3.196 3.166 5.097 2.024.38-.228 1.101.112 1.216.303.155.257-.38.661-.633.813-1.836 1.103-6.133.838-8.646-3.344-3.692-6.145-4.21-17.479-4.455-27.073a13.366 13.366 0 0 0-2.494 2.881c-.633.38-2.281-.355-2.51-.735-.154-.257-.166-.417.076-.735a27.015 27.015 0 0 1 4.8-4.35c-.13-5.53-.095-9.344-1.046-10.927a.932.932 0 0 1 .29-1.384c1.138-.685 4.917 1.012 6.021 2.85.343.571.22 2.372-.095 6.008z"/><path data-name="パス 369" d="M136.69 48.464c.05-.203.102-.411.227-.486a.311.311 0 0 1 .412.102c.074.124-.103.835-.18 1.142 0 0-2.186 10.281-6.115 12.642-2.154 1.294-4.855 1.106-6.073-.92a23.343 23.343 0 0 1-1.204-2.293c-1.264 5.07-2.922 11.497-4.379 12.372a5.276 5.276 0 0 1-6.491-1.618c-3.045-5.068.93-18.84 6.376-22.113 2.596-1.56 6.374-.725 7.212.67.571.95.713 1.898.395 2.09a1.24 1.24 0 0 1-1.154-.34c-.154-.258.014-.698-.33-1.27a1.287 1.287 0 0 0-1.51-.213c-5.829 3.502-8.443 17.234-6.045 21.224.228.38.531.458.787.304 1.2-.72 3.162-7.508 4.376-12.374.76-3.044 1.493-5.556 2.19-5.974.633-.38 3.715.443 4.324 1.456.456.76-1.138 4.565.004 6.466a1.025 1.025 0 0 0 1.485.318c3.101-1.865 5.692-11.185 5.692-11.185z"/><path data-name="パス 370" d="M146.311 55.273c-2.533 1.523-5.981 1.524-7.771-1.455-3.807-6.336-.939-17.635 3.307-20.187 1.584-.951 3.98-.837 5.009.876a6.383 6.383 0 0 1 .246 4.423 5.63 5.63 0 0 1-1.029.874.156.156 0 0 1-.203-.05.812.812 0 0 1-.04-.493c.33-1.319.48-3.22.024-3.98-.04-.066-.291-.346-.736-.079-3.043 1.829-5.582 11.377-2.346 16.763.951 1.583 2.307 1.974 3.508 1.253 5.071-3.047 8.477-15.612 8.477-15.612s.095-.407.221-.483.37.034.412.103c.074.123-.103.835-.176 1.14.002 0-3.705 13.784-8.903 16.907z"/><path data-name="パス 371" d="M153.422 4.515c-.076-.127-.495-.823.203-1.243 1.139-.684 4.956 1.076 6.06 2.915.342.568.019 2.75-.299 6.389 4.107-1.778 6.31-1.553 6.349-1.488.076.127.047.661-.075.735a15.545 15.545 0 0 0-6.388 1.855c-.743 7.95-1.712 19.83 2.515 26.864a.892.892 0 0 0 1.19.402 6.141 6.141 0 0 0 2.46-2.94 4.008 4.008 0 0 1 .518-1.004.471.471 0 0 1 .608.152c.115.19-.164.875-.327 1.322a9.427 9.427 0 0 1-3.268 4.463 4.479 4.479 0 0 1-5.519-1.432c-3.577-5.954-3.71-15.362-3.552-23.565-1.58 1.816-1.795 2.892-2.174 3.12-.828.498-2.45-.342-2.867-1.037-.115-.191-.191-.318.047-.633a21.6 21.6 0 0 1 4.993-4.037c-.003-5.6.212-9.695-.474-10.838z"/></g></svg>