<svg xmlns="http://www.w3.org/2000/svg" width="286.249" height="153.369"><defs><linearGradient id="a" x1=".5" x2=".5" y2="1" gradientUnits="objectBoundingBox"><stop offset="0" stop-color="#fff8ba"/><stop offset="1" stop-color="#ff88d2"/></linearGradient></defs><g data-name="グループ化 250" transform="rotate(-23 -386.315 380.213)" opacity=".44" fill="url(#a)"><path data-name="パス 326" d="M161.915 296.8c-3.569 7.7-6.046 15.668-6.046 21.995 0 1.1-.275 2.062-1.239 2.062-.409 0-4.124-1.788-4.124-4.4 0-3.716 1.373-10.037 3.16-15.534-12.367 7.01-20.756 16.217-20.756 26.113 0 5.363 4.265 8.938 14.435 8.938 39.176 0 88.247-35.875 88.247-74.642 0-10.311-3.709-22.269-35.466-22.269-43.575 0-94.849 30.927-94.849 56.637 0 3.435 1.239 5.637 3.99 5.637 14.71 0 43.575-19.664 52.513-38.218.409-.824.683-1.239 1.1-1.239.549 0 .958.69.958 1.239a5.847 5.847 0 0 1-.683 1.788c-9.764 19.393-34.919 39.323-51.555 39.323-7.693 0-16.906-4.4-16.906-10.452 0-26.943 58.01-57.736 102.683-57.736 34.368 0 49.072 15.54 49.072 31.623 0 35.46-58.419 70.377-99.107 70.377-12.1 0-23.367-5.363-23.367-13.331 0-11.824 14.155-22.55 31.891-29.835C166.314 271.1 189 242.1 195.868 242.1c1.513 0 5.089 4.807 5.089 7.559 0 .823-.555 1.513-1.788 2.2-9.347 5.771-25.43 22.678-34.777 40 11.543-3.85 23.917-6.052 34.362-6.052 13.886 0 17.87 2.477 17.87 3.435 0 .415-.14.83-.275.83a38.62 38.62 0 0 0-13.331-2.062 104.538 104.538 0 0 0-41.103 8.79z"/><path data-name="パス 327" d="M233.709 322.918a10.17 10.17 0 0 1-6.053 2.618c-.958 0-2.471-.141-2.471-.549 0-.556 1.647-3.16 2.056-3.16.281 0 .83.134 1.654.134 5.5 0 17.736-17.6 21.861-25.43-3.3-1.379-7.974-3.3-7.974-6.327 0-5.082 7.01-9.622 10.171-9.622 1.922 0 5.5 2.886 5.5 3.85 0 2.062-2.745 7.285-5.223 11.409 4.259 2.062 12.233 3.3 12.233 6.876 0 5.223-9.9 13.057-9.9 17.871 0 1.647.824 2.6 2.062 2.6 5.772 0 19.518-13.739 19.518-13.739.275-.275.549-.549.69-.549.409 0 .549.409.549.683s-.69.964-1.239 1.513c0 0-14.429 14.985-21.171 14.985-4.393 0-9.481-3.99-9.481-7.84 0-8.108 7.285-14.844 7.285-18.694a2.4 2.4 0 0 0-1.513-2.471c-4.399 8.253-12.099 20.487-18.554 25.842zm21.441-37.937c-.958 0-4.674 3.167-4.674 7.151a3.081 3.081 0 0 0 1.373 3.02c2.069-4.118 3.856-8.517 3.856-9.755-.001-.141-.141-.416-.555-.416z"/><path data-name="パス 328" d="M312.615 308.903a.579.579 0 0 1 .556.549c0 .268-.964 1.232-1.379 1.647 0 0-13.612 14.844-24.191 14.844-7.151 0-11.684-4.4-11.684-11.549 0-12.367 12.782-25.289 19.377-25.289 4.265 0 6.327 4.948 6.327 6.461 0 3.3-7.559 10.311-15.125 15.119a27.355 27.355 0 0 0-.409 4.814c0 4.258 1.788 7.285 4.948 7.285 7.285 0 20.756-13.331 20.756-13.331s.55-.55.824-.55zm-14.57-13.2c0-.415-.14-.964-.69-.964-2.062 0-6.6 4.124-10.72 13.746 5.78-4.121 11.411-10.308 11.411-12.778z"/><path data-name="パス 329" d="M316.197 329.244c-7.01 0-11.409-8.523-11.409-12.233a1.979 1.979 0 0 1 2.2-2.062c2.471 0 6.87 1.373 13.746 1.647a15.868 15.868 0 0 0 .824-4.674 21.815 21.815 0 0 0-.824-7.144c-3.167 3.569-4.4 4.533-6.187 6.321a1.261 1.261 0 0 1-.69.415.6.6 0 0 1-.549-.556c0-.409.549-.824 1.239-1.507a51.217 51.217 0 0 0 5.5-6.052 15.527 15.527 0 0 1-1.513-5.912c0-5.082 6.6-10.854 10.036-10.854 2.2 0 5.5 3.709 5.5 5.772s-8.932 6.046-8.932 9.9c0 5.912 4.124 7.419 4.667 13.746a23.925 23.925 0 0 0 12.788-6.6s.549-.549.824-.549.549.409.549.549c0 .268-.964 1.232-1.373 1.647a23.646 23.646 0 0 1-12.648 6.6c-.002 5.634-7.146 11.546-13.748 11.546zm3.85-11c-4.948-.409-10.037-1.373-11.684-1.373-.409 0-.69.14-.69.69a5.372 5.372 0 0 0 5.638 4.265c1.788 0 4.673 0 6.736-3.582z"/><path data-name="パス 330" d="M351.396 304.779c-3.435 3.709-6.046 6.321-6.046 6.321-.275.275-.549.549-.69.549a.59.59 0 0 1-.549-.549c0-.415.549-.964 1.239-1.647 0 0 2.056-2.2 5.5-5.912-.689-1.788-1.788-3.71-1.788-6.053 0-4.942 6.736-10.854 10.311-10.854 2.337 0 5.631 3.709 5.631 5.631 0 1.788-9.072 6.327-9.072 10.037 0 4.673 2.886 6.876 3.99 11.409 4.4.683 6.187 2.2 6.187 2.752a1.9 1.9 0 0 1-1.654 1.507c-.409 0-1.647-1.373-4.259-2.337a9.6 9.6 0 0 1 .275 2.069c0 6.046-6.87 11.543-13.471 11.543-7.151 0-12.788-6.461-12.788-10.037 0-1.239.964-1.922 2.343-2.471a89.909 89.909 0 0 1 15.534-3.3 5.779 5.779 0 0 0 .134-1.513c-.004-3.436-.138-5.223-.827-7.145zm-14.3 14.844c0 .964 2.611 2.2 7.01 2.2 4.533 0 6.736-3.167 7.693-7.017a49.812 49.812 0 0 0-13.605 3.709c-.96.418-1.098.693-1.098 1.108z"/></g></svg>