<svg xmlns="http://www.w3.org/2000/svg" width="20.184" height="20.184"><path data-name="パス 816" d="M19.062 0H1.121A1.121 1.121 0 0 0 0 1.121v17.941a1.121 1.121 0 0 0 1.121 1.121h9.66v-7.8H8.16V9.324h2.621V7.081a3.673 3.673 0 0 1 3.925-4.028 21.713 21.713 0 0 1 2.349.121v2.713h-1.609c-1.264 0-1.511.6-1.511 1.486v1.945h3.025l-.392 3.056h-2.633v7.81h5.127a1.121 1.121 0 0 0 1.121-1.121V1.121A1.121 1.121 0 0 0 19.062 0z" fill="#9b9b9b"/><path d="M13.935 20.183v-7.806h2.632l.392-3.056h-3.024V7.377c0-.883.247-1.486 1.511-1.486h1.604V3.167a21.713 21.713 0 0 0-2.349-.121 3.676 3.676 0 0 0-3.926 4.031V9.32H8.16v3.057h2.621v7.81z" fill="#fff"/></svg>