<svg xmlns="http://www.w3.org/2000/svg" width="247.899" height="163.74"><defs><linearGradient id="a" x1=".5" x2=".5" y2="1" gradientUnits="objectBoundingBox"><stop offset="0" stop-color="#fff8ba"/><stop offset="1" stop-color="#ff88d2"/></linearGradient></defs><g data-name="グループ化 109" transform="rotate(-20 -443.902 418.306)" opacity=".44" fill="url(#a)"><path data-name="パス 338" d="M182.318 279.071c1.326 0 2.924 3.325 2.924 5.046 0 .8-9.3.666-14.612 11.423-.265.53-.531 1.061-1.061 1.061s-.53-.53-.53-.8a3.805 3.805 0 0 1 .265-1.2 29.461 29.461 0 0 1 6.113-9.03 35.649 35.649 0 0 1-7.445 1.857c-11.417 26.7-25.092 56.043-53.915 56.043-11.016 0-19.251-6.507-19.251-7.7a.881.881 0 0 1 .925-.8c.4 0 2.924 2.794 11.288 2.794 25.9 0 37.983-24.173 50.862-49.535a20.261 20.261 0 0 1-2.917.265c-12.885 1.2-25.234 8.234-25.234 15.537a.766.766 0 0 1-.8.8c-.537 0-1.061-1.591-1.061-3.454 0-12.213 12.879-15.8 26.825-15.932 1.591 0 3.183 0 4.644-.136 6.643-12.879 14.742-27.355 23.377-36.256a175.046 175.046 0 0 0-28.688-2.523c-26.029 0-39.044 9.826-39.044 22.976 0 .4-.53.666-.931.666-.8 0-4.91-4.12-4.91-9.3 0-13.15 15.272-18.2 36.385-18.2 17.4 0 28.422 2.658 39.309 4.385a40.938 40.938 0 0 1 27.364-11.015 3.436 3.436 0 0 1 3.318 2.794c0 .265-.129.395-.265.395a14.451 14.451 0 0 0-2.788-.53 31.446 31.446 0 0 0-22.174 9.16 105.445 105.445 0 0 0 11.553.666c9.561 0 11.022-2.788 11.417-2.652.271 0 .537.66.537 1.2 0 .66-4.651 3.713-14.082 3.713a82.818 82.818 0 0 1-11.417-.925c-7.7 8.629-13.681 21.644-19.127 34.658a34.355 34.355 0 0 0 8.1-2.257s3.585-3.194 5.046-3.194z"/><path data-name="パス 339" d="M202.66 318.516c-3.855 3.053-7.439 4.645-9.431 4.645-3.183 0-9.3-3.189-9.3-9.3a18.818 18.818 0 0 1 1.462-7.3c0-.265-.136-.53-.136-.931 0-11.288 12.355-19.386 19.658-19.386 5.977 0 10.757 3.849 10.757 9.425 0 8.765-5.446 16.068-11.158 21.119 7.038-.53 14.211-5.712 18.325-9.826 0 0 .4-.53.8-.53a.722.722 0 0 1 .66.53c0 .259-1.061 1.19-1.462 1.591-3.712 3.456-10.213 9.562-20.175 9.963zm-.931-28.422c1.591 0 4.916 4.786 4.916 6.242 0 .8-.931 1.332-1.727 1.727-4.916 2.924-11.954 8.9-14.871 14.742 2.251 2.523 5.841 3.984 10.22 4.25 5.446-4.916 10.628-13.15 10.628-21.78 0-4.379-2.658-6.772-7.174-6.772-5.712 0-13.144 5.977-15.272 12.219a49.457 49.457 0 0 1 6.242-6.507c2.128-1.864 5.046-4.121 7.038-4.121zm-13.144 27.09c0 2.393 1.326 3.985 3.318 3.985s3.719-.66 6.643-2.652c-4.385-.666-7.173-1.863-9.567-3.984a6.211 6.211 0 0 0-.394 2.651z"/><path data-name="パス 340" d="M242.111 318.516c-3.855 3.053-7.439 4.645-9.431 4.645-3.183 0-9.3-3.189-9.3-9.3a18.819 18.819 0 0 1 1.462-7.3c0-.265-.136-.53-.136-.931 0-11.288 12.355-19.386 19.658-19.386 5.977 0 10.757 3.849 10.757 9.425 0 8.765-5.446 16.068-11.158 21.119 7.038-.53 14.211-5.712 18.325-9.826 0 0 .4-.53.8-.53a.722.722 0 0 1 .66.53c0 .259-1.061 1.19-1.462 1.591-3.712 3.456-10.213 9.562-20.175 9.963zm-.931-28.422c1.591 0 4.916 4.786 4.916 6.242 0 .8-.931 1.332-1.727 1.727-4.916 2.924-11.954 8.9-14.871 14.742 2.251 2.523 5.841 3.984 10.22 4.25 5.446-4.916 10.628-13.15 10.628-21.78 0-4.379-2.658-6.772-7.174-6.772-5.712 0-13.144 5.977-15.272 12.219a49.458 49.458 0 0 1 6.242-6.507c2.128-1.864 5.046-4.121 7.038-4.121zm-13.147 27.09c0 2.393 1.326 3.985 3.318 3.985s3.719-.66 6.643-2.652c-4.385-.666-7.173-1.863-9.567-3.984a6.209 6.209 0 0 0-.394 2.651z"/><path data-name="パス 341" d="M297.365 307.494c0 4.91.395 11.423 4.91 11.423a9.314 9.314 0 0 0 5.052-1.863c.931-.666 1.2-.931 1.462-.931a.852.852 0 0 1 .8.8c0 .4-.8 1.067-1.462 1.6-1.863 1.456-4.78 3.719-9.03 3.719-6.242 0-11.158-5.181-11.158-12.354-9.56 9.3-17.795 15.272-21.779 15.272-2.387 0-7.433-3.985-7.433-7.167 0-9.832 15.537-27.491 22.045-27.491 4.379 0 8.629 2.387 8.629 3.584 0 .666-.265 1.2-1.061 1.2-7.568 0-22.045 19.121-22.045 26.294 0 .4.13.8.395.8 4.385 0 11.824-5.711 21.249-15.143 1.2-20.577 20.052-53.779 32.937-53.779 3.189 0 5.311 3.454 5.311 6.9 0 4.916-12.62 21.915-27.09 37.853a48.584 48.584 0 0 0-1.732 9.283zm24.962-46.482c-6.766 0-16.863 17.665-22.174 33.067 13.144-14.735 23.105-29.082 23.105-32.271a.883.883 0 0 0-.931-.797z"/></g></svg>