<svg xmlns="http://www.w3.org/2000/svg" width="20.183" height="20.185"><path data-name="パス 855" d="M10.092 1.82c2.695 0 3.014.01 4.078.059a5.586 5.586 0 0 1 1.874.347 3.339 3.339 0 0 1 1.917 1.917 5.586 5.586 0 0 1 .347 1.874c.048 1.064.059 1.383.059 4.078s-.01 3.014-.059 4.078a5.586 5.586 0 0 1-.347 1.874 3.345 3.345 0 0 1-1.916 1.913 5.586 5.586 0 0 1-1.874.347c-1.064.048-1.383.059-4.078.059s-3.014-.01-4.078-.059a5.586 5.586 0 0 1-1.874-.347 3.339 3.339 0 0 1-1.921-1.915 5.586 5.586 0 0 1-.347-1.874c-.048-1.064-.059-1.383-.059-4.078s.01-3.014.059-4.078a5.586 5.586 0 0 1 .347-1.874 3.339 3.339 0 0 1 1.921-1.917 5.586 5.586 0 0 1 1.879-.347c1.064-.048 1.383-.059 4.078-.059m0-1.818C7.357 0 7.013.012 5.937.061a7.406 7.406 0 0 0-2.45.47A5.158 5.158 0 0 0 .53 3.484a7.408 7.408 0 0 0-.469 2.45C.012 7.008 0 7.353 0 10.094s.012 3.085.061 4.161a7.4 7.4 0 0 0 .469 2.449 5.162 5.162 0 0 0 2.952 2.956 7.4 7.4 0 0 0 2.45.469c1.074.049 1.42.061 4.161.061s3.085-.012 4.161-.061a7.383 7.383 0 0 0 2.448-.469 5.157 5.157 0 0 0 2.952-2.952 7.4 7.4 0 0 0 .469-2.45c.049-1.074.061-1.42.061-4.161s-.012-3.085-.061-4.161a7.383 7.383 0 0 0-.469-2.448A5.162 5.162 0 0 0 16.702.536a7.408 7.408 0 0 0-2.45-.469c-1.074-.049-1.419-.061-4.16-.061z" fill="#9b9b9b"/><path data-name="パス 856" d="M10.092 4.911a5.182 5.182 0 1 0 5.178 5.182 5.182 5.182 0 0 0-5.182-5.182zm0 8.547a3.365 3.365 0 1 1 3.365-3.365 3.365 3.365 0 0 1-3.365 3.365z" fill="#9b9b9b"/><ellipse data-name="楕円形 18" cx="1.211" cy="1.211" rx="1.211" ry="1.211" transform="translate(14.268 3.495)" fill="#9b9b9b"/></svg>