<svg xmlns="http://www.w3.org/2000/svg" width="214.84" height="45.746"><g data-name="グループ化 61"><g data-name="レイヤー 1"><path data-name="パス 399" d="M30.492 23.038c2.2 4.347 3.256 6.168 4.073 6.429.709.23 1.578.048 3.873-1.121 1.561-.791 2.838-1.478 3.112-2.691a4.6 4.6 0 0 0-.13-2.173c-.091-.252-.109-.435.07-.517s.235.026.4.352a20.866 20.866 0 0 1 1.056 3.2c.135.782.109.943-1.452 1.739-2.53 1.3-5.121 2.382-7.976 3.834-.908.461-1.739 1-2.834 1.552-.326.165-.5.183-.591 0-.048-.087-.03-.2.143-.3a5.3 5.3 0 0 0 .822-.565c.53-.435.348-1.139.035-2.052-.483-1.3-1.665-3.638-3.1-6.459l-2.643-5.19c-2.33-4.59-2.752-5.416-3.286-6.329s-1.043-1.3-2.117-1.03a6.121 6.121 0 0 0-1.048.435.235.235 0 0 1-.322-.048c-.087-.178.03-.309.352-.474 1.3-.674 3.221-1.526 3.369-1.6s2.252-1.256 3.134-1.7c.322-.165.5-.183.591 0s-.03.235-.148.3a8.491 8.491 0 0 0-.926.582c-.778.578-.761 1.2-.3 2.26.435.969.839 1.8 3.173 6.385z" fill="#ff88d2"/><path data-name="パス 400" d="M24.513 23.673a4.164 4.164 0 0 1-2.608-.869.442.442 0 0 1 .509-.722 3.043 3.043 0 0 0 1.6.435 3.172 3.172 0 0 0 .609-.061 4.234 4.234 0 0 0 2.034-.978 6.7 6.7 0 0 0 1.9-4.186 10.657 10.657 0 0 0 .087-1.178 2.173 2.173 0 0 0-.113-.8.474.474 0 0 0-.248-.27 1.739 1.739 0 0 0-.717-.139h-.126a2.882 2.882 0 0 0-.435.022h-.248l-.057-.243a2.873 2.873 0 0 0-.187-.565c-.174-.391-.361-.774-.543-1.161l-.239-.491.365-.074a8.789 8.789 0 0 1 1.548-.13 4.225 4.225 0 0 1 1.882.435 3.043 3.043 0 0 1 1.469 1.739 4.177 4.177 0 0 1 .126 1.839 9.5 9.5 0 0 1-.309 1.478 11.252 11.252 0 0 1-1.117 2.725 7.255 7.255 0 0 1-2.051 2.234 5.651 5.651 0 0 1-2.865.956z" fill="#ff88d2"/><path data-name="パス 401" d="M27.661 12.55a3.942 3.942 0 0 1 1.738.4 2.734 2.734 0 0 1 1.3 1.565 3.99 3.99 0 0 1 .139 1.739 9.457 9.457 0 0 1-.3 1.434 10.889 10.889 0 0 1-1.126 2.652 6.863 6.863 0 0 1-1.963 2.147 5.294 5.294 0 0 1-2.717.908h-.23a3.886 3.886 0 0 1-2.43-.791.148.148 0 0 1-.026-.217.17.17 0 0 1 .126-.057.135.135 0 0 1 .083 0 3.347 3.347 0 0 0 1.739.469 3.972 3.972 0 0 0 .678-.061 4.59 4.59 0 0 0 2.173-1.043 6.853 6.853 0 0 0 2-4.347 10.433 10.433 0 0 0 .122-1.226 2.565 2.565 0 0 0-.139-.908.765.765 0 0 0-.383-.409 2.143 2.143 0 0 0-.839-.17h-.609a3.011 3.011 0 0 0-.2-.609c-.2-.435-.435-.869-.626-1.326a8.19 8.19 0 0 1 1.5-.152m0-.574a9.225 9.225 0 0 0-1.587.165l-.735.143.326.669.078.165c.183.374.369.761.539 1.139a3.561 3.561 0 0 1 .143.522l.109.487.5-.043h.543a1.552 1.552 0 0 1 .6.1c.074.039.078.039.13.148a1.943 1.943 0 0 1 .087.669 9.072 9.072 0 0 1-.091 1.139 6.346 6.346 0 0 1-1.808 4.008 3.956 3.956 0 0 1-1.917.869 3.26 3.26 0 0 1-.582.052 2.743 2.743 0 0 1-1.457-.38.735.735 0 0 0-.948.17.726.726 0 0 0 .091 1.043 4.455 4.455 0 0 0 2.8.926h.257a5.929 5.929 0 0 0 3.012-1 7.62 7.62 0 0 0 2.134-2.321 11.632 11.632 0 0 0 1.2-2.817 10.691 10.691 0 0 0 .322-1.526 4.564 4.564 0 0 0-.165-1.952 3.325 3.325 0 0 0-1.608-1.9 4.586 4.586 0 0 0-1.991-.469z" fill="#fff"/><path data-name="パス 402" d="M25.343 29.589a10.219 10.219 0 0 1-3.173-.5 6.82 6.82 0 0 1-2.608-1.487 5.282 5.282 0 0 1-1.543-2.708 8.977 8.977 0 0 1-.148-2.951 11.246 11.246 0 0 1 .656-2.817 10.919 10.919 0 0 1 3.447-4.738l.183-.13.387-.287.161.435a.435.435 0 0 0 .061.148l.1.2c.178.374.356.743.526 1.117l.1.226-.209.135a7.942 7.942 0 0 0-2.973 3.621 9.338 9.338 0 0 0-.669 2.313 6.955 6.955 0 0 0 0 2.365 3.556 3.556 0 0 0 1.008 1.908 5.368 5.368 0 0 0 1.978 1.2 8.472 8.472 0 0 0 2.865.482 9.086 9.086 0 0 0 2-.222 9.386 9.386 0 0 0 1.178-.352l.226-.087.122.209a1.739 1.739 0 0 0 .491.561l.057.039.035.065.165.283-.3.117a9.969 9.969 0 0 1-1.639.556 10.432 10.432 0 0 1-2.517.309z" fill="#ff88d2"/><path data-name="パス 403" d="M22.401 14.41c.03.078.057.156.1.235.209.435.435.869.622 1.3a8.259 8.259 0 0 0-3.082 3.76 9.726 9.726 0 0 0-.669 2.408 7.111 7.111 0 0 0 0 2.465 3.86 3.86 0 0 0 1.087 2.052 5.651 5.651 0 0 0 2.082 1.261 8.8 8.8 0 0 0 2.96.5 9.416 9.416 0 0 0 2.06-.23 10.173 10.173 0 0 0 1.234-.339 2.065 2.065 0 0 0 .574.652 8.961 8.961 0 0 1-1.6.543 10.106 10.106 0 0 1-5.534-.183 6.624 6.624 0 0 1-2.494-1.448 4.973 4.973 0 0 1-1.461-2.56 8.781 8.781 0 0 1-.143-2.86 10.988 10.988 0 0 1 .643-2.76 10.693 10.693 0 0 1 3.356-4.6l.261-.191m.265-.908l-.6.435-.091.065-.183.135a11.18 11.18 0 0 0-3.538 4.864 11.519 11.519 0 0 0-.678 2.9 9.172 9.172 0 0 0 .157 3.043 5.559 5.559 0 0 0 1.63 2.873 7.259 7.259 0 0 0 2.7 1.547 10.685 10.685 0 0 0 7.559-.378l.609-.265-.348-.561-.061-.1-.1-.074a1.413 1.413 0 0 1-.409-.469l-.239-.435-.435.17a8.976 8.976 0 0 1-3.078.565 8.233 8.233 0 0 1-2.769-.465 5.216 5.216 0 0 1-1.873-1.13 3.3 3.3 0 0 1-.926-1.739 6.629 6.629 0 0 1 0-2.269 9.18 9.18 0 0 1 .635-2.269 7.659 7.659 0 0 1 2.86-3.477l.435-.265-.209-.435c-.165-.365-.339-.73-.513-1.091l-.118-.24c0-.043-.035-.087-.048-.13l-.026-.065-.264-.705z" fill="#fff"/><path data-name="パス 404" d="M50.008 13.167a4.582 4.582 0 0 0-1.478-2.686 4.429 4.429 0 0 0-1.382-.809 5.107 5.107 0 0 0-1.552-.27 5.216 5.216 0 0 0-2.895.848 5.378 5.378 0 0 0-1.13.974 8.7 8.7 0 0 0-.869 1.161c-.491.8-.869 1.613-1.3 2.4s-.839 1.561-1.3 2.326a149.446 149.446 0 0 1-2.834 4.521 23.334 23.334 0 0 1-3.008 3.864 4.707 4.707 0 0 1 .487.613 23.473 23.473 0 0 0 3.182-4.077 265.33 265.33 0 0 0 2.821-4.56c.465-.765.917-1.543 1.361-2.321a17.653 17.653 0 0 1 1.374-2.239 4.725 4.725 0 0 1 1.878-1.487 5.451 5.451 0 0 1 2.23-.461 3.408 3.408 0 0 1 2.021.652 3.477 3.477 0 0 1 1.217 1.821 3.8 3.8 0 0 1-.035 2.317 4.66 4.66 0 0 1-1.382 2.013 5.081 5.081 0 0 1-2.26 1.13 1.908 1.908 0 0 1-1.221-.135 1.191 1.191 0 0 1-.678-1.03 1.3 1.3 0 0 0 .583 1.182 2.056 2.056 0 0 0 1.361.317 5.49 5.49 0 0 0 2.608-.965 5.429 5.429 0 0 0 1.86-2.173 4.934 4.934 0 0 0 .341-2.926z" fill="#ff88d2"/><path data-name="パス 405" d="M32.568 12.346a3.369 3.369 0 0 1-.491-1.374 4.168 4.168 0 0 1 .109-1.391 9.363 9.363 0 0 1 .435-1.3l.256-.652c.1-.209.217-.4.326-.609a13.136 13.136 0 0 1 3.586-4.1A14.475 14.475 0 0 1 47.008.079a13.746 13.746 0 0 1 9.083 5.368 14.422 14.422 0 0 1 2.43 4.747 11.52 11.52 0 0 1 .456 2.66l.03.682a5.523 5.523 0 0 1-.026.656 10.11 10.11 0 0 1-.087 1.3 18.331 18.331 0 0 1-1.221 5.09 18.832 18.832 0 0 1-2.608 4.512 44.27 44.27 0 0 1-7.411 7.011c-2.608 2.117-5.342 4.1-7.824 6.333a56.075 56.075 0 0 0-6.955 7.3h-.03a54.805 54.805 0 0 0-6.9-7.337c-2.5-2.247-5.173-4.282-7.824-6.368a41.447 41.447 0 0 1-7.39-7.011 18.848 18.848 0 0 1-2.586-4.49 18.526 18.526 0 0 1-1.2-5.055c-.057-.435-.065-.869-.083-1.3v-.652l.03-.669a11.467 11.467 0 0 1 .435-2.608 14.31 14.31 0 0 1 2.426-4.673 13.534 13.534 0 0 1 8.972-5.3 14.292 14.292 0 0 1 10.1 2.786 12.936 12.936 0 0 1 3.521 4.043c.109.2.226.391.322.6l.265.626a9.969 9.969 0 0 1 .435 1.3 4.347 4.347 0 0 1 .156.665c.039.226.087.435.117.678a1.834 1.834 0 0 1-.483 1.374zm0 0a1.969 1.969 0 0 1-.661-1.148 11.3 11.3 0 0 0-.226-1.13 7.545 7.545 0 0 0-.356-1.1l-.217-.535c-.083-.178-.183-.343-.27-.517a11.384 11.384 0 0 0-3.047-3.551 12.749 12.749 0 0 0-8.9-2.582 12.122 12.122 0 0 0-8.04 4.638 12.714 12.714 0 0 0-2.247 4.2 10.114 10.114 0 0 0-.435 2.326l-.07.591v.613a9.635 9.635 0 0 0 .052 1.226 16.988 16.988 0 0 0 1.017 4.76 17.5 17.5 0 0 0 2.343 4.29 42.755 42.755 0 0 0 7.08 7.019c2.565 2.16 5.216 4.3 7.633 6.646 1.217 1.169 2.4 2.378 3.512 3.647s2.147 2.608 3.125 3.977h-.043q1.469-2.06 3.1-3.986a58.84 58.84 0 0 1 3.5-3.669c2.443-2.356 5.051-4.5 7.6-6.677a42.8 42.8 0 0 0 7.064-7.042 17.478 17.478 0 0 0 2.317-4.264 16.717 16.717 0 0 0 .991-4.725 11.338 11.338 0 0 0 .048-1.217v-.6l-.043-.582a10.817 10.817 0 0 0-.435-2.291 12.684 12.684 0 0 0-2.243-4.138 11.984 11.984 0 0 0-7.926-4.542 12.558 12.558 0 0 0-8.776 2.534 11.132 11.132 0 0 0-2.982 3.477c-.087.17-.187.335-.265.509l-.213.526a8.7 8.7 0 0 0-.356 1.078 7.823 7.823 0 0 1-.391 1.082 4.808 4.808 0 0 1-.669 1.148z" fill="#ff88d2"/><path data-name="パス 406" d="M49.934 43.382a1.408 1.408 0 0 1-1.617-2.086c2.369-3.673 6.672-9.6 10.793-11.41-.243-.235-5.807 5.794-4.9 8.076 0 0 6.52-1.4 9.211-10.932a.441.441 0 1 1 .869.143c-.385 4.668-2.838 12.484-14.356 16.209z" fill="#ff88d2"/><path data-name="パス 407" d="M14.359 43.382a1.408 1.408 0 0 0 1.617-2.086c-2.365-3.673-6.672-9.6-10.793-11.41.243-.235 5.807 5.794 4.9 8.076 0 0-6.52-1.4-9.207-10.932a.441.441 0 1 0-.869.143c.377 4.668 2.833 12.484 14.352 16.209z" fill="#ff88d2"/></g><g data-name="グループ化 60" fill="#ff88d2"><path data-name="パス 823" d="M87.484 12.118l-.489.254a5.784 5.784 0 0 0-2.158-2.1 3.732 3.732 0 0 0-1.828-.395c-1.114 0-1.421.271-1.421 1.3v3.107h.464c1.621 0 2.305-.5 2.482-1.816h.554v4.41h-.552c-.177-1.421-.831-1.91-2.529-1.91h-.395v3.26c0 1.244.159 1.462 1.179 1.462h.43v.637h-4.869v-.637h.289c1 0 1.144-.218 1.144-1.462v-6.957c0-1.238-.141-1.4-1.144-1.444h-.289v-.619H86.5z"/><path data-name="パス 824" d="M94.511 19.659c-.59.637-1 .89-1.468.89s-.873-.318-1.126-1.02a3.7 3.7 0 0 1-2.323 1.02 1.922 1.922 0 0 1-2.058-1.857c0-.955.654-1.722 1.946-2.311a12.644 12.644 0 0 1 2.358-.7v-.855c0-1.02-.254-1.368-1-1.368a1.179 1.179 0 0 0-1.179.955c-.224.666-.507.937-.967.937a.843.843 0 0 1-.814-.878c0-.937 1.285-1.651 3.007-1.651a2.472 2.472 0 0 1 2.246.955 2.446 2.446 0 0 1 .206 1.209v3.29c0 1.055.047 1.226.366 1.226a.643.643 0 0 0 .442-.206zm-2.654-3.372c-1.845.525-2.624 1.179-2.624 2.193 0 .684.377 1.179.955 1.179a2.234 2.234 0 0 0 1.668-.748z"/><path data-name="パス 825" d="M98.037 14.152a3.537 3.537 0 0 1 2.529-1.356 1.863 1.863 0 0 1 1.639.9 3.071 3.071 0 0 1 .318 1.657v3.184c0 1 .1 1.132.943 1.179v.59h-3.405v-.59c.861-.059.955-.171.955-1.179v-2.883c0-1.209-.348-1.7-1.179-1.7a2.535 2.535 0 0 0-1.769.873v3.708c0 1 .094 1.132.955 1.179v.59h-3.574v-.59c.985-.029 1.067-.124 1.067-1.179v-3.184c0-1-.195-1.226-1.085-1.273v-.507l2.594-.814z"/><path data-name="パス 826" d="M106.65 17.926c0 1.285.206 1.657.937 1.657.4 0 .654-.13 1.179-.59l.4.383a2.7 2.7 0 0 1-2.246 1.179 1.674 1.674 0 0 1-1.509-.684 2.883 2.883 0 0 1-.254-1.462v-4.628h-1.036v-.59c1.179-.377 1.657-1.049 1.9-2.623h.631v2.464h2v.737h-2z"/><path data-name="パス 827" d="M116.915 19.659c-.59.637-1 .89-1.462.89s-.878-.318-1.132-1.02a3.7 3.7 0 0 1-2.323 1.02 1.916 1.916 0 0 1-2.052-1.857c0-.955.654-1.722 1.94-2.311a12.644 12.644 0 0 1 2.358-.7v-.855c0-1.02-.254-1.368-1-1.368a1.179 1.179 0 0 0-1.179.955c-.224.666-.513.937-.973.937a.843.843 0 0 1-.814-.878c0-.937 1.291-1.651 3.007-1.651a1.944 1.944 0 0 1 2.453 2.164v3.29c0 1.055.047 1.226.366 1.226a.655.655 0 0 0 .448-.206zm-2.659-3.372c-1.845.525-2.624 1.179-2.624 2.193 0 .684.383 1.179.955 1.179a2.229 2.229 0 0 0 1.668-.749z"/><path data-name="パス 828" d="M118.152 17.748a3.72 3.72 0 0 0 3.024 2.116 1.179 1.179 0 0 0 1.256-1.114c0-.684-.383-.973-1.733-1.238-1.9-.4-2.818-1.214-2.818-2.47a2.258 2.258 0 0 1 2.276-2.24 2.323 2.323 0 0 1 .814.159 2.356 2.356 0 0 0 .507.124 4.868 4.868 0 0 0 1.079-.253l.784 2.323-.5.271a4.582 4.582 0 0 0-.525-.7 2.87 2.87 0 0 0-2.164-1.226c-.749 0-1.179.395-1.179 1s.383.985 1.834 1.226c1.91.318 2.83 1.126 2.83 2.447a2.358 2.358 0 0 1-2.358 2.388 3.06 3.06 0 0 1-1.02-.189 1.939 1.939 0 0 0-.466-.13 9.14 9.14 0 0 0-1.285.3l-.861-2.511z"/><path data-name="パス 829" d="M127.061 17.926c0 1.285.206 1.657.937 1.657.4 0 .654-.13 1.179-.59l.4.383a2.706 2.706 0 0 1-2.246 1.179 1.669 1.669 0 0 1-1.527-.684 2.806 2.806 0 0 1-.259-1.462v-4.628h-1.031v-.59c1.179-.377 1.657-1.049 1.892-2.623h.654v2.464h1.994v.737h-2z"/><path data-name="パス 830" d="M132.827 18.527c0 1.038.094 1.15.955 1.209v.59h-3.549v-.59c.985-.03 1.067-.124 1.067-1.209v-3.053c0-1.144-.13-1.321-1.085-1.385v-.507l2.612-.784zm.142-8.4a.961.961 0 1 1-.967-1.032 1.02 1.02 0 0 1 .967 1.032z"/><path data-name="パス 831" d="M141.146 18.515a3.423 3.423 0 0 1-3.13 2.034 3.341 3.341 0 0 1-3.331-3.567 4.037 4.037 0 0 1 3.755-4.18c1.262 0 2.488.843 2.488 1.686a.914.914 0 0 1-.843.872c-.4 0-.737-.224-.943-1.032-.159-.637-.442-.89-1.032-.89-1.049 0-1.733 1.1-1.733 2.8 0 2.016.843 3.278 2.223 3.278.878 0 1.338-.289 2.069-1.338z"/><path data-name="パス 832" d="M159.274 9.807h-.283c-1 .047-1.15.206-1.15 1.444v6.957c0 1.256.13 1.462 1.15 1.462h.283v.637h-4.716v-.637h.271c1 0 1.179-.218 1.179-1.462v-7.859l-3.614 9.975h-.46l-3.533-10.057v7.075c0 1.733.289 2.276 1.226 2.358h.206v.637h-3.579v-.641h.206a1.215 1.215 0 0 0 .985-.625 3.266 3.266 0 0 0 .242-1.462v-6.344c0-1.238-.141-1.4-1.179-1.444h-.283v-.619h3.673l2.865 7.812 2.912-7.812h3.6z"/><path data-name="パス 833" d="M161.867 16.428a5.242 5.242 0 0 0 .318 1.657 2.169 2.169 0 0 0 2.193 1.462 3.077 3.077 0 0 0 2.358-1.179l.413.336a4.085 4.085 0 0 1-3.372 1.845 3.537 3.537 0 0 1-3.614-3.691 3.88 3.88 0 0 1 3.649-4.056 3.107 3.107 0 0 1 2.718 1.574 4.079 4.079 0 0 1 .525 1.875v.177zm3.579-.731v-.112c0-1.338-.666-2.211-1.686-2.211a1.768 1.768 0 0 0-1.639 1.226 4.125 4.125 0 0 0-.206 1.1z"/><path data-name="パス 834" d="M170.694 12.796v1.368a3.443 3.443 0 0 1 2.453-1.273 1.9 1.9 0 0 1 1.845 1.321 3.614 3.614 0 0 1 2.547-1.321 1.946 1.946 0 0 1 1.686.943 2.553 2.553 0 0 1 .289 1.4v3.325c0 1.038.094 1.15.955 1.209v.59h-3.425v-.59c.861-.059.955-.171.955-1.209v-3.054a2.116 2.116 0 0 0-.189-.985 1.179 1.179 0 0 0-1-.542 2.818 2.818 0 0 0-1.722.8v3.767c0 1.038.094 1.15.955 1.209v.59h-3.419v-.59c.855-.059.955-.171.955-1.209v-2.948c0-1.085-.354-1.592-1.114-1.592a2.948 2.948 0 0 0-1.769.855v3.708c0 1.038.1 1.15.955 1.209v.59h-3.537v-.59h.035c.92 0 1.032-.124 1.032-1.209V15.42c0-1.049-.159-1.244-1.085-1.291v-.507z"/><path data-name="パス 835" d="M184.931 12.796a3.889 3.889 0 0 1 0 7.747 3.885 3.885 0 0 1 0-7.747zm0 7.11c1.179 0 1.816-1.126 1.816-3.231s-.619-3.231-1.769-3.231-1.863 1.179-1.863 3.231.654 3.237 1.8 3.237z"/><path data-name="パス 836" d="M192.059 14.659c.825-1.285 1.574-1.857 2.4-1.857a.955.955 0 0 1 .973.985.937.937 0 0 1-.873.985 1.085 1.085 0 0 1-.542-.189 1.091 1.091 0 0 0-.59-.224c-.419 0-.719.253-1.385 1.085v3.1c0 1.085.112 1.179 1.144 1.179h.3v.59H189.4v-.59h.077c.926 0 1.049-.142 1.049-1.179v-3.119c0-1.1-.142-1.273-1.079-1.338v-.507l2.593-.813z"/><path data-name="パス 837" d="M198.88 18.527c0 1.038.094 1.15.955 1.209v.59h-3.537v-.59c.985-.029 1.067-.124 1.067-1.209v-3.053c0-1.144-.13-1.321-1.085-1.385v-.507l2.594-.814zm.147-8.4a.967.967 0 1 1-.955-1.032 1.026 1.026 0 0 1 .955 1.032z"/><path data-name="パス 838" d="M202.418 16.428a5.414 5.414 0 0 0 .33 1.674 2.181 2.181 0 0 0 2.2 1.462 3.089 3.089 0 0 0 2.358-1.179l.413.336a4.086 4.086 0 0 1-3.372 1.845 3.537 3.537 0 0 1-3.614-3.691 3.879 3.879 0 0 1 3.643-4.056 3.107 3.107 0 0 1 2.724 1.574 4.079 4.079 0 0 1 .525 1.875v.177zm3.584-.731v-.112c0-1.338-.672-2.211-1.686-2.211a1.769 1.769 0 0 0-1.639 1.226 3.9 3.9 0 0 0-.206 1.1z"/><path data-name="パス 839" d="M209.35 17.748a3.72 3.72 0 0 0 3.024 2.117 1.179 1.179 0 0 0 1.256-1.114c0-.684-.383-.973-1.733-1.238-1.9-.4-2.818-1.214-2.818-2.47a2.258 2.258 0 0 1 2.276-2.24 2.322 2.322 0 0 1 .814.159 2.357 2.357 0 0 0 .507.124 4.8 4.8 0 0 0 1.079-.253l.784 2.323-.5.271a4.578 4.578 0 0 0-.525-.7 2.87 2.87 0 0 0-2.164-1.226c-.749 0-1.179.395-1.179 1s.383.985 1.833 1.226c1.91.318 2.83 1.126 2.83 2.447a2.358 2.358 0 0 1-2.358 2.388 3.06 3.06 0 0 1-1.02-.189 2.005 2.005 0 0 0-.46-.13 8.92 8.92 0 0 0-1.291.3l-.861-2.512z"/></g><g data-name="グループ化 59" fill="#3e3e3e"><path data-name="パス 389" d="M125.203 35.2a8.147 8.147 0 0 1 .988-1.823 4.715 4.715 0 0 0-.914.059.9.9 0 0 0-.563.375c-.044.064-.084.094-.114.1s-.044 0-.044-.035a.1.1 0 0 1 .035-.079 1.932 1.932 0 0 1 .627-.588 2.252 2.252 0 0 1 .988-.163h.2c.331-.494.81-1.289 1.438-2.317a2.386 2.386 0 0 0 .341-1.047c0-.435-.262-.652-.786-.657h-.094a3.705 3.705 0 0 0-1.976.538 4.249 4.249 0 0 0-1.4 1.334 2.747 2.747 0 0 0-.494 1.438c0 .519.242.781.731.781a1.23 1.23 0 0 0 .988-.494 1.591 1.591 0 0 0 .415-.988.677.677 0 0 0-.138-.43.054.054 0 0 1 0-.04c0-.04 0-.059.069-.059a.069.069 0 0 1 .049.025.884.884 0 0 1 .168.494 1.744 1.744 0 0 1-.42 1.047 1.4 1.4 0 0 1-.884.593 1.294 1.294 0 0 1-.277 0 1.037 1.037 0 0 1-.874-.282 1.166 1.166 0 0 1-.287-.84 2.268 2.268 0 0 1 .049-.445 3.35 3.35 0 0 1 1.457-1.976 4.639 4.639 0 0 1 2.732-.874 1.878 1.878 0 0 1 .988.252.766.766 0 0 1 .415.692 1.774 1.774 0 0 1-.311.939l-1.522 2.337c.183 0 .494.03.988.079a10.443 10.443 0 0 0 1.042.069h.464l.321-.529a16.209 16.209 0 0 1 1.894-2.562 5.153 5.153 0 0 1 1.87-1.48h.049c.039 0 .059 0 .059.064a.069.069 0 0 1 0 .044 7.08 7.08 0 0 0-1.541 1.482 16.431 16.431 0 0 0-1.734 2.386l-.306.553a.988.988 0 0 0 .558-.193.079.079 0 0 1 .059.03v.079a1.586 1.586 0 0 1-.716.282 4.051 4.051 0 0 0-.588 1.536c0 .188.084.282.247.282a.89.89 0 0 0 .39-.109 1.2 1.2 0 0 0 .3-.2.366.366 0 0 1 .094-.079v.054a.173.173 0 0 1-.03.089 2.249 2.249 0 0 1-.43.287 1.122 1.122 0 0 1-.464.153.494.494 0 0 1-.257-.059.672.672 0 0 1-.272-.613 3.122 3.122 0 0 1 .445-1.28c-.2 0-.4.025-.578.025l-1.976-.059a15.78 15.78 0 0 0-.958 1.714c-.074.153-.163.227-.267.227s-.243-.055-.243-.139z"/><path data-name="パス 390" d="M134.012 33.031a2.07 2.07 0 0 1-.563.988c-.44.543-.82.815-1.131.815h-.133a.38.38 0 0 1-.346-.227.6.6 0 0 1-.1-.356 2.677 2.677 0 0 1 .731-1.413c.494-.608.889-.909 1.191-.909s.425.148.425.45a1.269 1.269 0 0 1-.04.306.446.446 0 0 0 .158 0 1.137 1.137 0 0 0 .464-.163c0 .1-.227.232-.667.415a.168.168 0 0 1 .011.094zm-.543-.435c-.193 0-.464.222-.81.672a2.011 2.011 0 0 0-.529.988c0 .212.069.321.2.321.242 0 .548-.217.914-.657a1.947 1.947 0 0 0 .558-.939 1.2 1.2 0 0 1-.333-.385z"/><path data-name="パス 391" d="M137.381 32.108h1.21v.025a2.929 2.929 0 0 1-1.047.207c-.7.089-1.072.143-1.131.158a5.58 5.58 0 0 0-.6.855 2.515 2.515 0 0 0-.425 1.038c0 .207.143.311.425.311a1.538 1.538 0 0 0 .534-.128 3 3 0 0 0 .494-.232 4.982 4.982 0 0 0 .988-.865q.119-.119.163-.119c.044 0 0 0 0 .049s-.044.1-.128.2a3.676 3.676 0 0 1-.988.865 2.362 2.362 0 0 1-1.25.405.766.766 0 0 1-.425-.114.534.534 0 0 1-.163-.46 2.3 2.3 0 0 1 .3-.944c.2-.4.356-.7.464-.894h-.2c-.163 0-.242-.064-.242-.193s.064-.163.2-.2h.568l.341-.445c.158-.2.267-.3.321-.3a.493.493 0 0 1 .207.064c.084.049.128.1.128.163a1.758 1.758 0 0 1-.405.543z"/><path data-name="パス 392" d="M139.12 34.918a.491.491 0 0 1-.168 0c-.361-.1-.539-.3-.539-.6a2.154 2.154 0 0 1 .741-1.337 2.011 2.011 0 0 1 1.329-.776.494.494 0 0 1 .316.1.366.366 0 0 1 .124.257c0 .316-.237.613-.711.9a2.391 2.391 0 0 1-1.156.43.241.241 0 0 1-.119 0 .988.988 0 0 0-.124.494c0 .291.138.44.415.44a1.892 1.892 0 0 0 1.077-.563 5.234 5.234 0 0 0 .874-.874c.049-.069.094-.1.133-.1s.054 0 .054.049a.3.3 0 0 1-.069.143 5.135 5.135 0 0 1-1.092.988 1.976 1.976 0 0 1-1.085.449zm1.586-2.431c0-.069-.069-.1-.212-.1a1.225 1.225 0 0 0-.613.331 3.616 3.616 0 0 0-.805.929h.109a1.773 1.773 0 0 0 .85-.336 1.522 1.522 0 0 0 .672-.746.188.188 0 0 0-.001-.078z"/><path data-name="パス 393" d="M142.183 34.39c0 .168.094.252.277.252a1.368 1.368 0 0 0 .716-.291 4.031 4.031 0 0 0 .84-.8c.064-.089.119-.133.158-.133s.059 0 .059.049a1.862 1.862 0 0 1-.346.44c-.558.613-1.028.924-1.4.924a.805.805 0 0 1-.494-.133.445.445 0 0 1-.193-.4 1.684 1.684 0 0 1 .143-.637 10.869 10.869 0 0 1 .781-1.433c.652-1.067 1.121-1.6 1.393-1.6a.346.346 0 0 1 .173.059.218.218 0 0 1 .094.143l-.741.988c-.366.494-.622.845-.761 1.062l-.316.494-.153.247a2.054 2.054 0 0 0-.119.232 1.176 1.176 0 0 0-.109.534z"/><path data-name="パス 394" d="M149.767 33.031a2.07 2.07 0 0 1-.563.988c-.44.543-.82.815-1.131.815h-.133a.38.38 0 0 1-.346-.227.6.6 0 0 1-.1-.356 2.678 2.678 0 0 1 .731-1.413c.494-.608.889-.909 1.191-.909s.43.148.43.45a1.581 1.581 0 0 1-.045.306.447.447 0 0 0 .158 0 1.137 1.137 0 0 0 .464-.163c0 .1-.227.232-.662.415a.351.351 0 0 1 .006.094zm-.543-.435c-.193 0-.459.222-.81.672a1.976 1.976 0 0 0-.524.988c0 .212.064.321.2.321.242 0 .548-.217.919-.657a1.976 1.976 0 0 0 .553-.939 1.2 1.2 0 0 1-.338-.385z"/><path data-name="パス 395" d="M152.489 34.686a1.2 1.2 0 0 1-.6.143.647.647 0 0 1-.548-.237 2.14 2.14 0 0 1-.321-.746c-.1.1-.173.148-.212.148s-.039 0-.039-.054a.138.138 0 0 1 .039-.1 12.676 12.676 0 0 1 .939-.988l1.062-.988a2.074 2.074 0 0 1 .539-.43c.178 0 .267.069.267.2a.291.291 0 0 1-.079.2 1.157 1.157 0 0 0-.119.153l-.079.1a3.86 3.86 0 0 0-.306 1.072c-.1.543-.183.924-.242 1.136a2.016 2.016 0 0 0 1.438-.909c.054-.054.1-.084.128-.084s.04 0 .04.054a.267.267 0 0 1-.074.148 3.458 3.458 0 0 1-.909.8 2.544 2.544 0 0 1-.657.208zm-1.131-.934a.622.622 0 0 0 .613.647.583.583 0 0 0 .361-.094c.109-.059.222-.316.331-.771a7.6 7.6 0 0 0 .2-1.2l.035-.287a8.889 8.889 0 0 0-.988.889 2.109 2.109 0 0 0-.543.721.631.631 0 0 0-.009.095z"/><path data-name="パス 396" d="M157.765 32.299l.114-.025a.271.271 0 0 1 .178.074c.054.049.084.089.084.119a7.086 7.086 0 0 1-.494.81 2.5 2.5 0 0 0-.524 1.072.085.085 0 0 0 0 .049c.03.128.089.193.183.193.291 0 .82-.494 1.6-1.443a.074.074 0 0 1 .059-.035s.035 0 .035.064a.331.331 0 0 1-.074.163c-.716.958-1.26 1.438-1.64 1.438a.355.355 0 0 1-.143-.03.538.538 0 0 1-.366-.553 1.41 1.41 0 0 1 .03-.287l-.494.494c-.331.291-.568.44-.716.44a.7.7 0 0 1-.425-.143.529.529 0 0 1-.227-.445 3.209 3.209 0 0 1 2.426-2.332.366.366 0 0 1 .37.193.455.455 0 0 0 .044.114c-.035.056-.03.07-.02.07zm-2.515 2.065c0 .2.074.3.212.3.326 0 .766-.356 1.324-1.062l.894-1.23a.227.227 0 0 0-.222-.114 2.352 2.352 0 0 0-1.359.79 2.208 2.208 0 0 0-.849 1.319z"/><path data-name="パス 397" d="M161.154 34.913c-.44 0-.815-.351-1.121-1.052-.079.119-.257.45-.529.988-.2-.079-.306-.188-.306-.321a6.5 6.5 0 0 1 1.087-1.976 9.386 9.386 0 0 1 1.482-1.907.247.247 0 0 1 .133-.025c.173 0 .257.044.257.133a4.348 4.348 0 0 1-.583.756 6.994 6.994 0 0 0-.647.835 2.87 2.87 0 0 1 1.215-.4.588.588 0 0 1 .445.208.494.494 0 0 1 .178.361v.049a1.1 1.1 0 0 1-.672.79 1.9 1.9 0 0 1-.909.262 1.1 1.1 0 0 1-.588-.109.07.07 0 0 0-.079.109c.153.692.415 1.042.781 1.042a1.383 1.383 0 0 0 .731-.321 5.055 5.055 0 0 0 .939-.9.173.173 0 0 1 .1-.059.049.049 0 0 1 .049.039.282.282 0 0 1-.059.128 5.753 5.753 0 0 1-.86.874 1.862 1.862 0 0 1-1.044.496zm1.21-2.569a.192.192 0 0 0-.074-.138.237.237 0 0 0-.158-.064 2.243 2.243 0 0 0-1.087.375 1.586 1.586 0 0 0-.781.86h.405a2.318 2.318 0 0 0 .988-.311c.476-.213.711-.465.711-.722z"/><path data-name="パス 398" d="M166.553 32.3l.119-.025a.277.277 0 0 1 .173.074c.059.049.084.089.084.119a8.061 8.061 0 0 1-.519.81 2.565 2.565 0 0 0-.494 1.072.084.084 0 0 0 0 .049c.03.128.089.193.188.193.291 0 .82-.494 1.6-1.443a.069.069 0 0 1 .059-.035s.03 0 .03.064a.332.332 0 0 1-.074.163c-.716.958-1.265 1.438-1.635 1.438a.356.356 0 0 1-.143-.03.533.533 0 0 1-.37-.553 1.137 1.137 0 0 1 .035-.287l-.524.494c-.331.291-.568.44-.716.44a.7.7 0 0 1-.425-.143.529.529 0 0 1-.227-.445 3.225 3.225 0 0 1 2.431-2.332.361.361 0 0 1 .366.193.261.261 0 0 0 .044.114c.003.03-.011.07-.002.07zm-2.51 2.065c0 .2.069.3.207.3.326 0 .766-.356 1.329-1.062l.889-1.23a.237.237 0 0 0-.217-.114 2.361 2.361 0 0 0-1.364.79 2.193 2.193 0 0 0-.848 1.318z"/></g></g></svg>