<svg xmlns="http://www.w3.org/2000/svg" viewBox="0 0 57.15 40.67"><defs><style>.cls-1{fill:#ff88d2}</style></defs><g id="レイヤー_2" data-name="レイヤー 2"><g id="レイヤー_1-2" data-name="レイヤー 1"><path id="パス_399" data-name="パス 399" class="cls-1" d="M27.1 20.48c2 3.86 2.9 5.48 3.62 5.72s1.41 0 3.45-1c1.38-.7 2.52-1.32 2.76-2.39a4.06 4.06 0 0 0-.11-1.93c-.08-.23-.1-.39.06-.46s.21 0 .35.31a17.83 17.83 0 0 1 .94 2.84c.12.7.1.84-1.29 1.55-2.25 1.16-4.56 2.12-7.09 3.41-.81.41-1.55.88-2.52 1.38-.29.14-.45.16-.53 0s0-.19.13-.27a4.49 4.49 0 0 0 .73-.5c.47-.39.31-1 0-1.82-.43-1.16-1.48-3.24-2.76-5.75L22.52 17c-2.07-4.08-2.44-4.82-2.92-5.63s-.92-1.16-1.88-.92a5.39 5.39 0 0 0-.93.39.21.21 0 0 1-.29 0c-.08-.16 0-.28.31-.43 1.16-.59 2.87-1.35 3-1.42s2-1.12 2.78-1.51c.29-.15.45-.17.53 0s0 .21-.13.26a7.6 7.6 0 0 0-.82.52c-.7.51-.68 1.07-.27 2s.75 1.6 2.82 5.68z"/><path id="パス_400" data-name="パス 400" class="cls-1" d="M21.79 21a3.66 3.66 0 0 1-2.32-.77.4.4 0 0 1-.07-.55.39.39 0 0 1 .52-.09 2.63 2.63 0 0 0 1.42.38 3.29 3.29 0 0 0 .54-.05 3.81 3.81 0 0 0 1.81-.86 6 6 0 0 0 1.69-3.73c0-.35.07-.7.08-1a2 2 0 0 0-.1-.7.4.4 0 0 0-.22-.24 1.59 1.59 0 0 0-.64-.13h-.72l-.05-.21a2.35 2.35 0 0 0-.17-.51c-.15-.34-.32-.68-.48-1l-.21-.43.32-.07a8 8 0 0 1 1.38-.12 3.72 3.72 0 0 1 1.67.39 2.71 2.71 0 0 1 1.31 1.55 3.9 3.9 0 0 1 .11 1.63 8.37 8.37 0 0 1-.28 1.32 9.79 9.79 0 0 1-1 2.42 6.53 6.53 0 0 1-1.82 2A5.06 5.06 0 0 1 22 21z"/><path id="パス_402" data-name="パス 402" class="cls-1" d="M22.53 26.3a9.28 9.28 0 0 1-2.82-.44 6.17 6.17 0 0 1-2.32-1.32A4.75 4.75 0 0 1 16 22.13a8 8 0 0 1-.13-2.62 10.29 10.29 0 0 1 .6-2.51 9.74 9.74 0 0 1 3.07-4.21l.16-.11.34-.26.15.39a.69.69 0 0 0 0 .13l.09.18c.16.33.32.66.47 1l.09.21-.18.11a7.12 7.12 0 0 0-2.65 3.22 8.3 8.3 0 0 0-.6 2.05 6.23 6.23 0 0 0 0 2.11 3.18 3.18 0 0 0 .9 1.69 4.87 4.87 0 0 0 1.75 1.07 7.89 7.89 0 0 0 2.55.43 8.07 8.07 0 0 0 1.77-.2 9.08 9.08 0 0 0 1.05-.31l.2-.08.11.19a1.55 1.55 0 0 0 .43.49h.05v.06l.15.25-.27.1a9.07 9.07 0 0 1-3.7.77z"/><path id="パス_404" data-name="パス 404" class="cls-1" d="M44.45 11.7a4 4 0 0 0-1.31-2.38 3.72 3.72 0 0 0-1.23-.72 4.52 4.52 0 0 0-3.91.51 4.65 4.65 0 0 0-1 .89 7.76 7.76 0 0 0-.77 1c-.43.71-.78 1.44-1.16 2.13s-.75 1.39-1.16 2.07c-.81 1.35-1.67 2.7-2.52 4a21.05 21.05 0 0 1-2.67 3.43 3.87 3.87 0 0 1 .43.55 21.2 21.2 0 0 0 2.83-3.63c.85-1.34 1.68-2.7 2.51-4 .41-.68.81-1.37 1.2-2.06a15 15 0 0 1 1.23-2 4.14 4.14 0 0 1 1.66-1.33 4.85 4.85 0 0 1 2-.4 3 3 0 0 1 1.79.57 3.11 3.11 0 0 1 1.09 1.62 3.45 3.45 0 0 1 0 2.06 4.21 4.21 0 0 1-1.23 1.79 4.54 4.54 0 0 1-2 1 1.67 1.67 0 0 1-1.23-.12 1.07 1.07 0 0 1-.61-.92 1.16 1.16 0 0 0 .52 1 1.8 1.8 0 0 0 1.21.29 5 5 0 0 0 4-2.79 4.42 4.42 0 0 0 .33-2.56z"/><path id="パス_405" data-name="パス 405" class="cls-1" d="M29 11a2.93 2.93 0 0 1-.43-1.22 3.64 3.64 0 0 1 .09-1.23A7.53 7.53 0 0 1 29 7.36l.23-.58c.09-.18.19-.36.29-.54a11.72 11.72 0 0 1 3.18-3.65A12.87 12.87 0 0 1 41.79.07a12.2 12.2 0 0 1 8.07 4.77A12.71 12.71 0 0 1 52 9.06a10.06 10.06 0 0 1 .41 2.37v.6a5.83 5.83 0 0 1 0 .59 9 9 0 0 1-.07 1.16A16.18 16.18 0 0 1 49 22.31a39.33 39.33 0 0 1-6.59 6.24c-2.31 1.88-4.75 3.64-7 5.63a50 50 0 0 0-6.19 6.49 48.56 48.56 0 0 0-6.14-6.52c-2.22-2-4.6-3.81-6.95-5.67a36.59 36.59 0 0 1-6.57-6.23 16.73 16.73 0 0 1-2.31-4 16.91 16.91 0 0 1-1.07-4.49c0-.39 0-.78-.07-1.16v-1.19a10.61 10.61 0 0 1 .39-2.29A12.65 12.65 0 0 1 8.66 5a12 12 0 0 1 8-4.72 12.72 12.72 0 0 1 9 2.47 11.5 11.5 0 0 1 3.13 3.6c.1.18.2.35.29.54l.24.55a9.82 9.82 0 0 1 .38 1.16 3.92 3.92 0 0 1 .15.59c0 .2.07.39.1.61a1.67 1.67 0 0 1-.47 1.2zm0 0a1.72 1.72 0 0 1-.59-1 8.43 8.43 0 0 0-.2-1 6.6 6.6 0 0 0-.32-1l-.19-.48c-.07-.15-.16-.3-.24-.46a10.09 10.09 0 0 0-2.7-3.15 11.36 11.36 0 0 0-7.92-2.3 10.8 10.8 0 0 0-7.19 4.1 11.18 11.18 0 0 0-2 3.74 9.12 9.12 0 0 0-.39 2.07L7.2 12v.55a8 8 0 0 0 0 1.09 14.93 14.93 0 0 0 .9 4.23 15.33 15.33 0 0 0 2.08 3.81A37.57 37.57 0 0 0 16.53 28c2.28 1.92 4.64 3.83 6.78 5.91 1.09 1 2.14 2.11 3.13 3.24s1.91 2.32 2.78 3.53q1.3-1.83 2.75-3.54c1-1.14 2-2.21 3.12-3.26 2.17-2.1 4.49-4 6.76-5.94a37.51 37.51 0 0 0 6.27-6.26 15.14 15.14 0 0 0 2.06-3.79 14.7 14.7 0 0 0 .88-4.2 9.65 9.65 0 0 0 0-1.08v-1.13a10.21 10.21 0 0 0-.39-2 11.19 11.19 0 0 0-2-3.67 10.66 10.66 0 0 0-7.06-4A11.23 11.23 0 0 0 33.78 4a10 10 0 0 0-2.65 3.1c-.07.14-.16.29-.23.45l-.19.45a7.72 7.72 0 0 0-.32 1 6.91 6.91 0 0 1-.39 1 4.52 4.52 0 0 1-.59 1z"/><path id="パス_406" data-name="パス 406" class="cls-1" d="M44.39 38.56A1.25 1.25 0 0 1 43 36.71c2.1-3.27 5.93-8.54 9.59-10.14-.21-.21-5.16 5.15-4.36 7.18 0 0 5.8-1.24 8.19-9.72a.39.39 0 0 1 .45-.32.39.39 0 0 1 .33.45c-.39 4.14-2.58 11.09-12.81 14.4z"/><path id="パス_407" data-name="パス 407" class="cls-1" d="M12.76 38.56a1.25 1.25 0 0 0 1.44-1.85c-2.1-3.27-5.93-8.54-9.59-10.14.21-.21 5.16 5.15 4.35 7.18 0 0-5.79-1.24-8.18-9.72a.39.39 0 0 0-.45-.32.38.38 0 0 0-.32.45c.33 4.14 2.51 11.09 12.75 14.4z"/></g></g></svg>