<svg xmlns="http://www.w3.org/2000/svg" width="309.513" height="173"><g data-name="グループ化 274"><g data-name="グループ化 9" fill="#ff5cc1"><path data-name="パス 209" d="M30.321 56.996c0-1.672.228-4.787.684-8.892.38-3.5.836-6.991 2.2-16.946l-6.839.3a2.892 2.892 0 0 1-.456-1.672 3.95 3.95 0 0 1 .152-1.064l7.6-.3c.988-6.916 3.5-16.491 7.676-21.2-5.092-1.141-10.488-2.28-14.743-2.28-9.8 0-16.263 6-16.263 15.427 0 6.155 2.735 11.171 9.8 11.171l.152 1.445a11.658 11.658 0 0 1-4.407.836c-5.624 0-10.639-4.408-10.639-12.007C5.238 9.198 19.373.003 33.128.003c7.447 0 19.3 2.66 25.077 2.66 2.2 0 3.876-.38 4.864-1.976l1.444.532c0 4.255-1.9 8.359-8.662 8.359a63.919 63.919 0 0 1-11.4-1.672 166.066 166.066 0 0 0-3.876 20.138l9.044-.608a2.741 2.741 0 0 1 .456 1.52 4.5 4.5 0 0 1-.38 1.747l-9.5.152a249.7 249.7 0 0 0-1.824 26.674c-1.52.989-4.635 2.509-6.155 2.509-1.363-.002-1.895-1.295-1.895-3.042z"/><path data-name="パス 210" d="M61.022 47.116a22.4 22.4 0 0 1 5.623-14.667 17.9 17.9 0 0 1 13.223-6.155 18.717 18.717 0 0 1 9.119 2.507c-.836 4.788-2.128 12.919-2.128 18.239 0 4.712.988 8.588 3.115 8.588 2.508 0 6.08-5.471 8.74-20.291l2.127.228c-3.344 19-8.131 23.635-12.843 23.635-4.028 0-7.827-3.344-8.359-10.563h-.152c-2.356 7.143-5.7 10.563-9.728 10.563-4.557 0-8.737-4.485-8.737-12.084zm16.794-.608a137.2 137.2 0 0 0 3.572-14.9 8.752 8.752 0 0 0-4.864-1.52 8.171 8.171 0 0 0-5.472 2.052 30.055 30.055 0 0 0-2.964 13.222c0 5.244 1.444 9.956 3.876 9.956 1.825.006 3.877-2.654 5.852-8.809z"/><path data-name="パス 211" d="M102.057 48.638c0-6.688 1.444-13.6 1.9-20.063 1.519-.988 4.332-2.2 5.851-2.2 1.141 0 1.672.684 1.672 2.052 0 1.9-.988 6.155-1.747 11.1-.3 2.051-.532 4.1-.685 5.7h.229c2.355-11.247 7.675-18.314 13.754-19.227a13.088 13.088 0 0 1 7.3 4.636c-1.064 4.939-2.66 10.411-2.66 16.491 0 4.864.988 8.511 3.117 8.511 2.432 0 6-5.168 8.738-20.291l2.129.228c-3.42 19.075-8.208 23.558-13 23.558-4.179 0-8.208-3.572-8.208-12.007 0-6 1.748-12.616 1.748-14.591 0-.988-.3-1.824-1.519-1.824a4.278 4.278 0 0 0-2.736 1.368 25.249 25.249 0 0 0-5.168 9.2 51.907 51.907 0 0 0-2.66 16.187 11.975 11.975 0 0 1-4.559 1.52c-3.117-.014-3.496-6.777-3.496-10.348z"/><path data-name="パス 212" d="M144.99 29.333l-4.255.228a2.973 2.973 0 0 1-.3-1.368 4.586 4.586 0 0 1 .152-1.14l4.864-.228c1.215-7.143 1.445-9.194 2.052-12.386 1.672-1.064 4.559-2.356 6.079-2.356 1.064 0 1.52.531 1.52 1.6 0 1.672-1.292 7.3-2.356 12.767l8.663-.684a2.558 2.558 0 0 1 .38 1.292 3.04 3.04 0 0 1-.532 1.6l-9.043.379a99.491 99.491 0 0 0-1.6 15.5c0 7.752 1.749 11.248 4.333 11.248 3.344 0 7.979-5.852 10.488-20.443l2.127.228c-3.647 21.354-10.791 23.635-14.666 23.635-4.256 0-9.8-2.736-9.8-13.907-.005-4.566.906-10.265 1.894-15.965z"/><path data-name="パス 213" d="M165.661 47.116a22.4 22.4 0 0 1 5.623-14.667 17.9 17.9 0 0 1 13.223-6.155 18.721 18.721 0 0 1 9.12 2.507c-.833 4.788-2.133 12.919-2.133 18.239 0 4.712.989 8.588 3.116 8.588 2.508 0 6.08-5.471 8.74-20.291l2.128.228c-3.344 19-8.131 23.635-12.844 23.635-4.027 0-7.826-3.344-8.358-10.563h-.152c-2.357 7.143-5.7 10.563-9.727 10.563-4.555 0-8.736-4.485-8.736-12.084zm16.8-.608a137.171 137.171 0 0 0 3.571-14.9 8.749 8.749 0 0 0-4.864-1.52 8.171 8.171 0 0 0-5.471 2.052 30.056 30.056 0 0 0-2.963 13.222c0 5.244 1.445 9.956 3.876 9.956 1.817.006 3.87-2.654 5.846-8.809z"/><path data-name="パス 214" d="M210.95 51.068a4.768 4.768 0 0 0 4.864 5.092c2.812 0 4.711-1.444 4.711-3.724 0-2.356-1.9-4.1-5.927-7.143-4.331-3.344-7.22-5.624-7.22-9.2 0-6.232 7.98-9.955 13.527-9.955 4.256 0 7.524 2.2 7.524 5.623 0 2.964-2.28 5.016-5.472 5.016a5.053 5.053 0 0 0 .228-1.6c0-3.04-1.9-5.853-5.548-5.853-2.66 0-4.559 1.6-4.559 3.724 0 2.2 2.128 4.028 6.687 7.523 3.951 3.04 6.764 5.092 6.764 8.511 0 5.7-7.3 10.108-13.071 10.108-3.191 0-6.459-1.368-6.459-4.408a3.652 3.652 0 0 1 3.951-3.714z"/><path data-name="パス 215" d="M239.525 29.333l-4.256.228a2.984 2.984 0 0 1-.3-1.368 4.62 4.62 0 0 1 .152-1.14l4.864-.228c1.216-7.143 1.444-9.194 2.052-12.386 1.672-1.064 4.56-2.356 6.08-2.356 1.063 0 1.52.531 1.52 1.6 0 1.672-1.292 7.3-2.357 12.767l8.664-.684a2.558 2.558 0 0 1 .38 1.292 3.04 3.04 0 0 1-.532 1.6l-9.044.379a99.586 99.586 0 0 0-1.6 15.5c0 7.752 1.748 11.248 4.332 11.248 3.344 0 7.98-5.852 10.487-20.443l2.128.228c-3.647 21.354-10.791 23.635-14.667 23.635-4.256 0-9.8-2.736-9.8-13.907-.002-4.566.909-10.265 1.897-15.965z"/><path data-name="パス 216" d="M265.209 28.574c1.52-.988 4.332-2.2 5.852-2.2 1.14 0 1.672.684 1.672 2.052a69.757 69.757 0 0 1-1.063 6.991 79.284 79.284 0 0 0-1.445 12.539c0 4.028.912 7.675 3.04 7.675 2.508 0 6.08-5.168 8.815-20.291l2.129.228c-3.42 19-8.132 23.558-13 23.558-4.332 0-8.056-3.572-8.056-11.4.004-5.396 1.451-12.692 2.056-19.152zm2.432-12.995a4.38 4.38 0 0 1 4.408-4.484 4.446 4.446 0 1 1 0 8.891 4.362 4.362 0 0 1-4.408-4.406z"/><path data-name="パス 217" d="M289.147 31.082c3.116-2.812 7.22-4.864 11.171-4.864 4.1 0 6.916 2.28 6.916 5.4a5.063 5.063 0 0 1-5.548 5.016 4.685 4.685 0 0 0 .152-1.444c0-2.661-1.215-5.32-4.331-5.32-2.507 0-4.559 1.748-5.852 4.18a21.04 21.04 0 0 0-2.128 9.5c0 7.523 3.572 12.16 8.587 12.16 3.572 0 6.992-2.432 9.652-6.536l1.746 1.059c-3.267 6.308-8.739 9.12-13.831 9.12-6.764 0-13.3-4.94-13.3-13.679a19.869 19.869 0 0 1 6.766-14.592z"/><path data-name="パス 218" d="M0 128.187l1.444-.609a7.383 7.383 0 0 0 6.687 4.255c3.724 0 7.523-2.507 11.551-9.423 6.307-10.792 11.1-28.649 11.1-40.277 2.735-1.672 5.623-2.736 6.991-2.736a1.392 1.392 0 0 1 1.52 1.52c0 .532-.152 2.432-.228 3.344-.456 4.636-1.064 11.475-1.064 17.555 0 7.448.912 11.7 3.116 11.7 2.583 0 6.459-5.776 10.107-18.011 1.216-4.028 2.432-8.968 3.5-13.6 2.736-1.6 5.319-2.508 6.688-2.508.989 0 1.52.457 1.52 1.368 0 .989-.531 3.04-1.52 8.056-2.508 12.616-4.864 27.129-4.864 35.413 0 4.636.76 10.108 3.42 10.108 2.583 0 6.84-4.788 9.576-20.9l2.128.227c-3.04 18.846-8.816 24.927-14.211 24.927-5.776 0-8.511-6.46-8.511-16.339a105.669 105.669 0 0 1 1.672-17.478h-.152c-2.66 6.611-6.916 13.6-12.16 13.6-5.319 0-7.143-7.068-7.143-14.9h-.152a101.687 101.687 0 0 1-6 19.15c-4.1 9.2-9.424 14.971-16.11 14.971-5.409.01-8.297-3.865-8.905-9.413z"/><path data-name="パス 219" d="M77.435 108.124c2.66-2.2 6-3.8 9.12-3.8 3.648 0 5.927 2.2 5.927 5.472 0 2.812-1.748 5.7-4.255 7.826a29.668 29.668 0 0 1-11.1 5.4c.456 6.46 3.572 10.64 7.827 10.64 5.168 0 11.324-6.308 13.983-20.215l2.129.227c-3.04 16.8-11.1 23.635-18.467 23.635-6.384 0-12.614-5.016-12.614-13.755a20.134 20.134 0 0 1 7.45-15.43zm9.2 3.419c0-2.2-.988-3.5-2.736-3.5-2.127 0-3.951 1.824-5.167 4.635a23.164 23.164 0 0 0-1.6 7.751c3.951-.83 9.498-3.566 9.498-8.89z"/><path data-name="パス 220" d="M102.287 126.819c0-6.839 1.444-13.6 1.9-20.139 1.519-.988 4.331-2.2 5.851-2.2 1.14 0 1.672.684 1.672 2.052a79.182 79.182 0 0 1-1.52 9.5c-.531 2.888-.911 5.4-1.063 7.221h.227c2.431-11.248 7.6-18.24 13.679-19.151a12.845 12.845 0 0 1 7.3 4.635c-1.063 4.939-2.963 11.323-3.039 17.1h.227c3.041-13.982 8.36-20.822 14.44-21.733a12.216 12.216 0 0 1 7.371 4.635c-1.14 4.939-2.736 10.412-2.736 16.491 0 4.864 1.064 8.512 3.116 8.512 2.431 0 6-5.169 8.74-20.291l2.128.227c-3.345 19.075-8.207 23.558-12.919 23.558-4.256 0-8.283-3.571-8.283-12.007 0-5.928 1.975-12.615 1.975-14.591a1.6 1.6 0 0 0-1.672-1.824 4.277 4.277 0 0 0-2.735 1.369c-1.9 1.823-3.8 5.318-5.167 9.194a50.718 50.718 0 0 0-2.66 15.807 6.993 6.993 0 0 1-4.028 1.9c-3.192 0-4.56-5.852-4.56-11.247 0-6.383 1.9-13.222 1.9-15.2a1.631 1.631 0 0 0-1.672-1.824 4.271 4.271 0 0 0-2.735 1.369c-1.9 1.823-3.8 5.318-5.168 9.194a48.111 48.111 0 0 0-2.66 16.187 11.464 11.464 0 0 1-4.407 1.52c-3.124-.005-3.502-6.769-3.502-10.264z"/><path data-name="パス 221" d="M168.549 108.049l.76 1.52c-2.584 1.976-3.42 6.155-3.42 9.956 0 6.915 2.888 14.135 8.056 14.135 3.267 0 5.548-2.888 6.688-6.536a14.347 14.347 0 0 1-10.563-13.755c0-5.852 3.42-9.5 7.752-9.5 4.1 0 9.5 3.344 9.5 12.539a24.608 24.608 0 0 1-1.292 7.9c4.787-.3 8.283-3.647 9.271-10.866l2.128.227c-1.292 11.171-7.676 13.984-12.843 13.984-2.66 5.168-7.221 9.8-13.147 9.8-6.46 0-12.464-5.471-12.464-14.439-.001-6.758 3.495-12.609 9.574-14.965zm13 12.918c0-6.383-2.812-12.691-5.928-12.691-2.052 0-2.66 2.736-2.66 4.636 0 4.635 3.572 9.119 8.436 10.715.071-.835.147-1.748.147-2.66z"/><path data-name="パス 222" d="M197.653 132.214c0-4.027 2.205-14.362 2.205-22.114a22.036 22.036 0 0 0-.228-3.42c1.52-.988 4.256-2.2 5.7-2.2 1.672 0 1.976 1.747 1.976 3.572a48.327 48.327 0 0 1-1.672 10.183l.227.076c2.964-8.207 6.232-13.907 10.64-13.907a4.4 4.4 0 0 1 4.712 4.407c0 2.432-1.976 4.1-4.485 5.016-.532-1.9-1.367-2.887-2.66-2.887-2.2 0-4.635 3.115-6.611 8.588a54.7 54.7 0 0 0-2.888 16.642 15.711 15.711 0 0 1-4.18 1.292c-2.048-.004-2.736-2.967-2.736-5.248z"/><path data-name="パス 223" d="M229.19 106.68c1.52-.988 4.332-2.2 5.852-2.2 1.14 0 1.672.684 1.672 2.052a69.551 69.551 0 0 1-1.064 6.992 79.283 79.283 0 0 0-1.444 12.539c0 4.027.912 7.675 3.041 7.675 2.507 0 6.079-5.169 8.815-20.291l2.128.227c-3.419 19-8.131 23.558-12.995 23.558-4.333 0-8.056-3.571-8.056-11.4 0-5.397 1.443-12.692 2.051-19.152zm2.432-12.995a4.38 4.38 0 0 1 4.407-4.484 4.446 4.446 0 1 1 0 8.892 4.363 4.363 0 0 1-4.406-4.407z"/><path data-name="パス 224" d="M253.963 108.124c2.661-2.2 6-3.8 9.12-3.8 3.648 0 5.928 2.2 5.928 5.472 0 2.812-1.748 5.7-4.256 7.826a29.657 29.657 0 0 1-11.094 5.4c.456 6.46 3.571 10.64 7.827 10.64 5.168 0 11.323-6.308 13.983-20.215l2.129.227c-3.041 16.8-11.1 23.635-18.467 23.635-6.384 0-12.615-5.016-12.615-13.755a20.135 20.135 0 0 1 7.445-15.43zm9.2 3.419c0-2.2-.989-3.5-2.736-3.5-2.128 0-3.952 1.824-5.168 4.635a23.131 23.131 0 0 0-1.6 7.751c3.953-.83 9.5-3.566 9.5-8.89z"/><path data-name="パス 225" d="M283.069 129.174a4.767 4.767 0 0 0 4.864 5.092c2.812 0 4.711-1.444 4.711-3.724 0-2.355-1.9-4.1-5.928-7.143-4.332-3.344-7.219-5.623-7.219-9.2 0-6.231 7.979-9.955 13.527-9.955 4.256 0 7.523 2.2 7.523 5.623 0 2.965-2.28 5.016-5.471 5.016a5.065 5.065 0 0 0 .227-1.6c0-3.039-1.9-5.851-5.548-5.851-2.66 0-4.559 1.6-4.559 3.723 0 2.2 2.126 4.028 6.688 7.523 3.951 3.04 6.763 5.092 6.763 8.512 0 5.7-7.3 10.107-13.071 10.107-3.192 0-6.459-1.368-6.459-4.408a3.654 3.654 0 0 1 3.952-3.715z"/></g><g data-name="グループ化 11"><g data-name="グループ化 10" fill="#ff5cc1"><path data-name="パス 226" d="M212.653 170.223c0 1.522.082 1.729.782 1.851l.37.062c.144.145.123.514-.041.6a41.15 41.15 0 0 0-2.223-.062c-.678 0-1.378.022-2.16.062-.165-.082-.185-.452-.041-.6l.37-.062c.7-.123.782-.329.782-1.851v-3.025c0-.925 0-1.172-.514-1.482l-.247-.144a.547.547 0 0 1 .021-.472 12.232 12.232 0 0 0 2.675-1.111.377.377 0 0 1 .288.165 46.435 46.435 0 0 0-.063 2.51zm-2.345-9.075a1.255 1.255 0 1 1 1.255 1.235 1.2 1.2 0 0 1-1.259-1.235z"/><path data-name="パス 227" d="M218.58 170.222c0 1.522.082 1.769.782 1.872l.308.041c.145.145.123.514-.041.6a38.51 38.51 0 0 0-4.404 0c-.165-.082-.184-.452-.041-.6l.453-.062c.7-.1.782-.329.782-1.851v-3.025c0-.925 0-1.172-.513-1.482l-.247-.144a.543.543 0 0 1 .02-.472 13.939 13.939 0 0 0 2.675-1.111.286.286 0 0 1 .268.165 9.266 9.266 0 0 0-.041.947c0 .143.062.185.184.206a5.051 5.051 0 0 1 2.819-1.029c1.667 0 2.448 1.152 2.448 2.757v3.19c0 1.522.082 1.769.782 1.851l.474.062c.143.145.123.514-.041.6a48.379 48.379 0 0 0-2.326-.062q-1.019 0-2.1.062c-.165-.082-.184-.452-.041-.6l.31-.041c.7-.1.781-.35.781-1.872v-2.84c0-1.05-.412-1.872-1.646-1.872a1.68 1.68 0 0 0-1.358.637c-.268.371-.288.556-.288 1.317z"/><path data-name="パス 228" d="M246.872 165.922a6.977 6.977 0 0 1-7.242 7.079c-4.651 0-7.325-3.271-7.325-6.935a7.084 7.084 0 0 1 7.367-7.3 6.838 6.838 0 0 1 7.2 7.156zm-11.77-.452c0 2.839 1.214 6.707 4.732 6.707 2.346 0 4.239-1.749 4.239-5.885 0-3.107-1.4-6.707-4.672-6.707-2.057 0-4.299 1.503-4.299 5.885z"/><path data-name="パス 229" d="M249.525 172.136a6.1 6.1 0 0 1-.617-3.127.457.457 0 0 1 .638-.082c.37 1.05 1.481 3.251 3.5 3.251a2.191 2.191 0 0 0 2.449-2.2c0-1.173-.556-2.12-2.1-2.984l-.885-.494c-1.542-.863-2.9-2.119-2.9-3.971 0-2.037 1.523-3.765 4.527-3.765a13.668 13.668 0 0 1 2.818.432 8.585 8.585 0 0 1 .433 2.777.5.5 0 0 1-.659.062 2.922 2.922 0 0 0-2.778-2.448 2.1 2.1 0 0 0-2.325 2.161 3.051 3.051 0 0 0 1.954 2.509l1.276.68a4.652 4.652 0 0 1 2.82 4.053c0 2.345-1.792 4.012-4.774 4.012a6.219 6.219 0 0 1-3.377-.866z"/><path data-name="パス 230" d="M263.103 167.629c-.535 0-.514 0-.7.556l-.823 2.47c-.412 1.214-.144 1.254.617 1.379l.6.1c.144.145.124.515-.041.6-.658-.04-1.441-.04-2.285-.062-.678 0-1.317.022-2.036.062a.462.462 0 0 1-.022-.6l.617-.1c.6-.1.823-.268 1.133-.948.247-.534.576-1.4 1.007-2.51l2.819-7.325a3.539 3.539 0 0 0 .39-1.5 3.59 3.59 0 0 0 1.44-.988.412.412 0 0 1 .351.165c.328.926.6 1.892.925 2.82l2.963 8.621c.474 1.378.576 1.5 1.626 1.707l.309.062a.444.444 0 0 1 .021.6 52.41 52.41 0 0 0-2.674-.062c-.885 0-1.791.041-2.511.062a.47.47 0 0 1-.062-.6l.453-.062c.741-.1.844-.226.535-1.091l-.967-2.8c-.185-.556-.267-.556-.844-.556zm2.573-.926c.575 0 .658-.041.494-.535l-.865-2.469a14.805 14.805 0 0 0-.6-1.707h-.041c-.082.143-.288.741-.637 1.707l-.926 2.408c-.206.6-.164.6.329.6z"/><path data-name="パス 231" d="M277.075 164.338c0 .557.022.927.351.927.39 0 .864-.473 1.542-1.214l2.1-2.264a16.759 16.759 0 0 0 1.11-1.275c.37-.473.392-.638.145-.7l-.638-.184a.425.425 0 0 1 .041-.6c.864.04 1.544.062 2.3.062.885 0 1.523-.041 2.264-.062a.358.358 0 0 1 .062.6c-1.914.267-2.469.76-3.89 2.139l-2.51 2.531c-.247.247-.288.369-.062.679 1.626 2.139 3.581 4.588 5.062 6.317a2.173 2.173 0 0 0 1.523.781l.494.062c.144.1.124.535-.041.6a46.99 46.99 0 0 0-2.633-.062c-1.009 0-1.934.022-2.84.062a.367.367 0 0 1-.041-.6l.556-.082c.328-.041.369-.267.144-.556-.864-1.07-3.313-4.4-4.074-5.185-.145-.144-.31-.309-.494-.309-.515 0-.474.494-.474 1.092v2.613c0 2.181.186 2.243 1.152 2.366l.516.062a.445.445 0 0 1-.041.6c-.968-.04-1.893-.062-2.8-.062s-1.873.022-2.614.062a.445.445 0 0 1-.041-.6l.288-.041c.967-.143 1.152-.206 1.152-2.386v-7.657c0-2.18-.185-2.222-1.152-2.366l-.39-.062c-.145-.145-.123-.514.041-.6a58.034 58.034 0 0 0 5.35 0 .444.444 0 0 1 .041.6l-.351.062c-.966.165-1.152.185-1.152 2.366z"/><path data-name="パス 232" d="M290.903 167.629c-.535 0-.516 0-.7.556l-.823 2.47c-.411 1.214-.144 1.254.617 1.379l.6.1c.145.145.124.515-.041.6-.658-.04-1.44-.04-2.284-.062-.679 0-1.316.022-2.037.062a.461.461 0 0 1-.02-.6l.617-.1c.6-.1.822-.268 1.131-.948.247-.534.576-1.4 1.008-2.51l2.818-7.325a2.36 2.36 0 0 1 1.832-2.49.41.41 0 0 1 .35.165c.329.926.6 1.892.926 2.82l2.964 8.621c.472 1.378.575 1.5 1.625 1.707l.309.062a.443.443 0 0 1 .021.6 52.567 52.567 0 0 0-2.675-.062c-.884 0-1.79.041-2.51.062a.47.47 0 0 1-.062-.6l.453-.062c.741-.1.843-.226.535-1.091l-.967-2.8c-.185-.556-.268-.556-.844-.556zm2.571-.926c.576 0 .659-.041.494-.535l-.865-2.469a15.5 15.5 0 0 0-.6-1.707h-.041c-.082.143-.288.741-.639 1.707l-.925 2.408c-.206.6-.165.6.329.6z"/></g></g></g></svg>