<svg xmlns="http://www.w3.org/2000/svg" width="204.282" height="132.161"><defs><linearGradient id="a" x1=".5" x2=".5" y2="1" gradientUnits="objectBoundingBox"><stop offset="0" stop-color="#fff8ba"/><stop offset="1" stop-color="#ff88d2"/></linearGradient></defs><g data-name="グループ化 256" transform="rotate(-29 -292.023 331.241)" opacity=".44" fill="url(#a)"><path data-name="パス 355" d="M143.419 266.94a3.465 3.465 0 0 1-.311.944c-2.2 5.55-13.931 25.342-29.117 25.342-9.738 0-19.272-7.646-19.272-15.711 0-19.058 34.667-41.472 59.591-41.472 10.263 0 17.594 5.137 17.594 14.875 0 3.77-1.464 9.111-4.29 15.92 14.661-11.839 25.026-21.159 33.616-21.159 3.351 0 9 4.3 9 7.647 0 10.784-24.3 36.549-24.3 55.087 0 6.177 2.617 8.376 5.866 8.376.316 0 .837.107.837.627 0 .418-.734.628-1.571.628-3.979 0-12.671-3.77-12.671-12.248 0-19.588 24.506-46.92 24.506-55.714a2.115 2.115 0 0 0-2.306-2.2c-8.167 0-20.42 11.411-35.4 23.98-12.044 22.725-20.109 40.528-28.378 40.528-2.831 0-6.912-1.989-6.912-5.025 0-4.713 11.411-18.119 24.924-31.208 5.55-11.732 9.427-22.307 9.427-28.8 0-5.968-1.887-9.743-10.161-9.743-23.144 0-52.465 23.567-52.465 43.568 0 5.968 3.137 9.111 8.269 9.111 18.328 0 29.219-18.328 31.734-22.935.418-.837.628-1.255 1.153-1.255s.637.521.637.837zm-10.473 41.365c1.464 0 10.473-11.1 17.7-24.506-9.422 9.529-18.532 20.736-18.532 23.776a.746.746 0 0 0 .833.73z"/><path data-name="パス 356" d="M229.318 291.553a.441.441 0 0 1 .423.418c0 .2-.734.939-1.051 1.255 0 0-10.37 11.309-18.43 11.309-5.448 0-8.9-3.351-8.9-8.8 0-9.422 9.738-19.267 14.768-19.267 3.244 0 4.816 3.77 4.816 4.922 0 2.515-5.759 7.856-11.518 11.518a20.383 20.383 0 0 0-.316 3.668c0 3.244 1.362 5.55 3.77 5.55 5.55 0 15.813-10.156 15.813-10.156s.418-.417.625-.417zm-11.1-10.054c0-.316-.107-.734-.525-.734-1.566 0-5.025 3.142-8.167 10.473 4.404-3.144 8.692-7.857 8.692-9.74z"/><path data-name="パス 357" d="M238.125 277.933c1.571 0 4.713 2.719 4.713 5.443 0 4.3-10.263 14.14-10.263 20.216 0 .311.107.729.627.729 1.887 0 8.59-5.866 14.033-14.033 1.882-2.515 2.933-4.923 3.77-4.923 1.046 0 4.816 2.831 4.816 4.713 0 1.678-3.351 5.443-3.351 8.9 0 1.571.735 2.2 1.576 2.2 5.55 0 11.1-12.253 11.1-19.685 0-4.713-1.153-5.132-1.153-5.866 0-.316.209-.525.73-.525a5.577 5.577 0 0 1 4.611 5.55c0 7.544-9.529 22.2-15.5 22.2-3.668 0-7.335-2.408-7.335-6.494a19.137 19.137 0 0 1 .316-2.826s-9.636 12.564-12.88 12.564c-2.622 0-6.494-2.933-6.494-6.912 0-6.6 9.32-14.87 9.32-20.211.002-.515.104-1.04 1.364-1.04z"/><path data-name="パス 358" d="M277.719 288.411c-2.617 2.826-4.606 4.816-4.606 4.816-.209.209-.418.418-.52.418a.451.451 0 0 1-.423-.418c0-.316.423-.734.944-1.255 0 0 1.571-1.678 4.188-4.5a12.451 12.451 0 0 1-1.357-4.611c0-3.765 5.127-8.269 7.851-8.269 1.78 0 4.3 2.826 4.3 4.29 0 1.362-6.912 4.82-6.912 7.647 0 3.561 2.2 5.239 3.035 8.692 3.351.521 4.713 1.678 4.713 2.1a1.449 1.449 0 0 1-1.255 1.148 24.776 24.776 0 0 0-3.249-1.78 7.022 7.022 0 0 1 .209 1.576c0 4.606-5.234 8.795-10.263 8.795-5.443 0-9.738-4.923-9.738-7.647 0-.944.734-1.464 1.78-1.882a68.5 68.5 0 0 1 11.835-2.515 4.214 4.214 0 0 0 .107-1.153 15.076 15.076 0 0 0-.639-5.452zm-10.891 11.309c0 .734 1.989 1.678 5.341 1.678 3.458 0 5.132-2.413 5.866-5.346a37.938 37.938 0 0 0-10.37 2.826c-.73.317-.837.526-.837.842z"/></g></svg>