<svg xmlns="http://www.w3.org/2000/svg" width="9.158" height="10.989"><g data-name="グループ化 69"><g data-name="グループ化 62"><path data-name="パス 840" d="M8.938 2.564v8.205H.22V.22h5.96z" fill="#88d1ff"/><path data-name="パス 841" d="M8.938 10.989H.22a.22.22 0 0 1-.22-.22V.22A.22.22 0 0 1 .22 0h5.96a.22.22 0 0 1 .142.052l2.757 2.344a.22.22 0 0 1 .077.167v8.205a.22.22 0 0 1-.218.221zm-8.5-.44h8.278V2.665L6.1.44H.44z" fill="#fff"/></g><g data-name="グループ化 63" fill="#fff"><path data-name="パス 842" d="M8.937 2.564H6.18V.22z"/><path data-name="パス 843" d="M8.937 2.783H6.18a.22.22 0 0 1-.22-.22V.219a.22.22 0 0 1 .362-.167l2.757 2.344a.22.22 0 0 1-.142.387zm-2.538-.44h1.94L6.4.699z"/></g><g data-name="グループ化 70"><g data-name="グループ化 64"><path data-name="パス 844" d="M4.542 2.418h-3a.147.147 0 1 1 0-.293h3a.147.147 0 1 1 0 .293z" fill="#fff"/></g><g data-name="グループ化 65"><path data-name="パス 845" d="M7.033 4.176H1.539a.147.147 0 0 1 0-.293h5.494a.147.147 0 1 1 0 .293z" fill="#fff"/></g><g data-name="グループ化 66"><path data-name="パス 846" d="M7.033 5.934H1.539a.147.147 0 0 1 0-.293h5.494a.147.147 0 0 1 0 .293z" fill="#fff"/></g><g data-name="グループ化 67"><path data-name="パス 847" d="M7.033 7.693H1.539a.147.147 0 1 1 0-.293h5.494a.147.147 0 1 1 0 .293z" fill="#fff"/></g><g data-name="グループ化 68"><path data-name="パス 848" d="M7.033 9.451H1.539a.147.147 0 1 1 0-.293h5.494a.147.147 0 1 1 0 .293z" fill="#fff"/></g></g></g></svg>