<svg xmlns="http://www.w3.org/2000/svg" width="265.014" height="135.664"><defs><linearGradient id="a" x1=".5" x2=".5" y2="1" gradientUnits="objectBoundingBox"><stop offset="0" stop-color="#fff8ba"/><stop offset="1" stop-color="#ff88d2"/></linearGradient></defs><g data-name="グループ化 98" transform="rotate(-20.97 -395.989 385.134)" opacity=".439" fill="url(#a)"><path data-name="パス 312" d="M151.854 242.167a17.128 17.128 0 0 1-1.47 4.533c-8.086 19.724-22.67 32.471-36.881 32.471-9.188 0-18.627-5.88-18.627-15.559 0-29.046 52.2-52.819 91.409-52.819 19.73 0 32.354 9.072 32.354 21.077 0 22.915-33.7 41.665-55.508 41.665-3.926 0-5.886-.49-5.886-1.348 0-.49.613-.735.98-.735s1.966.123 2.573.123c17.77 0 48.4-19.24 48.4-42.277 0-9.556-8.821-16.539-26.59-16.539-27.57 0-79.526 25.727-79.526 54.16 0 5.758 2.334 9.923 8.214 9.923 14.578 0 30.143-16.293 38.473-34.186.368-.864.735-1.593 1.225-1.593.615.001.86.608.86 1.104zm31.123-26.1c2.45 0 6 5.635 6 7.105 0 .735-.367 1.1-1.593 1.838-13.231 7.969-46.442 57.713-46.442 79.893 0 .612-.116 1.348-1.219 1.348-.735 0-5.641-2.94-5.641-5.145.003-21.078 40.565-85.039 48.895-85.039z"/><path data-name="パス 313" d="M237.97 276.226c.245-.245.49-.49.735-.49a.515.515 0 0 1 .49.49c0 .245-.858 1.1-1.225 1.47 0 0-15.932 15.068-22.67 15.068-3.308 0-6.86-2.45-6.86-7.473 0-23.037 23.283-58.816 33.941-58.816 4.043 0 6.615 3.675 6.615 7.111 0 7.473-18.989 29.157-30.756 40.311 0 0-2.7 7.228-2.7 12.251 0 2.94 1.593 3.43 2.328 3.43 5.518.006 20.102-13.352 20.102-13.352zm8.208-42.761a1.067 1.067 0 0 0-1.1-.986c-6.248 0-22.058 26.223-25.978 38.234 9.431-9.435 27.078-30.261 27.078-37.244z"/><path data-name="パス 314" d="M286.367 276.231c.245-.245.49-.49.735-.49a.515.515 0 0 1 .49.49c0 .245-.858 1.1-1.225 1.47 0 0-11.889 12.741-19.485 12.741-4.165 0-7.84-2.573-7.84-6.493a38.716 38.716 0 0 1 .245-4.288c-6.125 6.125-13.966 13.843-16.79 13.843-3.675 0-7.841-4.043-7.841-7.841 0-9.8 17.4-25.978 27.938-25.978 5.023 0 9.678 4.416 9.678 7.112 0 1.837-.613 3.308-1.225 3.308a2.066 2.066 0 0 1-1.348-1.47c0-.49.612-.98.612-2.083a2.129 2.129 0 0 0-1.96-1.593c-11.271 0-26.713 17.274-26.713 24.992 0 .735.368 1.1.858 1.1 2.328 0 10.909-7.963 16.79-13.843 3.675-3.675 6.86-6.616 8.208-6.616 1.225 0 4.9 3.8 4.9 5.758 0 1.47-5.513 5.513-5.513 9.188a1.7 1.7 0 0 0 1.838 1.715c6.004.003 17.648-11.022 17.648-11.022z"/><path data-name="パス 315" d="M296.646 294.116c-4.9 0-9.8-2.934-9.8-8.7 0-12.251 13.727-25.855 21.935-25.855 3.063 0 6.37 2.205 6.37 5.513 0 1.844-1.225 4.165-3.43 6.5a9.1 9.1 0 0 1-2.205.367.264.264 0 0 1-.251-.245 1.325 1.325 0 0 1 .374-.735c1.593-1.6 3.43-4.165 3.43-5.641 0-.123-.123-.729-.98-.729-5.886 0-17.647 11.393-17.647 21.806 0 3.063 1.593 4.784 3.92 4.784 9.807 0 25.365-14.952 25.365-14.952s.49-.49.735-.49.49.368.49.49c0 .245-.858 1.1-1.225 1.47.002.001-17.03 16.417-27.081 16.417z"/><path data-name="パス 316" d="M325.067 280.64c0-11.026 11.393-22.547 17.274-22.547 3.8 0 5.641 4.41 5.641 5.764 0 3.185-7.473 9.311-14.217 13.6a22.907 22.907 0 0 0-.368 4.165c0 3.8 1.838 6.5 4.661 6.5 2.573 0 5.145-2.7 7.228-4.539.613-.612.98-.98 1.225-.98a.706.706 0 0 1 .735.735 4.075 4.075 0 0 1-1.225 1.96c-2.45 2.45-5.513 5.635-10.542 5.635-6.368-.002-10.412-3.922-10.412-10.293zm19.852-16.662a.816.816 0 0 0-.735-.864c-1.844 0-6.738 3.926-10.419 12.379 5.39-3.673 11.154-9.315 11.154-11.515z"/></g></svg>