<svg xmlns="http://www.w3.org/2000/svg" width="224.562" height="131.537"><defs><linearGradient id="a" x1=".5" x2=".5" y2="1" gradientUnits="objectBoundingBox"><stop offset="0" stop-color="#fff8ba"/><stop offset="1" stop-color="#ff88d2"/></linearGradient></defs><g data-name="グループ化 110" transform="rotate(-25.97 -353.714 349.045)" opacity=".44" fill="url(#a)"><path data-name="パス 342" d="M148.236 265.506a16.089 16.089 0 0 1-1.379 4.26c-7.6 18.527-21.3 30.495-34.643 30.495-8.633 0-17.5-5.522-17.5-14.614 0-27.277 49.027-49.6 85.856-49.6 18.527 0 30.383 8.52 30.383 19.8 0 21.52-31.649 39.127-52.132 39.127-3.683 0-5.527-.46-5.527-1.267 0-.46.577-.69.925-.69s1.839.118 2.416.118c16.683 0 45.456-18.072 45.456-39.71 0-8.975-8.285-15.533-24.973-15.533-25.893 0-74.69 24.166-74.69 50.866 0 5.409 2.186 9.322 7.708 9.322 13.7 0 28.314-15.3 36.139-32.109.348-.8.69-1.5 1.149-1.5.582-.002.812.575.812 1.035zm29.233-24.513c2.3 0 5.634 5.292 5.634 6.676 0 .69-.342 1.037-1.491 1.727-12.433 7.478-43.617 54.206-43.617 75.037 0 .577-.118 1.261-1.149 1.261-.695 0-5.3-2.758-5.3-4.832.002-19.794 38.092-79.869 45.923-79.869z"/><path data-name="パス 343" d="M226.865 297.503c.23-.23.46-.46.69-.46a.479.479 0 0 1 .46.46c0 .224-.807 1.032-1.149 1.379 0 0-14.961 14.154-21.29 14.154-3.111 0-6.446-2.3-6.446-7.018 0-21.638 21.868-55.243 31.879-55.243 3.8 0 6.217 3.453 6.217 6.676 0 7.018-17.837 27.389-28.886 37.861 0 0-2.534 6.794-2.534 11.514 0 2.758 1.5 3.218 2.186 3.218 5.178-.001 18.873-12.541 18.873-12.541zm7.708-40.17a1 1 0 0 0-1.032-.919c-5.869 0-20.718 24.631-24.4 35.91 8.861-8.863 25.435-28.426 25.435-34.99z"/><path data-name="パス 344" d="M272.327 297.503c.23-.23.465-.46.695-.46a.484.484 0 0 1 .46.46c0 .225-.807 1.032-1.155 1.379 0 0-11.161 11.968-18.3 11.968-3.913 0-7.366-2.416-7.366-6.1a36.332 36.332 0 0 1 .23-4.025c-5.752 5.752-13.117 13-15.763 13-3.453 0-7.366-3.8-7.366-7.366 0-9.2 16.34-24.4 26.24-24.4 4.715 0 9.087 4.143 9.087 6.676 0 1.727-.572 3.106-1.149 3.106a1.93 1.93 0 0 1-1.267-1.379c0-.46.577-.919.577-1.956a2 2 0 0 0-1.844-1.5c-10.584 0-25.085 16.228-25.085 23.476 0 .69.342 1.037.807 1.037 2.181 0 10.242-7.483 15.763-13 3.453-3.453 6.446-6.217 7.713-6.217 1.149 0 4.6 3.571 4.6 5.409 0 1.379-5.18 5.18-5.18 8.633a1.6 1.6 0 0 0 1.727 1.614c5.645.004 16.576-10.355 16.576-10.355z"/><path data-name="パス 345" d="M301.918 308.546c.577-.342.69-.46 1.037-.46s.577.46.577.69c0 .347-.465.7-.925 1.037-1.379 1.037-3.223 2.186-4.49 2.186-4.025 0-7.248-4.372-7.248-7.478 0-5.062 4.832-11.508 4.832-12.316a.247.247 0 0 0-.23-.23c-1.032 0-8.745 3.913-15.074 9.664-7.136 6.446-8.515 13.353-9.9 13.353-1.839 0-3.8-3.8-3.8-6.217 0-2.3 13.582-21.632 13.582-24.968 0-.925.46-1.384 1.032-1.384 2.3 0 5.869 3.223 5.869 6.217 0 1.727-2.069 4.72-4.6 8.975 4.6-3.335 15.309-10.354 19.446-10.354 2.3 0 4.03 4.025 4.03 5.522 0 1.267-9.092 9.782-9.092 15.421a1.42 1.42 0 0 0 1.5 1.379 6.21 6.21 0 0 0 3.454-1.037z"/></g></svg>