<svg xmlns="http://www.w3.org/2000/svg" width="139.683" height="94.704"><g data-name="グループ化 35" fill="#ff88d2"><path data-name="パス 346" d="M27.78 53.435C17.51 59.364 6.77 76.031 11.11 83.551c1.033 1.79 2.562 2.447 4.085 1.567 3.578-2.065 5.205-6.584 4.79-12.129-.014-.256-.024-.427.075-.484s.17-.01.228.089a2.088 2.088 0 0 1 .193.64c.925 5.429-.919 10.115-4.397 12.123-2.318 1.34-6.1.833-7.402-1.42-4.858-8.415 7.715-24.509 18.943-30.991 5.202-3.004 9.285-2.358 11.045.69 2.085 3.611-1.227 12.105-5.15 17.55a9.53 9.53 0 0 1 7.317 4.566 5.023 5.023 0 0 1-.487 2.138c-.1.057-.223-.005-.376-.27-1.492-2.584-4.022-5.054-6.991-5.68a14.046 14.046 0 0 1-3.775 3.637c-1.126.65-2.707.59-3.242-.337-.44-.763.58-2.057 1.772-2.745a10.24 10.24 0 0 1 3.49-1.22c3.815-5.25 6.921-14.333 4.78-18.043-1.068-1.854-3.393-2.59-8.23.203zm-2.864 3.685c.398-.23 1.99.31 2.238.74.096.166.092.389-.092.76-2.085 4.337-3.487 22.725-.082 28.623.154.266.178.384.078.441-.132.077-1.356.252-1.7-.343-3.327-5.761-2.364-29.113-.443-30.223zm1.555 17.693c.153.265.42.42 1.347-.115a11.589 11.589 0 0 0 3.035-2.856 7.408 7.408 0 0 0-2.89.962c-.993.575-1.776 1.514-1.49 2.01z"/><path data-name="パス 347" d="M49.528 63.713a.161.161 0 0 1 .209.056c.038.065-.06.432-.101.589 0 0-1.214 5.471-3.765 6.944-1.69.975-3.197.432-4.192-1.291-1.72-2.979-.538-7.817.92-8.66.895-.516 2.108.285 2.338.683.535.928-.472 3.852-1.644 6.03a5.943 5.943 0 0 0 .494 1.085c.593 1.027 1.586 1.601 2.547 1.046 1.756-1.014 3.07-6.234 3.07-6.234s.057-.21.124-.248zM44.26 62.47c-.153-.265-.31-.307-.476-.21-.563.324-1.11 2.362-.706 5.354.915-1.857 1.621-4.384 1.182-5.144z"/><path data-name="パス 348" d="M53.655 67.955a2.7 2.7 0 0 1-3.81-.937c-1.913-3.313-.358-9.113 1.696-10.299a1.832 1.832 0 0 1 2.517.535 3.158 3.158 0 0 1 .095 2.154 1.6 1.6 0 0 1-.407.367.082.082 0 0 1-.105-.027.351.351 0 0 1 .005-.225 3.14 3.14 0 0 0 .001-1.988.361.361 0 0 0-.523-.14c-1.756 1.014-3.095 6.116-1.47 8.931.479.828 1.24 1.228 2.101.731 2.454-1.417 4.428-8.168 4.428-8.168s.056-.209.121-.247.19.023.21.056c.037.066-.06.433-.101.59 0 .001-2.043 7.099-4.758 8.667z"/><path data-name="パス 349" d="M63.902 59.39a5.714 5.714 0 0 1-1.598 2.512 2.759 2.759 0 0 1-3.556-1.04 5.438 5.438 0 0 1-.686-2.028c-.038-.066-.11-.113-.167-.213-1.628-2.82.252-6.6 2.01-7.614a2.75 2.75 0 0 1 3.941.86c1.262 2.186.928 4.898.231 6.978a9.166 9.166 0 0 0 3.284-5.253s.023-.19.122-.247a.21.21 0 0 1 .242.037c.038.066-.093.452-.134.609a9.007 9.007 0 0 1-3.69 5.398zM59.73 52.7c.397-.23 1.595.315 1.786.645.115.199-.04.465-.183.683a11.964 11.964 0 0 0-1.537 5.744 4.215 4.215 0 0 0 3.458-.363 9.124 9.124 0 0 0-.43-7.086 1.939 1.939 0 0 0-2.95-.68 5.653 5.653 0 0 0-1.9 6.044 10.646 10.646 0 0 1 .731-3.249 3.34 3.34 0 0 1 1.027-1.74zm.457 8.436a1.146 1.146 0 0 0 1.559.558 3.931 3.931 0 0 0 1.36-1.845 4.682 4.682 0 0 1-3.246.416 2.578 2.578 0 0 0 .327.871z"/><path data-name="パス 350" d="M69.714 49.407c.23.397-.134 4.052-.031 4.611 0 0 2.365-9.14 3.193-9.618a2.4 2.4 0 0 1 2.812.894c.65 1.126-.28 4.181-.071 4.544 0 0 2.137-4.944 2.734-5.288.53-.306 1.842.437 2.416 1.431s-.714 3.505.07 4.864a.382.382 0 0 0 .574.154c1.624-.938 3.174-7.355 3.174-7.355s.024-.19.123-.247a.209.209 0 0 1 .239.04c.038.065-.092.451-.135.608 0 0-1.667 6.75-3.257 7.668a2.292 2.292 0 0 1-2.823-.842c-.804-1.391.2-4.93-.106-5.46a.164.164 0 0 0-.209-.057 15.885 15.885 0 0 0-2.29 4.676c-.356 1.22-.532 2.294-.73 2.409-.399.23-1.467-.17-1.716-.6-.535-.927.271-6.032-.188-6.827-.057-.1-.109-.113-.176-.075-1.024.596-3.088 8.498-3.358 10.248-.292 1.714-.16 2.478-.491 2.669a1.791 1.791 0 0 1-1.87-.866c-.764-1.325-.08-5.034-.183-8.197.004-.223.046-.38.178-.456.464-.268 1.624.21 2.121 1.072z"/><path data-name="パス 351" d="M86.942 39.46c.23.398-.134 4.052-.032 4.612 0 0 2.365-9.14 3.193-9.618a2.4 2.4 0 0 1 2.812.894c.65 1.126-.28 4.18-.07 4.544 0 0 2.136-4.944 2.733-5.288.529-.306 1.842.437 2.416 1.431s-.714 3.505.07 4.864a.382.382 0 0 0 .574.154c1.623-.937 3.175-7.355 3.175-7.355s.023-.19.122-.247a.209.209 0 0 1 .239.04c.038.065-.092.451-.134.608 0 0-1.668 6.75-3.258 7.668a2.292 2.292 0 0 1-2.823-.842c-.804-1.391.201-4.931-.105-5.461a.165.165 0 0 0-.21-.056 15.886 15.886 0 0 0-2.29 4.676c-.356 1.22-.532 2.294-.73 2.409-.398.23-1.467-.17-1.716-.6-.535-.927.271-6.032-.188-6.827-.057-.1-.109-.113-.176-.075-1.024.596-3.088 8.498-3.358 10.248-.292 1.714-.16 2.477-.491 2.669a1.791 1.791 0 0 1-1.87-.866c-.764-1.325-.08-5.034-.183-8.197.004-.223.046-.38.178-.456.464-.268 1.625.21 2.122 1.071z"/><path data-name="パス 352" d="M109.623 29.017a.161.161 0 0 1 .209.056c.038.065-.06.432-.1.589 0 0-1.215 5.471-3.766 6.944-1.69.975-3.196.432-4.191-1.291-1.72-2.979-.54-7.817.92-8.66.893-.515 2.107.285 2.337.683.535.928-.47 3.852-1.644 6.03a5.943 5.943 0 0 0 .494 1.085c.593 1.027 1.587 1.6 2.547 1.046 1.756-1.014 3.07-6.234 3.07-6.234s.057-.21.124-.248zm-5.267-1.242c-.153-.265-.31-.307-.475-.211-.563.325-1.11 2.362-.707 5.355.916-1.857 1.621-4.384 1.182-5.144z"/><path data-name="パス 353" d="M111.41 24.539c.344.596.176 2.371.176 4.054.67-1.672 2.857-6.07 4.116-6.797.53-.306 1.482.425 1.73.855.211.365-.872 4.303.142 6.06a.473.473 0 0 0 .714.164c2.02-1.166 3.538-6.725 3.538-6.725s.057-.21.122-.247a.209.209 0 0 1 .242.037c.038.066-.134.609-.134.609s-1.63 5.976-3.385 6.989a2.588 2.588 0 0 1-3.112-1.03c-.842-1.458-.488-4.446-.622-4.677-.019-.033-.07-.047-.138-.008a16.74 16.74 0 0 0-3.034 5.683c-.993 3.18-.32 4.955-.62 5.128-.334.19-1.376-.314-1.777-1.01-.383-.662.66-6.654-.347-9.473-.153-.265-.006-.394.16-.49a2.2 2.2 0 0 1 2.228.878z"/><path data-name="パス 354" d="M128.035 19.137c-1.027 3.728-2.497 6.92-3.292 7.379a2.547 2.547 0 0 1-2.69-.834c-1.396-2.418-.153-8.833 1.437-9.751 1.093-.631 2.255-.684 2.427-.386.058.1.03.204-.102.28-1.888 1.09-2.735 8.116-1.702 9.905a.31.31 0 0 0 .404.164c.862-.497 2.252-3.597 3.213-7.287-2.666-5.309-2.415-16.275.333-17.862a1.758 1.758 0 0 1 2.228.878c.823 1.425-.045 7.801-1.36 13.861a10.7 10.7 0 0 0 .975 2.53c.707 1.225 1.899 2.525 3.025 1.875a2.758 2.758 0 0 0 .953-1.257c.137-.3.164-.403.23-.441a.164.164 0 0 1 .21.056c.057.1 0 .307-.088.536a4.121 4.121 0 0 1-1.697 2.26c-1.56.9-3.471-.117-4.504-1.906zm1.259-17.024c-1.657.956-1.679 7.727-.623 12.463 1.156-5.57 1.81-11.248 1.198-12.308a.4.4 0 0 0-.575-.155z"/></g></svg>