<?xml version="1.0" encoding="utf-8"?>
<!-- Generator: Adobe Illustrator 23.0.2, SVG Export Plug-In . SVG Version: 6.00 Build 0)  -->
<svg version="1.1" id="レイヤー_1" xmlns="http://www.w3.org/2000/svg" xmlns:xlink="http://www.w3.org/1999/xlink" x="0px"
	 y="0px" viewBox="0 0 240 45" style="enable-background:new 0 0 240 45;" xml:space="preserve">
<style type="text/css">
	.st0{enable-background:new    ;}
	.st1{fill:#FF88D2;}
	.st2{fill:#3E3E3E;}
</style>
<g id="グループ化_289" transform="translate(-796 -19)">
	<g class="st0">
		<path class="st1" d="M802.7,55.2c0,0.2,0,0.5,0.1,0.6s0.2,0.3,0.3,0.3s0.3,0.1,0.4,0.2c0.2,0,0.3,0,0.5,0h0.4V57h-5v-0.7h0.4
			c0.2,0,0.3,0,0.5,0c0.2,0,0.3-0.1,0.4-0.1c0.1-0.1,0.2-0.2,0.3-0.3s0.1-0.3,0.1-0.6v-8.9h-1.5c-0.2,0-0.4,0-0.6,0.1
			c-0.2,0.1-0.3,0.2-0.4,0.3s-0.2,0.3-0.2,0.4c0,0.2-0.1,0.3-0.1,0.5l-0.1,0.7h-0.8l0.1-2.8h9l0.1,2.8h-0.8l-0.1-0.7
			c0-0.2-0.1-0.3-0.1-0.5c-0.1-0.2-0.1-0.3-0.2-0.4c-0.1-0.1-0.2-0.2-0.4-0.3c-0.2-0.1-0.4-0.1-0.6-0.1h-1.6V55.2z"/>
		<path class="st1" d="M811.5,56.2h3.1c0.3,0,0.5,0,0.7-0.1s0.3-0.2,0.4-0.3c0.1-0.1,0.2-0.3,0.3-0.4c0.1-0.2,0.1-0.3,0.1-0.5
			l0.1-0.7h0.8L817,57h-8.6v-0.7h0.2c0.2,0,0.3,0,0.5,0c0.2,0,0.3-0.1,0.4-0.1c0.1-0.1,0.2-0.2,0.3-0.3s0.1-0.3,0.1-0.6v-7.9
			c0-0.2,0-0.5-0.1-0.6c-0.1-0.2-0.2-0.3-0.3-0.3c-0.1-0.1-0.3-0.1-0.4-0.2c-0.2,0-0.3,0-0.5,0h-0.2v-0.7h8.1l0.1,2.8h-0.8l-0.1-0.7
			c0-0.2-0.1-0.3-0.1-0.5c-0.1-0.2-0.1-0.3-0.3-0.4c-0.1-0.1-0.3-0.2-0.4-0.3c-0.2-0.1-0.4-0.1-0.6-0.1h-2.7v4.3h3.9v0.8h-3.9V56.2z
			"/>
		<path class="st1" d="M819.3,57v-0.7h0.2c0.2,0,0.4,0,0.5,0c0.2,0,0.3-0.1,0.4-0.2c0.1-0.1,0.2-0.2,0.3-0.3
			c0.1-0.2,0.1-0.4,0.1-0.6v-7.8c0-0.2,0-0.5-0.1-0.6c-0.1-0.2-0.2-0.3-0.3-0.3c-0.1-0.1-0.3-0.1-0.4-0.2c-0.2,0-0.3,0-0.5,0h-0.2
			v-0.7h4.7v0.7h-0.2c-0.2,0-0.3,0-0.5,0c-0.2,0-0.3,0.1-0.4,0.2c-0.1,0.1-0.2,0.2-0.3,0.3s-0.1,0.3-0.1,0.6v8.9h3.2
			c0.2,0,0.4,0,0.6-0.1c0.2-0.1,0.3-0.2,0.4-0.3s0.2-0.3,0.3-0.5c0.1-0.2,0.1-0.3,0.1-0.5l0.2-1.2h0.8l-0.1,3.4H819.3z"/>
	</g>
	<g class="st0">
		<path class="st1" d="M842.7,39.6c1.4,0,2.5,0.5,3.3,1.4s1.2,2.3,1.2,4.1c0,3.1-0.7,5.9-2,8.4s-3,3.8-5.2,3.8
			c-1.4,0-2.6-0.5-3.4-1.5s-1.2-2.4-1.2-4.3c0-3.1,0.7-5.8,2-8.2S840.6,39.6,842.7,39.6z M840.4,55.9c1.4,0,2.5-1.2,3.3-3.5
			s1.3-4.9,1.3-7.8c0-2.5-0.8-3.7-2.5-3.7c-1.4,0-2.5,1.2-3.4,3.5s-1.3,4.9-1.3,7.8C837.9,54.7,838.7,55.9,840.4,55.9z"/>
		<path class="st1" d="M859.6,39.8l-3.1,14.6c-0.1,0.3-0.1,0.5-0.1,0.7c0,0.6,0.6,1,1.7,1h1.3l-0.2,1h-8.9l0.2-1h1.3
			c0.8,0,1.3-0.1,1.7-0.4s0.6-0.7,0.7-1.3l1.9-8.8c0.3-1.3,0.6-2.5,0.9-3.8h-0.1c-1,1-1.8,1.7-2.2,2s-0.9,0.5-1.4,0.5
			c-0.6,0-1-0.4-1-1.3c1.1-0.3,2.4-0.9,3.9-1.9l1.9-1.2H859.6z"/>
		<path class="st1" d="M863.8,57l0.5-1.9L870,50c1.5-1.3,2.5-2.5,3.1-3.5s0.9-2.1,0.9-3.2c0-0.7-0.2-1.3-0.6-1.8s-0.9-0.7-1.6-0.7
			c-1.8,0-3,1.2-3.4,3.6c-1.1,0-1.7-0.5-1.7-1.5c0-0.9,0.5-1.7,1.4-2.3s2.2-1,3.8-1c1.4,0,2.6,0.3,3.4,0.9s1.2,1.5,1.2,2.6
			c0,1-0.3,1.9-1,2.9s-2,2.4-4,4.2l-5.4,4.9h5.6c0.5,0,1-0.1,1.3-0.4s0.7-0.7,1-1.4l0.2-0.4h1l-1,4.1H863.8z"/>
		<path class="st1" d="M887.2,39.6c1.4,0,2.5,0.5,3.3,1.4s1.2,2.3,1.2,4.1c0,3.1-0.7,5.9-2,8.4s-3,3.8-5.2,3.8
			c-1.4,0-2.6-0.5-3.4-1.5s-1.2-2.4-1.2-4.3c0-3.1,0.7-5.8,2-8.2S885.1,39.6,887.2,39.6z M884.9,55.9c1.4,0,2.5-1.2,3.3-3.5
			s1.3-4.9,1.3-7.8c0-2.5-0.8-3.7-2.5-3.7c-1.4,0-2.5,1.2-3.4,3.5s-1.3,4.9-1.3,7.8C882.4,54.7,883.2,55.9,884.9,55.9z"/>
		<path class="st1" d="M894.3,51.4l0.4-1.8h6.2l-0.4,1.8H894.3z"/>
		<path class="st1" d="M905.8,57l0.2-1h1.1c0.8,0,1.3-0.1,1.7-0.4s0.6-0.7,0.7-1.3l0.4-2h-7.4l0.2-1l9.8-11.4h2.3L912.4,51h3
			l-0.3,1.3h-3l-0.4,2.1c-0.1,0.3-0.1,0.5-0.1,0.7c0,0.6,0.6,1,1.7,1h0.6l-0.2,1H905.8z M911.1,46.5c0.4-1.8,0.8-3.4,1.2-4.7
			c-0.7,1-1.4,1.9-2.1,2.8l-5.4,6.4h5.4L911.1,46.5z"/>
		<path class="st1" d="M927.1,48.8c-1,1.1-2.3,1.6-3.7,1.6c-1.2,0-2.2-0.4-3-1.1s-1.1-1.7-1.1-2.9c0-2,0.6-3.6,1.8-4.9
			s2.7-1.9,4.5-1.9c1.4,0,2.4,0.4,3.2,1.2s1.2,2,1.2,3.5c0,3.1-0.7,6-2.2,8.7s-3.5,4.1-6.1,4.1c-2.2,0-3.4-0.7-3.4-2.2
			c0-0.4,0.1-0.7,0.4-1s0.6-0.4,1-0.4c0,0.7,0.2,1.3,0.6,1.7s0.9,0.6,1.5,0.6c1.1,0,2.1-0.6,2.9-1.7S926.4,51.4,927.1,48.8z
			 M927.5,47c0.2-1,0.4-2,0.4-2.8c0-2.2-0.7-3.3-2.2-3.3c-1.1,0-2,0.6-2.7,1.7s-1.1,2.4-1.1,3.9c0,0.9,0.2,1.5,0.6,1.9
			s1,0.7,1.6,0.7C925.3,49.1,926.4,48.4,927.5,47z"/>
		<path class="st1" d="M936.7,48.7l0.2-1.2h0.8c1.4,0,2.5-0.4,3.4-1.3s1.3-1.9,1.3-3.3c0-1.5-0.7-2.2-2-2.2c-1.8,0-2.9,1.2-3.4,3.6
			c-1.2,0-1.8-0.5-1.8-1.5c0-0.9,0.5-1.7,1.5-2.3s2.3-0.9,3.8-0.9c1.4,0,2.4,0.3,3.2,0.9s1.2,1.5,1.2,2.5c0,1.2-0.4,2.3-1.3,3.2
			s-2,1.5-3.5,1.7c1.1,0.1,2,0.5,2.7,1.2s0.9,1.5,0.9,2.5c0,1.8-0.6,3.2-1.9,4.2s-2.8,1.5-4.7,1.5c-1.5,0-2.7-0.2-3.5-0.7
			s-1.2-1.1-1.2-1.8c0-0.5,0.2-1,0.5-1.3s0.8-0.5,1.3-0.5c0,0.9,0.3,1.6,0.8,2.1s1.3,0.8,2.2,0.8c1.1,0,2.1-0.4,2.8-1.1
			s1.1-1.7,1.1-3c0-1-0.3-1.8-0.9-2.3s-1.4-0.8-2.5-0.8H936.7z"/>
		<path class="st1" d="M955.4,39.6c1.4,0,2.5,0.5,3.3,1.4s1.2,2.3,1.2,4.1c0,3.1-0.7,5.9-2,8.4s-3,3.8-5.2,3.8
			c-1.4,0-2.6-0.5-3.4-1.5s-1.2-2.4-1.2-4.3c0-3.1,0.7-5.8,2-8.2S953.3,39.6,955.4,39.6z M953.1,55.9c1.4,0,2.5-1.2,3.3-3.5
			s1.3-4.9,1.3-7.8c0-2.5-0.8-3.7-2.5-3.7c-1.4,0-2.5,1.2-3.4,3.5s-1.3,4.9-1.3,7.8C950.6,54.7,951.4,55.9,953.1,55.9z"/>
		<path class="st1" d="M962.4,51.4l0.4-1.8h6.2l-0.4,1.8H962.4z"/>
		<path class="st1" d="M979.1,39.6c1.4,0,2.5,0.5,3.3,1.4s1.2,2.3,1.2,4.1c0,3.1-0.7,5.9-2,8.4s-3,3.8-5.2,3.8
			c-1.4,0-2.6-0.5-3.4-1.5s-1.2-2.4-1.2-4.3c0-3.1,0.7-5.8,2-8.2S977,39.6,979.1,39.6z M976.8,55.9c1.4,0,2.5-1.2,3.3-3.5
			s1.3-4.9,1.3-7.8c0-2.5-0.8-3.7-2.5-3.7c-1.4,0-2.5,1.2-3.4,3.5s-1.3,4.9-1.3,7.8C974.3,54.7,975.1,55.9,976.8,55.9z"/>
		<path class="st1" d="M995.3,48.8c-1,1.1-2.3,1.6-3.7,1.6c-1.2,0-2.2-0.4-3-1.1s-1.1-1.7-1.1-2.9c0-2,0.6-3.6,1.8-4.9
			s2.7-1.9,4.5-1.9c1.4,0,2.4,0.4,3.2,1.2s1.2,2,1.2,3.5c0,3.1-0.7,6-2.2,8.7s-3.5,4.1-6.1,4.1c-2.2,0-3.4-0.7-3.4-2.2
			c0-0.4,0.1-0.7,0.4-1s0.6-0.4,1-0.4c0,0.7,0.2,1.3,0.6,1.7s0.9,0.6,1.5,0.6c1.1,0,2.1-0.6,2.9-1.7S994.6,51.4,995.3,48.8z
			 M995.7,47c0.2-1,0.4-2,0.4-2.8c0-2.2-0.7-3.3-2.2-3.3c-1.1,0-2,0.6-2.7,1.7s-1.1,2.4-1.1,3.9c0,0.9,0.2,1.5,0.6,1.9
			s1,0.7,1.6,0.7C993.5,49.1,994.6,48.4,995.7,47z"/>
		<path class="st1" d="M1010.9,39.8l-3.1,14.6c-0.1,0.3-0.1,0.5-0.1,0.7c0,0.6,0.6,1,1.7,1h1.3l-0.2,1h-8.9l0.2-1h1.3
			c0.8,0,1.3-0.1,1.7-0.4s0.6-0.7,0.7-1.3l1.9-8.8c0.3-1.3,0.6-2.5,0.9-3.8h-0.1c-1,1-1.8,1.7-2.2,2s-0.9,0.5-1.4,0.5
			c-0.6,0-1-0.4-1-1.3c1.1-0.3,2.4-0.9,3.9-1.9l1.9-1.2H1010.9z"/>
		<path class="st1" d="M1015.1,57l0.5-1.9l5.6-5.1c1.5-1.3,2.5-2.5,3.1-3.5s0.9-2.1,0.9-3.2c0-0.7-0.2-1.3-0.6-1.8s-0.9-0.7-1.6-0.7
			c-1.8,0-3,1.2-3.4,3.6c-1.1,0-1.7-0.5-1.7-1.5c0-0.9,0.5-1.7,1.4-2.3s2.2-1,3.8-1c1.4,0,2.6,0.3,3.4,0.9s1.2,1.5,1.2,2.6
			c0,1-0.3,1.9-1,2.9s-2,2.4-4,4.2l-5.4,4.9h5.6c0.5,0,1-0.1,1.3-0.4s0.7-0.7,1-1.4l0.2-0.4h1l-1,4.1H1015.1z"/>
	</g>
	<g class="st0">
		<path class="st2" d="M798.5,29.7l-0.2,0.7c-0.1,0.1-0.1,0.2-0.2,0.2c0,0,0,0,0,0c-0.1,0-0.2,0-0.3,0c-0.3,0-0.4,0-0.4-0.1
			c0,0,0-0.1,0.1-0.2c0.4-1.1,0.5-1.7,0.8-3h-1c-0.2,0-0.2,0-0.8,0l-0.1-0.4c0.3,0,0.6,0.1,0.9,0.1h0.9c0.3-1.2,0.4-1.8,0.5-2.7
			c0.4,0.2,0.5,0.3,0.9,0.5h4.1c0.2-0.2,0.3-0.3,0.5-0.5c0.3,0.2,0.4,0.3,0.6,0.5c0.1,0.1,0.1,0.1,0.1,0.2c0,0.1-0.1,0.2-0.4,0.3
			c0,0.6,0,0.6-0.1,1.7h0.4c0.3-0.3,0.4-0.4,0.7-0.8c0.4,0.4,0.5,0.5,0.9,0.9c0,0,0,0.1,0,0.1c0,0,0,0.1-0.1,0.1h-2
			c-0.1,0.9-0.1,1.6-0.2,2.2h0.4c0.3-0.3,0.4-0.4,0.7-0.8c0.4,0.4,0.5,0.5,0.9,0.9c0,0,0,0.1,0,0.1c0,0-0.1,0.1-0.1,0.1h-2
			c-0.1,0.7-0.2,1-0.4,1.4c-0.2,0.4-0.5,0.5-1.3,0.7c-0.1-0.6-0.1-0.6-1.6-0.9v-0.2c1.7,0.1,1.7,0.1,1.9,0.1c0.4,0,0.5-0.2,0.7-1.1
			H798.5z M804.4,23.3c0.3-0.4,0.4-0.5,0.7-0.8c0.5,0.4,0.6,0.5,1,0.9c0,0,0,0.1,0,0.1c0,0-0.1,0.1-0.1,0.1h-7.2
			c-0.8,1.1-1.4,1.8-2.3,2.5l-0.1-0.1c0.7-0.8,1.2-1.5,1.8-2.8c0.4-0.7,0.5-1,0.6-1.4c1.1,0.3,1.3,0.4,1.3,0.5
			c0,0.1-0.1,0.1-0.6,0.2c-0.3,0.4-0.3,0.6-0.6,0.9H804.4z M800.6,29.5c0-0.1,0-0.1,0.1-0.4c0.1-0.5,0.2-1,0.4-1.9h-2
			c-0.2,0.8-0.3,1.4-0.5,2.2H800.6z M801.1,27c0.2-0.9,0.2-1.1,0.3-1.9h-1.9c-0.1,0.8-0.2,1.2-0.3,1.9H801.1z M801.8,27.2
			c-0.2,1.1-0.2,1.4-0.4,2.2h2.2c0.1-0.7,0.2-1.2,0.3-2.2H801.8z M803.9,27c0.1-1,0.1-1.2,0.1-1.9h-1.9c-0.1,1.1-0.1,1.1-0.2,1.9
			H803.9z"/>
		<path class="st2" d="M807.8,26.4c0.3,0.1,0.5,0.1,0.8,0.1h0.8c0.2-0.2,0.2-0.3,0.4-0.5c0.3,0.2,0.4,0.3,0.7,0.5
			c0.1,0.1,0.1,0.1,0.1,0.1c0,0.1-0.1,0.1-0.4,0.3v2.7c0.4,0.6,0.6,0.8,1.2,1c0.5,0.2,1.1,0.2,2,0.2c1.2,0,2.5,0,4.7-0.2v0.2
			c-0.4,0.1-0.6,0.4-0.6,0.7c-0.7,0-2.2,0-3,0c-1.5,0-2.2-0.1-2.8-0.2c-0.9-0.3-1.3-0.7-1.8-1.7c-0.3,0.4-0.7,0.9-1.3,1.7
			c0,0.1,0,0.1,0,0.1v0.1c0,0.1-0.1,0.2-0.1,0.2c-0.1,0-0.1,0-0.7-1.1c0.1-0.1,0.2-0.1,0.3-0.2c0.8-0.4,0.8-0.4,1.3-0.8v-2.9h-0.8
			c-0.2,0-0.5,0-0.7,0.1L807.8,26.4z M808.2,22.1c0.4,0.2,0.6,0.3,1.2,0.9c0.6,0.5,0.7,0.6,0.7,0.9c0,0.2-0.1,0.5-0.2,0.6
			c-0.1,0.1-0.2,0.2-0.2,0.2c-0.1,0-0.2-0.1-0.3-0.5c-0.3-0.7-0.7-1.3-1.3-2L808.2,22.1z M816.5,22.4c0.2-0.2,0.2-0.3,0.4-0.5
			c0.3,0.2,0.4,0.3,0.6,0.5c0.1,0.1,0.1,0.1,0.1,0.1c0,0.1,0,0.1-0.3,0.3l0,5.1c0,0.5,0,0.5,0,0.9c0,0.4,0,0.4,0,0.7
			c-0.1,0.5-0.3,0.6-1.2,0.7c-0.1-0.3-0.1-0.4-0.4-0.5c-0.2-0.1-0.2-0.1-0.9-0.2v-0.2c0.5,0,0.6,0,1.5,0.1c0.1,0,0.2-0.1,0.2-0.2
			v-6.7h-4.5c0,0.4,0,0.7,0,0.9c0,0.8,0,1.9-0.1,2.5c-0.1,1.3-0.2,2.1-0.6,3.1c-0.2,0.4-0.3,0.6-0.6,1.1l-0.2-0.1
			c0.2-0.6,0.3-1,0.4-1.5c0.2-1,0.2-1.9,0.2-3.8c0-1.6,0-2.1-0.1-3c0.4,0.2,0.5,0.3,0.9,0.5H816.5z M815.1,24
			c0.2-0.2,0.3-0.3,0.5-0.6c0.3,0.3,0.4,0.4,0.7,0.7c0,0,0,0.1,0,0.1c0,0,0,0.1-0.1,0.1h-1.6v1.3h0.6c0.2-0.2,0.3-0.3,0.5-0.6
			c0.3,0.3,0.4,0.3,0.7,0.6c0,0.1,0.1,0.1,0.1,0.1c0,0-0.1,0.1-0.1,0.1h-3.2c-0.4,0-0.7,0.1-0.8,0.1l-0.1-0.4c0.3,0,0.7,0.1,0.9,0.1
			h0.8v-1.3h-0.8l-0.6,0.1l-0.1-0.4c0.3,0.1,0.5,0.1,0.7,0.1h0.8v-0.5c0-0.2,0-0.3-0.1-0.7c0.2,0,0.4,0,0.5,0c0.4,0,0.6,0.1,0.6,0.2
			s-0.1,0.2-0.4,0.2V24H815.1z M815,26.7c0.2-0.2,0.2-0.2,0.4-0.4c0.2,0.2,0.3,0.2,0.5,0.4c0.1,0.1,0.1,0.1,0.1,0.1
			c0,0.1-0.1,0.1-0.2,0.2c0,0.2,0,0.3,0,0.3v0.6l0,0.8V29c0,0.1,0,0.1-0.1,0.1c0,0,0,0-0.5,0.1c0,0-0.1-0.1-0.1-0.1v-0.3h-1.7v0.6
			c0,0,0,0-0.1,0.1c-0.1,0-0.3,0-0.5,0c-0.1,0-0.1,0-0.1-0.1c0,0,0,0,0,0c0-0.3,0-0.4,0-0.8V27c0-0.3,0-0.4,0-0.7
			c0.4,0.1,0.5,0.2,0.8,0.4H815z M813.4,28.5h1.7v-1.5h-1.7V28.5z"/>
		<path class="st2" d="M819.6,24.9c0.4,0.1,0.6,0.1,1,0.1h1.8c0.2-0.2,0.3-0.3,0.4-0.5c0.3,0.2,0.4,0.3,0.6,0.6
			c0.1,0.1,0.1,0.1,0.1,0.2c0,0.1-0.1,0.2-0.4,0.3c-0.5,1.5-0.9,2.4-1.6,3.3c-0.6,0.8-1.3,1.4-2.3,2.1l-0.1-0.1
			c0.9-0.8,1.4-1.4,1.9-2.3c0.6-1,1-1.9,1.3-3.2h-1.8c-0.4,0-0.6,0-0.9,0.1L819.6,24.9z M828.3,24.5c-0.8,0.9-1.2,1.3-2.3,2.1
			c0.4,0.6,0.8,1.2,1.3,1.7c0.7,0.6,1.2,1,2.2,1.4l0,0.1c-0.5,0.1-0.6,0.2-0.9,0.7c-0.8-0.5-1.2-0.9-1.9-1.7
			c-0.9-1.1-1.4-2.3-1.8-3.9c-0.1-0.4-0.1-0.6-0.3-1.6l0.1,4.2l0.1,3.2c0,0.3,0,0.4-0.2,0.6c-0.2,0.2-0.5,0.3-1.2,0.4
			c-0.1-0.4-0.1-0.5-0.4-0.6c-0.2-0.1-0.6-0.2-1.4-0.4l0-0.2c1.3,0.1,1.4,0.1,2.1,0.1c0.1,0,0.2-0.1,0.2-0.2v-7c0-0.7,0-1-0.1-1.7
			c1.3,0.2,1.3,0.2,1.3,0.3c0,0.1-0.1,0.2-0.5,0.3c0.2,1.5,0.6,2.8,1.2,3.9c0.4-0.5,0.6-0.6,0.8-1c0.5-0.6,0.7-1.1,0.9-1.7
			c0.8,0.4,1.2,0.6,1.2,0.7c0,0.1-0.1,0.1-0.4,0.1H828.3z"/>
		<path class="st2" d="M839,28c0.2-0.3,0.3-0.4,0.5-0.6c0.4,0.3,0.5,0.4,0.8,0.7c0,0,0,0.1,0,0.1c0,0,0,0.1-0.1,0.1h-2.4v1.1h1.1
			c0.2-0.3,0.3-0.4,0.5-0.6c0.4,0.3,0.5,0.4,0.8,0.7c0.1,0,0.1,0.1,0.1,0.1c0,0,0,0.1-0.1,0.1h-2.4v1.3h1.5c0.2-0.3,0.3-0.4,0.6-0.7
			c0.4,0.3,0.5,0.4,0.9,0.8c0.1,0.1,0.1,0.1,0.1,0.1c0,0,0,0.1-0.1,0.1h-5.4v0.5c0,0.1,0,0.1-0.1,0.1c-0.1,0-0.3,0-0.5,0
			c-0.1,0-0.2,0-0.2-0.1c0,0,0,0,0,0c0-0.8,0-0.8,0-2.8v-1.5c-0.4,0.5-0.7,0.7-1,1c0,1.3,0,1.3,0,2c0,0,0,0,0,0c0,0.1,0,0.1-0.1,0.1
			c-0.1,0-0.3,0.1-0.5,0.1c-0.1,0-0.1,0-0.1-0.1v-0.6h-1.1v1.1c0,0.2-0.1,0.2-0.6,0.2c-0.1,0-0.2,0-0.2-0.1c0-0.9,0-2.1,0-5.3
			c0-1.5,0-3,0-3.7c0.4,0.2,0.5,0.3,0.8,0.5h1c0.2-0.2,0.2-0.3,0.4-0.5c0.2,0.2,0.3,0.3,0.6,0.5c0.1,0.1,0.1,0.1,0.1,0.1
			c0,0-0.1,0.1-0.3,0.2c0,0.7,0,1.2,0,1.6v3c0,0.1,0,0.1,0,0.7c0.5-0.6,0.7-1,1.1-1.6c0.4-0.6,0.4-0.8,0.6-1.2c1,0.3,1,0.3,1,0.4
			c0,0.1-0.1,0.1-0.5,0.2c-0.2,0.3-0.3,0.4-0.5,0.7h1.8c0.3-0.6,0.5-1,0.6-1.3c0.2,0.1,0.4,0.1,0.5,0.1c0.5,0.1,0.6,0.2,0.6,0.2
			c0,0,0,0,0,0c0,0.1-0.1,0.1-0.5,0.1c-0.6,0.5-0.6,0.6-0.9,0.8h1.7c0.2-0.3,0.3-0.4,0.5-0.6c0.4,0.3,0.5,0.4,0.9,0.7
			c0,0,0.1,0.1,0.1,0.1c0,0-0.1,0.1-0.1,0.1h-2.8V28H839z M833.1,22.7h-1.1v3.2h1.1V22.7z M831.9,26.2v3.4h1.1v-3.4H831.9z
			 M835,23.7c-0.3,0-0.5,0-0.8,0.1l-0.1-0.4c0.3,0.1,0.4,0.1,0.8,0.1h1.2v-0.9H835c-0.3,0-0.5,0-0.8,0.1l-0.1-0.4
			c0.3,0.1,0.5,0.1,0.9,0.1h1.1c0.2-0.2,0.2-0.3,0.4-0.5c0.2,0.2,0.3,0.2,0.6,0.4c0.1,0.1,0.1,0.1,0.1,0.2c0,0,0,0.1-0.3,0.2v1
			c0,0.6,0,0.9,0,1.7c0,0.1,0,0.1-0.1,0.1c-0.1,0-0.3,0.1-0.5,0.1c-0.1,0-0.1,0-0.1-0.1c0,0,0,0,0,0V25H835c-0.5,0-0.6,0-0.8,0.1
			l-0.1-0.4c0.3,0.1,0.5,0.1,0.9,0.1h1.2v-1H835z M837.2,26.9h-1.8V28h1.8V26.9z M835.5,28.3v1.1h1.8v-1.1H835.5z M835.5,29.7v1.3
			h1.8v-1.3H835.5z M838.5,23.7c-0.3,0-0.7,0-0.9,0.1l-0.1-0.4c0.3,0.1,0.5,0.1,1,0.1h1.1v-0.9h-1.2c-0.4,0-0.6,0-0.8,0.1l-0.1-0.4
			c0.3,0.1,0.5,0.1,0.9,0.1h1.1l0.4-0.4c0.3,0.2,0.4,0.2,0.6,0.4c0.1,0.1,0.2,0.1,0.2,0.2c0,0.1,0,0.1-0.4,0.3c0,1.2,0,1.4,0,2.6
			c0,0,0,0,0,0c0,0.1,0,0.1-0.1,0.1c-0.1,0-0.3,0-0.5,0c-0.1,0-0.2,0-0.2-0.1V25h-1.2c-0.4,0-0.6,0-0.9,0.1l-0.1-0.4
			c0.3,0.1,0.6,0.1,0.9,0.1h1.2v-1H838.5z"/>
		<path class="st2" d="M843.4,24c0-0.8,0-1.1,0-1.8c0.4,0.2,0.5,0.3,0.9,0.5h4.6c0.2-0.2,0.3-0.3,0.5-0.5c0.3,0.2,0.4,0.3,0.7,0.5
			c0.1,0.1,0.1,0.1,0.1,0.1c0,0.1-0.1,0.2-0.4,0.3l0,3.5c0,0.8,0,2.4,0.1,4.6c0,0,0,0,0,0c0,0.1,0,0.1-0.1,0.1
			c-0.1,0-0.4,0.1-0.6,0.1c-0.2,0-0.2,0-0.2-0.1c0,0,0,0,0,0v-0.7h-4.8v0.7c0,0.1,0,0.1,0,0.1c-0.1,0.1-0.4,0.1-0.7,0.1
			c-0.1,0-0.2,0-0.2-0.1c0-1,0-1.1,0.1-3.5L843.4,24z M849,23h-4.8v3.5h4.8V23z M844.2,26.7v3.7h4.8v-3.7H844.2z"/>
		<path class="st2" d="M856.8,23.3v-0.6c0-0.5,0-0.6-0.1-0.9c1,0.1,1.3,0.2,1.3,0.3c0,0.1-0.1,0.2-0.4,0.3v1h3.2l0.5-0.6
			c0.5,0.3,0.6,0.4,1.1,0.7c0,0,0.1,0.1,0.1,0.1c0,0,0,0-0.1,0.1c0,0-0.1,0.1-0.3,0.1c-0.2,0-0.2,0.1-0.4,0.1
			c-0.3,0.3-0.4,0.5-0.7,0.8l-0.2,0c0-0.2,0-0.3,0.1-0.4c0.1-0.4,0.1-0.5,0.1-0.7h-7.2c-0.1,0.6-0.2,0.9-0.4,1.3
			c-0.2,0.3-0.4,0.5-0.5,0.5c-0.2,0-0.4-0.4-0.4-0.7c0-0.1,0-0.2,0.1-0.2c0,0,0,0,0.2-0.2c0.2-0.1,0.5-0.6,0.7-0.9
			c0.1-0.2,0.1-0.4,0.2-0.8h0.2c0,0.3,0,0.4,0,0.5c0,0.1,0,0.1,0,0.3H856.8z M854.1,25.6c-0.2,0-0.4,0-0.9,0.1l-0.1-0.4
			c0.6,0.1,0.8,0.1,1,0.1h5.7c0.3-0.3,0.4-0.4,0.6-0.7c0.4,0.3,0.5,0.5,1,0.8c0,0,0,0.1,0,0.1c0,0-0.1,0.1-0.1,0.1h-3.7v2.2h1.9
			c0.3-0.3,0.3-0.4,0.6-0.7c0.4,0.4,0.6,0.5,1,0.9c0,0,0,0,0,0c0,0-0.1,0.1-0.1,0.1h-3.4v2.6c0.3,0,0.7,0.1,1.2,0.1
			c1.2,0,2.7-0.1,3.4-0.2v0.1c-0.5,0.3-0.6,0.4-0.7,0.8c-0.7,0-1.1,0-1.4,0c-2.5,0-3.4-0.2-4.2-0.8c-0.6-0.4-0.8-0.8-1.3-1.7
			c-0.2,0.5-0.5,0.8-0.7,1.2c-0.4,0.6-0.8,0.9-1.5,1.5l-0.1-0.1c0.6-0.6,0.8-1,1.2-1.7c0.6-1.2,1-2.3,1-3.3c0.3,0.1,0.5,0.1,0.6,0.1
			c0.6,0.1,0.7,0.2,0.7,0.3c0,0.1-0.2,0.2-0.6,0.3c-0.2,0.7-0.3,1-0.5,1.5c0.3,0.6,0.5,0.8,0.8,1.1c0.4,0.4,0.8,0.6,1.3,0.7v-4.9
			H854.1z"/>
		<path class="st2" d="M866.5,22c0.5,0.1,0.6,0.2,0.6,0.3c0,0.1-0.1,0.1-0.5,0.2c-0.1,0.2-0.2,0.3-0.2,0.4c-0.7,1.5-0.8,1.7-1.2,2.3
			c0.6,0.1,0.7,0.1,0.7,0.2c0,0.1-0.1,0.1-0.3,0.2v2.3c0,2.5,0,2.5,0,3.6c0,0.1-0.1,0.2-0.5,0.2c-0.1,0-0.1,0-0.1,0c0,0,0,0,0,0
			c-0.1,0-0.2,0-0.2-0.1c0,0,0,0,0,0c0-0.6,0-0.6,0.1-3.7v-2.1c-0.5,0.7-0.8,1.1-1.4,1.7l-0.2-0.1c0.7-0.9,1.2-1.9,1.7-3.2
			c0.4-1,0.6-1.7,0.7-2.3L866.5,22z M869.3,22.9c0-0.3,0-0.5-0.1-1c0.3,0,0.5,0.1,0.6,0.1c0.5,0.1,0.7,0.1,0.7,0.2
			c0,0.1-0.1,0.2-0.5,0.2v2.1h1.8c0.3-0.4,0.4-0.5,0.7-0.8c0.5,0.4,0.6,0.5,1.1,0.9c0,0,0,0.1,0,0.1c0,0,0,0.1-0.1,0.1h-3.4
			c0.3,0.7,0.5,1.2,0.9,1.8c0.5,0.7,1.1,1.3,1.8,1.7c0.3,0.2,0.5,0.3,1,0.6l0,0.2c-0.4,0-0.6,0.2-0.9,0.7c-0.7-0.6-1.3-1.2-1.8-2
			c-0.4-0.6-0.7-1.2-1.1-2.5l0,2.2c0,0.6,0,0.6,0,2.5c0,0.8,0,0.8,0,1.7c0,0.1,0,0.1-0.1,0.2c-0.1,0-0.4,0-0.5,0
			c-0.2,0-0.2,0-0.2-0.2c0-1.6,0-2.2,0.1-4.2l0.1-2.2c-0.5,1.2-1,2.1-1.7,2.9c-0.6,0.7-1,1.1-1.8,1.7l-0.1-0.1
			c0.9-0.8,1.4-1.5,2.1-2.8c0.5-0.8,0.6-1.3,0.9-2.1h-1.8c-0.3,0-0.6,0-1,0.1l-0.1-0.4c0.4,0.1,0.6,0.1,1.1,0.1h2.2V22.9z"/>
	</g>
	<g class="st0">
		<path class="st2" d="M894.1,23.9c0.3-0.3,0.3-0.3,0.6-0.6c0.4,0.3,0.5,0.4,0.9,0.7c0.1,0.1,0.2,0.2,0.2,0.2c0,0,0,0.1-0.1,0.1
			c-0.1,0-0.2,0.1-0.3,0.1c-0.1,0-0.2,0-0.4,0.1c-0.7,0.7-0.7,0.7-1,1l-0.1-0.1c0.2-0.5,0.3-0.7,0.4-1.3h-7.4c0,0.4-0.1,0.6-0.2,0.9
			c-0.1,0.4-0.4,0.8-0.6,0.8c-0.2,0-0.4-0.4-0.4-0.7c0-0.2,0-0.2,0.3-0.4c0.4-0.3,0.6-0.6,0.7-1.4l0.2,0c0,0.4,0,0.4,0,0.6h5
			c0.4-0.6,0.6-1,1.1-2c1,0.4,1.2,0.4,1.2,0.5c0,0.1-0.1,0.1-0.5,0.2c-0.3,0.2-0.3,0.2-1.2,1.1c0,0-0.1,0.1-0.3,0.2H894.1z
			 M890.8,27.4c-0.5,0.7-0.6,0.9-1,1.3h3.4c0.2-0.2,0.3-0.3,0.4-0.5c0.3,0.2,0.4,0.3,0.7,0.5c0.1,0.1,0.1,0.1,0.1,0.2
			c0,0.1-0.1,0.2-0.4,0.3c0,0.2,0,0.2,0,0.5c0,0.4,0,0.9,0,2c0,0.1,0,0.1-0.1,0.2c-0.1,0-0.4,0.1-0.5,0.1c-0.1,0-0.2,0-0.2-0.2v-0.5
			h-5.7v0.5c0,0.1-0.2,0.2-0.5,0.2c0,0-0.1,0-0.1,0c0,0,0,0,0,0c-0.2,0-0.2,0-0.2-0.2c0.1-0.7,0.1-1.1,0.1-2c0-0.7,0-1-0.1-1.5
			c0.4,0.2,0.5,0.2,0.9,0.5h1.9c0.1-0.4,0.3-1,0.3-1.3h-1.5v0.2c0,0.1,0,0.1-0.1,0.2c-0.1,0-0.3,0-0.5,0c-0.2,0-0.2,0-0.2-0.2
			c0-0.6,0.1-0.9,0.1-1.5c0-0.6,0-0.8-0.1-1.3c0.4,0.2,0.6,0.3,1,0.5h3.8c0.2-0.2,0.2-0.2,0.5-0.5c0.3,0.2,0.4,0.3,0.6,0.4
			c0.1,0.1,0.2,0.1,0.2,0.2c0,0.1-0.1,0.2-0.4,0.3v0.5c0,0.6,0,0.8,0,1.3c0,0.2-0.2,0.2-0.6,0.2c-0.1,0-0.2,0-0.2-0.1v-0.3H890.8z
			 M887.3,21.9c1,0.5,1.5,0.9,1.5,1.2c0,0.1-0.1,0.4-0.2,0.5c-0.1,0.1-0.1,0.1-0.2,0.1c-0.1,0-0.1,0-0.3-0.4c-0.2-0.5-0.5-1-0.9-1.3
			L887.3,21.9z M887.6,31h5.7v-2h-5.7V31z M888.4,27.1h4.1v-1.6h-4.1V27.1z M889.6,21.8c0.4,0.2,0.5,0.3,0.9,0.6
			c0.4,0.3,0.5,0.4,0.5,0.6c0,0.3-0.3,0.7-0.5,0.7c-0.1,0-0.1-0.1-0.2-0.4c-0.2-0.6-0.4-1-0.8-1.5L889.6,21.8z"/>
		<path class="st2" d="M902.1,26.9h2c0.2-0.3,0.3-0.4,0.6-0.6c0.4,0.3,0.5,0.4,0.9,0.7c0,0,0,0.1,0,0.1c0,0,0,0.1-0.1,0.1h-3.4v1h3
			c0.3-0.3,0.4-0.4,0.6-0.7c0.4,0.3,0.5,0.4,0.9,0.8c0,0,0,0.1,0,0.1c0,0,0,0.1-0.1,0.1h-4.3c0.3,0.3,0.8,0.7,1.3,1
			c0.6,0.4,1.4,0.7,2.2,0.9c0.4,0.1,0.6,0.1,1.2,0.2v0.2c-0.4,0.1-0.5,0.2-0.8,0.7c-1.2-0.5-1.7-0.7-2.4-1.2c-0.6-0.5-1-0.9-1.6-1.6
			v1.1c0,0.2,0,0.9,0,2.1c0,0.2-0.1,0.2-0.6,0.2c-0.1,0-0.1,0-0.1-0.1v0c0-0.5,0.1-1.7,0.1-2.1v-0.9c-0.8,0.8-1.4,1.3-2.2,1.8
			c-0.6,0.4-1.1,0.6-2.3,1l-0.1-0.2c1.1-0.5,1.9-0.9,2.7-1.6c0.5-0.4,0.8-0.7,1.2-1.2h-2.4c-0.4,0-0.8,0-1.1,0.1l-0.1-0.5
			c0.4,0.1,0.7,0.1,1.2,0.1h3v-1h-2c-0.4,0-0.7,0-1.1,0.1l-0.1-0.4c0.5,0.1,0.7,0.1,1.1,0.1h2v-1h-2.6c-0.4,0-0.6,0-1,0.1l-0.1-0.4
			c0.5,0.1,0.6,0.1,1.1,0.1h1.7c-0.1-0.1-0.1-0.1-0.1-0.3c-0.2-0.4-0.3-0.8-0.6-1.2l0.1-0.1h-1.7c-0.5,0-0.8,0-1.1,0.1l-0.1-0.5
			c0.5,0.1,0.7,0.1,1.2,0.1h2.4v-1c0-0.4,0-0.6,0-1c1,0.1,1.1,0.1,1.1,0.2c0,0.1-0.1,0.1-0.4,0.2v1.5h1.1v-1c0-0.5,0-0.6,0-1
			c0.9,0.1,0.9,0.1,1,0.1c0.1,0,0.1,0.1,0.1,0.1c0,0.1-0.1,0.1-0.4,0.2v1.5h0.6c0.7-1.2,0.8-1.4,1-1.9c0.3,0.1,0.8,0.3,1,0.4
			c0.1,0,0.1,0.1,0.1,0.1c0,0.1-0.1,0.1-0.5,0.1c-0.8,0.8-0.8,0.8-1.3,1.2h1.4c0.3-0.3,0.3-0.3,0.6-0.7c0.4,0.3,0.6,0.4,1,0.8
			c0,0,0.1,0.1,0.1,0.1c0,0,0,0.1-0.1,0.1h-3.5c0.4,0.2,0.4,0.2,0.8,0.5c0.1,0.1,0.2,0.1,0.2,0.2c0,0.1-0.1,0.1-0.2,0.1
			c0,0-0.2,0-0.2,0c-0.1,0.1-0.2,0.2-0.3,0.3c-0.4,0.4-0.5,0.4-0.7,0.6h1.9c0.3-0.3,0.3-0.4,0.6-0.6c0.4,0.3,0.6,0.4,0.9,0.7
			c0,0,0,0.1,0,0.1c0,0,0,0.1-0.1,0.1h-4.2V26.9z M898.4,21.9c1,0.4,1.4,0.8,1.4,1.1c0,0.3-0.2,0.6-0.4,0.6c-0.1,0-0.2-0.1-0.3-0.3
			C898.9,22.8,898.7,22.4,898.4,21.9L898.4,21.9z M899.9,24c0.9,0.6,1.1,0.9,1.1,1.1c0,0.2-0.1,0.3-0.3,0.5h1.9
			c0.5-0.7,0.6-1.1,0.7-1.6H899.9z"/>
		<path class="st2" d="M909.5,30.3c0,0.1-0.1,0.2-0.4,0.2c-0.1,0-0.1,0-0.2,0c0,0,0,0,0,0c-0.1,0-0.1,0-0.2-0.1c0-1.4,0-2.8,0-5.1
			c0-1.2,0-1.8-0.1-2.8c0.3,0.2,0.5,0.3,0.8,0.5h1.4c0.2-0.2,0.2-0.3,0.4-0.5c0.3,0.2,0.3,0.3,0.6,0.5C912,22.9,912,23,912,23
			c0,0.1-0.1,0.2-0.4,0.3v2.1c0,1,0,2.5,0,4.4c0,0.1,0,0.1-0.1,0.1c0,0-0.4,0.1-0.5,0.1c-0.1,0-0.1,0-0.1-0.1v-0.6h-1.5V30.3z
			 M910.9,23.1h-1.5v2.7h1.5V23.1z M909.5,26.1V29h1.5v-2.9H909.5z M916.7,27.2h0.3c0.3-0.3,0.3-0.4,0.6-0.7
			c0.4,0.3,0.5,0.4,0.8,0.8c0.1,0,0.1,0.1,0.1,0.1c0,0-0.1,0.1-0.1,0.1h-1.6v1.7c0,0.1,0,1,0,1.4c0,0.5,0,0.6-0.1,0.7
			c-0.2,0.2-0.4,0.3-1.1,0.4c0-0.3-0.1-0.4-0.3-0.6c-0.2-0.1-0.4-0.2-1.2-0.3v-0.2c0.8,0.1,1.1,0.1,1.8,0.1c0.1,0,0.2,0,0.2-0.2
			v-3.2h-2.9c-0.6,0-0.7,0-1,0.1l-0.1-0.5c0.4,0.1,0.6,0.1,1.2,0.1h2.9v-1.5h-3.1c-0.6,0-0.7,0-1,0.1l-0.1-0.4
			c0.3,0.1,0.5,0.1,1.1,0.1h1.4v-1.8H913c-0.4,0-0.6,0-0.8,0.1l-0.1-0.4c0.3,0.1,0.6,0.1,0.9,0.1h1.4v-0.8c0-0.2,0-0.4-0.1-0.8
			c1.1,0.1,1.3,0.2,1.3,0.3c0,0.1-0.1,0.2-0.5,0.2v1.2h1.3l0.6-0.7c0.4,0.3,0.5,0.5,0.9,0.8c0.1,0,0.1,0.1,0.1,0.1
			c0,0-0.1,0.1-0.1,0.1h-2.7v1.8h1.8l0.6-0.7c0.4,0.4,0.5,0.5,1,0.8c0,0,0.1,0.1,0.1,0.1c0,0-0.1,0.1-0.1,0.1h-1.6V27.2z
			 M912.9,27.9c0.4,0.2,0.8,0.4,1.3,0.7c0.3,0.2,0.5,0.4,0.5,0.6c0,0.4-0.2,0.7-0.3,0.7c-0.1,0-0.2-0.1-0.3-0.3
			C913.8,29.1,913.4,28.6,912.9,27.9L912.9,27.9z"/>
		<path class="st2" d="M921,25.3v4.2c0,1.4,0,1.4,0,2.2c0,0.1,0,0.1-0.1,0.1c-0.1,0-0.4,0-0.5,0c-0.1,0-0.1,0-0.1-0.1
			c0-0.9,0-2.7,0-5.4c0-2.9,0-3.8,0-4.5c0.3,0.2,0.4,0.3,0.8,0.5h2.3c0.2-0.2,0.3-0.3,0.4-0.5c0.3,0.2,0.3,0.3,0.6,0.5
			c0.1,0.1,0.1,0.1,0.1,0.1c0,0.1-0.1,0.1-0.3,0.3c0,0.5,0,0.8,0,1.2c0,0.6,0,0.9,0,1.6c0,0.1,0,0.1-0.1,0.1c0,0-0.3,0-0.6,0
			c-0.1,0-0.1,0-0.1-0.1v-0.3H921z M923.4,22.6H921v1.1h2.3V22.6z M923.4,23.9H921V25h2.3V23.9z M923.4,30.7c0,0.1,0,0.1-0.1,0.1
			c-0.1,0-0.3,0.1-0.5,0.1c-0.1,0-0.1,0-0.1-0.1c0-0.9,0-1.4,0-1.9c0-1.3,0-2.3,0-2.7c0.4,0.2,0.5,0.3,0.8,0.5h2.6
			c0.2-0.2,0.3-0.2,0.5-0.4c0.2,0.2,0.3,0.3,0.5,0.5c0.1,0.1,0.1,0.1,0.1,0.2c0,0.1,0,0.1-0.4,0.3c0,0.6,0,0.8,0,1.2
			c0,0.7,0,1.2,0,2v0c0,0.1,0,0.1-0.1,0.2c-0.1,0-0.3,0-0.5,0c-0.1,0-0.1,0-0.2-0.1V30h-2.8V30.7z M926.1,26.9h-2.8v1.2h2.8V26.9z
			 M923.4,28.4v1.4h2.8v-1.4H923.4z M926.1,25.3v0.3c0,0.1-0.1,0.2-0.4,0.2c-0.3,0-0.3,0-0.3-0.1c0-0.7,0-1,0-1.7c0-1.6,0-1.7,0-2.1
			c0.4,0.2,0.5,0.3,0.8,0.5h2.3c0.2-0.2,0.3-0.3,0.5-0.5c0.3,0.2,0.4,0.3,0.7,0.5c0.1,0.1,0.1,0.1,0.1,0.2c0,0.1,0,0.1-0.3,0.3v5.3
			c0,1.8,0,1.8,0,2.9c0,0.5-0.2,0.6-1.2,0.9c-0.1-0.3-0.2-0.4-0.4-0.5c-0.1-0.1-0.3-0.1-0.6-0.2c-0.4-0.1-0.6-0.1-0.6-0.1v-0.2
			c0.9,0.1,1.1,0.1,1.8,0.1c0.2,0,0.2,0,0.2-0.2v-5.5H926.1z M928.6,22.6h-2.5v1.1h2.5V22.6z M928.6,23.9h-2.5V25h2.5V23.9z"/>
		<path class="st2" d="M934.3,24.7c0,0.4-0.3,0.8-0.8,0.8s-0.8-0.3-0.8-0.8s0.3-0.8,0.8-0.8C934,23.9,934.3,24.2,934.3,24.7z
			 M934.3,29c0,0.5-0.3,0.8-0.8,0.8c-0.5,0-0.8-0.3-0.8-0.8c0-0.4,0.3-0.8,0.8-0.8C934,28.2,934.3,28.5,934.3,29z"/>
	</g>
	<g class="st0">
		<path class="st2" d="M946.9,23.1l-1.4,6.7c0,0.1,0,0.2,0,0.3c0,0.3,0.3,0.4,0.8,0.4h0.6l-0.1,0.5h-4.1l0.1-0.5h0.6
			c0.3,0,0.6-0.1,0.8-0.2c0.2-0.1,0.3-0.3,0.3-0.6l0.9-4c0.1-0.6,0.3-1.2,0.4-1.7h0c-0.5,0.5-0.8,0.8-1,0.9
			c-0.2,0.2-0.4,0.2-0.6,0.2c-0.3,0-0.4-0.2-0.4-0.6c0.5-0.1,1.1-0.4,1.8-0.8l0.9-0.6H946.9z"/>
		<path class="st2" d="M952.5,23c0.6,0,1.2,0.2,1.5,0.7c0.4,0.4,0.6,1.1,0.6,1.9c0,1.4-0.3,2.7-0.9,3.8c-0.6,1.2-1.4,1.7-2.4,1.7
			c-0.7,0-1.2-0.2-1.6-0.7c-0.4-0.5-0.6-1.1-0.6-2c0-1.4,0.3-2.7,0.9-3.8C950.8,23.6,951.5,23,952.5,23z M951.4,30.5
			c0.6,0,1.1-0.5,1.5-1.6c0.4-1.1,0.6-2.3,0.6-3.6c0-1.1-0.4-1.7-1.1-1.7c-0.6,0-1.2,0.5-1.5,1.6c-0.4,1.1-0.6,2.3-0.6,3.6
			C950.3,29.9,950.7,30.5,951.4,30.5z"/>
		<path class="st2" d="M956.4,31.1c-0.5,0-0.7-0.2-0.7-0.7c0-0.3,0.1-0.5,0.2-0.6c0.1-0.2,0.3-0.2,0.5-0.2c0.2,0,0.4,0.1,0.5,0.2
			c0.1,0.1,0.2,0.3,0.2,0.5c0,0.3-0.1,0.5-0.2,0.6S956.6,31.1,956.4,31.1z M957.4,26.6c-0.5,0-0.7-0.2-0.7-0.7
			c0-0.3,0.1-0.5,0.2-0.6c0.1-0.2,0.3-0.2,0.5-0.2c0.5,0,0.7,0.2,0.7,0.7c0,0.3-0.1,0.5-0.2,0.6S957.6,26.6,957.4,26.6z"/>
		<path class="st2" d="M962.7,23c0.6,0,1.2,0.2,1.5,0.7s0.6,1.1,0.6,1.9c0,1.4-0.3,2.7-0.9,3.8c-0.6,1.2-1.4,1.7-2.4,1.7
			c-0.7,0-1.2-0.2-1.6-0.7c-0.4-0.5-0.6-1.1-0.6-2c0-1.4,0.3-2.7,0.9-3.8C960.9,23.6,961.7,23,962.7,23z M961.6,30.5
			c0.6,0,1.1-0.5,1.5-1.6c0.4-1.1,0.6-2.3,0.6-3.6c0-1.1-0.4-1.7-1.1-1.7c-0.6,0-1.2,0.5-1.5,1.6c-0.4,1.1-0.6,2.3-0.6,3.6
			C960.5,29.9,960.9,30.5,961.6,30.5z"/>
		<path class="st2" d="M969.3,23c0.6,0,1.2,0.2,1.5,0.7s0.6,1.1,0.6,1.9c0,1.4-0.3,2.7-0.9,3.8c-0.6,1.2-1.4,1.7-2.4,1.7
			c-0.7,0-1.2-0.2-1.6-0.7c-0.4-0.5-0.6-1.1-0.6-2c0-1.4,0.3-2.7,0.9-3.8C967.5,23.6,968.3,23,969.3,23z M968.2,30.5
			c0.6,0,1.1-0.5,1.5-1.6c0.4-1.1,0.6-2.3,0.6-3.6c0-1.1-0.4-1.7-1.1-1.7c-0.6,0-1.2,0.5-1.5,1.6c-0.4,1.1-0.6,2.3-0.6,3.6
			C967.1,29.9,967.4,30.5,968.2,30.5z"/>
		<path class="st2" d="M976.8,28h-0.6c0.1-1.3,0.6-1.9,1.4-1.9c0.3,0,0.8,0.2,1.3,0.7c0.4,0.4,0.7,0.5,0.9,0.5
			c0.2,0,0.4-0.1,0.5-0.3s0.2-0.5,0.2-0.9h0.7c-0.1,1.3-0.6,1.9-1.4,1.9c-0.3,0-0.8-0.2-1.3-0.7c-0.4-0.4-0.7-0.6-0.9-0.6
			c-0.2,0-0.4,0.1-0.5,0.3C976.9,27.3,976.8,27.6,976.8,28z"/>
		<path class="st2" d="M990,23.1l-1.4,6.7c0,0.1,0,0.2,0,0.3c0,0.3,0.3,0.4,0.8,0.4h0.6l-0.1,0.5h-4.1l0.1-0.5h0.6
			c0.3,0,0.6-0.1,0.8-0.2c0.2-0.1,0.3-0.3,0.3-0.6l0.9-4c0.1-0.6,0.3-1.2,0.4-1.7h0c-0.5,0.5-0.8,0.8-1,0.9
			c-0.2,0.2-0.4,0.2-0.6,0.2c-0.3,0-0.4-0.2-0.4-0.6c0.5-0.1,1.1-0.4,1.8-0.8l0.9-0.6H990z"/>
		<path class="st2" d="M996.3,27.2c-0.5,0.5-1,0.7-1.7,0.7c-0.6,0-1-0.2-1.4-0.5s-0.5-0.8-0.5-1.3c0-0.9,0.3-1.6,0.8-2.2
			c0.6-0.6,1.2-0.9,2.1-0.9c0.6,0,1.1,0.2,1.5,0.6c0.4,0.4,0.5,0.9,0.5,1.6c0,1.4-0.3,2.7-1,4c-0.7,1.3-1.6,1.9-2.8,1.9
			c-1,0-1.5-0.3-1.5-1c0-0.2,0.1-0.3,0.2-0.5c0.1-0.1,0.3-0.2,0.5-0.2c0,0.3,0.1,0.6,0.3,0.8c0.2,0.2,0.4,0.3,0.7,0.3
			c0.5,0,0.9-0.3,1.3-0.8C995.6,29.3,995.9,28.4,996.3,27.2z M996.4,26.4c0.1-0.5,0.2-0.9,0.2-1.3c0-1-0.3-1.5-1-1.5
			c-0.5,0-0.9,0.3-1.2,0.8c-0.3,0.5-0.5,1.1-0.5,1.8c0,0.4,0.1,0.7,0.3,0.9c0.2,0.2,0.4,0.3,0.8,0.3C995.4,27.4,996,27.1,996.4,26.4
			z"/>
		<path class="st2" d="M999.5,31.1c-0.5,0-0.7-0.2-0.7-0.7c0-0.3,0.1-0.5,0.2-0.6c0.1-0.2,0.3-0.2,0.5-0.2c0.2,0,0.4,0.1,0.5,0.2
			c0.1,0.1,0.2,0.3,0.2,0.5c0,0.3-0.1,0.5-0.2,0.6S999.8,31.1,999.5,31.1z M1000.5,26.6c-0.5,0-0.7-0.2-0.7-0.7
			c0-0.3,0.1-0.5,0.2-0.6c0.1-0.2,0.3-0.2,0.5-0.2c0.5,0,0.7,0.2,0.7,0.7c0,0.3-0.1,0.5-0.2,0.6S1000.8,26.6,1000.5,26.6z"/>
		<path class="st2" d="M1005.8,23c0.6,0,1.2,0.2,1.5,0.7s0.6,1.1,0.6,1.9c0,1.4-0.3,2.7-0.9,3.8c-0.6,1.2-1.4,1.7-2.4,1.7
			c-0.7,0-1.2-0.2-1.6-0.7c-0.4-0.5-0.6-1.1-0.6-2c0-1.4,0.3-2.7,0.9-3.8C1004.1,23.6,1004.9,23,1005.8,23z M1004.8,30.5
			c0.6,0,1.1-0.5,1.5-1.6c0.4-1.1,0.6-2.3,0.6-3.6c0-1.1-0.4-1.7-1.1-1.7c-0.6,0-1.2,0.5-1.5,1.6c-0.4,1.1-0.6,2.3-0.6,3.6
			C1003.6,29.9,1004,30.5,1004.8,30.5z"/>
		<path class="st2" d="M1012.4,23c0.6,0,1.2,0.2,1.5,0.7s0.6,1.1,0.6,1.9c0,1.4-0.3,2.7-0.9,3.8c-0.6,1.2-1.4,1.7-2.4,1.7
			c-0.7,0-1.2-0.2-1.6-0.7c-0.4-0.5-0.6-1.1-0.6-2c0-1.4,0.3-2.7,0.9-3.8C1010.7,23.6,1011.4,23,1012.4,23z M1011.3,30.5
			c0.6,0,1.1-0.5,1.5-1.6c0.4-1.1,0.6-2.3,0.6-3.6c0-1.1-0.4-1.7-1.1-1.7c-0.6,0-1.2,0.5-1.5,1.6c-0.4,1.1-0.6,2.3-0.6,3.6
			C1010.2,29.9,1010.6,30.5,1011.3,30.5z"/>
	</g>
</g>
</svg>
