<svg xmlns="http://www.w3.org/2000/svg" viewBox="0 0 430.03 512"><defs><style>.cls-1{fill:#4b4b4b}.cls-2{fill:#00991f}</style></defs><g id="レイヤー_2" data-name="レイヤー 2"><g id="_2" data-name="2"><path class="cls-1" d="M125.29 471.55l-8.25-15.75-8.24 15.75h4.12v15.74h-2.63v4.51h13.5v-4.51h-2.63v-15.74h4.13zm-23.71 0l-8.26-15.75-8.24 15.75h4.12v15.74h-2.63v4.51h13.5v-4.51h-2.62v-15.74h4.13z"/><path class="cls-1" d="M349.52 421c-.12-14.56-.29-28.4-.53-39.08-.49-20.34-3.72-37.61-18.52-52.73-11.82-12.09-26.89-19-40.77-23.73-6.95-2.36-13.63-4.19-19.51-5.78s-11-3-14.5-4.31c-6.94-2.59-14.29-5.93-19.4-9.52a24.33 24.33 0 0 1-5.67-5.19 6.24 6.24 0 0 1-1.48-3.67V251c8.88-9.89 21.65-25.21 26.89-49.48a33.34 33.34 0 0 0 5.39-3c4.34-3 8-7.35 11.15-13.27s5.93-13.55 8.9-23.95a51.06 51.06 0 0 0 2.2-13.93 25.26 25.26 0 0 0-2.74-12.09 19.4 19.4 0 0 0-10.48-9.08 16.7 16.7 0 0 0-1.71-.49h2.06s-5.28-55.56-5.28-75.07S209 0 174.9 0 84.28 31.17 84.28 50.67 79 125.74 79 125.74h1.38c0 .07-.09.19-.11.26a20 20 0 0 0-4.61 2 19 19 0 0 0-6.8 7.28 25.37 25.37 0 0 0-2.74 12.09 51.44 51.44 0 0 0 2.2 13.93c4 13.85 7.57 22.79 12.22 29.35a32 32 0 0 0 7.84 7.87 32.92 32.92 0 0 0 5.39 3c5.24 24.27 18 39.59 26.88 49.48v26a6.32 6.32 0 0 1-1.6 3.7c-1.86 2.51-5.74 5.55-10.34 8.14a91.71 91.71 0 0 1-14.47 6.49c-4.79 1.7-12.19 3.47-20.58 5.79C61 304.64 46 309.41 32.58 318.21 5.84 335.72 1 361.93.87 391.54.79 418.62.22 445.69 0 472.76c-.07 9.87 0 19.74 0 29.6V512h349.78v-15.17c.01-14.83-.01-46.7-.26-75.83zM230.08 303.48L260 335.14l-28 21.52 6.26 14.53h-41.19zM150.15 50.35h49.5v22.33h-49.5zM106.32 195.4l-.69-3.89-3.72-1.33a24.54 24.54 0 0 1-5.76-2.8c-2.32-1.65-4.43-3.89-6.89-8.48s-5-11.4-7.84-21.3a37.83 37.83 0 0 1-1.68-10.2 11.92 11.92 0 0 1 1.13-5.67 5.76 5.76 0 0 1 3.25-2.73 8.92 8.92 0 0 1 2.68-.54l2.06.25v8.62l15.34 30.85v-55.84c16.65-6.75 40.46-15.56 67.05-15.56 20.75 0 41 5.38 57.8 11l16.56 7.8v52.62L261 147.3v-8.74l1.89-.14a8.87 8.87 0 0 1 4.09 1.17 5.35 5.35 0 0 1 2 2.14 11.92 11.92 0 0 1 1.13 5.67 37.77 37.77 0 0 1-1.68 10.2c-3.75 13.22-7.11 20.91-10.2 25.17a18.57 18.57 0 0 1-4.53 4.61 24.26 24.26 0 0 1-5.75 2.8l-3.73 1.33-.69 3.89c-4.35 24.4-16.91 38.11-26.2 48.45l-1.74 1.94V277a19.61 19.61 0 0 0 4.13 11.74c.48.65 1.05 1.23 1.59 1.84l-13.17 27h-66.41l-13.24-27.14c.45-.53 1-1 1.41-1.54a19.72 19.72 0 0 0 4.37-11.9v-31.21l-1.74-1.94c-9.29-10.34-21.86-24.05-26.21-48.45zm13.41 108.08l33 67.71h-41.18l6.27-14.53-28-21.52zm157.68 194.91H72.4v-113.6H160v32.38h29.9v-32.38h87.5v113.6z"/><path class="cls-2" d="M355.15 189.63a164.58 164.58 0 0 0-24.77-25.18c17.41-22.1 28.51-53.12 26.6-88.29a189 189 0 0 1 36.12 9.27 168.36 168.36 0 0 1-20.17 78.26 153.49 153.49 0 0 1-17.78 25.94z"/><path class="cls-2" d="M375.18 11.47l-54.86 75h109.71l-54.85-75z"/></g></g></svg>