<svg xmlns="http://www.w3.org/2000/svg" viewBox="0 0 258.6 105.13"><defs><style>.cls-1{fill:#de6a7c}.cls-2{fill:#fff}.cls-3{fill:#9cc556}.cls-4{fill:#eda411}</style></defs><g id="レイヤー_2" data-name="レイヤー 2"><g id="レイヤー_1-2" data-name="レイヤー 1"><ellipse class="cls-1" cx="47.22" cy="22.37" rx="46.01" ry="22.37"/><path class="cls-2" d="M9.1 104.43c-5.4 0-9.1-3.6-9.1-8.9a8.1 8.1 0 0 1 2.2-5.7 9.13 9.13 0 0 1-1.2-4.7c0-4.8 3.1-8.3 7.3-8.3h6.2v2.3h6.8v-2.3h6.3c4.2 0 7.3 3.6 7.3 8.4a9.28 9.28 0 0 1-.9 4.2 9 9 0 0 1 1.7 5.5 7.9 7.9 0 0 1-6.8 8c-2.8.5-15.9 1.5-19.8 1.5z"/><path class="cls-2" d="M21.4 78.93v2.7h6.3C29 81.63 30 83 30 85s-1 3.4-2.3 3.4h-6.3v3h2c.8-.1 1-.1 2.8-.3h.9c2.4 0 3.7 1.3 3.7 3.8a2.9 2.9 0 0 1-2.7 3.1c-2.4.5-15.2 1.5-18.9 1.5-2.6 0-4.1-1.4-4.1-3.9a3.08 3.08 0 0 1 2-3.1 7 7 0 0 1 2.6-.2c.6 0 1.4 0 4.9-.2v-3.7H8.4c-1.3 0-2.3-1.4-2.3-3.4s.9-3.3 2.3-3.3h6.2V79"/><path class="cls-2" d="M11.1 83.93c-6 0-9.8-3.8-9.8-9.8v-14.3c0-6 3.8-9.8 9.8-9.8h13.8c6 0 9.8 3.8 9.8 9.8v14.3c0 6-3.8 9.8-9.8 9.8z"/><path class="cls-2" d="M14.6 78.93h-3.5q-4.8 0-4.8-4.8v-14.3q0-4.8 4.8-4.8h13.8q4.8 0 4.8 4.8v14.3q0 4.8-4.8 4.8H14.6z"/><path class="cls-2" d="M16.1 69.13v-12.8h7a5.89 5.89 0 0 1 6 6v6.8z"/><path class="cls-2" d="M24.1 62.33c0-.7-.3-1-1-1h-2v2.8h3zm-8 15.6v-13h13v7a5.89 5.89 0 0 1-6 6z"/><path class="cls-2" d="M21.1 72.93h2c.7 0 1-.3 1-1v-2h-3zm16.8 31.8a20.17 20.17 0 0 1-6.3-.7l-.2-.1c-3.4-1.2-5.4-4.3-5.4-8.2 0-4.1 2.4-7.3 5.9-8.2v-4c-4.1-.5-6.9-4-6.9-8.6 0-5 3.4-8.7 8-8.7h4.2v7.3h7.7v-7.3h3.4c8.3 0 9.2 6.1 9.2 8.8a54.13 54.13 0 0 1-1.2 10.8c-.9 3.9-3.7 6.4-7.5 6.6v1.7c.2 7.1-3.5 10.6-10.9 10.6z"/><path class="cls-2" d="M45.1 71.33h3.4c3.1 0 4.2 1 4.2 3.8a63.82 63.82 0 0 1-1 9.8q-.6 2.7-3 2.7c-2.1 0-3.7-1.4-3.7-3.1a2.8 2.8 0 0 1 .2-1.1 22.51 22.51 0 0 0 .7-3.8c0-.5-.3-.8-1.1-.8H44v15.6c0 4.1-1.5 5.5-6.1 5.5a17.86 17.86 0 0 1-4.8-.4C31.7 99 31 97.83 31 96c0-2.1 1.3-3.5 3.1-3.5h.7c.3 0 .7.1 1 .1.8 0 1.1-.3 1.1-1.1V78.93H33c-1.8 0-3-1.4-3-3.6s1.2-3.7 3-3.7h4.2"/><path class="cls-2" d="M35.2 76.33l-3.1-3.1c-.1-.1-.8-.8-1.6-1.5a8.23 8.23 0 0 1-3-6.3v-.7a8.69 8.69 0 0 1-2.4-6.2c0-4.8 3.2-8.4 7.5-8.4h15.8c5.2 0 8.9 3.4 8.9 8.3a11.49 11.49 0 0 1-2.5 6.9 46.05 46.05 0 0 1-4.7 5.8l.4 5.3-15.3-.1z"/><path class="cls-2" d="M37.3 71.33l-1.7-1.7a21.58 21.58 0 0 0-1.9-1.7 3.15 3.15 0 0 1 1.8-5.7 4 4 0 0 1 2.4.9c.1.1 1 .9 2.5 2.3 1.7-1.7 2.7-2.9 2.7-3.3 0-.2-.3-.3-.8-.3h-9.8c-1.5 0-2.5-1.4-2.5-3.3 0-2.1 1-3.4 2.5-3.4h15.8c2.4 0 3.9 1.2 3.9 3.3a6.08 6.08 0 0 1-1.6 4 53.11 53.11 0 0 1-6.4 7.3 3.1 3.1 0 0 1 .7 1.7l-7.6-.1zm45.4 33.8c-4.8 0-7.7-2.5-8.5-5.4-4 2.3-8.3 4.2-11.2 4.2a8.71 8.71 0 0 1-8.6-8.8A8.37 8.37 0 0 1 57 89a8.56 8.56 0 0 1-2.1-5.8 8 8 0 0 1 4.6-7.6c-.1-.1-.3-.2-.4-.3a8.83 8.83 0 0 1-2.9-6.6 7.81 7.81 0 0 1 5.6-7.8c1.1-.3 1.5-.3 5.3-.3 14.3-.1 22.8-.5 31.2-1.2 1.2-.1 1.7-.2 2.1-.2a7.72 7.72 0 0 1 8 8 8.23 8.23 0 0 1-2.3 5.9v.1a8.33 8.33 0 0 1-.3 2.2 8.05 8.05 0 0 1 5 7.8 8.67 8.67 0 0 1-2 5.6 8 8 0 0 1 2.5 5.9 8.77 8.77 0 0 1-8.7 9 11.8 11.8 0 0 1-4.9-1.2 55.9 55.9 0 0 1-6.5-3.2c-.6 3.13-3.6 5.83-8.5 5.83z"/><path class="cls-2" d="M86.5 97.83c0 1.4-1.5 2.3-3.8 2.3s-3.8-.9-3.8-2.3v-7.4c-4.9 4.2-13 8.5-15.9 8.5a3.7 3.7 0 0 1-3.6-3.8 3.24 3.24 0 0 1 1.6-2.9 13 13 0 0 1 2.1-.8 58.35 58.35 0 0 0 11.4-5.1H62.1c-1.3 0-2.2-1.2-2.2-3s.9-3.1 2.2-3.1H79a2.24 2.24 0 0 1 1.5-1.5 2.15 2.15 0 0 1-1-1.4 14.05 14.05 0 0 0-1.1-2.2 2.7 2.7 0 0 1-.6-1.7 2.34 2.34 0 0 1 .7-1.7l-3.9.1h-3.4c1.7 2 2.4 3.3 2.4 4.5 0 1.9-1.9 3.5-4 3.5a2.88 2.88 0 0 1-2.7-1.6l-1.2-1.8a5.92 5.92 0 0 1-.4-.6 2.31 2.31 0 0 1-.7-1.8 3.21 3.21 0 0 1 1-2.2c-2.4 0-2.7-.1-3.2-.5a3.54 3.54 0 0 1-1-2.7 2.78 2.78 0 0 1 2-2.9c.5-.1.5-.1 4-.1 14.8-.1 23.3-.5 31.7-1.2 1.2-.1 1.4-.1 1.6-.1a2.78 2.78 0 0 1 3 3 3 3 0 0 1-1.7 3 7.19 7.19 0 0 1-1.8.2h-.4a3.17 3.17 0 0 1 1.7 2.7c0 1.5-1.1 3.5-3.4 5.9a5.3 5.3 0 0 1-1.2 1h7.2c1.2 0 2.2 1.4 2.2 3.1s-.9 3-2.2 3H91.6a59.28 59.28 0 0 0 12.4 5.2q2.7.9 2.7 3.3a3.77 3.77 0 0 1-3.7 4 5.75 5.75 0 0 1-2.9-.8 53.39 53.39 0 0 1-13.2-7.8v7.7z"/><path class="cls-2" d="M74.8 70c-3.3 0-5.6-1.1-7-2.7h-5.6c-4.1 0-7.3-3.5-7.3-8s3.2-8 7.3-8h5.6a9.6 9.6 0 0 1 6.9-2.6 9.85 9.85 0 0 1 7 2.6h2.1a10.59 10.59 0 0 1 13.9 0h5.7c4.1 0 7.4 3.5 7.4 8s-3.2 8-7.4 8h-6.2a9.59 9.59 0 0 1-6.4 2.1 9.55 9.55 0 0 1-6.5-2.1h-2.5c-1.4 1.63-3.7 2.7-7 2.7z"/><path class="cls-2" d="M71.1 55.83c0-1.3 1.6-2.2 3.7-2.2s3.8.9 3.8 2.2v.4H87v-.4c0-1.3 1.6-2.3 3.8-2.3s3.7.9 3.7 2.3v.4h8.9c1.4 0 2.4 1.3 2.4 3s-1 3-2.4 3h-8.9c-.1 1.4-1.5 2.1-3.7 2.1s-3.7-.8-3.8-2.1h-8.4v.4c0 1.4-1.5 2.3-3.8 2.3s-3.7-.9-3.7-2.3v-.4h-8.8c-1.3 0-2.3-1.3-2.3-3s1-3 2.3-3h8.8v-.4zm11.3 29.3l-.5-2.3-9.3-3 8-4.9a1.38 1.38 0 0 0-.3-.4l-6.5-7.7 12.2-.6 3.3-.1c2-.1 3.3-.1 4.6-.2l11.3-.9-6.4 8.9a36.92 36.92 0 0 1-2.9 4c-.1.1-.1.2-.2.2a2.84 2.84 0 0 0 .4-1.3 1.75 1.75 0 0 0-.5-1.3L93.5 85H82.4v.1z"/><path class="cls-2" d="M93.5 80.13a3.69 3.69 0 0 1-2.4-3.2 2.92 2.92 0 0 1 1-2.2 40.65 40.65 0 0 0 2.5-3.5l.2-.3h-.6l-8 .4-2.1.1A10.39 10.39 0 0 1 86.2 76a2.82 2.82 0 0 1-1.7 2.5c1.1.3 1.8.9 1.9 1.7h7.1zm31 22.8a9.07 9.07 0 0 1-9-9.2 9.37 9.37 0 0 1 3.4-7.2c1.6-1.3 2.5-1.5 5.8-2.2 5.4-1.1 9-3.4 11.3-7a19.93 19.93 0 0 0 2.4-6.1h-22.1c-4.5 0-8-3.8-8-8.7s3.5-8.7 8-8.7H146c10.4 0 11.6 7.3 11.6 10.5a59.15 59.15 0 0 1-2.8 16.1c-2.9 8.1-8.5 14.2-16.6 18.3-3.4 1.8-10.4 4.2-13.7 4.2z"/><path class="cls-2" d="M146.2 58.93c4.6 0 6.6 1.7 6.6 5.5a55.82 55.82 0 0 1-2.5 14.4c-2.4 6.9-7.2 12.1-14.2 15.5-3.4 1.7-9.5 3.6-11.5 3.6a4.12 4.12 0 0 1-4-4.2 4.22 4.22 0 0 1 1.6-3.3c.7-.6.7-.6 3.7-1.2 6.7-1.4 11.5-4.4 14.5-9.2a26.3 26.3 0 0 0 3.7-12.4c0-1.1-.4-1.4-1.8-1.4h-25.8c-1.7 0-3-1.6-3-3.7s1.3-3.7 3-3.7l29.7.1zm49.7 19.2h-9.5v-7H179v7h-9.2c-4.4 0-7.9-3.7-7.9-8.5s3.5-8.5 7.9-8.5h26.1c4.4 0 7.9 3.7 7.9 8.5s-3.4 8.5-7.9 8.5z"/><path class="cls-2" d="M179 73.13h-9.2c-1.7 0-2.9-1.5-2.9-3.5s1.2-3.5 2.9-3.5h26.1c1.7 0 2.9 1.5 2.9 3.5s-1.2 3.5-2.9 3.5h-9.5"/><path class="cls-2" d="M167.7 101.43c-4.5 0-7.9-3.7-7.9-8.5s3.4-8.5 7.9-8.5h6.3v-16.2h17.4v16.2h6.6c4.5 0 7.9 3.8 7.9 8.6s-3.5 8.5-7.9 8.5h-30.3z"/><path class="cls-2" d="M186.4 73.13v16.3H198c1.7 0 2.9 1.5 2.9 3.6s-1.2 3.5-2.9 3.5h-30.4c-1.7 0-2.9-1.5-2.9-3.5s1.2-3.5 2.9-3.5h11.3v-16.2h7.5zm29.4 29.1c-4.8 0-8.9-4.4-8.9-9.7a8.85 8.85 0 0 1 2.8-6.5l.1-.1a10.49 10.49 0 0 1 3.4-2 45.63 45.63 0 0 0 16.4-13.5h-13.1c-4.6 0-8-3.7-8-8.7s3.5-8.7 8-8.7h24.4c6.7 0 11.6 4.3 11.6 10.2a14.37 14.37 0 0 1-1.5 6 60.28 60.28 0 0 1-7.3 12l-6.3-4.7a63.33 63.33 0 0 1-4.9 5.6l5.7 5.5a68.33 68.33 0 0 1-17.5 13.2 10.19 10.19 0 0 1-4.9 1.4zm26.4-39l.3.6a.76.76 0 0 0 .1-.4.52.52 0 0 0-.4-.2z"/><path class="cls-2" d="M234.8 84.13a60.56 60.56 0 0 1-16.2 12.2 5.41 5.41 0 0 1-2.7.8c-2.1 0-3.9-2.2-3.9-4.7a3.63 3.63 0 0 1 1.2-2.8c.4-.4.5-.4 2.2-1.2A50.4 50.4 0 0 0 236.6 69a14.15 14.15 0 0 0 1.5-3q0-.6-1.2-.6h-20.2c-1.7 0-3-1.5-3-3.7s1.3-3.7 3-3.7h24.4c4 0 6.6 2.1 6.6 5.2a9.3 9.3 0 0 1-1.1 4 61.25 61.25 0 0 1-6.7 11"/><path class="cls-2" d="M249 101.73c-3.6 0-5.4-1.7-7.1-3.6-3-3.2-7.3-7.5-10.5-10.3l-3.7-3.3 3.3-3.7c1.4-1.6 3.9-4.5 4.7-5.6l3.1-4.2 4.1 3.2a135.52 135.52 0 0 1 13.1 11.6 9.11 9.11 0 0 1 2.6 6.3 9.8 9.8 0 0 1-9.6 9.6z"/><path class="cls-2" d="M239.8 78.23a129.38 129.38 0 0 1 12.5 11.1 4.05 4.05 0 0 1 1.3 2.9 4.78 4.78 0 0 1-4.6 4.5c-1.4 0-2-.3-3.4-1.9-2.9-3.2-7.4-7.6-10.9-10.7a69.88 69.88 0 0 0 5.1-5.9z"/><path class="cls-3" d="M21.4 78.93v2.7h6.3C29 81.63 30 83 30 85s-1 3.4-2.3 3.4h-6.3v3h2c.8-.1 1-.1 2.8-.3h.9c2.4 0 3.7 1.3 3.7 3.8a2.9 2.9 0 0 1-2.7 3.1c-2.4.5-15.2 1.5-18.9 1.5-2.6 0-4.1-1.4-4.1-3.9a3.08 3.08 0 0 1 2-3.1 7 7 0 0 1 2.6-.2c.6 0 1.4 0 4.9-.2v-3.7H8.4c-1.3 0-2.3-1.4-2.3-3.4s.9-3.3 2.3-3.3h6.2V79"/><path class="cls-4" d="M14.6 78.93h-3.5q-4.8 0-4.8-4.8v-14.3q0-4.8 4.8-4.8h13.8q4.8 0 4.8 4.8v14.3q0 4.8-4.8 4.8H14.6z"/><path class="cls-2" d="M24.1 62.33c0-.7-.3-1-1-1h-2v2.8h3zm-3 10.6h2c.7 0 1-.3 1-1v-2h-3zm-9.2-8.8h3v-2.8h-2c-.7 0-1 .3-1 1zm3 5.8h-3v2c0 .7.3 1 1 1h2z"/><path class="cls-4" d="M45.1 71.33h3.4c3.1 0 4.2 1 4.2 3.8a63.82 63.82 0 0 1-1 9.8q-.6 2.7-3 2.7c-2.1 0-3.7-1.4-3.7-3.1a2.8 2.8 0 0 1 .2-1.1 22.51 22.51 0 0 0 .7-3.8c0-.5-.3-.8-1.1-.8H44v15.6c0 4.1-1.5 5.5-6.1 5.5a17.86 17.86 0 0 1-4.8-.4C31.7 99 31 97.83 31 96c0-2.1 1.3-3.5 3.1-3.5h.7c.3 0 .7.1 1 .1.8 0 1.1-.3 1.1-1.1V78.93H33c-1.8 0-3-1.4-3-3.6s1.2-3.7 3-3.7h4.2"/><path class="cls-3" d="M37.3 71.33l-1.7-1.7a21.58 21.58 0 0 0-1.9-1.7 3.15 3.15 0 0 1 1.8-5.7 4 4 0 0 1 2.4.9c.1.1 1 .9 2.5 2.3 1.7-1.7 2.7-2.9 2.7-3.3 0-.2-.3-.3-.8-.3h-9.8c-1.5 0-2.5-1.4-2.5-3.3 0-2.1 1-3.4 2.5-3.4h15.8c2.4 0 3.9 1.2 3.9 3.3a6.08 6.08 0 0 1-1.6 4 53.11 53.11 0 0 1-6.4 7.3 3.1 3.1 0 0 1 .7 1.7l-7.6-.1zm33.8-15.5c0-1.3 1.6-2.2 3.7-2.2s3.8.9 3.8 2.2v.4H87v-.4c0-1.3 1.6-2.3 3.8-2.3s3.7.9 3.7 2.3v.4h8.9c1.4 0 2.4 1.3 2.4 3s-1 3-2.4 3h-8.9c-.1 1.4-1.5 2.1-3.7 2.1s-3.7-.8-3.8-2.1h-8.4v.4c0 1.4-1.5 2.3-3.8 2.3s-3.7-.9-3.7-2.3v-.4h-8.8c-1.3 0-2.3-1.3-2.3-3s1-3 2.3-3h8.8v-.4z"/><path class="cls-4" d="M80.4 78.53A2.46 2.46 0 0 0 78.9 80H62c-1.3 0-2.2 1.3-2.2 3.1s.9 3 2.2 3h12.4A55.81 55.81 0 0 1 63 91.23a5.8 5.8 0 0 0-2.1.8 3.36 3.36 0 0 0-1.6 2.9 3.7 3.7 0 0 0 3.6 3.8c2.8 0 10.9-4.3 15.9-8.5v7.4c0 1.4 1.5 2.3 3.8 2.3s3.8-.9 3.8-2.3V90a57.3 57.3 0 0 0 13.2 7.8 7.44 7.44 0 0 0 2.9.8 3.71 3.71 0 0 0 3.7-4c0-1.7-.9-2.7-2.7-3.3a72.37 72.37 0 0 1-12.4-5.2h12.7c1.2 0 2.2-1.3 2.2-3s-.9-3.1-2.2-3.1h-7.2a3.31 3.31 0 0 0 1.2-1c2.3-2.4 3.4-4.4 3.4-5.9a2.88 2.88 0 0 0-1.7-2.7h.4a7.19 7.19 0 0 0 1.8-.2 3.15 3.15 0 0 0 1.7-3 2.78 2.78 0 0 0-3-3c-.2 0-.4 0-1.6.1-8.4.7-16.9 1.1-31.7 1.2-3.5 0-3.5 0-4 .1a2.86 2.86 0 0 0-2 2.9 3.54 3.54 0 0 0 1 2.7c.5.4.8.5 3.2.5a3.21 3.21 0 0 0-1 2.2 2.59 2.59 0 0 0 .7 1.8 6.13 6.13 0 0 1 .4.6l1.2 1.8a2.88 2.88 0 0 0 2.7 1.6c2.1 0 4-1.7 4-3.5 0-1.2-.7-2.5-2.4-4.5h3.4l3.9-.1a2.34 2.34 0 0 0-.7 1.7 2.7 2.7 0 0 0 .6 1.7 10.71 10.71 0 0 1 1.1 2.2 3.8 3.8 0 0 0 1.2 1.3m4.1-.1a3 3 0 0 0 1.7-2.5 10.89 10.89 0 0 0-2.1-4.6l2.1-.1c4.3-.2 6-.2 8-.4h.6l-.2.3a29.32 29.32 0 0 1-2.5 3.5 2.92 2.92 0 0 0-1 2.2 3.69 3.69 0 0 0 2.4 3.2h-7.1c-.1-.7-.8-1.3-1.9-1.6m61.7-19.47c4.6 0 6.6 1.7 6.6 5.5a55.82 55.82 0 0 1-2.5 14.4c-2.4 6.9-7.2 12.1-14.2 15.5-3.4 1.7-9.5 3.6-11.5 3.6a4.12 4.12 0 0 1-4-4.2 4.22 4.22 0 0 1 1.6-3.3c.7-.6.7-.6 3.7-1.2 6.7-1.4 11.5-4.4 14.5-9.2a26.3 26.3 0 0 0 3.7-12.4c0-1.1-.4-1.4-1.8-1.4h-25.8c-1.7 0-3-1.6-3-3.7s1.3-3.7 3-3.7l29.7.1z"/><path class="cls-3" d="M179 73.13h-9.2c-1.7 0-2.9-1.5-2.9-3.5s1.2-3.5 2.9-3.5h26.1c1.7 0 2.9 1.5 2.9 3.5s-1.2 3.5-2.9 3.5h-9.5"/><path class="cls-4" d="M186.4 73.13v16.3H198c1.7 0 2.9 1.5 2.9 3.6s-1.2 3.5-2.9 3.5h-30.4c-1.7 0-2.9-1.5-2.9-3.5s1.2-3.5 2.9-3.5h11.3v-16.2h7.5zm48.4 11a60.56 60.56 0 0 1-16.2 12.2 5.41 5.41 0 0 1-2.7.8c-2.1 0-3.9-2.2-3.9-4.7a3.63 3.63 0 0 1 1.2-2.8c.4-.4.5-.4 2.2-1.2A50.4 50.4 0 0 0 236.6 69a14.15 14.15 0 0 0 1.5-3q0-.6-1.2-.6h-20.2c-1.7 0-3-1.5-3-3.7s1.3-3.7 3-3.7h24.4c4 0 6.6 2.1 6.6 5.2a9.3 9.3 0 0 1-1.1 4 61.25 61.25 0 0 1-6.7 11"/><path class="cls-3" d="M239.8 78.23a129.38 129.38 0 0 1 12.5 11.1 4.05 4.05 0 0 1 1.3 2.9 4.78 4.78 0 0 1-4.6 4.5c-1.4 0-2-.3-3.4-1.9-2.9-3.2-7.4-7.6-10.9-10.7a69.88 69.88 0 0 0 5.1-5.9z"/><text transform="translate(17.8 30.9)" font-size="20.36" font-family="Jun501Pro-Bold-83pv-RKSJ-H,A-OTF Jun Pro" letter-spacing=".02em" fill="#fff">訳<tspan x="20.79" y="0" letter-spacing="-.06em">あ</tspan><tspan x="39.88" y="0" letter-spacing="-.05em">り</tspan></text><path class="cls-1" d="M76 35.18s-16.61.38-5.9 13.6c0 0-12.42-3.48-12.79-11z"/></g></g></svg>