<svg xmlns="http://www.w3.org/2000/svg" viewBox="0 0 71.3 81.09"><defs><style>.cls-1{fill:#a8d182}</style></defs><g id="レイヤー_2" data-name="レイヤー 2"><g id="アジア大陸"><path class="cls-1" d="M71.28 12.5a.81.81 0 0 0 0-.31c0-.06-.27-.13-.32-.17a1.73 1.73 0 0 0-.51-.29 4.13 4.13 0 0 1-1.67-1.13 3.56 3.56 0 0 1-.46-1.08L68 8a.62.62 0 0 0-.71-.48l-1.44.25a.78.78 0 0 1-.82-.45L64.92 7a.72.72 0 0 0-.81-.4l-1.63.4a1.25 1.25 0 0 1-1-.23L58.9 4.7a6.17 6.17 0 0 1-.81-.88L55.66.39a1 1 0 0 0-.93-.39h-.08a.94.94 0 0 0-.65.74l-.12.69a4.74 4.74 0 0 0 0 1.19l.12 1.1a6.76 6.76 0 0 1 0 1.19l-.31 3.51a1.85 1.85 0 0 1-.39 1 2 2 0 0 0-.4 1l-.35 2.84a1.39 1.39 0 0 1-.6.89l-.54.32a1.19 1.19 0 0 1-1 0l-.7-.47a1.9 1.9 0 0 0-1.06-.22 1.22 1.22 0 0 0-.8.63l-.69 1.46a2.75 2.75 0 0 1-.75.88l-.81.56a.74.74 0 0 0-.23.89l.93 1.92a1 1 0 0 1-.11 1l-.21.27a.86.86 0 0 0 0 1l.56.81a.61.61 0 0 0 .84.15l2.3-1.57a1.47 1.47 0 0 0 .58-.84.72.72 0 0 0-.47-.72l-1-.36a3.69 3.69 0 0 1-1-.63l-.18-.17a.72.72 0 0 1-.08-.9l.43-.61a1.31 1.31 0 0 1 .66-.53 1.25 1.25 0 0 1 .75.36l.53.49a2.3 2.3 0 0 0 1 .48h.36a1.07 1.07 0 0 0 .93-.42l.28-.42a1 1 0 0 1 .93-.4l1.23.22a3.23 3.23 0 0 1 1.09.43l.63.42c.28.18.72.49 1 .69l2.28 1.74a.56.56 0 0 0 .81-.15l.77-1.9c.18-.28.46-.74.62-1l1-1.91a2.22 2.22 0 0 1 .83-.78l3.8-1.82a3.68 3.68 0 0 1 1.14-.29l1.57-.06c.24.01.98.03 1.11-.2zM52.44 24.18a2.24 2.24 0 0 0-.67-.52l-.36-.2a1.15 1.15 0 0 0-1 0l-.09.05a1.19 1.19 0 0 0-.56.77.81.81 0 0 0 .39.72 1.88 1.88 0 0 1 .65.72 1.39 1.39 0 0 1 .08.89 1 1 0 0 1-.73.55h-.16a.88.88 0 0 1-.86-.28c-.14-.23-.38-.64-.51-.92a1.38 1.38 0 0 1-.13-.88c.07-.2-.14-.42-.46-.48h-.14a.68.68 0 0 0-.77.44v.11a2.48 2.48 0 0 0 0 1.15v.12a1.31 1.31 0 0 1-.25 1l-.31.35a1 1 0 0 0-.15 1l.48 1.09a2.07 2.07 0 0 1 .18 1 1.3 1.3 0 0 1-.54.77 1 1 0 0 0-.49.62 2 2 0 0 0 .33.81l.21.32a1.91 1.91 0 0 1 .28 1.09l-.13 1.25a4.48 4.48 0 0 1-.31 1.14l-1.45 3.25c-.13.3-.37.78-.53 1.07l-.73 1.33a4.14 4.14 0 0 1-.75.92l-2.43 2.12a4 4 0 0 1-1 .59l-1.53.57a2.61 2.61 0 0 0-.94.67L35.65 49a2.06 2.06 0 0 1-1 .58 5.49 5.49 0 0 1-.93.12c-.19 0-.38-.27-.42-.6a4.74 4.74 0 0 1 0-1.19v-.16a1.93 1.93 0 0 1 .49-.94A.75.75 0 0 0 34 46a.48.48 0 0 0-.71-.16l-1.29.78a1.31 1.31 0 0 0-.57.9l-.21 2.61a2.15 2.15 0 0 1-.45 1l-1.36 1.57a1.82 1.82 0 0 0-.4 1v.3a1.46 1.46 0 0 0 .24.85.77.77 0 0 1-.06.78l-.07.11a1.73 1.73 0 0 1-.75.68 3.26 3.26 0 0 1-1 .11 1.65 1.65 0 0 1-.95-.51l-.42-.46a2 2 0 0 0-1-.59l-.89-.2a5.18 5.18 0 0 0-1.18-.1h-.74a1.62 1.62 0 0 0-1 .49l-.47.54a1.67 1.67 0 0 1-1 .49l-2.11.14-1.2.07-1.18.06a2 2 0 0 0-1 .44l-4.78 4.52a11.29 11.29 0 0 1-.93.75l-.52.37c-.27.19-.72.48-1 .64l-.14.07a1.44 1.44 0 0 0-.63.65.42.42 0 0 0 .19.5 2.12 2.12 0 0 0 .89.08L9 64.29l1.2-.09h.55a3.5 3.5 0 0 0 1.14-.3l.33-.16a3.17 3.17 0 0 1 1.14-.27h.86a3.76 3.76 0 0 0 1.15-.25l1.9-.83a5.12 5.12 0 0 1 1.18-.39l.66-.08a4.64 4.64 0 0 0 1.13-.36l1.24-.64a4 4 0 0 1 1.13-.35l.72-.09a3.55 3.55 0 0 1 1.17.07l.37.1a1.82 1.82 0 0 1 .82.45 1.73 1.73 0 0 1 .22.9 1.8 1.8 0 0 1-.41 1l-.39.42a2 2 0 0 0-.43 1v.14a1.59 1.59 0 0 0 .38 1l.28.31c.22.24.6.63.83.86l.14.13a1.44 1.44 0 0 0 1 .35l.62-.08a1.53 1.53 0 0 0 .94-.56l1.5-2.17a4.78 4.78 0 0 1 .81-.87l1.44-1.18a2.21 2.21 0 0 0 .63-1v-.09a1.21 1.21 0 0 1 .41-.69c.14-.06.46.07.7.28l.32.28a1.64 1.64 0 0 0 1.05.33l2.12-.22a2.61 2.61 0 0 0 1.15-.18l.64-.47a7.48 7.48 0 0 0 .88-.81l.54-.6c.22-.25.52-.39.67-.31a1 1 0 0 1 .32.69.61.61 0 0 0 .57.54.87.87 0 0 0 .71-.56l.3-.81a7.57 7.57 0 0 0 .29-1.16v-.15a1.35 1.35 0 0 1 .61-.88l.19-.09a8.23 8.23 0 0 0 1-.66l.07-.06a.67.67 0 0 1 .76-.13 1.14 1.14 0 0 1 .24.85v.09a1.62 1.62 0 0 1-.43.92.87.87 0 0 0-.17.9l.3.84a.46.46 0 0 0 .71.23l.13-.09a2.76 2.76 0 0 0 .77-.86l.1-.19a4.84 4.84 0 0 0 .41-1.12l.06-.29a2.24 2.24 0 0 1 .57-1l.48-.42a1.33 1.33 0 0 0 .39-1l-.22-2.06a4.24 4.24 0 0 1 .07-1.18l.73-3.18a11.58 11.58 0 0 1 .31-1.12l.24-.57a3.84 3.84 0 0 0 .22-1.16v-.42a9.69 9.69 0 0 0-.09-1.2l-.16-1.06a2.28 2.28 0 0 1 .17-1.13l.13-.27a1.37 1.37 0 0 1 .86-.64l.38-.07a.9.9 0 0 0 .68-.7l.29-1.85a3.9 3.9 0 0 1 .39-1.1l.73-1.22a1.69 1.69 0 0 0 .17-1.1l-.62-2.49c-.08-.32-.22-.84-.32-1.16l-.5-1.66a10.85 10.85 0 0 0-.39-1.12l-.46-1.08a3.29 3.29 0 0 1-.21-1.15v-.74a2.23 2.23 0 0 0-.07-.85z"/><path class="cls-1" d="M17.6 68a3.57 3.57 0 0 1 1.4-.44l2.24-.2a1.63 1.63 0 0 0 1.18-.8l.1-.2c.2-.4.48-.93.64-1.17a1.59 1.59 0 0 0 .18-1 1.29 1.29 0 0 0-.81-.79 11.92 11.92 0 0 1-1.27-.52A1.59 1.59 0 0 0 20 63a3.94 3.94 0 0 0-1.13 1l-.24.35a1.81 1.81 0 0 1-1.28.69h-1.08a4.06 4.06 0 0 0-1.46.34 6.64 6.64 0 0 0-1.26.85l-.45.39a2.15 2.15 0 0 0-.68 1.1 1.37 1.37 0 0 0 .58 1.07 2.37 2.37 0 0 1 .83 1.27v.17a4.92 4.92 0 0 0 .47 1.3 1.8 1.8 0 0 0 .76.65c.24.08.65-.16.91-.52l.34-.48a3.71 3.71 0 0 0 .56-1.47l.07-.59A1.73 1.73 0 0 1 17.6 68zm-6.26 2c.14-.16 0-.59-.24-1l-.23-.3a5.09 5.09 0 0 1-.7-1.47l-.17-.46a1.81 1.81 0 0 0-.84-1.1 4.22 4.22 0 0 0-1.47-.3h-.43a4.36 4.36 0 0 1-1.54-.32 1.92 1.92 0 0 0-1.22-.14 4.92 4.92 0 0 0-1 .5 3.46 3.46 0 0 0-.88 1 3 3 0 0 1-1.17 1.06l-.51.22A1.72 1.72 0 0 0 0 68.9v.1a1.64 1.64 0 0 0 .32 1.27c.25.24.67.67.93 1a8.32 8.32 0 0 1 .71.87.34.34 0 0 0 .52.11 2.3 2.3 0 0 0 .44-1.07l.17-.88c.08-.45.34-.81.57-.79a1.38 1.38 0 0 1 .8.64A4.6 4.6 0 0 1 5 71.47a2.28 2.28 0 0 1-.1 1.21 7 7 0 0 1-.78 1l-.67.77a3 3 0 0 0-.65 1.45v.12a4.41 4.41 0 0 0 .16 1.62l.07.22a4 4 0 0 0 .73 1.28c.26.26.63.14.81-.28l.07-.16a2.72 2.72 0 0 1 .64-1 .61.61 0 0 1 .51-.12c.11 0 .19.46.17.92A11.42 11.42 0 0 1 5.8 80a1.81 1.81 0 0 1-.28.71.24.24 0 0 0 .06.36c.13.1.56 0 .94-.26l.46-.3a4.87 4.87 0 0 0 1.17-1.14l.43-.63a3.76 3.76 0 0 0 .55-1.52l.18-1.79a9.9 9.9 0 0 1 .33-1.62l.36-1.25a9.17 9.17 0 0 1 .65-1.51 7.68 7.68 0 0 1 .69-1.05z"/></g></g></svg>