<svg xmlns="http://www.w3.org/2000/svg" viewBox="0 0 150.68 152.28"><defs><style>.cls-1{fill:#80af52}</style></defs><g id="レイヤー_2" data-name="レイヤー 2"><g id="レイヤー_1-2" data-name="レイヤー 1"><path class="cls-1" d="M80.82 151.19a348.91 348.91 0 0 0 1.24-110.36c-.29-1.9-3.18-1.09-2.9.8a344.22 344.22 0 0 1-1.23 108.77c-.33 1.89 2.56 2.7 2.89.79z"/><path class="cls-1" d="M81.05 34.61c1.41.63.69 2.36-.54 2.66a1.54 1.54 0 0 1-1-.1C64 30.2 46.4 30.42 30 33.7c-8.51 1.69-17.51 4.48-23 11.69-5.12 6.76-4.67 16.3.45 23 6.26 8.11 15.55 6.91 24.09 3.8 7.05-2.57 15.23-4.55 21.64-8.45C64.22 57 66.83 41 80.37 37.48a.9.9 0 0 1 .16 0 1.51 1.51 0 0 1 .54 2.95c-8.51 2.16-12.74 10.65-17.57 17.21a32.37 32.37 0 0 1-15.65 11.78C41.06 72 34.05 74.91 27 76.73c-5.77 1.48-11.77 1.46-16.91-1.85C.59 68.75-2.57 54.93 3.38 45.3c7.44-12 23.62-14.74 36.48-16.17 14.05-1.55 28.21-.36 41.19 5.48z"/><path class="cls-1" d="M80.51 37.27v.18a.9.9 0 0 0-.16 0C66.83 41 64.22 57 53.16 63.7c-6.41 3.9-14.59 5.88-21.64 8.45-8.52 3.11-17.83 4.31-24.09-3.8-5.12-6.66-5.57-16.2-.45-23 5.49-7.21 14.49-10 23-11.69 16.42-3.28 34-3.5 49.51 3.47a1.54 1.54 0 0 0 1.02.14z"/><path class="cls-1" d="M78.35 35.83a123.28 123.28 0 0 1 25.46-24.3C113.42 4.61 118.45-2.1 130 .62 139.9 3 146.57 13.45 150.11 23c1.67 4.51-.64 9.66-2.83 13.94-3.06 6-4.48 5.09-11.09 6.32-11.19 2.1-17.19 4.29-28.54 3.31S85.67 41.9 75 37.94"/><path class="cls-1" d="M78.33 32a95.11 95.11 0 0 0-42.2 0C23.76 34.9 9.3 40.09 1.9 51l10.28 6C15.75 50.88 22.75 41.8 31 43.52l-1.44-10.88C18.87 37.69 5.11 42.23.94 54.58-3 66.14 5.83 76.68 17.21 78.2c12.06 1.61 25-5.26 34.87-11.62a100.5 100.5 0 0 0 26.55-25.34c4.53-6.19-5.8-12.14-10.28-6-9.93 13.55-24.54 25.08-40.74 30.06-3.84 1.19-8.32 2.11-12.08.15s-4.53-5.39-2.47-8.94c4-7.11 15.54-10.29 22.51-13.59C40.14 40.76 39 33.05 34.15 32 20 29.1 8.53 39.59 1.9 51c-3.88 6.7 6 12.3 10.28 6 5.7-8.39 19.47-11.89 28.82-13.85a81.07 81.07 0 0 1 34.15.34c7.47 1.66 10.66-9.82 3.17-11.48z"/></g></g></svg>