<svg xmlns="http://www.w3.org/2000/svg" viewBox="0 0 563.03 538.36"><g data-name="レイヤー 2"><g data-name="2"><path d="M509.7 251.86l-11.4-32.3a16.81 16.81 0 0 0-15.8-11.2h-38.8c-5.2-13.9-14-26.3-25.5-37.2-17.6-16.7-41.4-29.8-69-38.9s-59.4-14.3-93-14.3c-51.4 0-98 11.8-133 31.9-17.5 10.1-32.1 22.2-42.6 36.5a92.46 92.46 0 0 0-12 22H29.8a16.72 16.72 0 0 0-15.8 11.2l-11.6 32.3a41.62 41.62 0 0 0-2.4 14v3.3a11.71 11.71 0 0 0 11.7 11.7h20.8c14 0 25.5 9.7 31 19.6v120.9A76.63 76.63 0 0 0 68 447c5.1 14.3 14.2 27.1 25.9 38.2 17.6 16.7 41.4 29.8 69 38.9s59.4 14.3 93.1 14.3c51.4 0 98-11.8 133-31.9 17.5-10.1 32.1-22.2 42.6-36.5a86.88 86.88 0 0 0 12.4-23 76.19 76.19 0 0 0 4.5-25.6v-121c5.5-9.9 17-19.6 31-19.6h20.8a11.71 11.71 0 0 0 11.7-11.7v-3.3a41 41 0 0 0-2.3-13.94zm-90.9 169.4a47 47 0 0 1-2.7 15.6c-3.2 9-9.3 18-18.3 26.6-13.5 12.8-33.5 24.3-57.9 32.3s-53.1 12.8-83.7 12.8c-46.7 0-88.9-11-118.2-27.9-14.7-8.4-26.1-18.2-33.5-28.4A60.69 60.69 0 0 1 96.2 437a49.33 49.33 0 0 1-2.8-15.6V288.16c14.8 16.8 36.1 30.6 61.4 40.6 29.2 11.5 63.9 18.1 101.3 18.1 49.8 0 95-11.7 128.5-31.3 13.5-7.9 25.1-17.1 34.2-27.5v133.2zM139 266l32.1-8.4 11.8 19.2-35.5 8.9zm103.6 33.3a15.53 15.53 0 0 1-.3 3.1 35.43 35.43 0 0 1-17.9 4.6 36.71 36.71 0 0 1-16.4-3.7 17.53 17.53 0 1 1 34.6-4zm-16.3-50.2c-.4-.6 1-2.2 4-4.4 1.5-1.1 3.4-2.4 5.6-3.8l1.8-1.1.9-.6a6.72 6.72 0 0 1 1.2-.6 11.53 11.53 0 0 1 5.9-1 13.28 13.28 0 0 1 5.7 1.9c1.5 1 2.4 1.8 3.6 2.6 2.1 1.6 3.8 3.1 5.2 4.3 2.7 2.5 4 4.1 3.6 4.7s-1.2.5-3-.2l-31.6-1.8c-1.8.66-2.7.46-2.9-.04zm77.6 37.5l23.9 14.1-22.8 20.56-24.9-17.4zm-9.6-31.9a14.4 14.4 0 0 1 28.8 0 22.75 22.75 0 0 1-.2 2.6 29.11 29.11 0 0 1-14.7 3.8 29.43 29.43 0 0 1-13.4-3 14 14 0 0 1-.5-3.44zm54.1 36.3q-.6-.9 2.1-3.9c.9-1 2.1-2.1 3.5-3.4l1.1-1 .6-.5.9-.6a7.45 7.45 0 0 1 5-1 8 8 0 0 1 4.4 2.2c.8.8 1.5 1.5 2.1 2.2 1.3 1.4 2.3 2.7 3.1 3.7 1.6 2.2 2.1 3.6 1.7 4.1s-1.2.5-2.6-.2l-19.7-1.5c-1.2.46-1.9.36-2.2-.1zm70.4-42.1a55.27 55.27 0 0 1-4.3 10.8c-29.3-33.2-89.2-55.9-158.4-55.9S127 226.56 97.7 259.66a60.72 60.72 0 0 1-4.3-10.8v-14a44.3 44.3 0 0 1 2.8-15.6c3.2-9 9.3-18 18.3-26.6 13.5-12.8 33.5-24.3 57.9-32.3s53.1-12.8 83.7-12.8c46.7 0 88.8 11 118.1 27.9 14.7 8.4 26.1 18.2 33.5 28.4a60.69 60.69 0 0 1 8.3 15.3 46.56 46.56 0 0 1 2.7 15.6l.1 14.1z" fill="#e5cc61"/><path d="M526.4 14.76a4.4 4.4 0 0 1-1-.2c-18.7-3-32.4 4-41.2 13.9-4.7-12.4-15.1-23.7-33.6-27.5a4.4 4.4 0 0 1-1-.2 43.2 43.2 0 0 0-34.7 8.3c-10.3 8-17.2 20.6-20.1 36.4-5.7 31.1 15.8 54.6 36.5 77.3 8 8.8 16.3 17.9 23.1 27.3l.3.6a9.35 9.35 0 0 0 6.1 4.5h.6a9.1 9.1 0 0 0 7.2-2.1l.5-.4c9.8-6.5 20.8-12 31.3-17.4 27.4-13.9 55.8-28.3 61.4-59.4s-8.8-56.2-35.4-61.1z" fill="#de6a7c"/></g></g></svg>