<svg xmlns="http://www.w3.org/2000/svg" viewBox="0 0 274.11 442.4"><g data-name="レイヤー 2"><path d="M274 72.43a7.68 7.68 0 0 0-9-6.14l-1.09.2c-21.78 4.08-40.35 7.58-60.12 20.32 15.16-17 34.16-34.61 45.43-41.82a7.7 7.7 0 0 0-8.29-13c-10 6.42-25.43 20.14-39.61 34.92l23.34-48.06a7.7 7.7 0 0 0-13.85-6.73l-25.06 51.62C189 42.18 190.52 19.59 189.29 7A7.7 7.7 0 1 0 174 8.45c1.3 13.31-.82 39.16-4.78 61.56C167 46.59 158.24 29.83 148 10.18l-.51-1a7.7 7.7 0 1 0-13.64 7.13l.51 1c11.43 21.89 20.24 38.79 20 65.92a101.3 101.3 0 0 1 15.89 6.13l10 4.86a97.35 97.35 0 0 1 20.94 13.64c21.74-18 40.78-21.59 65.6-26.24l1.09-.21a7.68 7.68 0 0 0 6.12-8.98zM114.44 222.69L170.57 250l27.58-35c29.94-37.85 18.85-86.1-24.54-107.2l-10-4.86a77.62 77.62 0 0 0-33.92-8.17c-26.52 0-49.86 15.33-61.11 41.74l60 29.13a10.5 10.5 0 1 1-9.17 18.89L62.47 156.9l-23.12 96.36 41.33 20.07a10.5 10.5 0 0 1-4.6 19.95 10.39 10.39 0 0 1-4.57-1.06l-37.18-18.05L3.71 401.72c-6.42 26.76-4.22 40.68 4.4 40.68 6.51 0 16.67-7.92 29.53-24.2l35-44.31L35 355.62a10.5 10.5 0 0 1 9.18-18.89L86 357l71.26-90.2-52-25.24a10.5 10.5 0 0 1 9.18-18.89z" fill="#eb6100" data-name="レイヤー 1"/></g></svg>