<svg xmlns="http://www.w3.org/2000/svg" viewBox="0 0 288.55 410.26"><g data-name="レイヤー 2"><path d="M285.29 214.84c-.12-1.05-.23-2-.33-3-.43-3.82-.93-10.38-1.5-18-1.75-23-4.4-57.89-9.77-82.95a29.26 29.26 0 0 0-1-3.42C262.44 51 245.09 15.2 213.42 2.31c-10-4.07-24.77-4.06-26.44 10.87a43.12 43.12 0 0 1 10.85 8.15 49.22 49.22 0 0 1 13.77 31.14 53.9 53.9 0 0 1 13.43 34 21 21 0 0 1 8 6.18h-.12a2.16 2.16 0 0 1 .42.38l.47.64c4.68 6.53 6.94 16.27 6.7 28.94a104.3 104.3 0 0 1-1.22 13.82c6.27 27.77 14.42 67.5 17.1 85.36 2.12-17.11-7.69-99.5-7-107 .57-5.9 7.6-9.5 9.5-.63 7 32.49 9.27 83.68 11 99.42 2.16 19.44 9.45 74.11-6.76 120v.08q-.57 1.61-1.17 3.18c0 .07-.05.13-.07.19q-1.23 3.23-2.64 6.37c-.05.13-.11.26-.17.39-.46 1-.92 2-1.41 3v.05a99.55 99.55 0 0 1-26.44 34.28 41.22 41.22 0 0 1-12.75 6.6c24.39-25.89 32.23-76.82 31.63-102a4.75 4.75 0 0 0-4.75-4.63h-.11a4.76 4.76 0 0 0-4.64 4.86c.59 24.89-9.38 95.22-46.36 106.6-4.48.45-8.94.7-13.2.8.36-.31.74-.61 1.09-.93 23.21-20.95 38.11-50 44.27-86.39 4.95-29.21 3.32-56.52 2.24-74.6-.07-1.22-.14-2.4-.21-3.53-.17-3-.36-8.95-.58-15.82-.16-5-.31-9.67-.47-14 2.79-17.79 10.39-41-.46-50.35 6-17.74 7.91-56.37-12.35-53.21 3.52-11.66-2.44-29.25-12.35-38 .58-24.48-21.14-41.73-34.78-36.83-2.27-5.92-13.67-13.51-25-16.24C130.62.59 109.12 7 112 28.1c-22.64 2.06-32.47 48.24-21.7 69.54-21 1.16-17.71 38.57-5 52.93-11.9 18.91-10 41.64 1.9 55.1-4.21 25.25 13 38.69 20.62 45.9.28 11.1 4.08 27.25 11.91 43.2.33 11 6.65 18.14 11.8 28.06-.83 21-5.41 37.78-13.63 50.26-4.18-3.91-8.2-7.71-12-11.48-2.36-25.78 3.48-44.49 4.54-63.59l-.09-.82c-6.5-13.72-10.77-28.71-11.81-41.26-4.88-4.5-12-11.41-16.68-21.24a1.12 1.12 0 0 1-.1-.18 49.37 49.37 0 0 1-4.5-26.09 52 52 0 0 1-9.42-27.8 59.51 59.51 0 0 1 6.2-29.4 61.49 61.49 0 0 1-8.29-27.74v-.61c-.33-7 .54-13.73 2.84-19.25a25.36 25.36 0 0 1 9.6-11.82A73.16 73.16 0 0 1 76.66 70c.81-11.84 4-23.28 8.94-32.22C90 29.75 95.84 24 102.42 21a29 29 0 0 1 3.08-10.5C99 1.48 85.82-1 77.94 2.19 40 17.48 22.48 65.49 12.92 142.77 8.28 169.11 4.59 196.88 3.85 211c-.16 3.05-.57 7.4-1.06 12.45-1.88 19.7-4.73 49.49-.89 80.55 4.86 39.31 19.33 69.13 43 88.65 16.74 13.79 41.5 15.85 54.77 15.85a123.3 123.3 0 0 0 13.33-.7 15 15 0 0 0 4.74 1.49 98 98 0 0 0 13.79 1 85.84 85.84 0 0 0 23.72-3.2 133.77 133.77 0 0 0 21.58 1.51c16.73 0 47.28-2 63.94-15.69 25.72-21.06 41.23-53.73 46.11-97.1 3.8-33.65.12-65.61-1.59-80.97zM65 371.72c-21.1-22.2-33.4-54.55-31.33-82.42a4.75 4.75 0 1 0-9.48-.7C22 319 35.29 354.21 58.15 378.27a100.3 100.3 0 0 0 12.1 10.88A47.93 47.93 0 0 1 54.54 381C0 336 17.56 239 19 211.77c1.23-23.64 11.88-91.92 20.11-116.62 1.2-3.6 4.89-4.41 4.18 2.61-1.29 12.88-14.95 94.29-14.95 134.82 4.43-15.83 16.75-74.06 24.07-92.46 1.37-3.48 6.28-4.75 5.7 1.89-1 12-24.7 95.64-15.2 159 0 0 4.25-53.81 19-81.06 1.59-2.83 5.61-.48 5.06 3.16-26.11 96.73 2.69 125.57 41.17 161.61a15.13 15.13 0 0 0-3.38 8.54c-1.05 0-2.11.09-3.2.11-12.32-2.09-25.03-9.55-36.56-21.65zm77.78 22.55c26.37-26.08 30.58-82.88 27.68-109.63a4.75 4.75 0 0 0-9.45 1c2.64 24.28-1.17 93-35.19 109.24-2.08-.14-4.09-.35-6-.62 7-6.21 12.88-15.79 15.82-21.82 19-39.08 15.68-106.89-25-208.91-2.53-6.33 5.7-10.13 9.5-5.07 15.2 27.23 35 77.82 35 77.82-7.14-35.86-25.47-106.28-29.9-134.8-1.19-7.61 8.86-11.4 12-2.53 8.43 23.59 21.84 77.84 26 96.27 2.37-24.71-12.67-103.24-15.2-114s8.23-15.21 12.67-2.54 17.14 93.41 20.26 119.7c-1.08-18.14-3.13-83.55-3.8-103.23.63-7.6 10.47-5.91 11.4.63 1.9 13.3 6.56 114.93 8.66 137.36 1.41-16.44 2.89-71.2 3.32-78.89.37-6.62 6.39-6.54 8.29-.2 3 9.91 3.71 62.29 4.43 74.73 1.66 28.82 6.73 89.64-25.27 134.35a2.61 2.61 0 0 1-.22.27 112.81 112.81 0 0 1-8.88 10.87 113.91 113.91 0 0 0 8.39-23.2c6-23.92 7.24-55.17 3.44-88a4.75 4.75 0 0 0-9.44 1.09c3.67 31.72 2.53 61.76-3.21 84.59-5.35 21.25-14.24 35.85-26.49 43.59a66 66 0 0 1-8.77 1.93zm35.39 1.37z" fill="#abcd03" data-name="レイヤー 1"/></g></svg>