<svg xmlns="http://www.w3.org/2000/svg" viewBox="0 0 307.97 454.6"><defs><style>.cls-1{fill:#fcc800}</style></defs><g id="レイヤー_2" data-name="レイヤー 2"><g id="レイヤー_1-2" data-name="レイヤー 1"><path class="cls-1" d="M124.69 190.27v-20.2h-17.61a173.22 173.22 0 0 1 12.3 20.2zm28.88 79.92h-7q1.24 6.06 2.34 12.4 2.32-6.3 4.66-12.4zM124.69 12.8a63.69 63.69 0 0 0-7.63 10.61h7.63zm0 57.2h-22.58a6.76 6.76 0 0 1-1.19-.12q-1.47 7-2.77 14.77-.44 2.58-.83 5.54h27.37zm13.17-33.42h28.1v20.2h-28.1zm-13.17 86.95v-20.2H95.85c-.57 6.15-1.08 13-1.54 20.27a7.61 7.61 0 0 1 1-.07zm54.45 79.91v4.87c.75-1.67 1.49-3.3 2.22-4.87zm6.75-180.03a64.34 64.34 0 0 0-6.75-9.63v9.63zM137.86 136.7h28.1v20.2h-28.1zM166 23.41V3.29a33.55 33.55 0 0 0-28.11-.4v20.52zm-28.14 46.55h28.1v20.2h-28.1zm-13.17-33.38h-14a170.45 170.45 0 0 0-6.69 20.2h20.67zM179.14 70v20.15h26.49c-.27-2-.54-3.82-.83-5.54-.88-5.31-1.83-10.33-2.85-15.1a6.6 6.6 0 0 1-2.36.45zm0 66.7v20.2h28.27c1-1.18 1.9-2.16 2.72-3-.23-6-.49-11.82-.77-17.44a6.67 6.67 0 0 1-1.68.22zm0-13.17h28.54a7.61 7.61 0 0 1 1 .07c-.46-7.31-1-14.12-1.54-20.27h-28zm0-66.75h19.79a170.45 170.45 0 0 0-6.64-20.2h-13.15zm0 113.29v20.2h8.48c4.15-8.43 7.71-15 10.78-20.2zm-41.28-66.74h28.1v20.2h-28.1zm0 66.74h28.1v20.2h-28.1zM166 236.82h-27.89q2.92 9.6 5.48 20.19h15.1q3.69-9.31 7.31-18.01zm-28.14-33.38h28.1v20.2h-28.1zm-13.17-66.74H95.27a6.67 6.67 0 0 1-1.68-.22c-.28 5.51-.53 11.23-.76 17.11 1.12 1 2.25 2.13 3.39 3.31h28.47z"/><path class="cls-1" d="M307.48 245.26c-9.34-23.64-30-65.94-47.2-80.66-16.4-14.06-26.93-15.22-41-4.69a30.72 30.72 0 0 0-5.44 5.86c-.65.87-1.32 1.81-2 2.82a204.08 204.08 0 0 0-12.4 21.68q-3.09 6.09-6.43 13.17c-2.92 6.21-6 13-9.11 20.2-6 13.88-12.42 29.54-19 46.55-6.9 17.84-14 37.16-21.11 57.47a457 457 0 0 0-5.91-46.59 345.22 345.22 0 0 0-15.28-57.43c-2.68-7.29-5.5-14-8.4-20.2q-3.33-7.06-6.76-13.17a141.2 141.2 0 0 0-13.74-20.4q-2.49-3-4.94-5.54c-1.59-1.63-3.16-3.12-4.69-4.42-19.36-16.38-67.48-17-83.75 12.61-1.42 2.59 2.48 7.34 5.27 7 26.61-2.78 41.29 10.66 46.86 23.38 6.15 14.05 7.92 90.69 16.69 149.3 6.07 40.62 20.59 65.07 44.46 74.52 0 19.45.91 27.83 12.62 27.83h35.24c9.22 0 12.77-6.62 13.11-26 24.1-9.19 37.42-31.66 43-55.32 10.54-44.79 16.1-108.61 22.25-161.31a487 487 0 0 1 61.65 37.21c4.53 2.12 7.81.69 6.01-3.87z"/></g></g></svg>