<svg xmlns="http://www.w3.org/2000/svg" viewBox="0 0 245.47 423.75"><defs><style>.cls-1{fill:#5f67ae}</style></defs><g id="レイヤー_2" data-name="レイヤー 2"><g id="レイヤー_1-2" data-name="レイヤー 1"><path class="cls-1" d="M201.07 123.35a152.51 152.51 0 0 1-19.67 21.28 16.12 16.12 0 0 1-11 4.17c-7.46 0-14-4.34-16.38-10.79a116.74 116.74 0 0 1-5.38-23 48.85 48.85 0 0 1-22.54 5.12c-1.46 0-2.89-.05-4.29-.14-30 82.73-76.3 87.32-101.21 135.36-28 54-20 116-18 142s35.68 31.75 71.68 21.75 93.34-42.41 119.34-116.41C216 238.88 216.64 187 219 141.8c-7.71-4.93-13.5-11.69-17.93-18.45zM66.55 255.63a80.73 80.73 0 0 0-14.84 19.84C40 298 35.1 325.92 36.59 360.93a8 8 0 0 1-7.65 8.33h-.35a8 8 0 0 1-8-7.66c-1.59-37.86 3.92-68.45 16.91-93.5 4.35-8.38 9.78-15.68 17.63-23.68a8 8 0 1 1 11.42 11.21z"/><path class="cls-1" d="M110.59 101.68c40.71-28.72 33.56-81.56 79.19-68A58.33 58.33 0 0 0 185 5.59c-1.32-2.93.23-5 1.48-5.17a58.38 58.38 0 0 1 11.93-.21 4.82 4.82 0 0 1 4.11 3.15c6.11 14 2.76 33.35 2.76 33.35 14.5 3 27.5 11.5 27.5 33.5 0 21.13-7.38 38.57 12.41 62.06.82 1-.29 3-1.66 3-26.72-1-36.05-29.65-41.75-41.06-8.16 19-19.61 30.67-29.87 40.13-1.06 1-4.24.27-4.73-1.1-7.28-20.1-6.4-49-6.4-49-16.68 25.94-33.36 22.69-50 20.49-1.36-.21-1.42-2.18-.19-3.05z"/></g></g></svg>