<svg xmlns="http://www.w3.org/2000/svg" viewBox="0 0 28.22 24.18"><defs><style>.cls-1{fill:#aad86f}</style></defs><g id="レイヤー_2" data-name="レイヤー 2"><g id="レイヤー_2-2" data-name="レイヤー 2"><path class="cls-1" d="M11.89 5.62a7.34 7.34 0 0 1 3 .92c.64.32 1 .48 1.38.38a3.07 3.07 0 0 0 1.84-1.71.75.75 0 0 1 .53-.4c1-.23 3.5.85 4.53 1.62a4.67 4.67 0 0 0 3.05 1.1.61.61 0 0 0 .46-.36 2.76 2.76 0 0 0 0-.94A7.3 7.3 0 0 0 25 2.44c-3-4-8-2-11.1-1.5S9 .44 7 1.44s-1 2-2.09 4.29S0 6.44 0 10.44s2 2 2.68 4.54A5.65 5.65 0 0 1 2.85 16c-.64 1.9-.59 3.82 1.15 4.4a6.81 6.81 0 0 0 2 .39 3 3 0 0 0 1.33-1 2.13 2.13 0 0 0 0-2.21c-1.61-3.32-2-5.9-1-7.28A3.61 3.61 0 0 1 10 8.89c.53.18.64.1.64.1s.16-.16 0-1a3.09 3.09 0 0 0-.5-1.15c-.18-.28-.39-.6-.18-.95s.78-.34 1.93-.27zm15.84.59z"/><path class="cls-1" d="M26.21 10.21a5.83 5.83 0 0 0 0-1.67 6.09 6.09 0 0 1-3.61-1.3A9.48 9.48 0 0 0 19 5.77a3.86 3.86 0 0 1-2.41 2.11 2.82 2.82 0 0 1-2.09-.45 6.1 6.1 0 0 0-2.66-.81h-.63a3.58 3.58 0 0 1 .49 1.29 2 2 0 0 1-.36 1.87 1.68 1.68 0 0 1-1.6.09A2.59 2.59 0 0 0 7.11 11c-.73 1-.33 3.37 1.07 6.26a3 3 0 0 1 0 3.21 3.85 3.85 0 0 1-1.69 1.23 2.71 2.71 0 0 0 .51.74c1 1 2 0 4 1 1.62.81 4.53.95 7.18.46-2.4-.15-6.52-.75-8.55-3a.48.48 0 0 1 0-.7.49.49 0 0 1 .7 0c2.21 2.46 7.58 2.71 9.17 2.72a18.65 18.65 0 0 0-.16-3.29c-1.42-.56-7.64-3.3-9.47-8.54a.51.51 0 0 1 .31-.64.5.5 0 0 1 .63.31c1.49 4.26 6.38 6.82 8.34 7.7a16.82 16.82 0 0 0-4.5-8.66.5.5 0 0 1 0-.71.48.48 0 0 1 .7 0 17.34 17.34 0 0 1 4.46 7.65c.19-.72.41-1.63.61-2.68a.19.19 0 0 1 0-.08c-.1-1.31-.68-4.87-2.11-5.59a.5.5 0 0 1-.23-.67.49.49 0 0 1 .67-.22c1.1.54 1.75 2 2.14 3.4C21 10 21 9 21 7.94a.5.5 0 0 1 1 0 34.89 34.89 0 0 1-1.73 10.76 18.16 18.16 0 0 1 .25 4.53c2.93-1.35 6.54-5.9 7.48-7.79s-1.79-5.23-1.79-5.23z"/></g></g></svg>