<svg xmlns="http://www.w3.org/2000/svg" viewBox="0 0 388.9 324.81"><defs><style>.cls-1{fill:#f6ab00}</style></defs><g id="レイヤー_2" data-name="レイヤー 2"><g id="レイヤー_1-2" data-name="レイヤー 1"><path class="cls-1" d="M150.41 210.9c29.24 24.75 29.24-24.75 13.5-27s-25.65 16.72-13.5 27zM170 92c-16.5-13.5-28.5 6-43.49 15s6.31 44.32 15 55.49c10.5 13.5 27-4.5 33-18S186.5 105.53 170 92zm36 81c19.5-6 52.5-30 51-45s-27-19.5-36-19.5-32.07 31.8-36 49.49c-3 13.53 1.5 21.01 21 15.01zm63-7.48c-12-9-45.3 15-60 25.5-10.5 7.5 10.5 24 24 30s31.5 10.5 45-7.5 3-39-9-48zM215 233c-12-9-27-7.5-27 9s7.5 36 18 36 18-4.5 24-12c6.63-8.26-3-24-15-33zm-76.5 24c-4.5 15-4.41 21.05 6 27s16.5 4.5 27-1.5-1.5-28.5-7.5-42-21 1.5-25.5 16.5zM101 194c17.91-1.7 28.49-12 15-25.5-9-13.49-30-39-40.5-34.49s-27 22.5-22.5 34.49S69.51 197 101 194zm3 16.52c-18 0-30 1.5-33 12s9 27 18 25.5 12-9 19.5-19.5 3.01-16.52-4.5-18zM119 236c-7.5 4.5-21.13 25.69-12 31.5 16.5 10.5 18.58-1.74 21-9 6-17.98-1.5-26.98-9-22.5z"/><path class="cls-1" d="M290.44 0C254.35 0 176.19 13.7 101 50.76a127.68 127.68 0 0 0-33.33 18.57C33.53 96-9.2 168.74 1.75 214.55c9.22 38.62 29.46 67.75 60.17 86.6 25.59 15.7 57.33 23.66 94.33 23.66 52.88 0 100.56-16.12 127.56-31.21a91.15 91.15 0 0 0 22.71-17.82 1.43 1.43 0 0 1-.08.22c56-52 77.78-104.14 82-152 6-68-48-124-98-124zm17.44 225.29c-4.54 22.22-16.25 38.74-34.8 49.11-23.46 13.1-68.12 28.41-116.83 28.41-50.55 0-114.68-16.2-133.11-93.36-8.45-35.39 29.66-100.58 58.08-122.78 25.69-20.07 57.66-24.28 80-24.28 46.92 0 97 19.06 116.56 44.34 20.81 26.97 38.45 77.69 30.1 118.56z"/></g></g></svg>