<svg xmlns="http://www.w3.org/2000/svg" viewBox="0 0 338.45 340.01"><defs><style>.cls-1{fill:#f6ab00}</style></defs><g id="レイヤー_2" data-name="レイヤー 2"><g id="レイヤー_1-2" data-name="レイヤー 1"><path class="cls-1" d="M189.46 339.89c12-19.31 20.18-48.75 23.17-83.23 3.83-44.14-1-89.59-12.92-121.58C194 119.69 190.61 106.25 189 92c13.69 17.64 32.62 31.45 48 42.66 4.48 3.27 8.71 6.36 12.43 9.26 28.89 22.54 41.93 54.65 36.73 90.43-6.25 43.05-38 82.95-82.79 104.17-4.48.56-9.13 1-13.84 1.35zm-66.68-3.24c-38.09-6.87-69.65-22.76-91.48-46.11C11.12 268.94 0 241.57 0 213.47 0 147 53.76 110.7 108 83.94 146.4 65 142.09 8.47 141.81 0h8.09c-1.31 68.72-14.22 84.15-42.35 117.75-3.51 4.2-7.14 8.53-11.12 13.4-30.73 37.65-42.25 83.28-31.59 125.18C73 288.28 93 316 122.78 336.65z"/><path class="cls-1" d="M254.91 325.5a166.16 166.16 0 0 0 16-16.7c17.91-21.56 29.33-46.4 33-71.84 6.08-41.84-9.77-80.92-43.48-107.21-3.92-3-8.23-6.21-12.81-9.55l-.08-.06c-26.4-19.27-59.26-43.26-59.26-78.92a8.72 8.72 0 0 0-.15-1.59l.15-4.71c.34-10.26.72-21.85.89-34.92h7.47c-.28 8.47-4.59 65 33.85 83.94 54.2 26.76 108 63.08 108 129.53 0 48.57-31.86 91.06-83.54 112zm-88.1 14.5c-44.72-18.29-74.74-49.58-84.53-88.1-9.23-36.32 1-76.18 28.09-109.36 3.82-4.68 7.4-8.95 10.85-13.08l.13-.15C150.35 94.65 164.46 75.51 166 0h7.38c-.18 12.83-.55 24.24-.88 34.33-1.38 42.05-4.38 67.44 10.37 107 10.87 29.17 15.41 72.75 11.86 113.75-3.38 38.93-13.78 70.57-27.88 84.9z"/></g></g></svg>