<svg xmlns="http://www.w3.org/2000/svg" viewBox="0 0 390.99 292.74"><defs><style>.cls-1{fill:#ba9041}</style></defs><g id="レイヤー_2" data-name="レイヤー 2"><g id="レイヤー_1-2" data-name="レイヤー 1"><path class="cls-1" d="M91.62 140.34a9.26 9.26 0 1 1 13-13.15c5.84 5.79 8.78 4.71 14.62 2.56a38.52 38.52 0 0 1 6.19-1.87 10 10 0 0 1 1.88-.15 173.36 173.36 0 0 1 16.16-21.13c8.24-9 20.48-16.94 34.32-22.93-3.82-3-9.93-5.66-13.1-4.79A9.26 9.26 0 0 1 159.82 61c13.05-3.6 30.16 5.58 36.68 16a125 125 0 0 1 32.92-4.78c1.36 0 2.71 0 4 .09.17-1 .33-2.07.46-3.08 2.92-22.08-5.3-49.46-23.66-55.2-28.73-9-52-13.43-73.27-14-1.52-.03-3.1-.03-4.65-.03C75.31 0 30.08 29.59 24.76 70.37c-1.59 12.19-6.61 24-11.91 36.54C4.35 127-4.44 147.72 2.52 169c11.37 34.74 48.88 46 65.26 46A209.17 209.17 0 0 0 95 213.64c2.14-23.14 10.11-45.22 19.5-63.72-.63.05-1.29.08-2 .08-6.12 0-13.31-2.17-20.88-9.66zm44.67-115.88a55.21 55.21 0 0 1 5.54-2.36c2.61-1 8.64-3.36 10.13-5.07a9.26 9.26 0 0 1 17.56 5.88c-2.93 9.44-13.8 13.66-21 16.45-1.4.54-3 1.16-3.6 1.49a9.26 9.26 0 0 1-8.64-16.39zM45.92 183a9.4 9.4 0 0 1-3 .51 9.25 9.25 0 0 1-8.74-6.23c-.51-1.47-4.62-4.16-16.5-3.88a9.26 9.26 0 0 1-.46-18.51c23.61-.6 31.76 8.55 34.46 16.33A9.26 9.26 0 0 1 45.92 183zM57.57 80.28a9.26 9.26 0 1 1 7.64-16.87c6.35 2.87 10.64 1.75 15.31-4a9.26 9.26 0 1 1 14.39 11.65c-6.65 8.21-14.76 12.4-23.6 12.4a33.31 33.31 0 0 1-13.74-3.18z"/><path class="cls-1" d="M371.22 111.92c-7.73-15.62-38.13-27.29-60.15-27.29a44.3 44.3 0 0 0-9.15.84c-5.51 1.18-10.39 2.41-15.11 3.6-12.12 3.06-23.57 6-39.45 6-4 0-8-.18-12.41-.53-1.76-.15-3.63-.22-5.53-.22-25.09 0-55.71 12-69.7 27.2-16.72 18.23-42.14 60.27-43.31 101.18-.81 28.07 14.87 47.49 47.93 59.37 15.65 5.62 30.92 10.67 45.76 10.67a47.44 47.44 0 0 0 24-5.94c16.9-9.56 33.42-11.79 49.39-13.95 14.88-2 28.93-3.9 43.7-11.5 17.44-9 47.12-42.14 59.93-67 8.43-16.29 3.07-44.04-15.9-82.43zM147.29 234.46a10 10 0 1 1-10.46-17c1.43-.88 3.32-5.83.24-18.27a10 10 0 0 1 19.38-4.81c6.12 24.71-1.6 35.43-9.16 40.08zm52.46-78.36a10 10 0 0 1 9.62-10.33c7.51-.27 11.12-3.41 12.87-11.22a10 10 0 0 1 19.49 4.37c-3.74 16.69-15 26.21-31.65 26.8h-.36a10 10 0 0 1-9.97-9.62zm47.78 96.11a10 10 0 0 1-13.26 4.86 29.32 29.32 0 0 0-3.45-1.06c-7.69-2.09-22-6-25.7-27.22a10 10 0 0 1 19.68-3.44c1.52 8.74 4.77 9.63 11.25 11.39a40.78 40.78 0 0 1 6.61 2.22 10 10 0 0 1 4.87 13.25zm72.8-71.1c-4.88.83-12.2 11-12.09 15.49a10 10 0 0 1-9.72 10.24h-.26a10 10 0 0 1-10-9.73c-.35-13.52 13.1-33 28.72-35.69a10 10 0 1 1 3.33 19.69zm14.14-61.77a18.38 18.38 0 0 1-7.94 1.7c-7.43 0-14.95-3.73-20.42-6.44-1.45-.72-3.09-1.53-3.8-1.78A10 10 0 0 1 309.06 94a60.58 60.58 0 0 1 5.94 2.71c2.68 1.33 8.84 4.38 11.33 4.38h.07a10 10 0 0 1 8.09 18.25z"/></g></g></svg>