<svg xmlns="http://www.w3.org/2000/svg" viewBox="0 0 368.74 280.45"><defs><style>.cls-1{fill:#00a95f}</style></defs><g id="レイヤー_2" data-name="レイヤー 2"><g id="レイヤー_1-2" data-name="レイヤー 1"><path class="cls-1" d="M283.34 273.48a1 1 0 0 1-.71-1.7c2.09-2.1 4.14-4.35 6.1-6.68 13.71-16.31 30.89-46.33 34.82-96.73 3.21-41-1.38-70.86-14-91.32s-31.41-27.76-44.47-31.53a82.13 82.13 0 0 0-15-2.82 1 1 0 0 1-.9-.9 17 17 0 0 0-.44-2.65c-.06-.23-.13-.45-.2-.68v-.11a1 1 0 0 1 .95-1.29h.06c44.68 2.58 75.7 13.36 94.85 33 17.1 17.5 25.05 42.66 24.3 76.92-.68 31-6.59 55.68-18.07 75.33-13.9 23.81-35.81 40.54-67 51.15a.93.93 0 0 1-.32.05z"/><path class="cls-1" d="M234.32 278.8c-2.29 0-4.32 0-6.21-.09a1 1 0 0 1-.74-1.64c7.41-8.92 13.39-20.93 17.77-35.71 10.17-34.32 11.48-82 11.48-119.74 0-27.11-4.07-47.1-12.43-61.13a1 1 0 0 1 0-1 1 1 0 0 1 .86-.49 66.68 66.68 0 0 1 15.35 2.49c27.84 8 52.75 26.4 46.56 105.61-3.6 46-18.83 72.89-31 87.34-15.11 18-31.45 24.38-41.7 24.38zM85.4 273.48a.93.93 0 0 1-.32-.05c-31.15-10.61-53.06-27.34-67-51.15C6.64 202.63.73 178 .05 147c-.75-34.31 7.2-59.47 24.3-77C43.5 50.44 74.52 39.66 119.2 37.08a1 1 0 0 1 .79.37 1 1 0 0 1 .17.91v.18l-.18.62a16.72 16.72 0 0 0-.44 2.64 1 1 0 0 1-.9.9 82.13 82.13 0 0 0-15 2.82c-13.01 3.77-31.82 11.14-44.42 31.53s-17.23 50.33-14 91.32C49.13 218.78 66.3 248.8 80 265.1c1.95 2.32 4 4.57 6.1 6.68a1 1 0 0 1-.71 1.7z"/><path class="cls-1" d="M134.42 278.8c-10.25 0-26.59-6.41-41.7-24.38-12.15-14.45-27.38-41.33-31-87.34-6.17-79.21 18.74-97.57 46.58-105.61A66.68 66.68 0 0 1 123.65 59a1 1 0 0 1 .86.49 1 1 0 0 1 0 1c-8.36 14-12.43 34-12.43 61.13 0 37.72 1.31 85.41 11.48 119.74 4.38 14.78 10.36 26.8 17.77 35.71a1 1 0 0 1-.73 1.64c-1.92.06-3.95.09-6.22.09z"/><path class="cls-1" d="M184.37 280.45c-39.52 0-55.64-46-55.64-158.83 0-26.43 3.91-44.6 12-55.57a1 1 0 0 1 .81-.4.84.84 0 0 1 .31 0c13.35 4.43 29.75 5 42.55 5s29.2-.57 42.55-5a.84.84 0 0 1 .31 0 1 1 0 0 1 .81.4c8.06 11 12 29.14 12 55.57 0 112.81-16.12 158.83-55.64 158.83zm0-226.36c-15.92 0-38.22-1-48-9.9a1 1 0 0 1-.29-1 1 1 0 0 1 .72-.72c16-4 26.81-12.48 26.81-17.87V1a1 1 0 0 1 1-1h39.5a1 1 0 0 1 1 1v23.61c0 5.39 10.77 13.86 26.81 17.87a1 1 0 0 1 .72.72 1 1 0 0 1-.29 1c-9.77 8.88-32.07 9.9-48 9.9z"/></g></g></svg>