<svg xmlns="http://www.w3.org/2000/svg" viewBox="0 0 310.61 427.07"><defs><style>.cls-1{fill:#00a95f}</style></defs><g id="レイヤー_2" data-name="レイヤー 2"><g id="レイヤー_1-2" data-name="レイヤー 1"><path class="cls-1" d="M227.28 288.41c1.16-5.8 2.37-11.87 3.62-18.09a57.49 57.49 0 0 0 9.59-18.11 6.1 6.1 0 0 0 2.08-1.05c16.33-12.79 29-26.75 38.74-42.68a6 6 0 0 0-2-8.25 6 6 0 0 0-8.25 2 138.92 138.92 0 0 1-21.94 27.33c12.75-16.41 18.88-32.9 17-46.31-.38-2.69-1-6.4-1.86-11 19.47-9.83 28.82-23.43 35-32.46l1.35-2a6 6 0 0 0-9.85-6.85l-1.39 2c-3.67 5.33-8.14 11.84-15 18 2.86-10.76 3.26-23.55 1.22-39-.21-1.56-.41-3.09-.62-4.6 10.28-12.21 13.34-21.61 16.31-30.71l.09-.28c.34-1 .68-2.09 1-3.14A6 6 0 0 0 281 69.43c-.37 1.09-.72 2.17-1.07 3.25l-.1.29c-1.88 5.76-3.66 11.23-7.38 17.43-4.3-27.38-8.7-43.73-14.94-55.57l1.75-.78a33.35 33.35 0 0 1 13.53-3.13c9 0 16.1 4.65 20.49 13.44 7.63 15.26 20.89 55.5 16.43 98.59-.19 1.79-.36 3.76-.55 5.88-2 21.9-5.62 62.67-38.64 93.51a1 1 0 0 0-.16 1.26c3.89 6.18.16 23.74-11.8 33.7-11.78 9.82-18.69 14.08-32.54 17.41zM182.24 379c3.74-8 6.18-18 7.75-31.45.19-.42.39-.85.57-1.28 2.85-6.63 7.4-28.7 11.84-50.84a98.52 98.52 0 0 0 15.73-12.28l-.65 3.25c-6.27 31.47-11.22 56.29-14.95 65a76.46 76.46 0 0 1-20.29 27.6zm-90.43-85c-10.51-3.45-16.76-7.91-25.26-14-2.09-1.49-4.31-3.08-6.77-4.77-6.78-4.68-12.31-13.2-13.46-20.73-.54-3.54 0-6.42 1.45-8.32a1 1 0 0 0-.15-1.38c-.11-.09-10.51-8.67-15.73-13.49-14.73-13.59-17.47-34.13-12.83-41.74a1 1 0 0 0 .11-.8 1 1 0 0 0-.52-.62C7.72 182.83 3 157.8.88 137.74c-5.08-49.14 13.24-79.16 19-87.19a42.35 42.35 0 0 1 32.84-17.19 19.85 19.85 0 0 1 5.47.67c9.83 2.89 17.12 7.63 25 16.28a188.81 188.81 0 0 0-14.1 45.61c-1.59 9.24-2.41 24.68-2.18 40.76-13.15-13.23-23.5-29.44-29.17-38.32-1.2-1.88-2.15-3.36-2.87-4.4a6 6 0 1 0-9.87 6.81c.59.85 1.48 2.24 2.6 4 7 11 21.5 33.64 39.94 48.69A212.62 212.62 0 0 0 71 182.28c-18.9-15.11-38-33.92-41-38.37a6 6 0 0 0-9.88 6.81c4.93 7.15 32.74 33.92 55 49.67a82.24 82.24 0 0 0 .28 22.89c-7.39-5.53-16.58-12.94-20.12-18.82a6 6 0 0 0-10.29 6.19c5.32 8.82 17.21 18.22 34.68 30.53a4.87 4.87 0 0 0 .59.36 61.1 61.1 0 0 0 4.62 9.34c.63 4.19 1.19 8.11 1.74 11.95 1.23 8.65 2.4 16.82 4.13 25.55z"/><path class="cls-1" d="M192.78 284.81q.12-10.38.21-22.11c1.2-1.42 2.4-2.89 3.63-4.41 4.13-5.13 8.56-15.89 11.14-23.65 18.76-20.16 27.66-39.09 30-44.43a6 6 0 1 0-11-4.72 135.88 135.88 0 0 1-14.47 24.85 30 30 0 0 0-.39-4 126.57 126.57 0 0 0 14.31-52.43c13.32-14.68 18.66-32.08 21.86-42.5.24-.79.47-1.53.69-2.24a6 6 0 0 0-3.94-7.51 5.71 5.71 0 0 0-1.78-.28 6 6 0 0 0-5.73 4.21c-.23.72-.46 1.49-.71 2.29-2 6.64-5 16.37-10.61 26A228.83 228.83 0 0 0 219.32 95c10.76-16.32 13.31-31 15.18-41.8l.36-2.08a6 6 0 0 0-4.86-7 6.2 6.2 0 0 0-1.05-.09 6 6 0 0 0-5.9 5l-.37 2.11c-1.33 7.65-3 17-7.77 27.29-6.46-22.77-13.32-40.51-20.91-54.14a42 42 0 0 1 18.24-4.09c8.92 0 16.32 2.71 19.68 5.4 14.9 11.89 21.64 27 29.74 88.24 4.26 32.19-4.06 44.52-12.19 53.56a1 1 0 0 0-.24.86c0 .11 2.12 10.83 3 17 1.36 9.52-4.54 27.92-25.6 48.48a1 1 0 0 0-.16 1.23c5.59 9.17-4 24.56-9 29.44-10.74 10.58-17.12 16.29-24.73 20.45zm-56.33 95.49c-8.54-7.06-16.06-17.35-21-28.88-3.73-8.71-8.68-33.55-15-65-1.29-6.49-2.24-12.53-3.17-18.93a102.14 102.14 0 0 0 15.75 15.41l.19 1c5.63 28.25 11 54.95 14.15 62.41.19.44.38.87.58 1.3 1.66 14.05 4.32 24.38 8.45 32.71zm21.73 46.77c-3.46 0-6.79-.39-8.58-.58-.89-.09-1.33-.14-1.58-.14-1.12 0-2.81-1.57-2.91-4-.08-2.3-1-17.71-1.46-25.81a38.46 38.46 0 0 0 15.35 3.38 37.85 37.85 0 0 0 13.68-2.72c-.5 7.52-1.26 19.81-1.56 25.74-.08 1.67-1 3.46-2.39 3.49-1.13 0-2.49.15-3.92.28-2 .17-4.22.36-6.35.36z"/><path class="cls-1" d="M157.69 277c-.4-12.29-.89-27.43-1.36-42.64a5.61 5.61 0 0 0 .94-.77c18.52-19.19 37.07-45.06 40.53-53.14a6 6 0 1 0-11-4.72c-2.38 5.55-15.74 24.68-31 41.76-.48-16.3-.82-29.12-1-38.14.16-.14.32-.28.46-.43 19.34-20 41.24-52.77 44.53-60.47a6 6 0 1 0-11-4.72c-2.18 5.09-18.3 29.5-34.1 48 .13-6.47.47-16 .86-26.86.09-2.65.18-5.17.27-7.61l.43-.54a23.63 23.63 0 0 0 1.76-2.38c15.16-25 19.83-43.71 22.21-57.18a6 6 0 0 0-4.87-7 6.18 6.18 0 0 0-1-.09 6 6 0 0 0-5.91 5 137.29 137.29 0 0 1-11.78 36.68C157.67 61 156.47 57.51 153 54a9.27 9.27 0 0 0-6.75-2.89h-.11c-5.22.06-8.67 3.65-10.24 10.66-.57 2.55-1.12 6-1.69 10.59-.94 7.6-1.92 18.43-2.83 31.3-.42 5.92-.81 12.1-1.17 18.42a201.25 201.25 0 0 1-14-33c-.92-2.73-1.64-4.89-2.4-6.65a6 6 0 0 0-5.51-3.64 6.06 6.06 0 0 0-2.37.49 6 6 0 0 0-3.15 7.88c.57 1.31 1.23 3.27 2.06 5.75 3.29 9.74 8.78 26 23.18 49.37.32.51.73 1.16 1.15 1.81-.35 8.38-.54 15.25-.54 19.37 0 2.35 0 5.87-.13 10.71-14.91-17.68-27.12-38.53-29.36-43.74a6 6 0 1 0-11 4.73c3.19 7.45 20.07 35.83 39.19 55.64a6.19 6.19 0 0 0 .81.68c-.21 8.44-.45 18-.71 28-7.45-9-13-17.92-15.46-24.73a6 6 0 1 0-11.3 4c3.79 10.63 13 24.09 25.12 36.94a5.78 5.78 0 0 0 1.18.95c-.32 12.43-.69 26.49-1 38.41-12.15-8.41-18.92-17.46-27.41-28.79-7.88-10.52-13.19-32.15-8.43-50.14a1 1 0 0 0-.12-.78c-10-16.25-10.9-75-7.11-97 7.59-44.1 31.49-75 40.49-86.59C129.25 4.16 137 0 145.17 0c7.47 0 14.81 3.39 20.65 9.54 11.59 12.2 25.19 30.12 39.86 88.7 7.49 29.91 13.25 69-8.92 106.32a1 1 0 0 0 .06 1.11c5.59 7.45-6.43 38-11.12 43.82-10.59 13.15-19.3 22-28 28.52zm15.42 97.84a16.6 16.6 0 0 0-2.92-3.57c-2.54-2.34-4.44-5.6-6-10.23 4-14.69 5.06-37.63 5.53-74.64a145.13 145.13 0 0 0 13.15-12.32c-.53 56.12-1.73 83.64-9.78 100.76z"/><path class="cls-1" d="M159 389.92a6.49 6.49 0 0 1-4.41-1.73c-14.94-13.78-17.94-36.79-19-83.16-.19-8 .72-42.48 1.59-75.79.76-28.93 1.48-56.26 1.48-65.84 0-20.73 4.09-92 7.58-101.54 1.69 7.27.23 47.76-.66 72.56-.49 13.68-.92 25.49-.92 31.65 0 15.79 1.85 73.23 3.07 111.24.46 14.27.82 25.55.93 29.8 1 40.14 3.48 61.08 14.79 71.51a6.51 6.51 0 0 1-4.42 11.3z"/></g></g></svg>