<svg xmlns="http://www.w3.org/2000/svg" viewBox="0 0 350.71 388.68"><defs><style>.cls-1{fill:#00a95f}</style></defs><g id="レイヤー_2" data-name="レイヤー 2"><g id="レイヤー_1-2" data-name="レイヤー 1"><path class="cls-1" d="M66.61 105.41c-1.29 0-4.59-.83-12.18-5.68a31.76 31.76 0 0 0-17.39-5 45.54 45.54 0 0 0-20 5 1 1 0 0 1-1.27-.34c-4.92-7.34-6.52-14.89-4.16-19.69 1.39-2.85 4.07-4.41 7.76-4.51 16.41-.46 22.76-6.63 22.67-22C42 44.44 44.43 37.07 49 32.51a17.1 17.1 0 0 1 12.41-5.06 24.05 24.05 0 0 1 8.3 1.55 38.14 38.14 0 0 0 13.05 2.54c9.84 0 17.28-5 19.92-13.26 3.64-11.49 10.74-13.9 16.06-13.9 6.64 0 14.39 3.85 20.21 10a9.57 9.57 0 0 0 7.22 3.36 19.53 19.53 0 0 0 5.44-1 1.26 1.26 0 0 1 .28 0 1 1 0 0 1 .89 1.46c-2.35 4.64-3.47 10.43-3.42 17.7a1 1 0 0 1-.39.8 1 1 0 0 1-.61.2 1.09 1.09 0 0 1-.26 0 39.32 39.32 0 0 0-10.49-1.39 46.64 46.64 0 0 0-33.2 14.25 35.63 35.63 0 0 0-9.89 20.44 1 1 0 0 1-.52.8c-7 4-12.93 10.56-17.24 19.1-4.6 9.11-8.06 14.54-9.74 15.28a1.1 1.1 0 0 1-.4.08zm227.57-3.19a1 1 0 0 1-.7-.29 1 1 0 0 1-.24-1.06l.05-.12a31.63 31.63 0 0 0-4-29.37 37 37 0 0 0-30.39-15.54 40.53 40.53 0 0 0-10.9 1.5 23.55 23.55 0 0 1-6.12 1h-.69a1 1 0 0 1-.79-.45C239.16 56 238 52 236.84 47.7c-.26-.91-.51-1.83-.78-2.76a29 29 0 0 0-28.28-21 26.81 26.81 0 0 0-24.53 15 13.36 13.36 0 0 1-11.92 7.82 16.44 16.44 0 0 1-5.91-1.2 1 1 0 0 1-.57-.59c-1.24-3.36-2.2-6.35-2.88-8.89a1 1 0 0 1 0-.24c-.05-7.1 1.22-11.86 3.88-14.55 2.17-2.19 5.27-3.13 10.37-3.13 1.68 0 3.38.09 5.19.19 2 .1 3.83.2 5.67.2 6.64 0 14-1.16 18.55-9.71 3-5.64 8.12-8.88 14.08-8.88 6.7 0 15.57 4.47 20.37 17 2.91 7.58 10 12.11 19 12.11a36.67 36.67 0 0 0 14.54-3.35 23.48 23.48 0 0 1 9.38-2.06c11.17 0 18.89 9.69 19.68 24.68C303.42 63 309.79 69 324.62 69h2.25c3.49 0 6.56 1.85 8.67 5.22 3.56 5.67 3.8 14.37.61 22.17a1 1 0 0 1-.92.62 1 1 0 0 1-.34-.06A45.11 45.11 0 0 0 320 94.16a33.49 33.49 0 0 0-15 3.36c-2.63 1.28-6.57 3.17-10.5 4.63a.84.84 0 0 1-.35.07z"/><path class="cls-1" d="M203.85 104.79a1 1 0 0 1-.79-.39c-7.38-9.52-20.1-19.69-33.63-19.69a21.73 21.73 0 0 0-18.11 9.16 54.22 54.22 0 0 1-4.84 6 1 1 0 0 1-.72.3h-.09a1 1 0 0 1-.74-.44 52.87 52.87 0 0 1-4.29-8.2c-6.66-15.32-18-24.29-31-24.6a1 1 0 0 1-.82-.47 1 1 0 0 1-.07-.94c4.53-10.08 16.68-17.39 28.89-17.39a25 25 0 0 1 14.73 4.52c6.23 4.48 12.62 6.76 19 6.76a25.76 25.76 0 0 0 23.26-15c2.37-4.94 7.3-7.89 13.19-7.89A16.59 16.59 0 0 1 224 48.4l.75 2.67c2.81 10 5.23 18.74 15.11 19.79a1 1 0 0 1 .08 2c-12.4 2.33-23.59 10.86-30.7 23.42-1 1.82-2 3.61-3 5.35l-1.49 2.67a1 1 0 0 1-.79.5zm76-6.18a1 1 0 0 1-.89-.72c-.11-.39-.23-.81-.34-1.24a31.86 31.86 0 0 0-30.17-24.44 1 1 0 0 1-.17-2c1-.21 2.06-.47 3.15-.78a28.27 28.27 0 0 1 7.51-1A24.36 24.36 0 0 1 279 78.57a19.26 19.26 0 0 1 2.49 17.83c-.16.43-.4 1-.7 1.63a1 1 0 0 1-.91.58z"/><path class="cls-1" d="M187.74 384.83a44.1 44.1 0 0 1-6.82-.51 1 1 0 0 1-.68-.43 1 1 0 0 1-.14-.78c1.63-7 3.19-16.11 5-26.61 3.62-20.9 8.11-46.91 14.55-63.68 1.8-4.68 3.56-9.45 5.27-14.06l.19-.53c7.85-21.25 16-43.21 25.89-52 10.36-9.2 13.74-23.87 8.61-37.37-5.31-14-18.17-22.65-33.56-22.65-.72 0-1.46 0-2.18.06h-.8a10.38 10.38 0 0 1-1.09-.05 1 1 0 0 1-.89-.86c-.36-2.68.41-12.86 8.24-27.59 2.86-5.37 3.39-11.73 1.55-18.41a1 1 0 0 1 .11-.79c2-3.24 4-6.8 6.07-10.57l.17-.3q1.41-2.55 2.92-5.22c6.28-11.08 16.29-17.7 26.77-17.7 9.66 0 17.12 5.75 19.47 15 3 11.65 8.94 17.32 18.26 17.32 6.38 0 14.13-2.47 25.93-8.26a21.06 21.06 0 0 1 9.39-2.07c13.62 0 29 11.17 30.62 19.5.58 3.1-.89 5.37-4.39 6.74-15.56 6.09-52 20.37-39.27 79.51 7.79 36.21 4.42 70.68-9.73 99.69a131.78 131.78 0 0 1-47.74 53 1 1 0 0 1-1.25-1.54c23.07-24 38.51-52.5 43.46-80.3v-.24c3.6-20.4 1-40.37-1.58-59.68-3.38-25.63-6.57-49.83 6.3-70.27a7 7 0 0 0-11.89-7.49c-12.91 20.5-12.52 43.22-10.19 64.71a1 1 0 0 1-.77 1.09h-.22a1 1 0 0 1-.95-.67 110.06 110.06 0 0 1-6.26-43.92 7 7 0 0 0-6.62-7.4h-.38a7 7 0 0 0-7 6.63c-1.6 28.86 6.11 47.87 13.56 66.26 6.13 15.13 11.93 29.41 12.07 48.85a1.1 1.1 0 0 1 0 .18c-3.11 17-10.2 33.77-21.06 49.76a1 1 0 0 1-.83.44.9.9 0 0 1-.28 0 1 1 0 0 1-.72-.93c-1-33.72-7-71.06-7.29-72.63a7 7 0 0 0-6.93-5.9 7 7 0 0 0-6.94 8.15c.08.53 8.7 54.88 7 89.73v.71a1 1 0 0 1-.26.74 204.5 204.5 0 0 1-38.21 31.81 1 1 0 0 1-.37.14c-2.71.47-5.34.85-7.82 1.13a57.83 57.83 0 0 1-6.32.36z"/><path class="cls-1" d="M157.75 388.68c-4.58 0-10.78-1.22-17.92-3.52a1.06 1.06 0 0 1-.33-.18c-6.93-5.74-13-11.14-18.46-16.5a1 1 0 0 1-.27-1c11-46 28.35-85.41 57.85-131.75a7 7 0 0 0-11.85-7.55c-28.07 44.09-45.68 82.9-57.09 125.85a1 1 0 0 1-.75.71.83.83 0 0 1-.22 0 1 1 0 0 1-.76-.36c-2.13-2.51-4.14-5-6-7.53l-.08-.12a2.84 2.84 0 0 0-.18-.31c-23.68-37.72 6.79-87.94 23.15-114.92 2.81-4.62 5.23-8.61 7-11.92 11.29-21 16.75-36.34 18.84-53.07a7 7 0 0 0-6.1-7.84 6.65 6.65 0 0 0-.89-.06 7 7 0 0 0-7 6.16c-1.36 10.88-4.39 24.24-17.27 48.15-1.59 3-3.92 6.8-6.61 11.24C103.34 240 88.94 263.69 82.4 289a1 1 0 0 1-1 .75h-.12a1 1 0 0 1-.88-1c-.3-17.23 4.31-34.94 14.1-54.14 20.5-40.2 17.33-59.57 12.08-91.66l-.12-.76c-.31-1.9-.63-3.84-.95-5.84a7 7 0 0 0-13.88 2.22c.37 2.28.73 4.48 1.08 6.62 4.77 29.19 7.41 45.27-8 77.6a1 1 0 0 1-.91.57h-.24a1 1 0 0 1-.76-1 155.68 155.68 0 0 0-8.15-59.23 6.27 6.27 0 0 0-6-4.3 6.28 6.28 0 0 0-6 8.28c10.84 32.52 7.91 56.36 5.09 79.42-2.15 17.52-4.18 34.08-.61 53.35a108.1 108.1 0 0 0 10.57 34.33 137.76 137.76 0 0 0 11.7 19.27l.08.12c0 .09.2.36.26.45a6.79 6.79 0 0 0 .91 1.14l.08.1c1.27 1.71 2.63 3.47 4 5.21a1 1 0 0 1 0 1.3 1 1 0 0 1-.73.2 1 1 0 0 1-.56-.17c-13.15-8.92-23.1-18-28.76-26.38-21.31-31.33-18.87-56.37-16.29-82.87 2.1-21.61 4.28-44-7.05-70.33C30.81 157.68 13.53 143 2 138c-1.67-.73-2.26-2.18-1.79-4.42 1.8-8.63 20-26.2 36.88-26.2a19.36 19.36 0 0 1 10.62 3c8.29 5.3 14.17 7.66 19 7.66 9.35 0 14.5-8.82 21.29-22.27 5.22-10.33 12.83-16.25 20.89-16.25s15.5 6.21 20.22 17c5.26 12.11 10.37 17.75 16.07 17.75 4.82 0 9.87-4 16.35-13a9.21 9.21 0 0 1 7.9-3.93c8.34 0 20.16 8.38 26.35 18.68 3.72 6.2 4.59 11.84 2.44 15.88-7 13.13-13.16 31.77-7.57 41.08 2.35 3.92 6.53 5.9 12.42 5.9h2.98c10.19 0 18.34 5.44 21.8 14.54 3.26 8.58 1.22 17.8-5.2 23.5-12.29 10.92-20.57 33.34-29.34 57.07-1.65 4.48-3.52 9.55-5.4 14.45-6.88 17.92-11.49 44.58-15.19 66-2.15 12.45-4 23.19-5.87 29.91-.82 2.95-3.88 4.45-9.1 4.45z"/></g></g></svg>