<svg xmlns="http://www.w3.org/2000/svg" viewBox="0 0 294.23 498.99"><defs><style>.cls-1{fill:#abcd03}</style></defs><g id="レイヤー_2" data-name="レイヤー 2"><g id="レイヤー_1-2" data-name="レイヤー 1"><path class="cls-1" d="M291 45.63a9.44 9.44 0 0 0-13.33 1L246 83.2l27-44a9.46 9.46 0 0 0-16.13-9.89l-28.38 46.33L251.61 27a9.46 9.46 0 0 0-17.08-8.12L211.4 67.53l18-51.27A9.46 9.46 0 1 0 211.52 10l-17.06 48.7 8.41-47.6a9.46 9.46 0 0 0-18.63-3.29l-14.07 79.62c-1.87-.14-3.71-.22-5.54-.22-15.71 0-30.06 5.49-42.63 16.31-12 10.29-22.6 25.48-32.53 46.37C67 197.19 26.32 288.48 6.39 368.32c-11.62 46.54-4.5 85.27-1.08 103.87.5 2.72.93 5.06 1.14 6.58 1.72 12.91 8.4 17.39 11.2 18.72a16.72 16.72 0 0 0 7.11 1.5c4.58 0 9.45-1.57 14.47-4.65 1.3-.81 3.39-1.95 5.81-3.28C61.63 482 96.14 463 124.87 424.6c49.29-65.89 94.35-155.1 116.83-202.41 21.16-44.55 20.51-77.75-2.6-102L291.94 59a9.46 9.46 0 0 0-.94-13.37zM136.36 374.84l-16.2-7.69a7 7 0 1 0-6 12.64l14.42 6.85c-6.2 9.21-12.49 18.14-18.84 26.63-26.29 35.13-58.38 52.73-73.8 61.21-2.75 1.51-4.92 2.7-6.62 3.74a15.12 15.12 0 0 1-3.32 1.59 15.53 15.53 0 0 1-.85-3.55c-.26-2-.71-4.41-1.28-7.49C21 453 15.29 421.84 22.26 384.3l15 7.11a7 7 0 1 0 6-12.65l-17.86-8.47c15.12-59.35 42.39-126.22 62.77-172.21l11.69 5.55a7 7 0 1 0 6-12.64l-12-5.69c4.93-10.88 9.26-20.15 12.65-27.3 22.09-46.5 43.73-51.88 58.08-51.88 10.14 0 21.44 3 34.52 9.24 21 10 33.25 22.08 37.35 37 4.31 15.64.42 35.84-11.89 61.76C210 244.88 175.81 314 136.36 374.84z"/><path class="cls-1" d="M106.44 302.51l-27-12.81a7 7 0 1 0-6 12.64l27 12.82a7 7 0 0 0 6-12.65zm63.21-43.04l-19-9a7 7 0 0 0-6 12.65l19 9a7 7 0 1 0 6-12.65z"/></g></g></svg>