<svg xmlns="http://www.w3.org/2000/svg" viewBox="0 0 450 450"><defs><style>.cls-8{letter-spacing:.01em}</style><linearGradient id="名称未設定グラデーション" y1="617" x2="450" y2="617" gradientTransform="translate(0 -392)" gradientUnits="userSpaceOnUse"><stop offset="0" stop-color="#53a742"/><stop offset=".5" stop-color="#b1e061"/><stop offset="1" stop-color="#53a742"/></linearGradient></defs><g id="レイヤー_2" data-name="レイヤー 2"><g id="レイヤー_1-2" data-name="レイヤー 1"><circle cx="225" cy="225" r="225" fill="#59ab44"/><path d="M225 14c116.57.08 211 94.65 210.91 211.21a211.07 211.07 0 0 1-128.78 194.21C199.46 464.09 76 413 31.3 305.35-13 198.66 36.76 76.21 142.87 30.58A209.7 209.7 0 0 1 225 14m0-14C100.74 0 0 100.74 0 225s100.74 225 225 225 225-100.74 225-225S349.26 0 225 0z" fill="url(#名称未設定グラデーション)"/><circle cx="331.8" cy="322.53" r="18.84" fill="#f2657f" stroke="#fff" stroke-miterlimit="10"/><text transform="translate(131.47 369.54)" style="isolation:isolate" fill="#333" font-family="NotoSansCJKjp-Light-83pv-RKSJ-H,Noto Sans CJK JP" font-size="14" letter-spacing=".03em">東<tspan x="14.4" y="0" letter-spacing="0">京</tspan><tspan x="28.4" y="0" letter-spacing="-.01em">都</tspan><tspan x="42.22" y="0" letter-spacing=".04em">千</tspan><tspan class="cls-8" x="56.75" y="0">代</tspan><tspan x="70.94" y="0" letter-spacing="0">田</tspan><tspan x="84.96" y="0" letter-spacing=".1em">区</tspan><tspan x="100.42" y="0" letter-spacing="-.03em">大</tspan><tspan class="cls-8" x="113.97" y="0">手</tspan><tspan x="128.16" y="0" letter-spacing="-.13em">町</tspan><tspan x="140.41" y="0" letter-spacing="-.25em">２</tspan><tspan x="150.98" y="0" letter-spacing="-.15em">丁</tspan><tspan x="162.92" y="0" letter-spacing="-.03em">目</tspan><tspan x="176.53" y="0" letter-spacing="0">6</tspan><tspan x="184" y="0" letter-spacing="-.1em">-</tspan><tspan x="187.24" y="0" letter-spacing="-.11em">1</tspan></text><path d="M123 331.25c8.61-7.42 12-12.65 12-17.25 0-3.17-1.6-5.65-5.19-5.65a7.59 7.59 0 0 0-5.65 3.17l-1.28-1.22c1.91-2.12 4.07-3.66 7.14-3.66 4.43 0 7 2.9 7 7.29 0 5.33-4.11 10.66-10.87 17 1.39-.1 2.85-.21 4.18-.21h7.91v1.81H123zm18.11-11.54c0-8.81 2.86-13.07 7.49-13.07s7.46 4.26 7.46 13.07S153.2 333 148.6 333s-7.49-4.36-7.49-13.29zm12.93 0c0-7.56-2.16-11.36-5.44-11.36s-5.47 3.8-5.47 11.36c0 7.71 2.16 11.54 5.47 11.54s5.4-3.83 5.4-11.54zm5.15 11.02h5.75v-20.67h-4.43v-1.36a14.56 14.56 0 0 0 4.85-1.6H167v23.63h5.3v1.77h-13.1zm18.34-1.54a5.68 5.68 0 0 0 4.42 2c3.52 0 6.7-3.06 6.9-11.84a8.27 8.27 0 0 1-6.2 3.38c-4.25 0-6.87-2.83-6.87-8 0-4.77 3.18-8.12 6.87-8.12 4.91 0 8.19 4.12 8.19 11.78 0 10.7-4.29 14.54-8.92 14.54a7.41 7.41 0 0 1-5.61-2.44zm11.29-11.81c-.21-5.54-2.23-9.06-6.2-9.06-2.76 0-4.81 2.75-4.81 6.44s1.56 6.35 5.08 6.35c1.89 0 4.01-1.11 5.93-3.73zm25.86 11.31h-8.62v5.52H205v-5.52h-10.9v-1.08h3.9v-6.28h7v-4h-6a21.49 21.49 0 0 1-3.7 4.76 7.15 7.15 0 0 0-1-.69 20.12 20.12 0 0 0 5.43-8.14l1.12.28a29.46 29.46 0 0 1-1.24 2.73h14.17v1.06h-7.66v4h7.17v1.06h-7.17v5.22h8.62zm-9.68-1.08v-5.22h-5.87v5.22zm17.15.02a6.8 6.8 0 0 0 5 2.29c3.9 0 7.26-3.2 7.55-12.54a9.29 9.29 0 0 1-6.93 3.73c-5 0-8.28-3.24-8.28-9.48 0-5.82 3.93-9.75 8.61-9.75 5.78 0 10.08 4.75 10.08 14.31 0 12.17-5.24 16.85-10.9 16.85a9.58 9.58 0 0 1-7.18-3.04zm12.55-13.33c-.41-6.19-2.71-9.47-6.56-9.47-2.87 0-5.09 2.71-5.09 6.8s1.81 6.69 5.37 6.69c2.01 0 4.27-1.15 6.28-4.02zm23.43 17.93c0 1-.3 1.4-1 1.61a24.34 24.34 0 0 1-4.76.21 5 5 0 0 0-.46-1.16c2.07.05 3.89 0 4.42 0s.71-.19.71-.71v-5.36h-11.83a13.29 13.29 0 0 1-4 7.38 3.08 3.08 0 0 0-.8-.81c3.81-3.42 4.23-8.21 4.23-12v-6.76h13.52zm-1.13-6.44v-4.53h-11.29v.14a29.81 29.81 0 0 1-.3 4.39zm-11.29-10.07v4.46H257v-4.46zm20.52 9.28c0-4 2.79-6.8 5.54-8.28v-.21a8.33 8.33 0 0 1-4.06-6.92c0-4.6 3.52-7.63 8.24-7.63 5.13 0 8.24 3.28 8.24 7.91 0 3.16-2.21 5.87-4 7.26v.21c2.63 1.51 5.09 3.77 5.09 7.87 0 4.38-3.78 7.79-9.43 7.79s-9.62-3.33-9.62-8zm15.46.13c0-4-3.69-5.54-7.95-7.26a8.16 8.16 0 0 0-4.1 6.8c0 3.2 2.66 5.54 6.27 5.54 3.44.04 5.78-2.05 5.78-5.04zm-.7-15.05c0-2.95-1.88-5.37-5.12-5.37a4.62 4.62 0 0 0-4.76 4.88c0 3.6 3.24 5.16 6.77 6.56a8.07 8.07 0 0 0 3.12-6.03zm24.49 4.92v18.76h-1.13v-1.36h-12.18v1.5h-1.11V315zm-13.31 1.1v7h12.18v-7zm12.18 15.22v-7.12h-12.18v7.15zm35.25-17.48v19.07h-1.79v-1.41H326.4v1.5h-1.72v-19.16zm-13.2 1.68v6.21h11.41v-6.21zm11.41 14.3v-6.41H326.4v6.41z" fill="#fff"/><text transform="translate(76.63 389.03)" font-size="12" fill="#333" font-family="NotoSansCJKjp-Light-83pv-RKSJ-H,Noto Sans CJK JP"><tspan letter-spacing="-.06em">朝</tspan><tspan x="11.33" y="0" letter-spacing="-.06em">日</tspan><tspan x="22.61" y="0" letter-spacing="-.04em">生</tspan><tspan x="34.16" y="0" letter-spacing=".02em">命</tspan><tspan x="46.37" y="0" letter-spacing="-.03em">大</tspan><tspan x="58" y="0">手 </tspan><tspan x="72.67" y="0" letter-spacing="-.06em">町</tspan><tspan x="83.94" y="0" letter-spacing="-.07em">ビ</tspan><tspan x="95.05" y="0" letter-spacing="-.19em">ル</tspan><tspan x="104.79" y="0" letter-spacing="-.11em">フ</tspan><tspan x="115.41" y="0" letter-spacing="-.1em">ク</tspan><tspan x="126.18" y="0" letter-spacing="-.07em">ラ</tspan><tspan x="137.38" y="0" letter-spacing="-.12em">シ</tspan><tspan x="147.91" y="0" letter-spacing="-.02em">ア</tspan><tspan x="159.73" y="0" letter-spacing=".01em">東</tspan><tspan x="171.84" y="0" letter-spacing="-.04em">京</tspan><tspan x="183.37" y="0" letter-spacing="-.12em">ス</tspan><tspan x="193.9" y="0" letter-spacing="-.04em">テ</tspan><tspan x="205.43" y="0" letter-spacing="-.08em">ー</tspan><tspan x="216.46" y="0" letter-spacing="-.11em">シ</tspan><tspan x="227.2" y="0" letter-spacing="-.14em">ョ</tspan><tspan x="237.55" y="0" letter-spacing="-.01em">ン</tspan><tspan x="249.44" y="0" letter-spacing="0">会</tspan><tspan x="261.39" y="0" letter-spacing=".01em">議</tspan><tspan x="273.51" y="0" letter-spacing="-.01em">室</tspan><tspan x="285.36" y="0">1</tspan></text></g></g></svg>